<?xml version="1.0" encoding="utf-8" standalone="no"?>
<!DOCTYPE svg PUBLIC "-//W3C//DTD SVG 1.1//EN"
  "http://www.w3.org/Graphics/SVG/1.1/DTD/svg11.dtd">
<!-- Created with matplotlib (https://matplotlib.org/) -->
<svg height="804.474375pt" version="1.1" viewBox="0 0 798.650156 804.474375" width="798.650156pt" xmlns="http://www.w3.org/2000/svg" xmlns:xlink="http://www.w3.org/1999/xlink">
 <defs>
  <style type="text/css">
*{stroke-linecap:butt;stroke-linejoin:round;}
  </style>
 </defs>
 <g id="figure_1">
  <g id="patch_1">
   <path d="M 0 804.474375 
L 798.650156 804.474375 
L 798.650156 0 
L 0 0 
z
" style="fill:none;"/>
  </g>
  <g id="axes_1">
   <g id="patch_2">
    <path d="M 16.74375 782.757187 
L 777.78375 782.757187 
L 777.78375 21.717187 
L 16.74375 21.717187 
z
" style="fill:none;"/>
   </g>
   <g id="matplotlib.axis_1"/>
   <g id="matplotlib.axis_2"/>
   <g id="line2d_1">
    <path clip-path="url(#pf85df6d1ee)" d="M 51.336477 402.237187 
L 51.44689 405.913129 
L 51.777882 409.58286 
L 52.32872 413.24019 
L 53.098182 416.878973 
L 54.084566 420.493127 
L 55.324247 424.181528 
L 56.788598 427.831048 
L 58.474215 431.435404 
L 60.377202 434.988473 
L 62.556716 438.583302 
L 64.956287 442.111357 
L 67.645751 445.661541 
L 70.554788 449.128675 
L 73.676125 452.506885 
L 77.094681 455.878035 
L 80.720163 459.143969 
L 84.646487 462.381026 
L 88.770544 465.496702 
L 93.194395 468.56135 
L 97.920266 471.560444 
L 102.826716 474.411516 
L 108.025875 477.17499 
L 113.51489 479.836341 
L 119.155978 482.325293 
L 125.068821 484.691835 
L 131.245217 486.922428 
L 137.674841 489.003997 
L 144.202396 490.885406 
L 150.953083 492.602547 
L 157.911523 494.144786 
L 165.060419 495.502502 
L 172.38066 496.667229 
L 179.851453 497.631797 
L 187.450486 498.390453 
L 195.154122 498.938967 
L 203.081004 499.278883 
L 211.058442 499.397179 
L 219.059049 499.295131 
L 227.19169 498.9685 
L 235.286235 498.422602 
L 243.44443 497.650664 
L 251.627555 496.652614 
L 259.796218 495.431412 
L 267.911056 493.992989 
L 275.933453 492.346099 
L 283.933305 490.475493 
L 291.758019 488.417963 
L 299.471295 486.160098 
L 307.027557 483.716051 
L 314.385165 481.102199 
L 319.592169 479.103867 
M 319.592169 325.370508 
L 312.504532 322.681241 
L 305.204373 320.146898 
L 297.632144 317.754646 
L 289.916631 315.551481 
L 282.104042 313.550675 
L 274.129852 311.738271 
L 266.029842 310.127736 
L 257.964555 308.749466 
L 249.859024 307.58703 
L 241.621515 306.631925 
L 233.414399 305.906035 
L 225.276705 305.408881 
L 217.106286 305.134158 
L 209.074146 305.085928 
L 201.071019 305.260489 
L 193.124511 305.658789 
L 185.40766 306.266313 
L 177.801492 307.085288 
L 170.329658 308.111126 
L 163.014428 309.337715 
L 155.876499 310.757531 
L 148.934835 312.361762 
L 142.206534 314.140456 
L 135.566524 316.127109 
L 129.17303 318.274125 
L 123.038167 320.568745 
L 117.171894 322.997615 
L 111.582023 325.546945 
L 106.149844 328.26788 
L 101.011579 331.088528 
L 96.169631 333.994194 
L 91.513169 337.046444 
L 87.16165 340.16134 
L 83.011163 343.406968 
L 79.169009 346.692371 
L 75.539209 350.091804 
L 72.216117 353.508237 
L 69.112601 357.021662 
L 66.309505 360.529953 
L 63.729344 364.118319 
L 61.43911 367.680525 
L 59.371634 371.306417 
L 57.531934 374.989644 
L 55.96598 378.619288 
L 54.623204 382.290704 
L 53.50673 385.997528 
L 52.641329 389.626191 
L 51.99386 393.276093 
L 51.565757 396.941114 
L 51.357971 400.615081 
L 51.336477 402.237187 
L 51.336477 402.237187 
" style="fill:none;stroke:#8d5ccd;stroke-linecap:square;stroke-width:3;"/>
   </g>
   <g id="line2d_2">
    <path clip-path="url(#pf85df6d1ee)" d="M 68.267363 295.339781 
L 67.236443 298.869929 
L 66.417227 302.462332 
L 65.810927 306.110878 
L 65.418283 309.809344 
L 65.239555 313.551418 
L 65.278784 317.442378 
L 65.5437 321.365787 
L 66.03301 325.314618 
L 66.744899 329.281842 
L 67.706878 333.374235 
L 68.898776 337.471123 
L 70.359541 341.678639 
L 72.054796 345.875021 
L 73.979439 350.052436 
L 76.188937 354.314981 
L 78.627746 358.541405 
L 81.361597 362.83333 
L 84.321011 367.070918 
L 87.581315 371.352616 
L 91.149114 375.665299 
L 94.934396 379.893006 
L 99.02513 384.127854 
L 103.423091 388.355148 
L 108.018955 392.465474 
L 112.911102 396.543358 
L 118.095912 400.57339 
L 123.567607 404.539943 
L 129.194294 408.346394 
L 135.083953 412.065569 
L 141.225245 415.682602 
L 147.604692 419.182997 
L 154.206734 422.552798 
L 161.013813 425.778758 
L 168.006485 428.848513 
L 175.163578 431.750735 
L 182.597451 434.523556 
L 190.14789 437.101226 
L 197.788453 439.476496 
L 205.62399 441.678976 
L 213.491051 443.661148 
L 221.488498 445.448012 
L 229.579526 447.027535 
L 237.725759 448.390358 
L 245.887926 449.52996 
L 254.026595 450.442731 
L 262.212956 451.135769 
L 270.290513 451.596912 
L 278.323993 451.833088 
L 286.265678 451.843674 
L 294.070903 451.631379 
L 299.640577 451.339905 
M 347.146797 305.130793 
L 341.237082 300.382947 
L 335.077374 295.716771 
L 328.615003 291.101656 
L 321.95793 286.622098 
L 315.145999 282.304995 
L 308.122157 278.117136 
L 300.916273 274.082386 
L 293.671638 270.279262 
L 286.322032 266.668973 
L 278.782839 263.215084 
L 271.201721 259.988583 
L 263.615942 257.001076 
L 255.930306 254.215001 
L 248.306191 251.687063 
L 240.640822 249.379979 
L 232.960163 247.303178 
L 225.433266 245.49633 
L 217.946294 243.924786 
L 210.523156 242.591492 
L 203.186922 241.497518 
L 195.959601 240.642101 
L 188.861951 240.022723 
L 181.91331 239.635202 
L 174.984376 239.472746 
L 168.240337 239.538981 
L 161.696659 239.825518 
L 155.366939 240.322732 
L 149.26287 241.019924 
L 143.255746 241.929051 
L 137.497337 243.023836 
L 131.994471 244.291044 
L 126.622715 245.75498 
L 121.521619 247.37273 
L 116.571317 249.176934 
L 111.901966 251.114247 
L 107.399339 253.22563 
L 103.183154 255.447959 
L 99.145827 257.830386 
L 95.395803 260.300764 
L 91.833058 262.916189 
L 88.554134 265.596328 
L 85.467385 268.405871 
L 82.579547 271.340329 
L 79.968615 274.308419 
L 77.557028 277.385203 
L 75.349726 280.565593 
L 73.405363 283.749232 
L 71.661701 287.020417 
L 70.121998 290.373768 
L 68.789063 293.803708 
L 68.267363 295.339781 
L 68.267363 295.339781 
" style="fill:none;stroke:#b068b9;stroke-linecap:square;stroke-width:3;"/>
   </g>
   <g id="line2d_3">
    <path clip-path="url(#pf85df6d1ee)" d="M 117.402708 198.906238 
L 115.331369 201.945036 
L 113.442134 205.108463 
L 111.738046 208.39108 
L 110.221731 211.787196 
L 108.895386 215.29089 
L 107.730321 219.003535 
L 106.769871 222.816783 
L 106.014978 226.723549 
L 105.466084 230.716589 
L 105.116362 234.905953 
L 104.983916 239.170642 
L 105.072992 243.623629 
L 105.388523 248.138488 
L 105.928075 252.706193 
L 106.712233 257.442887 
L 107.725642 262.216089 
L 108.99941 267.142758 
L 110.504494 272.087453 
L 112.28211 277.167079 
L 114.342596 282.371195 
L 116.63618 287.561699 
L 119.218059 292.853386 
L 122.094462 298.232826 
L 125.195228 303.562179 
L 128.587801 308.952234 
L 132.273501 314.387216 
L 136.25166 319.850479 
L 140.426698 325.209371 
L 144.878809 330.566521 
L 149.601799 335.904287 
L 154.587332 341.204718 
L 159.824923 346.449732 
L 165.301962 351.621306 
L 171.003782 356.701671 
L 176.913746 361.673511 
L 183.126931 366.607814 
L 189.511282 371.392538 
L 196.04389 376.012618 
L 202.815325 380.528615 
L 209.68482 384.844828 
L 216.738672 389.015584 
L 223.945598 393.018064 
L 231.27199 396.831511 
L 238.682515 400.437585 
L 246.140788 403.820669 
L 253.71232 407.009512 
L 261.252032 409.944187 
L 268.819343 412.651285 
L 276.369062 415.115469 
L 283.857875 417.325512 
L 289.24502 418.769428 
M 379.607222 294.396528 
L 375.453914 288.054856 
L 371.03761 281.713604 
L 366.31768 275.327387 
L 361.370686 269.009925 
L 356.226214 262.799114 
L 350.840262 256.645736 
L 345.233866 250.58172 
L 339.519038 244.72602 
L 333.644788 239.021278 
L 327.5419 233.406695 
L 321.328872 227.995416 
L 315.037558 222.809993 
L 308.589028 217.785286 
L 302.11924 213.025094 
L 295.541969 208.462197 
L 288.878994 204.113588 
L 282.278838 200.069234 
L 275.643937 196.261005 
L 268.996124 192.699091 
L 262.357007 189.391639 
L 255.747755 186.344724 
L 249.188887 183.562367 
L 242.700088 181.046564 
L 236.160481 178.750901 
L 229.726051 176.729872 
L 223.414099 174.980276 
L 217.24053 173.497164 
L 211.219771 172.273972 
L 205.225721 171.2823 
L 199.410842 170.544056 
L 193.785716 170.048764 
L 188.224492 169.781086 
L 182.873149 169.743331 
L 177.607602 169.929504 
L 172.568123 170.329089 
L 167.633417 170.945746 
L 162.936849 171.756434 
L 158.360913 172.774653 
L 154.031039 173.965301 
L 149.834456 175.35177 
L 145.887806 176.88749 
L 142.083936 178.605666 
L 138.430641 180.504111 
L 135.030307 182.52011 
L 131.785974 184.701084 
L 128.703911 187.04372 
L 125.870912 189.4707 
L 123.20174 192.042961 
L 120.701153 194.756392 
L 118.373547 197.60656 
L 117.402708 198.906238 
L 117.402708 198.906238 
" style="fill:none;stroke:#b42c62;stroke-linecap:square;stroke-width:3;"/>
   </g>
   <g id="line2d_4">
    <path clip-path="url(#pf85df6d1ee)" d="M 193.932801 122.376145 
L 191.0238 124.626135 
L 188.249478 127.050927 
L 185.61441 129.646289 
L 183.122851 132.40762 
L 180.778721 135.329968 
L 178.523409 138.500878 
L 176.431608 141.830697 
L 174.506405 145.312977 
L 172.750459 148.940967 
L 171.123268 152.817219 
L 169.679443 156.832251 
L 168.388111 161.094819 
L 167.29303 165.48621 
L 166.394676 169.997087 
L 165.676736 174.744268 
L 165.165544 179.597014 
L 164.854546 184.67617 
L 164.757971 189.843951 
L 164.878893 195.224276 
L 165.230372 200.810409 
L 165.807746 206.455629 
L 166.628037 212.286166 
L 167.701321 218.291175 
L 169.003464 224.317881 
L 170.564374 230.49249 
L 172.390181 236.800409 
L 174.485394 243.225599 
L 176.800103 249.612367 
L 179.378861 256.083097 
L 182.221232 262.619099 
L 185.324832 269.200723 
L 188.685278 275.807532 
L 192.296148 282.418489 
L 196.148982 289.012162 
L 200.233309 295.566943 
L 204.617615 302.179723 
L 209.210932 308.703139 
L 213.996128 315.115784 
L 219.040626 321.50324 
L 224.240121 327.730993 
L 229.659899 333.877378 
L 235.277257 339.911026 
L 241.066651 345.801809 
L 247.000141 351.521367 
L 253.04795 357.043604 
L 259.263497 362.416106 
L 265.527325 367.537047 
L 271.887726 372.450078 
L 278.306462 377.126648 
L 284.745805 381.542694 
L 289.42309 384.580659 
M 413.79599 294.218458 
L 411.805644 286.903727 
L 409.565044 279.508125 
L 407.049573 271.975933 
L 404.296906 264.438965 
L 401.323468 256.942403 
L 398.102622 249.425843 
L 394.644506 241.926149 
L 391.018893 234.591068 
L 387.195012 227.350293 
L 383.125822 220.124611 
L 378.889058 213.058248 
L 374.508047 206.182495 
L 369.92785 199.411009 
L 365.245697 192.884522 
L 360.400353 186.512461 
L 355.407281 180.317715 
L 350.379933 174.431746 
L 345.246575 168.759608 
L 340.024821 163.317739 
L 334.732705 158.120565 
L 329.388481 153.180406 
L 324.010422 148.507425 
L 318.616633 144.109606 
L 313.106497 139.90545 
L 307.611523 135.994989 
L 302.149154 132.380525 
L 296.736048 129.062264 
L 291.387953 126.038422 
L 285.993716 123.243022 
L 280.691567 120.744014 
L 275.494809 118.534703 
L 270.288487 116.561614 
L 265.210724 114.872051 
L 260.145361 113.421969 
L 255.229053 112.244712 
L 250.345311 111.306279 
L 245.628094 110.62597 
L 240.961473 110.180312 
L 236.475587 109.974681 
L 232.055958 109.996476 
L 227.827907 110.23745 
L 223.679266 110.696073 
L 219.618124 111.372671 
L 215.761236 112.239239 
L 212.001734 113.310914 
L 208.346603 114.586484 
L 204.902283 116.019234 
L 201.568878 117.64078 
L 198.352181 119.448683 
L 195.257746 121.440083 
L 193.932801 122.376145 
L 193.932801 122.376145 
" style="fill:none;stroke:#da5c55;stroke-linecap:square;stroke-width:3;"/>
   </g>
   <g id="line2d_5">
    <path clip-path="url(#pf85df6d1ee)" d="M 290.366344 73.240801 
L 286.904435 74.481738 
L 283.516596 75.930539 
L 280.208487 77.584594 
L 276.985575 79.440842 
L 273.853119 81.495784 
L 270.728325 83.814569 
L 267.709933 86.335013 
L 264.802872 89.051938 
L 262.011758 91.959744 
L 259.26638 95.143449 
L 256.652508 98.515805 
L 254.107172 102.170705 
L 251.708674 106.008767 
L 249.460351 110.021259 
L 247.310589 114.314241 
L 245.324837 118.771509 
L 243.459514 123.50597 
L 241.770733 128.390979 
L 240.223125 133.545339 
L 238.831191 138.966681 
L 237.635838 144.514022 
L 236.614246 150.312676 
L 235.77935 156.355442 
L 235.155407 162.489564 
L 234.731862 168.844314 
L 234.519053 175.407707 
L 234.526226 182.165882 
L 234.754025 188.955343 
L 235.207004 195.906254 
L 235.890524 203.000702 
L 236.808389 210.219263 
L 237.962747 217.541147 
L 239.35399 224.944361 
L 240.980696 232.405908 
L 242.839583 239.902002 
L 244.965844 247.545955 
L 247.318503 255.169505 
L 249.887879 262.746999 
L 252.711648 270.380666 
L 255.73218 277.910344 
L 258.987358 285.430707 
L 262.465284 292.904906 
L 266.150972 300.296395 
L 270.026616 307.569567 
L 274.071959 314.690403 
L 278.323101 321.720665 
L 282.697898 328.526599 
L 287.228789 335.164641 
L 291.888229 341.595822 
L 296.647776 347.785598 
L 300.157355 352.120235 
M 446.366468 304.614014 
L 446.733913 297.042241 
L 446.888342 289.316222 
L 446.823562 281.375358 
L 446.534672 273.356654 
L 446.023329 265.308157 
L 445.282867 257.164188 
L 444.311537 248.962939 
L 443.130038 240.866486 
L 441.730834 232.798455 
L 440.093662 224.668975 
L 438.247886 216.639232 
L 436.206022 208.746195 
L 433.942501 200.890771 
L 431.506303 193.236848 
L 428.867183 185.679364 
L 426.032771 178.244867 
L 423.070343 171.093441 
L 419.941017 164.112623 
L 416.656463 157.323488 
L 413.229377 150.745328 
L 409.673311 144.395501 
L 406.002504 138.28932 
L 402.231707 132.439973 
L 398.290411 126.738858 
L 394.272779 121.321748 
L 390.194689 116.196223 
L 386.071918 111.367628 
L 381.919996 106.839131 
L 377.653598 102.513637 
L 373.383191 98.498485 
L 369.123494 94.791419 
L 364.781706 91.306057 
L 360.47457 88.130073 
L 356.105223 85.18568 
L 351.793329 82.546819 
L 347.438606 80.145157 
L 343.162493 78.040444 
L 338.861989 76.174533 
L 334.659201 74.592752 
L 330.449149 73.247739 
L 326.353568 72.17038 
L 322.266254 71.324555 
L 318.194799 70.713076 
L 314.258896 70.345388 
L 310.352231 70.202861 
L 306.481822 70.286503 
L 302.763335 70.584776 
L 299.091993 71.096878 
L 295.47406 71.822282 
L 291.915701 72.759984 
L 290.366344 73.240801 
L 290.366344 73.240801 
" style="fill:none;stroke:#ed9324;stroke-linecap:square;stroke-width:3;"/>
   </g>
   <g id="line2d_6">
    <path clip-path="url(#pf85df6d1ee)" d="M 397.26375 56.309915 
L 393.587808 56.420327 
L 389.918078 56.75132 
L 386.260748 57.302158 
L 382.621964 58.07162 
L 379.00781 59.058004 
L 375.319409 60.297685 
L 371.669889 61.762035 
L 368.065534 63.447653 
L 364.512464 65.350639 
L 360.917636 67.530154 
L 357.38958 69.929725 
L 353.839396 72.619188 
L 350.372262 75.528225 
L 346.994052 78.649562 
L 343.622903 82.068118 
L 340.356968 85.693601 
L 337.119912 89.619924 
L 334.004235 93.743981 
L 330.939588 98.167832 
L 327.940493 102.893703 
L 325.089422 107.800154 
L 322.325948 112.999313 
L 319.664597 118.488328 
L 317.175644 124.129415 
L 314.809103 130.042259 
L 312.57851 136.218654 
L 310.49694 142.648278 
L 308.615532 149.175833 
L 306.898391 155.926521 
L 305.356151 162.88496 
L 303.998436 170.033856 
L 302.833708 177.354098 
L 301.86914 184.824891 
L 301.110485 192.423923 
L 300.561971 200.127559 
L 300.222054 208.054441 
L 300.103759 216.03188 
L 300.205806 224.032486 
L 300.532438 232.165128 
L 301.078336 240.259673 
L 301.850274 248.417868 
L 302.848323 256.600992 
L 304.069526 264.769656 
L 305.507948 272.884494 
L 307.154839 280.90689 
L 309.025445 288.906743 
L 311.082974 296.731457 
L 313.34084 304.444732 
L 315.784887 312.000995 
L 318.398739 319.358602 
L 320.397071 324.565607 
M 474.130429 324.565607 
L 476.819697 317.477969 
L 479.354039 310.17781 
L 481.746292 302.605582 
L 483.949456 294.890069 
L 485.950263 287.07748 
L 487.762667 279.103289 
L 489.373202 271.00328 
L 490.751471 262.937993 
L 491.913907 254.832462 
L 492.869012 246.594953 
L 493.594902 238.387837 
L 494.092056 230.250142 
L 494.366779 222.079723 
L 494.41501 214.047584 
L 494.240448 206.044456 
L 493.842148 198.097948 
L 493.234625 190.381098 
L 492.41565 182.774929 
L 491.389812 175.303095 
L 490.163222 167.987866 
L 488.743407 160.849937 
L 487.139175 153.908272 
L 485.360482 147.179972 
L 483.373828 140.539962 
L 481.226812 134.146467 
L 478.932192 128.011605 
L 476.503323 122.145331 
L 473.953992 116.55546 
L 471.233058 111.123281 
L 468.412409 105.985016 
L 465.506743 101.143069 
L 462.454494 96.486607 
L 459.339597 92.135088 
L 456.093969 87.984601 
L 452.808567 84.142446 
L 449.409134 80.512647 
L 445.9927 77.189554 
L 442.479276 74.086039 
L 438.970985 71.282942 
L 435.382619 68.702781 
L 431.820413 66.412548 
L 428.19452 64.345071 
L 424.511293 62.505371 
L 420.881649 60.939418 
L 417.210233 59.596641 
L 413.503409 58.480167 
L 409.874746 57.614766 
L 406.224844 56.967297 
L 402.559823 56.539195 
L 398.885857 56.331408 
L 397.26375 56.309915 
L 397.26375 56.309915 
" style="fill:none;stroke:#d1a10e;stroke-linecap:square;stroke-width:3;"/>
   </g>
   <g id="line2d_7">
    <path clip-path="url(#pf85df6d1ee)" d="M 504.161156 73.240801 
L 500.631009 72.209881 
L 497.038605 71.390664 
L 493.390059 70.784365 
L 489.691593 70.391721 
L 485.949519 70.212993 
L 482.058559 70.252221 
L 478.13515 70.517137 
L 474.18632 71.006448 
L 470.219095 71.718337 
L 466.126703 72.680315 
L 462.029815 73.872213 
L 457.822299 75.332978 
L 453.625917 77.028234 
L 449.448502 78.952877 
L 445.185956 81.162374 
L 440.959532 83.601184 
L 436.667608 86.335034 
L 432.43002 89.294449 
L 428.148322 92.554753 
L 423.835639 96.122552 
L 419.607932 99.907834 
L 415.373084 103.998567 
L 411.14579 108.396528 
L 407.035463 112.992393 
L 402.957579 117.88454 
L 398.927548 123.06935 
L 394.960995 128.541045 
L 391.154543 134.167731 
L 387.435368 140.057391 
L 383.818335 146.198682 
L 380.31794 152.578129 
L 376.94814 159.180172 
L 373.722179 165.98725 
L 370.652425 172.979922 
L 367.750203 180.137015 
L 364.977382 187.570888 
L 362.399712 195.121328 
L 360.024441 202.761891 
L 357.821962 210.597427 
L 355.83979 218.464489 
L 354.052926 226.461936 
L 352.473403 234.552963 
L 351.110579 242.699196 
L 349.970977 250.861363 
L 349.058207 259.000033 
L 348.365168 267.186393 
L 347.904025 275.26395 
L 347.66785 283.29743 
L 347.657263 291.239115 
L 347.869558 299.04434 
L 348.161032 304.614014 
M 494.370145 352.120235 
L 499.11799 346.21052 
L 503.784166 340.050811 
L 508.399281 333.588441 
L 512.87884 326.931367 
L 517.195943 320.119437 
L 521.383802 313.095594 
L 525.418552 305.88971 
L 529.221675 298.645075 
L 532.831964 291.29547 
L 536.285853 283.756277 
L 539.512354 276.175158 
L 542.499861 268.58938 
L 545.285937 260.903743 
L 547.813874 253.279629 
L 550.120959 245.61426 
L 552.197759 237.9336 
L 554.004608 230.406704 
L 555.576152 222.919731 
L 556.909445 215.496593 
L 558.00342 208.160359 
L 558.858836 200.933038 
L 559.478214 193.835388 
L 559.865735 186.886748 
L 560.028191 179.957813 
L 559.961956 173.213774 
L 559.675419 166.670096 
L 559.178206 160.340377 
L 558.481013 154.236307 
L 557.571886 148.229183 
L 556.477101 142.470775 
L 555.209893 136.967908 
L 553.745957 131.596153 
L 552.128208 126.495057 
L 550.324003 121.544755 
L 548.386691 116.875404 
L 546.275307 112.372776 
L 544.052978 108.156592 
L 541.670552 104.119265 
L 539.200174 100.36924 
L 536.584748 96.806495 
L 533.90461 93.527572 
L 531.095067 90.440822 
L 528.160608 87.552984 
L 525.192518 84.942052 
L 522.115735 82.530466 
L 518.935345 80.323164 
L 515.751705 78.3788 
L 512.480521 76.635139 
L 509.12717 75.095435 
L 505.69723 73.762501 
L 504.161156 73.240801 
L 504.161156 73.240801 
" style="fill:none;stroke:#9ca538;stroke-linecap:square;stroke-width:3;"/>
   </g>
   <g id="line2d_8">
    <path clip-path="url(#pf85df6d1ee)" d="M 600.594699 122.376145 
L 597.555901 120.304806 
L 594.392474 118.415571 
L 591.109858 116.711484 
L 587.713742 115.195168 
L 584.210047 113.868823 
L 580.497402 112.703759 
L 576.684155 111.743309 
L 572.777389 110.988415 
L 568.784348 110.439522 
L 564.594984 110.089799 
L 560.330295 109.957354 
L 555.877308 110.04643 
L 551.362449 110.36196 
L 546.794744 110.901512 
L 542.05805 111.68567 
L 537.284848 112.699079 
L 532.35818 113.972848 
L 527.413485 115.477931 
L 522.333858 117.255547 
L 517.129743 119.316033 
L 511.939238 121.609618 
L 506.647552 124.191496 
L 501.268112 127.0679 
L 495.938759 130.168666 
L 490.548704 133.561239 
L 485.113722 137.246938 
L 479.650459 141.225097 
L 474.291567 145.400136 
L 468.934416 149.852247 
L 463.59665 154.575237 
L 458.296219 159.56077 
L 453.051205 164.79836 
L 447.879631 170.2754 
L 442.799267 175.97722 
L 437.827426 181.887184 
L 432.893123 188.100368 
L 428.1084 194.484719 
L 423.488319 201.017327 
L 418.972323 207.788762 
L 414.65611 214.658257 
L 410.485354 221.71211 
L 406.482873 228.919035 
L 402.669427 236.245427 
L 399.063353 243.655953 
L 395.680269 251.114226 
L 392.491426 258.685757 
L 389.55675 266.225469 
L 386.849652 273.79278 
L 384.385468 281.3425 
L 382.175426 288.831313 
L 380.73151 294.218458 
M 505.10441 384.580659 
L 511.446081 380.427352 
L 517.787333 376.011048 
L 524.173551 371.291117 
L 530.491013 366.344124 
L 536.701824 361.199651 
L 542.855201 355.8137 
L 548.919217 350.207303 
L 554.774918 344.492476 
L 560.47966 338.618226 
L 566.094242 332.515338 
L 571.505521 326.302309 
L 576.690944 320.010996 
L 581.715652 313.562466 
L 586.475844 307.092678 
L 591.038741 300.515407 
L 595.38735 293.852432 
L 599.431704 287.252275 
L 603.239933 280.617375 
L 606.801846 273.969561 
L 610.109299 267.330445 
L 613.156213 260.721193 
L 615.938571 254.162324 
L 618.454373 247.673525 
L 620.750037 241.133919 
L 622.771066 234.699488 
L 624.520661 228.387536 
L 626.003773 222.213968 
L 627.226965 216.193208 
L 628.218638 210.199158 
L 628.956882 204.384279 
L 629.452174 198.759153 
L 629.719852 193.197929 
L 629.757606 187.846586 
L 629.571433 182.581039 
L 629.171848 177.54156 
L 628.555192 172.606854 
L 627.744504 167.910287 
L 626.726284 163.334351 
L 625.535636 159.004476 
L 624.149168 154.807894 
L 622.613448 150.861243 
L 620.895272 147.057374 
L 618.996827 143.404079 
L 616.980828 140.003745 
L 614.799854 136.759411 
L 612.457217 133.677348 
L 610.030237 130.84435 
L 607.457977 128.175178 
L 604.744545 125.67459 
L 601.894378 123.346984 
L 600.594699 122.376145 
L 600.594699 122.376145 
" style="fill:none;stroke:#51b284;stroke-linecap:square;stroke-width:3;"/>
   </g>
   <g id="line2d_9">
    <path clip-path="url(#pf85df6d1ee)" d="M 677.124792 198.906238 
L 674.874803 195.997238 
L 672.450011 193.222916 
L 669.854649 190.587848 
L 667.093317 188.096289 
L 664.17097 185.752159 
L 661.000059 183.496846 
L 657.670241 181.405046 
L 654.18796 179.479842 
L 650.55997 177.723896 
L 646.683718 176.096705 
L 642.668686 174.652881 
L 638.406118 173.361548 
L 634.014728 172.266467 
L 629.503851 171.368114 
L 624.756669 170.650173 
L 619.903924 170.138982 
L 614.824768 169.827983 
L 609.656987 169.731408 
L 604.276661 169.852331 
L 598.690528 170.203809 
L 593.045308 170.781183 
L 587.214771 171.601475 
L 581.209762 172.674759 
L 575.183057 173.976902 
L 569.008447 175.537812 
L 562.700529 177.363618 
L 556.275338 179.458831 
L 549.888571 181.77354 
L 543.41784 184.352299 
L 536.881838 187.194669 
L 530.300215 190.298269 
L 523.693406 193.658715 
L 517.082448 197.269585 
L 510.488775 201.122419 
L 503.933994 205.206746 
L 497.321214 209.591052 
L 490.797798 214.18437 
L 484.385154 218.969566 
L 477.997698 224.014063 
L 471.769944 229.213558 
L 465.623559 234.633336 
L 459.589912 240.250695 
L 453.699129 246.040088 
L 447.97957 251.973579 
L 442.457333 258.021387 
L 437.084831 264.236935 
L 431.96389 270.500762 
L 427.050859 276.861164 
L 422.374289 283.279899 
L 417.958243 289.719243 
L 414.920278 294.396528 
M 505.28248 418.769428 
L 512.59721 416.779082 
L 519.992812 414.538482 
L 527.525004 412.023011 
L 535.061973 409.270344 
L 542.558535 406.296906 
L 550.075095 403.07606 
L 557.574789 399.617944 
L 564.90987 395.992331 
L 572.150645 392.168449 
L 579.376326 388.099259 
L 586.44269 383.862495 
L 593.318443 379.481484 
L 600.089929 374.901288 
L 606.616415 370.219134 
L 612.988477 365.37379 
L 619.183222 360.380719 
L 625.069192 355.353371 
L 630.74133 350.220013 
L 636.183198 344.998258 
L 641.380372 339.706143 
L 646.320531 334.361919 
L 650.993512 328.98386 
L 655.391332 323.590071 
L 659.595487 318.079934 
L 663.505949 312.58496 
L 667.120413 307.122592 
L 670.438674 301.709486 
L 673.462516 296.36139 
L 676.257915 290.967154 
L 678.756924 285.665005 
L 680.966234 280.468246 
L 682.939324 275.261925 
L 684.628886 270.184162 
L 686.078968 265.118799 
L 687.256225 260.202491 
L 688.194658 255.318749 
L 688.874968 250.601531 
L 689.320625 245.93491 
L 689.526256 241.449025 
L 689.504462 237.029395 
L 689.263487 232.801344 
L 688.804865 228.652703 
L 688.128267 224.591562 
L 687.261699 220.734674 
L 686.190024 216.975171 
L 684.914453 213.320041 
L 683.481703 209.875721 
L 681.860158 206.542315 
L 680.052255 203.325619 
L 678.060854 200.231184 
L 677.124792 198.906238 
L 677.124792 198.906238 
" style="fill:none;stroke:#12b5cd;stroke-linecap:square;stroke-width:3;"/>
   </g>
   <g id="line2d_10">
    <path clip-path="url(#pf85df6d1ee)" d="M 726.260137 295.339781 
L 725.0192 291.877873 
L 723.570398 288.490034 
L 721.916343 285.181924 
L 720.060095 281.959012 
L 718.005153 278.826557 
L 715.686368 275.701762 
L 713.165924 272.683371 
L 710.449 269.77631 
L 707.541193 266.985195 
L 704.357488 264.239817 
L 700.985132 261.625945 
L 697.330233 259.080609 
L 693.492171 256.682111 
L 689.479679 254.433788 
L 685.186696 252.284027 
L 680.729428 250.298274 
L 675.994967 248.432951 
L 671.109959 246.744171 
L 665.955598 245.196563 
L 660.534257 243.804629 
L 654.986916 242.609275 
L 649.188261 241.587684 
L 643.145495 240.752788 
L 637.011373 240.128845 
L 630.656623 239.705299 
L 624.093231 239.49249 
L 617.335055 239.499663 
L 610.545594 239.727463 
L 603.594683 240.180442 
L 596.500235 240.863961 
L 589.281674 241.781827 
L 581.95979 242.936184 
L 574.556576 244.327428 
L 567.095029 245.954134 
L 559.598936 247.813021 
L 551.954983 249.939282 
L 544.331433 252.29194 
L 536.753938 254.861316 
L 529.120271 257.685086 
L 521.590593 260.705618 
L 514.070231 263.960795 
L 506.596031 267.438721 
L 499.204543 271.12441 
L 491.93137 275.000054 
L 484.810535 279.045396 
L 477.780272 283.296539 
L 470.974339 287.671335 
L 464.336296 292.202226 
L 457.905116 296.861667 
L 451.71534 301.621213 
L 447.380703 305.130793 
M 494.886923 451.339905 
L 502.458697 451.70735 
L 510.184715 451.86178 
L 518.125579 451.797 
L 526.144283 451.508109 
L 534.19278 450.996767 
L 542.33675 450.256305 
L 550.537999 449.284974 
L 558.634451 448.103476 
L 566.702482 446.704271 
L 574.831962 445.0671 
L 582.861706 443.221324 
L 590.754742 441.179459 
L 598.610167 438.915938 
L 606.264089 436.47974 
L 613.821573 433.84062 
L 621.25607 431.006208 
L 628.407496 428.043781 
L 635.388315 424.914455 
L 642.17745 421.629901 
L 648.75561 418.202815 
L 655.105436 414.646749 
L 661.211617 410.975941 
L 667.060964 407.205144 
L 672.76208 403.263849 
L 678.17919 399.246216 
L 683.304714 395.168126 
L 688.13331 391.045356 
L 692.661807 386.893433 
L 696.9873 382.627035 
L 701.002453 378.356628 
L 704.709518 374.096931 
L 708.19488 369.755144 
L 711.370864 365.448008 
L 714.315258 361.078661 
L 716.954119 356.766767 
L 719.35578 352.412044 
L 721.460493 348.135931 
L 723.326404 343.835426 
L 724.908186 339.632639 
L 726.253198 335.422586 
L 727.330558 331.327006 
L 728.176383 327.239692 
L 728.787861 323.168237 
L 729.15555 319.232334 
L 729.298077 315.325669 
L 729.214435 311.45526 
L 728.916162 307.736773 
L 728.404059 304.065431 
L 727.678655 300.447498 
L 726.740954 296.889139 
L 726.260137 295.339781 
L 726.260137 295.339781 
" style="fill:none;stroke:#6098dd;stroke-linecap:square;stroke-width:3;"/>
   </g>
   <g id="line2d_11">
    <path clip-path="url(#pf85df6d1ee)" d="M 743.191023 402.237187 
L 743.08061 398.561246 
L 742.749618 394.891515 
L 742.19878 391.234185 
L 741.429318 387.595402 
L 740.442934 383.981248 
L 739.203253 380.292847 
L 737.738902 376.643327 
L 736.053285 373.038971 
L 734.150298 369.485902 
L 731.970784 365.891073 
L 729.571213 362.363018 
L 726.881749 358.812834 
L 723.972712 355.3457 
L 720.851375 351.96749 
L 717.432819 348.59634 
L 713.807337 345.330406 
L 709.881013 342.093349 
L 705.756956 338.977673 
L 701.333105 335.913025 
L 696.607234 332.913931 
L 691.700784 330.062859 
L 686.501625 327.299385 
L 681.01261 324.638034 
L 675.371522 322.149082 
L 669.458679 319.78254 
L 663.282283 317.551947 
L 656.852659 315.470378 
L 650.325104 313.588969 
L 643.574417 311.871828 
L 636.615977 310.329589 
L 629.467081 308.971873 
L 622.14684 307.807146 
L 614.676047 306.842578 
L 607.077014 306.083922 
L 599.373378 305.535408 
L 591.446496 305.195492 
L 583.469058 305.077196 
L 575.468451 305.179244 
L 567.33581 305.505875 
L 559.241265 306.051773 
L 551.08307 306.823711 
L 542.899945 307.821761 
L 534.731282 309.042963 
L 526.616444 310.481386 
L 518.594047 312.128276 
L 510.594195 313.998882 
L 502.769481 316.056412 
L 495.056205 318.314277 
L 487.499943 320.758324 
L 480.142335 323.372176 
L 474.935331 325.370508 
M 474.935331 479.103867 
L 482.022968 481.793134 
L 489.323127 484.327477 
L 496.895356 486.719729 
L 504.610869 488.922894 
L 512.423458 490.9237 
L 520.397648 492.736104 
L 528.497658 494.346639 
L 536.562945 495.724909 
L 544.668476 496.887345 
L 552.905985 497.84245 
L 561.113101 498.56834 
L 569.250795 499.065494 
L 577.421214 499.340217 
L 585.453354 499.388447 
L 593.456481 499.213886 
L 601.402989 498.815586 
L 609.11984 498.208062 
L 616.726008 497.389087 
L 624.197842 496.363249 
L 631.513072 495.13666 
L 638.651001 493.716844 
L 645.592665 492.112613 
L 652.320966 490.333919 
L 658.960976 488.347266 
L 665.35447 486.20025 
L 671.489333 483.90563 
L 677.355606 481.47676 
L 682.945477 478.92743 
L 688.377656 476.206495 
L 693.515921 473.385847 
L 698.357869 470.480181 
L 703.014331 467.427931 
L 707.36585 464.313035 
L 711.516337 461.067407 
L 715.358491 457.782004 
L 718.988291 454.382571 
L 722.311383 450.966138 
L 725.414899 447.452713 
L 728.217995 443.944422 
L 730.798156 440.356056 
L 733.08839 436.79385 
L 735.155866 433.167958 
L 736.995566 429.484731 
L 738.56152 425.855087 
L 739.904296 422.183671 
L 741.02077 418.476847 
L 741.886171 414.848184 
L 742.53364 411.198282 
L 742.961743 407.533261 
L 743.169529 403.859294 
L 743.191023 402.237187 
L 743.191023 402.237187 
" style="fill:none;stroke:#8d5ccd;stroke-linecap:square;stroke-width:3;"/>
   </g>
   <g id="line2d_12">
    <path clip-path="url(#pf85df6d1ee)" d="M 726.260137 509.134594 
L 727.291057 505.604446 
L 728.110273 502.012043 
L 728.716573 498.363497 
L 729.109217 494.665031 
L 729.287945 490.922957 
L 729.248716 487.031997 
L 728.9838 483.108588 
L 728.49449 479.159757 
L 727.782601 475.192533 
L 726.820622 471.10014 
L 725.628724 467.003252 
L 724.167959 462.795736 
L 722.472704 458.599354 
L 720.548061 454.421939 
L 718.338563 450.159394 
L 715.899754 445.93297 
L 713.165903 441.641045 
L 710.206489 437.403457 
L 706.946185 433.121759 
L 703.378386 428.809076 
L 699.593104 424.581369 
L 695.50237 420.346521 
L 691.104409 416.119227 
L 686.508545 412.008901 
L 681.616398 407.931017 
L 676.431588 403.900985 
L 670.959893 399.934432 
L 665.333206 396.127981 
L 659.443547 392.408806 
L 653.302255 388.791773 
L 646.922808 385.291378 
L 640.320766 381.921577 
L 633.513687 378.695617 
L 626.521015 375.625862 
L 619.363922 372.72364 
L 611.930049 369.950819 
L 604.37961 367.373149 
L 596.739047 364.997879 
L 588.90351 362.795399 
L 581.036449 360.813227 
L 573.039002 359.026363 
L 564.947974 357.44684 
L 556.801741 356.084017 
L 548.639574 354.944415 
L 540.500905 354.031644 
L 532.314544 353.338606 
L 524.236987 352.877463 
L 516.203507 352.641287 
L 508.261822 352.630701 
L 500.456597 352.842996 
L 494.886923 353.13447 
M 447.380703 499.343582 
L 453.290418 504.091428 
L 459.450126 508.757604 
L 465.912497 513.372719 
L 472.56957 517.852277 
L 479.381501 522.16938 
L 486.405343 526.357239 
L 493.611227 530.391989 
L 500.855862 534.195113 
L 508.205468 537.805402 
L 515.744661 541.259291 
L 523.325779 544.485792 
L 530.911558 547.473299 
L 538.597194 550.259374 
L 546.221309 552.787312 
L 553.886678 555.094396 
L 561.567337 557.171197 
L 569.094234 558.978045 
L 576.581206 560.549589 
L 584.004344 561.882883 
L 591.340578 562.976857 
L 598.567899 563.832274 
L 605.665549 564.451652 
L 612.61419 564.839173 
L 619.543124 565.001629 
L 626.287163 564.935394 
L 632.830841 564.648857 
L 639.160561 564.151643 
L 645.26463 563.454451 
L 651.271754 562.545324 
L 657.030163 561.450539 
L 662.533029 560.183331 
L 667.904785 558.719395 
L 673.005881 557.101645 
L 677.956183 555.297441 
L 682.625534 553.360128 
L 687.128161 551.248745 
L 691.344346 549.026416 
L 695.381673 546.643989 
L 699.131697 544.173611 
L 702.694442 541.558186 
L 705.973366 538.878047 
L 709.060115 536.068504 
L 711.947953 533.134046 
L 714.558885 530.165956 
L 716.970472 527.089172 
L 719.177774 523.908782 
L 721.122137 520.725143 
L 722.865799 517.453958 
L 724.405502 514.100607 
L 725.738437 510.670667 
L 726.260137 509.134594 
L 726.260137 509.134594 
" style="fill:none;stroke:#b068b9;stroke-linecap:square;stroke-width:3;"/>
   </g>
   <g id="line2d_13">
    <path clip-path="url(#pf85df6d1ee)" d="M 677.124792 605.568137 
L 679.196131 602.529339 
L 681.085366 599.365912 
L 682.789454 596.083295 
L 684.305769 592.687179 
L 685.632114 589.183485 
L 686.797179 585.47084 
L 687.757629 581.657592 
L 688.512522 577.750826 
L 689.061416 573.757786 
L 689.411138 569.568422 
L 689.543584 565.303733 
L 689.454508 560.850746 
L 689.138977 556.335887 
L 688.599425 551.768182 
L 687.815267 547.031488 
L 686.801858 542.258286 
L 685.52809 537.331617 
L 684.023006 532.386922 
L 682.24539 527.307296 
L 680.184904 522.10318 
L 677.89132 516.912676 
L 675.309441 511.620989 
L 672.433038 506.241549 
L 669.332272 500.912196 
L 665.939699 495.522141 
L 662.253999 490.087159 
L 658.27584 484.623896 
L 654.100802 479.265004 
L 649.648691 473.907854 
L 644.925701 468.570088 
L 639.940168 463.269657 
L 634.702577 458.024643 
L 629.225538 452.853069 
L 623.523718 447.772704 
L 617.613754 442.800864 
L 611.400569 437.866561 
L 605.016218 433.081837 
L 598.48361 428.461757 
L 591.712175 423.94576 
L 584.84268 419.629547 
L 577.788828 415.458791 
L 570.581902 411.456311 
L 563.25551 407.642864 
L 555.844985 404.03679 
L 548.386712 400.653706 
L 540.81518 397.464863 
L 533.275468 394.530188 
L 525.708157 391.82309 
L 518.158438 389.358906 
L 510.669625 387.148863 
L 505.28248 385.704947 
M 414.920278 510.077847 
L 419.073586 516.419519 
L 423.48989 522.760771 
L 428.20982 529.146988 
L 433.156814 535.46445 
L 438.301286 541.675261 
L 443.687238 547.828639 
L 449.293634 553.892655 
L 455.008462 559.748355 
L 460.882712 565.453097 
L 466.9856 571.06768 
L 473.198628 576.478959 
L 479.489942 581.664382 
L 485.938472 586.689089 
L 492.40826 591.449281 
L 498.985531 596.012178 
L 505.648506 600.360787 
L 512.248662 604.405141 
L 518.883563 608.21337 
L 525.531376 611.775284 
L 532.170493 615.082736 
L 538.779745 618.129651 
L 545.338613 620.912008 
L 551.827412 623.427811 
L 558.367019 625.723474 
L 564.801449 627.744503 
L 571.113401 629.494099 
L 577.28697 630.977211 
L 583.307729 632.200403 
L 589.301779 633.192075 
L 595.116658 633.930319 
L 600.741784 634.425611 
L 606.303008 634.693289 
L 611.654351 634.731044 
L 616.919898 634.544871 
L 621.959377 634.145286 
L 626.894083 633.528629 
L 631.590651 632.717941 
L 636.166587 631.699722 
L 640.496461 630.509074 
L 644.693044 629.122605 
L 648.639694 627.586885 
L 652.443564 625.868709 
L 656.096859 623.970264 
L 659.497193 621.954265 
L 662.741526 619.773291 
L 665.823589 617.430655 
L 668.656588 615.003675 
L 671.32576 612.431414 
L 673.826347 609.717983 
L 676.153953 606.867815 
L 677.124792 605.568137 
L 677.124792 605.568137 
" style="fill:none;stroke:#b42c62;stroke-linecap:square;stroke-width:3;"/>
   </g>
   <g id="line2d_14">
    <path clip-path="url(#pf85df6d1ee)" d="M 600.594699 682.09823 
L 603.5037 679.84824 
L 606.278022 677.423448 
L 608.91309 674.828086 
L 611.404649 672.066755 
L 613.748779 669.144407 
L 616.004091 665.973497 
L 618.095892 662.643678 
L 620.021095 659.161398 
L 621.777041 655.533408 
L 623.404232 651.657156 
L 624.848057 647.642124 
L 626.139389 643.379556 
L 627.23447 638.988165 
L 628.132824 634.477288 
L 628.850764 629.730107 
L 629.361956 624.877361 
L 629.672954 619.798205 
L 629.769529 614.630424 
L 629.648607 609.250099 
L 629.297128 603.663966 
L 628.719754 598.018746 
L 627.899463 592.188209 
L 626.826179 586.1832 
L 625.524036 580.156494 
L 623.963126 573.981885 
L 622.137319 567.673966 
L 620.042106 561.248776 
L 617.727397 554.862008 
L 615.148639 548.391278 
L 612.306268 541.855276 
L 609.202668 535.273652 
L 605.842222 528.666843 
L 602.231352 522.055886 
L 598.378518 515.462213 
L 594.294191 508.907432 
L 589.909885 502.294652 
L 585.316568 495.771236 
L 580.531372 489.358591 
L 575.486874 482.971135 
L 570.287379 476.743382 
L 564.867601 470.596997 
L 559.250243 464.563349 
L 553.460849 458.672566 
L 547.527359 452.953008 
L 541.47955 447.430771 
L 535.264003 442.058269 
L 529.000175 436.937328 
L 522.639774 432.024297 
L 516.221038 427.347727 
L 509.781695 422.931681 
L 505.10441 419.893716 
M 380.73151 510.255917 
L 382.721856 517.570648 
L 384.962456 524.96625 
L 387.477927 532.498442 
L 390.230594 540.03541 
L 393.204032 547.531972 
L 396.424878 555.048532 
L 399.882994 562.548226 
L 403.508607 569.883307 
L 407.332488 577.124082 
L 411.401678 584.349764 
L 415.638442 591.416127 
L 420.019453 598.29188 
L 424.59965 605.063366 
L 429.281803 611.589853 
L 434.127147 617.961914 
L 439.120219 624.15666 
L 444.147567 630.042629 
L 449.280925 635.714767 
L 454.502679 641.156636 
L 459.794795 646.35381 
L 465.139019 651.293969 
L 470.517078 655.96695 
L 475.910867 660.364769 
L 481.421003 664.568925 
L 486.915977 668.479386 
L 492.378346 672.09385 
L 497.791452 675.412111 
L 503.139547 678.435953 
L 508.533784 681.231353 
L 513.835933 683.730361 
L 519.032691 685.939672 
L 524.239013 687.912761 
L 529.316776 689.602324 
L 534.382139 691.052406 
L 539.298447 692.229663 
L 544.182189 693.168096 
L 548.899406 693.848405 
L 553.566027 694.294063 
L 558.051913 694.499694 
L 562.471542 694.477899 
L 566.699593 694.236925 
L 570.848234 693.778302 
L 574.909376 693.101704 
L 578.766264 692.235136 
L 582.525766 691.163461 
L 586.180897 689.887891 
L 589.625217 688.455141 
L 592.958622 686.833595 
L 596.175319 685.025692 
L 599.269754 683.034292 
L 600.594699 682.09823 
L 600.594699 682.09823 
" style="fill:none;stroke:#da5c55;stroke-linecap:square;stroke-width:3;"/>
   </g>
   <g id="line2d_15">
    <path clip-path="url(#pf85df6d1ee)" d="M 504.161156 731.233574 
L 507.623065 729.992637 
L 511.010904 728.543836 
L 514.319013 726.889781 
L 517.541925 725.033533 
L 520.674381 722.978591 
L 523.799175 720.659806 
L 526.817567 718.139362 
L 529.724628 715.422437 
L 532.515742 712.514631 
L 535.26112 709.330926 
L 537.874992 705.95857 
L 540.420328 702.30367 
L 542.818826 698.465608 
L 545.067149 694.453116 
L 547.216911 690.160134 
L 549.202663 685.702866 
L 551.067986 680.968405 
L 552.756767 676.083396 
L 554.304375 670.929036 
L 555.696309 665.507694 
L 556.891662 659.960353 
L 557.913254 654.161699 
L 558.74815 648.118933 
L 559.372093 641.984811 
L 559.795638 635.630061 
L 560.008447 629.066668 
L 560.001274 622.308493 
L 559.773475 615.519032 
L 559.320496 608.568121 
L 558.636976 601.473673 
L 557.719111 594.255112 
L 556.564753 586.933228 
L 555.17351 579.530014 
L 553.546804 572.068467 
L 551.687917 564.572373 
L 549.561656 556.92842 
L 547.208997 549.30487 
L 544.639621 541.727376 
L 541.815852 534.093709 
L 538.79532 526.564031 
L 535.540142 519.043668 
L 532.062216 511.569469 
L 528.376528 504.17798 
L 524.500884 496.904808 
L 520.455541 489.783972 
L 516.204399 482.75371 
L 511.829602 475.947776 
L 507.298711 469.309734 
L 502.639271 462.878553 
L 497.879724 456.688777 
L 494.370145 452.35414 
M 348.161032 499.860361 
L 347.793587 507.432134 
L 347.639158 515.158153 
L 347.703938 523.099017 
L 347.992828 531.117721 
L 348.504171 539.166218 
L 349.244633 547.310187 
L 350.215963 555.511436 
L 351.397462 563.607889 
L 352.796666 571.67592 
L 354.433838 579.8054 
L 356.279614 587.835143 
L 358.321478 595.72818 
L 360.584999 603.583604 
L 363.021197 611.237527 
L 365.660317 618.795011 
L 368.494729 626.229508 
L 371.457157 633.380934 
L 374.586483 640.361752 
L 377.871037 647.150887 
L 381.298123 653.729047 
L 384.854189 660.078874 
L 388.524996 666.185055 
L 392.295793 672.034402 
L 396.237089 677.735517 
L 400.254721 683.152627 
L 404.332811 688.278152 
L 408.455582 693.106747 
L 412.607504 697.635244 
L 416.873902 701.960738 
L 421.144309 705.97589 
L 425.404006 709.682956 
L 429.745794 713.168318 
L 434.05293 716.344302 
L 438.422277 719.288695 
L 442.734171 721.927556 
L 447.088894 724.329218 
L 451.365007 726.433931 
L 455.665511 728.299842 
L 459.868299 729.881623 
L 464.078351 731.226636 
L 468.173932 732.303995 
L 472.261246 733.14982 
L 476.332701 733.761299 
L 480.268604 734.128987 
L 484.175269 734.271514 
L 488.045678 734.187872 
L 491.764165 733.889599 
L 495.435507 733.377497 
L 499.05344 732.652093 
L 502.611799 731.714391 
L 504.161156 731.233574 
L 504.161156 731.233574 
" style="fill:none;stroke:#ed9324;stroke-linecap:square;stroke-width:3;"/>
   </g>
   <g id="line2d_16">
    <path clip-path="url(#pf85df6d1ee)" d="M 397.26375 748.16446 
L 400.939692 748.054048 
L 404.609422 747.723055 
L 408.266752 747.172217 
L 411.905536 746.402755 
L 415.51969 745.416371 
L 419.208091 744.17669 
L 422.857611 742.71234 
L 426.461966 741.026722 
L 430.015036 739.123736 
L 433.609864 736.944221 
L 437.13792 734.54465 
L 440.688104 731.855187 
L 444.155238 728.94615 
L 447.533448 725.824813 
L 450.904597 722.406257 
L 454.170532 718.780774 
L 457.407588 714.854451 
L 460.523265 710.730394 
L 463.587912 706.306543 
L 466.587007 701.580672 
L 469.438078 696.674221 
L 472.201552 691.475062 
L 474.862903 685.986047 
L 477.351856 680.34496 
L 479.718397 674.432116 
L 481.94899 668.255721 
L 484.03056 661.826097 
L 485.911968 655.298542 
L 487.629109 648.547854 
L 489.171349 641.589415 
L 490.529064 634.440519 
L 491.693792 627.120277 
L 492.65836 619.649484 
L 493.417015 612.050452 
L 493.965529 604.346816 
L 494.305446 596.419934 
L 494.423741 588.442495 
L 494.321694 580.441889 
L 493.995062 572.309247 
L 493.449164 564.214702 
L 492.677226 556.056507 
L 491.679177 547.873383 
L 490.457974 539.704719 
L 489.019552 531.589881 
L 487.372661 523.567485 
L 485.502055 515.567632 
L 483.444526 507.742918 
L 481.18666 500.029643 
L 478.742613 492.47338 
L 476.128761 485.115773 
L 474.130429 479.908768 
M 320.397071 479.908768 
L 317.707803 486.996406 
L 315.173461 494.296565 
L 312.781208 501.868793 
L 310.578044 509.584306 
L 308.577237 517.396895 
L 306.764833 525.371086 
L 305.154298 533.471095 
L 303.776029 541.536382 
L 302.613593 549.641913 
L 301.658488 557.879422 
L 300.932598 566.086538 
L 300.435444 574.224233 
L 300.160721 582.394652 
L 300.11249 590.426791 
L 300.287052 598.429919 
L 300.685352 606.376427 
L 301.292875 614.093277 
L 302.11185 621.699446 
L 303.137688 629.17128 
L 304.364278 636.486509 
L 305.784093 643.624438 
L 307.388325 650.566103 
L 309.167018 657.294403 
L 311.153672 663.934413 
L 313.300688 670.327908 
L 315.595308 676.46277 
L 318.024177 682.329044 
L 320.573508 687.918915 
L 323.294442 693.351094 
L 326.115091 698.489359 
L 329.020757 703.331306 
L 332.073006 707.987768 
L 335.187903 712.339287 
L 338.433531 716.489774 
L 341.718933 720.331929 
L 345.118366 723.961728 
L 348.5348 727.284821 
L 352.048224 730.388336 
L 355.556515 733.191433 
L 359.144881 735.771594 
L 362.707087 738.061827 
L 366.33298 740.129304 
L 370.016207 741.969004 
L 373.645851 743.534957 
L 377.317267 744.877734 
L 381.024091 745.994208 
L 384.652754 746.859609 
L 388.302656 747.507078 
L 391.967677 747.93518 
L 395.641643 748.142967 
L 397.26375 748.16446 
L 397.26375 748.16446 
" style="fill:none;stroke:#d1a10e;stroke-linecap:square;stroke-width:3;"/>
   </g>
   <g id="line2d_17">
    <path clip-path="url(#pf85df6d1ee)" d="M 290.366344 731.233574 
L 293.896491 732.264494 
L 297.488895 733.083711 
L 301.137441 733.69001 
L 304.835907 734.082654 
L 308.577981 734.261382 
L 312.468941 734.222154 
L 316.39235 733.957238 
L 320.34118 733.467927 
L 324.308405 732.756038 
L 328.400797 731.79406 
L 332.497685 730.602162 
L 336.705201 729.141397 
L 340.901583 727.446141 
L 345.078998 725.521498 
L 349.341544 723.312001 
L 353.567968 720.873191 
L 357.859892 718.139341 
L 362.09748 715.179926 
L 366.379178 711.919622 
L 370.691861 708.351823 
L 374.919568 704.566541 
L 379.154416 700.475808 
L 383.38171 696.077847 
L 387.492037 691.481982 
L 391.569921 686.589835 
L 395.599952 681.405025 
L 399.566505 675.93333 
L 403.372957 670.306644 
L 407.092132 664.416984 
L 410.709165 658.275693 
L 414.20956 651.896246 
L 417.57936 645.294203 
L 420.805321 638.487125 
L 423.875075 631.494453 
L 426.777297 624.33736 
L 429.550118 616.903487 
L 432.127788 609.353047 
L 434.503059 601.712484 
L 436.705538 593.876948 
L 438.68771 586.009886 
L 440.474574 578.012439 
L 442.054097 569.921412 
L 443.416921 561.775179 
L 444.556523 553.613012 
L 445.469293 545.474342 
L 446.162332 537.287982 
L 446.623475 529.210425 
L 446.85965 521.176945 
L 446.870237 513.23526 
L 446.657942 505.430035 
L 446.366468 499.860361 
M 300.157355 452.35414 
L 295.40951 458.263855 
L 290.743334 464.423564 
L 286.128219 470.885934 
L 281.64866 477.543008 
L 277.331557 484.354938 
L 273.143698 491.378781 
L 269.108948 498.584665 
L 265.305825 505.8293 
L 261.695536 513.178905 
L 258.241647 520.718098 
L 255.015146 528.299217 
L 252.027639 535.884995 
L 249.241563 543.570632 
L 246.713626 551.194746 
L 244.406541 558.860115 
L 242.329741 566.540775 
L 240.522892 574.067671 
L 238.951348 581.554644 
L 237.618055 588.977782 
L 236.52408 596.314016 
L 235.668664 603.541337 
L 235.049286 610.638987 
L 234.661765 617.587627 
L 234.499309 624.516562 
L 234.565544 631.260601 
L 234.852081 637.804279 
L 235.349294 644.133998 
L 236.046487 650.238068 
L 236.955614 656.245192 
L 238.050399 662.0036 
L 239.317607 667.506467 
L 240.781543 672.878222 
L 242.399292 677.979318 
L 244.203497 682.92962 
L 246.140809 687.598971 
L 248.252193 692.101599 
L 250.474522 696.317783 
L 252.856948 700.35511 
L 255.327326 704.105135 
L 257.942752 707.66788 
L 260.62289 710.946803 
L 263.432433 714.033553 
L 266.366892 716.921391 
L 269.334982 719.532323 
L 272.411765 721.943909 
L 275.592155 724.151211 
L 278.775795 726.095575 
L 282.046979 727.839236 
L 285.40033 729.37894 
L 288.83027 730.711874 
L 290.366344 731.233574 
L 290.366344 731.233574 
" style="fill:none;stroke:#9ca538;stroke-linecap:square;stroke-width:3;"/>
   </g>
   <g id="line2d_18">
    <path clip-path="url(#pf85df6d1ee)" d="M 193.932801 682.09823 
L 196.971599 684.169569 
L 200.135026 686.058804 
L 203.417642 687.762891 
L 206.813758 689.279207 
L 210.317453 690.605552 
L 214.030098 691.770616 
L 217.843345 692.731066 
L 221.750111 693.48596 
L 225.743152 694.034853 
L 229.932516 694.384576 
L 234.197205 694.517021 
L 238.650192 694.427945 
L 243.165051 694.112415 
L 247.732756 693.572863 
L 252.46945 692.788705 
L 257.242652 691.775296 
L 262.16932 690.501527 
L 267.114015 688.996444 
L 272.193642 687.218828 
L 277.397757 685.158342 
L 282.588262 682.864757 
L 287.879948 680.282879 
L 293.259388 677.406475 
L 298.588741 674.305709 
L 303.978796 670.913136 
L 309.413778 667.227437 
L 314.877041 663.249278 
L 320.235933 659.074239 
L 325.593084 654.622128 
L 330.93085 649.899138 
L 336.231281 644.913605 
L 341.476295 639.676015 
L 346.647869 634.198975 
L 351.728233 628.497155 
L 356.700074 622.587191 
L 361.634377 616.374007 
L 366.4191 609.989656 
L 371.039181 603.457048 
L 375.555177 596.685613 
L 379.87139 589.816118 
L 384.042146 582.762265 
L 388.044627 575.55534 
L 391.858073 568.228948 
L 395.464147 560.818422 
L 398.847231 553.360149 
L 402.036074 545.788618 
L 404.97075 538.248906 
L 407.677848 530.681595 
L 410.142032 523.131875 
L 412.352074 515.643062 
L 413.79599 510.255917 
M 289.42309 419.893716 
L 283.081419 424.047023 
L 276.740167 428.463327 
L 270.353949 433.183258 
L 264.036487 438.130251 
L 257.825676 443.274724 
L 251.672299 448.660675 
L 245.608283 454.267072 
L 239.752582 459.981899 
L 234.04784 465.856149 
L 228.433258 471.959037 
L 223.021979 478.172066 
L 217.836556 484.463379 
L 212.811848 490.911909 
L 208.051656 497.381697 
L 203.488759 503.958968 
L 199.14015 510.621943 
L 195.095796 517.2221 
L 191.287567 523.857 
L 187.725654 530.504814 
L 184.418201 537.14393 
L 181.371287 543.753182 
L 178.588929 550.312051 
L 176.073127 556.80085 
L 173.777463 563.340456 
L 171.756434 569.774887 
L 170.006839 576.086839 
L 168.523727 582.260407 
L 167.300535 588.281167 
L 166.308862 594.275217 
L 165.570618 600.090096 
L 165.075326 605.715222 
L 164.807648 611.276446 
L 164.769894 616.627789 
L 164.956067 621.893336 
L 165.355652 626.932815 
L 165.972308 631.867521 
L 166.782996 636.564088 
L 167.801216 641.140024 
L 168.991864 645.469899 
L 170.378332 649.666481 
L 171.914052 653.613132 
L 173.632228 657.417001 
L 175.530673 661.070296 
L 177.546672 664.47063 
L 179.727646 667.714964 
L 182.070283 670.797027 
L 184.497263 673.630025 
L 187.069523 676.299197 
L 189.782955 678.799785 
L 192.633122 681.127391 
L 193.932801 682.09823 
L 193.932801 682.09823 
" style="fill:none;stroke:#51b284;stroke-linecap:square;stroke-width:3;"/>
   </g>
   <g id="line2d_19">
    <path clip-path="url(#pf85df6d1ee)" d="M 117.402708 605.568137 
L 119.652697 608.477137 
L 122.077489 611.251459 
L 124.672851 613.886527 
L 127.434183 616.378086 
L 130.35653 618.722216 
L 133.527441 620.977529 
L 136.857259 623.069329 
L 140.33954 624.994533 
L 143.96753 626.750479 
L 147.843782 628.37767 
L 151.858814 629.821494 
L 156.121382 631.112827 
L 160.512772 632.207908 
L 165.023649 633.106261 
L 169.770831 633.824202 
L 174.623576 634.335393 
L 179.702732 634.646392 
L 184.870513 634.742967 
L 190.250839 634.622044 
L 195.836972 634.270566 
L 201.482192 633.693192 
L 207.312729 632.8729 
L 213.317738 631.799616 
L 219.344443 630.497473 
L 225.519053 628.936563 
L 231.826971 627.110757 
L 238.252162 625.015544 
L 244.638929 622.700835 
L 251.10966 620.122076 
L 257.645662 617.279706 
L 264.227285 614.176106 
L 270.834094 610.81566 
L 277.445052 607.20479 
L 284.038725 603.351956 
L 290.593506 599.267629 
L 297.206286 594.883323 
L 303.729702 590.290005 
L 310.142346 585.504809 
L 316.529802 580.460312 
L 322.757556 575.260817 
L 328.903941 569.841039 
L 334.937588 564.22368 
L 340.828371 558.434287 
L 346.54793 552.500796 
L 352.070167 546.452988 
L 357.442669 540.23744 
L 362.56361 533.973613 
L 367.476641 527.613211 
L 372.153211 521.194476 
L 376.569257 514.755132 
L 379.607222 510.077847 
M 289.24502 385.704947 
L 281.93029 387.695293 
L 274.534688 389.935893 
L 267.002496 392.451364 
L 259.465527 395.204031 
L 251.968965 398.177469 
L 244.452405 401.398315 
L 236.952711 404.856431 
L 229.61763 408.482044 
L 222.376855 412.305926 
L 215.151174 416.375116 
L 208.08481 420.61188 
L 201.209057 424.992891 
L 194.437571 429.573087 
L 187.911085 434.255241 
L 181.539023 439.100585 
L 175.344278 444.093656 
L 169.458308 449.121004 
L 163.78617 454.254362 
L 158.344302 459.476117 
L 153.147128 464.768232 
L 148.206969 470.112456 
L 143.533988 475.490515 
L 139.136168 480.884304 
L 134.932013 486.394441 
L 131.021551 491.889415 
L 127.407087 497.351783 
L 124.088826 502.764889 
L 121.064984 508.112985 
L 118.269585 513.507221 
L 115.770576 518.80937 
L 113.561266 524.006129 
L 111.588176 529.21245 
L 109.898614 534.290213 
L 108.448532 539.355576 
L 107.271275 544.271884 
L 106.332842 549.155626 
L 105.652532 553.872844 
L 105.206875 558.539465 
L 105.001244 563.02535 
L 105.023038 567.44498 
L 105.264013 571.673031 
L 105.722635 575.821672 
L 106.399233 579.882813 
L 107.265801 583.739701 
L 108.337476 587.499204 
L 109.613047 591.154334 
L 111.045797 594.598654 
L 112.667342 597.93206 
L 114.475245 601.148756 
L 116.466646 604.243191 
L 117.402708 605.568137 
L 117.402708 605.568137 
" style="fill:none;stroke:#12b5cd;stroke-linecap:square;stroke-width:3;"/>
   </g>
   <g id="line2d_20">
    <path clip-path="url(#pf85df6d1ee)" d="M 68.267363 509.134594 
L 69.5083 512.596502 
L 70.957102 515.984341 
L 72.611157 519.292451 
L 74.467405 522.515363 
L 76.522347 525.647818 
L 78.841132 528.772613 
L 81.361576 531.791004 
L 84.0785 534.698065 
L 86.986307 537.48918 
L 90.170012 540.234558 
L 93.542368 542.84843 
L 97.197267 545.393766 
L 101.035329 547.792264 
L 105.047821 550.040587 
L 109.340804 552.190348 
L 113.798072 554.176101 
L 118.532533 556.041424 
L 123.417541 557.730204 
L 128.571902 559.277812 
L 133.993243 560.669746 
L 139.540584 561.8651 
L 145.339239 562.886691 
L 151.382005 563.721587 
L 157.516127 564.34553 
L 163.870877 564.769076 
L 170.434269 564.981885 
L 177.192445 564.974712 
L 183.981906 564.746912 
L 190.932817 564.293933 
L 198.027265 563.610414 
L 205.245826 562.692548 
L 212.56771 561.538191 
L 219.970924 560.146947 
L 227.432471 558.520241 
L 234.928564 556.661354 
L 242.572517 554.535093 
L 250.196067 552.182435 
L 257.773562 549.613059 
L 265.407229 546.789289 
L 272.936907 543.768757 
L 280.457269 540.51358 
L 287.931469 537.035654 
L 295.322957 533.349965 
L 302.59613 529.474321 
L 309.716965 525.428979 
L 316.747228 521.177836 
L 323.553161 516.80304 
L 330.191204 512.272149 
L 336.622384 507.612708 
L 342.81216 502.853162 
L 347.146797 499.343582 
M 299.640577 353.13447 
L 292.068803 352.767025 
L 284.342785 352.612595 
L 276.401921 352.677375 
L 268.383217 352.966266 
L 260.33472 353.477608 
L 252.19075 354.21807 
L 243.989501 355.189401 
L 235.893049 356.370899 
L 227.825018 357.770104 
L 219.695538 359.407275 
L 211.665794 361.253051 
L 203.772758 363.294916 
L 195.917333 365.558437 
L 188.263411 367.994635 
L 180.705927 370.633755 
L 173.27143 373.468167 
L 166.120004 376.430594 
L 159.139185 379.55992 
L 152.35005 382.844474 
L 145.77189 386.27156 
L 139.422064 389.827626 
L 133.315883 393.498434 
L 127.466536 397.269231 
L 121.76542 401.210526 
L 116.34831 405.228159 
L 111.222786 409.306249 
L 106.39419 413.429019 
L 101.865693 417.580942 
L 97.5402 421.84734 
L 93.525047 426.117747 
L 89.817982 430.377444 
L 86.33262 434.719231 
L 83.156636 439.026367 
L 80.212242 443.395714 
L 77.573381 447.707608 
L 75.17172 452.062331 
L 73.067007 456.338444 
L 71.201096 460.638949 
L 69.619314 464.841736 
L 68.274302 469.051789 
L 67.196942 473.147369 
L 66.351117 477.234683 
L 65.739639 481.306138 
L 65.37195 485.242041 
L 65.229423 489.148706 
L 65.313065 493.019115 
L 65.611338 496.737602 
L 66.123441 500.408944 
L 66.848845 504.026877 
L 67.786546 507.585236 
L 68.267363 509.134594 
L 68.267363 509.134594 
" style="fill:none;stroke:#6098dd;stroke-linecap:square;stroke-width:3;"/>
   </g>
   <g id="text_1">
    <!-- 1 -->
    <defs>
     <path d="M 12.40625 8.296875 
L 28.515625 8.296875 
L 28.515625 63.921875 
L 10.984375 60.40625 
L 10.984375 69.390625 
L 28.421875 72.90625 
L 38.28125 72.90625 
L 38.28125 8.296875 
L 54.390625 8.296875 
L 54.390625 0 
L 12.40625 0 
z
" id="DejaVuSans-49"/>
    </defs>
    <g transform="translate(7.2 410.515312)scale(0.3 -0.3)">
     <use xlink:href="#DejaVuSans-49"/>
    </g>
   </g>
   <g id="text_2">
    <!-- 2 -->
    <defs>
     <path d="M 19.1875 8.296875 
L 53.609375 8.296875 
L 53.609375 0 
L 7.328125 0 
L 7.328125 8.296875 
Q 12.9375 14.109375 22.625 23.890625 
Q 32.328125 33.6875 34.8125 36.53125 
Q 39.546875 41.84375 41.421875 45.53125 
Q 43.3125 49.21875 43.3125 52.78125 
Q 43.3125 58.59375 39.234375 62.25 
Q 35.15625 65.921875 28.609375 65.921875 
Q 23.96875 65.921875 18.8125 64.3125 
Q 13.671875 62.703125 7.8125 59.421875 
L 7.8125 69.390625 
Q 13.765625 71.78125 18.9375 73 
Q 24.125 74.21875 28.421875 74.21875 
Q 39.75 74.21875 46.484375 68.546875 
Q 53.21875 62.890625 53.21875 53.421875 
Q 53.21875 48.921875 51.53125 44.890625 
Q 49.859375 40.875 45.40625 35.40625 
Q 44.1875 33.984375 37.640625 27.21875 
Q 31.109375 20.453125 19.1875 8.296875 
z
" id="DejaVuSans-50"/>
    </defs>
    <g transform="translate(25.823974 292.928166)scale(0.3 -0.3)">
     <use xlink:href="#DejaVuSans-50"/>
    </g>
   </g>
   <g id="text_3">
    <!-- 3 -->
    <defs>
     <path d="M 40.578125 39.3125 
Q 47.65625 37.796875 51.625 33 
Q 55.609375 28.21875 55.609375 21.1875 
Q 55.609375 10.40625 48.1875 4.484375 
Q 40.765625 -1.421875 27.09375 -1.421875 
Q 22.515625 -1.421875 17.65625 -0.515625 
Q 12.796875 0.390625 7.625 2.203125 
L 7.625 11.71875 
Q 11.71875 9.328125 16.59375 8.109375 
Q 21.484375 6.890625 26.8125 6.890625 
Q 36.078125 6.890625 40.9375 10.546875 
Q 45.796875 14.203125 45.796875 21.1875 
Q 45.796875 27.640625 41.28125 31.265625 
Q 36.765625 34.90625 28.71875 34.90625 
L 20.21875 34.90625 
L 20.21875 43.015625 
L 29.109375 43.015625 
Q 36.375 43.015625 40.234375 45.921875 
Q 44.09375 48.828125 44.09375 54.296875 
Q 44.09375 59.90625 40.109375 62.90625 
Q 36.140625 65.921875 28.71875 65.921875 
Q 24.65625 65.921875 20.015625 65.03125 
Q 15.375 64.15625 9.8125 62.3125 
L 9.8125 71.09375 
Q 15.4375 72.65625 20.34375 73.4375 
Q 25.25 74.21875 29.59375 74.21875 
Q 40.828125 74.21875 47.359375 69.109375 
Q 53.90625 64.015625 53.90625 55.328125 
Q 53.90625 49.265625 50.4375 45.09375 
Q 46.96875 40.921875 40.578125 39.3125 
z
" id="DejaVuSans-51"/>
    </defs>
    <g transform="translate(79.872853 186.851268)scale(0.3 -0.3)">
     <use xlink:href="#DejaVuSans-51"/>
    </g>
   </g>
   <g id="text_4">
    <!-- 4 -->
    <defs>
     <path d="M 37.796875 64.3125 
L 12.890625 25.390625 
L 37.796875 25.390625 
z
M 35.203125 72.90625 
L 47.609375 72.90625 
L 47.609375 25.390625 
L 58.015625 25.390625 
L 58.015625 17.1875 
L 47.609375 17.1875 
L 47.609375 0 
L 37.796875 0 
L 37.796875 17.1875 
L 4.890625 17.1875 
L 4.890625 26.703125 
z
" id="DejaVuSans-52"/>
    </defs>
    <g transform="translate(164.055956 102.668166)scale(0.3 -0.3)">
     <use xlink:href="#DejaVuSans-52"/>
    </g>
   </g>
   <g id="text_5">
    <!-- 5 -->
    <defs>
     <path d="M 10.796875 72.90625 
L 49.515625 72.90625 
L 49.515625 64.59375 
L 19.828125 64.59375 
L 19.828125 46.734375 
Q 21.96875 47.46875 24.109375 47.828125 
Q 26.265625 48.1875 28.421875 48.1875 
Q 40.625 48.1875 47.75 41.5 
Q 54.890625 34.8125 54.890625 23.390625 
Q 54.890625 11.625 47.5625 5.09375 
Q 40.234375 -1.421875 26.90625 -1.421875 
Q 22.3125 -1.421875 17.546875 -0.640625 
Q 12.796875 0.140625 7.71875 1.703125 
L 7.71875 11.625 
Q 12.109375 9.234375 16.796875 8.0625 
Q 21.484375 6.890625 26.703125 6.890625 
Q 35.15625 6.890625 40.078125 11.328125 
Q 45.015625 15.765625 45.015625 23.390625 
Q 45.015625 31 40.078125 35.4375 
Q 35.15625 39.890625 26.703125 39.890625 
Q 22.75 39.890625 18.8125 39.015625 
Q 14.890625 38.140625 10.796875 36.28125 
z
" id="DejaVuSans-53"/>
    </defs>
    <g transform="translate(270.132853 48.619287)scale(0.3 -0.3)">
     <use xlink:href="#DejaVuSans-53"/>
    </g>
   </g>
   <g id="text_6">
    <!-- 6 -->
    <defs>
     <path d="M 33.015625 40.375 
Q 26.375 40.375 22.484375 35.828125 
Q 18.609375 31.296875 18.609375 23.390625 
Q 18.609375 15.53125 22.484375 10.953125 
Q 26.375 6.390625 33.015625 6.390625 
Q 39.65625 6.390625 43.53125 10.953125 
Q 47.40625 15.53125 47.40625 23.390625 
Q 47.40625 31.296875 43.53125 35.828125 
Q 39.65625 40.375 33.015625 40.375 
z
M 52.59375 71.296875 
L 52.59375 62.3125 
Q 48.875 64.0625 45.09375 64.984375 
Q 41.3125 65.921875 37.59375 65.921875 
Q 27.828125 65.921875 22.671875 59.328125 
Q 17.53125 52.734375 16.796875 39.40625 
Q 19.671875 43.65625 24.015625 45.921875 
Q 28.375 48.1875 33.59375 48.1875 
Q 44.578125 48.1875 50.953125 41.515625 
Q 57.328125 34.859375 57.328125 23.390625 
Q 57.328125 12.15625 50.6875 5.359375 
Q 44.046875 -1.421875 33.015625 -1.421875 
Q 20.359375 -1.421875 13.671875 8.265625 
Q 6.984375 17.96875 6.984375 36.375 
Q 6.984375 53.65625 15.1875 63.9375 
Q 23.390625 74.21875 37.203125 74.21875 
Q 40.921875 74.21875 44.703125 73.484375 
Q 48.484375 72.75 52.59375 71.296875 
z
" id="DejaVuSans-54"/>
    </defs>
    <g transform="translate(387.72 29.995312)scale(0.3 -0.3)">
     <use xlink:href="#DejaVuSans-54"/>
    </g>
   </g>
   <g id="text_7">
    <!-- 7 -->
    <defs>
     <path d="M 8.203125 72.90625 
L 55.078125 72.90625 
L 55.078125 68.703125 
L 28.609375 0 
L 18.3125 0 
L 43.21875 64.59375 
L 8.203125 64.59375 
z
" id="DejaVuSans-55"/>
    </defs>
    <g transform="translate(505.307147 48.619287)scale(0.3 -0.3)">
     <use xlink:href="#DejaVuSans-55"/>
    </g>
   </g>
   <g id="text_8">
    <!-- 8 -->
    <defs>
     <path d="M 31.78125 34.625 
Q 24.75 34.625 20.71875 30.859375 
Q 16.703125 27.09375 16.703125 20.515625 
Q 16.703125 13.921875 20.71875 10.15625 
Q 24.75 6.390625 31.78125 6.390625 
Q 38.8125 6.390625 42.859375 10.171875 
Q 46.921875 13.96875 46.921875 20.515625 
Q 46.921875 27.09375 42.890625 30.859375 
Q 38.875 34.625 31.78125 34.625 
z
M 21.921875 38.8125 
Q 15.578125 40.375 12.03125 44.71875 
Q 8.5 49.078125 8.5 55.328125 
Q 8.5 64.0625 14.71875 69.140625 
Q 20.953125 74.21875 31.78125 74.21875 
Q 42.671875 74.21875 48.875 69.140625 
Q 55.078125 64.0625 55.078125 55.328125 
Q 55.078125 49.078125 51.53125 44.71875 
Q 48 40.375 41.703125 38.8125 
Q 48.828125 37.15625 52.796875 32.3125 
Q 56.78125 27.484375 56.78125 20.515625 
Q 56.78125 9.90625 50.3125 4.234375 
Q 43.84375 -1.421875 31.78125 -1.421875 
Q 19.734375 -1.421875 13.25 4.234375 
Q 6.78125 9.90625 6.78125 20.515625 
Q 6.78125 27.484375 10.78125 32.3125 
Q 14.796875 37.15625 21.921875 38.8125 
z
M 18.3125 54.390625 
Q 18.3125 48.734375 21.84375 45.5625 
Q 25.390625 42.390625 31.78125 42.390625 
Q 38.140625 42.390625 41.71875 45.5625 
Q 45.3125 48.734375 45.3125 54.390625 
Q 45.3125 60.0625 41.71875 63.234375 
Q 38.140625 66.40625 31.78125 66.40625 
Q 25.390625 66.40625 21.84375 63.234375 
Q 18.3125 60.0625 18.3125 54.390625 
z
" id="DejaVuSans-56"/>
    </defs>
    <g transform="translate(611.384044 102.668166)scale(0.3 -0.3)">
     <use xlink:href="#DejaVuSans-56"/>
    </g>
   </g>
   <g id="text_9">
    <!-- 9 -->
    <defs>
     <path d="M 10.984375 1.515625 
L 10.984375 10.5 
Q 14.703125 8.734375 18.5 7.8125 
Q 22.3125 6.890625 25.984375 6.890625 
Q 35.75 6.890625 40.890625 13.453125 
Q 46.046875 20.015625 46.78125 33.40625 
Q 43.953125 29.203125 39.59375 26.953125 
Q 35.25 24.703125 29.984375 24.703125 
Q 19.046875 24.703125 12.671875 31.3125 
Q 6.296875 37.9375 6.296875 49.421875 
Q 6.296875 60.640625 12.9375 67.421875 
Q 19.578125 74.21875 30.609375 74.21875 
Q 43.265625 74.21875 49.921875 64.515625 
Q 56.59375 54.828125 56.59375 36.375 
Q 56.59375 19.140625 48.40625 8.859375 
Q 40.234375 -1.421875 26.421875 -1.421875 
Q 22.703125 -1.421875 18.890625 -0.6875 
Q 15.09375 0.046875 10.984375 1.515625 
z
M 30.609375 32.421875 
Q 37.25 32.421875 41.125 36.953125 
Q 45.015625 41.5 45.015625 49.421875 
Q 45.015625 57.28125 41.125 61.84375 
Q 37.25 66.40625 30.609375 66.40625 
Q 23.96875 66.40625 20.09375 61.84375 
Q 16.21875 57.28125 16.21875 49.421875 
Q 16.21875 41.5 20.09375 36.953125 
Q 23.96875 32.421875 30.609375 32.421875 
z
" id="DejaVuSans-57"/>
    </defs>
    <g transform="translate(695.567147 186.851268)scale(0.3 -0.3)">
     <use xlink:href="#DejaVuSans-57"/>
    </g>
   </g>
   <g id="text_10">
    <!-- 10 -->
    <defs>
     <path d="M 31.78125 66.40625 
Q 24.171875 66.40625 20.328125 58.90625 
Q 16.5 51.421875 16.5 36.375 
Q 16.5 21.390625 20.328125 13.890625 
Q 24.171875 6.390625 31.78125 6.390625 
Q 39.453125 6.390625 43.28125 13.890625 
Q 47.125 21.390625 47.125 36.375 
Q 47.125 51.421875 43.28125 58.90625 
Q 39.453125 66.40625 31.78125 66.40625 
z
M 31.78125 74.21875 
Q 44.046875 74.21875 50.515625 64.515625 
Q 56.984375 54.828125 56.984375 36.375 
Q 56.984375 17.96875 50.515625 8.265625 
Q 44.046875 -1.421875 31.78125 -1.421875 
Q 19.53125 -1.421875 13.0625 8.265625 
Q 6.59375 17.96875 6.59375 36.375 
Q 6.59375 54.828125 13.0625 64.515625 
Q 19.53125 74.21875 31.78125 74.21875 
z
" id="DejaVuSans-48"/>
    </defs>
    <g transform="translate(740.072276 292.928166)scale(0.3 -0.3)">
     <use xlink:href="#DejaVuSans-49"/>
     <use x="63.623047" xlink:href="#DejaVuSans-48"/>
    </g>
   </g>
   <g id="text_11">
    <!-- 1' -->
    <defs>
     <path d="M 17.921875 72.90625 
L 17.921875 45.796875 
L 9.625 45.796875 
L 9.625 72.90625 
z
" id="DejaVuSans-39"/>
    </defs>
    <g transform="translate(764.117344 410.515312)scale(0.3 -0.3)">
     <use xlink:href="#DejaVuSans-49"/>
     <use x="63.623047" xlink:href="#DejaVuSans-39"/>
    </g>
   </g>
   <g id="text_12">
    <!-- 2' -->
    <g transform="translate(745.493369 528.102459)scale(0.3 -0.3)">
     <use xlink:href="#DejaVuSans-50"/>
     <use x="63.623047" xlink:href="#DejaVuSans-39"/>
    </g>
   </g>
   <g id="text_13">
    <!-- 3' -->
    <g transform="translate(691.44449 634.179357)scale(0.3 -0.3)">
     <use xlink:href="#DejaVuSans-51"/>
     <use x="63.623047" xlink:href="#DejaVuSans-39"/>
    </g>
   </g>
   <g id="text_14">
    <!-- 4' -->
    <g transform="translate(607.261388 718.362459)scale(0.3 -0.3)">
     <use xlink:href="#DejaVuSans-52"/>
     <use x="63.623047" xlink:href="#DejaVuSans-39"/>
    </g>
   </g>
   <g id="text_15">
    <!-- 5' -->
    <g transform="translate(501.18449 772.411338)scale(0.3 -0.3)">
     <use xlink:href="#DejaVuSans-53"/>
     <use x="63.623047" xlink:href="#DejaVuSans-39"/>
    </g>
   </g>
   <g id="text_16">
    <!-- 6' -->
    <g transform="translate(383.597344 791.035312)scale(0.3 -0.3)">
     <use xlink:href="#DejaVuSans-54"/>
     <use x="63.623047" xlink:href="#DejaVuSans-39"/>
    </g>
   </g>
   <g id="text_17">
    <!-- 7' -->
    <g transform="translate(266.010197 772.411338)scale(0.3 -0.3)">
     <use xlink:href="#DejaVuSans-55"/>
     <use x="63.623047" xlink:href="#DejaVuSans-39"/>
    </g>
   </g>
   <g id="text_18">
    <!-- 8' -->
    <g transform="translate(159.9333 718.362459)scale(0.3 -0.3)">
     <use xlink:href="#DejaVuSans-56"/>
     <use x="63.623047" xlink:href="#DejaVuSans-39"/>
    </g>
   </g>
   <g id="text_19">
    <!-- 9' -->
    <g transform="translate(75.750197 634.179357)scale(0.3 -0.3)">
     <use xlink:href="#DejaVuSans-57"/>
     <use x="63.623047" xlink:href="#DejaVuSans-39"/>
    </g>
   </g>
   <g id="text_20">
    <!-- 10' -->
    <g transform="translate(12.157568 528.102459)scale(0.3 -0.3)">
     <use xlink:href="#DejaVuSans-49"/>
     <use x="63.623047" xlink:href="#DejaVuSans-48"/>
     <use x="127.246094" xlink:href="#DejaVuSans-39"/>
    </g>
   </g>
  </g>
 </g>
 <defs>
  <clipPath id="pf85df6d1ee">
   <rect height="761.04" width="761.04" x="16.74375" y="21.717187"/>
  </clipPath>
 </defs>
</svg>
