<?xml version="1.0" encoding="utf-8" standalone="no"?>
<!DOCTYPE svg PUBLIC "-//W3C//DTD SVG 1.1//EN"
  "http://www.w3.org/Graphics/SVG/1.1/DTD/svg11.dtd">
<!-- Created with matplotlib (https://matplotlib.org/) -->
<svg height="800.362571pt" version="1.1" viewBox="0 0 814.004172 800.362571" width="814.004172pt" xmlns="http://www.w3.org/2000/svg" xmlns:xlink="http://www.w3.org/1999/xlink">
 <defs>
  <style type="text/css">
*{stroke-linecap:butt;stroke-linejoin:round;}
  </style>
 </defs>
 <g id="figure_1">
  <g id="patch_1">
   <path d="M 0 800.362571 
L 814.004172 800.362571 
L 814.004172 0 
L 0 0 
z
" style="fill:none;"/>
  </g>
  <g id="axes_1">
   <g id="patch_2">
    <path d="M 16.74375 780.701286 
L 793.137765 780.701286 
L 793.137765 19.661286 
L 16.74375 19.661286 
z
" style="fill:none;"/>
   </g>
   <g id="matplotlib.axis_1"/>
   <g id="matplotlib.axis_2"/>
   <g id="line2d_1">
    <path clip-path="url(#p90f1fb14a5)" d="M 52.034387 400.181286 
L 52.146923 404.26231 
L 52.484247 408.336617 
L 53.045505 412.397514 
L 53.82928 416.438364 
L 54.833599 420.45261 
L 56.055939 424.433804 
L 57.535037 428.481559 
L 59.236986 432.481116 
L 61.157338 436.426005 
L 63.291105 440.309986 
L 65.697162 444.226559 
L 68.315733 448.06649 
L 71.214875 451.919142 
L 74.322147 455.679092 
L 77.714155 459.431063 
L 81.306169 463.074367 
L 85.182601 466.688647 
L 89.345982 470.260404 
L 93.693906 473.697564 
L 98.320602 477.071253 
L 103.223833 480.367972 
L 108.39945 483.574289 
L 113.724042 486.612803 
L 119.301183 489.542456 
L 125.121693 492.351166 
L 131.174452 495.027447 
L 137.446435 497.56056 
L 144.050416 499.9853 
L 150.844088 502.240139 
L 157.808005 504.317521 
L 165.050617 506.24368 
L 172.419831 507.973608 
L 180.0196 509.528952 
L 187.821379 510.897172 
L 195.793689 512.068258 
L 203.902568 513.034995 
L 212.233393 513.802738 
L 220.740363 514.360442 
L 229.374709 514.701499 
L 238.085805 514.823933 
L 247.036643 514.72544 
L 256.047376 514.403736 
L 265.249287 513.851452 
L 274.550643 513.069599 
L 283.949725 512.056602 
L 293.429406 510.812032 
L 302.960323 509.336655 
L 312.366506 507.657247 
L 321.51432 505.800629 
L 330.193344 503.814897 
L 338.210168 501.755222 
L 345.438854 499.672771 
L 351.938923 497.573642 
L 357.80456 495.449614 
L 363.109435 493.296115 
L 367.950541 491.095151 
L 372.440634 488.811162 
L 376.594613 486.450425 
L 380.485721 483.984197 
L 384.129305 481.411791 
L 387.489666 478.769372 
L 390.433668 476.179244 
L 392.684056 473.919864 
L 394.069892 472.237032 
L 394.70788 471.18737 
M 394.70788 329.175202 
L 394.09945 328.167241 
L 392.975795 326.767381 
L 391.138564 324.855875 
L 388.540406 322.483146 
L 385.384549 319.904534 
L 381.882374 317.331956 
L 378.128206 314.852422 
L 374.147851 312.490433 
L 369.87951 310.21747 
L 365.277202 308.021483 
L 360.278367 305.886779 
L 354.847863 303.811908 
L 348.841195 301.758583 
L 342.179109 299.721205 
L 334.817981 297.706754 
L 326.708141 295.722119 
L 317.997322 293.820965 
L 308.836278 292.04854 
L 299.372258 290.444054 
L 289.814785 289.049753 
L 280.348515 287.89166 
L 270.910796 286.960606 
L 261.603249 286.265648 
L 252.427509 285.803192 
L 243.367161 285.569719 
L 234.500682 285.56255 
L 225.787847 285.775758 
L 217.171229 286.208848 
L 208.701146 286.858064 
L 200.425593 287.715037 
L 192.262738 288.785392 
L 184.376709 290.041741 
L 176.675636 291.490211 
L 169.060311 293.149754 
L 161.686867 294.984749 
L 154.580143 296.979551 
L 147.633065 299.159069 
L 140.866469 301.516511 
L 134.425083 303.99308 
L 128.197031 306.621895 
L 122.196826 309.392594 
L 116.437075 312.293951 
L 110.928416 315.31403 
L 105.679504 318.440338 
L 100.588115 321.733318 
L 95.775496 325.113308 
L 91.245155 328.566579 
L 86.99867 332.079386 
L 82.943746 335.72433 
L 79.179825 339.407386 
L 75.703686 343.114937 
L 72.433276 346.928007 
L 69.449887 350.744267 
L 66.679526 354.649719 
L 64.190937 358.537528 
L 61.918914 362.498216 
L 59.919328 366.421379 
L 58.136368 370.401536 
L 56.574684 374.4323 
L 55.238372 378.50707 
L 54.157136 382.510432 
L 53.295619 386.542677 
L 52.655988 390.597283 
L 52.239859 394.667638 
L 52.048282 398.747067 
L 52.034387 400.181286 
L 52.034387 400.181286 
" style="fill:none;stroke:#8d5ccd;stroke-linecap:square;stroke-width:3;"/>
   </g>
   <g id="line2d_2">
    <path clip-path="url(#p90f1fb14a5)" d="M 86.983104 247.06095 
L 85.313806 250.786654 
L 83.849948 254.603836 
L 82.593667 258.506098 
L 81.546566 262.486846 
L 80.709709 266.539315 
L 80.083624 270.6566 
L 79.659991 274.945258 
L 79.458051 279.287182 
L 79.476605 283.674614 
L 79.713867 288.099766 
L 80.182312 292.672426 
L 80.875479 297.26824 
L 81.815912 301.997249 
L 82.984086 306.733042 
L 84.412261 311.585189 
L 86.067784 316.426208 
L 87.992151 321.364483 
L 90.193501 326.388948 
L 92.619516 331.372216 
L 95.324236 336.419253 
L 98.311502 341.516927 
L 101.583403 346.651334 
L 105.062333 351.699194 
L 108.816035 356.758552 
L 112.84148 361.814536 
L 117.133633 366.851976 
L 121.685417 371.855544 
L 126.583343 376.905518 
L 131.725892 381.884722 
L 137.098823 386.777909 
L 142.788461 391.65577 
L 148.677306 396.411763 
L 154.849623 401.110496 
L 161.285134 405.728285 
L 167.959822 410.242452 
L 174.846218 414.631763 
L 182.018921 418.938085 
L 189.441458 423.131595 
L 197.072755 427.185179 
L 204.86806 431.075092 
L 212.97522 434.869975 
L 221.233193 438.48974 
L 229.763455 441.984709 
L 238.48292 445.31599 
L 247.390724 448.481422 
L 256.471619 451.473182 
L 265.698821 454.279223 
L 274.902167 456.847319 
L 283.949619 459.143651 
L 292.630727 461.120256 
L 300.747295 462.742923 
L 308.163657 464.003108 
L 314.930795 464.932132 
L 321.137133 465.563454 
L 326.851028 465.924917 
L 332.167676 466.042395 
L 337.204096 465.93277 
L 341.970987 465.608163 
L 346.546811 465.074457 
L 350.945691 464.337691 
L 355.119775 463.41496 
L 358.896043 462.35869 
L 361.903881 461.299466 
L 363.882629 460.384577 
L 364.912868 459.715678 
M 426.529639 331.767135 
L 426.418799 330.595007 
L 426.013798 328.84624 
L 425.187882 326.326888 
L 423.876511 323.061834 
L 422.152 319.369311 
L 420.112849 315.531961 
L 417.80629 311.669106 
L 415.244942 307.814016 
L 412.385502 303.914183 
L 409.191769 299.938801 
L 405.614187 295.846586 
L 401.621725 291.620984 
L 397.100809 287.164806 
L 391.982461 282.438621 
L 386.224352 277.42979 
L 379.778739 272.122968 
L 372.755443 266.630605 
L 365.270654 261.058877 
L 357.440026 255.507001 
L 349.434005 250.103947 
L 341.407668 244.953281 
L 333.308547 240.019557 
L 325.224267 235.355028 
L 317.157864 230.957166 
L 309.096072 226.815676 
L 301.110761 222.962196 
L 293.16826 219.373932 
L 285.217046 216.025522 
L 277.30408 212.935414 
L 269.476238 210.116893 
L 261.65735 207.539519 
L 254.007174 205.249831 
L 246.440279 203.213487 
L 238.85906 201.404517 
L 231.419642 199.858574 
L 224.151193 198.572336 
L 216.946434 197.521789 
L 209.827086 196.709856 
L 202.949055 196.146355 
L 196.197173 195.812584 
L 189.589015 195.705506 
L 183.140806 195.820477 
L 176.867313 196.151357 
L 170.781753 196.690644 
L 164.7658 197.448446 
L 158.963257 198.405595 
L 153.383243 199.551243 
L 148.033142 200.873692 
L 142.7983 202.398308 
L 137.809105 204.083523 
L 133.068567 205.91567 
L 128.4676 207.93215 
L 124.123846 210.076037 
L 119.933326 212.392713 
L 116.004327 214.81575 
L 112.238827 217.398413 
L 108.735065 220.065473 
L 105.401748 222.877873 
L 102.245837 225.831877 
L 99.273885 228.923313 
L 96.562731 232.061087 
L 94.037005 235.320216 
L 91.701491 238.695765 
L 89.56051 242.182476 
L 87.617907 245.774792 
L 86.983104 247.06095 
L 86.983104 247.06095 
" style="fill:none;stroke:#b55092;stroke-linecap:square;stroke-width:3;"/>
   </g>
   <g id="line2d_3">
    <path clip-path="url(#p90f1fb14a5)" d="M 184.907235 124.267975 
L 181.786726 126.900436 
L 178.811623 129.704455 
L 175.986625 132.675192 
L 173.316037 135.807401 
L 170.803755 139.095451 
L 168.453249 142.533348 
L 166.21079 146.213488 
L 164.144958 150.037808 
L 162.258039 153.998798 
L 160.551802 158.088667 
L 158.989854 162.411741 
L 157.620327 166.853181 
L 156.415789 171.521909 
L 155.413493 176.295563 
L 154.594967 181.286858 
L 153.986101 186.36677 
L 153.577259 191.650954 
L 153.380573 197.13297 
L 153.404179 202.675348 
L 153.65122 208.396105 
L 154.130856 214.285077 
L 154.851001 220.330643 
L 155.795224 226.388058 
L 156.98202 232.575052 
L 158.41511 238.876912 
L 160.096544 245.277783 
L 162.026593 251.760787 
L 164.24837 258.435788 
L 166.72125 265.153164 
L 169.43902 271.893 
L 172.448783 278.756442 
L 175.6909 285.596518 
L 179.213261 292.507999 
L 183.007874 299.460746 
L 187.062936 306.423909 
L 191.362913 313.366437 
L 195.956852 320.358418 
L 200.824831 327.357158 
L 205.941608 334.320406 
L 211.277165 341.207353 
L 216.934926 348.143989 
L 222.804545 354.988285 
L 228.973636 361.838285 
L 235.384214 368.622901 
L 242.036438 375.339807 
L 248.919967 381.975342 
L 256.015893 388.507031 
L 263.193565 394.813987 
L 270.348696 400.808454 
L 277.312488 406.355905 
L 283.921214 411.339524 
L 290.056352 415.69275 
L 295.750244 419.465923 
L 301.068041 422.727554 
L 306.059249 425.532387 
L 310.798413 427.945038 
L 315.383635 430.03149 
L 319.819296 431.807306 
L 324.173538 433.311829 
L 328.456463 434.556628 
L 332.61754 435.536343 
L 336.478139 436.223139 
L 339.647687 436.573863 
L 341.827433 436.608123 
L 343.045871 436.452469 
M 454.075455 347.909331 
L 454.48416 346.805188 
L 454.878028 345.05388 
L 455.227008 342.425671 
L 455.462158 338.914976 
L 455.510553 334.83989 
L 455.338305 330.497803 
L 454.936197 326.016712 
L 454.301163 321.43207 
L 453.416971 316.677777 
L 452.26437 311.710372 
L 450.816627 306.471159 
L 449.052962 300.931759 
L 446.91322 294.95533 
L 444.352363 288.476417 
L 441.337737 281.465266 
L 437.832984 273.887337 
L 433.88826 265.891595 
L 429.56218 257.624114 
L 424.915897 249.224464 
L 420.047019 240.882799 
L 415.050329 232.759711 
L 409.893935 224.800503 
L 404.634114 217.09027 
L 399.274697 209.628052 
L 393.808199 202.398818 
L 388.285644 195.462256 
L 382.686588 188.78322 
L 376.975612 182.316504 
L 371.187024 176.099106 
L 365.357292 170.163333 
L 359.430998 164.448711 
L 353.531886 159.066486 
L 347.597886 153.94865 
L 341.552326 149.029458 
L 335.520402 144.408768 
L 329.529833 140.096246 
L 323.494385 136.023708 
L 317.432359 132.203212 
L 311.479961 128.71125 
L 305.541543 125.481001 
L 299.634257 122.517355 
L 293.774738 119.823167 
L 287.978953 117.399313 
L 282.262064 115.244768 
L 276.51308 113.3173 
L 270.869879 111.662032 
L 265.345381 110.273148 
L 259.951318 109.143312 
L 254.573382 108.245631 
L 249.347086 107.599226 
L 244.281069 107.193092 
L 239.260824 107.013592 
L 234.417039 107.060484 
L 229.636342 107.329538 
L 225.045121 107.80789 
L 220.531947 108.501 
L 216.217973 109.383712 
L 211.994503 110.471326 
L 207.869431 111.763492 
L 203.850471 113.259298 
L 200.046377 114.910009 
L 196.356693 116.750512 
L 192.787872 118.778434 
L 189.346088 120.990916 
L 186.037215 123.384618 
L 184.907235 124.267975 
L 184.907235 124.267975 
" style="fill:none;stroke:#da5c55;stroke-linecap:square;stroke-width:3;"/>
   </g>
   <g id="line2d_4">
    <path clip-path="url(#p90f1fb14a5)" d="M 326.411702 56.123015 
L 322.458039 57.140843 
L 318.560946 58.376327 
L 314.726756 59.827148 
L 310.961625 61.490446 
L 307.271506 63.362839 
L 303.662125 65.44043 
L 300.044986 67.783155 
L 296.524426 70.332418 
L 293.105761 73.082443 
L 289.793968 76.026979 
L 286.510989 79.244231 
L 283.35002 82.651614 
L 280.239083 86.335363 
L 277.264835 90.201397 
L 274.361727 94.343253 
L 271.609067 98.655919 
L 268.947991 103.239414 
L 266.392225 108.093201 
L 264.008746 113.096954 
L 261.749178 118.358364 
L 259.626187 123.872251 
L 257.651942 129.631577 
L 255.874443 135.498803 
L 254.259273 141.588023 
L 252.816169 147.887597 
L 251.553854 154.38413 
L 250.479898 161.062531 
L 249.585476 168.040492 
L 248.898904 175.165581 
L 248.423225 182.41716 
L 248.156991 189.906795 
L 248.110241 197.476192 
L 248.284999 205.231516 
L 248.687143 213.142146 
L 249.319424 221.175164 
L 250.18132 229.295856 
L 251.28661 237.588649 
L 252.635867 246.006432 
L 254.224684 254.500189 
L 256.043721 263.020125 
L 258.131493 271.724629 
L 260.450209 280.437859 
L 263.036263 289.286163 
L 265.86826 298.180336 
L 268.947351 307.118351 
L 272.270145 316.083413 
L 275.82936 325.047068 
L 279.559734 333.843715 
L 283.405383 342.349038 
L 287.272593 350.368594 
L 291.064539 357.726099 
L 294.703313 364.310157 
L 298.196213 370.180155 
L 301.572215 375.426089 
L 304.852166 380.11876 
L 308.075195 384.348729 
L 311.30106 388.218011 
L 314.526955 391.742527 
L 317.797203 394.98729 
L 321.115887 397.967107 
L 324.439806 400.655224 
L 327.620096 402.949056 
L 330.323586 404.640263 
L 332.272605 405.616887 
L 333.437915 406.005308 
M 471.889541 374.404628 
L 472.736841 373.58716 
L 473.851568 372.180179 
L 475.306326 369.963661 
L 477.041422 366.902662 
L 478.853138 363.252134 
L 480.581909 359.265314 
L 482.163894 355.053522 
L 483.580951 350.647371 
L 484.847131 345.980265 
L 485.96395 341.004693 
L 486.932788 335.656173 
L 487.747236 329.90012 
L 488.412471 323.587145 
L 488.916314 316.638731 
L 489.242253 309.013905 
L 489.37252 300.665772 
L 489.287669 291.750306 
L 488.977131 282.424547 
L 488.435446 272.840777 
L 487.668052 263.212669 
L 486.690666 253.726038 
L 485.498286 244.317763 
L 484.104696 235.088933 
L 482.513763 226.040343 
L 480.725266 217.155203 
L 478.759277 208.50943 
L 476.612627 200.062487 
L 474.273018 191.758278 
L 471.755308 183.645021 
L 469.078337 175.767649 
L 466.218412 168.04763 
L 463.238756 160.638884 
L 460.112952 153.453207 
L 456.800448 146.398098 
L 453.370714 139.617847 
L 449.844532 133.133188 
L 446.173789 126.845276 
L 442.369743 120.772913 
L 438.521923 115.044115 
L 434.573147 109.557179 
L 430.536744 104.32395 
L 426.426464 99.354221 
L 422.256313 94.655707 
L 418.040396 90.234064 
L 413.697037 86.003084 
L 409.330882 82.063246 
L 404.956096 78.414915 
L 400.586431 75.056572 
L 396.130567 71.91439 
L 391.702302 69.064394 
L 387.314193 66.500418 
L 382.86899 64.160492 
L 378.484545 62.1011 
L 374.060548 60.269243 
L 369.716451 58.708167 
L 365.349493 57.374444 
L 361.079742 56.297977 
L 356.80263 55.445389 
L 352.525419 54.819789 
L 348.255454 54.423702 
L 344.111867 54.260407 
L 339.989013 54.317748 
L 335.893734 54.59639 
L 331.832833 55.096433 
L 327.813054 55.817417 
L 326.411702 56.123015 
L 326.411702 56.123015 
" style="fill:none;stroke:#eba302;stroke-linecap:square;stroke-width:3;"/>
   </g>
   <g id="line2d_5">
    <path clip-path="url(#p90f1fb14a5)" d="M 483.469813 56.123015 
L 479.466066 55.324616 
L 475.41885 54.746863 
L 471.334877 54.390415 
L 467.220933 54.255366 
L 463.083849 54.34125 
L 458.930476 54.647044 
L 454.655077 55.188349 
L 450.377078 55.957641 
L 446.103776 56.952025 
L 441.842368 58.168027 
L 437.488593 59.64224 
L 433.16225 61.340693 
L 428.761073 63.309851 
L 424.403959 65.50255 
L 419.991265 67.974622 
L 415.640008 70.665865 
L 411.253759 73.640854 
L 406.845113 76.90506 
L 402.526626 80.379132 
L 398.207985 84.13911 
L 393.90285 88.185818 
L 389.62524 92.518199 
L 385.478075 97.033159 
L 381.380843 101.818561 
L 377.347368 106.868142 
L 373.391322 112.173617 
L 369.526071 117.724677 
L 365.692601 123.623527 
L 361.982561 129.745119 
L 358.407646 136.072175 
L 354.918147 142.704589 
L 351.591788 149.504096 
L 348.384331 156.567226 
L 345.314356 163.868941 
L 342.398626 171.380777 
L 339.651732 179.07123 
L 337.049455 187.022345 
L 334.612755 195.191927 
L 332.358926 203.533899 
L 330.30116 211.999346 
L 328.405436 220.747684 
L 326.713997 229.604086 
L 325.204817 238.69818 
L 323.897321 247.94031 
L 322.793426 257.329151 
L 321.897365 266.848099 
L 321.214923 276.468359 
L 320.759152 286.012412 
L 320.53364 295.344008 
L 320.538322 304.247298 
L 320.762445 312.521444 
L 321.184151 320.032281 
L 321.784249 326.836479 
L 322.549796 333.027694 
L 323.468857 338.678762 
L 324.53739 343.888253 
L 325.764975 348.774005 
L 327.142176 353.349149 
L 328.680718 357.691486 
L 330.377855 361.816132 
L 332.206272 365.680235 
L 334.076358 369.126783 
L 335.778332 371.823508 
L 337.110595 373.549063 
L 337.991974 374.404628 
M 476.4436 406.005308 
L 477.561677 405.636424 
L 479.176478 404.85244 
L 481.44888 403.486622 
L 484.340265 401.481588 
L 487.556469 398.97865 
L 490.843855 396.136734 
L 494.096603 393.028439 
L 497.285083 389.673472 
L 500.450854 386.017929 
L 503.615893 382.019664 
L 506.809421 377.621176 
L 510.040671 372.788528 
L 513.379125 367.389368 
L 516.847875 361.347673 
L 520.449825 354.619362 
L 524.18931 347.154475 
L 527.981138 339.085102 
L 531.747648 330.548146 
L 535.417849 321.678439 
L 538.903929 312.670854 
L 542.13943 303.699623 
L 545.147231 294.705706 
L 547.895889 285.786161 
L 550.388544 276.943383 
L 552.632281 268.162149 
L 554.612247 259.519566 
L 556.343173 250.977737 
L 557.83832 242.480785 
L 559.090152 234.0786 
L 560.096148 225.819838 
L 560.869035 217.623467 
L 561.398992 209.655593 
L 561.700488 201.825286 
L 561.777123 194.031611 
L 561.62888 186.43471 
L 561.265488 179.062281 
L 560.686485 171.804392 
L 559.893858 164.682869 
L 558.912724 157.851893 
L 557.735692 151.195025 
L 556.369631 144.728719 
L 554.822682 138.467764 
L 553.104114 132.425188 
L 551.224183 126.612208 
L 549.146705 120.915714 
L 546.922368 115.471639 
L 544.563773 110.286458 
L 542.083971 105.364769 
L 539.432718 100.600434 
L 536.679556 96.111324 
L 533.838475 91.897332 
L 530.848741 87.86043 
L 527.792029 84.102643 
L 524.600958 80.532697 
L 521.364388 77.241383 
L 518.008575 74.144988 
L 514.628724 71.322549 
L 511.145103 68.698624 
L 507.562907 66.279165 
L 503.887657 64.069635 
L 500.225266 62.124676 
L 496.485823 60.3875 
L 492.675205 58.861672 
L 488.7995 57.550237 
L 484.864981 56.455705 
L 483.469813 56.123015 
L 483.469813 56.123015 
" style="fill:none;stroke:#9ca538;stroke-linecap:square;stroke-width:3;"/>
   </g>
   <g id="line2d_6">
    <path clip-path="url(#p90f1fb14a5)" d="M 624.974281 124.267975 
L 621.713442 121.811482 
L 618.317703 119.534923 
L 614.792828 117.441805 
L 611.144888 115.535157 
L 607.380241 113.817523 
L 603.505502 112.290953 
L 599.418637 110.923625 
L 595.23051 109.760579 
L 590.948951 108.802372 
L 586.581951 108.048996 
L 582.019698 107.488184 
L 577.384867 107.141307 
L 572.565158 107.005858 
L 567.688158 107.090931 
L 562.639866 107.403594 
L 557.551832 107.940381 
L 552.309159 108.717631 
L 546.920821 109.745739 
L 541.522654 111.002049 
L 536.000301 112.515884 
L 530.365707 114.293914 
L 524.631963 116.341268 
L 518.936529 118.609719 
L 513.168743 121.143495 
L 507.343777 123.942951 
L 501.477543 127.006555 
L 495.586557 130.330818 
L 489.573305 133.982218 
L 483.574615 137.887855 
L 477.608522 142.037239 
L 471.586895 146.4988 
L 465.639753 151.181691 
L 459.685357 156.153689 
L 453.75131 161.400294 
L 447.865065 166.903136 
L 442.053436 172.640163 
L 436.259006 178.674784 
L 430.518966 184.978079 
L 424.868891 191.516036 
L 419.341888 198.250309 
L 413.838137 205.309765 
L 408.471555 212.55522 
L 403.166051 220.093907 
L 397.978028 227.853477 
L 392.909788 235.833569 
L 387.972348 244.021058 
L 383.183415 252.392512 
L 378.631769 260.793655 
L 374.379763 269.103286 
L 370.520988 277.126905 
L 367.132898 284.678897 
L 364.254013 291.628898 
L 361.842451 298.019642 
L 359.845918 303.929892 
L 358.222056 309.420094 
L 356.924458 314.577302 
L 355.910626 319.511842 
L 355.166361 324.231449 
L 354.668469 328.811308 
L 354.40792 333.263845 
L 354.378695 337.538603 
L 354.568183 341.455235 
L 354.931544 344.623359 
L 355.383181 346.756078 
L 355.80606 347.909331 
M 466.835644 436.452469 
L 468.00305 436.605232 
L 469.798092 436.599522 
L 472.438062 436.354921 
L 475.913062 435.802972 
L 479.896746 434.943362 
L 484.091639 433.809228 
L 488.370902 432.420065 
L 492.69929 430.780774 
L 497.137631 428.86082 
L 501.724015 426.631767 
L 506.509717 424.054486 
L 511.51778 421.102407 
L 516.868231 417.686433 
L 522.61486 413.748088 
L 528.779409 409.248917 
L 535.387462 404.145788 
L 542.304951 398.520746 
L 549.402505 392.463442 
L 556.557663 386.064553 
L 563.606758 379.461553 
L 570.414315 372.782584 
L 577.026564 365.984381 
L 583.373065 359.140747 
L 589.455607 352.255202 
L 595.287179 345.317104 
L 600.820943 338.389481 
L 606.086614 331.444579 
L 611.120384 324.43781 
L 615.893817 317.410852 
L 620.383531 310.40645 
L 624.636151 303.357118 
L 628.570756 296.408252 
L 632.239837 289.484203 
L 635.690432 282.495595 
L 638.853042 275.586704 
L 641.724413 268.786704 
L 644.35183 261.996353 
L 646.727611 255.236174 
L 648.807489 248.65598 
L 650.635327 242.147653 
L 652.210173 235.729002 
L 653.532947 229.41688 
L 654.606346 223.227049 
L 655.434744 217.174063 
L 656.034617 211.140316 
L 656.392654 205.27027 
L 656.517399 199.575227 
L 656.418616 194.064992 
L 656.097087 188.622139 
L 655.564325 183.383039 
L 654.832982 178.353665 
L 653.890871 173.419345 
L 652.767312 168.707438 
L 651.441198 164.106474 
L 649.953197 159.736807 
L 648.273189 155.491019 
L 646.452659 151.481627 
L 644.452503 147.606066 
L 642.274819 143.871952 
L 639.922214 140.286603 
L 637.466399 136.945204 
L 634.851009 133.757579 
L 632.079794 130.72949 
L 629.156914 127.866322 
L 626.086935 125.173059 
L 624.974281 124.267975 
L 624.974281 124.267975 
" style="fill:none;stroke:#1bb7b2;stroke-linecap:square;stroke-width:3;"/>
   </g>
   <g id="line2d_7">
    <path clip-path="url(#p90f1fb14a5)" d="M 722.898411 247.06095 
L 721.026329 243.432901 
L 718.954636 239.908437 
L 716.687003 236.493217 
L 714.227586 233.192604 
L 711.58101 230.01165 
L 708.752345 226.955072 
L 705.663468 223.949928 
L 702.394722 221.0849 
L 698.952922 218.363886 
L 695.345268 215.790347 
L 691.478148 213.305586 
L 687.452813 210.982083 
L 683.169174 208.768854 
L 678.738237 206.729451 
L 674.054224 204.820779 
L 669.237161 203.096792 
L 664.176439 201.522359 
L 658.875635 200.110741 
L 653.466963 198.90046 
L 647.834666 197.868319 
L 641.986614 197.02551 
L 635.932376 196.382335 
L 629.816723 195.954982 
L 623.520763 195.735286 
L 617.058011 195.730151 
L 610.443469 195.945099 
L 603.693531 196.384154 
L 596.691495 197.064899 
L 589.592269 197.981023 
L 582.416655 199.130897 
L 575.055558 200.537939 
L 567.665538 202.17671 
L 560.143544 204.072809 
L 552.520735 206.225151 
L 544.829818 208.629094 
L 537.104519 211.276405 
L 529.265593 214.199302 
L 521.359099 217.387865 
L 513.431844 220.826885 
L 505.530294 224.496179 
L 497.508603 228.468541 
L 489.529795 232.667997 
L 481.478787 237.158147 
L 473.437789 241.89828 
L 465.40903 246.889067 
L 457.408132 252.123465 
L 449.461215 257.588044 
L 441.715204 263.182328 
L 434.278865 268.82417 
L 427.320911 274.378941 
L 420.991662 279.713013 
L 415.382383 284.725647 
L 410.436801 289.437171 
L 406.073626 293.895858 
L 402.228467 298.137792 
L 398.821743 302.22127 
L 395.767295 306.227251 
L 393.048975 310.156546 
L 390.613264 314.066829 
L 388.446634 317.965379 
L 386.565555 321.804122 
L 385.036915 325.415101 
L 383.989694 328.427139 
L 383.471253 330.54461 
L 383.351876 331.767135 
M 444.968647 459.715678 
L 445.954161 460.35983 
L 447.573916 461.133526 
L 450.058575 462.058588 
L 453.428924 463.069045 
L 457.39107 464.023019 
L 461.66262 464.821295 
L 466.120838 465.426405 
L 470.731843 465.827472 
L 475.563687 466.023378 
L 480.663026 466.005027 
L 486.093034 465.759416 
L 491.886002 465.272602 
L 498.188727 464.516389 
L 505.075045 463.461432 
L 512.581229 462.082516 
L 520.749044 460.351883 
L 529.4221 458.285281 
L 538.444942 455.907352 
L 547.66789 453.246659 
L 556.88384 450.356049 
L 565.915132 447.292194 
L 574.822193 444.036172 
L 583.509534 440.623914 
L 591.977241 437.059369 
L 600.241634 433.338583 
L 608.233166 429.498021 
L 615.990651 425.52557 
L 623.566045 421.396759 
L 630.915642 417.136804 
L 637.99983 412.77407 
L 644.889899 408.267984 
L 651.449856 403.714433 
L 657.759816 399.068035 
L 663.900938 394.268674 
L 669.748006 389.416182 
L 675.285432 384.535436 
L 680.598876 379.557534 
L 685.672512 374.497636 
L 690.401457 369.471512 
L 694.872139 364.400781 
L 699.075975 359.301076 
L 703.00648 354.187981 
L 706.659246 349.076866 
L 710.031899 343.982743 
L 713.190311 338.8068 
L 716.059808 333.673417 
L 718.643186 328.596486 
L 720.944987 323.589076 
L 723.016865 318.545729 
L 724.810024 313.594305 
L 726.33327 308.745678 
L 727.625378 303.891242 
L 728.657506 299.158467 
L 729.459003 294.437762 
L 730.014287 289.855209 
L 730.342831 285.300959 
L 730.442199 280.898723 
L 730.321665 276.539127 
L 729.979811 272.229946 
L 729.41581 267.978901 
L 728.652977 263.902865 
L 727.679651 259.89614 
L 726.49671 255.965541 
L 725.105569 252.117726 
L 723.508176 248.359165 
L 722.898411 247.06095 
L 722.898411 247.06095 
" style="fill:none;stroke:#6098dd;stroke-linecap:square;stroke-width:3;"/>
   </g>
   <g id="line2d_8">
    <path clip-path="url(#p90f1fb14a5)" d="M 757.847128 400.181286 
L 757.734592 396.100261 
L 757.397269 392.025955 
L 756.836011 387.965058 
L 756.052235 383.924208 
L 755.047916 379.909961 
L 753.825577 375.928767 
L 752.346478 371.881013 
L 750.644529 367.881456 
L 748.724177 363.936566 
L 746.59041 360.052586 
L 744.184353 356.136012 
L 741.565782 352.296081 
L 738.666641 348.44343 
L 735.559368 344.683479 
L 732.16736 340.931508 
L 728.575346 337.288205 
L 724.698914 333.673925 
L 720.535533 330.102167 
L 716.187609 326.665007 
L 711.560914 323.291318 
L 706.657682 319.994599 
L 701.482065 316.788282 
L 696.157474 313.749768 
L 690.580332 310.820115 
L 684.759822 308.011405 
L 678.707063 305.335125 
L 672.43508 302.802011 
L 665.8311 300.377272 
L 659.037427 298.122432 
L 652.07351 296.045051 
L 644.830898 294.118892 
L 637.461684 292.388964 
L 629.861915 290.833619 
L 622.060136 289.465399 
L 614.087827 288.294313 
L 605.978948 287.327576 
L 597.648123 286.559833 
L 589.141152 286.002129 
L 580.506807 285.661072 
L 571.79571 285.538638 
L 562.844873 285.637131 
L 553.834139 285.958836 
L 544.632228 286.51112 
L 535.330873 287.292973 
L 525.93179 288.305969 
L 516.45211 289.55054 
L 506.921192 291.025917 
L 497.515009 292.705324 
L 488.367196 294.561942 
L 479.688171 296.547674 
L 471.671347 298.607349 
L 464.442662 300.689801 
L 457.942593 302.78893 
L 452.076955 304.912957 
L 446.772081 307.066456 
L 441.930974 309.26742 
L 437.440881 311.551409 
L 433.286902 313.912146 
L 429.395794 316.378375 
L 425.752211 318.950781 
L 422.391849 321.5932 
L 419.447847 324.183327 
L 417.197459 326.442707 
L 415.811624 328.12554 
L 415.173635 329.175202 
M 415.173635 471.18737 
L 415.782066 472.19533 
L 416.90572 473.595191 
L 418.742951 475.506696 
L 421.34111 477.879426 
L 424.496966 480.458037 
L 427.999141 483.030616 
L 431.753309 485.510149 
L 435.733664 487.872138 
L 440.002005 490.145101 
L 444.604313 492.341088 
L 449.603148 494.475793 
L 455.033653 496.550663 
L 461.04032 498.603989 
L 467.702407 500.641367 
L 475.063534 502.655818 
L 483.173375 504.640453 
L 491.884193 506.541607 
L 501.045237 508.314031 
L 510.509258 509.918517 
L 520.06673 511.312818 
L 529.533 512.470911 
L 538.97072 513.401966 
L 548.278267 514.096923 
L 557.454006 514.559379 
L 566.514354 514.792853 
L 575.380834 514.800021 
L 584.093669 514.586813 
L 592.710286 514.153724 
L 601.18037 513.504508 
L 609.455922 512.647534 
L 617.618777 511.577179 
L 625.504806 510.32083 
L 633.20588 508.87236 
L 640.821205 507.212818 
L 648.194648 505.377822 
L 655.301372 503.383021 
L 662.248451 501.203503 
L 669.015046 498.84606 
L 675.456432 496.369491 
L 681.684485 493.740677 
L 687.684689 490.969978 
L 693.444441 488.06862 
L 698.953099 485.048541 
L 704.202012 481.922234 
L 709.2934 478.629253 
L 714.106019 475.249264 
L 718.63636 471.795993 
L 722.882845 468.283186 
L 726.937769 464.638241 
L 730.701691 460.955185 
L 734.177829 457.247634 
L 737.448239 453.434564 
L 740.431628 449.618304 
L 743.201989 445.712853 
L 745.690578 441.825044 
L 747.962601 437.864356 
L 749.962187 433.941193 
L 751.745147 429.961035 
L 753.306831 425.930271 
L 754.643144 421.855502 
L 755.72438 417.85214 
L 756.585897 413.819895 
L 757.225527 409.765288 
L 757.641656 405.694933 
L 757.833233 401.615504 
L 757.847128 400.181286 
L 757.847128 400.181286 
" style="fill:none;stroke:#8d5ccd;stroke-linecap:square;stroke-width:3;"/>
   </g>
   <g id="line2d_9">
    <path clip-path="url(#p90f1fb14a5)" d="M 722.898411 553.301621 
L 724.56771 549.575918 
L 726.031567 545.758735 
L 727.287848 541.856473 
L 728.33495 537.875725 
L 729.171806 533.823256 
L 729.797891 529.705972 
L 730.221524 525.417314 
L 730.423464 521.075389 
L 730.404911 516.687957 
L 730.167649 512.262805 
L 729.699204 507.690145 
L 729.006036 503.094331 
L 728.065603 498.365322 
L 726.897429 493.629529 
L 725.469254 488.777383 
L 723.813731 483.936363 
L 721.889364 478.998088 
L 719.688015 473.973623 
L 717.261999 468.990355 
L 714.557279 463.943318 
L 711.570013 458.845645 
L 708.298112 453.711237 
L 704.819182 448.663377 
L 701.06548 443.60402 
L 697.040036 438.548035 
L 692.747883 433.510596 
L 688.196099 428.507028 
L 683.298172 423.457053 
L 678.155624 418.477849 
L 672.782693 413.584663 
L 667.093054 408.706802 
L 661.204209 403.950809 
L 655.031893 399.252075 
L 648.596381 394.634286 
L 641.921694 390.120119 
L 635.035298 385.730808 
L 627.862595 381.424486 
L 620.440058 377.230976 
L 612.80876 373.177393 
L 605.013456 369.28748 
L 596.906295 365.492597 
L 588.648323 361.872831 
L 580.118061 358.377863 
L 571.398595 355.046581 
L 562.490792 351.88115 
L 553.409896 348.88939 
L 544.182694 346.083349 
L 534.979348 343.515253 
L 525.931897 341.21892 
L 517.250789 339.242315 
L 509.134221 337.619648 
L 501.717858 336.359464 
L 494.950721 335.430439 
L 488.744382 334.799117 
L 483.030488 334.437654 
L 477.713839 334.320177 
L 472.677419 334.429801 
L 467.910528 334.754408 
L 463.334705 335.288114 
L 458.935824 336.024881 
L 454.76174 336.947612 
L 450.985472 338.003881 
L 447.977634 339.063105 
L 445.998886 339.977994 
L 444.968647 340.646894 
M 383.351876 468.595436 
L 383.462716 469.767565 
L 383.867717 471.516331 
L 384.693634 474.035683 
L 386.005005 477.300737 
L 387.729516 480.993261 
L 389.768666 484.83061 
L 392.075226 488.693465 
L 394.636573 492.548555 
L 397.496013 496.448388 
L 400.689746 500.42377 
L 404.267328 504.515986 
L 408.259791 508.741587 
L 412.780707 513.197765 
L 417.899054 517.92395 
L 423.657163 522.932781 
L 430.102776 528.239604 
L 437.126073 533.731967 
L 444.610862 539.303694 
L 452.441489 544.85557 
L 460.44751 550.258624 
L 468.473847 555.409291 
L 476.572969 560.343015 
L 484.657248 565.007543 
L 492.723651 569.405405 
L 500.785443 573.546896 
L 508.770754 577.400376 
L 516.713255 580.988639 
L 524.664469 584.337049 
L 532.577435 587.427157 
L 540.405277 590.245678 
L 548.224165 592.823052 
L 555.874341 595.112741 
L 563.441236 597.149085 
L 571.022456 598.958054 
L 578.461873 600.503998 
L 585.730323 601.790236 
L 592.935081 602.840782 
L 600.054429 603.652716 
L 606.93246 604.216216 
L 613.684342 604.549987 
L 620.2925 604.657065 
L 626.740709 604.542095 
L 633.014202 604.211215 
L 639.099763 603.671927 
L 645.115716 602.914125 
L 650.918258 601.956977 
L 656.498273 600.811328 
L 661.848373 599.488879 
L 667.083216 597.964263 
L 672.07241 596.279049 
L 676.812948 594.446901 
L 681.413915 592.430421 
L 685.757669 590.286534 
L 689.94819 587.969858 
L 693.877188 585.546821 
L 697.642688 582.964158 
L 701.14645 580.297099 
L 704.479767 577.484698 
L 707.635678 574.530695 
L 710.607631 571.439258 
L 713.318784 568.301484 
L 715.84451 565.042355 
L 718.180024 561.666807 
L 720.321005 558.180095 
L 722.263608 554.587779 
L 722.898411 553.301621 
L 722.898411 553.301621 
" style="fill:none;stroke:#b55092;stroke-linecap:square;stroke-width:3;"/>
   </g>
   <g id="line2d_10">
    <path clip-path="url(#p90f1fb14a5)" d="M 624.974281 676.094597 
L 628.094789 673.462135 
L 631.069892 670.658116 
L 633.894891 667.68738 
L 636.565478 664.55517 
L 639.07776 661.26712 
L 641.428267 657.829223 
L 643.670726 654.149083 
L 645.736557 650.324763 
L 647.623477 646.363773 
L 649.329713 642.273905 
L 650.891661 637.95083 
L 652.261188 633.509391 
L 653.465727 628.840662 
L 654.468022 624.067008 
L 655.286548 619.075713 
L 655.895414 613.995801 
L 656.304256 608.711618 
L 656.500942 603.229601 
L 656.477336 597.687223 
L 656.230296 591.966466 
L 655.750659 586.077495 
L 655.030514 580.031929 
L 654.086291 573.974513 
L 652.899496 567.787519 
L 651.466405 561.485659 
L 649.784972 555.084788 
L 647.854923 548.601784 
L 645.633145 541.926784 
L 643.160265 535.209407 
L 640.442495 528.469571 
L 637.432733 521.606129 
L 634.190615 514.766053 
L 630.668254 507.854573 
L 626.873642 500.901825 
L 622.81858 493.938662 
L 618.518602 486.996135 
L 613.924663 480.004154 
L 609.056684 473.005413 
L 603.939907 466.042165 
L 598.60435 459.155219 
L 592.946589 452.218582 
L 587.07697 445.374286 
L 580.90788 438.524286 
L 574.497302 431.739671 
L 567.845077 425.022765 
L 560.961549 418.387229 
L 553.865622 411.855541 
L 546.68795 405.548584 
L 539.532819 399.554118 
L 532.569028 394.006667 
L 525.960301 389.023048 
L 519.825163 384.669821 
L 514.131271 380.896648 
L 508.813474 377.635018 
L 503.822266 374.830185 
L 499.083102 372.417534 
L 494.497881 370.331081 
L 490.062219 368.555265 
L 485.707978 367.050743 
L 481.425052 365.805943 
L 477.263975 364.826228 
L 473.403376 364.139433 
L 470.233828 363.788709 
L 468.054082 363.754448 
L 466.835644 363.910102 
M 355.80606 452.453241 
L 355.397356 453.557384 
L 355.003488 455.308691 
L 354.654507 457.936901 
L 354.419358 461.447595 
L 354.370963 465.522681 
L 354.54321 469.864768 
L 354.945318 474.345859 
L 355.580352 478.930502 
L 356.464544 483.684794 
L 357.617145 488.652199 
L 359.064889 493.891412 
L 360.828554 499.430812 
L 362.968295 505.407241 
L 365.529152 511.886155 
L 368.543778 518.897305 
L 372.048531 526.475234 
L 375.993256 534.470976 
L 380.319336 542.738457 
L 384.965619 551.138107 
L 389.834497 559.479773 
L 394.831186 567.60286 
L 399.98758 575.562069 
L 405.247401 583.272301 
L 410.606818 590.734519 
L 416.073316 597.963754 
L 421.595871 604.900316 
L 427.194927 611.579351 
L 432.905903 618.046067 
L 438.694492 624.263466 
L 444.524223 630.199239 
L 450.450517 635.913861 
L 456.349629 641.296086 
L 462.283629 646.413921 
L 468.329189 651.333114 
L 474.361114 655.953803 
L 480.351682 660.266326 
L 486.38713 664.338863 
L 492.449157 668.159359 
L 498.401555 671.651321 
L 504.339972 674.88157 
L 510.247258 677.845216 
L 516.106777 680.539405 
L 521.902562 682.963259 
L 527.619451 685.117803 
L 533.368435 687.045271 
L 539.011637 688.700539 
L 544.536134 690.089423 
L 549.930197 691.219259 
L 555.308133 692.116941 
L 560.534429 692.763346 
L 565.600446 693.16948 
L 570.620692 693.348979 
L 575.464477 693.302088 
L 580.245173 693.033033 
L 584.836395 692.554681 
L 589.349568 691.861572 
L 593.663542 690.978859 
L 597.887012 689.891246 
L 602.012084 688.599079 
L 606.031045 687.103273 
L 609.835139 685.452562 
L 613.524822 683.61206 
L 617.093643 681.584137 
L 620.535428 679.371655 
L 623.8443 676.977954 
L 624.974281 676.094597 
L 624.974281 676.094597 
" style="fill:none;stroke:#da5c55;stroke-linecap:square;stroke-width:3;"/>
   </g>
   <g id="line2d_11">
    <path clip-path="url(#p90f1fb14a5)" d="M 483.469813 744.239557 
L 487.423476 743.221729 
L 491.32057 741.986244 
L 495.15476 740.535424 
L 498.91989 738.872125 
L 502.61001 736.999733 
L 506.21939 734.922141 
L 509.836529 732.579416 
L 513.357089 730.030153 
L 516.775754 727.280128 
L 520.087547 724.335592 
L 523.370526 721.118341 
L 526.531495 717.710958 
L 529.642433 714.027208 
L 532.61668 710.161174 
L 535.519789 706.019318 
L 538.272449 701.706652 
L 540.933524 697.123157 
L 543.48929 692.26937 
L 545.87277 687.265618 
L 548.132337 682.004207 
L 550.255329 676.490321 
L 552.229573 670.730995 
L 554.007072 664.863769 
L 555.622242 658.774549 
L 557.065346 652.474974 
L 558.327661 645.978442 
L 559.401617 639.30004 
L 560.296039 632.32208 
L 560.982611 625.19699 
L 561.458291 617.945412 
L 561.724524 610.455777 
L 561.771275 602.886379 
L 561.596516 595.131055 
L 561.194373 587.220425 
L 560.562091 579.187407 
L 559.700195 571.066716 
L 558.594906 562.773923 
L 557.245648 554.356139 
L 555.656831 545.862382 
L 553.837795 537.342447 
L 551.750022 528.637943 
L 549.431307 519.924713 
L 546.845252 511.076408 
L 544.013255 502.182236 
L 540.934164 493.24422 
L 537.61137 484.279158 
L 534.052155 475.315503 
L 530.321781 466.518856 
L 526.476133 458.013534 
L 522.608922 449.993977 
L 518.816977 442.636472 
L 515.178202 436.052414 
L 511.685302 430.182416 
L 508.309301 424.936483 
L 505.029349 420.243811 
L 501.80632 416.013842 
L 498.580456 412.14456 
L 495.35456 408.620044 
L 492.084312 405.375281 
L 488.765628 402.395464 
L 485.441709 399.707347 
L 482.26142 397.413515 
L 479.557929 395.722308 
L 477.608911 394.745685 
L 476.4436 394.357263 
M 337.991974 425.957944 
L 337.144674 426.775412 
L 336.029947 428.182392 
L 334.575189 430.39891 
L 332.840094 433.459909 
L 331.028378 437.110437 
L 329.299607 441.097258 
L 327.717621 445.309049 
L 326.300565 449.7152 
L 325.034384 454.382307 
L 323.917565 459.357878 
L 322.948728 464.706399 
L 322.134279 470.462451 
L 321.469044 476.775427 
L 320.965202 483.72384 
L 320.639262 491.348666 
L 320.508995 499.696799 
L 320.593846 508.612266 
L 320.904384 517.938025 
L 321.446069 527.521794 
L 322.213464 537.149902 
L 323.19085 546.636533 
L 324.383229 556.044808 
L 325.776819 565.273638 
L 327.367752 574.322228 
L 329.156249 583.207368 
L 331.122238 591.853141 
L 333.268888 600.300084 
L 335.608497 608.604293 
L 338.126207 616.71755 
L 340.803178 624.594923 
L 343.663103 632.314941 
L 346.642759 639.723687 
L 349.768563 646.909364 
L 353.081067 653.964474 
L 356.510801 660.744725 
L 360.036983 667.229384 
L 363.707727 673.517296 
L 367.511772 679.589658 
L 371.359592 685.318457 
L 375.308369 690.805393 
L 379.344772 696.038621 
L 383.455051 701.008351 
L 387.625203 705.706865 
L 391.84112 710.128507 
L 396.184478 714.359487 
L 400.550633 718.299325 
L 404.925419 721.947656 
L 409.295085 725.305999 
L 413.750948 728.448182 
L 418.179214 731.298177 
L 422.567322 733.862154 
L 427.012525 736.20208 
L 431.39697 738.261472 
L 435.820967 740.093328 
L 440.165064 741.654405 
L 444.532022 742.988127 
L 448.801773 744.064594 
L 453.078886 744.917183 
L 457.356097 745.542783 
L 461.626061 745.93887 
L 465.769648 746.102165 
L 469.892502 746.044823 
L 473.987782 745.766181 
L 478.048682 745.266138 
L 482.068461 744.545154 
L 483.469813 744.239557 
L 483.469813 744.239557 
" style="fill:none;stroke:#eba302;stroke-linecap:square;stroke-width:3;"/>
   </g>
   <g id="line2d_12">
    <path clip-path="url(#p90f1fb14a5)" d="M 326.411702 744.239557 
L 330.415449 745.037956 
L 334.462666 745.615708 
L 338.546639 745.972156 
L 342.660583 746.107205 
L 346.797666 746.021321 
L 350.951039 745.715527 
L 355.226438 745.174222 
L 359.504437 744.40493 
L 363.777739 743.410546 
L 368.039148 742.194544 
L 372.392922 740.720331 
L 376.719265 739.021878 
L 381.120442 737.05272 
L 385.477556 734.860021 
L 389.89025 732.38795 
L 394.241507 729.696706 
L 398.627757 726.721718 
L 403.036402 723.457512 
L 407.354889 719.98344 
L 411.67353 716.223462 
L 415.978665 712.176754 
L 420.256276 707.844373 
L 424.403441 703.329412 
L 428.500672 698.544011 
L 432.534147 693.49443 
L 436.490193 688.188954 
L 440.355444 682.637894 
L 444.188914 676.739044 
L 447.898955 670.617453 
L 451.473869 664.290396 
L 454.963368 657.657983 
L 458.289727 650.858475 
L 461.497184 643.795345 
L 464.567159 636.49363 
L 467.482889 628.981795 
L 470.229783 621.291341 
L 472.83206 613.340226 
L 475.26876 605.170644 
L 477.522589 596.828672 
L 479.580355 588.363225 
L 481.47608 579.614887 
L 483.167518 570.758485 
L 484.676699 561.664391 
L 485.984195 552.422261 
L 487.088089 543.03342 
L 487.98415 533.514472 
L 488.666592 523.894212 
L 489.122363 514.350159 
L 489.347875 505.018564 
L 489.343194 496.115273 
L 489.119071 487.841127 
L 488.697364 480.330291 
L 488.097266 473.526092 
L 487.331719 467.334878 
L 486.412659 461.683809 
L 485.344125 456.474318 
L 484.11654 451.588566 
L 482.739339 447.013423 
L 481.200797 442.671085 
L 479.50366 438.54644 
L 477.675243 434.682336 
L 475.805157 431.235789 
L 474.103184 428.539063 
L 472.77092 426.813508 
L 471.889541 425.957944 
M 333.437915 394.357263 
L 332.319838 394.726147 
L 330.705038 395.510131 
L 328.432635 396.875949 
L 325.54125 398.880984 
L 322.325046 401.383922 
L 319.03766 404.225837 
L 315.784913 407.334132 
L 312.596432 410.689099 
L 309.430661 414.344642 
L 306.265622 418.342907 
L 303.072094 422.741395 
L 299.840844 427.574043 
L 296.50239 432.973203 
L 293.03364 439.014898 
L 289.431691 445.743209 
L 285.692205 453.208096 
L 281.900377 461.27747 
L 278.133867 469.814425 
L 274.463667 478.684132 
L 270.977586 487.691717 
L 267.742085 496.662948 
L 264.734284 505.656865 
L 261.985627 514.57641 
L 259.492971 523.419188 
L 257.249234 532.200422 
L 255.269268 540.843005 
L 253.538342 549.384834 
L 252.043196 557.881786 
L 250.791364 566.283972 
L 249.785367 574.542733 
L 249.01248 582.739105 
L 248.482523 590.706979 
L 248.181027 598.537285 
L 248.104392 606.330961 
L 248.252635 613.927862 
L 248.616028 621.300291 
L 249.19503 628.55818 
L 249.987658 635.679703 
L 250.968791 642.510678 
L 252.145823 649.167547 
L 253.511884 655.633852 
L 255.058833 661.894807 
L 256.777401 667.937383 
L 258.657332 673.750363 
L 260.73481 679.446857 
L 262.959148 684.890932 
L 265.317742 690.076113 
L 267.797544 694.997803 
L 270.448797 699.762138 
L 273.20196 704.251247 
L 276.043041 708.465239 
L 279.032775 712.502141 
L 282.089486 716.259928 
L 285.280557 719.829875 
L 288.517127 723.121189 
L 291.87294 726.217583 
L 295.252791 729.040022 
L 298.736412 731.663947 
L 302.318609 734.083406 
L 305.993858 736.292936 
L 309.65625 738.237895 
L 313.395692 739.975071 
L 317.20631 741.500899 
L 321.082015 742.812334 
L 325.016535 743.906867 
L 326.411702 744.239557 
L 326.411702 744.239557 
" style="fill:none;stroke:#9ca538;stroke-linecap:square;stroke-width:3;"/>
   </g>
   <g id="line2d_13">
    <path clip-path="url(#p90f1fb14a5)" d="M 184.907235 676.094597 
L 188.168073 678.55109 
L 191.563812 680.827648 
L 195.088688 682.920767 
L 198.736627 684.827415 
L 202.501274 686.545049 
L 206.376013 688.071619 
L 210.462878 689.438946 
L 214.651006 690.601992 
L 218.932564 691.560199 
L 223.299565 692.313575 
L 227.861817 692.874388 
L 232.496648 693.221264 
L 237.316358 693.356713 
L 242.193358 693.271641 
L 247.241649 692.958977 
L 252.329683 692.42219 
L 257.572357 691.644941 
L 262.960695 690.616832 
L 268.358861 689.360523 
L 273.881215 687.846688 
L 279.515808 686.068658 
L 285.249552 684.021303 
L 290.944986 681.752852 
L 296.712772 679.219076 
L 302.537739 676.41962 
L 308.403973 673.356016 
L 314.294958 670.031753 
L 320.30821 666.380353 
L 326.3069 662.474716 
L 332.272994 658.325332 
L 338.29462 653.863771 
L 344.241762 649.18088 
L 350.196158 644.208883 
L 356.130205 638.962277 
L 362.016451 633.459435 
L 367.828079 627.722409 
L 373.622509 621.687787 
L 379.362549 615.384493 
L 385.012625 608.846535 
L 390.539628 602.112262 
L 396.043378 595.052806 
L 401.40996 587.807351 
L 406.715465 580.268665 
L 411.903488 572.509095 
L 416.971728 564.529003 
L 421.909167 556.341513 
L 426.698101 547.970059 
L 431.249746 539.568916 
L 435.501752 531.259285 
L 439.360528 523.235666 
L 442.748617 515.683675 
L 445.627502 508.733674 
L 448.039064 502.34293 
L 450.035598 496.43268 
L 451.659459 490.942478 
L 452.957057 485.785269 
L 453.97089 480.850729 
L 454.715155 476.131123 
L 455.213046 471.551264 
L 455.473595 467.098726 
L 455.50282 462.823968 
L 455.313332 458.907337 
L 454.949972 455.739212 
L 454.498334 453.606494 
L 454.075455 452.453241 
M 343.045871 363.910102 
L 341.878466 363.757339 
L 340.083423 363.763049 
L 337.443453 364.00765 
L 333.968453 364.559599 
L 329.984769 365.419209 
L 325.789876 366.553344 
L 321.510613 367.942506 
L 317.182225 369.581797 
L 312.743884 371.501751 
L 308.1575 373.730805 
L 303.371799 376.308085 
L 298.363735 379.260164 
L 293.013285 382.676138 
L 287.266656 386.614483 
L 281.102107 391.113654 
L 274.494053 396.216783 
L 267.576565 401.841825 
L 260.47901 407.899129 
L 253.323852 414.298018 
L 246.274757 420.901018 
L 239.4672 427.579987 
L 232.854951 434.37819 
L 226.508451 441.221824 
L 220.425908 448.10737 
L 214.594336 455.045467 
L 209.060572 461.97309 
L 203.794901 468.917992 
L 198.761131 475.924761 
L 193.987698 482.951719 
L 189.497985 489.956121 
L 185.245365 497.005453 
L 181.310759 503.95432 
L 177.641678 510.878368 
L 174.191083 517.866977 
L 171.028474 524.775868 
L 168.157102 531.575867 
L 165.529685 538.366219 
L 163.153905 545.126398 
L 161.074026 551.706591 
L 159.246189 558.214918 
L 157.671342 564.633569 
L 156.348569 570.945691 
L 155.275169 577.135522 
L 154.446771 583.188508 
L 153.846898 589.222255 
L 153.488861 595.092302 
L 153.364116 600.787344 
L 153.462899 606.297579 
L 153.784428 611.740432 
L 154.31719 616.979532 
L 155.048533 622.008907 
L 155.990644 626.943227 
L 157.114203 631.655134 
L 158.440317 636.256098 
L 159.928319 640.625764 
L 161.608326 644.871552 
L 163.428857 648.880944 
L 165.429012 652.756506 
L 167.606696 656.490619 
L 169.959302 660.075968 
L 172.415117 663.417368 
L 175.030506 666.604993 
L 177.801722 669.633081 
L 180.724601 672.496249 
L 183.794581 675.189512 
L 184.907235 676.094597 
L 184.907235 676.094597 
" style="fill:none;stroke:#1bb7b2;stroke-linecap:square;stroke-width:3;"/>
   </g>
   <g id="line2d_14">
    <path clip-path="url(#p90f1fb14a5)" d="M 86.983104 553.301621 
L 88.855186 556.92967 
L 90.926879 560.454134 
L 93.194513 563.869355 
L 95.653929 567.169967 
L 98.300505 570.350921 
L 101.129171 573.407499 
L 104.218047 576.412643 
L 107.486793 579.277672 
L 110.928594 581.998685 
L 114.536247 584.572224 
L 118.403367 587.056986 
L 122.428702 589.380489 
L 126.712341 591.593717 
L 131.143278 593.633121 
L 135.827291 595.541792 
L 140.644354 597.265779 
L 145.705076 598.840212 
L 151.00588 600.251831 
L 156.414552 601.462112 
L 162.046849 602.494253 
L 167.894901 603.337062 
L 173.94914 603.980237 
L 180.064793 604.40759 
L 186.360752 604.627285 
L 192.823504 604.63242 
L 199.438046 604.417472 
L 206.187984 603.978417 
L 213.19002 603.297672 
L 220.289246 602.381549 
L 227.464861 601.231674 
L 234.825957 599.824632 
L 242.215977 598.185861 
L 249.737972 596.289762 
L 257.36078 594.13742 
L 265.051698 591.733477 
L 272.776997 589.086166 
L 280.615922 586.163269 
L 288.522416 582.974707 
L 296.449672 579.535686 
L 304.351221 575.866393 
L 312.372912 571.89403 
L 320.35172 567.694574 
L 328.402728 563.204424 
L 336.443727 558.464292 
L 344.472485 553.473505 
L 352.473383 548.239106 
L 360.420301 542.774527 
L 368.166311 537.180244 
L 375.60265 531.538401 
L 382.560604 525.98363 
L 388.889854 520.649558 
L 394.499132 515.636925 
L 399.444714 510.925401 
L 403.80789 506.466713 
L 407.653048 502.224779 
L 411.059772 498.141301 
L 414.11422 494.13532 
L 416.832541 490.206026 
L 419.268252 486.295742 
L 421.434882 482.397193 
L 423.31596 478.558449 
L 424.8446 474.94747 
L 425.891822 471.935433 
L 426.410262 469.817961 
L 426.529639 468.595436 
M 364.912868 340.646894 
L 363.927354 340.002741 
L 362.307599 339.229045 
L 359.82294 338.303983 
L 356.452592 337.293526 
L 352.490445 336.339553 
L 348.218895 335.541276 
L 343.760677 334.936166 
L 339.149673 334.535099 
L 334.317829 334.339194 
L 329.218489 334.357544 
L 323.788481 334.603156 
L 317.995513 335.089969 
L 311.692788 335.846182 
L 304.80647 336.901139 
L 297.300286 338.280055 
L 289.132471 340.010688 
L 280.459415 342.07729 
L 271.436574 344.455219 
L 262.213625 347.115912 
L 252.997676 350.006522 
L 243.966383 353.070377 
L 235.059323 356.326399 
L 226.371982 359.738657 
L 217.904274 363.303203 
L 209.639882 367.023988 
L 201.64835 370.864551 
L 193.890864 374.837002 
L 186.315471 378.965812 
L 178.965873 383.225767 
L 171.881685 387.588501 
L 164.991616 392.094588 
L 158.431659 396.648139 
L 152.121699 401.294536 
L 145.980577 406.093898 
L 140.133509 410.946389 
L 134.596083 415.827135 
L 129.282639 420.805037 
L 124.209003 425.864935 
L 119.480059 430.89106 
L 115.009377 435.96179 
L 110.805541 441.061495 
L 106.875036 446.17459 
L 103.222269 451.285705 
L 99.849616 456.379828 
L 96.691204 461.555771 
L 93.821707 466.689154 
L 91.238329 471.766085 
L 88.936528 476.773496 
L 86.86465 481.816843 
L 85.071492 486.768266 
L 83.548245 491.616894 
L 82.256137 496.471329 
L 81.224009 501.204104 
L 80.422513 505.924809 
L 79.867228 510.507362 
L 79.538685 515.061613 
L 79.439316 519.463849 
L 79.559851 523.823444 
L 79.901705 528.132626 
L 80.465705 532.383671 
L 81.228539 536.459706 
L 82.201864 540.466432 
L 83.384805 544.39703 
L 84.775946 548.244845 
L 86.373339 552.003406 
L 86.983104 553.301621 
L 86.983104 553.301621 
" style="fill:none;stroke:#6098dd;stroke-linecap:square;stroke-width:3;"/>
   </g>
   <g id="text_1">
    <!-- 1 -->
    <defs>
     <path d="M 12.40625 8.296875 
L 28.515625 8.296875 
L 28.515625 63.921875 
L 10.984375 60.40625 
L 10.984375 69.390625 
L 28.421875 72.90625 
L 38.28125 72.90625 
L 38.28125 8.296875 
L 54.390625 8.296875 
L 54.390625 0 
L 12.40625 0 
z
" id="DejaVuSans-49"/>
    </defs>
    <g transform="translate(7.2 408.459411)scale(0.3 -0.3)">
     <use xlink:href="#DejaVuSans-49"/>
    </g>
   </g>
   <g id="text_2">
    <!-- 2 -->
    <defs>
     <path d="M 19.1875 8.296875 
L 53.609375 8.296875 
L 53.609375 0 
L 7.328125 0 
L 7.328125 8.296875 
Q 12.9375 14.109375 22.625 23.890625 
Q 32.328125 33.6875 34.8125 36.53125 
Q 39.546875 41.84375 41.421875 45.53125 
Q 43.3125 49.21875 43.3125 52.78125 
Q 43.3125 58.59375 39.234375 62.25 
Q 35.15625 65.921875 28.609375 65.921875 
Q 23.96875 65.921875 18.8125 64.3125 
Q 13.671875 62.703125 7.8125 59.421875 
L 7.8125 69.390625 
Q 13.765625 71.78125 18.9375 73 
Q 24.125 74.21875 28.421875 74.21875 
Q 39.75 74.21875 46.484375 68.546875 
Q 53.21875 62.890625 53.21875 53.421875 
Q 53.21875 48.921875 51.53125 44.890625 
Q 49.859375 40.875 45.40625 35.40625 
Q 44.1875 33.984375 37.640625 27.21875 
Q 31.109375 20.453125 19.1875 8.296875 
z
" id="DejaVuSans-50"/>
    </defs>
    <g transform="translate(45.643589 240.027041)scale(0.3 -0.3)">
     <use xlink:href="#DejaVuSans-50"/>
    </g>
   </g>
   <g id="text_3">
    <!-- 3 -->
    <defs>
     <path d="M 40.578125 39.3125 
Q 47.65625 37.796875 51.625 33 
Q 55.609375 28.21875 55.609375 21.1875 
Q 55.609375 10.40625 48.1875 4.484375 
Q 40.765625 -1.421875 27.09375 -1.421875 
Q 22.515625 -1.421875 17.65625 -0.515625 
Q 12.796875 0.390625 7.625 2.203125 
L 7.625 11.71875 
Q 11.71875 9.328125 16.59375 8.109375 
Q 21.484375 6.890625 26.8125 6.890625 
Q 36.078125 6.890625 40.9375 10.546875 
Q 45.796875 14.203125 45.796875 21.1875 
Q 45.796875 27.640625 41.28125 31.265625 
Q 36.765625 34.90625 28.71875 34.90625 
L 20.21875 34.90625 
L 20.21875 43.015625 
L 29.109375 43.015625 
Q 36.375 43.015625 40.234375 45.921875 
Q 44.09375 48.828125 44.09375 54.296875 
Q 44.09375 59.90625 40.109375 62.90625 
Q 36.140625 65.921875 28.71875 65.921875 
Q 24.65625 65.921875 20.015625 65.03125 
Q 15.375 64.15625 9.8125 62.3125 
L 9.8125 71.09375 
Q 15.4375 72.65625 20.34375 73.4375 
Q 25.25 74.21875 29.59375 74.21875 
Q 40.828125 74.21875 47.359375 69.109375 
Q 53.90625 64.015625 53.90625 55.328125 
Q 53.90625 49.265625 50.4375 45.09375 
Q 46.96875 40.921875 40.578125 39.3125 
z
" id="DejaVuSans-51"/>
    </defs>
    <g transform="translate(153.360132 104.954769)scale(0.3 -0.3)">
     <use xlink:href="#DejaVuSans-51"/>
    </g>
   </g>
   <g id="text_4">
    <!-- 4 -->
    <defs>
     <path d="M 37.796875 64.3125 
L 12.890625 25.390625 
L 37.796875 25.390625 
z
M 35.203125 72.90625 
L 47.609375 72.90625 
L 47.609375 25.390625 
L 58.015625 25.390625 
L 58.015625 17.1875 
L 47.609375 17.1875 
L 47.609375 0 
L 37.796875 0 
L 37.796875 17.1875 
L 4.890625 17.1875 
L 4.890625 26.703125 
z
" id="DejaVuSans-52"/>
    </defs>
    <g transform="translate(309.015047 29.995312)scale(0.3 -0.3)">
     <use xlink:href="#DejaVuSans-52"/>
    </g>
   </g>
   <g id="text_5">
    <!-- 5 -->
    <defs>
     <path d="M 10.796875 72.90625 
L 49.515625 72.90625 
L 49.515625 64.59375 
L 19.828125 64.59375 
L 19.828125 46.734375 
Q 21.96875 47.46875 24.109375 47.828125 
Q 26.265625 48.1875 28.421875 48.1875 
Q 40.625 48.1875 47.75 41.5 
Q 54.890625 34.8125 54.890625 23.390625 
Q 54.890625 11.625 47.5625 5.09375 
Q 40.234375 -1.421875 26.90625 -1.421875 
Q 22.3125 -1.421875 17.546875 -0.640625 
Q 12.796875 0.140625 7.71875 1.703125 
L 7.71875 11.625 
Q 12.109375 9.234375 16.796875 8.0625 
Q 21.484375 6.890625 26.703125 6.890625 
Q 35.15625 6.890625 40.078125 11.328125 
Q 45.015625 15.765625 45.015625 23.390625 
Q 45.015625 31 40.078125 35.4375 
Q 35.15625 39.890625 26.703125 39.890625 
Q 22.75 39.890625 18.8125 39.015625 
Q 14.890625 38.140625 10.796875 36.28125 
z
" id="DejaVuSans-53"/>
    </defs>
    <g transform="translate(481.778968 29.995312)scale(0.3 -0.3)">
     <use xlink:href="#DejaVuSans-53"/>
    </g>
   </g>
   <g id="text_6">
    <!-- 6 -->
    <defs>
     <path d="M 33.015625 40.375 
Q 26.375 40.375 22.484375 35.828125 
Q 18.609375 31.296875 18.609375 23.390625 
Q 18.609375 15.53125 22.484375 10.953125 
Q 26.375 6.390625 33.015625 6.390625 
Q 39.65625 6.390625 43.53125 10.953125 
Q 47.40625 15.53125 47.40625 23.390625 
Q 47.40625 31.296875 43.53125 35.828125 
Q 39.65625 40.375 33.015625 40.375 
z
M 52.59375 71.296875 
L 52.59375 62.3125 
Q 48.875 64.0625 45.09375 64.984375 
Q 41.3125 65.921875 37.59375 65.921875 
Q 27.828125 65.921875 22.671875 59.328125 
Q 17.53125 52.734375 16.796875 39.40625 
Q 19.671875 43.65625 24.015625 45.921875 
Q 28.375 48.1875 33.59375 48.1875 
Q 44.578125 48.1875 50.953125 41.515625 
Q 57.328125 34.859375 57.328125 23.390625 
Q 57.328125 12.15625 50.6875 5.359375 
Q 44.046875 -1.421875 33.015625 -1.421875 
Q 20.359375 -1.421875 13.671875 8.265625 
Q 6.984375 17.96875 6.984375 36.375 
Q 6.984375 53.65625 15.1875 63.9375 
Q 23.390625 74.21875 37.203125 74.21875 
Q 40.921875 74.21875 44.703125 73.484375 
Q 48.484375 72.75 52.59375 71.296875 
z
" id="DejaVuSans-54"/>
    </defs>
    <g transform="translate(637.433883 104.954769)scale(0.3 -0.3)">
     <use xlink:href="#DejaVuSans-54"/>
    </g>
   </g>
   <g id="text_7">
    <!-- 7 -->
    <defs>
     <path d="M 8.203125 72.90625 
L 55.078125 72.90625 
L 55.078125 68.703125 
L 28.609375 0 
L 18.3125 0 
L 43.21875 64.59375 
L 8.203125 64.59375 
z
" id="DejaVuSans-55"/>
    </defs>
    <g transform="translate(745.150426 240.027041)scale(0.3 -0.3)">
     <use xlink:href="#DejaVuSans-55"/>
    </g>
   </g>
   <g id="text_8">
    <!-- 1' -->
    <defs>
     <path d="M 17.921875 72.90625 
L 17.921875 45.796875 
L 9.625 45.796875 
L 9.625 72.90625 
z
" id="DejaVuSans-39"/>
    </defs>
    <g transform="translate(779.471359 408.459411)scale(0.3 -0.3)">
     <use xlink:href="#DejaVuSans-49"/>
     <use x="63.623047" xlink:href="#DejaVuSans-39"/>
    </g>
   </g>
   <g id="text_9">
    <!-- 2' -->
    <g transform="translate(741.02777 576.89178)scale(0.3 -0.3)">
     <use xlink:href="#DejaVuSans-50"/>
     <use x="63.623047" xlink:href="#DejaVuSans-39"/>
    </g>
   </g>
   <g id="text_10">
    <!-- 3' -->
    <g transform="translate(633.311227 711.964053)scale(0.3 -0.3)">
     <use xlink:href="#DejaVuSans-51"/>
     <use x="63.623047" xlink:href="#DejaVuSans-39"/>
    </g>
   </g>
   <g id="text_11">
    <!-- 4' -->
    <g transform="translate(477.656312 786.923509)scale(0.3 -0.3)">
     <use xlink:href="#DejaVuSans-52"/>
     <use x="63.623047" xlink:href="#DejaVuSans-39"/>
    </g>
   </g>
   <g id="text_12">
    <!-- 5' -->
    <g transform="translate(304.892391 786.923509)scale(0.3 -0.3)">
     <use xlink:href="#DejaVuSans-53"/>
     <use x="63.623047" xlink:href="#DejaVuSans-39"/>
    </g>
   </g>
   <g id="text_13">
    <!-- 6' -->
    <g transform="translate(149.237476 711.964053)scale(0.3 -0.3)">
     <use xlink:href="#DejaVuSans-54"/>
     <use x="63.623047" xlink:href="#DejaVuSans-39"/>
    </g>
   </g>
   <g id="text_14">
    <!-- 7' -->
    <g transform="translate(41.520933 576.89178)scale(0.3 -0.3)">
     <use xlink:href="#DejaVuSans-55"/>
     <use x="63.623047" xlink:href="#DejaVuSans-39"/>
    </g>
   </g>
  </g>
 </g>
 <defs>
  <clipPath id="p90f1fb14a5">
   <rect height="761.04" width="776.394015" x="16.74375" y="19.661286"/>
  </clipPath>
 </defs>
</svg>
