<?xml version="1.0" encoding="utf-8" standalone="no"?>
<!DOCTYPE svg PUBLIC "-//W3C//DTD SVG 1.1//EN"
  "http://www.w3.org/Graphics/SVG/1.1/DTD/svg11.dtd">
<!-- Created with matplotlib (https://matplotlib.org/) -->
<svg height="804.474377pt" version="1.1" viewBox="0 0 798.650158 804.474377" width="798.650158pt" xmlns="http://www.w3.org/2000/svg" xmlns:xlink="http://www.w3.org/1999/xlink">
 <defs>
  <style type="text/css">
*{stroke-linecap:butt;stroke-linejoin:round;}
  </style>
 </defs>
 <g id="figure_1">
  <g id="patch_1">
   <path d="M 0 804.474377 
L 798.650158 804.474377 
L 798.650158 0 
L 0 0 
z
" style="fill:none;"/>
  </g>
  <g id="axes_1">
   <g id="patch_2">
    <path d="M 16.743751 782.757188 
L 777.783751 782.757188 
L 777.783751 21.717188 
L 16.743751 21.717188 
z
" style="fill:none;"/>
   </g>
   <g id="matplotlib.axis_1"/>
   <g id="matplotlib.axis_2"/>
   <g id="line2d_1">
    <path clip-path="url(#p32f75c84aa)" d="M 358.076549 349.954636 
L 353.242764 345.018423 
L 348.324724 340.257384 
L 343.327646 335.674541 
L 338.256857 331.272921 
L 333.117784 327.055566 
L 327.915958 323.025541 
L 322.657013 319.185944 
L 317.346674 315.539914 
L 311.990764 312.090638 
L 306.595187 308.841355 
L 301.165928 305.79536 
L 295.709035 302.956002 
L 290.230612 300.326678 
L 284.736794 297.910826 
L 279.233732 295.711904 
L 273.727562 293.733373 
L 268.224378 291.978657 
L 262.730188 290.451106 
L 257.250878 289.153945 
L 251.792157 288.090208 
L 246.359504 287.262663 
L 240.958104 286.673728 
L 235.592787 286.325372 
L 230.267954 286.219014 
L 224.987512 286.355403 
L 219.754802 286.734513 
L 214.572545 287.355427 
L 209.442789 288.21624 
L 204.366878 289.313974 
L 199.345449 290.644527 
L 194.378449 292.202654 
L 189.465197 293.982011 
L 184.604479 295.975242 
L 179.794694 298.17416 
L 175.034027 300.569997 
L 170.320673 303.153742 
L 164.493175 306.634292 
L 158.735274 310.37917 
L 153.046882 314.376242 
L 147.430156 318.61845 
L 141.8895 323.105023 
L 136.430973 327.841547 
L 131.06099 332.837948 
L 125.784404 338.10327 
L 120.602347 343.636388 
L 115.510749 349.412942 
L 109.50773 356.575734 
L 95.894088 373.030718 
L 91.19307 378.26745 
L 87.525082 382.039945 
L 83.962727 385.392582 
L 80.527607 388.309674 
L 77.239407 390.800926 
L 74.114741 392.895437 
L 71.166855 394.634535 
L 67.745781 396.380191 
L 64.630888 397.735551 
L 60.802496 399.133845 
L 56.440353 400.444766 
L 51.823852 401.811196 
L 51.35002 402.164052 
L 51.377103 402.359274 
L 51.715569 402.610713 
L 52.757246 403.004122 
L 56.440353 404.029611 
L 60.802496 405.340532 
L 64.630888 406.738826 
L 67.745781 408.094186 
L 71.166855 409.839842 
L 74.114741 411.578939 
L 77.239407 413.673451 
L 80.527607 416.164703 
L 83.962727 419.081795 
L 87.525082 422.434432 
L 91.19307 426.206927 
L 94.945206 430.355461 
L 99.725513 435.961733 
L 118.555261 458.554098 
L 123.700342 464.189309 
L 128.93898 469.562861 
L 134.272024 474.666061 
L 139.695864 479.505236 
L 145.204453 484.090801 
L 150.791392 488.430476 
L 156.451508 492.526116 
L 162.181715 496.373078 
L 167.981233 499.961073 
L 173.85132 503.275709 
L 178.599995 505.719368 
L 183.397327 507.968354 
L 188.245149 510.013802 
L 193.145137 511.847353 
L 198.098613 513.461424 
L 203.106404 514.849406 
L 208.168726 516.005774 
L 213.28512 516.92614 
L 218.454417 517.607248 
L 223.674742 518.046932 
L 228.943541 518.244037 
L 234.257622 518.198323 
L 239.613212 517.910358 
L 245.006028 517.381403 
L 250.431342 516.613299 
L 255.884049 515.608362 
L 261.35874 514.369282 
L 266.849755 512.899033 
L 272.35125 511.200798 
L 277.857242 509.277901 
L 283.361655 507.133754 
L 288.85836 504.77181 
L 294.341209 502.19553 
L 299.804058 499.40836 
L 305.240795 496.413709 
L 310.645356 493.214937 
L 316.01174 489.815353 
L 321.33402 486.218211 
L 326.606355 482.42671 
L 331.822992 478.444 
L 336.978276 474.273189 
L 342.066649 469.917349 
L 347.082658 465.379528 
L 352.020951 460.662755 
L 356.876283 455.770051 
L 358.076549 454.519741 
L 358.076549 454.519741 
" style="fill:none;stroke:#8d5ccd;stroke-linecap:square;stroke-width:3;"/>
   </g>
   <g id="line2d_2">
    <path clip-path="url(#p32f75c84aa)" d="M 389.467915 337.365569 
L 387.749841 330.67379 
L 385.871213 324.091589 
L 383.835038 317.624192 
L 381.644415 311.276883 
L 379.302525 305.05501 
L 376.812625 298.963993 
L 374.178043 293.009332 
L 371.40217 287.196608 
L 368.488453 281.531492 
L 365.440388 276.019742 
L 362.261509 270.667204 
L 358.955381 265.479801 
L 355.525588 260.463528 
L 351.975729 255.624429 
L 348.309398 250.968577 
L 344.530181 246.502034 
L 340.641642 242.230812 
L 336.647309 238.16082 
L 332.550668 234.297791 
L 328.355145 230.647207 
L 324.064102 227.214205 
L 319.68082 224.003472 
L 315.208497 221.019129 
L 310.650236 218.264603 
L 306.009044 215.742499 
L 301.28783 213.454463 
L 296.489407 211.401062 
L 291.616501 209.58167 
L 286.671766 207.99438 
L 281.657805 206.635958 
L 276.577193 205.501836 
L 271.432513 204.586177 
L 266.226393 203.882008 
L 260.961537 203.381434 
L 255.640761 203.075956 
L 250.267003 202.956868 
L 243.479967 203.057364 
L 236.62104 203.421573 
L 229.696211 204.038942 
L 222.71088 204.904439 
L 215.669245 206.019598 
L 208.573759 207.392284 
L 201.425018 209.034303 
L 194.222699 210.955913 
L 186.968347 213.156705 
L 179.670617 215.613548 
L 170.890454 218.815199 
L 150.873202 226.258812 
L 144.183635 228.443445 
L 139.120817 229.876528 
L 134.359408 230.998819 
L 129.925962 231.807535 
L 125.83267 232.320922 
L 122.079375 232.57249 
L 118.656882 232.60465 
L 114.821317 232.405895 
L 111.44606 232.022225 
L 107.431428 231.318986 
L 102.998242 230.273206 
L 98.317019 229.148318 
L 97.73024 229.216985 
L 97.656084 229.399593 
L 97.823485 229.786579 
L 98.528899 230.64812 
L 101.205819 233.377773 
L 104.328085 236.694135 
L 106.944423 239.819289 
L 108.964319 242.550512 
L 111.054228 245.772832 
L 112.737624 248.752877 
L 114.396408 252.12911 
L 115.998447 255.930698 
L 117.514802 260.174533 
L 118.923573 264.85918 
L 120.213897 269.960251 
L 121.389074 275.429054 
L 122.725806 282.674382 
L 127.736663 311.654818 
L 129.374829 319.107594 
L 131.224847 326.380545 
L 133.291798 333.466568 
L 135.569394 340.369337 
L 138.047189 347.094847 
L 140.715783 353.646586 
L 143.569767 360.023572 
L 146.608791 366.220242 
L 149.837324 372.227296 
L 153.26365 378.032898 
L 156.154294 382.523506 
L 159.184412 386.869851 
L 162.360025 391.065173 
L 165.686763 395.103068 
L 169.169564 398.977633 
L 172.812448 402.683556 
L 176.618363 406.216161 
L 180.589107 409.571418 
L 184.725295 412.745924 
L 189.026388 415.736864 
L 193.490749 418.541961 
L 198.115735 421.159412 
L 202.897795 423.587822 
L 207.832588 425.826142 
L 212.915099 427.873601 
L 218.139751 429.729654 
L 223.500512 431.393924 
L 228.990995 432.866159 
L 234.604547 434.146192 
L 240.334324 435.23391 
L 246.173359 436.129231 
L 252.114618 436.83208 
L 258.151044 437.342381 
L 264.275595 437.660045 
L 270.481273 437.784969 
L 276.761146 437.717032 
L 283.108363 437.456098 
L 289.516164 437.002022 
L 295.97789 436.354653 
L 302.486986 435.513843 
L 309.036998 434.479457 
L 315.621578 433.251376 
L 322.23448 431.829512 
L 328.869554 430.213813 
L 335.520747 428.404274 
L 337.185362 427.921606 
L 337.185362 427.921606 
" style="fill:none;stroke:#b43a75;stroke-linecap:square;stroke-width:3;"/>
   </g>
   <g id="line2d_3">
    <path clip-path="url(#p32f75c84aa)" d="M 422.948168 342.1588 
L 424.806162 335.504513 
L 426.470323 328.864845 
L 427.940642 322.245828 
L 429.217162 315.653585 
L 430.299962 309.09434 
L 431.189154 302.574415 
L 431.884869 296.100236 
L 432.387255 289.678333 
L 432.69646 283.31534 
L 432.812633 277.017992 
L 432.735913 270.793118 
L 432.466423 264.647632 
L 432.004272 258.588516 
L 431.349553 252.622803 
L 430.502343 246.757551 
L 429.462717 240.999803 
L 428.230754 235.356547 
L 426.806557 229.834665 
L 425.190276 224.440862 
L 423.382139 219.181603 
L 421.382487 214.063014 
L 419.19182 209.090797 
L 416.810846 204.270118 
L 414.240539 199.605499 
L 411.482202 195.100696 
L 408.537528 190.758592 
L 405.408672 186.581083 
L 402.098308 182.56899 
L 398.609687 178.721989 
L 394.94668 175.03858 
L 391.113802 171.516096 
L 387.116208 168.150773 
L 382.95966 164.937884 
L 378.650448 161.871946 
L 374.19526 158.947007 
L 369.600993 156.156995 
L 363.673 152.850508 
L 357.55089 149.736459 
L 351.245128 146.808702 
L 344.762905 144.065579 
L 338.107091 141.510517 
L 331.275877 139.151556 
L 324.263875 136.999215 
L 317.06568 135.062219 
L 309.682831 133.340984 
L 302.134389 131.819808 
L 292.92972 130.202437 
L 271.872465 126.640169 
L 264.986813 125.187334 
L 259.885742 123.897011 
L 255.201096 122.488239 
L 250.957261 120.971885 
L 247.155673 119.369845 
L 243.77944 117.711061 
L 240.799394 116.027666 
L 237.577075 113.937757 
L 234.845852 111.91786 
L 231.720698 109.301522 
L 228.404336 106.179257 
L 224.912722 102.864464 
L 224.370223 102.630542 
L 224.214698 102.751607 
L 224.166179 103.170447 
L 224.346315 104.26927 
L 225.299769 107.971679 
L 226.345549 112.404866 
L 227.048787 116.419498 
L 227.432457 119.794754 
L 227.631212 123.630319 
L 227.599052 127.052812 
L 227.347485 130.806108 
L 226.834098 134.899399 
L 226.025382 139.332846 
L 224.90309 144.094254 
L 223.470008 149.157073 
L 221.75334 154.480784 
L 219.28832 161.423788 
L 209.137631 189.027011 
L 206.829937 196.300387 
L 204.795623 203.523956 
L 203.042644 210.694108 
L 201.563716 217.810879 
L 200.346794 224.874239 
L 199.381995 231.882508 
L 198.665125 238.832132 
L 198.198661 245.718118 
L 197.991126 252.534646 
L 198.05561 259.275608 
L 198.313677 264.60991 
L 198.764664 269.889015 
L 199.417165 275.110077 
L 200.279257 280.270365 
L 201.358168 285.367237 
L 202.660036 290.398103 
L 204.189754 295.360386 
L 205.95089 300.251496 
L 207.945681 305.068792 
L 210.175067 309.809569 
L 212.638769 314.471035 
L 215.335398 319.050307 
L 218.262578 323.544402 
L 221.417075 327.95024 
L 224.794929 332.264647 
L 228.391583 336.484362 
L 232.202003 340.606043 
L 236.220784 344.626277 
L 240.442246 348.541594 
L 244.86052 352.348474 
L 249.469612 356.043362 
L 254.263469 359.622677 
L 259.236016 363.082823 
L 264.381201 366.420204 
L 269.693014 369.631231 
L 275.165512 372.712332 
L 280.79283 375.659965 
L 286.569187 378.470624 
L 292.48889 381.140849 
L 298.546337 383.667234 
L 304.736007 386.046435 
L 311.052462 388.275176 
L 317.490334 390.350257 
L 324.044326 392.268558 
L 330.709198 394.027047 
L 332.392132 394.441352 
L 332.392132 394.441352 
" style="fill:none;stroke:#ec8443;stroke-linecap:square;stroke-width:3;"/>
   </g>
   <g id="line2d_4">
    <path clip-path="url(#p32f75c84aa)" d="M 449.546303 363.049987 
L 454.482517 358.216202 
L 459.243556 353.298161 
L 463.826399 348.301084 
L 468.228018 343.230294 
L 472.445373 338.091221 
L 476.475398 332.889396 
L 480.314995 327.63045 
L 483.961025 322.320112 
L 487.410301 316.964201 
L 490.659584 311.568625 
L 493.705579 306.139365 
L 496.544937 300.682473 
L 499.174261 295.204049 
L 501.590114 289.710231 
L 503.789035 284.207169 
L 505.767566 278.701 
L 507.522283 273.197815 
L 509.049833 267.703626 
L 510.346994 262.224316 
L 511.410731 256.765595 
L 512.238276 251.332941 
L 512.827212 245.931541 
L 513.175567 240.566224 
L 513.281926 235.241392 
L 513.145537 229.960949 
L 512.766427 224.72824 
L 512.145512 219.545983 
L 511.284699 214.416226 
L 510.186965 209.340316 
L 508.856413 204.318887 
L 507.298285 199.351887 
L 505.518929 194.438634 
L 503.525697 189.577917 
L 501.326779 184.768131 
L 498.930942 180.007465 
L 496.347197 175.29411 
L 492.866647 169.466612 
L 489.121769 163.708712 
L 485.124697 158.020319 
L 480.882489 152.403593 
L 476.395916 146.862938 
L 471.659392 141.40441 
L 466.662991 136.034428 
L 461.397669 130.757842 
L 455.864551 125.575784 
L 450.087997 120.484187 
L 442.925205 114.481167 
L 426.470221 100.867526 
L 421.23349 96.166508 
L 417.460995 92.498519 
L 414.108357 88.936164 
L 411.191265 85.501045 
L 408.700014 82.212844 
L 406.605502 79.088179 
L 404.866404 76.140293 
L 403.120749 72.719219 
L 401.765388 69.604326 
L 400.367094 65.775933 
L 399.056173 61.413791 
L 397.689744 56.797289 
L 397.336887 56.323457 
L 397.141665 56.35054 
L 396.890227 56.689007 
L 396.496818 57.730684 
L 395.471328 61.413791 
L 394.160407 65.775933 
L 392.762113 69.604326 
L 391.406753 72.719219 
L 389.661097 76.140293 
L 387.922 79.088179 
L 385.827488 82.212844 
L 383.336236 85.501045 
L 380.419145 88.936164 
L 377.066507 92.498519 
L 373.294012 96.166508 
L 369.145478 99.918643 
L 363.539206 104.698951 
L 340.946841 123.528698 
L 335.311631 128.67378 
L 329.938079 133.912417 
L 324.834879 139.245461 
L 319.995704 144.669302 
L 315.410138 150.17789 
L 311.070463 155.764829 
L 306.974824 161.424945 
L 303.127861 167.155152 
L 299.539866 172.954671 
L 296.225231 178.824758 
L 293.781572 183.573432 
L 291.532586 188.370764 
L 289.487137 193.218587 
L 287.653587 198.118574 
L 286.039515 203.072051 
L 284.651533 208.079842 
L 283.495166 213.142164 
L 282.5748 218.258557 
L 281.893691 223.427854 
L 281.454007 228.64818 
L 281.256903 233.916979 
L 281.302616 239.231059 
L 281.590581 244.58665 
L 282.119537 249.979466 
L 282.88764 255.404779 
L 283.892577 260.857487 
L 285.131657 266.332177 
L 286.601906 271.823192 
L 288.300141 277.324687 
L 290.223038 282.830679 
L 292.367185 288.335092 
L 294.72913 293.831798 
L 297.305409 299.314646 
L 300.092579 304.777495 
L 303.087231 310.214232 
L 306.286003 315.618793 
L 309.685586 320.985177 
L 313.282728 326.307458 
L 317.07423 331.579792 
L 321.05694 336.79643 
L 325.227751 341.951713 
L 329.58359 347.040087 
L 334.121411 352.056095 
L 338.838185 356.994389 
L 343.730888 361.849721 
L 344.981199 363.049987 
L 344.981199 363.049987 
" style="fill:none;stroke:#bda017;stroke-linecap:square;stroke-width:3;"/>
   </g>
   <g id="line2d_5">
    <path clip-path="url(#p32f75c84aa)" d="M 462.13537 394.441352 
L 468.827149 392.723279 
L 475.40935 390.84465 
L 481.876747 388.808475 
L 488.224056 386.617853 
L 494.445929 384.275962 
L 500.536946 381.786062 
L 506.491608 379.15148 
L 512.304331 376.375607 
L 517.969447 373.461891 
L 523.481197 370.413826 
L 528.833736 367.234947 
L 534.021138 363.928818 
L 539.037411 360.499026 
L 543.87651 356.949166 
L 548.532363 353.282835 
L 552.998906 349.503619 
L 557.270127 345.615079 
L 561.340119 341.620747 
L 565.203148 337.524105 
L 568.853733 333.328583 
L 572.286734 329.037539 
L 575.497467 324.654258 
L 578.48181 320.181934 
L 581.236336 315.623674 
L 583.758441 310.982482 
L 586.046477 306.261268 
L 588.099877 301.462844 
L 589.91927 296.589938 
L 591.506559 291.645204 
L 592.864982 286.631242 
L 593.999104 281.55063 
L 594.914762 276.405951 
L 595.618932 271.19983 
L 596.119505 265.934974 
L 596.424983 260.614198 
L 596.544071 255.240441 
L 596.443576 248.453405 
L 596.079367 241.594477 
L 595.461997 234.669649 
L 594.5965 227.684318 
L 593.481342 220.642683 
L 592.108655 213.547197 
L 590.466636 206.398455 
L 588.545027 199.196137 
L 586.344235 191.941784 
L 583.887391 184.644054 
L 580.685741 175.863891 
L 573.242128 155.84664 
L 571.057494 149.157073 
L 569.624412 144.094254 
L 568.50212 139.332846 
L 567.693404 134.899399 
L 567.180017 130.806108 
L 566.928449 127.052812 
L 566.89629 123.630319 
L 567.095045 119.794754 
L 567.478715 116.419498 
L 568.181953 112.404866 
L 569.227733 107.971679 
L 570.352621 103.290456 
L 570.283954 102.703678 
L 570.101346 102.629521 
L 569.71436 102.796923 
L 568.85282 103.502337 
L 566.123166 106.179257 
L 562.806804 109.301522 
L 559.68165 111.91786 
L 556.950427 113.937757 
L 553.728108 116.027666 
L 550.748062 117.711061 
L 547.371829 119.369845 
L 543.570241 120.971885 
L 539.326406 122.488239 
L 534.64176 123.897011 
L 529.540689 125.187334 
L 524.071885 126.362512 
L 516.826557 127.699244 
L 487.846121 132.710101 
L 480.393345 134.348267 
L 473.120394 136.198284 
L 466.034371 138.265236 
L 459.131603 140.542832 
L 452.406092 143.020626 
L 445.854354 145.68922 
L 439.477368 148.543205 
L 433.280697 151.582228 
L 427.273643 154.810761 
L 421.468041 158.237088 
L 416.977433 161.127731 
L 412.631088 164.15785 
L 408.435766 167.333463 
L 404.397871 170.660201 
L 400.523306 174.143002 
L 396.817383 177.785885 
L 393.284778 181.591801 
L 389.929521 185.562545 
L 386.755016 189.698733 
L 383.764075 193.999825 
L 380.958978 198.464187 
L 378.341527 203.089172 
L 375.913117 207.871232 
L 373.674798 212.806026 
L 371.627338 217.888537 
L 369.771285 223.113188 
L 368.107015 228.473949 
L 366.63478 233.964432 
L 365.354747 239.577984 
L 364.267029 245.307761 
L 363.371708 251.146797 
L 362.66886 257.088055 
L 362.158559 263.124481 
L 361.840894 269.249032 
L 361.71597 275.454711 
L 361.783907 281.734584 
L 362.044841 288.0818 
L 362.498917 294.489602 
L 363.146286 300.951328 
L 363.987096 307.460423 
L 365.021483 314.010435 
L 366.249563 320.595016 
L 367.671427 327.207917 
L 369.287126 333.842991 
L 371.096666 340.494184 
L 371.579333 342.1588 
L 371.579333 342.1588 
" style="fill:none;stroke:#3cb496;stroke-linecap:square;stroke-width:3;"/>
   </g>
   <g id="line2d_6">
    <path clip-path="url(#p32f75c84aa)" d="M 457.342139 427.921606 
L 463.996427 429.7796 
L 470.636094 431.44376 
L 477.255112 432.91408 
L 483.847354 434.1906 
L 490.406599 435.2734 
L 496.926525 436.162591 
L 503.400704 436.858307 
L 509.822607 437.360692 
L 516.185599 437.669898 
L 522.482947 437.786071 
L 528.707821 437.70935 
L 534.853308 437.43986 
L 540.912424 436.97771 
L 546.878136 436.32299 
L 552.743388 435.475781 
L 558.501136 434.436155 
L 564.144392 433.204191 
L 569.666275 431.779994 
L 575.060077 430.163713 
L 580.319337 428.355576 
L 585.437925 426.355925 
L 590.410142 424.165258 
L 595.230821 421.784284 
L 599.895441 419.213977 
L 604.400243 416.455639 
L 608.742348 413.510966 
L 612.919857 410.382109 
L 616.93195 407.071745 
L 620.77895 403.583124 
L 624.462359 399.920118 
L 627.984843 396.087239 
L 631.350167 392.089646 
L 634.563056 387.933098 
L 637.628993 383.623886 
L 640.553933 379.168697 
L 643.343945 374.574431 
L 646.650431 368.646437 
L 649.764481 362.524327 
L 652.692237 356.218566 
L 655.43536 349.736343 
L 657.990422 343.080528 
L 660.349384 336.249315 
L 662.501724 329.237313 
L 664.438721 322.039118 
L 666.159955 314.656268 
L 667.681131 307.107827 
L 669.298502 297.903157 
L 672.86077 276.845902 
L 674.313605 269.960251 
L 675.603929 264.85918 
L 677.0127 260.174533 
L 678.529055 255.930698 
L 680.131094 252.12911 
L 681.789878 248.752877 
L 683.473273 245.772832 
L 685.563183 242.550512 
L 687.583079 239.819289 
L 690.199417 236.694135 
L 693.321683 233.377773 
L 696.636476 229.886159 
L 696.870398 229.343661 
L 696.749332 229.188135 
L 696.330493 229.139616 
L 695.231669 229.319752 
L 691.52926 230.273206 
L 687.096074 231.318986 
L 683.081442 232.022225 
L 679.706185 232.405895 
L 675.87062 232.60465 
L 672.448127 232.57249 
L 668.694832 232.320922 
L 664.60154 231.807535 
L 660.168094 230.998819 
L 655.406685 229.876528 
L 650.343866 228.443445 
L 645.020155 226.726777 
L 638.077151 224.261757 
L 610.473929 214.111069 
L 603.200552 211.803374 
L 595.976983 209.76906 
L 588.806832 208.016082 
L 581.69006 206.537153 
L 574.6267 205.320231 
L 567.618431 204.355432 
L 560.668807 203.638562 
L 553.782821 203.172099 
L 546.966294 202.964563 
L 540.225331 203.029048 
L 534.891029 203.287114 
L 529.611925 203.738101 
L 524.390863 204.390602 
L 519.230574 205.252695 
L 514.133702 206.331606 
L 509.102837 207.633474 
L 504.140553 209.163191 
L 499.249444 210.924328 
L 494.432147 212.919119 
L 489.69137 215.148504 
L 485.029904 217.612206 
L 480.450633 220.308836 
L 475.956538 223.236016 
L 471.5507 226.390512 
L 467.236292 229.768366 
L 463.016577 233.365021 
L 458.894896 237.175441 
L 454.874662 241.194222 
L 450.959345 245.415684 
L 447.152465 249.833957 
L 443.457577 254.44305 
L 439.878263 259.236906 
L 436.418116 264.209454 
L 433.080735 269.354639 
L 429.869709 274.666452 
L 426.788607 280.13895 
L 423.840974 285.766267 
L 421.030315 291.542624 
L 418.36009 297.462328 
L 415.833705 303.519775 
L 413.454504 309.709445 
L 411.225763 316.025899 
L 409.150683 322.463772 
L 407.232382 329.017764 
L 405.473892 335.682635 
L 405.059587 337.365569 
L 405.059587 337.365569 
" style="fill:none;stroke:#6098dd;stroke-linecap:square;stroke-width:3;"/>
   </g>
   <g id="line2d_7">
    <path clip-path="url(#p32f75c84aa)" d="M 436.450953 454.519741 
L 441.284738 459.455954 
L 446.202778 464.216993 
L 451.199856 468.799836 
L 456.270645 473.201456 
L 461.409718 477.418811 
L 466.611543 481.448836 
L 471.870489 485.288433 
L 477.180828 488.934463 
L 482.536738 492.383739 
L 487.932315 495.633022 
L 493.361574 498.679017 
L 498.818467 501.518375 
L 504.29689 504.147699 
L 509.790708 506.563551 
L 515.29377 508.762472 
L 520.79994 510.741004 
L 526.303124 512.49572 
L 531.797313 514.023271 
L 537.276624 515.320431 
L 542.735345 516.384169 
L 548.167998 517.211714 
L 553.569398 517.800649 
L 558.934715 518.149004 
L 564.259548 518.255363 
L 569.53999 518.118974 
L 574.772699 517.739864 
L 579.954956 517.11895 
L 585.084713 516.258137 
L 590.160623 515.160403 
L 595.182053 513.82985 
L 600.149053 512.271723 
L 605.062305 510.492366 
L 609.923022 508.499135 
L 614.732808 506.300216 
L 619.493475 503.90438 
L 624.206829 501.320634 
L 630.034327 497.840085 
L 635.792228 494.095207 
L 641.48062 490.098135 
L 647.097346 485.855927 
L 652.638002 481.369354 
L 658.096529 476.63283 
L 663.466512 471.636428 
L 668.743097 466.371107 
L 673.925155 460.837989 
L 679.016753 455.061435 
L 685.019772 447.898643 
L 698.633414 431.443659 
L 703.334432 426.206927 
L 707.00242 422.434432 
L 710.564775 419.081795 
L 713.999895 416.164703 
L 717.288095 413.673451 
L 720.412761 411.578939 
L 723.360647 409.839842 
L 726.781721 408.094186 
L 729.896614 406.738826 
L 733.725006 405.340532 
L 738.087148 404.029611 
L 742.70365 402.663181 
L 743.177482 402.310325 
L 743.150399 402.115103 
L 742.811933 401.863664 
L 741.770256 401.470255 
L 738.087148 400.444766 
L 733.725006 399.133845 
L 729.896614 397.735551 
L 726.781721 396.380191 
L 723.360647 394.634535 
L 720.412761 392.895437 
L 717.288095 390.800926 
L 713.999895 388.309674 
L 710.564775 385.392582 
L 707.00242 382.039945 
L 703.334432 378.26745 
L 699.582296 374.118916 
L 694.801989 368.512644 
L 675.972241 345.920279 
L 670.82716 340.285068 
L 665.588522 334.911516 
L 660.255478 329.808316 
L 654.831638 324.969141 
L 649.323049 320.383576 
L 643.73611 316.043901 
L 638.075994 311.948261 
L 632.345787 308.101299 
L 626.546269 304.513304 
L 620.676182 301.198668 
L 615.927507 298.755009 
L 611.130175 296.506023 
L 606.282352 294.460575 
L 601.382365 292.627024 
L 596.428889 291.012953 
L 591.421098 289.624971 
L 586.358775 288.468603 
L 581.242382 287.548237 
L 576.073085 286.867129 
L 570.85276 286.427445 
L 565.58396 286.23034 
L 560.26988 286.276054 
L 554.91429 286.564019 
L 549.521474 287.092974 
L 544.09616 287.861078 
L 538.643452 288.866014 
L 533.168762 290.105095 
L 527.677747 291.575344 
L 522.176252 293.273579 
L 516.67026 295.196475 
L 511.165847 297.340623 
L 505.669142 299.702567 
L 500.186293 302.278847 
L 494.723444 305.066017 
L 489.286707 308.060668 
L 483.882146 311.25944 
L 478.515762 314.659024 
L 473.193482 318.256166 
L 467.921147 322.047667 
L 462.70451 326.030377 
L 457.549226 330.201188 
L 452.460853 334.557028 
L 447.444844 339.094849 
L 442.506551 343.811622 
L 437.651219 348.704326 
L 436.450953 349.954636 
L 436.450953 349.954636 
" style="fill:none;stroke:#8d5ccd;stroke-linecap:square;stroke-width:3;"/>
   </g>
   <g id="line2d_8">
    <path clip-path="url(#p32f75c84aa)" d="M 405.059587 467.108808 
L 406.777661 473.800586 
L 408.656289 480.382788 
L 410.692464 486.850185 
L 412.883087 493.197494 
L 415.224977 499.419367 
L 417.714877 505.510384 
L 420.349459 511.465045 
L 423.125332 517.277769 
L 426.039049 522.942885 
L 429.087114 528.454634 
L 432.265993 533.807173 
L 435.572121 538.994576 
L 439.001913 544.010849 
L 442.551773 548.849947 
L 446.218104 553.5058 
L 449.997321 557.972343 
L 453.88586 562.243564 
L 457.880193 566.313557 
L 461.976834 570.176586 
L 466.172357 573.82717 
L 470.4634 577.260172 
L 474.846682 580.470905 
L 479.319005 583.455248 
L 483.877266 586.209774 
L 488.518457 588.731878 
L 493.239672 591.019914 
L 498.038095 593.073315 
L 502.911001 594.892707 
L 507.855736 596.479997 
L 512.869697 597.838419 
L 517.950309 598.972541 
L 523.094989 599.8882 
L 528.301109 600.592369 
L 533.565965 601.092943 
L 538.886741 601.398421 
L 544.260499 601.517509 
L 551.047535 601.417013 
L 557.906462 601.052804 
L 564.83129 600.435435 
L 571.816622 599.569938 
L 578.858257 598.454779 
L 585.953743 597.082093 
L 593.102484 595.440074 
L 600.304803 593.518464 
L 607.559155 591.317672 
L 614.856885 588.860829 
L 623.637048 585.659178 
L 643.6543 578.215565 
L 650.343866 576.030932 
L 655.406685 574.597849 
L 660.168094 573.475557 
L 664.60154 572.666842 
L 668.694832 572.153455 
L 672.448127 571.901887 
L 675.87062 571.869727 
L 679.706185 572.068482 
L 683.081442 572.452152 
L 687.096074 573.15539 
L 691.52926 574.201171 
L 696.210483 575.326059 
L 696.797261 575.257392 
L 696.871418 575.074783 
L 696.704017 574.687798 
L 695.998602 573.826257 
L 693.321683 571.096604 
L 690.199417 567.780242 
L 687.583079 564.655087 
L 685.563183 561.923865 
L 683.473273 558.701545 
L 681.789878 555.7215 
L 680.131094 552.345267 
L 678.529055 548.543679 
L 677.0127 544.299844 
L 675.603929 539.615197 
L 674.313605 534.514126 
L 673.138428 529.045323 
L 671.801696 521.799995 
L 666.790838 492.819559 
L 665.152673 485.366783 
L 663.302655 478.093831 
L 661.235704 471.007809 
L 658.958108 464.10504 
L 656.480313 457.37953 
L 653.811719 450.827791 
L 650.957735 444.450805 
L 647.918711 438.254135 
L 644.690178 432.247081 
L 641.263851 426.441479 
L 638.373208 421.950871 
L 635.34309 417.604525 
L 632.167476 413.409204 
L 628.840739 409.371309 
L 625.357938 405.496744 
L 621.715054 401.790821 
L 617.909139 398.258216 
L 613.938395 394.902959 
L 609.802207 391.728453 
L 605.501114 388.737513 
L 601.036752 385.932415 
L 596.411767 383.314965 
L 591.629707 380.886555 
L 586.694914 378.648235 
L 581.612403 376.600775 
L 576.387751 374.744722 
L 571.02699 373.080452 
L 565.536507 371.608218 
L 559.922955 370.328185 
L 554.193178 369.240466 
L 548.354143 368.345146 
L 542.412884 367.642297 
L 536.376458 367.131996 
L 530.251907 366.814332 
L 524.046229 366.689408 
L 517.766356 366.757345 
L 511.419139 367.018279 
L 505.011338 367.472355 
L 498.549611 368.119724 
L 492.040516 368.960533 
L 485.490504 369.99492 
L 478.905924 371.223001 
L 472.293022 372.644865 
L 465.657948 374.260564 
L 459.006755 376.070103 
L 457.342139 376.552771 
L 457.342139 376.552771 
" style="fill:none;stroke:#b43a75;stroke-linecap:square;stroke-width:3;"/>
   </g>
   <g id="line2d_9">
    <path clip-path="url(#p32f75c84aa)" d="M 371.579333 462.315577 
L 369.72134 468.969864 
L 368.057179 475.609532 
L 366.586859 482.228549 
L 365.31034 488.820791 
L 364.22754 495.380037 
L 363.338348 501.899962 
L 362.642633 508.374141 
L 362.140247 514.796044 
L 361.831042 521.159037 
L 361.714869 527.456384 
L 361.791589 533.681259 
L 362.061079 539.826745 
L 362.52323 545.885861 
L 363.177949 551.851573 
L 364.025159 557.716826 
L 365.064785 563.474574 
L 366.296748 569.117829 
L 367.720945 574.639712 
L 369.337226 580.033514 
L 371.145363 585.292774 
L 373.145015 590.411363 
L 375.335682 595.38358 
L 377.716656 600.204258 
L 380.286962 604.868878 
L 383.0453 609.373681 
L 385.989974 613.715785 
L 389.11883 617.893294 
L 392.429194 621.905387 
L 395.917815 625.752387 
L 399.580822 629.435797 
L 403.4137 632.958281 
L 407.411294 636.323604 
L 411.567842 639.536493 
L 415.877054 642.60243 
L 420.332242 645.52737 
L 424.926509 648.317382 
L 430.854502 651.623869 
L 436.976612 654.737918 
L 443.282374 657.665675 
L 449.764597 660.408798 
L 456.420411 662.96386 
L 463.251625 665.322821 
L 470.263626 667.475162 
L 477.461822 669.412158 
L 484.844671 671.133393 
L 492.393113 672.654569 
L 501.597782 674.27194 
L 522.655037 677.834208 
L 529.540689 679.287043 
L 534.64176 680.577366 
L 539.326406 681.986138 
L 543.570241 683.502492 
L 547.371829 685.104532 
L 550.748062 686.763316 
L 553.728108 688.446711 
L 556.950427 690.53662 
L 559.68165 692.556517 
L 562.806804 695.172855 
L 566.123166 698.29512 
L 569.61478 701.609913 
L 570.157279 701.843835 
L 570.312804 701.72277 
L 570.361323 701.30393 
L 570.181187 700.205107 
L 569.227733 696.502698 
L 568.181953 692.069511 
L 567.478715 688.054879 
L 567.095045 684.679623 
L 566.89629 680.844057 
L 566.928449 677.421565 
L 567.180017 673.668269 
L 567.693404 669.574978 
L 568.50212 665.141531 
L 569.624412 660.380123 
L 571.057494 655.317304 
L 572.774162 649.993592 
L 575.239182 643.050589 
L 585.389871 615.447366 
L 587.697565 608.17399 
L 589.731879 600.95042 
L 591.484858 593.780269 
L 592.963786 586.663498 
L 594.180708 579.600138 
L 595.145507 572.591869 
L 595.862377 565.642245 
L 596.328841 558.756259 
L 596.536376 551.939731 
L 596.471891 545.198769 
L 596.213825 539.864467 
L 595.762838 534.585362 
L 595.110337 529.3643 
L 594.248245 524.204012 
L 593.169333 519.10714 
L 591.867465 514.076274 
L 590.337748 509.113991 
L 588.576612 504.222881 
L 586.581821 499.405585 
L 584.352435 494.664808 
L 581.888733 490.003342 
L 579.192104 485.42407 
L 576.264924 480.929975 
L 573.110427 476.524137 
L 569.732573 472.209729 
L 566.135918 467.990014 
L 562.325498 463.868334 
L 558.306718 459.8481 
L 554.085256 455.932783 
L 549.666982 452.125902 
L 545.05789 448.431015 
L 540.264033 444.8517 
L 535.291485 441.391554 
L 530.146301 438.054173 
L 524.834488 434.843146 
L 519.36199 431.762045 
L 513.734672 428.814412 
L 507.958315 426.003753 
L 502.038611 423.333528 
L 495.981165 420.807142 
L 489.791495 418.427941 
L 483.47504 416.1992 
L 477.037168 414.12412 
L 470.483175 412.205819 
L 463.818304 410.44733 
L 462.13537 410.033025 
L 462.13537 410.033025 
" style="fill:none;stroke:#ec8443;stroke-linecap:square;stroke-width:3;"/>
   </g>
   <g id="line2d_10">
    <path clip-path="url(#p32f75c84aa)" d="M 344.981199 441.42439 
L 340.044985 446.258175 
L 335.283946 451.176216 
L 330.701103 456.173293 
L 326.299484 461.244083 
L 322.082129 466.383156 
L 318.052103 471.584981 
L 314.212506 476.843927 
L 310.566477 482.154265 
L 307.1172 487.510175 
L 303.867918 492.905752 
L 300.821923 498.335011 
L 297.982564 503.791904 
L 295.353241 509.270328 
L 292.937388 514.764146 
L 290.738467 520.267208 
L 288.759935 525.773377 
L 287.005219 531.276561 
L 285.477669 536.770751 
L 284.180508 542.250061 
L 283.116771 547.708782 
L 282.289226 553.141436 
L 281.70029 558.542836 
L 281.351935 563.908153 
L 281.245576 569.232985 
L 281.381965 574.513427 
L 281.761075 579.746137 
L 282.38199 584.928394 
L 283.242803 590.05815 
L 284.340537 595.134061 
L 285.671089 600.15549 
L 287.229217 605.12249 
L 289.008573 610.035743 
L 291.001804 614.89646 
L 293.200723 619.706246 
L 295.59656 624.466912 
L 298.180305 629.180266 
L 301.660855 635.007764 
L 305.405733 640.765665 
L 309.402804 646.454058 
L 313.645013 652.070784 
L 318.131586 657.611439 
L 322.86811 663.069967 
L 327.864511 668.439949 
L 333.129833 673.716535 
L 338.662951 678.898593 
L 344.439505 683.99019 
L 351.602297 689.993209 
L 368.057281 703.606851 
L 373.294012 708.307869 
L 377.066507 711.975858 
L 380.419145 715.538213 
L 383.336236 718.973332 
L 385.827488 722.261533 
L 387.922 725.386198 
L 389.661097 728.334084 
L 391.406753 731.755158 
L 392.762113 734.870051 
L 394.160407 738.698444 
L 395.471328 743.060586 
L 396.837758 747.677088 
L 397.190615 748.150919 
L 397.385836 748.123837 
L 397.637275 747.78537 
L 398.030684 746.743693 
L 399.056173 743.060586 
L 400.367094 738.698444 
L 401.765388 734.870051 
L 403.120749 731.755158 
L 404.866404 728.334084 
L 406.605502 725.386198 
L 408.700014 722.261533 
L 411.191265 718.973332 
L 414.108357 715.538213 
L 417.460995 711.975858 
L 421.23349 708.307869 
L 425.382024 704.555734 
L 430.988295 699.775426 
L 453.580661 680.945678 
L 459.215871 675.800597 
L 464.589423 670.561959 
L 469.692623 665.228916 
L 474.531798 659.805075 
L 479.117364 654.296487 
L 483.457039 648.709548 
L 487.552678 643.049431 
L 491.399641 637.319225 
L 494.987635 631.519706 
L 498.302271 625.649619 
L 500.74593 620.900945 
L 502.994916 616.103612 
L 505.040365 611.25579 
L 506.873915 606.355803 
L 508.487987 601.402326 
L 509.875968 596.394535 
L 511.032336 591.332213 
L 511.952702 586.21582 
L 512.63381 581.046523 
L 513.073495 575.826197 
L 513.270599 570.557398 
L 513.224885 565.243318 
L 512.93692 559.887727 
L 512.407965 554.494911 
L 511.639862 549.069598 
L 510.634925 543.61689 
L 509.395845 538.1422 
L 507.925596 532.651185 
L 506.227361 527.14969 
L 504.304464 521.643698 
L 502.160317 516.139285 
L 499.798372 510.642579 
L 497.222093 505.159731 
L 494.434923 499.696882 
L 491.440271 494.260144 
L 488.241499 488.855583 
L 484.841916 483.4892 
L 481.244773 478.166919 
L 477.453272 472.894584 
L 473.470562 467.677947 
L 469.299751 462.522664 
L 464.943912 457.43429 
L 460.40609 452.418282 
L 455.689317 447.479988 
L 450.796614 442.624656 
L 449.546303 441.42439 
L 449.546303 441.42439 
" style="fill:none;stroke:#bda017;stroke-linecap:square;stroke-width:3;"/>
   </g>
   <g id="line2d_11">
    <path clip-path="url(#p32f75c84aa)" d="M 332.392132 410.033025 
L 325.700353 411.751098 
L 319.118152 413.629727 
L 312.650755 415.665901 
L 306.303446 417.856524 
L 300.081572 420.198415 
L 293.990556 422.688315 
L 288.035894 425.322897 
L 282.223171 428.09877 
L 276.558055 431.012486 
L 271.046305 434.060551 
L 265.693766 437.23943 
L 260.506364 440.545559 
L 255.49009 443.975351 
L 250.650992 447.525211 
L 245.995139 451.191542 
L 241.528596 454.970758 
L 237.257375 458.859298 
L 233.187383 462.85363 
L 229.324354 466.950271 
L 225.673769 471.145794 
L 222.240767 475.436838 
L 219.030035 479.820119 
L 216.045692 484.292442 
L 213.291166 488.850703 
L 210.769061 493.491895 
L 208.481025 498.213109 
L 206.427624 503.011533 
L 204.608232 507.884439 
L 203.020942 512.829173 
L 201.66252 517.843135 
L 200.528398 522.923747 
L 199.61274 528.068426 
L 198.90857 533.274547 
L 198.407997 538.539402 
L 198.102519 543.860179 
L 197.983431 549.233936 
L 198.083926 556.020972 
L 198.448135 562.8799 
L 199.065505 569.804728 
L 199.931002 576.790059 
L 201.04616 583.831694 
L 202.418846 590.92718 
L 204.060866 598.075922 
L 205.982475 605.27824 
L 208.183267 612.532593 
L 210.640111 619.830323 
L 213.841761 628.610486 
L 221.285374 648.627737 
L 223.470008 655.317304 
L 224.90309 660.380123 
L 226.025382 665.141531 
L 226.834098 669.574978 
L 227.347485 673.668269 
L 227.599052 677.421565 
L 227.631212 680.844057 
L 227.432457 684.679623 
L 227.048787 688.054879 
L 226.345549 692.069511 
L 225.299769 696.502698 
L 224.174881 701.18392 
L 224.243548 701.770699 
L 224.426156 701.844855 
L 224.813141 701.677454 
L 225.674682 700.97204 
L 228.404336 698.29512 
L 231.720698 695.172855 
L 234.845852 692.556517 
L 237.577075 690.53662 
L 240.799394 688.446711 
L 243.77944 686.763316 
L 247.155673 685.104532 
L 250.957261 683.502492 
L 255.201096 681.986138 
L 259.885742 680.577366 
L 264.986813 679.287043 
L 270.455617 678.111865 
L 277.700944 676.775133 
L 306.681381 671.764276 
L 314.134156 670.12611 
L 321.407108 668.276093 
L 328.493131 666.209141 
L 335.395899 663.931545 
L 342.12141 661.453751 
L 348.673148 658.785157 
L 355.050134 655.931172 
L 361.246805 652.892148 
L 367.253859 649.663616 
L 373.059461 646.237289 
L 377.550069 643.346646 
L 381.896414 640.316527 
L 386.091736 637.140914 
L 390.12963 633.814176 
L 394.004196 630.331375 
L 397.710119 626.688492 
L 401.242724 622.882576 
L 404.59798 618.911832 
L 407.772486 614.775644 
L 410.763427 610.474551 
L 413.568524 606.01019 
L 416.185975 601.385205 
L 418.614385 596.603145 
L 420.852704 591.668351 
L 422.900164 586.58584 
L 424.756217 581.361189 
L 426.420487 576.000428 
L 427.892722 570.509944 
L 429.172755 564.896392 
L 430.260473 559.166615 
L 431.155793 553.32758 
L 431.858642 547.386321 
L 432.368943 541.349896 
L 432.686608 535.225344 
L 432.811532 529.019666 
L 432.743595 522.739793 
L 432.482661 516.392577 
L 432.028585 509.984775 
L 431.381215 503.523049 
L 430.540406 497.013954 
L 429.506019 490.463942 
L 428.277939 483.879361 
L 426.856074 477.26646 
L 425.240376 470.631386 
L 423.430836 463.980193 
L 422.948168 462.315577 
L 422.948168 462.315577 
" style="fill:none;stroke:#3cb496;stroke-linecap:square;stroke-width:3;"/>
   </g>
   <g id="line2d_12">
    <path clip-path="url(#p32f75c84aa)" d="M 337.185362 376.552771 
L 330.531075 374.694777 
L 323.891408 373.030617 
L 317.27239 371.560297 
L 310.680148 370.283777 
L 304.120903 369.200977 
L 297.600977 368.311786 
L 291.126798 367.61607 
L 284.704895 367.113685 
L 278.341903 366.804479 
L 272.044555 366.688306 
L 265.819681 366.765027 
L 259.674194 367.034517 
L 253.615078 367.496667 
L 247.649366 368.151387 
L 241.784114 368.998596 
L 236.026366 370.038222 
L 230.38311 371.270185 
L 224.861227 372.694383 
L 219.467425 374.310664 
L 214.208165 376.118801 
L 209.089576 378.118452 
L 204.11736 380.309119 
L 199.296681 382.690093 
L 194.632061 385.2604 
L 190.127259 388.018738 
L 185.785154 390.963411 
L 181.607645 394.092267 
L 177.595552 397.402632 
L 173.748552 400.891252 
L 170.065143 404.554259 
L 166.542659 408.387137 
L 163.177335 412.384731 
L 159.964446 416.541279 
L 156.898509 420.850491 
L 153.973569 425.30568 
L 151.183557 429.899946 
L 147.877071 435.82794 
L 144.763021 441.95005 
L 141.835265 448.255811 
L 139.092142 454.738034 
L 136.53708 461.393848 
L 134.178118 468.225062 
L 132.025778 475.237064 
L 130.088781 482.435259 
L 128.367546 489.818109 
L 126.846371 497.36655 
L 125.229 506.57122 
L 121.666732 527.628475 
L 120.213897 534.514126 
L 118.923573 539.615197 
L 117.514802 544.299844 
L 115.998447 548.543679 
L 114.396408 552.345267 
L 112.737624 555.7215 
L 111.054228 558.701545 
L 108.964319 561.923865 
L 106.944423 564.655087 
L 104.328085 567.780242 
L 101.205819 571.096604 
L 97.891026 574.588218 
L 97.657104 575.130716 
L 97.778169 575.286242 
L 98.197009 575.334761 
L 99.295833 575.154624 
L 102.998242 574.201171 
L 107.431428 573.15539 
L 111.44606 572.452152 
L 114.821317 572.068482 
L 118.656882 571.869727 
L 122.079375 571.901887 
L 125.83267 572.153455 
L 129.925962 572.666842 
L 134.359408 573.475557 
L 139.120817 574.597849 
L 144.183635 576.030932 
L 149.507347 577.747599 
L 156.450351 580.21262 
L 184.053573 590.363308 
L 191.32695 592.671003 
L 198.550519 594.705316 
L 205.72067 596.458295 
L 212.837441 597.937223 
L 219.900802 599.154146 
L 226.90907 600.118945 
L 233.858695 600.835815 
L 240.744681 601.302278 
L 247.561208 601.509814 
L 254.302171 601.445329 
L 259.636473 601.187262 
L 264.915577 600.736275 
L 270.136639 600.083775 
L 275.296928 599.221682 
L 280.3938 598.142771 
L 285.424665 596.840903 
L 290.386949 595.311186 
L 295.278058 593.550049 
L 300.095355 591.555258 
L 304.836131 589.325873 
L 309.497598 586.862171 
L 314.076869 584.165541 
L 318.570964 581.238361 
L 322.976802 578.083864 
L 327.29121 574.70601 
L 331.510925 571.109356 
L 335.632605 567.298936 
L 339.65284 563.280155 
L 343.568157 559.058693 
L 347.375037 554.64042 
L 351.069925 550.031327 
L 354.649239 545.237471 
L 358.109386 540.264923 
L 361.446767 535.119738 
L 364.657793 529.807925 
L 367.738895 524.335427 
L 370.686528 518.708109 
L 373.497187 512.931753 
L 376.167412 507.012049 
L 378.693797 500.954602 
L 381.072998 494.764932 
L 383.301739 488.448478 
L 385.376819 482.010605 
L 387.29512 475.456613 
L 389.053609 468.791741 
L 389.467915 467.108808 
L 389.467915 467.108808 
" style="fill:none;stroke:#6098dd;stroke-linecap:square;stroke-width:3;"/>
   </g>
   <g id="text_1">
    <!-- 1 -->
    <defs>
     <path d="M 12.40625 8.296875 
L 28.515625 8.296875 
L 28.515625 63.921875 
L 10.984375 60.40625 
L 10.984375 69.390625 
L 28.421875 72.90625 
L 38.28125 72.90625 
L 38.28125 8.296875 
L 54.390625 8.296875 
L 54.390625 0 
L 12.40625 0 
z
" id="DejaVuSans-49"/>
    </defs>
    <g transform="translate(7.2 410.515313)scale(0.3 -0.3)">
     <use xlink:href="#DejaVuSans-49"/>
    </g>
   </g>
   <g id="text_2">
    <!-- 2 -->
    <defs>
     <path d="M 19.1875 8.296875 
L 53.609375 8.296875 
L 53.609375 0 
L 7.328125 0 
L 7.328125 8.296875 
Q 12.9375 14.109375 22.625 23.890625 
Q 32.328125 33.6875 34.8125 36.53125 
Q 39.546875 41.84375 41.421875 45.53125 
Q 43.3125 49.21875 43.3125 52.78125 
Q 43.3125 58.59375 39.234375 62.25 
Q 35.15625 65.921875 28.609375 65.921875 
Q 23.96875 65.921875 18.8125 64.3125 
Q 13.671875 62.703125 7.8125 59.421875 
L 7.8125 69.390625 
Q 13.765625 71.78125 18.9375 73 
Q 24.125 74.21875 28.421875 74.21875 
Q 39.75 74.21875 46.484375 68.546875 
Q 53.21875 62.890625 53.21875 53.421875 
Q 53.21875 48.921875 51.53125 44.890625 
Q 49.859375 40.875 45.40625 35.40625 
Q 44.1875 33.984375 37.640625 27.21875 
Q 31.109375 20.453125 19.1875 8.296875 
z
" id="DejaVuSans-50"/>
    </defs>
    <g transform="translate(58.180013 220.255313)scale(0.3 -0.3)">
     <use xlink:href="#DejaVuSans-50"/>
    </g>
   </g>
   <g id="text_3">
    <!-- 3 -->
    <defs>
     <path d="M 40.578125 39.3125 
Q 47.65625 37.796875 51.625 33 
Q 55.609375 28.21875 55.609375 21.1875 
Q 55.609375 10.40625 48.1875 4.484375 
Q 40.765625 -1.421875 27.09375 -1.421875 
Q 22.515625 -1.421875 17.65625 -0.515625 
Q 12.796875 0.390625 7.625 2.203125 
L 7.625 11.71875 
Q 11.71875 9.328125 16.59375 8.109375 
Q 21.484375 6.890625 26.8125 6.890625 
Q 36.078125 6.890625 40.9375 10.546875 
Q 45.796875 14.203125 45.796875 21.1875 
Q 45.796875 27.640625 41.28125 31.265625 
Q 36.765625 34.90625 28.71875 34.90625 
L 20.21875 34.90625 
L 20.21875 43.015625 
L 29.109375 43.015625 
Q 36.375 43.015625 40.234375 45.921875 
Q 44.09375 48.828125 44.09375 54.296875 
Q 44.09375 59.90625 40.109375 62.90625 
Q 36.140625 65.921875 28.71875 65.921875 
Q 24.65625 65.921875 20.015625 65.03125 
Q 15.375 64.15625 9.8125 62.3125 
L 9.8125 71.09375 
Q 15.4375 72.65625 20.34375 73.4375 
Q 25.25 74.21875 29.59375 74.21875 
Q 40.828125 74.21875 47.359375 69.109375 
Q 53.90625 64.015625 53.90625 55.328125 
Q 53.90625 49.265625 50.4375 45.09375 
Q 46.96875 40.921875 40.578125 39.3125 
z
" id="DejaVuSans-51"/>
    </defs>
    <g transform="translate(197.46 80.975326)scale(0.3 -0.3)">
     <use xlink:href="#DejaVuSans-51"/>
    </g>
   </g>
   <g id="text_4">
    <!-- 4 -->
    <defs>
     <path d="M 37.796875 64.3125 
L 12.890625 25.390625 
L 37.796875 25.390625 
z
M 35.203125 72.90625 
L 47.609375 72.90625 
L 47.609375 25.390625 
L 58.015625 25.390625 
L 58.015625 17.1875 
L 47.609375 17.1875 
L 47.609375 0 
L 37.796875 0 
L 37.796875 17.1875 
L 4.890625 17.1875 
L 4.890625 26.703125 
z
" id="DejaVuSans-52"/>
    </defs>
    <g transform="translate(387.720001 29.995312)scale(0.3 -0.3)">
     <use xlink:href="#DejaVuSans-52"/>
    </g>
   </g>
   <g id="text_5">
    <!-- 5 -->
    <defs>
     <path d="M 10.796875 72.90625 
L 49.515625 72.90625 
L 49.515625 64.59375 
L 19.828125 64.59375 
L 19.828125 46.734375 
Q 21.96875 47.46875 24.109375 47.828125 
Q 26.265625 48.1875 28.421875 48.1875 
Q 40.625 48.1875 47.75 41.5 
Q 54.890625 34.8125 54.890625 23.390625 
Q 54.890625 11.625 47.5625 5.09375 
Q 40.234375 -1.421875 26.90625 -1.421875 
Q 22.3125 -1.421875 17.546875 -0.640625 
Q 12.796875 0.140625 7.71875 1.703125 
L 7.71875 11.625 
Q 12.109375 9.234375 16.796875 8.0625 
Q 21.484375 6.890625 26.703125 6.890625 
Q 35.15625 6.890625 40.078125 11.328125 
Q 45.015625 15.765625 45.015625 23.390625 
Q 45.015625 31 40.078125 35.4375 
Q 35.15625 39.890625 26.703125 39.890625 
Q 22.75 39.890625 18.8125 39.015625 
Q 14.890625 38.140625 10.796875 36.28125 
z
" id="DejaVuSans-53"/>
    </defs>
    <g transform="translate(577.980001 80.975326)scale(0.3 -0.3)">
     <use xlink:href="#DejaVuSans-53"/>
    </g>
   </g>
   <g id="text_6">
    <!-- 6 -->
    <defs>
     <path d="M 33.015625 40.375 
Q 26.375 40.375 22.484375 35.828125 
Q 18.609375 31.296875 18.609375 23.390625 
Q 18.609375 15.53125 22.484375 10.953125 
Q 26.375 6.390625 33.015625 6.390625 
Q 39.65625 6.390625 43.53125 10.953125 
Q 47.40625 15.53125 47.40625 23.390625 
Q 47.40625 31.296875 43.53125 35.828125 
Q 39.65625 40.375 33.015625 40.375 
z
M 52.59375 71.296875 
L 52.59375 62.3125 
Q 48.875 64.0625 45.09375 64.984375 
Q 41.3125 65.921875 37.59375 65.921875 
Q 27.828125 65.921875 22.671875 59.328125 
Q 17.53125 52.734375 16.796875 39.40625 
Q 19.671875 43.65625 24.015625 45.921875 
Q 28.375 48.1875 33.59375 48.1875 
Q 44.578125 48.1875 50.953125 41.515625 
Q 57.328125 34.859375 57.328125 23.390625 
Q 57.328125 12.15625 50.6875 5.359375 
Q 44.046875 -1.421875 33.015625 -1.421875 
Q 20.359375 -1.421875 13.671875 8.265625 
Q 6.984375 17.96875 6.984375 36.375 
Q 6.984375 53.65625 15.1875 63.9375 
Q 23.390625 74.21875 37.203125 74.21875 
Q 40.921875 74.21875 44.703125 73.484375 
Q 48.484375 72.75 52.59375 71.296875 
z
" id="DejaVuSans-54"/>
    </defs>
    <g transform="translate(717.259988 220.255313)scale(0.3 -0.3)">
     <use xlink:href="#DejaVuSans-54"/>
    </g>
   </g>
   <g id="text_7">
    <!-- 1' -->
    <defs>
     <path d="M 17.921875 72.90625 
L 17.921875 45.796875 
L 9.625 45.796875 
L 9.625 72.90625 
z
" id="DejaVuSans-39"/>
    </defs>
    <g transform="translate(764.117346 410.515313)scale(0.3 -0.3)">
     <use xlink:href="#DejaVuSans-49"/>
     <use x="63.623047" xlink:href="#DejaVuSans-39"/>
    </g>
   </g>
   <g id="text_8">
    <!-- 2' -->
    <g transform="translate(713.137332 600.775314)scale(0.3 -0.3)">
     <use xlink:href="#DejaVuSans-50"/>
     <use x="63.623047" xlink:href="#DejaVuSans-39"/>
    </g>
   </g>
   <g id="text_9">
    <!-- 3' -->
    <g transform="translate(573.857345 740.055301)scale(0.3 -0.3)">
     <use xlink:href="#DejaVuSans-51"/>
     <use x="63.623047" xlink:href="#DejaVuSans-39"/>
    </g>
   </g>
   <g id="text_10">
    <!-- 4' -->
    <g transform="translate(383.597345 791.035314)scale(0.3 -0.3)">
     <use xlink:href="#DejaVuSans-52"/>
     <use x="63.623047" xlink:href="#DejaVuSans-39"/>
    </g>
   </g>
   <g id="text_11">
    <!-- 5' -->
    <g transform="translate(193.337344 740.055301)scale(0.3 -0.3)">
     <use xlink:href="#DejaVuSans-53"/>
     <use x="63.623047" xlink:href="#DejaVuSans-39"/>
    </g>
   </g>
   <g id="text_12">
    <!-- 6' -->
    <g transform="translate(54.057357 600.775314)scale(0.3 -0.3)">
     <use xlink:href="#DejaVuSans-54"/>
     <use x="63.623047" xlink:href="#DejaVuSans-39"/>
    </g>
   </g>
  </g>
 </g>
 <defs>
  <clipPath id="p32f75c84aa">
   <rect height="761.04" width="761.04" x="16.743751" y="21.717188"/>
  </clipPath>
 </defs>
</svg>
