<?xml version="1.0" encoding="utf-8" standalone="no"?>
<!DOCTYPE svg PUBLIC "-//W3C//DTD SVG 1.1//EN"
  "http://www.w3.org/Graphics/SVG/1.1/DTD/svg11.dtd">
<!-- Created with matplotlib (https://matplotlib.org/) -->
<svg height="804.466672pt" version="1.1" viewBox="0 0 806.468321 804.466672" width="806.468321pt" xmlns="http://www.w3.org/2000/svg" xmlns:xlink="http://www.w3.org/1999/xlink">
 <defs>
  <style type="text/css">
*{stroke-linecap:butt;stroke-linejoin:round;}
  </style>
 </defs>
 <g id="figure_1">
  <g id="patch_1">
   <path d="M 0 804.466672 
L 806.468321 804.466672 
L 806.468321 0 
L 0 0 
z
" style="fill:none;"/>
  </g>
  <g id="axes_1">
   <g id="patch_2">
    <path d="M 16.743751 782.753336 
L 785.601913 782.753336 
L 785.601913 21.713336 
L 16.743751 21.713336 
z
" style="fill:none;"/>
   </g>
   <g id="matplotlib.axis_1"/>
   <g id="matplotlib.axis_2"/>
   <g id="line2d_1">
    <path clip-path="url(#p75b3090c8f)" d="M 352.486415 352.082453 
L 346.262148 347.126086 
L 340.001534 342.431494 
L 333.712628 338.001792 
L 327.403518 333.840087 
L 321.082292 329.949458 
L 314.756999 326.332924 
L 308.435599 322.993404 
L 302.125909 319.933668 
L 295.835531 317.156275 
L 289.571782 314.663505 
L 283.341605 312.457272 
L 277.151476 310.539034 
L 271.007302 308.909695 
L 264.914321 307.569493 
L 258.87699 306.517894 
L 252.898887 305.753482 
L 246.982621 305.273863 
L 241.129761 305.075582 
L 235.340789 305.154067 
L 229.615095 305.503603 
L 223.951019 306.117356 
L 218.345944 306.98745 
L 212.796454 308.105107 
L 207.298564 309.460857 
L 201.847999 311.044832 
L 196.440542 312.84713 
L 191.072404 314.858257 
L 185.740604 317.069632 
L 180.443316 319.474125 
L 175.180127 322.066586 
L 169.952162 324.844301 
L 164.762002 327.807267 
L 159.61334 330.958128 
L 154.510356 334.301599 
L 149.456799 337.843132 
L 144.454881 341.58663 
L 139.504183 345.531086 
L 133.381748 350.727469 
L 127.31891 356.169442 
L 104.63505 376.887753 
L 99.98194 380.681502 
L 95.425811 384.109582 
L 90.999824 387.138302 
L 86.735525 389.760409 
L 82.660368 391.991084 
L 78.796653 393.861628 
L 74.290117 395.755756 
L 70.164673 397.237076 
L 65.739611 398.585624 
L 60.75933 399.853662 
L 51.86422 402.010121 
L 51.691849 402.257946 
L 51.86422 402.456551 
L 52.467339 402.717519 
L 54.326581 403.202413 
L 65.059086 405.693499 
L 69.386852 406.975436 
L 73.433925 408.384381 
L 77.865881 410.189028 
L 81.673861 411.975668 
L 85.698042 414.112898 
L 89.917436 416.634977 
L 94.30583 419.561754 
L 98.832524 422.892084 
L 103.464455 426.599062 
L 108.169628 430.628992 
L 114.11391 436.002363 
L 133.381748 453.739203 
L 139.504183 458.935586 
L 144.454881 462.880042 
L 149.456799 466.623539 
L 154.510356 470.165073 
L 159.61334 473.508544 
L 164.762002 476.659405 
L 169.952162 479.62237 
L 175.180127 482.400086 
L 180.443316 484.992547 
L 185.740604 487.39704 
L 191.072404 489.608415 
L 196.440542 491.619542 
L 201.847999 493.42184 
L 207.298564 495.005814 
L 212.796454 496.361565 
L 218.345944 497.479221 
L 223.951019 498.349316 
L 229.615095 498.963069 
L 235.340789 499.312605 
L 241.129761 499.39109 
L 246.982621 499.192809 
L 252.898887 498.71319 
L 258.87699 497.948778 
L 264.914321 496.897178 
L 271.007302 495.556976 
L 277.151476 493.927638 
L 283.341605 492.0094 
L 289.571782 489.803167 
L 295.835531 487.310396 
L 302.125909 484.533004 
L 308.435599 481.473268 
L 314.756999 478.133748 
L 321.082292 474.517214 
L 327.403518 470.626585 
L 333.712628 466.46488 
L 340.001534 462.035178 
L 346.262148 457.340586 
L 352.486415 452.384219 
L 352.486415 452.384219 
" style="fill:none;stroke:#8d5ccd;stroke-linecap:square;stroke-width:3;"/>
   </g>
   <g id="line2d_2">
    <path clip-path="url(#p75b3090c8f)" d="M 368.587693 340.397367 
L 364.011923 333.888189 
L 359.327527 327.619943 
L 354.541358 321.597885 
L 349.660298 315.827276 
L 344.691243 310.31335 
L 339.641064 305.06127 
L 334.516577 300.07608 
L 329.324501 295.36264 
L 324.07141 290.925547 
L 318.763681 286.769049 
L 313.407438 282.89694 
L 308.008482 279.312444 
L 302.572229 276.018091 
L 297.103634 273.015585 
L 291.607127 270.30567 
L 286.086539 267.887996 
L 280.545048 265.761 
L 274.985132 263.92181 
L 269.408542 262.366174 
L 263.816304 261.088437 
L 258.208749 260.081574 
L 252.585584 259.337291 
L 246.946008 258.846203 
L 241.288861 258.598101 
L 235.612826 258.582312 
L 229.916643 258.788148 
L 224.199352 259.20543 
L 218.460511 259.825088 
L 212.700376 260.639763 
L 206.920003 261.6444 
L 201.121235 262.836711 
L 195.306548 264.217418 
L 189.478743 265.790101 
L 183.640502 267.560461 
L 177.793884 269.534786 
L 171.939914 271.717443 
L 166.078471 274.107348 
L 158.740048 277.368352 
L 151.389617 280.881788 
L 123.78759 294.370079 
L 118.25414 296.699223 
L 112.916765 298.704831 
L 107.816773 300.363922 
L 102.986475 301.678424 
L 98.447936 302.670636 
L 94.213736 303.376876 
L 89.356109 303.92464 
L 84.980438 304.183684 
L 80.354692 304.230923 
L 75.2189 304.044489 
L 66.07656 303.607555 
L 65.841351 303.796778 
L 65.950787 304.035901 
L 66.455951 304.456216 
L 68.103271 305.445277 
L 77.699214 310.859153 
L 81.490511 313.308435 
L 84.976704 315.800501 
L 88.720707 318.780673 
L 91.871083 321.567773 
L 95.130128 324.752172 
L 98.468055 328.36083 
L 101.85412 332.405406 
L 105.259189 336.876152 
L 108.659118 341.737936 
L 112.038336 346.930227 
L 116.227979 353.760636 
L 129.718289 376.207386 
L 134.128731 382.918169 
L 137.767611 388.097619 
L 141.512251 393.098682 
L 145.363338 397.92051 
L 149.31765 402.566224 
L 153.370055 407.039998 
L 157.515214 411.34518 
L 161.748836 415.483267 
L 166.068448 419.453527 
L 170.473735 423.253039 
L 174.966543 426.87698 
L 179.550634 430.319021 
L 184.231285 433.57177 
L 189.014806 436.627184 
L 193.908035 439.476952 
L 198.917851 442.112807 
L 204.050747 444.526789 
L 209.312474 446.711435 
L 214.707761 448.659927 
L 220.240127 450.366174 
L 225.911768 451.824867 
L 231.723507 453.03148 
L 237.674815 453.982258 
L 243.763862 454.674169 
L 249.987613 455.104846 
L 256.341942 455.27252 
L 262.821757 455.175946 
L 269.421136 454.814324 
L 276.133454 454.18723 
L 282.951509 453.294546 
L 289.86764 452.136396 
L 296.87383 450.713094 
L 303.961799 449.025097 
L 311.123088 447.072961 
L 318.349123 444.857315 
L 325.631276 442.378837 
L 332.96091 439.638228 
L 340.32942 436.636207 
L 340.32942 436.636207 
" style="fill:none;stroke:#ad67ba;stroke-linecap:square;stroke-width:3;"/>
   </g>
   <g id="line2d_3">
    <path clip-path="url(#p75b3090c8f)" d="M 387.328826 333.721864 
L 384.772254 326.18721 
L 382.043578 318.853125 
L 379.147892 311.726583 
L 376.090318 304.814571 
L 372.875997 298.124053 
L 369.510068 291.661919 
L 365.997649 285.43493 
L 362.343818 279.44964 
L 358.553587 273.712314 
L 354.631879 268.228823 
L 350.583501 263.004534 
L 346.41311 258.044173 
L 342.12519 253.351695 
L 337.724015 248.930131 
L 333.213627 244.781442 
L 328.597799 240.906371 
L 323.880021 237.304315 
L 319.06348 233.973215 
L 314.151055 230.909486 
L 309.145322 228.107991 
L 304.048578 225.562083 
L 298.86288 223.26372 
L 293.590101 221.203672 
L 288.232007 219.371817 
L 282.790339 217.757544 
L 277.266902 216.350242 
L 271.663639 215.139875 
L 265.982684 214.117613 
L 260.226354 213.276471 
L 254.397088 212.611893 
L 248.497298 212.122205 
L 242.529157 211.808798 
L 236.494343 211.675894 
L 230.393823 211.729719 
L 224.227803 211.976888 
L 217.996034 212.421878 
L 211.698707 213.063615 
L 203.73881 214.125053 
L 195.696274 215.425315 
L 165.412232 220.590846 
L 159.446731 221.26669 
L 153.760512 221.687344 
L 148.399685 221.842397 
L 143.39471 221.742799 
L 138.760476 221.416166 
L 134.49882 220.900886 
L 129.683638 220.05791 
L 125.412231 219.073692 
L 120.960551 217.815795 
L 116.085319 216.189993 
L 107.436407 213.195062 
L 107.157416 213.310355 
L 107.195049 213.570623 
L 107.561335 214.116234 
L 108.863276 215.529335 
L 116.54525 223.4274 
L 119.492931 226.845601 
L 122.135813 230.218894 
L 124.888546 234.133156 
L 127.126092 237.694922 
L 129.355974 241.66851 
L 131.542016 246.071395 
L 133.651432 250.906102 
L 135.659018 256.15507 
L 137.551502 261.777789 
L 139.331001 267.71179 
L 141.426585 275.445879 
L 148.046462 300.784038 
L 150.387605 308.465552 
L 152.419865 314.460389 
L 154.603858 320.31386 
L 156.940483 326.025347 
L 159.425769 331.596935 
L 162.053615 337.031185 
L 164.817956 342.329803 
L 167.714253 347.493017 
L 170.740339 352.519428 
L 173.896735 357.406147 
L 177.186571 362.149063 
L 180.615238 366.743165 
L 184.189885 371.182846 
L 187.91883 375.462168 
L 191.810976 379.575082 
L 195.875253 383.515595 
L 200.120134 387.277898 
L 204.553238 390.856451 
L 209.181024 394.246042 
L 214.008586 397.441822 
L 219.039523 400.439313 
L 224.275904 403.234407 
L 229.718277 405.823349 
L 235.365741 408.202715 
L 241.216051 410.36938 
L 247.265745 412.320484 
L 253.510291 414.053396 
L 259.94423 415.565683 
L 266.561324 416.855069 
L 273.354698 417.919413 
L 280.316966 418.756675 
L 287.440346 419.364899 
L 294.716767 419.742189 
L 302.137954 419.886696 
L 309.695503 419.79661 
L 317.380945 419.470146 
L 325.185796 418.905548 
L 333.101597 418.101079 
L 333.101597 418.101079 
" style="fill:none;stroke:#b43a75;stroke-linecap:square;stroke-width:3;"/>
   </g>
   <g id="line2d_4">
    <path clip-path="url(#p75b3090c8f)" d="M 407.191518 332.596752 
L 406.861262 324.647035 
L 406.309368 316.841275 
L 405.538756 309.187599 
L 404.552374 301.694155 
L 403.353192 294.36907 
L 401.9442 287.220407 
L 400.328405 280.256091 
L 398.50883 273.483845 
L 396.488522 266.911089 
L 394.270549 260.544846 
L 391.858011 254.391617 
L 389.254045 248.457251 
L 386.461839 242.746804 
L 383.484642 237.264391 
L 380.325777 232.013029 
L 376.988656 226.994497 
L 373.476798 222.209198 
L 369.79384 217.656055 
L 365.943555 213.332438 
L 361.929861 209.234145 
L 357.756837 205.355445 
L 353.428719 201.689202 
L 348.949908 198.227087 
L 344.324947 194.959887 
L 339.558498 191.877908 
L 334.655282 188.971478 
L 329.619991 186.231518 
L 324.457158 183.650156 
L 319.170978 181.22134 
L 313.765071 178.941388 
L 308.242224 176.809373 
L 302.604132 174.827242 
L 296.851214 172.999518 
L 290.982644 171.332447 
L 284.996755 169.832435 
L 278.892048 168.503708 
L 272.66901 167.345288 
L 264.732503 166.121168 
L 256.64942 165.102916 
L 226.136796 161.527206 
L 220.222532 160.494998 
L 214.648133 159.29662 
L 209.460774 157.935072 
L 204.686596 156.429445 
L 200.332103 154.810428 
L 196.388245 153.115373 
L 192.005606 150.94995 
L 188.184508 148.802206 
L 184.267543 146.341079 
L 180.047834 143.407621 
L 172.593033 138.097327 
L 172.29286 138.129348 
L 172.255644 138.389676 
L 172.453375 139.01638 
L 173.304462 140.73904 
L 178.450121 150.48144 
L 180.315381 154.591637 
L 181.900841 158.572875 
L 183.439294 163.104116 
L 184.582739 167.151995 
L 185.602806 171.592856 
L 186.459861 176.433272 
L 187.121737 181.66643 
L 187.569196 187.26838 
L 187.800919 193.196514 
L 187.836534 199.391489 
L 187.668287 207.402688 
L 186.881429 233.579508 
L 186.963607 241.609442 
L 187.224604 247.934 
L 187.671017 254.165667 
L 188.30388 260.304102 
L 189.118798 266.350188 
L 190.109193 272.304662 
L 191.268765 278.167453 
L 192.593096 283.937502 
L 194.0805 289.612856 
L 195.732292 295.190887 
L 197.552633 300.668536 
L 199.548107 306.042512 
L 201.727153 311.309448 
L 204.099425 316.465993 
L 206.67517 321.50885 
L 209.464644 326.434783 
L 212.477615 331.240608 
L 215.722952 335.923153 
L 219.208322 340.479241 
L 222.939978 344.905651 
L 226.922637 349.199101 
L 231.159439 353.356233 
L 235.651968 357.373598 
L 240.400325 361.247657 
L 245.403236 364.97478 
L 250.658186 368.551246 
L 256.161566 371.973255 
L 261.908824 375.236934 
L 267.894618 378.338342 
L 274.112952 381.273487 
L 280.557315 384.038332 
L 287.220792 386.628806 
L 294.096172 389.040818 
L 301.176036 391.270261 
L 308.452831 393.313032 
L 315.918935 395.165032 
L 323.5667 396.822184 
L 331.388501 398.280441 
L 331.388501 398.280441 
" style="fill:none;stroke:#cc4552;stroke-linecap:square;stroke-width:3;"/>
   </g>
   <g id="line2d_5">
    <path clip-path="url(#p75b3090c8f)" d="M 426.566611 337.113183 
L 428.489427 329.392442 
L 430.159025 321.747383 
L 431.575918 314.186628 
L 432.740639 306.718825 
L 433.653748 299.35261 
L 434.315841 292.096558 
L 434.727571 284.959124 
L 434.889664 277.948568 
L 434.802952 271.072868 
L 434.4684 264.339628 
L 433.887152 257.755957 
L 433.060569 251.328352 
L 431.990286 245.062564 
L 430.678261 238.963453 
L 429.126831 233.034853 
L 427.338771 227.279431 
L 425.317343 221.698566 
L 423.066339 216.292248 
L 420.590121 211.059018 
L 417.893633 205.995946 
L 414.982401 201.098684 
L 411.862503 196.361578 
L 408.540505 191.777876 
L 405.023365 187.340018 
L 401.318285 183.040017 
L 397.432518 178.869923 
L 393.373128 174.822345 
L 389.14668 170.891007 
L 384.758904 167.071286 
L 380.21431 163.360669 
L 375.515836 159.75905 
L 370.664558 156.268774 
L 365.659602 152.894302 
L 360.498418 149.641392 
L 355.177602 146.515721 
L 349.694525 143.520922 
L 344.049928 140.656194 
L 336.77978 137.245687 
L 329.310993 133.991414 
L 301.041739 121.964146 
L 295.657851 119.307508 
L 290.646876 116.587184 
L 286.053234 113.81934 
L 281.896627 111.02966 
L 278.174652 108.249422 
L 274.868101 105.511916 
L 271.273059 102.199476 
L 268.211832 99.062202 
L 265.146911 95.597231 
L 261.92458 91.59377 
L 256.267834 84.39832 
L 255.970799 84.344475 
L 255.861747 84.583773 
L 255.874907 85.240799 
L 256.206189 87.133458 
L 258.398661 97.930922 
L 259.030389 102.400132 
L 259.429982 106.666777 
L 259.629519 111.447903 
L 259.586226 115.65396 
L 259.313839 120.202321 
L 258.772475 125.088127 
L 257.933189 130.295777 
L 256.784271 135.796873 
L 255.336459 141.550159 
L 253.625305 147.504229 
L 251.206858 155.143517 
L 243.077011 180.038308 
L 240.893566 187.766126 
L 239.362157 193.908026 
L 238.034824 200.013036 
L 236.912655 206.081119 
L 235.991183 212.111885 
L 235.263891 218.104187 
L 234.724753 224.056183 
L 234.369828 229.965612 
L 234.198051 235.830124 
L 234.21142 241.64757 
L 234.414792 247.416184 
L 234.815412 253.134667 
L 235.422323 258.802164 
L 236.245736 264.418178 
L 237.296408 269.982435 
L 238.585093 275.49472 
L 240.12206 280.954726 
L 241.916712 286.361913 
L 243.977303 291.715389 
L 246.310736 297.013827 
L 248.922465 302.255407 
L 251.816447 307.437791 
L 254.995174 312.558116 
L 258.459741 317.613016 
L 262.209947 322.598647 
L 266.244428 327.510731 
L 270.560791 332.344607 
L 275.15576 337.095272 
L 280.02532 341.757445 
L 285.164842 346.325603 
L 290.569216 350.794039 
L 296.232954 355.1569 
L 302.150291 359.408226 
L 308.315264 363.54199 
L 314.721783 367.552124 
L 321.363688 371.432549 
L 328.234792 375.1772 
L 335.328916 378.780043 
L 335.328916 378.780043 
" style="fill:none;stroke:#ec8443;stroke-linecap:square;stroke-width:3;"/>
   </g>
   <g id="line2d_6">
    <path clip-path="url(#p75b3090c8f)" d="M 443.884452 346.905261 
L 447.904565 340.038984 
L 451.660394 333.173984 
L 455.150004 326.318678 
L 458.371469 319.481513 
L 461.322893 312.670933 
L 464.002432 305.895336 
L 466.408332 299.163016 
L 468.538961 292.482103 
L 470.39287 285.860488 
L 471.968843 279.305737 
L 473.265974 272.824995 
L 474.283739 266.424878 
L 475.022086 260.111365 
L 475.481525 253.889671 
L 475.663219 247.764132 
L 475.569078 241.73809 
L 475.201843 235.813787 
L 474.565156 229.992282 
L 473.663614 224.273403 
L 472.502785 218.655733 
L 471.089196 213.136656 
L 469.430273 207.712459 
L 467.534218 202.378514 
L 465.409835 197.129528 
L 463.066287 191.959865 
L 460.512773 186.863942 
L 457.758151 181.836657 
L 454.81049 176.873839 
L 451.676589 171.972664 
L 448.361485 167.131992 
L 444.868026 162.352551 
L 441.196582 157.636893 
L 437.345061 152.989051 
L 433.309392 148.413834 
L 429.08471 143.915728 
L 424.667468 139.497478 
L 420.058604 135.158524 
L 414.043799 129.83793 
L 407.794385 124.611277 
L 384.058707 105.106828 
L 379.641366 101.040987 
L 375.599775 97.0191 
L 371.971999 93.069195 
L 368.769708 89.221464 
L 365.981783 85.505245 
L 363.580414 81.947063 
L 361.064219 77.75596 
L 359.010865 73.88332 
L 357.046291 69.695218 
L 355.082392 64.946089 
L 351.681976 56.448415 
L 351.412143 56.313068 
L 351.240091 56.511949 
L 351.067611 57.146068 
L 350.852251 59.055394 
L 349.913915 70.033175 
L 349.260932 74.499329 
L 348.442286 78.705724 
L 347.286741 83.349397 
L 346.060219 87.372882 
L 344.517443 91.660262 
L 342.621518 96.195638 
L 340.349065 100.955888 
L 337.696848 105.910463 
L 334.686795 111.022805 
L 331.367499 116.253605 
L 326.89478 122.902093 
L 312.080576 144.498028 
L 307.808398 151.297667 
L 304.608649 156.75933 
L 301.615102 162.243091 
L 298.828812 167.749222 
L 296.245603 173.276091 
L 293.859544 178.820761 
L 291.665374 184.379767 
L 289.659948 189.949828 
L 287.842905 195.528391 
L 286.216769 201.113956 
L 284.786697 206.706198 
L 283.560006 212.305909 
L 282.545615 217.914819 
L 281.753458 223.535328 
L 281.193939 229.170202 
L 280.877433 234.822265 
L 280.813881 240.494116 
L 281.012457 246.187886 
L 281.48133 251.905044 
L 282.2275 257.646262 
L 283.256712 263.411331 
L 284.573421 269.19912 
L 286.180826 275.007588 
L 288.080923 280.833809 
L 290.274605 286.674042 
L 292.761767 292.523798 
L 295.541427 298.377927 
L 298.61185 304.23071 
L 301.970673 310.075945 
L 305.615009 315.907031 
L 309.541564 321.717052 
L 313.746721 327.498846 
L 318.226627 333.24507 
L 322.977259 338.948261 
L 327.994484 344.600881 
L 333.274103 350.195363 
L 338.811889 355.724143 
L 344.603613 361.179691 
L 344.603613 361.179691 
" style="fill:none;stroke:#eba302;stroke-linecap:square;stroke-width:3;"/>
   </g>
   <g id="line2d_7">
    <path clip-path="url(#p75b3090c8f)" d="M 457.742051 361.179691 
L 463.533775 355.724143 
L 469.071561 350.195363 
L 474.35118 344.600881 
L 479.368405 338.948261 
L 484.119037 333.24507 
L 488.598943 327.498846 
L 492.8041 321.717052 
L 496.730655 315.907031 
L 500.374992 310.075945 
L 503.733814 304.23071 
L 506.804238 298.377927 
L 509.583897 292.523798 
L 512.071059 286.674042 
L 514.264741 280.833809 
L 516.164839 275.007588 
L 517.772243 269.19912 
L 519.088953 263.411331 
L 520.118164 257.646262 
L 520.864335 251.905044 
L 521.333208 246.187886 
L 521.531784 240.494116 
L 521.468231 234.822265 
L 521.151725 229.170202 
L 520.592206 223.535328 
L 519.80005 217.914819 
L 518.785658 212.305909 
L 517.558968 206.706198 
L 516.128895 201.113956 
L 514.502759 195.528391 
L 512.685716 189.949828 
L 510.68029 184.379767 
L 508.48612 178.820761 
L 506.100061 173.276091 
L 503.516853 167.749222 
L 500.730563 162.243091 
L 497.737015 156.75933 
L 494.537267 151.297667 
L 490.265088 144.498028 
L 485.741338 137.722428 
L 468.46216 112.320934 
L 465.369232 107.175278 
L 462.62445 102.177658 
L 460.256442 97.365689 
L 458.267897 92.77163 
L 456.639882 88.420494 
L 455.338242 84.3299 
L 454.104741 79.599671 
L 453.22561 75.305404 
L 452.52054 70.733465 
L 451.974177 65.623415 
L 451.105574 56.511949 
L 450.884802 56.306063 
L 450.663688 56.448415 
L 450.319543 57.008255 
L 449.574987 58.779566 
L 445.581862 69.04831 
L 443.697068 73.149587 
L 441.726505 76.954954 
L 439.309494 81.084971 
L 436.999108 84.599926 
L 434.310931 88.278986 
L 431.214041 92.096504 
L 427.69252 96.023706 
L 423.751872 100.03037 
L 419.423434 104.087597 
L 414.764906 108.171359 
L 408.600269 113.290426 
L 388.301866 129.83793 
L 382.287061 135.158524 
L 377.678196 139.497478 
L 373.260955 143.915728 
L 369.036272 148.413834 
L 365.000603 152.989051 
L 361.149082 157.636893 
L 357.477639 162.352551 
L 353.984179 167.131992 
L 350.669076 171.972664 
L 347.535174 176.873839 
L 344.587514 181.836657 
L 341.832891 186.863942 
L 339.279377 191.959865 
L 336.935829 197.129528 
L 334.811447 202.378514 
L 332.915391 207.712459 
L 331.256468 213.136656 
L 329.84288 218.655733 
L 328.682051 224.273403 
L 327.780508 229.992282 
L 327.143822 235.813787 
L 326.776586 241.73809 
L 326.682445 247.764132 
L 326.864139 253.889671 
L 327.323578 260.111365 
L 328.061925 266.424878 
L 329.079691 272.824995 
L 330.376821 279.305737 
L 331.952794 285.860488 
L 333.806703 292.482103 
L 335.937333 299.163016 
L 338.343232 305.895336 
L 341.022772 312.670933 
L 343.974196 319.481513 
L 347.19566 326.318678 
L 350.68527 333.173984 
L 354.441099 340.038984 
L 358.461212 346.905261 
L 358.461212 346.905261 
" style="fill:none;stroke:#bda017;stroke-linecap:square;stroke-width:3;"/>
   </g>
   <g id="line2d_8">
    <path clip-path="url(#p75b3090c8f)" d="M 467.016749 378.780043 
L 474.110873 375.1772 
L 480.981976 371.432549 
L 487.623881 367.552124 
L 494.030401 363.54199 
L 500.195374 359.408226 
L 506.11271 355.1569 
L 511.776449 350.794039 
L 517.180822 346.325603 
L 522.320345 341.757445 
L 527.189904 337.095272 
L 531.784873 332.344607 
L 536.101236 327.510731 
L 540.135717 322.598647 
L 543.885923 317.613016 
L 547.35049 312.558116 
L 550.529217 307.437791 
L 553.4232 302.255407 
L 556.034928 297.013827 
L 558.368362 291.715389 
L 560.428952 286.361913 
L 562.223604 280.954726 
L 563.760571 275.49472 
L 565.049256 269.982435 
L 566.099929 264.418178 
L 566.923341 258.802164 
L 567.530252 253.134667 
L 567.930872 247.416184 
L 568.134244 241.64757 
L 568.147614 235.830124 
L 567.975836 229.965612 
L 567.620911 224.056183 
L 567.081774 218.104187 
L 566.354481 212.111885 
L 565.43301 206.081119 
L 564.310841 200.013036 
L 562.983507 193.908026 
L 561.452099 187.766126 
L 559.268653 180.038308 
L 556.837054 172.26268 
L 547.414232 143.022017 
L 545.896288 137.213419 
L 544.670681 131.644943 
L 543.754282 126.360748 
L 543.140584 121.392542 
L 542.804371 116.758993 
L 542.70791 112.467382 
L 542.857034 107.581244 
L 543.223349 103.213245 
L 543.834903 98.62786 
L 544.750339 93.570875 
L 546.483917 84.583773 
L 546.330093 84.324029 
L 546.07783 84.39832 
L 545.589901 84.838525 
L 544.376469 86.32832 
L 537.652054 95.056114 
L 534.688144 98.460253 
L 531.725307 101.556304 
L 528.242641 104.838075 
L 525.035565 107.559739 
L 521.419767 110.332424 
L 517.372803 113.122811 
L 512.887509 115.898807 
L 507.977677 118.632964 
L 502.681518 121.306383 
L 497.061164 123.912265 
L 489.70403 127.087195 
L 465.565884 137.245687 
L 458.295737 140.656194 
L 452.651139 143.520922 
L 447.168062 146.515721 
L 441.847246 149.641392 
L 436.686062 152.894302 
L 431.681107 156.268774 
L 426.829828 159.75905 
L 422.131354 163.360669 
L 417.586761 167.071286 
L 413.198984 170.891007 
L 408.972536 174.822345 
L 404.913146 178.869923 
L 401.02738 183.040017 
L 397.322299 187.340018 
L 393.805159 191.777876 
L 390.483161 196.361578 
L 387.363263 201.098684 
L 384.452031 205.995946 
L 381.755543 211.059018 
L 379.279325 216.292248 
L 377.028322 221.698566 
L 375.006893 227.279431 
L 373.218833 233.034853 
L 371.667403 238.963453 
L 370.355378 245.062564 
L 369.285095 251.328352 
L 368.458512 257.755957 
L 367.877264 264.339628 
L 367.542712 271.072868 
L 367.456 277.948568 
L 367.618093 284.959124 
L 368.029823 292.096558 
L 368.691917 299.35261 
L 369.605025 306.718825 
L 370.769746 314.186628 
L 372.186639 321.747383 
L 373.856237 329.392442 
L 375.779053 337.113183 
L 375.779053 337.113183 
" style="fill:none;stroke:#8ba94d;stroke-linecap:square;stroke-width:3;"/>
   </g>
   <g id="line2d_9">
    <path clip-path="url(#p75b3090c8f)" d="M 470.957164 398.280441 
L 478.778964 396.822184 
L 486.42673 395.165032 
L 493.892833 393.313032 
L 501.169628 391.270261 
L 508.249493 389.040818 
L 515.124873 386.628806 
L 521.78835 384.038332 
L 528.232712 381.273487 
L 534.451047 378.338342 
L 540.43684 375.236934 
L 546.184098 371.973255 
L 551.687478 368.551246 
L 556.942428 364.97478 
L 561.945339 361.247657 
L 566.693696 357.373598 
L 571.186226 353.356233 
L 575.423028 349.199101 
L 579.405686 344.905651 
L 583.137342 340.479241 
L 586.622712 335.923153 
L 589.868049 331.240608 
L 592.88102 326.434783 
L 595.670494 321.50885 
L 598.246239 316.465993 
L 600.618512 311.309448 
L 602.797557 306.042512 
L 604.793032 300.668536 
L 606.613372 295.190887 
L 608.265164 289.612856 
L 609.752569 283.937502 
L 611.076899 278.167453 
L 612.236472 272.304662 
L 613.226867 266.350188 
L 614.041784 260.304102 
L 614.674647 254.165667 
L 615.12106 247.934 
L 615.382058 241.609442 
L 615.464235 233.579508 
L 615.32178 225.433786 
L 614.518695 194.722861 
L 614.69871 188.721897 
L 615.09157 183.03369 
L 615.701021 177.705362 
L 616.511887 172.765505 
L 617.494716 168.224925 
L 618.611248 164.079978 
L 620.130915 159.433776 
L 621.713 155.345915 
L 623.591634 151.118565 
L 625.894706 146.524331 
L 630.09002 138.389676 
L 630.015606 138.097116 
L 629.752632 138.097327 
L 629.160446 138.382235 
L 627.576443 139.469819 
L 618.66551 145.94959 
L 614.862603 148.380807 
L 611.147523 150.516718 
L 606.881348 152.684375 
L 603.0374 154.392254 
L 598.786911 156.033939 
L 594.117736 157.571134 
L 589.032038 158.971029 
L 583.550788 160.211174 
L 577.715971 161.2842 
L 571.58912 162.201089 
L 563.635521 163.174667 
L 537.613161 166.121168 
L 529.676655 167.345288 
L 523.453616 168.503708 
L 517.348909 169.832435 
L 511.363021 171.332447 
L 505.49445 172.999518 
L 499.741532 174.827242 
L 494.10344 176.809373 
L 488.580594 178.941388 
L 483.174687 181.22134 
L 477.888506 183.650156 
L 472.725673 186.231518 
L 467.690382 188.971478 
L 462.787166 191.877908 
L 458.020717 194.959887 
L 453.395756 198.227087 
L 448.916945 201.689202 
L 444.588828 205.355445 
L 440.415803 209.234145 
L 436.40211 213.332438 
L 432.551824 217.656055 
L 428.868866 222.209198 
L 425.357008 226.994497 
L 422.019888 232.013029 
L 418.861022 237.264391 
L 415.883825 242.746804 
L 413.091619 248.457251 
L 410.487654 254.391617 
L 408.075115 260.544846 
L 405.857142 266.911089 
L 403.836834 273.483845 
L 402.01726 280.256091 
L 400.401464 287.220407 
L 398.992472 294.36907 
L 397.79329 301.694155 
L 396.806909 309.187599 
L 396.036297 316.841275 
L 395.484402 324.647035 
L 395.154147 332.596752 
L 395.154147 332.596752 
" style="fill:none;stroke:#3cb496;stroke-linecap:square;stroke-width:3;"/>
   </g>
   <g id="line2d_10">
    <path clip-path="url(#p75b3090c8f)" d="M 469.244067 418.101079 
L 477.159868 418.905548 
L 484.964719 419.470146 
L 492.650162 419.79661 
L 500.207711 419.886696 
L 507.628897 419.742189 
L 514.905318 419.364899 
L 522.028699 418.756675 
L 528.990966 417.919413 
L 535.78434 416.855069 
L 542.401435 415.565683 
L 548.835373 414.053396 
L 555.079919 412.320484 
L 561.129613 410.36938 
L 566.979923 408.202715 
L 572.627387 405.823349 
L 578.06976 403.234407 
L 583.306141 400.439313 
L 588.337079 397.441822 
L 593.16464 394.246042 
L 597.792426 390.856451 
L 602.22553 387.277898 
L 606.470411 383.515595 
L 610.534688 379.575082 
L 614.426834 375.462168 
L 618.155779 371.182846 
L 621.730426 366.743165 
L 625.159094 362.149063 
L 628.448929 357.406147 
L 631.605325 352.519428 
L 634.631411 347.493017 
L 637.527708 342.329803 
L 640.292049 337.031185 
L 642.919895 331.596935 
L 645.405181 326.025347 
L 647.741806 320.31386 
L 649.9258 314.460389 
L 651.958059 308.465552 
L 654.299202 300.784038 
L 656.457432 292.928141 
L 664.339146 263.234969 
L 666.202535 257.527802 
L 668.182035 252.180689 
L 670.267962 247.239898 
L 672.437701 242.728587 
L 674.659947 238.648827 
L 676.899019 234.986344 
L 679.666115 230.956485 
L 682.335798 227.479936 
L 685.329316 223.953095 
L 688.833442 220.193811 
L 695.150615 213.570623 
L 695.161639 213.268949 
L 694.909257 213.195062 
L 694.260791 213.301592 
L 692.434543 213.898856 
L 682.059003 217.605651 
L 677.725188 218.866984 
L 673.558839 219.869717 
L 668.854775 220.747648 
L 664.685368 221.30338 
L 660.144538 221.681064 
L 655.231419 221.840533 
L 649.957332 221.750916 
L 644.348722 221.39658 
L 638.44795 220.782283 
L 632.310962 219.935898 
L 624.40525 218.629252 
L 598.606854 214.125053 
L 590.646957 213.063615 
L 584.349631 212.421878 
L 578.117862 211.976888 
L 571.951841 211.729719 
L 565.851321 211.675894 
L 559.816508 211.808798 
L 553.848367 212.122205 
L 547.948577 212.611893 
L 542.11931 213.276471 
L 536.36298 214.117613 
L 530.682025 215.139875 
L 525.078763 216.350242 
L 519.555325 217.757544 
L 514.113657 219.371817 
L 508.755563 221.203672 
L 503.482784 223.26372 
L 498.297086 225.562083 
L 493.200342 228.107991 
L 488.194609 230.909486 
L 483.282184 233.973215 
L 478.465643 237.304315 
L 473.747865 240.906371 
L 469.132038 244.781442 
L 464.621649 248.930131 
L 460.220475 253.351695 
L 455.932554 258.044173 
L 451.762163 263.004534 
L 447.713785 268.228823 
L 443.792077 273.712314 
L 440.001847 279.44964 
L 436.348015 285.43493 
L 432.835596 291.661919 
L 429.469667 298.124053 
L 426.255346 304.814571 
L 423.197773 311.726583 
L 420.302086 318.853125 
L 417.57341 326.18721 
L 415.016838 333.721864 
L 415.016838 333.721864 
" style="fill:none;stroke:#1cb2d0;stroke-linecap:square;stroke-width:3;"/>
   </g>
   <g id="line2d_11">
    <path clip-path="url(#p75b3090c8f)" d="M 462.016244 436.636207 
L 469.384754 439.638228 
L 476.714389 442.378837 
L 483.996541 444.857315 
L 491.222576 447.072961 
L 498.383865 449.025097 
L 505.471834 450.713094 
L 512.478024 452.136396 
L 519.394155 453.294546 
L 526.21221 454.18723 
L 532.924528 454.814324 
L 539.523907 455.175946 
L 546.003722 455.27252 
L 552.358051 455.104846 
L 558.581802 454.674169 
L 564.670849 453.982258 
L 570.622157 453.03148 
L 576.433897 451.824867 
L 582.105537 450.366174 
L 587.637903 448.659927 
L 593.03319 446.711435 
L 598.294917 444.526789 
L 603.427814 442.112807 
L 608.43763 439.476952 
L 613.330858 436.627184 
L 618.114379 433.57177 
L 622.79503 430.319021 
L 627.379121 426.87698 
L 631.871929 423.253039 
L 636.277217 419.453527 
L 640.596829 415.483267 
L 644.830451 411.34518 
L 648.975609 407.039998 
L 653.028014 402.566224 
L 656.982327 397.92051 
L 660.833414 393.098682 
L 664.578054 388.097619 
L 668.216933 382.918169 
L 672.627375 376.207386 
L 676.911444 369.277752 
L 692.839426 343.007897 
L 696.23523 338.056888 
L 699.641002 333.484061 
L 703.034416 329.33108 
L 706.387249 325.613795 
L 709.668879 322.325373 
L 712.849093 319.442065 
L 716.639445 316.355026 
L 720.180444 313.771437 
L 724.04633 311.23083 
L 728.467627 308.61105 
L 736.394878 304.035901 
L 736.490446 303.749552 
L 736.269104 303.607555 
L 735.616893 303.527075 
L 733.696352 303.585632 
L 722.69677 304.219149 
L 718.183145 304.208412 
L 713.903061 303.996731 
L 709.142202 303.513811 
L 704.985118 302.872375 
L 700.521818 301.955461 
L 695.762787 300.724284 
L 690.727585 299.152416 
L 685.445991 297.232304 
L 679.95731 294.980451 
L 674.307367 292.439361 
L 667.090017 288.958347 
L 643.605616 277.368352 
L 636.267193 274.107348 
L 630.405751 271.717443 
L 624.55178 269.534786 
L 618.705163 267.560461 
L 612.866921 265.790101 
L 607.039116 264.217418 
L 601.22443 262.836711 
L 595.425662 261.6444 
L 589.645288 260.639763 
L 583.885153 259.825088 
L 578.146312 259.20543 
L 572.429021 258.788148 
L 566.732839 258.582312 
L 561.056803 258.598101 
L 555.399656 258.846203 
L 549.76008 259.337291 
L 544.136915 260.081574 
L 538.52936 261.088437 
L 532.937122 262.366174 
L 527.360532 263.92181 
L 521.800616 265.761 
L 516.259125 267.887996 
L 510.738537 270.30567 
L 505.24203 273.015585 
L 499.773436 276.018091 
L 494.337182 279.312444 
L 488.938227 282.89694 
L 483.581983 286.769049 
L 478.274255 290.925547 
L 473.021163 295.36264 
L 467.829087 300.07608 
L 462.7046 305.06127 
L 457.654421 310.31335 
L 452.685366 315.827276 
L 447.804307 321.597885 
L 443.018137 327.619943 
L 438.333741 333.888189 
L 433.757971 340.397367 
L 433.757971 340.397367 
" style="fill:none;stroke:#6098dd;stroke-linecap:square;stroke-width:3;"/>
   </g>
   <g id="line2d_12">
    <path clip-path="url(#p75b3090c8f)" d="M 449.85925 452.384219 
L 456.083516 457.340586 
L 462.34413 462.035178 
L 468.633036 466.46488 
L 474.942146 470.626585 
L 481.263373 474.517214 
L 487.588666 478.133748 
L 493.910065 481.473268 
L 500.219756 484.533004 
L 506.510133 487.310396 
L 512.773882 489.803167 
L 519.004059 492.0094 
L 525.194189 493.927638 
L 531.338362 495.556976 
L 537.431343 496.897178 
L 543.468675 497.948778 
L 549.446778 498.71319 
L 555.363043 499.192809 
L 561.215903 499.39109 
L 567.004876 499.312605 
L 572.730569 498.963069 
L 578.394645 498.349316 
L 583.99972 497.479221 
L 589.54921 496.361565 
L 595.047101 495.005814 
L 600.497665 493.42184 
L 605.905122 491.619542 
L 611.27326 489.608415 
L 616.60506 487.39704 
L 621.902349 484.992547 
L 627.165538 482.400086 
L 632.393502 479.62237 
L 637.583662 476.659405 
L 642.732324 473.508544 
L 647.835308 470.165073 
L 652.888865 466.623539 
L 657.890783 462.880042 
L 662.841482 458.935586 
L 668.963916 453.739203 
L 675.026754 448.297229 
L 697.710614 427.578919 
L 702.363724 423.785169 
L 706.919853 420.35709 
L 711.34584 417.32837 
L 715.610139 414.706263 
L 719.685296 412.475588 
L 723.549011 410.605044 
L 728.055547 408.710916 
L 732.180991 407.229596 
L 736.606054 405.881047 
L 741.586334 404.61301 
L 750.481444 402.456551 
L 750.653815 402.208726 
L 750.481444 402.010121 
L 749.878326 401.749153 
L 748.019083 401.264259 
L 737.286579 398.773173 
L 732.958813 397.491236 
L 728.911739 396.08229 
L 724.479783 394.277644 
L 720.671803 392.491004 
L 716.647623 390.353774 
L 712.428228 387.831695 
L 708.039835 384.904918 
L 703.51314 381.574588 
L 698.881209 377.86761 
L 694.176036 373.83768 
L 688.231755 368.464308 
L 668.963916 350.727469 
L 662.841482 345.531086 
L 657.890783 341.58663 
L 652.888865 337.843132 
L 647.835308 334.301599 
L 642.732324 330.958128 
L 637.583662 327.807267 
L 632.393502 324.844301 
L 627.165538 322.066586 
L 621.902349 319.474125 
L 616.60506 317.069632 
L 611.27326 314.858257 
L 605.905122 312.84713 
L 600.497665 311.044832 
L 595.047101 309.460857 
L 589.54921 308.105107 
L 583.99972 306.98745 
L 578.394645 306.117356 
L 572.730569 305.503603 
L 567.004876 305.154067 
L 561.215903 305.075582 
L 555.363043 305.273863 
L 549.446778 305.753482 
L 543.468675 306.517894 
L 537.431343 307.569493 
L 531.338362 308.909695 
L 525.194189 310.539034 
L 519.004059 312.457272 
L 512.773882 314.663505 
L 506.510133 317.156275 
L 500.219756 319.933668 
L 493.910065 322.993404 
L 487.588666 326.332924 
L 481.263373 329.949458 
L 474.942146 333.840087 
L 468.633036 338.001792 
L 462.34413 342.431494 
L 456.083516 347.126086 
L 449.85925 352.082453 
L 449.85925 352.082453 
" style="fill:none;stroke:#8d5ccd;stroke-linecap:square;stroke-width:3;"/>
   </g>
   <g id="line2d_13">
    <path clip-path="url(#p75b3090c8f)" d="M 433.757971 464.069305 
L 438.333741 470.578483 
L 443.018137 476.846729 
L 447.804307 482.868787 
L 452.685366 488.639396 
L 457.654421 494.153322 
L 462.7046 499.405402 
L 467.829087 504.390592 
L 473.021163 509.104032 
L 478.274255 513.541125 
L 483.581983 517.697622 
L 488.938227 521.569732 
L 494.337182 525.154228 
L 499.773436 528.448581 
L 505.24203 531.451086 
L 510.738537 534.161001 
L 516.259125 536.578676 
L 521.800616 538.705672 
L 527.360532 540.544862 
L 532.937122 542.100498 
L 538.52936 543.378235 
L 544.136915 544.385098 
L 549.76008 545.129381 
L 555.399656 545.620469 
L 561.056803 545.868571 
L 566.732839 545.884359 
L 572.429021 545.678524 
L 578.146312 545.261241 
L 583.885153 544.641584 
L 589.645288 543.826909 
L 595.425662 542.822272 
L 601.22443 541.629961 
L 607.039116 540.249254 
L 612.866921 538.676571 
L 618.705163 536.906211 
L 624.55178 534.931885 
L 630.405751 532.749229 
L 636.267193 530.359324 
L 643.605616 527.09832 
L 650.956047 523.584884 
L 678.558074 510.096592 
L 684.091524 507.767449 
L 689.428899 505.761841 
L 694.528891 504.10275 
L 699.359189 502.788248 
L 703.897728 501.796035 
L 708.131928 501.089796 
L 712.989555 500.542032 
L 717.365226 500.282988 
L 721.990972 500.235749 
L 727.126764 500.422183 
L 736.269104 500.859117 
L 736.504313 500.669894 
L 736.394878 500.430771 
L 735.889713 500.010456 
L 734.242393 499.021394 
L 724.646451 493.607519 
L 720.855153 491.158237 
L 717.36896 488.666171 
L 713.624957 485.685999 
L 710.474582 482.898899 
L 707.215536 479.714499 
L 703.877609 476.105841 
L 700.491544 472.061266 
L 697.086475 467.59052 
L 693.686546 462.728735 
L 690.307329 457.536445 
L 686.117686 450.706035 
L 672.627375 428.259285 
L 668.216933 421.548503 
L 664.578054 416.369053 
L 660.833414 411.36799 
L 656.982327 406.546161 
L 653.028014 401.900448 
L 648.975609 397.426673 
L 644.830451 393.121492 
L 640.596829 388.983405 
L 636.277217 385.013145 
L 631.871929 381.213633 
L 627.379121 377.589692 
L 622.79503 374.147651 
L 618.114379 370.894902 
L 613.330858 367.839488 
L 608.43763 364.98972 
L 603.427814 362.353865 
L 598.294917 359.939883 
L 593.03319 357.755236 
L 587.637903 355.806745 
L 582.105537 354.100498 
L 576.433897 352.641805 
L 570.622157 351.435191 
L 564.670849 350.484413 
L 558.581802 349.792503 
L 552.358051 349.361826 
L 546.003722 349.194152 
L 539.523907 349.290726 
L 532.924528 349.652348 
L 526.21221 350.279441 
L 519.394155 351.172126 
L 512.478024 352.330276 
L 505.471834 353.753577 
L 498.383865 355.441575 
L 491.222576 357.393711 
L 483.996541 359.609356 
L 476.714389 362.087835 
L 469.384754 364.828444 
L 462.016244 367.830465 
L 462.016244 367.830465 
" style="fill:none;stroke:#ad67ba;stroke-linecap:square;stroke-width:3;"/>
   </g>
   <g id="line2d_14">
    <path clip-path="url(#p75b3090c8f)" d="M 415.016838 470.744808 
L 417.57341 478.279462 
L 420.302086 485.613547 
L 423.197773 492.740089 
L 426.255346 499.652101 
L 429.469667 506.342619 
L 432.835596 512.804753 
L 436.348015 519.031742 
L 440.001847 525.017032 
L 443.792077 530.754358 
L 447.713785 536.237848 
L 451.762163 541.462138 
L 455.932554 546.422499 
L 460.220475 551.114977 
L 464.621649 555.536541 
L 469.132038 559.68523 
L 473.747865 563.560301 
L 478.465643 567.162357 
L 483.282184 570.493456 
L 488.194609 573.557185 
L 493.200342 576.358681 
L 498.297086 578.904589 
L 503.482784 581.202952 
L 508.755563 583.263 
L 514.113657 585.094854 
L 519.555325 586.709127 
L 525.078763 588.11643 
L 530.682025 589.326797 
L 536.36298 590.349059 
L 542.11931 591.190201 
L 547.948577 591.854779 
L 553.848367 592.344466 
L 559.816508 592.657874 
L 565.851321 592.790778 
L 571.951841 592.736953 
L 578.117862 592.489784 
L 584.349631 592.044794 
L 590.646957 591.403057 
L 598.606854 590.341619 
L 606.64939 589.041357 
L 636.933432 583.875826 
L 642.898933 583.199982 
L 648.585152 582.779327 
L 653.945979 582.624275 
L 658.950954 582.723873 
L 663.585189 583.050505 
L 667.846845 583.565786 
L 672.662027 584.408761 
L 676.933433 585.392979 
L 681.385113 586.650877 
L 686.260345 588.276679 
L 694.909257 591.27161 
L 695.188249 591.156317 
L 695.150615 590.896049 
L 694.78433 590.350438 
L 693.482389 588.937337 
L 685.800414 581.039272 
L 682.852733 577.621071 
L 680.209852 574.247778 
L 677.457119 570.333516 
L 675.219572 566.77175 
L 672.98969 562.798161 
L 670.803649 558.395277 
L 668.694232 553.56057 
L 666.686647 548.311602 
L 664.794162 542.688883 
L 663.014664 536.754882 
L 660.919079 529.020793 
L 654.299202 503.682634 
L 651.958059 496.00112 
L 649.9258 490.006283 
L 647.741806 484.152811 
L 645.405181 478.441325 
L 642.919895 472.869737 
L 640.292049 467.435487 
L 637.527708 462.136869 
L 634.631411 456.973655 
L 631.605325 451.947243 
L 628.448929 447.060525 
L 625.159094 442.317609 
L 621.730426 437.723507 
L 618.155779 433.283826 
L 614.426834 429.004504 
L 610.534688 424.89159 
L 606.470411 420.951076 
L 602.22553 417.188774 
L 597.792426 413.610221 
L 593.16464 410.220629 
L 588.337079 407.024849 
L 583.306141 404.027358 
L 578.06976 401.232265 
L 572.627387 398.643323 
L 566.979923 396.263957 
L 561.129613 394.097292 
L 555.079919 392.146188 
L 548.835373 390.413276 
L 542.401435 388.900989 
L 535.78434 387.611603 
L 528.990966 386.547259 
L 522.028699 385.709997 
L 514.905318 385.101773 
L 507.628897 384.724483 
L 500.207711 384.579976 
L 492.650162 384.670062 
L 484.964719 384.996526 
L 477.159868 385.561124 
L 469.244067 386.365593 
L 469.244067 386.365593 
" style="fill:none;stroke:#b43a75;stroke-linecap:square;stroke-width:3;"/>
   </g>
   <g id="line2d_15">
    <path clip-path="url(#p75b3090c8f)" d="M 395.154147 471.869919 
L 395.484402 479.819636 
L 396.036297 487.625396 
L 396.806909 495.279072 
L 397.79329 502.772517 
L 398.992472 510.097601 
L 400.401464 517.246265 
L 402.01726 524.21058 
L 403.836834 530.982827 
L 405.857142 537.555583 
L 408.075115 543.921826 
L 410.487654 550.075055 
L 413.091619 556.009421 
L 415.883825 561.719867 
L 418.861022 567.202281 
L 422.019888 572.453643 
L 425.357008 577.472175 
L 428.868866 582.257474 
L 432.551824 586.810617 
L 436.40211 591.134233 
L 440.415803 595.232526 
L 444.588828 599.111227 
L 448.916945 602.777469 
L 453.395756 606.239584 
L 458.020717 609.506785 
L 462.787166 612.588764 
L 467.690382 615.495193 
L 472.725673 618.235153 
L 477.888506 620.816516 
L 483.174687 623.245332 
L 488.580594 625.525284 
L 494.10344 627.657298 
L 499.741532 629.63943 
L 505.49445 631.467154 
L 511.363021 633.134224 
L 517.348909 634.634236 
L 523.453616 635.962964 
L 529.676655 637.121384 
L 537.613161 638.345504 
L 545.696244 639.363756 
L 576.208868 642.939466 
L 582.123132 643.971674 
L 587.697531 645.170052 
L 592.88489 646.5316 
L 597.659069 648.037227 
L 602.013561 649.656244 
L 605.957419 651.351299 
L 610.340058 653.516721 
L 614.161157 655.664466 
L 618.078121 658.125593 
L 622.297831 661.05905 
L 629.752632 666.369345 
L 630.052804 666.337324 
L 630.09002 666.076996 
L 629.892289 665.450292 
L 629.041202 663.727632 
L 623.895544 653.985232 
L 622.030283 649.875034 
L 620.444823 645.893797 
L 618.90637 641.362556 
L 617.762926 637.314677 
L 616.742859 632.873816 
L 615.885803 628.0334 
L 615.223927 622.800242 
L 614.776468 617.198292 
L 614.544745 611.270158 
L 614.509131 605.075182 
L 614.677377 597.063984 
L 615.464235 570.887164 
L 615.382058 562.857229 
L 615.12106 556.532672 
L 614.674647 550.301005 
L 614.041784 544.16257 
L 613.226867 538.116484 
L 612.236472 532.16201 
L 611.076899 526.299219 
L 609.752569 520.52917 
L 608.265164 514.853816 
L 606.613372 509.275785 
L 604.793032 503.798136 
L 602.797557 498.42416 
L 600.618512 493.157223 
L 598.246239 488.000678 
L 595.670494 482.957822 
L 592.88102 478.031888 
L 589.868049 473.226064 
L 586.622712 468.543518 
L 583.137342 463.987431 
L 579.405686 459.561021 
L 575.423028 455.267571 
L 571.186226 451.110439 
L 566.693696 447.093074 
L 561.945339 443.219014 
L 556.942428 439.491892 
L 551.687478 435.915426 
L 546.184098 432.493416 
L 540.43684 429.229738 
L 534.451047 426.12833 
L 528.232712 423.193185 
L 521.78835 420.42834 
L 515.124873 417.837866 
L 508.249493 415.425854 
L 501.169628 413.19641 
L 493.892833 411.15364 
L 486.42673 409.30164 
L 478.778964 407.644488 
L 470.957164 406.186231 
L 470.957164 406.186231 
" style="fill:none;stroke:#cc4552;stroke-linecap:square;stroke-width:3;"/>
   </g>
   <g id="line2d_16">
    <path clip-path="url(#p75b3090c8f)" d="M 375.779053 467.353489 
L 373.856237 475.07423 
L 372.186639 482.719289 
L 370.769746 490.280044 
L 369.605025 497.747847 
L 368.691917 505.114062 
L 368.029823 512.370114 
L 367.618093 519.507548 
L 367.456 526.518104 
L 367.542712 533.393804 
L 367.877264 540.127044 
L 368.458512 546.710715 
L 369.285095 553.13832 
L 370.355378 559.404108 
L 371.667403 565.503219 
L 373.218833 571.431819 
L 375.006893 577.187241 
L 377.028322 582.768106 
L 379.279325 588.174424 
L 381.755543 593.407654 
L 384.452031 598.470726 
L 387.363263 603.367988 
L 390.483161 608.105094 
L 393.805159 612.688796 
L 397.322299 617.126654 
L 401.02738 621.426655 
L 404.913146 625.596749 
L 408.972536 629.644327 
L 413.198984 633.575664 
L 417.586761 637.395385 
L 422.131354 641.106003 
L 426.829828 644.707622 
L 431.681107 648.197897 
L 436.686062 651.57237 
L 441.847246 654.82528 
L 447.168062 657.95095 
L 452.651139 660.94575 
L 458.295737 663.810478 
L 465.565884 667.220985 
L 473.034671 670.475258 
L 501.303925 682.502526 
L 506.687813 685.159163 
L 511.698788 687.879488 
L 516.29243 690.647332 
L 520.449037 693.437012 
L 524.171012 696.217249 
L 527.477564 698.954756 
L 531.072605 702.267196 
L 534.133833 705.40447 
L 537.198753 708.86944 
L 540.421084 712.872901 
L 546.07783 720.068352 
L 546.374865 720.122196 
L 546.483917 719.882899 
L 546.470758 719.225873 
L 546.139475 717.333214 
L 543.947003 706.53575 
L 543.315275 702.06654 
L 542.915682 697.799895 
L 542.716145 693.018769 
L 542.759438 688.812711 
L 543.031826 684.264351 
L 543.57319 679.378545 
L 544.412475 674.170895 
L 545.561393 668.669799 
L 547.009205 662.916512 
L 548.72036 656.962443 
L 551.138806 649.323155 
L 559.268653 624.428364 
L 561.452099 616.700546 
L 562.983507 610.558646 
L 564.310841 604.453636 
L 565.43301 598.385553 
L 566.354481 592.354787 
L 567.081774 586.362485 
L 567.620911 580.410488 
L 567.975836 574.50106 
L 568.147614 568.636548 
L 568.134244 562.819102 
L 567.930872 557.050488 
L 567.530252 551.332005 
L 566.923341 545.664508 
L 566.099929 540.048493 
L 565.049256 534.484237 
L 563.760571 528.971952 
L 562.223604 523.511946 
L 560.428952 518.104759 
L 558.368362 512.751283 
L 556.034928 507.452845 
L 553.4232 502.211265 
L 550.529217 497.028881 
L 547.35049 491.908555 
L 543.885923 486.853656 
L 540.135717 481.868025 
L 536.101236 476.95594 
L 531.784873 472.122065 
L 527.189904 467.371399 
L 522.320345 462.709227 
L 517.180822 458.141069 
L 511.776449 453.672633 
L 506.11271 449.309772 
L 500.195374 445.058446 
L 494.030401 440.924682 
L 487.623881 436.914548 
L 480.981976 433.034123 
L 474.110873 429.289472 
L 467.016749 425.686629 
L 467.016749 425.686629 
" style="fill:none;stroke:#ec8443;stroke-linecap:square;stroke-width:3;"/>
   </g>
   <g id="line2d_17">
    <path clip-path="url(#p75b3090c8f)" d="M 358.461212 457.561411 
L 354.441099 464.427688 
L 350.68527 471.292688 
L 347.19566 478.147994 
L 343.974196 484.985159 
L 341.022772 491.795739 
L 338.343232 498.571336 
L 335.937333 505.303656 
L 333.806703 511.984568 
L 331.952794 518.606183 
L 330.376821 525.160934 
L 329.079691 531.641677 
L 328.061925 538.041794 
L 327.323578 544.355307 
L 326.864139 550.577001 
L 326.682445 556.70254 
L 326.776586 562.728581 
L 327.143822 568.652885 
L 327.780508 574.47439 
L 328.682051 580.193269 
L 329.84288 585.810939 
L 331.256468 591.330016 
L 332.915391 596.754213 
L 334.811447 602.088158 
L 336.935829 607.337144 
L 339.279377 612.506807 
L 341.832891 617.60273 
L 344.587514 622.630015 
L 347.535174 627.592833 
L 350.669076 632.494008 
L 353.984179 637.33468 
L 357.477639 642.11412 
L 361.149082 646.829779 
L 365.000603 651.47762 
L 369.036272 656.052838 
L 373.260955 660.550944 
L 377.678196 664.969194 
L 382.287061 669.308147 
L 388.301866 674.628742 
L 394.551279 679.855395 
L 418.286957 699.359843 
L 422.704298 703.425685 
L 426.74589 707.447572 
L 430.373665 711.397477 
L 433.575956 715.245207 
L 436.363882 718.961427 
L 438.76525 722.519608 
L 441.281445 726.710712 
L 443.334799 730.583351 
L 445.299374 734.771454 
L 447.263273 739.520582 
L 450.663688 748.018256 
L 450.933521 748.153604 
L 451.105574 747.954723 
L 451.278053 747.320604 
L 451.493413 745.411278 
L 452.431749 734.433496 
L 453.084733 729.967342 
L 453.903378 725.760948 
L 455.058923 721.117275 
L 456.285445 717.093789 
L 457.828221 712.80641 
L 459.724146 708.271034 
L 461.996599 703.510784 
L 464.648816 698.556209 
L 467.65887 693.443866 
L 470.978165 688.213067 
L 475.450884 681.564579 
L 490.265088 659.968644 
L 494.537267 653.169004 
L 497.737015 647.707342 
L 500.730563 642.223581 
L 503.516853 636.717449 
L 506.100061 631.190581 
L 508.48612 625.645911 
L 510.68029 620.086905 
L 512.685716 614.516843 
L 514.502759 608.938281 
L 516.128895 603.352715 
L 517.558968 597.760474 
L 518.785658 592.160763 
L 519.80005 586.551853 
L 520.592206 580.931344 
L 521.151725 575.29647 
L 521.468231 569.644407 
L 521.531784 563.972556 
L 521.333208 558.278786 
L 520.864335 552.561628 
L 520.118164 546.82041 
L 519.088953 541.055341 
L 517.772243 535.267552 
L 516.164839 529.459084 
L 514.264741 523.632862 
L 512.071059 517.79263 
L 509.583897 511.942874 
L 506.804238 506.088745 
L 503.733814 500.235962 
L 500.374992 494.390727 
L 496.730655 488.559641 
L 492.8041 482.74962 
L 488.598943 476.967826 
L 484.119037 471.221602 
L 479.368405 465.518411 
L 474.35118 459.86579 
L 469.071561 454.271309 
L 463.533775 448.742529 
L 457.742051 443.286981 
L 457.742051 443.286981 
" style="fill:none;stroke:#eba302;stroke-linecap:square;stroke-width:3;"/>
   </g>
   <g id="line2d_18">
    <path clip-path="url(#p75b3090c8f)" d="M 344.603613 443.286981 
L 338.811889 448.742529 
L 333.274103 454.271309 
L 327.994484 459.86579 
L 322.977259 465.518411 
L 318.226627 471.221602 
L 313.746721 476.967826 
L 309.541564 482.74962 
L 305.615009 488.559641 
L 301.970673 494.390727 
L 298.61185 500.235962 
L 295.541427 506.088745 
L 292.761767 511.942874 
L 290.274605 517.79263 
L 288.080923 523.632862 
L 286.180826 529.459084 
L 284.573421 535.267552 
L 283.256712 541.055341 
L 282.2275 546.82041 
L 281.48133 552.561628 
L 281.012457 558.278786 
L 280.813881 563.972556 
L 280.877433 569.644407 
L 281.193939 575.29647 
L 281.753458 580.931344 
L 282.545615 586.551853 
L 283.560006 592.160763 
L 284.786697 597.760474 
L 286.216769 603.352715 
L 287.842905 608.938281 
L 289.659948 614.516843 
L 291.665374 620.086905 
L 293.859544 625.645911 
L 296.245603 631.190581 
L 298.828812 636.717449 
L 301.615102 642.223581 
L 304.608649 647.707342 
L 307.808398 653.169004 
L 312.080576 659.968644 
L 316.604326 666.744244 
L 333.883504 692.145738 
L 336.976432 697.291393 
L 339.721214 702.289014 
L 342.089222 707.100982 
L 344.077767 711.695042 
L 345.705782 716.046178 
L 347.007423 720.136772 
L 348.240924 724.867 
L 349.120054 729.161267 
L 349.825124 733.733207 
L 350.371487 738.843257 
L 351.240091 747.954723 
L 351.460862 748.160609 
L 351.681976 748.018256 
L 352.026121 747.458417 
L 352.770677 745.687106 
L 356.763802 735.418362 
L 358.648596 731.317085 
L 360.619159 727.511718 
L 363.03617 723.381701 
L 365.346557 719.866746 
L 368.034733 716.187686 
L 371.131623 712.370168 
L 374.653144 708.442966 
L 378.593792 704.436302 
L 382.922231 700.379075 
L 387.580758 696.295313 
L 393.745396 691.176246 
L 414.043799 674.628742 
L 420.058604 669.308147 
L 424.667468 664.969194 
L 429.08471 660.550944 
L 433.309392 656.052838 
L 437.345061 651.47762 
L 441.196582 646.829779 
L 444.868026 642.11412 
L 448.361485 637.33468 
L 451.676589 632.494008 
L 454.81049 627.592833 
L 457.758151 622.630015 
L 460.512773 617.60273 
L 463.066287 612.506807 
L 465.409835 607.337144 
L 467.534218 602.088158 
L 469.430273 596.754213 
L 471.089196 591.330016 
L 472.502785 585.810939 
L 473.663614 580.193269 
L 474.565156 574.47439 
L 475.201843 568.652885 
L 475.569078 562.728581 
L 475.663219 556.70254 
L 475.481525 550.577001 
L 475.022086 544.355307 
L 474.283739 538.041794 
L 473.265974 531.641677 
L 471.968843 525.160934 
L 470.39287 518.606183 
L 468.538961 511.984568 
L 466.408332 505.303656 
L 464.002432 498.571336 
L 461.322893 491.795739 
L 458.371469 484.985159 
L 455.150004 478.147994 
L 451.660394 471.292688 
L 447.904565 464.427688 
L 443.884452 457.561411 
L 443.884452 457.561411 
" style="fill:none;stroke:#bda017;stroke-linecap:square;stroke-width:3;"/>
   </g>
   <g id="line2d_19">
    <path clip-path="url(#p75b3090c8f)" d="M 335.328916 425.686629 
L 328.234792 429.289472 
L 321.363688 433.034123 
L 314.721783 436.914548 
L 308.315264 440.924682 
L 302.150291 445.058446 
L 296.232954 449.309772 
L 290.569216 453.672633 
L 285.164842 458.141069 
L 280.02532 462.709227 
L 275.15576 467.371399 
L 270.560791 472.122065 
L 266.244428 476.95594 
L 262.209947 481.868025 
L 258.459741 486.853656 
L 254.995174 491.908555 
L 251.816447 497.028881 
L 248.922465 502.211265 
L 246.310736 507.452845 
L 243.977303 512.751283 
L 241.916712 518.104759 
L 240.12206 523.511946 
L 238.585093 528.971952 
L 237.296408 534.484237 
L 236.245736 540.048493 
L 235.422323 545.664508 
L 234.815412 551.332005 
L 234.414792 557.050488 
L 234.21142 562.819102 
L 234.198051 568.636548 
L 234.369828 574.50106 
L 234.724753 580.410488 
L 235.263891 586.362485 
L 235.991183 592.354787 
L 236.912655 598.385553 
L 238.034824 604.453636 
L 239.362157 610.558646 
L 240.893566 616.700546 
L 243.077011 624.428364 
L 245.50861 632.203992 
L 254.931432 661.444654 
L 256.449377 667.253253 
L 257.674983 672.821729 
L 258.591382 678.105924 
L 259.205081 683.07413 
L 259.541293 687.707679 
L 259.637754 691.99929 
L 259.488631 696.885428 
L 259.122315 701.253427 
L 258.510761 705.838812 
L 257.595325 710.895797 
L 255.861747 719.882899 
L 256.015571 720.142643 
L 256.267834 720.068352 
L 256.755763 719.628147 
L 257.969196 718.138352 
L 264.693611 709.410557 
L 267.657521 706.006419 
L 270.620358 702.910368 
L 274.103023 699.628597 
L 277.3101 696.906933 
L 280.925897 694.134247 
L 284.972861 691.343861 
L 289.458156 688.567865 
L 294.367988 685.833708 
L 299.664147 683.160289 
L 305.2845 680.554407 
L 312.641634 677.379477 
L 336.77978 667.220985 
L 344.049928 663.810478 
L 349.694525 660.94575 
L 355.177602 657.95095 
L 360.498418 654.82528 
L 365.659602 651.57237 
L 370.664558 648.197897 
L 375.515836 644.707622 
L 380.21431 641.106003 
L 384.758904 637.395385 
L 389.14668 633.575664 
L 393.373128 629.644327 
L 397.432518 625.596749 
L 401.318285 621.426655 
L 405.023365 617.126654 
L 408.540505 612.688796 
L 411.862503 608.105094 
L 414.982401 603.367988 
L 417.893633 598.470726 
L 420.590121 593.407654 
L 423.066339 588.174424 
L 425.317343 582.768106 
L 427.338771 577.187241 
L 429.126831 571.431819 
L 430.678261 565.503219 
L 431.990286 559.404108 
L 433.060569 553.13832 
L 433.887152 546.710715 
L 434.4684 540.127044 
L 434.802952 533.393804 
L 434.889664 526.518104 
L 434.727571 519.507548 
L 434.315841 512.370114 
L 433.653748 505.114062 
L 432.740639 497.747847 
L 431.575918 490.280044 
L 430.159025 482.719289 
L 428.489427 475.07423 
L 426.566611 467.353489 
L 426.566611 467.353489 
" style="fill:none;stroke:#8ba94d;stroke-linecap:square;stroke-width:3;"/>
   </g>
   <g id="line2d_20">
    <path clip-path="url(#p75b3090c8f)" d="M 331.388501 406.186231 
L 323.5667 407.644488 
L 315.918935 409.30164 
L 308.452831 411.15364 
L 301.176036 413.19641 
L 294.096172 415.425854 
L 287.220792 417.837866 
L 280.557315 420.42834 
L 274.112952 423.193185 
L 267.894618 426.12833 
L 261.908824 429.229738 
L 256.161566 432.493416 
L 250.658186 435.915426 
L 245.403236 439.491892 
L 240.400325 443.219014 
L 235.651968 447.093074 
L 231.159439 451.110439 
L 226.922637 455.267571 
L 222.939978 459.561021 
L 219.208322 463.987431 
L 215.722952 468.543518 
L 212.477615 473.226064 
L 209.464644 478.031888 
L 206.67517 482.957822 
L 204.099425 488.000678 
L 201.727153 493.157223 
L 199.548107 498.42416 
L 197.552633 503.798136 
L 195.732292 509.275785 
L 194.0805 514.853816 
L 192.593096 520.52917 
L 191.268765 526.299219 
L 190.109193 532.16201 
L 189.118798 538.116484 
L 188.30388 544.16257 
L 187.671017 550.301005 
L 187.224604 556.532672 
L 186.963607 562.857229 
L 186.881429 570.887164 
L 187.023884 579.032886 
L 187.826969 609.743811 
L 187.646954 615.744775 
L 187.254094 621.432982 
L 186.644643 626.761309 
L 185.833777 631.701167 
L 184.850949 636.241747 
L 183.734416 640.386693 
L 182.214749 645.032896 
L 180.632664 649.120757 
L 178.75403 653.348107 
L 176.450959 657.94234 
L 172.255644 666.076996 
L 172.330058 666.369556 
L 172.593033 666.369345 
L 173.185218 666.084437 
L 174.769221 664.996853 
L 183.680154 658.517082 
L 187.483061 656.085865 
L 191.198141 653.949953 
L 195.464316 651.782297 
L 199.308265 650.074417 
L 203.558753 648.432733 
L 208.227929 646.895538 
L 213.313626 645.495643 
L 218.794876 644.255498 
L 224.629693 643.182472 
L 230.756544 642.265583 
L 238.710144 641.292004 
L 264.732503 638.345504 
L 272.66901 637.121384 
L 278.892048 635.962964 
L 284.996755 634.634236 
L 290.982644 633.134224 
L 296.851214 631.467154 
L 302.604132 629.63943 
L 308.242224 627.657298 
L 313.765071 625.525284 
L 319.170978 623.245332 
L 324.457158 620.816516 
L 329.619991 618.235153 
L 334.655282 615.495193 
L 339.558498 612.588764 
L 344.324947 609.506785 
L 348.949908 606.239584 
L 353.428719 602.777469 
L 357.756837 599.111227 
L 361.929861 595.232526 
L 365.943555 591.134233 
L 369.79384 586.810617 
L 373.476798 582.257474 
L 376.988656 577.472175 
L 380.325777 572.453643 
L 383.484642 567.202281 
L 386.461839 561.719867 
L 389.254045 556.009421 
L 391.858011 550.075055 
L 394.270549 543.921826 
L 396.488522 537.555583 
L 398.50883 530.982827 
L 400.328405 524.21058 
L 401.9442 517.246265 
L 403.353192 510.097601 
L 404.552374 502.772517 
L 405.538756 495.279072 
L 406.309368 487.625396 
L 406.861262 479.819636 
L 407.191518 471.869919 
L 407.191518 471.869919 
" style="fill:none;stroke:#3cb496;stroke-linecap:square;stroke-width:3;"/>
   </g>
   <g id="line2d_21">
    <path clip-path="url(#p75b3090c8f)" d="M 333.101597 386.365593 
L 325.185796 385.561124 
L 317.380945 384.996526 
L 309.695503 384.670062 
L 302.137954 384.579976 
L 294.716767 384.724483 
L 287.440346 385.101773 
L 280.316966 385.709997 
L 273.354698 386.547259 
L 266.561324 387.611603 
L 259.94423 388.900989 
L 253.510291 390.413276 
L 247.265745 392.146188 
L 241.216051 394.097292 
L 235.365741 396.263957 
L 229.718277 398.643323 
L 224.275904 401.232265 
L 219.039523 404.027358 
L 214.008586 407.024849 
L 209.181024 410.220629 
L 204.553238 413.610221 
L 200.120134 417.188774 
L 195.875253 420.951076 
L 191.810976 424.89159 
L 187.91883 429.004504 
L 184.189885 433.283826 
L 180.615238 437.723507 
L 177.186571 442.317609 
L 173.896735 447.060525 
L 170.740339 451.947243 
L 167.714253 456.973655 
L 164.817956 462.136869 
L 162.053615 467.435487 
L 159.425769 472.869737 
L 156.940483 478.441325 
L 154.603858 484.152811 
L 152.419865 490.006283 
L 150.387605 496.00112 
L 148.046462 503.682634 
L 145.888232 511.538531 
L 138.006519 541.231703 
L 136.143129 546.93887 
L 134.163629 552.285983 
L 132.077702 557.226774 
L 129.907963 561.738085 
L 127.685717 565.817845 
L 125.446646 569.480328 
L 122.679549 573.510187 
L 120.009867 576.986736 
L 117.016348 580.513577 
L 113.512222 584.272861 
L 107.195049 590.896049 
L 107.184026 591.197723 
L 107.436407 591.27161 
L 108.084873 591.16508 
L 109.911121 590.567816 
L 120.286661 586.861021 
L 124.620477 585.599688 
L 128.786825 584.596955 
L 133.490889 583.719024 
L 137.660296 583.163292 
L 142.201126 582.785608 
L 147.114245 582.626139 
L 152.388332 582.715756 
L 157.996943 583.070092 
L 163.897714 583.684389 
L 170.034702 584.530774 
L 177.940414 585.83742 
L 203.73881 590.341619 
L 211.698707 591.403057 
L 217.996034 592.044794 
L 224.227803 592.489784 
L 230.393823 592.736953 
L 236.494343 592.790778 
L 242.529157 592.657874 
L 248.497298 592.344466 
L 254.397088 591.854779 
L 260.226354 591.190201 
L 265.982684 590.349059 
L 271.663639 589.326797 
L 277.266902 588.11643 
L 282.790339 586.709127 
L 288.232007 585.094854 
L 293.590101 583.263 
L 298.86288 581.202952 
L 304.048578 578.904589 
L 309.145322 576.358681 
L 314.151055 573.557185 
L 319.06348 570.493456 
L 323.880021 567.162357 
L 328.597799 563.560301 
L 333.213627 559.68523 
L 337.724015 555.536541 
L 342.12519 551.114977 
L 346.41311 546.422499 
L 350.583501 541.462138 
L 354.631879 536.237848 
L 358.553587 530.754358 
L 362.343818 525.017032 
L 365.997649 519.031742 
L 369.510068 512.804753 
L 372.875997 506.342619 
L 376.090318 499.652101 
L 379.147892 492.740089 
L 382.043578 485.613547 
L 384.772254 478.279462 
L 387.328826 470.744808 
L 387.328826 470.744808 
" style="fill:none;stroke:#1cb2d0;stroke-linecap:square;stroke-width:3;"/>
   </g>
   <g id="line2d_22">
    <path clip-path="url(#p75b3090c8f)" d="M 340.32942 367.830465 
L 332.96091 364.828444 
L 325.631276 362.087835 
L 318.349123 359.609356 
L 311.123088 357.393711 
L 303.961799 355.441575 
L 296.87383 353.753577 
L 289.86764 352.330276 
L 282.951509 351.172126 
L 276.133454 350.279441 
L 269.421136 349.652348 
L 262.821757 349.290726 
L 256.341942 349.194152 
L 249.987613 349.361826 
L 243.763862 349.792503 
L 237.674815 350.484413 
L 231.723507 351.435191 
L 225.911768 352.641805 
L 220.240127 354.100498 
L 214.707761 355.806745 
L 209.312474 357.755236 
L 204.050747 359.939883 
L 198.917851 362.353865 
L 193.908035 364.98972 
L 189.014806 367.839488 
L 184.231285 370.894902 
L 179.550634 374.147651 
L 174.966543 377.589692 
L 170.473735 381.213633 
L 166.068448 385.013145 
L 161.748836 388.983405 
L 157.515214 393.121492 
L 153.370055 397.426673 
L 149.31765 401.900448 
L 145.363338 406.546161 
L 141.512251 411.36799 
L 137.767611 416.369053 
L 134.128731 421.548503 
L 129.718289 428.259285 
L 125.43422 435.188919 
L 109.506238 461.458774 
L 106.110434 466.409783 
L 102.704662 470.982611 
L 99.311248 475.135591 
L 95.958416 478.852877 
L 92.676785 482.141298 
L 89.496571 485.024606 
L 85.706219 488.111646 
L 82.16522 490.695234 
L 78.299334 493.235841 
L 73.878037 495.855622 
L 65.950787 500.430771 
L 65.855218 500.71712 
L 66.07656 500.859117 
L 66.728771 500.939596 
L 68.649312 500.881039 
L 79.648895 500.247523 
L 84.162519 500.25826 
L 88.442604 500.469941 
L 93.203462 500.95286 
L 97.360547 501.594297 
L 101.823847 502.511211 
L 106.582878 503.742387 
L 111.618079 505.314256 
L 116.899673 507.234368 
L 122.388355 509.486221 
L 128.038297 512.027311 
L 135.255648 515.508325 
L 158.740048 527.09832 
L 166.078471 530.359324 
L 171.939914 532.749229 
L 177.793884 534.931885 
L 183.640502 536.906211 
L 189.478743 538.676571 
L 195.306548 540.249254 
L 201.121235 541.629961 
L 206.920003 542.822272 
L 212.700376 543.826909 
L 218.460511 544.641584 
L 224.199352 545.261241 
L 229.916643 545.678524 
L 235.612826 545.884359 
L 241.288861 545.868571 
L 246.946008 545.620469 
L 252.585584 545.129381 
L 258.208749 544.385098 
L 263.816304 543.378235 
L 269.408542 542.100498 
L 274.985132 540.544862 
L 280.545048 538.705672 
L 286.086539 536.578676 
L 291.607127 534.161001 
L 297.103634 531.451086 
L 302.572229 528.448581 
L 308.008482 525.154228 
L 313.407438 521.569732 
L 318.763681 517.697622 
L 324.07141 513.541125 
L 329.324501 509.104032 
L 334.516577 504.390592 
L 339.641064 499.405402 
L 344.691243 494.153322 
L 349.660298 488.639396 
L 354.541358 482.868787 
L 359.327527 476.846729 
L 364.011923 470.578483 
L 368.587693 464.069305 
L 368.587693 464.069305 
" style="fill:none;stroke:#6098dd;stroke-linecap:square;stroke-width:3;"/>
   </g>
   <g id="text_1">
    <!-- 1 -->
    <defs>
     <path d="M 12.40625 8.296875 
L 28.515625 8.296875 
L 28.515625 63.921875 
L 10.984375 60.40625 
L 10.984375 69.390625 
L 28.421875 72.90625 
L 38.28125 72.90625 
L 38.28125 8.296875 
L 54.390625 8.296875 
L 54.390625 0 
L 12.40625 0 
z
" id="DejaVuSans-49"/>
    </defs>
    <g transform="translate(7.2 410.511461)scale(0.3 -0.3)">
     <use xlink:href="#DejaVuSans-49"/>
    </g>
   </g>
   <g id="text_2">
    <!-- 2 -->
    <defs>
     <path d="M 19.1875 8.296875 
L 53.609375 8.296875 
L 53.609375 0 
L 7.328125 0 
L 7.328125 8.296875 
Q 12.9375 14.109375 22.625 23.890625 
Q 32.328125 33.6875 34.8125 36.53125 
Q 39.546875 41.84375 41.421875 45.53125 
Q 43.3125 49.21875 43.3125 52.78125 
Q 43.3125 58.59375 39.234375 62.25 
Q 35.15625 65.921875 28.609375 65.921875 
Q 23.96875 65.921875 18.8125 64.3125 
Q 13.671875 62.703125 7.8125 59.421875 
L 7.8125 69.390625 
Q 13.765625 71.78125 18.9375 73 
Q 24.125 74.21875 28.421875 74.21875 
Q 39.75 74.21875 46.484375 68.546875 
Q 53.21875 62.890625 53.21875 53.421875 
Q 53.21875 48.921875 51.53125 44.890625 
Q 49.859375 40.875 45.40625 35.40625 
Q 44.1875 33.984375 37.640625 27.21875 
Q 31.109375 20.453125 19.1875 8.296875 
z
" id="DejaVuSans-50"/>
    </defs>
    <g transform="translate(22.772079 302.205273)scale(0.3 -0.3)">
     <use xlink:href="#DejaVuSans-50"/>
    </g>
   </g>
   <g id="text_3">
    <!-- 3 -->
    <defs>
     <path d="M 40.578125 39.3125 
Q 47.65625 37.796875 51.625 33 
Q 55.609375 28.21875 55.609375 21.1875 
Q 55.609375 10.40625 48.1875 4.484375 
Q 40.765625 -1.421875 27.09375 -1.421875 
Q 22.515625 -1.421875 17.65625 -0.515625 
Q 12.796875 0.390625 7.625 2.203125 
L 7.625 11.71875 
Q 11.71875 9.328125 16.59375 8.109375 
Q 21.484375 6.890625 26.8125 6.890625 
Q 36.078125 6.890625 40.9375 10.546875 
Q 45.796875 14.203125 45.796875 21.1875 
Q 45.796875 27.640625 41.28125 31.265625 
Q 36.765625 34.90625 28.71875 34.90625 
L 20.21875 34.90625 
L 20.21875 43.015625 
L 29.109375 43.015625 
Q 36.375 43.015625 40.234375 45.921875 
Q 44.09375 48.828125 44.09375 54.296875 
Q 44.09375 59.90625 40.109375 62.90625 
Q 36.140625 65.921875 28.71875 65.921875 
Q 24.65625 65.921875 20.015625 65.03125 
Q 15.375 64.15625 9.8125 62.3125 
L 9.8125 71.09375 
Q 15.4375 72.65625 20.34375 73.4375 
Q 25.25 74.21875 29.59375 74.21875 
Q 40.828125 74.21875 47.359375 69.109375 
Q 53.90625 64.015625 53.90625 55.328125 
Q 53.90625 49.265625 50.4375 45.09375 
Q 46.96875 40.921875 40.578125 39.3125 
z
" id="DejaVuSans-51"/>
    </defs>
    <g transform="translate(68.226759 202.673408)scale(0.3 -0.3)">
     <use xlink:href="#DejaVuSans-51"/>
    </g>
   </g>
   <g id="text_4">
    <!-- 4 -->
    <defs>
     <path d="M 37.796875 64.3125 
L 12.890625 25.390625 
L 37.796875 25.390625 
z
M 35.203125 72.90625 
L 47.609375 72.90625 
L 47.609375 25.390625 
L 58.015625 25.390625 
L 58.015625 17.1875 
L 47.609375 17.1875 
L 47.609375 0 
L 37.796875 0 
L 37.796875 17.1875 
L 4.890625 17.1875 
L 4.890625 26.703125 
z
" id="DejaVuSans-52"/>
    </defs>
    <g transform="translate(139.881571 119.979346)scale(0.3 -0.3)">
     <use xlink:href="#DejaVuSans-52"/>
    </g>
   </g>
   <g id="text_5">
    <!-- 5 -->
    <defs>
     <path d="M 10.796875 72.90625 
L 49.515625 72.90625 
L 49.515625 64.59375 
L 19.828125 64.59375 
L 19.828125 46.734375 
Q 21.96875 47.46875 24.109375 47.828125 
Q 26.265625 48.1875 28.421875 48.1875 
Q 40.625 48.1875 47.75 41.5 
Q 54.890625 34.8125 54.890625 23.390625 
Q 54.890625 11.625 47.5625 5.09375 
Q 40.234375 -1.421875 26.90625 -1.421875 
Q 22.3125 -1.421875 17.546875 -0.640625 
Q 12.796875 0.140625 7.71875 1.703125 
L 7.71875 11.625 
Q 12.109375 9.234375 16.796875 8.0625 
Q 21.484375 6.890625 26.703125 6.890625 
Q 35.15625 6.890625 40.078125 11.328125 
Q 45.015625 15.765625 45.015625 23.390625 
Q 45.015625 31 40.078125 35.4375 
Q 35.15625 39.890625 26.703125 39.890625 
Q 22.75 39.890625 18.8125 39.015625 
Q 14.890625 38.140625 10.796875 36.28125 
z
" id="DejaVuSans-53"/>
    </defs>
    <g transform="translate(231.93147 60.822468)scale(0.3 -0.3)">
     <use xlink:href="#DejaVuSans-53"/>
    </g>
   </g>
   <g id="text_6">
    <!-- 6 -->
    <defs>
     <path d="M 33.015625 40.375 
Q 26.375 40.375 22.484375 35.828125 
Q 18.609375 31.296875 18.609375 23.390625 
Q 18.609375 15.53125 22.484375 10.953125 
Q 26.375 6.390625 33.015625 6.390625 
Q 39.65625 6.390625 43.53125 10.953125 
Q 47.40625 15.53125 47.40625 23.390625 
Q 47.40625 31.296875 43.53125 35.828125 
Q 39.65625 40.375 33.015625 40.375 
z
M 52.59375 71.296875 
L 52.59375 62.3125 
Q 48.875 64.0625 45.09375 64.984375 
Q 41.3125 65.921875 37.59375 65.921875 
Q 27.828125 65.921875 22.671875 59.328125 
Q 17.53125 52.734375 16.796875 39.40625 
Q 19.671875 43.65625 24.015625 45.921875 
Q 28.375 48.1875 33.59375 48.1875 
Q 44.578125 48.1875 50.953125 41.515625 
Q 57.328125 34.859375 57.328125 23.390625 
Q 57.328125 12.15625 50.6875 5.359375 
Q 44.046875 -1.421875 33.015625 -1.421875 
Q 20.359375 -1.421875 13.671875 8.265625 
Q 6.984375 17.96875 6.984375 36.375 
Q 6.984375 53.65625 15.1875 63.9375 
Q 23.390625 74.21875 37.203125 74.21875 
Q 40.921875 74.21875 44.703125 73.484375 
Q 48.484375 72.75 52.59375 71.296875 
z
" id="DejaVuSans-54"/>
    </defs>
    <g transform="translate(336.919119 29.995312)scale(0.3 -0.3)">
     <use xlink:href="#DejaVuSans-54"/>
    </g>
   </g>
   <g id="text_7">
    <!-- 7 -->
    <defs>
     <path d="M 8.203125 72.90625 
L 55.078125 72.90625 
L 55.078125 68.703125 
L 28.609375 0 
L 18.3125 0 
L 43.21875 64.59375 
L 8.203125 64.59375 
z
" id="DejaVuSans-55"/>
    </defs>
    <g transform="translate(446.339045 29.995312)scale(0.3 -0.3)">
     <use xlink:href="#DejaVuSans-55"/>
    </g>
   </g>
   <g id="text_8">
    <!-- 8 -->
    <defs>
     <path d="M 31.78125 34.625 
Q 24.75 34.625 20.71875 30.859375 
Q 16.703125 27.09375 16.703125 20.515625 
Q 16.703125 13.921875 20.71875 10.15625 
Q 24.75 6.390625 31.78125 6.390625 
Q 38.8125 6.390625 42.859375 10.171875 
Q 46.921875 13.96875 46.921875 20.515625 
Q 46.921875 27.09375 42.890625 30.859375 
Q 38.875 34.625 31.78125 34.625 
z
M 21.921875 38.8125 
Q 15.578125 40.375 12.03125 44.71875 
Q 8.5 49.078125 8.5 55.328125 
Q 8.5 64.0625 14.71875 69.140625 
Q 20.953125 74.21875 31.78125 74.21875 
Q 42.671875 74.21875 48.875 69.140625 
Q 55.078125 64.0625 55.078125 55.328125 
Q 55.078125 49.078125 51.53125 44.71875 
Q 48 40.375 41.703125 38.8125 
Q 48.828125 37.15625 52.796875 32.3125 
Q 56.78125 27.484375 56.78125 20.515625 
Q 56.78125 9.90625 50.3125 4.234375 
Q 43.84375 -1.421875 31.78125 -1.421875 
Q 19.734375 -1.421875 13.25 4.234375 
Q 6.78125 9.90625 6.78125 20.515625 
Q 6.78125 27.484375 10.78125 32.3125 
Q 14.796875 37.15625 21.921875 38.8125 
z
M 18.3125 54.390625 
Q 18.3125 48.734375 21.84375 45.5625 
Q 25.390625 42.390625 31.78125 42.390625 
Q 38.140625 42.390625 41.71875 45.5625 
Q 45.3125 48.734375 45.3125 54.390625 
Q 45.3125 60.0625 41.71875 63.234375 
Q 38.140625 66.40625 31.78125 66.40625 
Q 25.390625 66.40625 21.84375 63.234375 
Q 18.3125 60.0625 18.3125 54.390625 
z
" id="DejaVuSans-56"/>
    </defs>
    <g transform="translate(551.326694 60.822468)scale(0.3 -0.3)">
     <use xlink:href="#DejaVuSans-56"/>
    </g>
   </g>
   <g id="text_9">
    <!-- 9 -->
    <defs>
     <path d="M 10.984375 1.515625 
L 10.984375 10.5 
Q 14.703125 8.734375 18.5 7.8125 
Q 22.3125 6.890625 25.984375 6.890625 
Q 35.75 6.890625 40.890625 13.453125 
Q 46.046875 20.015625 46.78125 33.40625 
Q 43.953125 29.203125 39.59375 26.953125 
Q 35.25 24.703125 29.984375 24.703125 
Q 19.046875 24.703125 12.671875 31.3125 
Q 6.296875 37.9375 6.296875 49.421875 
Q 6.296875 60.640625 12.9375 67.421875 
Q 19.578125 74.21875 30.609375 74.21875 
Q 43.265625 74.21875 49.921875 64.515625 
Q 56.59375 54.828125 56.59375 36.375 
Q 56.59375 19.140625 48.40625 8.859375 
Q 40.234375 -1.421875 26.421875 -1.421875 
Q 22.703125 -1.421875 18.890625 -0.6875 
Q 15.09375 0.046875 10.984375 1.515625 
z
M 30.609375 32.421875 
Q 37.25 32.421875 41.125 36.953125 
Q 45.015625 41.5 45.015625 49.421875 
Q 45.015625 57.28125 41.125 61.84375 
Q 37.25 66.40625 30.609375 66.40625 
Q 23.96875 66.40625 20.09375 61.84375 
Q 16.21875 57.28125 16.21875 49.421875 
Q 16.21875 41.5 20.09375 36.953125 
Q 23.96875 32.421875 30.609375 32.421875 
z
" id="DejaVuSans-57"/>
    </defs>
    <g transform="translate(643.376593 119.979346)scale(0.3 -0.3)">
     <use xlink:href="#DejaVuSans-57"/>
    </g>
   </g>
   <g id="text_10">
    <!-- 10 -->
    <defs>
     <path d="M 31.78125 66.40625 
Q 24.171875 66.40625 20.328125 58.90625 
Q 16.5 51.421875 16.5 36.375 
Q 16.5 21.390625 20.328125 13.890625 
Q 24.171875 6.390625 31.78125 6.390625 
Q 39.453125 6.390625 43.28125 13.890625 
Q 47.125 21.390625 47.125 36.375 
Q 47.125 51.421875 43.28125 58.90625 
Q 39.453125 66.40625 31.78125 66.40625 
z
M 31.78125 74.21875 
Q 44.046875 74.21875 50.515625 64.515625 
Q 56.984375 54.828125 56.984375 36.375 
Q 56.984375 17.96875 50.515625 8.265625 
Q 44.046875 -1.421875 31.78125 -1.421875 
Q 19.53125 -1.421875 13.0625 8.265625 
Q 6.59375 17.96875 6.59375 36.375 
Q 6.59375 54.828125 13.0625 64.515625 
Q 19.53125 74.21875 31.78125 74.21875 
z
" id="DejaVuSans-48"/>
    </defs>
    <g transform="translate(705.487656 202.673408)scale(0.3 -0.3)">
     <use xlink:href="#DejaVuSans-49"/>
     <use x="63.623047" xlink:href="#DejaVuSans-48"/>
    </g>
   </g>
   <g id="text_11">
    <!-- 11 -->
    <g transform="translate(750.942335 302.205273)scale(0.3 -0.3)">
     <use xlink:href="#DejaVuSans-49"/>
     <use x="63.623047" xlink:href="#DejaVuSans-49"/>
    </g>
   </g>
   <g id="text_12">
    <!-- 1' -->
    <defs>
     <path d="M 17.921875 72.90625 
L 17.921875 45.796875 
L 9.625 45.796875 
L 9.625 72.90625 
z
" id="DejaVuSans-39"/>
    </defs>
    <g transform="translate(771.935508 410.511461)scale(0.3 -0.3)">
     <use xlink:href="#DejaVuSans-49"/>
     <use x="63.623047" xlink:href="#DejaVuSans-39"/>
    </g>
   </g>
   <g id="text_13">
    <!-- 2' -->
    <g transform="translate(756.363429 518.817649)scale(0.3 -0.3)">
     <use xlink:href="#DejaVuSans-50"/>
     <use x="63.623047" xlink:href="#DejaVuSans-39"/>
    </g>
   </g>
   <g id="text_14">
    <!-- 3' -->
    <g transform="translate(710.908749 618.349514)scale(0.3 -0.3)">
     <use xlink:href="#DejaVuSans-51"/>
     <use x="63.623047" xlink:href="#DejaVuSans-39"/>
    </g>
   </g>
   <g id="text_15">
    <!-- 4' -->
    <g transform="translate(639.253937 701.043576)scale(0.3 -0.3)">
     <use xlink:href="#DejaVuSans-52"/>
     <use x="63.623047" xlink:href="#DejaVuSans-39"/>
    </g>
   </g>
   <g id="text_16">
    <!-- 5' -->
    <g transform="translate(547.204038 760.200454)scale(0.3 -0.3)">
     <use xlink:href="#DejaVuSans-53"/>
     <use x="63.623047" xlink:href="#DejaVuSans-39"/>
    </g>
   </g>
   <g id="text_17">
    <!-- 6' -->
    <g transform="translate(442.216389 791.027609)scale(0.3 -0.3)">
     <use xlink:href="#DejaVuSans-54"/>
     <use x="63.623047" xlink:href="#DejaVuSans-39"/>
    </g>
   </g>
   <g id="text_18">
    <!-- 7' -->
    <g transform="translate(332.796463 791.027609)scale(0.3 -0.3)">
     <use xlink:href="#DejaVuSans-55"/>
     <use x="63.623047" xlink:href="#DejaVuSans-39"/>
    </g>
   </g>
   <g id="text_19">
    <!-- 8' -->
    <g transform="translate(227.808814 760.200454)scale(0.3 -0.3)">
     <use xlink:href="#DejaVuSans-56"/>
     <use x="63.623047" xlink:href="#DejaVuSans-39"/>
    </g>
   </g>
   <g id="text_20">
    <!-- 9' -->
    <g transform="translate(135.758915 701.043576)scale(0.3 -0.3)">
     <use xlink:href="#DejaVuSans-57"/>
     <use x="63.623047" xlink:href="#DejaVuSans-39"/>
    </g>
   </g>
   <g id="text_21">
    <!-- 10' -->
    <g transform="translate(54.560352 618.349514)scale(0.3 -0.3)">
     <use xlink:href="#DejaVuSans-49"/>
     <use x="63.623047" xlink:href="#DejaVuSans-48"/>
     <use x="127.246094" xlink:href="#DejaVuSans-39"/>
    </g>
   </g>
   <g id="text_22">
    <!-- 11' -->
    <g transform="translate(9.105673 518.817649)scale(0.3 -0.3)">
     <use xlink:href="#DejaVuSans-49"/>
     <use x="63.623047" xlink:href="#DejaVuSans-49"/>
     <use x="127.246094" xlink:href="#DejaVuSans-39"/>
    </g>
   </g>
  </g>
 </g>
 <defs>
  <clipPath id="p75b3090c8f">
   <rect height="761.04" width="768.858162" x="16.743751" y="21.713336"/>
  </clipPath>
 </defs>
</svg>
