<?xml version="1.0" encoding="utf-8" standalone="no"?>
<!DOCTYPE svg PUBLIC "-//W3C//DTD SVG 1.1//EN"
  "http://www.w3.org/Graphics/SVG/1.1/DTD/svg11.dtd">
<!-- Created with matplotlib (https://matplotlib.org/) -->
<svg height="804.464927pt" version="1.1" viewBox="0 0 810.380832 804.464927" width="810.380832pt" xmlns="http://www.w3.org/2000/svg" xmlns:xlink="http://www.w3.org/1999/xlink">
 <defs>
  <style type="text/css">
*{stroke-linecap:butt;stroke-linejoin:round;}
  </style>
 </defs>
 <g id="figure_1">
  <g id="patch_1">
   <path d="M 0 804.464927 
L 810.380832 804.464927 
L 810.380832 0 
L 0 0 
z
" style="fill:none;"/>
  </g>
  <g id="axes_1">
   <g id="patch_2">
    <path d="M 16.743751 782.752464 
L 789.514424 782.752464 
L 789.514424 21.712464 
L 16.743751 21.712464 
z
" style="fill:none;"/>
   </g>
   <g id="matplotlib.axis_1"/>
   <g id="matplotlib.axis_2"/>
   <g id="line2d_1">
    <path clip-path="url(#p67535be730)" d="M 300.009007 301.420957 
L 294.446139 298.751104 
L 288.867639 296.298014 
L 283.279753 294.065199 
L 277.688712 292.05617 
L 272.100701 290.274406 
L 266.521824 288.72331 
L 260.958056 287.406155 
L 255.415194 286.326021 
L 249.898802 285.485721 
L 244.414145 284.887707 
L 238.966127 284.533983 
L 233.559217 284.425984 
L 228.197382 284.564476 
L 222.884016 284.949429 
L 217.621879 285.579915 
L 212.413053 286.453996 
L 207.258902 287.568651 
L 202.160073 288.919712 
L 197.116511 290.501857 
L 192.127526 292.30864 
L 187.191885 294.332595 
L 182.307962 296.565408 
L 177.473914 298.998174 
L 172.687908 301.621745 
L 166.770585 305.155944 
L 160.923932 308.958546 
L 155.147859 313.017228 
L 149.444557 317.324826 
L 143.818497 321.880555 
L 138.275832 326.690088 
L 132.823077 331.763504 
L 127.465157 337.109985 
L 122.203223 342.72839 
L 117.033144 348.593984 
L 110.937594 355.867184 
L 97.114112 372.575805 
L 92.340632 377.893255 
L 88.616105 381.7239 
L 84.99884 385.128215 
L 81.510772 388.09027 
L 78.171887 390.619922 
L 74.999058 392.746719 
L 72.005733 394.512623 
L 68.531927 396.285186 
L 65.369021 397.661438 
L 61.997717 398.908207 
L 57.830968 400.194896 
L 52.254625 401.853182 
L 51.883441 402.1582 
L 51.910941 402.356431 
L 52.254625 402.611745 
L 53.312358 403.011218 
L 57.052237 404.052515 
L 61.481617 405.383642 
L 65.369021 406.80349 
L 68.531927 408.179741 
L 72.005733 409.952305 
L 74.999058 411.718208 
L 78.171887 413.845005 
L 81.510772 416.374657 
L 84.99884 419.336713 
L 88.616105 422.741028 
L 92.340632 426.571672 
L 96.150603 430.784151 
L 101.004594 436.476839 
L 120.124584 459.417443 
L 125.348972 465.139514 
L 130.668358 470.595894 
L 136.083605 475.777755 
L 141.591049 480.691521 
L 147.184546 485.347768 
L 152.857603 489.754335 
L 158.604964 493.913105 
L 164.423496 497.819364 
L 170.312408 501.462665 
L 175.075014 504.178249 
L 179.884821 506.70756 
L 184.743571 509.041487 
L 189.653132 511.170954 
L 194.615262 513.087314 
L 199.631413 514.782651 
L 204.70256 516.249991 
L 209.829086 517.483443 
L 215.0107 518.478259 
L 220.246397 519.230851 
L 225.534452 519.738747 
L 230.872439 520.000527 
L 236.257273 520.015725 
L 241.685266 519.784723 
L 247.15219 519.308636 
L 252.653352 518.589198 
L 258.183658 517.62865 
L 263.737685 516.429635 
L 269.309744 514.995111 
L 274.893944 513.328262 
L 280.484239 511.432435 
L 286.07448 509.311075 
L 291.658453 506.967683 
L 297.229917 504.405773 
L 300.009007 503.043971 
L 300.009007 503.043971 
" style="fill:none;stroke:#8d5ccd;stroke-linecap:square;stroke-width:3;"/>
   </g>
   <g id="line2d_2">
    <path clip-path="url(#p67535be730)" d="M 340.707475 272.23149 
L 336.393232 267.820036 
L 331.990164 263.606926 
L 327.502936 259.597596 
L 322.936204 255.797478 
L 318.294591 252.211956 
L 313.582667 248.846314 
L 308.804929 245.705672 
L 303.96577 242.794908 
L 299.069456 240.118566 
L 294.120097 237.680755 
L 289.121616 235.48503 
L 284.077721 233.534273 
L 278.991877 231.830557 
L 273.867284 230.375016 
L 268.706854 229.167722 
L 263.513205 228.207566 
L 258.288653 227.492176 
L 253.035231 227.017856 
L 247.754708 226.779586 
L 242.448639 226.771073 
L 237.118421 226.984881 
L 231.765367 227.412638 
L 226.390793 228.045349 
L 220.996104 228.873789 
L 214.226872 230.171006 
L 207.432249 231.744609 
L 200.616364 233.58299 
L 193.783728 235.680163 
L 186.938811 238.036923 
L 180.085452 240.660702 
L 173.226328 243.563201 
L 166.362926 246.754734 
L 159.496718 250.234621 
L 152.632281 253.978205 
L 144.416757 258.727976 
L 125.712248 269.701034 
L 119.407969 273.065177 
L 114.597901 275.390942 
L 110.03444 277.352774 
L 105.743645 278.943207 
L 101.740927 280.178336 
L 98.032036 281.0917 
L 94.615256 281.727329 
L 90.744693 282.204882 
L 87.301828 282.416358 
L 83.707419 282.434883 
L 79.351881 282.218864 
L 73.544666 281.869921 
L 73.091545 282.029593 
L 73.049588 282.225274 
L 73.285222 282.582738 
L 74.142539 283.319886 
L 77.300731 285.577498 
L 81.007714 288.343286 
L 84.175062 291.007076 
L 86.676516 293.382107 
L 89.334574 296.235884 
L 91.543404 298.919068 
L 93.797481 302.002775 
L 96.069815 305.521836 
L 98.334444 309.498248 
L 100.569217 313.934435 
L 102.75897 318.807926 
L 104.898419 324.069449 
L 107.512665 331.078988 
L 117.633429 359.175526 
L 120.585684 366.33936 
L 123.71808 373.286017 
L 127.034447 380.007497 
L 130.529144 386.508583 
L 134.192782 392.797113 
L 138.016577 398.878231 
L 141.994947 404.75191 
L 146.126559 410.412648 
L 150.414245 415.850357 
L 153.960846 420.031079 
L 157.61551 424.052905 
L 161.382992 427.907869 
L 165.268149 431.588082 
L 169.275593 435.08602 
L 173.409393 438.39474 
L 177.672852 441.508023 
L 182.068346 444.420464 
L 186.597223 447.127502 
L 191.259768 449.625421 
L 196.055203 451.911308 
L 200.981736 453.983 
L 206.036627 455.839003 
L 211.216279 457.478415 
L 216.516339 458.900838 
L 221.931803 460.106296 
L 227.457117 461.095152 
L 233.086282 461.868035 
L 238.812941 462.42578 
L 244.630468 462.769364 
L 250.532038 462.899862 
L 256.510694 462.818411 
L 262.5594 462.526174 
L 268.671089 462.024319 
L 271.748343 461.695148 
L 271.748343 461.695148 
" style="fill:none;stroke:#b56ab6;stroke-linecap:square;stroke-width:3;"/>
   </g>
   <g id="line2d_3">
    <path clip-path="url(#p67535be730)" d="M 388.934911 258.722059 
L 386.389655 253.101091 
L 383.693092 247.636124 
L 380.847749 242.333864 
L 377.856141 237.201007 
L 374.720772 232.244193 
L 371.44413 227.469951 
L 368.028687 222.884631 
L 364.476905 218.494317 
L 360.791239 214.304741 
L 356.974143 210.321166 
L 353.028089 206.548279 
L 348.955576 202.990053 
L 344.759152 199.649622 
L 340.441433 196.529148 
L 336.005135 193.629692 
L 331.453093 190.951108 
L 326.788299 188.491958 
L 322.013923 186.249467 
L 317.133348 184.219522 
L 312.150186 182.39674 
L 307.068292 180.774611 
L 301.891765 179.345719 
L 296.624918 178.10206 
L 291.272226 177.035447 
L 284.467554 175.939218 
L 277.544493 175.094024 
L 270.510893 174.490367 
L 263.37304 174.124166 
L 256.134862 173.997696 
L 248.797426 174.119255 
L 241.359244 174.500754 
L 233.818188 175.152392 
L 226.175872 176.074034 
L 218.44503 177.244077 
L 209.100445 178.897527 
L 187.770949 182.81151 
L 180.69626 183.81658 
L 175.380816 184.356944 
L 170.421579 184.639668 
L 165.845591 184.666647 
L 161.661827 184.458279 
L 157.864221 184.048044 
L 154.4361 183.476733 
L 150.635628 182.601676 
L 147.328064 181.622869 
L 143.944088 180.410917 
L 139.925105 178.718243 
L 134.587453 176.40416 
L 134.107048 176.399225 
L 134.000694 176.568755 
L 134.099858 176.985253 
L 134.653352 177.971165 
L 136.848933 181.172792 
L 139.386403 185.039646 
L 141.451666 188.626086 
L 142.989956 191.713433 
L 144.511664 195.304215 
L 145.669583 198.581048 
L 146.733032 202.249724 
L 147.664738 206.333744 
L 148.43278 210.844897 
L 149.015515 215.777887 
L 149.406377 221.106411 
L 149.617254 226.782359 
L 149.676439 234.263296 
L 149.577264 264.126911 
L 149.901301 271.868443 
L 150.468893 279.467508 
L 151.286378 286.917898 
L 152.346816 294.222177 
L 153.638706 301.384501 
L 155.152033 308.406697 
L 156.881561 315.286832 
L 158.82792 322.019281 
L 160.997221 328.595531 
L 162.900044 333.737133 
L 164.95876 338.766382 
L 167.18056 343.677418 
L 169.572706 348.464489 
L 172.142106 353.122103 
L 174.894959 357.645125 
L 177.836495 362.028843 
L 180.970794 366.268989 
L 184.300685 370.36174 
L 187.827705 374.303701 
L 191.552121 378.091868 
L 195.472987 381.723595 
L 199.58824 385.196541 
L 203.894809 388.50863 
L 208.388739 391.657998 
L 213.065319 394.642956 
L 217.919208 397.461945 
L 222.944551 400.113505 
L 228.135091 402.596247 
L 233.484265 404.908821 
L 238.985294 407.049906 
L 244.631251 409.018187 
L 250.415126 410.812353 
L 256.329879 412.431085 
L 259.334135 413.174249 
L 259.334135 413.174249 
" style="fill:none;stroke:#b51e4d;stroke-linecap:square;stroke-width:3;"/>
   </g>
   <g id="line2d_4">
    <path clip-path="url(#p67535be730)" d="M 438.874374 262.522101 
L 438.405099 256.36959 
L 437.740288 250.311922 
L 436.88002 244.356263 
L 435.824369 238.509765 
L 434.573416 232.779524 
L 433.127266 227.172527 
L 431.486072 221.695584 
L 429.650064 216.355258 
L 427.61959 211.157772 
L 425.395156 206.108913 
L 422.977482 201.213929 
L 420.367556 196.477408 
L 417.566702 191.903169 
L 414.576639 187.494135 
L 411.399555 183.252234 
L 408.038164 179.178299 
L 404.49577 175.272001 
L 400.776302 171.531815 
L 396.884343 167.955036 
L 392.825131 164.537839 
L 388.604514 161.275427 
L 384.228879 158.162231 
L 379.705019 155.192206 
L 375.039936 152.359189 
L 369.020569 149.001736 
L 362.804092 145.839687 
L 356.401134 142.866802 
L 349.818994 140.081396 
L 343.060587 137.486951 
L 336.124076 135.091628 
L 329.003992 132.906111 
L 321.694843 130.939258 
L 314.198195 129.191492 
L 306.533402 127.646869 
L 297.186851 126.004568 
L 275.80502 122.387391 
L 268.813233 120.912162 
L 263.633534 119.601949 
L 258.876678 118.171463 
L 254.567429 116.631735 
L 250.707243 115.005002 
L 247.278969 113.32065 
L 244.252989 111.611307 
L 240.981 109.489184 
L 238.207679 107.438152 
L 235.442293 105.141902 
L 232.244613 102.176736 
L 228.020324 98.176624 
L 227.570578 98.007679 
L 227.412656 98.13061 
L 227.363389 98.555906 
L 227.546302 99.671667 
L 228.514452 103.431145 
L 229.576352 107.932664 
L 230.29043 112.009178 
L 230.680014 115.436461 
L 230.881832 119.331147 
L 230.849177 122.806395 
L 230.593732 126.617543 
L 230.072431 130.773929 
L 229.25125 135.275712 
L 228.111659 140.110513 
L 226.656487 145.25137 
L 224.913359 150.657142 
L 222.410343 157.707165 
L 212.103191 185.735864 
L 209.759926 193.121352 
L 207.694255 200.456265 
L 205.914256 207.736937 
L 204.412532 214.963406 
L 203.176852 222.135641 
L 202.197181 229.251936 
L 201.469261 236.308681 
L 200.995608 243.300808 
L 200.784873 250.222405 
L 200.814411 255.704735 
L 201.028867 261.134806 
L 201.437002 266.50957 
L 202.04761 271.826108 
L 202.869058 277.081619 
L 203.908929 282.273401 
L 205.173748 287.398813 
L 206.668811 292.455241 
L 208.398082 297.440059 
L 210.364167 302.350601 
L 212.568344 307.18414 
L 215.010629 311.937862 
L 217.689884 316.608864 
L 220.603934 321.194142 
L 223.749699 325.690595 
L 227.123332 330.095022 
L 230.720344 334.404133 
L 234.535735 338.614553 
L 238.564099 342.722836 
L 242.799732 346.725471 
L 247.236714 350.618895 
L 251.868986 354.399505 
L 256.69041 358.063672 
L 261.694821 361.607747 
L 264.263721 363.333608 
L 264.263721 363.333608 
" style="fill:none;stroke:#eb7b56;stroke-linecap:square;stroke-width:3;"/>
   </g>
   <g id="line2d_5">
    <path clip-path="url(#p67535be730)" d="M 484.502427 283.173275 
L 486.165737 277.231304 
L 487.612863 271.31158 
L 488.84143 265.420861 
L 489.849063 259.565896 
L 490.63341 253.75338 
L 491.19218 247.989914 
L 491.523186 242.28195 
L 491.624402 236.635734 
L 491.494026 231.057231 
L 491.130553 225.552054 
L 490.532865 220.12538 
L 489.700323 214.78186 
L 488.632863 209.525532 
L 487.331101 204.359734 
L 485.796434 199.287024 
L 484.031128 194.309114 
L 482.038399 189.426824 
L 479.822461 184.640067 
L 477.388547 179.947865 
L 474.742885 175.348418 
L 471.892613 170.839217 
L 468.845637 166.417215 
L 465.610407 162.079053 
L 462.195613 157.821336 
L 457.687574 152.607617 
L 452.927481 147.510103 
L 447.927455 142.526564 
L 442.694931 137.657914 
L 437.231459 132.908421 
L 431.53252 128.285128 
L 425.58932 123.796202 
L 419.39367 119.448088 
L 412.946896 115.241721 
L 406.272639 111.168736 
L 398.051455 106.428769 
L 379.196252 95.716718 
L 373.13068 91.939124 
L 368.711474 88.936366 
L 364.730747 85.965208 
L 361.207995 83.044487 
L 358.136983 80.195596 
L 355.491541 77.440284 
L 353.23268 74.799081 
L 350.883825 71.685852 
L 348.979249 68.809981 
L 347.166001 65.706394 
L 345.175311 61.826378 
L 342.573896 56.622711 
L 342.209056 56.310132 
L 342.018613 56.371637 
L 341.826857 56.754434 
L 341.617127 57.865466 
L 341.241073 61.729347 
L 340.699322 66.322582 
L 339.976086 70.397481 
L 339.169976 73.751319 
L 338.027562 77.480153 
L 336.808271 80.734649 
L 335.264741 84.22859 
L 333.353312 87.956019 
L 331.041953 91.905451 
L 328.317489 96.058915 
L 325.191798 100.392042 
L 321.70491 104.875621 
L 316.941594 110.644394 
L 297.669661 133.457502 
L 292.941726 139.596146 
L 288.491942 145.782209 
L 284.329154 152.015008 
L 280.446396 158.292047 
L 276.832188 164.609116 
L 273.477683 170.961178 
L 270.380113 177.343387 
L 267.543576 183.751838 
L 264.978224 190.183936 
L 263.130914 195.345744 
L 261.475243 200.521689 
L 260.020487 205.711906 
L 258.775907 210.916658 
L 257.750325 216.136175 
L 256.95179 221.37051 
L 256.387338 226.619416 
L 256.062837 231.882246 
L 255.982912 237.157888 
L 256.150923 242.444729 
L 256.569004 247.740642 
L 257.238133 253.04299 
L 258.158233 258.348655 
L 259.328286 263.654072 
L 260.746461 268.95527 
L 262.410236 274.247928 
L 264.316519 279.527418 
L 266.461765 284.78886 
L 268.842074 290.027165 
L 271.453285 295.237083 
L 274.291055 300.413242 
L 277.350921 305.550184 
L 280.628359 310.642398 
L 284.118822 315.684349 
L 285.94252 318.184744 
L 285.94252 318.184744 
" style="fill:none;stroke:#eba302;stroke-linecap:square;stroke-width:3;"/>
   </g>
   <g id="line2d_6">
    <path clip-path="url(#p67535be730)" d="M 520.315656 318.184744 
L 523.910929 313.170003 
L 527.295447 308.102228 
L 530.464668 302.986958 
L 533.414049 297.829722 
L 536.139091 292.636006 
L 538.635384 287.411229 
L 540.898667 282.160709 
L 542.924899 276.889619 
L 544.710346 271.602949 
L 546.251674 266.305461 
L 547.546064 261.001634 
L 548.591321 255.695621 
L 549.386007 250.391196 
L 549.929558 245.091705 
L 550.222411 239.800029 
L 550.266112 234.518554 
L 550.063401 229.249149 
L 549.618267 223.993172 
L 548.935964 218.751497 
L 548.022958 213.524561 
L 546.886817 208.312448 
L 545.53601 203.114999 
L 543.979626 197.931946 
L 542.226994 192.763072 
L 539.77402 186.321939 
L 537.044449 179.903794 
L 534.050432 173.51069 
L 530.798644 167.146027 
L 527.289082 160.814346 
L 523.515091 154.52072 
L 519.465612 148.269815 
L 515.130749 142.064888 
L 510.511425 135.907269 
L 505.632717 129.797184 
L 499.528495 122.531262 
L 485.474138 106.016368 
L 481.066378 100.392042 
L 477.940687 96.058915 
L 475.216223 91.905451 
L 472.904864 87.956019 
L 470.993434 84.22859 
L 469.449904 80.734649 
L 468.230614 77.480153 
L 467.0882 73.751319 
L 466.282089 70.397481 
L 465.639683 66.860896 
L 465.096089 62.534018 
L 464.431318 56.754434 
L 464.195389 56.335923 
L 463.995395 56.328583 
L 463.684279 56.622711 
L 463.107202 57.595007 
L 461.432302 61.097249 
L 459.352243 65.22819 
L 457.278926 68.809981 
L 455.37435 71.685852 
L 453.025496 74.799081 
L 450.766634 77.440284 
L 448.121193 80.195596 
L 445.050181 83.044487 
L 441.527428 85.965208 
L 437.546701 88.936366 
L 433.127496 91.939124 
L 428.317419 94.959724 
L 421.86833 98.751447 
L 395.956093 113.597367 
L 389.413748 117.748757 
L 383.116561 122.039839 
L 377.073076 126.472996 
L 371.277604 131.043503 
L 365.720794 135.743474 
L 360.396058 140.565151 
L 355.30245 145.503034 
L 350.445158 150.554855 
L 345.834609 155.721649 
L 342.333263 159.940344 
L 339.007163 164.237869 
L 335.864981 168.617522 
L 332.915329 173.082717 
L 330.166417 177.636689 
L 327.625791 182.282241 
L 325.300148 187.021545 
L 323.195223 191.856001 
L 321.315742 196.786146 
L 319.665415 201.811616 
L 318.246974 206.931138 
L 317.062239 212.142571 
L 316.112206 217.442958 
L 315.397137 222.8286 
L 314.916669 228.295142 
L 314.66991 233.837658 
L 314.655539 239.450743 
L 314.871891 245.128598 
L 315.317044 250.865108 
L 315.988883 256.653917 
L 316.885164 262.48849 
L 318.00356 268.362172 
L 319.341705 274.268238 
L 320.897218 280.199931 
L 321.755748 283.173275 
L 321.755748 283.173275 
" style="fill:none;stroke:#b0a120;stroke-linecap:square;stroke-width:3;"/>
   </g>
   <g id="line2d_7">
    <path clip-path="url(#p67535be730)" d="M 541.994454 363.333608 
L 547.088048 359.850949 
L 552.001736 356.246372 
L 556.729354 352.523528 
L 561.264745 348.686058 
L 565.601803 344.737581 
L 569.73453 340.68168 
L 573.657104 336.521893 
L 577.363958 332.261701 
L 580.849876 327.904515 
L 584.110099 323.453669 
L 587.140443 318.91241 
L 589.937427 314.283888 
L 592.498407 309.571157 
L 594.821711 304.77717 
L 596.906763 299.904783 
L 598.754199 294.956766 
L 600.365956 289.935814 
L 601.745317 284.844567 
L 602.89692 279.685642 
L 603.826692 274.461663 
L 604.541716 269.175295 
L 605.050005 263.829287 
L 605.360192 258.426496 
L 605.481116 252.969908 
L 605.379071 246.078256 
L 605.009248 239.113605 
L 604.382363 232.082038 
L 603.503525 224.989034 
L 602.371177 217.838859 
L 600.977332 210.634004 
L 599.310003 203.375071 
L 597.358774 196.061737 
L 595.124059 188.695565 
L 592.629345 181.285348 
L 589.378345 172.369848 
L 581.819996 152.04405 
L 579.601688 145.25137 
L 578.146516 140.110513 
L 577.006926 135.275712 
L 576.185744 130.773929 
L 575.664444 126.617543 
L 575.408999 122.806395 
L 575.376343 119.331147 
L 575.578162 115.436461 
L 575.967746 112.009178 
L 576.573664 108.466159 
L 577.542733 104.214304 
L 578.894787 98.555906 
L 578.816225 98.081942 
L 578.630802 98.006643 
L 578.237852 98.176624 
L 577.363031 98.892912 
L 574.591303 101.611094 
L 571.223822 104.781486 
L 568.050497 107.438152 
L 565.277175 109.489184 
L 562.005187 111.611307 
L 558.979207 113.32065 
L 555.550932 115.005002 
L 551.690747 116.631735 
L 547.381497 118.171463 
L 542.624642 119.601949 
L 537.444943 120.912162 
L 531.891843 122.105454 
L 524.534836 123.46279 
L 495.107695 128.550885 
L 487.540042 130.214301 
L 480.154985 132.092835 
L 472.959739 134.191646 
L 465.950571 136.504349 
L 459.121393 139.020337 
L 452.468666 141.730064 
L 445.993385 144.62804 
L 439.701199 147.713907 
L 433.601553 150.992205 
L 428.868485 153.75895 
L 424.273134 156.659709 
L 419.822518 159.700547 
L 415.523566 162.887618 
L 411.382884 166.226769 
L 407.406604 169.723214 
L 403.600276 173.381286 
L 399.968813 177.204262 
L 396.51647 181.194263 
L 393.246858 185.352214 
L 390.162979 189.677856 
L 387.267278 194.169798 
L 384.561699 198.825602 
L 382.047756 203.641883 
L 379.726597 208.614422 
L 377.599067 213.738287 
L 375.665774 219.007946 
L 373.927138 224.417382 
L 372.383443 229.960189 
L 371.034876 235.629672 
L 369.881563 241.418923 
L 368.923594 247.320894 
L 368.161045 253.328453 
L 367.593991 259.434437 
L 367.383802 262.522101 
L 367.383802 262.522101 
" style="fill:none;stroke:#6faf6b;stroke-linecap:square;stroke-width:3;"/>
   </g>
   <g id="line2d_8">
    <path clip-path="url(#p67535be730)" d="M 546.92404 413.174249 
L 552.901592 411.643731 
L 558.751787 409.937117 
L 564.467582 408.055729 
L 570.041947 406.000882 
L 575.467907 403.773888 
L 580.7386 401.376064 
L 585.847345 398.808742 
L 590.78772 396.073289 
L 595.553657 393.171128 
L 600.139543 390.103763 
L 604.540337 386.872814 
L 608.75169 383.480051 
L 612.770074 379.927439 
L 616.592905 376.217182 
L 620.218667 372.351766 
L 623.647011 368.334011 
L 626.878833 364.167112 
L 629.916318 359.854675 
L 632.762927 355.400743 
L 635.423334 350.809808 
L 637.90328 346.0868 
L 640.209359 341.237041 
L 642.348702 336.266168 
L 644.328596 331.180011 
L 646.589789 324.669075 
L 648.62432 317.997957 
L 650.440178 311.176038 
L 652.040291 304.210215 
L 653.421736 297.103962 
L 654.576156 289.85689 
L 655.49208 282.465464 
L 656.159832 274.925818 
L 656.579266 267.239564 
L 656.769446 259.422995 
L 656.763785 249.933257 
L 656.613093 228.248148 
L 656.851799 221.106411 
L 657.242661 215.777887 
L 657.825395 210.844897 
L 658.593438 206.333744 
L 659.525143 202.249724 
L 660.588593 198.581048 
L 661.746511 195.304215 
L 663.26822 191.713433 
L 664.806509 188.626086 
L 666.58767 185.503974 
L 668.952517 181.839978 
L 672.158318 176.985253 
L 672.246599 176.513003 
L 672.098112 176.378826 
L 671.670723 176.40416 
L 670.603676 176.778044 
L 667.06943 178.384312 
L 662.820695 180.21176 
L 658.930112 181.622869 
L 655.622547 182.601676 
L 651.822075 183.476733 
L 648.393954 184.048044 
L 644.596348 184.458279 
L 640.412585 184.666647 
L 635.836597 184.639668 
L 630.877359 184.356944 
L 625.561915 183.81658 
L 619.935579 183.038636 
L 612.558017 181.79787 
L 583.165319 176.51444 
L 575.48513 175.48925 
L 567.90295 174.728656 
L 560.423794 174.239975 
L 553.046339 174.015928 
L 545.768493 174.044466 
L 538.590194 174.315411 
L 531.514254 174.823941 
L 524.546104 175.571653 
L 517.693068 176.566043 
L 512.299156 177.547129 
L 506.98882 178.701248 
L 501.766582 180.036501 
L 496.636846 181.561039 
L 491.603821 183.282618 
L 486.671485 185.208234 
L 481.843573 187.343857 
L 477.123579 189.694246 
L 472.514776 192.262849 
L 468.020243 195.051772 
L 463.642888 198.061797 
L 459.385484 201.292454 
L 455.250693 204.742116 
L 451.241095 208.40812 
L 447.35921 212.286895 
L 443.607521 216.374095 
L 439.98849 220.66473 
L 436.504571 225.153288 
L 433.15822 229.833849 
L 429.951904 234.700183 
L 426.888104 239.745843 
L 423.969315 244.964237 
L 421.198047 250.348688 
L 418.576821 255.892493 
L 417.323265 258.722059 
L 417.323265 258.722059 
" style="fill:none;stroke:#08b8cb;stroke-linecap:square;stroke-width:3;"/>
   </g>
   <g id="line2d_9">
    <path clip-path="url(#p67535be730)" d="M 534.509832 461.695148 
L 540.650362 462.301376 
L 546.731443 462.698568 
L 552.746006 462.885558 
L 558.686995 462.861179 
L 564.547406 462.624276 
L 570.320342 462.173742 
L 575.999067 461.508542 
L 581.577081 460.627765 
L 587.048195 459.530672 
L 592.406619 458.216758 
L 597.647062 456.685819 
L 602.764833 454.938032 
L 607.755943 452.974037 
L 612.617212 450.79502 
L 617.346364 448.402801 
L 621.942107 445.79991 
L 626.40419 442.989654 
L 630.733432 439.976169 
L 634.931704 436.76444 
L 639.00186 433.360285 
L 642.947612 429.770301 
L 646.773332 426.001743 
L 650.483796 422.062349 
L 654.083856 417.960088 
L 658.435554 412.615184 
L 662.629044 407.042234 
L 666.668626 401.252787 
L 670.554692 395.254325 
L 674.283307 389.049114 
L 677.846752 382.633929 
L 681.235456 376.001525 
L 684.441648 369.144959 
L 687.464641 362.065698 
L 690.316775 354.785571 
L 693.557138 345.866199 
L 700.832277 325.437321 
L 703.499205 318.807926 
L 705.688958 313.934435 
L 707.923731 309.498248 
L 710.188361 305.521836 
L 712.460695 302.002775 
L 714.714771 298.919068 
L 716.923602 296.235884 
L 719.58166 293.382107 
L 722.083113 291.007076 
L 724.824683 288.682443 
L 728.300072 286.048238 
L 732.972953 282.582738 
L 733.21743 282.169162 
L 733.123789 281.992292 
L 732.713509 281.869921 
L 731.582937 281.856306 
L 727.712456 282.156921 
L 723.094928 282.421008 
L 718.956348 282.416358 
L 715.513482 282.204882 
L 711.642919 281.727329 
L 708.22614 281.0917 
L 704.517248 280.178336 
L 700.514531 278.943207 
L 696.223736 277.352774 
L 691.660274 275.390942 
L 686.850206 273.065177 
L 681.829252 270.409828 
L 675.320979 266.720615 
L 649.507917 251.70292 
L 642.641535 248.112778 
L 635.776755 244.804795 
L 628.915786 241.787562 
L 622.059875 239.053789 
L 615.211176 236.591437 
L 608.373112 234.390918 
L 601.549976 232.448666 
L 594.746325 230.768038 
L 587.966476 229.358582 
L 582.562306 228.435675 
L 577.17749 227.703951 
L 571.813509 227.172567 
L 566.47171 226.850691 
L 561.153399 226.74705 
L 555.85992 226.869579 
L 550.592741 227.225165 
L 545.353517 227.819475 
L 540.144145 228.65687 
L 534.966797 229.740379 
L 529.82394 231.071734 
L 524.718339 232.65144 
L 519.653053 234.47888 
L 514.631416 236.552434 
L 509.657018 238.869608 
L 504.733679 241.427166 
L 499.865418 244.221263 
L 495.056428 247.247557 
L 490.311041 250.501325 
L 485.633705 253.977559 
L 481.028957 257.671048 
L 476.501397 261.576449 
L 472.055666 265.688349 
L 467.696427 270.001309 
L 465.5507 272.23149 
L 465.5507 272.23149 
" style="fill:none;stroke:#6098dd;stroke-linecap:square;stroke-width:3;"/>
   </g>
   <g id="line2d_10">
    <path clip-path="url(#p67535be730)" d="M 506.249168 503.043971 
L 511.812036 505.713823 
L 517.390536 508.166913 
L 522.978422 510.399729 
L 528.569464 512.408757 
L 534.157474 514.190521 
L 539.736351 515.741617 
L 545.300119 517.058772 
L 550.842981 518.138906 
L 556.359374 518.979207 
L 561.844031 519.57722 
L 567.292049 519.930945 
L 572.698958 520.038943 
L 578.060793 519.900452 
L 583.37416 519.515498 
L 588.636296 518.885013 
L 593.845123 518.010931 
L 598.999273 516.896277 
L 604.098103 515.545215 
L 609.141664 513.963071 
L 614.13065 512.156287 
L 619.06629 510.132332 
L 623.950214 507.89952 
L 628.784261 505.466754 
L 633.570267 502.843182 
L 639.48759 499.308983 
L 645.334243 495.506382 
L 651.110317 491.447699 
L 656.813619 487.140102 
L 662.439678 482.584372 
L 667.982344 477.77484 
L 673.435099 472.701424 
L 678.793018 467.354942 
L 684.054952 461.736537 
L 689.225031 455.870943 
L 695.320581 448.597744 
L 709.144064 431.889123 
L 713.917543 426.571672 
L 717.64207 422.741028 
L 721.259335 419.336713 
L 724.747403 416.374657 
L 728.086289 413.845005 
L 731.259118 411.718208 
L 734.252442 409.952305 
L 737.726249 408.179741 
L 740.889155 406.80349 
L 744.260459 405.556721 
L 748.427208 404.270031 
L 754.003551 402.611745 
L 754.374734 402.306727 
L 754.347234 402.108496 
L 754.003551 401.853182 
L 752.945817 401.453709 
L 749.205938 400.412413 
L 744.776558 399.081285 
L 740.889155 397.661438 
L 737.726249 396.285186 
L 734.252442 394.512623 
L 731.259118 392.746719 
L 728.086289 390.619922 
L 724.747403 388.09027 
L 721.259335 385.128215 
L 717.64207 381.7239 
L 713.917543 377.893255 
L 710.107572 373.680776 
L 705.253581 367.988089 
L 686.133591 345.047485 
L 680.909204 339.325413 
L 675.589818 333.869033 
L 670.17457 328.687173 
L 664.667127 323.773407 
L 659.073629 319.117159 
L 653.400573 314.710592 
L 647.653212 310.551822 
L 641.834679 306.645563 
L 635.945767 303.002263 
L 631.183161 300.286679 
L 626.373354 297.757367 
L 621.514604 295.423441 
L 616.605044 293.293973 
L 611.642913 291.377613 
L 606.626763 289.682276 
L 601.555616 288.214936 
L 596.42909 286.981485 
L 591.247475 285.986668 
L 586.011778 285.234077 
L 580.723723 284.72618 
L 575.385736 284.464401 
L 570.000902 284.449203 
L 564.57291 284.680205 
L 559.105985 285.156291 
L 553.604823 285.875729 
L 548.074517 286.836278 
L 542.520491 288.035292 
L 536.948431 289.469817 
L 531.364232 291.136665 
L 525.773937 293.032492 
L 520.183696 295.153852 
L 514.599722 297.497245 
L 509.028258 300.059154 
L 506.249168 301.420957 
L 506.249168 301.420957 
" style="fill:none;stroke:#8d5ccd;stroke-linecap:square;stroke-width:3;"/>
   </g>
   <g id="line2d_11">
    <path clip-path="url(#p67535be730)" d="M 465.5507 532.233438 
L 469.864943 536.644891 
L 474.268012 540.858001 
L 478.755239 544.867331 
L 483.321972 548.667449 
L 487.963585 552.252971 
L 492.675508 555.618613 
L 497.453246 558.759255 
L 502.292405 561.670019 
L 507.188719 564.346361 
L 512.138078 566.784173 
L 517.136559 568.979897 
L 522.180455 570.930655 
L 527.266298 572.634371 
L 532.390892 574.089911 
L 537.551321 575.297205 
L 542.74497 576.257361 
L 547.969522 576.972752 
L 553.222945 577.447072 
L 558.503468 577.685341 
L 563.809536 577.693854 
L 569.139755 577.480047 
L 574.492809 577.05229 
L 579.867382 576.419579 
L 585.262071 575.591139 
L 592.031303 574.293922 
L 598.825926 572.720318 
L 605.641811 570.881938 
L 612.474447 568.784764 
L 619.319365 566.428005 
L 626.172724 563.804226 
L 633.031848 560.901726 
L 639.895249 557.710193 
L 646.761458 554.230307 
L 653.625894 550.486723 
L 661.841418 545.736952 
L 680.545928 534.763893 
L 686.850206 531.39975 
L 691.660274 529.073985 
L 696.223736 527.112153 
L 700.514531 525.521721 
L 704.517248 524.286592 
L 708.22614 523.373228 
L 711.642919 522.737598 
L 715.513482 522.260045 
L 718.956348 522.04857 
L 722.550757 522.030044 
L 726.906294 522.246063 
L 732.713509 522.595006 
L 733.16663 522.435335 
L 733.208588 522.239653 
L 732.972953 521.88219 
L 732.115637 521.145042 
L 728.957445 518.887429 
L 725.250461 516.121641 
L 722.083113 513.457851 
L 719.58166 511.08282 
L 716.923602 508.229043 
L 714.714771 505.545859 
L 712.460695 502.462153 
L 710.188361 498.943091 
L 707.923731 494.96668 
L 705.688958 490.530493 
L 703.499205 485.657001 
L 701.359757 480.395479 
L 698.745511 473.38594 
L 688.624746 445.289402 
L 685.672492 438.125568 
L 682.540096 431.178911 
L 679.223728 424.457431 
L 675.729031 417.956344 
L 672.065393 411.667814 
L 668.241598 405.586696 
L 664.263229 399.713018 
L 660.131616 394.052279 
L 655.843931 388.61457 
L 652.29733 384.433849 
L 648.642665 380.412023 
L 644.875183 376.557058 
L 640.990026 372.876845 
L 636.982583 369.378907 
L 632.848783 366.070187 
L 628.585323 362.956904 
L 624.189829 360.044464 
L 619.660952 357.337426 
L 614.998407 354.839507 
L 610.202972 352.553619 
L 605.276439 350.481927 
L 600.221548 348.625924 
L 595.041897 346.986512 
L 589.741836 345.564089 
L 584.326373 344.358631 
L 578.801058 343.369776 
L 573.171894 342.596892 
L 567.445234 342.039148 
L 561.627707 341.695564 
L 555.726137 341.565065 
L 549.747481 341.646516 
L 543.698775 341.938754 
L 537.587087 342.440608 
L 534.509832 342.769779 
L 534.509832 342.769779 
" style="fill:none;stroke:#b56ab6;stroke-linecap:square;stroke-width:3;"/>
   </g>
   <g id="line2d_12">
    <path clip-path="url(#p67535be730)" d="M 417.323265 545.742869 
L 419.868521 551.363837 
L 422.565083 556.828803 
L 425.410427 562.131063 
L 428.402034 567.263921 
L 431.537403 572.220735 
L 434.814045 576.994976 
L 438.229488 581.580297 
L 441.78127 585.97061 
L 445.466937 590.160187 
L 449.284032 594.143761 
L 453.230086 597.916648 
L 457.302599 601.474874 
L 461.499024 604.815305 
L 465.816742 607.93578 
L 470.253041 610.835236 
L 474.805082 613.51382 
L 479.469877 615.972969 
L 484.244252 618.21546 
L 489.124827 620.245406 
L 494.10799 622.068188 
L 499.189883 623.690317 
L 504.36641 625.119208 
L 509.633257 626.362867 
L 514.985949 627.429481 
L 521.790621 628.525709 
L 528.713683 629.370903 
L 535.747282 629.974561 
L 542.885135 630.340761 
L 550.123313 630.467231 
L 557.460749 630.345672 
L 564.898931 629.964174 
L 572.439987 629.312535 
L 580.082304 628.390893 
L 587.813146 627.220851 
L 597.15773 625.5674 
L 618.487227 621.653418 
L 625.561915 620.648347 
L 630.877359 620.107983 
L 635.836597 619.82526 
L 640.412585 619.798281 
L 644.596348 620.006649 
L 648.393954 620.416883 
L 651.822075 620.988194 
L 655.622547 621.863252 
L 658.930112 622.842059 
L 662.314087 624.054011 
L 666.333071 625.746684 
L 671.670723 628.060768 
L 672.151128 628.065702 
L 672.257482 627.896172 
L 672.158318 627.479674 
L 671.604823 626.493762 
L 669.409242 623.292135 
L 666.871772 619.425282 
L 664.806509 615.838841 
L 663.26822 612.751494 
L 661.746511 609.160712 
L 660.588593 605.883879 
L 659.525143 602.215203 
L 658.593438 598.131184 
L 657.825395 593.62003 
L 657.242661 588.68704 
L 656.851799 583.358517 
L 656.640921 577.682568 
L 656.581737 570.201632 
L 656.680911 540.338017 
L 656.356875 532.596484 
L 655.789282 524.997419 
L 654.971798 517.54703 
L 653.911359 510.24275 
L 652.619469 503.080426 
L 651.106143 496.05823 
L 649.376614 489.178095 
L 647.430255 482.445646 
L 645.260955 475.869397 
L 643.358131 470.727795 
L 641.299415 465.698545 
L 639.077616 460.787509 
L 636.685469 456.000438 
L 634.11607 451.342825 
L 631.363217 446.819802 
L 628.421681 442.436084 
L 625.287381 438.195938 
L 621.95749 434.103187 
L 618.43047 430.161227 
L 614.706054 426.37306 
L 610.785188 422.741333 
L 606.669935 419.268386 
L 602.363366 415.956297 
L 597.869436 412.806929 
L 593.192856 409.821972 
L 588.338967 407.002983 
L 583.313624 404.351422 
L 578.123085 401.868681 
L 572.77391 399.556106 
L 567.272881 397.415022 
L 561.626925 395.44674 
L 555.843049 393.652574 
L 549.928296 392.033842 
L 546.92404 391.290679 
L 546.92404 391.290679 
" style="fill:none;stroke:#b51e4d;stroke-linecap:square;stroke-width:3;"/>
   </g>
   <g id="line2d_13">
    <path clip-path="url(#p67535be730)" d="M 367.383802 541.942827 
L 367.853076 548.095338 
L 368.517887 554.153005 
L 369.378156 560.108665 
L 370.433806 565.955163 
L 371.684759 571.685404 
L 373.130909 577.292401 
L 374.772103 582.769343 
L 376.608111 588.109669 
L 378.638585 593.307156 
L 380.863019 598.356014 
L 383.280694 603.250999 
L 385.890619 607.987519 
L 388.691474 612.561759 
L 391.681536 616.970792 
L 394.858621 621.212693 
L 398.220011 625.286629 
L 401.762405 629.192927 
L 405.481874 632.933112 
L 409.373832 636.509892 
L 413.433045 639.927088 
L 417.653662 643.189501 
L 422.029296 646.302697 
L 426.553157 649.272721 
L 431.218239 652.105739 
L 437.237607 655.463191 
L 443.454083 658.625241 
L 449.857042 661.598125 
L 456.439182 664.383531 
L 463.197589 666.977977 
L 470.134099 669.3733 
L 477.254184 671.558816 
L 484.563332 673.52567 
L 492.059981 675.273435 
L 499.724774 676.818059 
L 509.071324 678.46036 
L 530.453156 682.077536 
L 537.444943 683.552766 
L 542.624642 684.862978 
L 547.381497 686.293464 
L 551.690747 687.833192 
L 555.550932 689.459926 
L 558.979207 691.144278 
L 562.005187 692.853621 
L 565.277175 694.975744 
L 568.050497 697.026775 
L 570.815882 699.323026 
L 574.013563 702.288191 
L 578.237852 706.288303 
L 578.687597 706.457248 
L 578.84552 706.334317 
L 578.894787 705.909021 
L 578.711874 704.793261 
L 577.743723 701.033783 
L 576.681824 696.532263 
L 575.967746 692.455749 
L 575.578162 689.028467 
L 575.376343 685.13378 
L 575.408999 681.658533 
L 575.664444 677.847384 
L 576.185744 673.690999 
L 577.006926 669.189215 
L 578.146516 664.354414 
L 579.601688 659.213557 
L 581.344817 653.807786 
L 583.847833 646.757763 
L 594.154984 618.729064 
L 596.49825 611.343576 
L 598.56392 604.008662 
L 600.343919 596.72799 
L 601.845644 589.501521 
L 603.081324 582.329286 
L 604.060994 575.212992 
L 604.788914 568.156246 
L 605.262568 561.16412 
L 605.473302 554.242522 
L 605.443764 548.760193 
L 605.229309 543.330122 
L 604.821173 537.955357 
L 604.210566 532.638819 
L 603.389117 527.383308 
L 602.349247 522.191526 
L 601.084427 517.066114 
L 599.589364 512.009687 
L 597.860093 507.024869 
L 595.894008 502.114326 
L 593.689832 497.280788 
L 591.247546 492.527066 
L 588.568291 487.856064 
L 585.654241 483.270785 
L 582.508476 478.774333 
L 579.134844 474.369906 
L 575.537831 470.060795 
L 571.722441 465.850374 
L 567.694076 461.742091 
L 563.458444 457.739457 
L 559.021462 453.846033 
L 554.38919 450.065422 
L 549.567765 446.401256 
L 544.563355 442.857181 
L 541.994454 441.131319 
L 541.994454 441.131319 
" style="fill:none;stroke:#eb7b56;stroke-linecap:square;stroke-width:3;"/>
   </g>
   <g id="line2d_14">
    <path clip-path="url(#p67535be730)" d="M 321.755748 521.291653 
L 320.092439 527.233624 
L 318.645313 533.153348 
L 317.416745 539.044066 
L 316.409112 544.899031 
L 315.624765 550.711547 
L 315.065996 556.475013 
L 314.734989 562.182977 
L 314.633773 567.829194 
L 314.76415 573.407697 
L 315.127623 578.912873 
L 315.72531 584.339547 
L 316.557852 589.683067 
L 317.625313 594.939395 
L 318.927074 600.105193 
L 320.461742 605.177903 
L 322.227047 610.155814 
L 324.219776 615.038103 
L 326.435715 619.824861 
L 328.869628 624.517063 
L 331.515291 629.116509 
L 334.365562 633.62571 
L 337.412538 638.047712 
L 340.647768 642.385874 
L 344.062563 646.643592 
L 348.570602 651.85731 
L 353.330694 656.954825 
L 358.330721 661.938364 
L 363.563244 666.807013 
L 369.026716 671.556506 
L 374.725655 676.179799 
L 380.668856 680.668726 
L 386.864505 685.016839 
L 393.311279 689.223207 
L 399.985537 693.296191 
L 408.206721 698.036158 
L 427.061923 708.74821 
L 433.127496 712.525803 
L 437.546701 715.528562 
L 441.527428 718.499719 
L 445.050181 721.420441 
L 448.121193 724.269331 
L 450.766634 727.024643 
L 453.025496 729.665847 
L 455.37435 732.779076 
L 457.278926 735.654947 
L 459.092174 738.758534 
L 461.082865 742.638549 
L 463.684279 747.842217 
L 464.049119 748.154795 
L 464.239563 748.093291 
L 464.431318 747.710494 
L 464.641049 746.599462 
L 465.017102 742.735581 
L 465.558853 738.142345 
L 466.282089 734.067446 
L 467.0882 730.713608 
L 468.230614 726.984774 
L 469.449904 723.730279 
L 470.993434 720.236338 
L 472.904864 716.508908 
L 475.216223 712.559476 
L 477.940687 708.406012 
L 481.066378 704.072885 
L 484.553266 699.589307 
L 489.316581 693.820534 
L 508.588515 671.007426 
L 513.31645 664.868781 
L 517.766233 658.682718 
L 521.929022 652.44992 
L 525.811779 646.17288 
L 529.425987 639.855811 
L 532.780493 633.503749 
L 535.878063 627.12154 
L 538.7146 620.71309 
L 541.279951 614.280991 
L 543.127261 609.119184 
L 544.782933 603.943238 
L 546.237689 598.753021 
L 547.482268 593.54827 
L 548.50785 588.328753 
L 549.306385 583.094417 
L 549.870838 577.845511 
L 550.195338 572.582682 
L 550.275263 567.30704 
L 550.107252 562.020198 
L 549.689171 556.724286 
L 549.020043 551.421937 
L 548.099943 546.116272 
L 546.929889 540.810856 
L 545.511714 535.509657 
L 543.847939 530.217 
L 541.941656 524.937509 
L 539.796411 519.676068 
L 537.416102 514.437763 
L 534.804891 509.227845 
L 531.967121 504.051686 
L 528.907254 498.914744 
L 525.629816 493.822529 
L 522.139353 488.780579 
L 520.315656 486.280184 
L 520.315656 486.280184 
" style="fill:none;stroke:#eba302;stroke-linecap:square;stroke-width:3;"/>
   </g>
   <g id="line2d_15">
    <path clip-path="url(#p67535be730)" d="M 285.94252 486.280184 
L 282.347247 491.294925 
L 278.962728 496.3627 
L 275.793508 501.477969 
L 272.844127 506.635206 
L 270.119084 511.828922 
L 267.622791 517.053698 
L 265.359508 522.304219 
L 263.333276 527.575309 
L 261.54783 532.861978 
L 260.006501 538.159467 
L 258.712112 543.463294 
L 257.666854 548.769306 
L 256.872169 554.073732 
L 256.328618 559.373223 
L 256.035764 564.664898 
L 255.992063 569.946374 
L 256.194775 575.215779 
L 256.639908 580.471755 
L 257.322211 585.71343 
L 258.235217 590.940366 
L 259.371359 596.152479 
L 260.722166 601.349929 
L 262.278549 606.532982 
L 264.031181 611.701856 
L 266.484155 618.142989 
L 269.213726 624.561133 
L 272.207744 630.954238 
L 275.459531 637.3189 
L 278.969094 643.650581 
L 282.743085 649.944208 
L 286.792563 656.195113 
L 291.127427 662.40004 
L 295.746751 668.557659 
L 300.625458 674.667743 
L 306.72968 681.933665 
L 320.784037 698.44856 
L 325.191798 704.072885 
L 328.317489 708.406012 
L 331.041953 712.559476 
L 333.353312 716.508908 
L 335.264741 720.236338 
L 336.808271 723.730279 
L 338.027562 726.984774 
L 339.169976 730.713608 
L 339.976086 734.067446 
L 340.618493 737.604031 
L 341.162086 741.93091 
L 341.826857 747.710494 
L 342.062786 748.129004 
L 342.262781 748.136344 
L 342.573896 747.842217 
L 343.150974 746.86992 
L 344.825874 743.367678 
L 346.905932 739.236738 
L 348.979249 735.654947 
L 350.883825 732.779076 
L 353.23268 729.665847 
L 355.491541 727.024643 
L 358.136983 724.269331 
L 361.207995 721.420441 
L 364.730747 718.499719 
L 368.711474 715.528562 
L 373.13068 712.525803 
L 377.940757 709.505204 
L 384.389846 705.71348 
L 410.302082 690.867561 
L 416.844428 686.71617 
L 423.141615 682.425088 
L 429.185099 677.991931 
L 434.980572 673.421425 
L 440.537381 668.721454 
L 445.862118 663.899776 
L 450.955726 658.961893 
L 455.813018 653.910072 
L 460.423567 648.743278 
L 463.924913 644.524583 
L 467.251013 640.227058 
L 470.393195 635.847406 
L 473.342847 631.38221 
L 476.091758 626.828238 
L 478.632384 622.182687 
L 480.958028 617.443383 
L 483.062952 612.608927 
L 484.942433 607.678781 
L 486.59276 602.653312 
L 488.011202 597.53379 
L 489.195936 592.322356 
L 490.14597 587.021969 
L 490.861038 581.636327 
L 491.341506 576.169785 
L 491.588265 570.627269 
L 491.602637 565.014184 
L 491.386284 559.336329 
L 490.941132 553.599819 
L 490.269292 547.811011 
L 489.373012 541.976438 
L 488.254615 536.102755 
L 486.916471 530.196689 
L 485.360957 524.264997 
L 484.502427 521.291653 
L 484.502427 521.291653 
" style="fill:none;stroke:#b0a120;stroke-linecap:square;stroke-width:3;"/>
   </g>
   <g id="line2d_16">
    <path clip-path="url(#p67535be730)" d="M 264.263721 441.131319 
L 259.170127 444.613978 
L 254.256439 448.218556 
L 249.528821 451.9414 
L 244.99343 455.778869 
L 240.656373 459.727346 
L 236.523646 463.783248 
L 232.601072 467.943034 
L 228.894217 472.203227 
L 225.408299 476.560413 
L 222.148076 481.011258 
L 219.117733 485.552518 
L 216.320749 490.18104 
L 213.759768 494.893771 
L 211.436464 499.687758 
L 209.351412 504.560144 
L 207.503976 509.508161 
L 205.89222 514.529114 
L 204.512859 519.62036 
L 203.361256 524.779285 
L 202.431483 530.003265 
L 201.716459 535.289632 
L 201.20817 540.635641 
L 200.897983 546.038431 
L 200.77706 551.49502 
L 200.879104 558.386672 
L 201.248927 565.351323 
L 201.875813 572.38289 
L 202.754651 579.475893 
L 203.886998 586.626068 
L 205.280843 593.830924 
L 206.948173 601.089856 
L 208.899402 608.403191 
L 211.134116 615.769362 
L 213.62883 623.179579 
L 216.879831 632.09508 
L 224.43818 652.420877 
L 226.656487 659.213557 
L 228.111659 664.354414 
L 229.25125 669.189215 
L 230.072431 673.690999 
L 230.593732 677.847384 
L 230.849177 681.658533 
L 230.881832 685.13378 
L 230.680014 689.028467 
L 230.29043 692.455749 
L 229.684511 695.998768 
L 228.715443 700.250624 
L 227.363389 705.909021 
L 227.44195 706.382985 
L 227.627373 706.458285 
L 228.020324 706.288303 
L 228.895144 705.572015 
L 231.666873 702.853834 
L 235.034353 699.683441 
L 238.207679 697.026775 
L 240.981 694.975744 
L 244.252989 692.853621 
L 247.278969 691.144278 
L 250.707243 689.459926 
L 254.567429 687.833192 
L 258.876678 686.293464 
L 263.633534 684.862978 
L 268.813233 683.552766 
L 274.366332 682.359474 
L 281.72334 681.002137 
L 311.15048 675.914043 
L 318.718133 674.250626 
L 326.10319 672.372093 
L 333.298437 670.273281 
L 340.307605 667.960578 
L 347.136782 665.444591 
L 353.789509 662.734863 
L 360.26479 659.836888 
L 366.556976 656.75102 
L 372.656623 653.472723 
L 377.38969 650.705978 
L 381.985042 647.805218 
L 386.435657 644.76438 
L 390.73461 641.57731 
L 394.875292 638.238159 
L 398.851572 634.741714 
L 402.657899 631.083642 
L 406.289362 627.260665 
L 409.741706 623.270664 
L 413.011318 619.112713 
L 416.095196 614.787071 
L 418.990898 610.295129 
L 421.696477 605.639325 
L 424.210419 600.823045 
L 426.531579 595.850505 
L 428.659108 590.726641 
L 430.592402 585.456981 
L 432.331038 580.047546 
L 433.874733 574.504738 
L 435.2233 568.835255 
L 436.376613 563.046004 
L 437.334582 557.144034 
L 438.097131 551.136475 
L 438.664184 545.03049 
L 438.874374 541.942827 
L 438.874374 541.942827 
" style="fill:none;stroke:#6faf6b;stroke-linecap:square;stroke-width:3;"/>
   </g>
   <g id="line2d_17">
    <path clip-path="url(#p67535be730)" d="M 259.334135 391.290679 
L 253.356583 392.821196 
L 247.506389 394.52781 
L 241.790593 396.409199 
L 236.216228 398.464046 
L 230.790268 400.691039 
L 225.519575 403.088864 
L 220.410831 405.656186 
L 215.470455 408.391638 
L 210.704519 411.293799 
L 206.118632 414.361164 
L 201.717838 417.592114 
L 197.506485 420.984876 
L 193.488102 424.537488 
L 189.66527 428.247746 
L 186.039508 432.113162 
L 182.611164 436.130916 
L 179.379342 440.297815 
L 176.341858 444.610253 
L 173.495249 449.064185 
L 170.834842 453.655119 
L 168.354895 458.378127 
L 166.048817 463.227887 
L 163.909474 468.198759 
L 161.929579 473.284917 
L 159.668386 479.795852 
L 157.633855 486.46697 
L 155.817997 493.28889 
L 154.217885 500.254713 
L 152.83644 507.360965 
L 151.682019 514.608038 
L 150.766096 521.999463 
L 150.098343 529.53911 
L 149.678909 537.225364 
L 149.48873 545.041932 
L 149.49439 554.53167 
L 149.645083 576.21678 
L 149.406377 583.358517 
L 149.015515 588.68704 
L 148.43278 593.62003 
L 147.664738 598.131184 
L 146.733032 602.215203 
L 145.669583 605.883879 
L 144.511664 609.160712 
L 142.989956 612.751494 
L 141.451666 615.838841 
L 139.670505 618.960953 
L 137.305659 622.62495 
L 134.099858 627.479674 
L 134.011576 627.951924 
L 134.160063 628.086101 
L 134.587453 628.060768 
L 135.6545 627.686884 
L 139.188746 626.080615 
L 143.43748 624.253167 
L 147.328064 622.842059 
L 150.635628 621.863252 
L 154.4361 620.988194 
L 157.864221 620.416883 
L 161.661827 620.006649 
L 165.845591 619.798281 
L 170.421579 619.82526 
L 175.380816 620.107983 
L 180.69626 620.648347 
L 186.322597 621.426292 
L 193.700158 622.667058 
L 223.092856 627.950488 
L 230.773046 628.975677 
L 238.355226 629.736271 
L 245.834382 630.224953 
L 253.211836 630.448999 
L 260.489682 630.420461 
L 267.667982 630.149517 
L 274.743922 629.640987 
L 281.712071 628.893274 
L 288.565108 627.898884 
L 293.959019 626.917799 
L 299.269355 625.763679 
L 304.491593 624.428426 
L 309.62133 622.903888 
L 314.654355 621.18231 
L 319.58669 619.256693 
L 324.414602 617.121071 
L 329.134597 614.770682 
L 333.743399 612.202078 
L 338.237932 609.413155 
L 342.615287 606.40313 
L 346.872691 603.172474 
L 351.007482 599.722811 
L 355.017081 596.056807 
L 358.898965 592.178032 
L 362.650654 588.090832 
L 366.269685 583.800197 
L 369.753605 579.311639 
L 373.099956 574.631079 
L 376.306271 569.764745 
L 379.370071 564.719084 
L 382.28886 559.500691 
L 385.060129 554.116239 
L 387.681354 548.572434 
L 388.934911 545.742869 
L 388.934911 545.742869 
" style="fill:none;stroke:#08b8cb;stroke-linecap:square;stroke-width:3;"/>
   </g>
   <g id="line2d_18">
    <path clip-path="url(#p67535be730)" d="M 271.748343 342.769779 
L 265.607814 342.163552 
L 259.526732 341.76636 
L 253.512169 341.579369 
L 247.57118 341.603749 
L 241.710769 341.840651 
L 235.937833 342.291186 
L 230.259108 342.956386 
L 224.681094 343.837162 
L 219.209981 344.934255 
L 213.851557 346.24817 
L 208.611113 347.779109 
L 203.493343 349.526896 
L 198.502233 351.490891 
L 193.640963 353.669907 
L 188.911811 356.062126 
L 184.316069 358.665018 
L 179.853986 361.475274 
L 175.524744 364.488759 
L 171.326472 367.700488 
L 167.256315 371.104642 
L 163.310564 374.694626 
L 159.484843 378.463184 
L 155.77438 382.402578 
L 152.174319 386.504839 
L 147.822622 391.849743 
L 143.629131 397.422693 
L 139.589549 403.212141 
L 135.703483 409.210603 
L 131.974868 415.415813 
L 128.411423 421.830999 
L 125.02272 428.463403 
L 121.816527 435.319968 
L 118.793534 442.399229 
L 115.9414 449.679356 
L 112.701038 458.598729 
L 105.425898 479.027606 
L 102.75897 485.657001 
L 100.569217 490.530493 
L 98.334444 494.96668 
L 96.069815 498.943091 
L 93.797481 502.462153 
L 91.543404 505.545859 
L 89.334574 508.229043 
L 86.676516 511.08282 
L 84.175062 513.457851 
L 81.433493 515.782484 
L 77.958103 518.416689 
L 73.285222 521.88219 
L 73.040746 522.295765 
L 73.134387 522.472636 
L 73.544666 522.595006 
L 74.675238 522.608622 
L 78.545719 522.308006 
L 83.163247 522.04392 
L 87.301828 522.04857 
L 90.744693 522.260045 
L 94.615256 522.737598 
L 98.032036 523.373228 
L 101.740927 524.286592 
L 105.743645 525.521721 
L 110.03444 527.112153 
L 114.597901 529.073985 
L 119.407969 531.39975 
L 124.428923 534.055099 
L 130.937197 537.744313 
L 156.750259 552.762007 
L 163.616641 556.35215 
L 170.481421 559.660133 
L 177.342389 562.677365 
L 184.1983 565.411138 
L 191.046999 567.873491 
L 197.885063 570.07401 
L 204.708199 572.016262 
L 211.51185 573.69689 
L 218.2917 575.106345 
L 223.695869 576.029253 
L 229.080685 576.760977 
L 234.444667 577.29236 
L 239.786465 577.614236 
L 245.104777 577.717877 
L 250.398255 577.595348 
L 255.665435 577.239763 
L 260.904659 576.645452 
L 266.11403 575.808058 
L 271.291378 574.724549 
L 276.434235 573.393194 
L 281.539836 571.813487 
L 286.605123 569.986047 
L 291.62676 567.912493 
L 296.601158 565.59532 
L 301.524497 563.037761 
L 306.392757 560.243665 
L 311.201748 557.217371 
L 315.947135 553.963602 
L 320.62447 550.487368 
L 325.229218 546.79388 
L 329.756778 542.888479 
L 334.202509 538.776579 
L 338.561749 534.463618 
L 340.707475 532.233438 
L 340.707475 532.233438 
" style="fill:none;stroke:#6098dd;stroke-linecap:square;stroke-width:3;"/>
   </g>
   <g id="text_1">
    <!-- 1 -->
    <defs>
     <path d="M 12.40625 8.296875 
L 28.515625 8.296875 
L 28.515625 63.921875 
L 10.984375 60.40625 
L 10.984375 69.390625 
L 28.421875 72.90625 
L 38.28125 72.90625 
L 38.28125 8.296875 
L 54.390625 8.296875 
L 54.390625 0 
L 12.40625 0 
z
" id="DejaVuSans-49"/>
    </defs>
    <g transform="translate(7.2 410.510589)scale(0.3 -0.3)">
     <use xlink:href="#DejaVuSans-49"/>
    </g>
   </g>
   <g id="text_2">
    <!-- 2 -->
    <defs>
     <path d="M 19.1875 8.296875 
L 53.609375 8.296875 
L 53.609375 0 
L 7.328125 0 
L 7.328125 8.296875 
Q 12.9375 14.109375 22.625 23.890625 
Q 32.328125 33.6875 34.8125 36.53125 
Q 39.546875 41.84375 41.421875 45.53125 
Q 43.3125 49.21875 43.3125 52.78125 
Q 43.3125 58.59375 39.234375 62.25 
Q 35.15625 65.921875 28.609375 65.921875 
Q 23.96875 65.921875 18.8125 64.3125 
Q 13.671875 62.703125 7.8125 59.421875 
L 7.8125 69.390625 
Q 13.765625 71.78125 18.9375 73 
Q 24.125 74.21875 28.421875 74.21875 
Q 39.75 74.21875 46.484375 68.546875 
Q 53.21875 62.890625 53.21875 53.421875 
Q 53.21875 48.921875 51.53125 44.890625 
Q 49.859375 40.875 45.40625 35.40625 
Q 44.1875 33.984375 37.640625 27.21875 
Q 31.109375 20.453125 19.1875 8.296875 
z
" id="DejaVuSans-50"/>
    </defs>
    <g transform="translate(30.501887 278.35902)scale(0.3 -0.3)">
     <use xlink:href="#DejaVuSans-50"/>
    </g>
   </g>
   <g id="text_3">
    <!-- 3 -->
    <defs>
     <path d="M 40.578125 39.3125 
Q 47.65625 37.796875 51.625 33 
Q 55.609375 28.21875 55.609375 21.1875 
Q 55.609375 10.40625 48.1875 4.484375 
Q 40.765625 -1.421875 27.09375 -1.421875 
Q 22.515625 -1.421875 17.65625 -0.515625 
Q 12.796875 0.390625 7.625 2.203125 
L 7.625 11.71875 
Q 11.71875 9.328125 16.59375 8.109375 
Q 21.484375 6.890625 26.8125 6.890625 
Q 36.078125 6.890625 40.9375 10.546875 
Q 45.796875 14.203125 45.796875 21.1875 
Q 45.796875 27.640625 41.28125 31.265625 
Q 36.765625 34.90625 28.71875 34.90625 
L 20.21875 34.90625 
L 20.21875 43.015625 
L 29.109375 43.015625 
Q 36.375 43.015625 40.234375 45.921875 
Q 44.09375 48.828125 44.09375 54.296875 
Q 44.09375 59.90625 40.109375 62.90625 
Q 36.140625 65.921875 28.71875 65.921875 
Q 24.65625 65.921875 20.015625 65.03125 
Q 15.375 64.15625 9.8125 62.3125 
L 9.8125 71.09375 
Q 15.4375 72.65625 20.34375 73.4375 
Q 25.25 74.21875 29.59375 74.21875 
Q 40.828125 74.21875 47.359375 69.109375 
Q 53.90625 64.015625 53.90625 55.328125 
Q 53.90625 49.265625 50.4375 45.09375 
Q 46.96875 40.921875 40.578125 39.3125 
z
" id="DejaVuSans-51"/>
    </defs>
    <g transform="translate(97.596997 162.146881)scale(0.3 -0.3)">
     <use xlink:href="#DejaVuSans-51"/>
    </g>
   </g>
   <g id="text_4">
    <!-- 4 -->
    <defs>
     <path d="M 37.796875 64.3125 
L 12.890625 25.390625 
L 37.796875 25.390625 
z
M 35.203125 72.90625 
L 47.609375 72.90625 
L 47.609375 25.390625 
L 58.015625 25.390625 
L 58.015625 17.1875 
L 47.609375 17.1875 
L 47.609375 0 
L 37.796875 0 
L 37.796875 17.1875 
L 4.890625 17.1875 
L 4.890625 26.703125 
z
" id="DejaVuSans-52"/>
    </defs>
    <g transform="translate(200.392669 75.891071)scale(0.3 -0.3)">
     <use xlink:href="#DejaVuSans-52"/>
    </g>
   </g>
   <g id="text_5">
    <!-- 5 -->
    <defs>
     <path d="M 10.796875 72.90625 
L 49.515625 72.90625 
L 49.515625 64.59375 
L 19.828125 64.59375 
L 19.828125 46.734375 
Q 21.96875 47.46875 24.109375 47.828125 
Q 26.265625 48.1875 28.421875 48.1875 
Q 40.625 48.1875 47.75 41.5 
Q 54.890625 34.8125 54.890625 23.390625 
Q 54.890625 11.625 47.5625 5.09375 
Q 40.234375 -1.421875 26.90625 -1.421875 
Q 22.3125 -1.421875 17.546875 -0.640625 
Q 12.796875 0.140625 7.71875 1.703125 
L 7.71875 11.625 
Q 12.109375 9.234375 16.796875 8.0625 
Q 21.484375 6.890625 26.703125 6.890625 
Q 35.15625 6.890625 40.078125 11.328125 
Q 45.015625 15.765625 45.015625 23.390625 
Q 45.015625 31 40.078125 35.4375 
Q 35.15625 39.890625 26.703125 39.890625 
Q 22.75 39.890625 18.8125 39.015625 
Q 14.890625 38.140625 10.796875 36.28125 
z
" id="DejaVuSans-53"/>
    </defs>
    <g transform="translate(326.490228 29.995313)scale(0.3 -0.3)">
     <use xlink:href="#DejaVuSans-53"/>
    </g>
   </g>
   <g id="text_6">
    <!-- 6 -->
    <defs>
     <path d="M 33.015625 40.375 
Q 26.375 40.375 22.484375 35.828125 
Q 18.609375 31.296875 18.609375 23.390625 
Q 18.609375 15.53125 22.484375 10.953125 
Q 26.375 6.390625 33.015625 6.390625 
Q 39.65625 6.390625 43.53125 10.953125 
Q 47.40625 15.53125 47.40625 23.390625 
Q 47.40625 31.296875 43.53125 35.828125 
Q 39.65625 40.375 33.015625 40.375 
z
M 52.59375 71.296875 
L 52.59375 62.3125 
Q 48.875 64.0625 45.09375 64.984375 
Q 41.3125 65.921875 37.59375 65.921875 
Q 27.828125 65.921875 22.671875 59.328125 
Q 17.53125 52.734375 16.796875 39.40625 
Q 19.671875 43.65625 24.015625 45.921875 
Q 28.375 48.1875 33.59375 48.1875 
Q 44.578125 48.1875 50.953125 41.515625 
Q 57.328125 34.859375 57.328125 23.390625 
Q 57.328125 12.15625 50.6875 5.359375 
Q 44.046875 -1.421875 33.015625 -1.421875 
Q 20.359375 -1.421875 13.671875 8.265625 
Q 6.984375 17.96875 6.984375 36.375 
Q 6.984375 53.65625 15.1875 63.9375 
Q 23.390625 74.21875 37.203125 74.21875 
Q 40.921875 74.21875 44.703125 73.484375 
Q 48.484375 72.75 52.59375 71.296875 
z
" id="DejaVuSans-54"/>
    </defs>
    <g transform="translate(460.680447 29.995313)scale(0.3 -0.3)">
     <use xlink:href="#DejaVuSans-54"/>
    </g>
   </g>
   <g id="text_7">
    <!-- 7 -->
    <defs>
     <path d="M 8.203125 72.90625 
L 55.078125 72.90625 
L 55.078125 68.703125 
L 28.609375 0 
L 18.3125 0 
L 43.21875 64.59375 
L 8.203125 64.59375 
z
" id="DejaVuSans-55"/>
    </defs>
    <g transform="translate(586.778007 75.891071)scale(0.3 -0.3)">
     <use xlink:href="#DejaVuSans-55"/>
    </g>
   </g>
   <g id="text_8">
    <!-- 8 -->
    <defs>
     <path d="M 31.78125 34.625 
Q 24.75 34.625 20.71875 30.859375 
Q 16.703125 27.09375 16.703125 20.515625 
Q 16.703125 13.921875 20.71875 10.15625 
Q 24.75 6.390625 31.78125 6.390625 
Q 38.8125 6.390625 42.859375 10.171875 
Q 46.921875 13.96875 46.921875 20.515625 
Q 46.921875 27.09375 42.890625 30.859375 
Q 38.875 34.625 31.78125 34.625 
z
M 21.921875 38.8125 
Q 15.578125 40.375 12.03125 44.71875 
Q 8.5 49.078125 8.5 55.328125 
Q 8.5 64.0625 14.71875 69.140625 
Q 20.953125 74.21875 31.78125 74.21875 
Q 42.671875 74.21875 48.875 69.140625 
Q 55.078125 64.0625 55.078125 55.328125 
Q 55.078125 49.078125 51.53125 44.71875 
Q 48 40.375 41.703125 38.8125 
Q 48.828125 37.15625 52.796875 32.3125 
Q 56.78125 27.484375 56.78125 20.515625 
Q 56.78125 9.90625 50.3125 4.234375 
Q 43.84375 -1.421875 31.78125 -1.421875 
Q 19.734375 -1.421875 13.25 4.234375 
Q 6.78125 9.90625 6.78125 20.515625 
Q 6.78125 27.484375 10.78125 32.3125 
Q 14.796875 37.15625 21.921875 38.8125 
z
M 18.3125 54.390625 
Q 18.3125 48.734375 21.84375 45.5625 
Q 25.390625 42.390625 31.78125 42.390625 
Q 38.140625 42.390625 41.71875 45.5625 
Q 45.3125 48.734375 45.3125 54.390625 
Q 45.3125 60.0625 41.71875 63.234375 
Q 38.140625 66.40625 31.78125 66.40625 
Q 25.390625 66.40625 21.84375 63.234375 
Q 18.3125 60.0625 18.3125 54.390625 
z
" id="DejaVuSans-56"/>
    </defs>
    <g transform="translate(689.573679 162.146881)scale(0.3 -0.3)">
     <use xlink:href="#DejaVuSans-56"/>
    </g>
   </g>
   <g id="text_9">
    <!-- 9 -->
    <defs>
     <path d="M 10.984375 1.515625 
L 10.984375 10.5 
Q 14.703125 8.734375 18.5 7.8125 
Q 22.3125 6.890625 25.984375 6.890625 
Q 35.75 6.890625 40.890625 13.453125 
Q 46.046875 20.015625 46.78125 33.40625 
Q 43.953125 29.203125 39.59375 26.953125 
Q 35.25 24.703125 29.984375 24.703125 
Q 19.046875 24.703125 12.671875 31.3125 
Q 6.296875 37.9375 6.296875 49.421875 
Q 6.296875 60.640625 12.9375 67.421875 
Q 19.578125 74.21875 30.609375 74.21875 
Q 43.265625 74.21875 49.921875 64.515625 
Q 56.59375 54.828125 56.59375 36.375 
Q 56.59375 19.140625 48.40625 8.859375 
Q 40.234375 -1.421875 26.421875 -1.421875 
Q 22.703125 -1.421875 18.890625 -0.6875 
Q 15.09375 0.046875 10.984375 1.515625 
z
M 30.609375 32.421875 
Q 37.25 32.421875 41.125 36.953125 
Q 45.015625 41.5 45.015625 49.421875 
Q 45.015625 57.28125 41.125 61.84375 
Q 37.25 66.40625 30.609375 66.40625 
Q 23.96875 66.40625 20.09375 61.84375 
Q 16.21875 57.28125 16.21875 49.421875 
Q 16.21875 41.5 20.09375 36.953125 
Q 23.96875 32.421875 30.609375 32.421875 
z
" id="DejaVuSans-57"/>
    </defs>
    <g transform="translate(756.668788 278.35902)scale(0.3 -0.3)">
     <use xlink:href="#DejaVuSans-57"/>
    </g>
   </g>
   <g id="text_10">
    <!-- 1' -->
    <defs>
     <path d="M 17.921875 72.90625 
L 17.921875 45.796875 
L 9.625 45.796875 
L 9.625 72.90625 
z
" id="DejaVuSans-39"/>
    </defs>
    <g transform="translate(775.848019 410.510589)scale(0.3 -0.3)">
     <use xlink:href="#DejaVuSans-49"/>
     <use x="63.623047" xlink:href="#DejaVuSans-39"/>
    </g>
   </g>
   <g id="text_11">
    <!-- 2' -->
    <g transform="translate(752.546132 542.662157)scale(0.3 -0.3)">
     <use xlink:href="#DejaVuSans-50"/>
     <use x="63.623047" xlink:href="#DejaVuSans-39"/>
    </g>
   </g>
   <g id="text_12">
    <!-- 3' -->
    <g transform="translate(685.451022 658.874296)scale(0.3 -0.3)">
     <use xlink:href="#DejaVuSans-51"/>
     <use x="63.623047" xlink:href="#DejaVuSans-39"/>
    </g>
   </g>
   <g id="text_13">
    <!-- 4' -->
    <g transform="translate(582.65535 745.130107)scale(0.3 -0.3)">
     <use xlink:href="#DejaVuSans-52"/>
     <use x="63.623047" xlink:href="#DejaVuSans-39"/>
    </g>
   </g>
   <g id="text_14">
    <!-- 5' -->
    <g transform="translate(456.557791 791.025865)scale(0.3 -0.3)">
     <use xlink:href="#DejaVuSans-53"/>
     <use x="63.623047" xlink:href="#DejaVuSans-39"/>
    </g>
   </g>
   <g id="text_15">
    <!-- 6' -->
    <g transform="translate(322.367572 791.025865)scale(0.3 -0.3)">
     <use xlink:href="#DejaVuSans-54"/>
     <use x="63.623047" xlink:href="#DejaVuSans-39"/>
    </g>
   </g>
   <g id="text_16">
    <!-- 7' -->
    <g transform="translate(196.270013 745.130107)scale(0.3 -0.3)">
     <use xlink:href="#DejaVuSans-55"/>
     <use x="63.623047" xlink:href="#DejaVuSans-39"/>
    </g>
   </g>
   <g id="text_17">
    <!-- 8' -->
    <g transform="translate(93.474341 658.874296)scale(0.3 -0.3)">
     <use xlink:href="#DejaVuSans-56"/>
     <use x="63.623047" xlink:href="#DejaVuSans-39"/>
    </g>
   </g>
   <g id="text_18">
    <!-- 9' -->
    <g transform="translate(26.379231 542.662157)scale(0.3 -0.3)">
     <use xlink:href="#DejaVuSans-57"/>
     <use x="63.623047" xlink:href="#DejaVuSans-39"/>
    </g>
   </g>
  </g>
 </g>
 <defs>
  <clipPath id="p67535be730">
   <rect height="761.04" width="772.770674" x="16.743751" y="21.712464"/>
  </clipPath>
 </defs>
</svg>
