<?xml version="1.0" encoding="utf-8" standalone="no"?>
<!DOCTYPE svg PUBLIC "-//W3C//DTD SVG 1.1//EN"
  "http://www.w3.org/Graphics/SVG/1.1/DTD/svg11.dtd">
<!-- Created with matplotlib (https://matplotlib.org/) -->
<svg height="786.399726pt" version="1.1" viewBox="0 0 818.810156 786.399726" width="818.810156pt" xmlns="http://www.w3.org/2000/svg" xmlns:xlink="http://www.w3.org/1999/xlink">
 <defs>
  <style type="text/css">
*{stroke-linecap:butt;stroke-linejoin:round;}
  </style>
 </defs>
 <g id="figure_1">
  <g id="patch_1">
   <path d="M 0 786.399726 
L 818.810156 786.399726 
L 818.810156 0 
L 0 0 
z
" style="fill:none;"/>
  </g>
  <g id="axes_1">
   <g id="patch_2">
    <path d="M 16.74375 768.114957 
L 797.94375 768.114957 
L 797.94375 18.284769 
L 16.74375 18.284769 
z
" style="fill:none;"/>
   </g>
   <g id="matplotlib.axis_1"/>
   <g id="matplotlib.axis_2"/>
   <g id="line2d_1">
    <path clip-path="url(#p694c3bc698)" d="M 52.252841 393.199863 
L 52.366178 396.97318 
L 52.705939 400.740122 
L 53.271368 404.494335 
L 54.061213 408.229511 
L 55.073727 411.939404 
L 56.306674 415.617859 
L 57.75734 419.258827 
L 59.474734 422.961482 
L 61.415497 426.611847 
L 63.575162 430.203815 
L 66.019693 433.831278 
L 68.684699 437.384559 
L 71.563814 440.85777 
L 74.73884 444.338144 
L 78.12495 447.72231 
L 81.813556 451.092177 
L 85.70658 454.349543 
L 89.904261 457.570481 
L 94.295814 460.6629 
L 98.989411 463.696598 
L 103.98633 466.656879 
L 109.15775 469.462356 
L 114.621483 472.172532 
L 120.373647 474.772891 
L 126.269576 477.194863 
L 132.434134 479.48722 
L 138.858079 481.636625 
L 145.530052 483.630283 
L 152.288837 485.419456 
L 159.264062 487.038564 
L 166.439426 488.47743 
L 173.796763 489.72695 
L 181.316154 490.779238 
L 188.976077 491.627753 
L 196.753576 492.267414 
L 204.624471 492.694702 
L 212.709713 492.909631 
L 220.833011 492.902251 
L 228.966801 492.674618 
L 237.22186 492.221135 
L 245.425711 491.550105 
L 253.681831 490.653496 
L 261.951236 489.532142 
L 270.194487 488.189871 
L 278.372392 486.633412 
L 286.446721 484.87222 
L 294.488461 482.890149 
L 302.345017 480.726102 
L 310.081319 478.36565 
L 317.652609 475.823294 
L 325.018259 473.115513 
L 327.614644 472.102746 
M 327.614644 314.29698 
L 320.427729 311.568621 
L 313.034144 308.997537 
L 305.372722 306.569681 
L 297.575083 304.332438 
L 289.687912 302.298584 
L 281.644452 300.452826 
L 273.480491 298.808113 
L 265.233823 297.375084 
L 256.943528 296.16175 
L 248.649247 295.173262 
L 240.390466 294.41178 
L 232.065555 293.869178 
L 223.846561 293.556288 
L 215.624637 293.467229 
L 207.575467 293.600574 
L 199.582869 293.953584 
L 191.673129 294.525238 
L 183.871651 295.312796 
L 176.202699 296.311866 
L 168.689171 297.51649 
L 161.352399 298.919254 
L 154.211979 300.511419 
L 147.285636 302.28306 
L 140.589125 304.223215 
L 134.136157 306.320043 
L 127.798925 308.614108 
L 121.732572 311.047609 
L 115.945494 313.606633 
L 110.443945 316.276953 
L 105.10706 319.113632 
L 100.070637 322.040228 
L 95.219578 325.118769 
L 90.678538 328.2646 
L 86.445235 331.46281 
L 82.414903 334.785616 
L 78.693381 338.138066 
L 75.184267 341.598517 
L 71.980246 345.066217 
L 68.994148 348.625195 
L 66.305029 352.169865 
L 63.835701 355.789385 
L 61.592101 359.477623 
L 59.632393 363.123218 
L 57.89569 366.821635 
L 56.386009 370.566596 
L 55.140176 374.243012 
L 54.114629 377.951226 
L 53.311632 381.685086 
L 52.732962 385.438353 
L 52.379901 389.204722 
L 52.253233 392.977841 
L 52.252841 393.199863 
L 52.252841 393.199863 
" style="fill:none;stroke:#8d5ccd;stroke-linecap:square;stroke-width:3;"/>
   </g>
   <g id="line2d_2">
    <path clip-path="url(#p694c3bc698)" d="M 120.06917 184.482663 
L 117.942961 187.601959 
L 116.00368 190.849185 
L 114.254451 194.218759 
L 112.697969 197.704838 
L 111.336489 201.301345 
L 110.171822 205.001986 
L 109.205329 208.800272 
L 108.418364 212.805241 
L 107.842843 216.8992 
L 107.478743 221.074582 
L 107.32424 225.446121 
L 107.391709 229.887237 
L 107.67946 234.389426 
L 108.202398 239.071341 
L 108.952656 243.799494 
L 109.956043 248.693882 
L 111.190933 253.617408 
L 112.693708 258.690537 
L 114.428871 263.773646 
L 116.442908 268.986787 
L 118.745491 274.318819 
L 121.280239 279.628182 
L 124.107491 285.032263 
L 127.232637 290.517034 
L 130.578944 295.941991 
L 134.218763 301.419983 
L 138.152454 306.934789 
L 142.378351 312.469379 
L 146.794674 317.889564 
L 151.486062 323.299385 
L 156.445309 328.681025 
L 161.66307 334.016442 
L 167.127866 339.287548 
L 172.82613 344.476401 
L 178.742275 349.565397 
L 184.858809 354.537476 
L 191.273575 359.463743 
L 197.849799 364.232527 
L 204.563973 368.829291 
L 211.509007 373.314617 
L 218.540483 377.593845 
L 225.746838 381.721299 
L 233.096042 385.674738 
L 240.553939 389.434079 
L 248.084867 392.98173 
L 255.652339 396.302867 
L 263.323276 399.426154 
L 270.951358 402.293371 
L 278.597597 404.931009 
L 286.217258 407.324492 
L 293.767788 409.463272 
L 296.463597 410.170043 
M 389.219499 282.502497 
L 385.008852 276.070845 
L 380.538561 269.644954 
L 375.767399 263.177507 
L 370.773995 256.784203 
L 365.588609 250.502817 
L 360.166222 244.28174 
L 354.528177 238.152483 
L 348.698795 232.145869 
L 342.704985 226.291348 
L 336.57579 220.616388 
L 330.341884 215.145947 
L 323.925823 209.813712 
L 317.460429 204.729576 
L 310.861101 199.824801 
L 304.270807 195.201495 
L 297.597166 190.789154 
L 290.862042 186.602404 
L 284.087598 182.653958 
L 277.296047 178.954526 
L 270.509416 175.512746 
L 263.749318 172.33516 
L 257.036746 169.426215 
L 250.391872 166.7883 
L 243.833887 164.421808 
L 237.380841 162.325218 
L 230.905495 160.456224 
L 224.567337 158.859255 
L 218.381335 157.52799 
L 212.360914 156.454595 
L 206.375925 155.612574 
L 200.581163 155.019905 
L 194.847053 154.659116 
L 189.324202 154.53499 
L 184.019527 154.634123 
L 178.805823 154.95336 
L 173.824528 155.478093 
L 168.951593 156.215052 
L 164.321223 157.137203 
L 159.813505 158.261293 
L 155.554457 159.548366 
L 151.429228 161.025186 
L 147.446226 162.690277 
L 143.717961 164.487739 
L 140.139064 166.459013 
L 136.716474 168.601381 
L 133.54763 170.843382 
L 130.538312 173.240588 
L 127.693966 175.789355 
L 125.019697 178.485678 
L 122.520249 181.32521 
L 120.199989 184.303274 
L 120.06917 184.482663 
L 120.06917 184.482663 
" style="fill:none;stroke:#b51e4d;stroke-linecap:square;stroke-width:3;"/>
   </g>
   <g id="line2d_3">
    <path clip-path="url(#p694c3bc698)" d="M 297.614625 55.48834 
L 294.06101 56.762149 
L 290.583427 58.24933 
L 287.187685 59.947201 
L 283.879398 61.852621 
L 280.663964 63.961998 
L 277.546547 66.271306 
L 274.532061 68.776093 
L 271.54133 71.553615 
L 268.669356 74.527415 
L 265.920564 77.691357 
L 263.226043 81.137192 
L 260.670204 84.769788 
L 258.25668 88.58127 
L 255.927785 92.676394 
L 253.755617 96.942541 
L 251.690525 101.49196 
L 249.795596 106.201027 
L 248.029457 111.188583 
L 246.445456 116.320808 
L 245.010639 121.722148 
L 243.739378 127.389278 
L 242.669267 133.17453 
L 241.780123 139.20834 
L 241.084551 145.482528 
L 240.603061 151.83832 
L 240.327853 158.409541 
L 240.268755 165.183278 
L 240.434428 172.144776 
L 240.821403 179.125647 
L 241.437002 186.259812 
L 242.285869 193.528623 
L 243.371047 200.911989 
L 244.693881 208.38853 
L 246.253942 215.935755 
L 248.048967 223.530263 
L 250.074833 231.147968 
L 252.3689 238.903907 
L 254.886156 246.627341 
L 257.616127 254.292693 
L 260.598369 262.003587 
L 263.771685 269.598553 
L 267.175693 277.173523 
L 270.79755 284.691676 
L 274.621431 292.116689 
L 278.628822 299.413367 
L 282.798921 306.548272 
L 287.169017 313.583928 
L 291.654957 320.387229 
L 296.290529 327.01547 
L 301.048111 333.430563 
L 305.899474 339.598962 
L 307.665 341.755308 
M 457.747202 292.990645 
L 458.121147 285.312373 
L 458.28165 277.486147 
L 458.223168 269.449454 
L 457.94131 261.342112 
L 457.438351 253.212472 
L 456.708204 244.992316 
L 455.749617 236.719683 
L 454.564148 228.433805 
L 453.156254 220.174325 
L 451.533289 211.980536 
L 449.705398 203.890657 
L 447.648904 195.805523 
L 445.406671 187.892107 
L 442.950657 180.045073 
L 440.336508 172.431063 
L 437.530928 164.938736 
L 434.543008 157.592777 
L 431.383206 150.4165 
L 428.063197 143.431623 
L 424.595725 136.658082 
L 420.99443 130.113875 
L 417.273679 123.814938 
L 413.448391 117.775062 
L 409.533859 112.005842 
L 405.545579 106.51666 
L 401.405482 101.1985 
L 397.216479 96.181048 
L 392.994396 91.467992 
L 388.754699 87.060882 
L 384.407669 82.861785 
L 380.06797 78.97623 
L 375.641044 75.31392 
L 371.245923 71.96725 
L 366.896081 68.92944 
L 362.490464 66.12317 
L 358.152081 63.619757 
L 353.776621 61.351729 
L 349.488546 59.376102 
L 345.181001 57.635939 
L 340.978837 56.173798 
L 336.773404 54.943821 
L 332.572371 53.949759 
L 328.49962 53.212517 
L 324.445546 52.703688 
L 320.417359 52.425152 
L 316.535896 52.376369 
L 312.692264 52.546917 
L 308.893013 52.937048 
L 305.144625 53.546524 
L 301.453493 54.374615 
L 297.825901 55.420104 
L 297.614625 55.48834 
L 297.614625 55.48834 
" style="fill:none;stroke:#eba302;stroke-linecap:square;stroke-width:3;"/>
   </g>
   <g id="line2d_4">
    <path clip-path="url(#p694c3bc698)" d="M 517.072875 55.48834 
L 513.449214 54.430111 
L 509.761648 53.589193 
L 506.016451 52.966833 
L 502.220013 52.563788 
L 498.378811 52.380325 
L 494.499391 52.416222 
L 490.588344 52.670767 
L 486.536206 53.159922 
L 482.464774 53.877673 
L 478.381236 54.821657 
L 474.175912 56.025596 
L 469.973008 57.462143 
L 465.780093 59.127064 
L 461.488924 61.071198 
L 457.224025 63.245815 
L 452.879249 65.712542 
L 448.578299 68.408445 
L 444.217851 71.405353 
L 439.919721 74.626358 
L 435.584101 78.15277 
L 431.224574 81.990345 
L 426.95835 86.041717 
L 422.692433 90.400546 
L 418.441829 95.067624 
L 414.316454 99.926555 
L 410.23134 105.081021 
L 406.202026 110.526353 
L 402.244192 116.255702 
L 398.454008 122.130804 
L 394.758681 128.264305 
L 391.172929 134.643848 
L 387.711023 141.254968 
L 384.386618 148.08116 
L 381.212586 155.103974 
L 378.200852 162.303149 
L 375.362237 169.656775 
L 372.65935 177.279881 
L 370.156133 185.007877 
L 367.859144 192.813913 
L 365.739479 200.805075 
L 363.842537 208.81476 
L 362.143981 216.943865 
L 360.655065 225.155053 
L 359.384337 233.409635 
L 358.337505 241.668257 
L 357.517393 249.891639 
L 356.917421 258.152282 
L 356.547743 266.293038 
L 356.402017 274.380119 
L 356.480284 282.366474 
L 356.779426 290.208374 
L 356.940298 292.990645 
M 507.0225 341.755308 
L 511.838202 335.763256 
L 516.568192 329.526047 
L 521.24473 322.98985 
L 525.782077 316.265201 
L 530.153657 309.392552 
L 534.394643 302.313136 
L 538.481661 295.056993 
L 542.392913 287.656775 
L 546.108704 280.147177 
L 549.611886 272.564307 
L 552.888202 264.94505 
L 555.976786 257.195263 
L 558.814171 249.475223 
L 561.439585 241.68323 
L 563.800097 233.986808 
L 565.934213 226.27631 
L 567.834782 218.57705 
L 569.496559 210.914034 
L 570.916223 203.311697 
L 572.092366 195.793659 
L 573.025445 188.382496 
L 573.717717 181.099547 
L 574.173145 173.964736 
L 574.397283 166.996435 
L 574.397158 160.211342 
L 574.173685 153.475371 
L 573.733894 146.953934 
L 573.088423 140.659313 
L 572.24887 134.601855 
L 571.200216 128.649593 
L 569.973198 122.955303 
L 568.544391 117.39035 
L 566.955787 112.09945 
L 565.222271 107.085037 
L 563.307535 102.22516 
L 561.26918 97.649818 
L 559.062471 93.243115 
L 556.75459 89.124331 
L 554.292555 85.184599 
L 551.752358 81.531732 
L 549.073053 78.064768 
L 546.258642 74.791249 
L 543.397057 71.800905 
L 540.416324 69.006329 
L 537.321172 66.41328 
L 534.209676 64.092347 
L 530.999867 61.971093 
L 527.696895 60.053572 
L 524.306144 58.343401 
L 520.833216 56.843748 
L 517.28391 55.557321 
L 517.072875 55.48834 
L 517.072875 55.48834 
" style="fill:none;stroke:#6faf6b;stroke-linecap:square;stroke-width:3;"/>
   </g>
   <g id="line2d_5">
    <path clip-path="url(#p694c3bc698)" d="M 694.61833 184.482663 
L 692.308738 181.496603 
L 689.819713 178.648789 
L 687.1556 175.943918 
L 684.321121 173.386357 
L 681.321359 170.980131 
L 678.161743 168.728907 
L 674.848022 166.635982 
L 671.282255 164.64993 
L 667.566514 162.837475 
L 663.708003 161.20093 
L 659.598166 159.70311 
L 655.353565 158.394896 
L 650.982809 157.277311 
L 646.368447 156.327863 
L 641.639863 155.580321 
L 636.67496 155.02215 
L 631.610806 154.675147 
L 626.321591 154.536688 
L 620.951072 154.616159 
L 615.370709 154.920673 
L 609.588107 155.462871 
L 603.755323 156.232876 
L 597.742068 157.251799 
L 591.560018 158.529102 
L 585.366511 160.035225 
L 579.031865 161.804106 
L 572.571396 163.841101 
L 566.001814 166.149885 
L 559.482193 168.675128 
L 552.887429 171.465177 
L 546.236694 174.518683 
L 539.550034 177.832334 
L 532.848198 181.400803 
L 526.152446 185.21673 
L 519.484334 189.270731 
L 512.865493 193.551444 
L 506.198062 198.129949 
L 499.630515 202.910675 
L 493.183939 207.875755 
L 486.772007 213.094833 
L 480.529373 218.45981 
L 474.377045 224.038008 
L 468.346072 229.805836 
L 462.466109 235.737018 
L 456.764908 241.803071 
L 451.267841 247.973877 
L 445.926969 254.304223 
L 440.842877 260.672941 
L 435.971516 267.129871 
L 431.340573 273.636973 
L 426.973231 280.157034 
L 425.468001 282.502497 
M 518.223903 410.170043 
L 525.641928 408.152969 
L 533.13471 405.88718 
L 540.759988 403.348086 
L 548.383428 400.574716 
L 555.959754 397.584176 
L 563.551959 394.349598 
L 571.12348 390.881543 
L 578.637488 387.193618 
L 586.057657 383.302312 
L 593.34889 379.22676 
L 600.477972 374.988422 
L 607.5319 370.534137 
L 614.365118 365.956267 
L 621.069141 361.195591 
L 627.502679 356.356529 
L 633.761333 351.373007 
L 639.824437 346.261301 
L 645.67305 341.038559 
L 651.290124 335.722597 
L 656.660635 330.331696 
L 661.771685 324.88439 
L 666.612555 319.399267 
L 671.174739 313.894777 
L 675.451936 308.389049 
L 679.440013 302.899719 
L 683.218524 297.318851 
L 686.69593 291.784394 
L 689.873618 286.312541 
L 692.75489 280.918477 
L 695.405163 275.486613 
L 697.759504 270.158612 
L 699.874573 264.816639 
L 701.699278 259.602453 
L 703.244231 254.526773 
L 704.551742 249.469596 
L 705.591996 244.569952 
L 706.396926 239.707783 
L 706.950771 235.019079 
L 707.27466 230.384621 
L 707.366699 225.936298 
L 707.236926 221.55661 
L 706.884145 217.254008 
L 706.326755 213.152772 
L 705.557902 209.139881 
L 704.578027 205.222776 
L 703.424984 201.51621 
L 702.075036 197.913401 
L 700.529966 194.420656 
L 698.792005 191.044065 
L 696.863821 187.789484 
L 694.748514 184.662513 
L 694.61833 184.482663 
L 694.61833 184.482663 
" style="fill:none;stroke:#6098dd;stroke-linecap:square;stroke-width:3;"/>
   </g>
   <g id="line2d_6">
    <path clip-path="url(#p694c3bc698)" d="M 762.434659 393.199863 
L 762.321322 389.426545 
L 761.981561 385.659603 
L 761.416132 381.90539 
L 760.626287 378.170215 
L 759.613773 374.460322 
L 758.380826 370.781867 
L 756.93016 367.140899 
L 755.212766 363.438243 
L 753.272003 359.787879 
L 751.112338 356.195911 
L 748.667807 352.568447 
L 746.002801 349.015166 
L 743.123686 345.541955 
L 739.94866 342.061581 
L 736.56255 338.677415 
L 732.873944 335.307549 
L 728.98092 332.050182 
L 724.783239 328.829244 
L 720.391686 325.736825 
L 715.698089 322.703127 
L 710.70117 319.742847 
L 705.52975 316.93737 
L 700.066017 314.227193 
L 694.313853 311.626835 
L 688.417924 309.204862 
L 682.253366 306.912506 
L 675.829421 304.7631 
L 669.157448 302.769443 
L 662.398663 300.98027 
L 655.423438 299.361162 
L 648.248074 297.922296 
L 640.890737 296.672776 
L 633.371346 295.620488 
L 625.711423 294.771973 
L 617.933924 294.132311 
L 610.063029 293.705024 
L 601.977787 293.490095 
L 593.854489 293.497475 
L 585.720699 293.725107 
L 577.46564 294.178591 
L 569.261789 294.84962 
L 561.005669 295.74623 
L 552.736264 296.867583 
L 544.493013 298.209855 
L 536.315108 299.766313 
L 528.240779 301.527505 
L 520.199039 303.509577 
L 512.342483 305.673624 
L 504.606181 308.034076 
L 497.034891 310.576432 
L 489.669241 313.284213 
L 487.072856 314.29698 
M 487.072856 472.102746 
L 494.259771 474.831105 
L 501.653356 477.402189 
L 509.314778 479.830045 
L 517.112417 482.067287 
L 524.999588 484.101142 
L 533.043048 485.946899 
L 541.207009 487.591613 
L 549.453677 489.024642 
L 557.743972 490.237975 
L 566.038253 491.226464 
L 574.297034 491.987946 
L 582.621945 492.530548 
L 590.840939 492.843438 
L 599.062863 492.932496 
L 607.112033 492.799152 
L 615.104631 492.446142 
L 623.014371 491.874488 
L 630.815849 491.086929 
L 638.484801 490.087859 
L 645.998329 488.883236 
L 653.335101 487.480472 
L 660.475521 485.888306 
L 667.401864 484.116666 
L 674.098375 482.176511 
L 680.551343 480.079682 
L 686.888575 477.785618 
L 692.954928 475.352117 
L 698.742006 472.793092 
L 704.243555 470.122772 
L 709.58044 467.286094 
L 714.616863 464.359497 
L 719.467922 461.280956 
L 724.008962 458.135126 
L 728.242265 454.936915 
L 732.272597 451.614109 
L 735.994119 448.26166 
L 739.503233 444.801208 
L 742.707254 441.333509 
L 745.693352 437.774531 
L 748.382471 434.229861 
L 750.851799 430.61034 
L 753.095399 426.922103 
L 755.055107 423.276507 
L 756.79181 419.57809 
L 758.301491 415.833129 
L 759.547324 412.156713 
L 760.572871 408.4485 
L 761.375868 404.71464 
L 761.954538 400.961373 
L 762.307599 397.195004 
L 762.434267 393.421885 
L 762.434659 393.199863 
L 762.434659 393.199863 
" style="fill:none;stroke:#8d5ccd;stroke-linecap:square;stroke-width:3;"/>
   </g>
   <g id="line2d_7">
    <path clip-path="url(#p694c3bc698)" d="M 694.61833 601.917062 
L 696.744539 598.797766 
L 698.68382 595.55054 
L 700.433049 592.180967 
L 701.989531 588.694887 
L 703.351011 585.09838 
L 704.515678 581.39774 
L 705.482171 577.599454 
L 706.269136 573.594484 
L 706.844657 569.500525 
L 707.208757 565.325143 
L 707.36326 560.953604 
L 707.295791 556.512488 
L 707.00804 552.0103 
L 706.485102 547.328385 
L 705.734844 542.600231 
L 704.731457 537.705844 
L 703.496567 532.782317 
L 701.993792 527.709189 
L 700.258629 522.626079 
L 698.244592 517.412939 
L 695.942009 512.080906 
L 693.407261 506.771543 
L 690.580009 501.367463 
L 687.454863 495.882691 
L 684.108556 490.457734 
L 680.468737 484.979742 
L 676.535046 479.464937 
L 672.309149 473.930347 
L 667.892826 468.510162 
L 663.201438 463.100341 
L 658.242191 457.718701 
L 653.02443 452.383284 
L 647.559634 447.112177 
L 641.86137 441.923325 
L 635.945225 436.834329 
L 629.828691 431.86225 
L 623.413925 426.935982 
L 616.837701 422.167199 
L 610.123527 417.570435 
L 603.178493 413.085109 
L 596.147017 408.805881 
L 588.940662 404.678427 
L 581.591458 400.724987 
L 574.133561 396.965646 
L 566.602633 393.417996 
L 559.035161 390.096858 
L 551.364224 386.973571 
L 543.736142 384.106354 
L 536.089903 381.468716 
L 528.470242 379.075233 
L 520.919712 376.936453 
L 518.223903 376.229683 
M 425.468001 503.897229 
L 429.678648 510.32888 
L 434.148939 516.754771 
L 438.920101 523.222219 
L 443.913505 529.615523 
L 449.098891 535.896909 
L 454.521278 542.117985 
L 460.159323 548.247242 
L 465.988705 554.253857 
L 471.982515 560.108377 
L 478.11171 565.783337 
L 484.345616 571.253779 
L 490.761677 576.586013 
L 497.227071 581.67015 
L 503.826399 586.574925 
L 510.416693 591.198231 
L 517.090334 595.610571 
L 523.825458 599.797322 
L 530.599902 603.745767 
L 537.391453 607.445199 
L 544.178084 610.886979 
L 550.938182 614.064566 
L 557.650754 616.973511 
L 564.295628 619.611425 
L 570.853613 621.977918 
L 577.306659 624.074507 
L 583.782005 625.943502 
L 590.120163 627.54047 
L 596.306165 628.871736 
L 602.326586 629.945131 
L 608.311575 630.787152 
L 614.106337 631.379821 
L 619.840447 631.74061 
L 625.363298 631.864736 
L 630.667973 631.765602 
L 635.881677 631.446365 
L 640.862972 630.921632 
L 645.735907 630.184674 
L 650.366277 629.262522 
L 654.873995 628.138433 
L 659.133043 626.851359 
L 663.258272 625.37454 
L 667.241274 623.709448 
L 670.969539 621.911987 
L 674.548436 619.940713 
L 677.971026 617.798344 
L 681.13987 615.556344 
L 684.149188 613.159138 
L 686.993534 610.610371 
L 689.667803 607.914047 
L 692.167251 605.074515 
L 694.487511 602.096452 
L 694.61833 601.917062 
L 694.61833 601.917062 
" style="fill:none;stroke:#b51e4d;stroke-linecap:square;stroke-width:3;"/>
   </g>
   <g id="line2d_8">
    <path clip-path="url(#p694c3bc698)" d="M 517.072875 730.911386 
L 520.62649 729.637576 
L 524.104073 728.150396 
L 527.499815 726.452525 
L 530.808102 724.547105 
L 534.023536 722.437727 
L 537.140953 720.12842 
L 540.155439 717.623633 
L 543.14617 714.846111 
L 546.018144 711.872311 
L 548.766936 708.708369 
L 551.461457 705.262534 
L 554.017296 701.629938 
L 556.43082 697.818455 
L 558.759715 693.723332 
L 560.931883 689.457185 
L 562.996975 684.907766 
L 564.891904 680.198699 
L 566.658043 675.211142 
L 568.242044 670.078917 
L 569.676861 664.677577 
L 570.948122 659.010448 
L 572.018233 653.225195 
L 572.907377 647.191386 
L 573.602949 640.917198 
L 574.084439 634.561405 
L 574.359647 627.990185 
L 574.418745 621.216447 
L 574.253072 614.25495 
L 573.866097 607.274079 
L 573.250498 600.139913 
L 572.401631 592.871103 
L 571.316453 585.487737 
L 569.993619 578.011195 
L 568.433558 570.46397 
L 566.638533 562.869463 
L 564.612667 555.251758 
L 562.3186 547.495819 
L 559.801344 539.772384 
L 557.071373 532.107032 
L 554.089131 524.396139 
L 550.915815 516.801173 
L 547.511807 509.226203 
L 543.88995 501.708049 
L 540.066069 494.283037 
L 536.058678 486.986359 
L 531.888579 479.851453 
L 527.518483 472.815798 
L 523.032543 466.012496 
L 518.396971 459.384256 
L 513.639389 452.969163 
L 508.788026 446.800763 
L 507.0225 444.644417 
M 356.940298 493.409081 
L 356.566353 501.087352 
L 356.40585 508.913578 
L 356.464332 516.950272 
L 356.74619 525.057613 
L 357.249149 533.187254 
L 357.979296 541.40741 
L 358.937883 549.680043 
L 360.123352 557.96592 
L 361.531246 566.2254 
L 363.154211 574.41919 
L 364.982102 582.509068 
L 367.038596 590.594202 
L 369.280829 598.507618 
L 371.736843 606.354653 
L 374.350992 613.968663 
L 377.156572 621.460989 
L 380.144492 628.806948 
L 383.304294 635.983226 
L 386.624303 642.968103 
L 390.091775 649.741643 
L 393.69307 656.28585 
L 397.413821 662.584787 
L 401.239109 668.624664 
L 405.153641 674.393883 
L 409.141921 679.883065 
L 413.282018 685.201226 
L 417.471021 690.218677 
L 421.693104 694.931734 
L 425.932801 699.338844 
L 430.279831 703.537941 
L 434.61953 707.423496 
L 439.046456 711.085806 
L 443.441577 714.432476 
L 447.791419 717.470285 
L 452.197036 720.276555 
L 456.535419 722.779969 
L 460.910879 725.047996 
L 465.198954 727.023623 
L 469.506499 728.763786 
L 473.708663 730.225927 
L 477.914096 731.455904 
L 482.115129 732.449967 
L 486.18788 733.187209 
L 490.241954 733.696038 
L 494.270141 733.974573 
L 498.151604 734.023356 
L 501.995236 733.852808 
L 505.794487 733.462677 
L 509.542875 732.853202 
L 513.234007 732.02511 
L 516.861599 730.979621 
L 517.072875 730.911386 
L 517.072875 730.911386 
" style="fill:none;stroke:#eba302;stroke-linecap:square;stroke-width:3;"/>
   </g>
   <g id="line2d_9">
    <path clip-path="url(#p694c3bc698)" d="M 297.614625 730.911386 
L 301.238286 731.969615 
L 304.925852 732.810532 
L 308.671049 733.432893 
L 312.467487 733.835938 
L 316.308689 734.0194 
L 320.188109 733.983503 
L 324.099156 733.728958 
L 328.151294 733.239803 
L 332.222726 732.522052 
L 336.306264 731.578069 
L 340.511588 730.37413 
L 344.714492 728.937582 
L 348.907407 727.272662 
L 353.198576 725.328528 
L 357.463475 723.15391 
L 361.808251 720.687184 
L 366.109201 717.99128 
L 370.469649 714.994372 
L 374.767779 711.773367 
L 379.103399 708.246956 
L 383.462926 704.40938 
L 387.72915 700.358008 
L 391.995067 695.999179 
L 396.245671 691.332101 
L 400.371046 686.47317 
L 404.45616 681.318704 
L 408.485474 675.873373 
L 412.443308 670.144023 
L 416.233492 664.268921 
L 419.928819 658.13542 
L 423.514571 651.755878 
L 426.976477 645.144757 
L 430.300882 638.318566 
L 433.474914 631.295752 
L 436.486648 624.096577 
L 439.325263 616.74295 
L 442.02815 609.119845 
L 444.531367 601.391849 
L 446.828356 593.585812 
L 448.948021 585.59465 
L 450.844963 577.584965 
L 452.543519 569.455861 
L 454.032435 561.244672 
L 455.303163 552.99009 
L 456.349995 544.731468 
L 457.170107 536.508086 
L 457.770079 528.247443 
L 458.139757 520.106687 
L 458.285483 512.019607 
L 458.207216 504.033252 
L 457.908074 496.191351 
L 457.747202 493.409081 
M 307.665 444.644417 
L 302.849298 450.63647 
L 298.119308 456.873679 
L 293.44277 463.409875 
L 288.905423 470.134524 
L 284.533843 477.007174 
L 280.292857 484.086589 
L 276.205839 491.342733 
L 272.294587 498.74295 
L 268.578796 506.252549 
L 265.075614 513.835419 
L 261.799298 521.454675 
L 258.710714 529.204463 
L 255.873329 536.924502 
L 253.247915 544.716495 
L 250.887403 552.412917 
L 248.753287 560.123416 
L 246.852718 567.822676 
L 245.190941 575.485692 
L 243.771277 583.088028 
L 242.595134 590.606066 
L 241.662055 598.017229 
L 240.969783 605.300179 
L 240.514355 612.434989 
L 240.290217 619.40329 
L 240.290342 626.188384 
L 240.513815 632.924354 
L 240.953606 639.445792 
L 241.599077 645.740412 
L 242.43863 651.797871 
L 243.487284 657.750132 
L 244.714302 663.444423 
L 246.143109 669.009376 
L 247.731713 674.300276 
L 249.465229 679.314688 
L 251.379965 684.174566 
L 253.41832 688.749907 
L 255.625029 693.156611 
L 257.93291 697.275394 
L 260.394945 701.215126 
L 262.935142 704.867994 
L 265.614447 708.334958 
L 268.428858 711.608476 
L 271.290443 714.59882 
L 274.271176 717.393397 
L 277.366328 719.986445 
L 280.477824 722.307378 
L 283.687633 724.428632 
L 286.990605 726.346153 
L 290.381356 728.056325 
L 293.854284 729.555978 
L 297.40359 730.842404 
L 297.614625 730.911386 
L 297.614625 730.911386 
" style="fill:none;stroke:#6faf6b;stroke-linecap:square;stroke-width:3;"/>
   </g>
   <g id="line2d_10">
    <path clip-path="url(#p694c3bc698)" d="M 120.06917 601.917062 
L 122.378762 604.903122 
L 124.867787 607.750936 
L 127.5319 610.455807 
L 130.366379 613.013368 
L 133.366141 615.419594 
L 136.525757 617.670819 
L 139.839478 619.763744 
L 143.405245 621.749796 
L 147.120986 623.562251 
L 150.979497 625.198795 
L 155.089334 626.696616 
L 159.333935 628.004829 
L 163.704691 629.122414 
L 168.319053 630.071862 
L 173.047637 630.819405 
L 178.01254 631.377576 
L 183.076694 631.724579 
L 188.365909 631.863037 
L 193.736428 631.783567 
L 199.316791 631.479053 
L 205.099393 630.936855 
L 210.932177 630.166849 
L 216.945432 629.147926 
L 223.127482 627.870623 
L 229.320989 626.3645 
L 235.655635 624.595619 
L 242.116104 622.558625 
L 248.685686 620.24984 
L 255.205307 617.724597 
L 261.800071 614.934549 
L 268.450806 611.881043 
L 275.137466 608.567392 
L 281.839302 604.998923 
L 288.535054 601.182996 
L 295.203166 597.128994 
L 301.822007 592.848281 
L 308.489438 588.269776 
L 315.056985 583.489051 
L 321.503561 578.523971 
L 327.915493 573.304892 
L 334.158127 567.939916 
L 340.310455 562.361718 
L 346.341428 556.59389 
L 352.221391 550.662708 
L 357.922592 544.596655 
L 363.419659 538.425848 
L 368.760531 532.095503 
L 373.844623 525.726784 
L 378.715984 519.269854 
L 383.346927 512.762753 
L 387.714269 506.242691 
L 389.219499 503.897229 
M 296.463597 376.229683 
L 289.045572 378.246756 
L 281.55279 380.512546 
L 273.927512 383.05164 
L 266.304072 385.82501 
L 258.727746 388.815549 
L 251.135541 392.050128 
L 243.56402 395.518182 
L 236.050012 399.206108 
L 228.629843 403.097413 
L 221.33861 407.172965 
L 214.209528 411.411303 
L 207.1556 415.865589 
L 200.322382 420.443459 
L 193.618359 425.204134 
L 187.184821 430.043196 
L 180.926167 435.026718 
L 174.863063 440.138424 
L 169.01445 445.361167 
L 163.397376 450.677128 
L 158.026865 456.06803 
L 152.915815 461.515336 
L 148.074945 467.000459 
L 143.512761 472.504948 
L 139.235564 478.010677 
L 135.247487 483.500006 
L 131.468976 489.080875 
L 127.99157 494.615331 
L 124.813882 500.087185 
L 121.93261 505.481249 
L 119.282337 510.913112 
L 116.927996 516.241114 
L 114.812927 521.583087 
L 112.988222 526.797273 
L 111.443269 531.872953 
L 110.135758 536.930129 
L 109.095504 541.829774 
L 108.290574 546.691943 
L 107.736729 551.380647 
L 107.41284 556.015105 
L 107.320801 560.463427 
L 107.450574 564.843116 
L 107.803355 569.145718 
L 108.360745 573.246954 
L 109.129598 577.259845 
L 110.109473 581.17695 
L 111.262516 584.883515 
L 112.612464 588.486324 
L 114.157534 591.97907 
L 115.895495 595.355661 
L 117.823679 598.610241 
L 119.938986 601.737212 
L 120.06917 601.917062 
L 120.06917 601.917062 
" style="fill:none;stroke:#6098dd;stroke-linecap:square;stroke-width:3;"/>
   </g>
   <g id="text_1">
    <!-- 1 -->
    <defs>
     <path d="M 12.40625 8.296875 
L 28.515625 8.296875 
L 28.515625 63.921875 
L 10.984375 60.40625 
L 10.984375 69.390625 
L 28.421875 72.90625 
L 38.28125 72.90625 
L 38.28125 8.296875 
L 54.390625 8.296875 
L 54.390625 0 
L 12.40625 0 
z
" id="DejaVuSans-49"/>
    </defs>
    <g transform="translate(7.2 401.477988)scale(0.3 -0.3)">
     <use xlink:href="#DejaVuSans-49"/>
    </g>
   </g>
   <g id="text_2">
    <!-- 2 -->
    <defs>
     <path d="M 19.1875 8.296875 
L 53.609375 8.296875 
L 53.609375 0 
L 7.328125 0 
L 7.328125 8.296875 
Q 12.9375 14.109375 22.625 23.890625 
Q 32.328125 33.6875 34.8125 36.53125 
Q 39.546875 41.84375 41.421875 45.53125 
Q 43.3125 49.21875 43.3125 52.78125 
Q 43.3125 58.59375 39.234375 62.25 
Q 35.15625 65.921875 28.609375 65.921875 
Q 23.96875 65.921875 18.8125 64.3125 
Q 13.671875 62.703125 7.8125 59.421875 
L 7.8125 69.390625 
Q 13.765625 71.78125 18.9375 73 
Q 24.125 74.21875 28.421875 74.21875 
Q 39.75 74.21875 46.484375 68.546875 
Q 53.21875 62.890625 53.21875 53.421875 
Q 53.21875 48.921875 51.53125 44.890625 
Q 49.859375 40.875 45.40625 35.40625 
Q 44.1875 33.984375 37.640625 27.21875 
Q 31.109375 20.453125 19.1875 8.296875 
z
" id="DejaVuSans-50"/>
    </defs>
    <g transform="translate(81.797962 171.889068)scale(0.3 -0.3)">
     <use xlink:href="#DejaVuSans-50"/>
    </g>
   </g>
   <g id="text_3">
    <!-- 3 -->
    <defs>
     <path d="M 40.578125 39.3125 
Q 47.65625 37.796875 51.625 33 
Q 55.609375 28.21875 55.609375 21.1875 
Q 55.609375 10.40625 48.1875 4.484375 
Q 40.765625 -1.421875 27.09375 -1.421875 
Q 22.515625 -1.421875 17.65625 -0.515625 
Q 12.796875 0.390625 7.625 2.203125 
L 7.625 11.71875 
Q 11.71875 9.328125 16.59375 8.109375 
Q 21.484375 6.890625 26.8125 6.890625 
Q 36.078125 6.890625 40.9375 10.546875 
Q 45.796875 14.203125 45.796875 21.1875 
Q 45.796875 27.640625 41.28125 31.265625 
Q 36.765625 34.90625 28.71875 34.90625 
L 20.21875 34.90625 
L 20.21875 43.015625 
L 29.109375 43.015625 
Q 36.375 43.015625 40.234375 45.921875 
Q 44.09375 48.828125 44.09375 54.296875 
Q 44.09375 59.90625 40.109375 62.90625 
Q 36.140625 65.921875 28.71875 65.921875 
Q 24.65625 65.921875 20.015625 65.03125 
Q 15.375 64.15625 9.8125 62.3125 
L 9.8125 71.09375 
Q 15.4375 72.65625 20.34375 73.4375 
Q 25.25 74.21875 29.59375 74.21875 
Q 40.828125 74.21875 47.359375 69.109375 
Q 53.90625 64.015625 53.90625 55.328125 
Q 53.90625 49.265625 50.4375 45.09375 
Q 46.96875 40.921875 40.578125 39.3125 
z
" id="DejaVuSans-51"/>
    </defs>
    <g transform="translate(277.097962 29.995312)scale(0.3 -0.3)">
     <use xlink:href="#DejaVuSans-51"/>
    </g>
   </g>
   <g id="text_4">
    <!-- 4 -->
    <defs>
     <path d="M 37.796875 64.3125 
L 12.890625 25.390625 
L 37.796875 25.390625 
z
M 35.203125 72.90625 
L 47.609375 72.90625 
L 47.609375 25.390625 
L 58.015625 25.390625 
L 58.015625 17.1875 
L 47.609375 17.1875 
L 47.609375 0 
L 37.796875 0 
L 37.796875 17.1875 
L 4.890625 17.1875 
L 4.890625 26.703125 
z
" id="DejaVuSans-52"/>
    </defs>
    <g transform="translate(518.502038 29.995312)scale(0.3 -0.3)">
     <use xlink:href="#DejaVuSans-52"/>
    </g>
   </g>
   <g id="text_5">
    <!-- 5 -->
    <defs>
     <path d="M 10.796875 72.90625 
L 49.515625 72.90625 
L 49.515625 64.59375 
L 19.828125 64.59375 
L 19.828125 46.734375 
Q 21.96875 47.46875 24.109375 47.828125 
Q 26.265625 48.1875 28.421875 48.1875 
Q 40.625 48.1875 47.75 41.5 
Q 54.890625 34.8125 54.890625 23.390625 
Q 54.890625 11.625 47.5625 5.09375 
Q 40.234375 -1.421875 26.90625 -1.421875 
Q 22.3125 -1.421875 17.546875 -0.640625 
Q 12.796875 0.140625 7.71875 1.703125 
L 7.71875 11.625 
Q 12.109375 9.234375 16.796875 8.0625 
Q 21.484375 6.890625 26.703125 6.890625 
Q 35.15625 6.890625 40.078125 11.328125 
Q 45.015625 15.765625 45.015625 23.390625 
Q 45.015625 31 40.078125 35.4375 
Q 35.15625 39.890625 26.703125 39.890625 
Q 22.75 39.890625 18.8125 39.015625 
Q 14.890625 38.140625 10.796875 36.28125 
z
" id="DejaVuSans-53"/>
    </defs>
    <g transform="translate(713.802038 171.889068)scale(0.3 -0.3)">
     <use xlink:href="#DejaVuSans-53"/>
    </g>
   </g>
   <g id="text_6">
    <!-- 1' -->
    <defs>
     <path d="M 17.921875 72.90625 
L 17.921875 45.796875 
L 9.625 45.796875 
L 9.625 72.90625 
z
" id="DejaVuSans-39"/>
    </defs>
    <g transform="translate(784.277344 401.477988)scale(0.3 -0.3)">
     <use xlink:href="#DejaVuSans-49"/>
     <use x="63.623047" xlink:href="#DejaVuSans-39"/>
    </g>
   </g>
   <g id="text_7">
    <!-- 2' -->
    <g transform="translate(709.679382 631.066907)scale(0.3 -0.3)">
     <use xlink:href="#DejaVuSans-50"/>
     <use x="63.623047" xlink:href="#DejaVuSans-39"/>
    </g>
   </g>
   <g id="text_8">
    <!-- 3' -->
    <g transform="translate(514.379382 772.960663)scale(0.3 -0.3)">
     <use xlink:href="#DejaVuSans-51"/>
     <use x="63.623047" xlink:href="#DejaVuSans-39"/>
    </g>
   </g>
   <g id="text_9">
    <!-- 4' -->
    <g transform="translate(272.975306 772.960663)scale(0.3 -0.3)">
     <use xlink:href="#DejaVuSans-52"/>
     <use x="63.623047" xlink:href="#DejaVuSans-39"/>
    </g>
   </g>
   <g id="text_10">
    <!-- 5' -->
    <g transform="translate(77.675306 631.066907)scale(0.3 -0.3)">
     <use xlink:href="#DejaVuSans-53"/>
     <use x="63.623047" xlink:href="#DejaVuSans-39"/>
    </g>
   </g>
  </g>
 </g>
 <defs>
  <clipPath id="p694c3bc698">
   <rect height="749.830188" width="781.2" x="16.74375" y="18.284769"/>
  </clipPath>
 </defs>
</svg>
