<?xml version="1.0" encoding="utf-8" standalone="no"?>
<!DOCTYPE svg PUBLIC "-//W3C//DTD SVG 1.1//EN"
  "http://www.w3.org/Graphics/SVG/1.1/DTD/svg11.dtd">
<!-- Created with matplotlib (https://matplotlib.org/) -->
<svg height="231.043839pt" version="1.1" viewBox="0 0 563.457143 231.043839" width="563.457143pt" xmlns="http://www.w3.org/2000/svg" xmlns:xlink="http://www.w3.org/1999/xlink">
 <defs>
  <style type="text/css">
*{stroke-linecap:butt;stroke-linejoin:round;}
  </style>
 </defs>
 <g id="figure_1">
  <g id="patch_1">
   <path d="M 0 231.043839 
L 563.457143 231.043839 
L 563.457143 0 
L 0 0 
z
" style="fill:none;"/>
  </g>
  <g id="axes_1">
   <g id="patch_2">
    <path d="M 10.7 220.343839 
L 552.757143 220.343839 
L 552.757143 22.318125 
L 10.7 22.318125 
z
" style="fill:none;"/>
   </g>
   <g id="PathCollection_1">
    <defs>
     <path d="M 0 5 
C 1.326016 5 2.597899 4.473168 3.535534 3.535534 
C 4.473168 2.597899 5 1.326016 5 0 
C 5 -1.326016 4.473168 -2.597899 3.535534 -3.535534 
C 2.597899 -4.473168 1.326016 -5 0 -5 
C -1.326016 -5 -2.597899 -4.473168 -3.535534 -3.535534 
C -4.473168 -2.597899 -5 -1.326016 -5 0 
C -5 1.326016 -4.473168 2.597899 -3.535534 3.535534 
C -2.597899 4.473168 -1.326016 5 0 5 
z
" id="m84c8298084" style="stroke:#c7cbce;"/>
    </defs>
    <g>
     <use style="fill:#dadcde;stroke:#c7cbce;" x="58.050852" xlink:href="#m84c8298084" y="169.507722"/>
    </g>
   </g>
   <g id="PathCollection_2">
    <g>
     <use style="fill:#dadcde;stroke:#c7cbce;" x="58.050852" xlink:href="#m84c8298084" y="155.742939"/>
    </g>
   </g>
   <g id="PathCollection_3">
    <g>
     <use style="fill:#dadcde;stroke:#c7cbce;" x="58.050852" xlink:href="#m84c8298084" y="141.978156"/>
    </g>
   </g>
   <g id="PathCollection_4">
    <g>
     <use style="fill:#dadcde;stroke:#c7cbce;" x="58.050852" xlink:href="#m84c8298084" y="128.213373"/>
    </g>
   </g>
   <g id="PathCollection_5">
    <g>
     <use style="fill:#dadcde;stroke:#c7cbce;" x="58.050852" xlink:href="#m84c8298084" y="114.448591"/>
    </g>
   </g>
   <g id="PathCollection_6">
    <g>
     <use style="fill:#dadcde;stroke:#c7cbce;" x="58.050852" xlink:href="#m84c8298084" y="100.683808"/>
    </g>
   </g>
   <g id="PathCollection_7">
    <g>
     <use style="fill:#dadcde;stroke:#c7cbce;" x="58.050852" xlink:href="#m84c8298084" y="86.919025"/>
    </g>
   </g>
   <g id="PathCollection_8">
    <g>
     <use style="fill:#dadcde;stroke:#c7cbce;" x="58.050852" xlink:href="#m84c8298084" y="73.154243"/>
    </g>
   </g>
   <g id="PathCollection_9">
    <g>
     <use style="fill:#dadcde;stroke:#c7cbce;" x="71.815635" xlink:href="#m84c8298084" y="169.507722"/>
    </g>
   </g>
   <g id="PathCollection_10">
    <g>
     <use style="fill:#dadcde;stroke:#c7cbce;" x="71.815635" xlink:href="#m84c8298084" y="155.742939"/>
    </g>
   </g>
   <g id="PathCollection_11">
    <g>
     <use style="fill:#dadcde;stroke:#c7cbce;" x="71.815635" xlink:href="#m84c8298084" y="141.978156"/>
    </g>
   </g>
   <g id="PathCollection_12">
    <g>
     <use style="fill:#dadcde;stroke:#c7cbce;" x="71.815635" xlink:href="#m84c8298084" y="128.213373"/>
    </g>
   </g>
   <g id="PathCollection_13">
    <g>
     <use style="fill:#dadcde;stroke:#c7cbce;" x="71.815635" xlink:href="#m84c8298084" y="114.448591"/>
    </g>
   </g>
   <g id="PathCollection_14">
    <g>
     <use style="fill:#dadcde;stroke:#c7cbce;" x="71.815635" xlink:href="#m84c8298084" y="100.683808"/>
    </g>
   </g>
   <g id="PathCollection_15">
    <g>
     <use style="fill:#dadcde;stroke:#c7cbce;" x="71.815635" xlink:href="#m84c8298084" y="86.919025"/>
    </g>
   </g>
   <g id="PathCollection_16">
    <g>
     <use style="fill:#dadcde;stroke:#c7cbce;" x="71.815635" xlink:href="#m84c8298084" y="73.154243"/>
    </g>
   </g>
   <g id="PathCollection_17">
    <g>
     <use style="fill:#dadcde;stroke:#c7cbce;" x="85.580418" xlink:href="#m84c8298084" y="169.507722"/>
    </g>
   </g>
   <g id="PathCollection_18">
    <g>
     <use style="fill:#dadcde;stroke:#c7cbce;" x="85.580418" xlink:href="#m84c8298084" y="155.742939"/>
    </g>
   </g>
   <g id="PathCollection_19">
    <g>
     <use style="fill:#dadcde;stroke:#c7cbce;" x="85.580418" xlink:href="#m84c8298084" y="141.978156"/>
    </g>
   </g>
   <g id="PathCollection_20">
    <g>
     <use style="fill:#dadcde;stroke:#c7cbce;" x="85.580418" xlink:href="#m84c8298084" y="128.213373"/>
    </g>
   </g>
   <g id="PathCollection_21">
    <g>
     <use style="fill:#dadcde;stroke:#c7cbce;" x="85.580418" xlink:href="#m84c8298084" y="114.448591"/>
    </g>
   </g>
   <g id="PathCollection_22">
    <g>
     <use style="fill:#dadcde;stroke:#c7cbce;" x="85.580418" xlink:href="#m84c8298084" y="100.683808"/>
    </g>
   </g>
   <g id="PathCollection_23">
    <g>
     <use style="fill:#dadcde;stroke:#c7cbce;" x="85.580418" xlink:href="#m84c8298084" y="86.919025"/>
    </g>
   </g>
   <g id="PathCollection_24">
    <g>
     <use style="fill:#dadcde;stroke:#c7cbce;" x="85.580418" xlink:href="#m84c8298084" y="73.154243"/>
    </g>
   </g>
   <g id="PathCollection_25">
    <g>
     <use style="fill:#dadcde;stroke:#c7cbce;" x="99.345201" xlink:href="#m84c8298084" y="169.507722"/>
    </g>
   </g>
   <g id="PathCollection_26">
    <g>
     <use style="fill:#dadcde;stroke:#c7cbce;" x="99.345201" xlink:href="#m84c8298084" y="155.742939"/>
    </g>
   </g>
   <g id="PathCollection_27">
    <g>
     <use style="fill:#dadcde;stroke:#c7cbce;" x="99.345201" xlink:href="#m84c8298084" y="141.978156"/>
    </g>
   </g>
   <g id="PathCollection_28">
    <g>
     <use style="fill:#dadcde;stroke:#c7cbce;" x="99.345201" xlink:href="#m84c8298084" y="128.213373"/>
    </g>
   </g>
   <g id="PathCollection_29">
    <g>
     <use style="fill:#dadcde;stroke:#c7cbce;" x="99.345201" xlink:href="#m84c8298084" y="114.448591"/>
    </g>
   </g>
   <g id="PathCollection_30">
    <g>
     <use style="fill:#dadcde;stroke:#c7cbce;" x="99.345201" xlink:href="#m84c8298084" y="100.683808"/>
    </g>
   </g>
   <g id="PathCollection_31">
    <g>
     <use style="fill:#dadcde;stroke:#c7cbce;" x="99.345201" xlink:href="#m84c8298084" y="86.919025"/>
    </g>
   </g>
   <g id="PathCollection_32">
    <g>
     <use style="fill:#dadcde;stroke:#c7cbce;" x="99.345201" xlink:href="#m84c8298084" y="73.154243"/>
    </g>
   </g>
   <g id="PathCollection_33">
    <g>
     <use style="fill:#dadcde;stroke:#c7cbce;" x="113.109983" xlink:href="#m84c8298084" y="169.507722"/>
    </g>
   </g>
   <g id="PathCollection_34">
    <g>
     <use style="fill:#dadcde;stroke:#c7cbce;" x="113.109983" xlink:href="#m84c8298084" y="155.742939"/>
    </g>
   </g>
   <g id="PathCollection_35">
    <g>
     <use style="fill:#dadcde;stroke:#c7cbce;" x="113.109983" xlink:href="#m84c8298084" y="141.978156"/>
    </g>
   </g>
   <g id="PathCollection_36">
    <g>
     <use style="fill:#dadcde;stroke:#c7cbce;" x="113.109983" xlink:href="#m84c8298084" y="128.213373"/>
    </g>
   </g>
   <g id="PathCollection_37">
    <g>
     <use style="fill:#dadcde;stroke:#c7cbce;" x="113.109983" xlink:href="#m84c8298084" y="114.448591"/>
    </g>
   </g>
   <g id="PathCollection_38">
    <g>
     <use style="fill:#dadcde;stroke:#c7cbce;" x="113.109983" xlink:href="#m84c8298084" y="100.683808"/>
    </g>
   </g>
   <g id="PathCollection_39">
    <g>
     <use style="fill:#dadcde;stroke:#c7cbce;" x="113.109983" xlink:href="#m84c8298084" y="86.919025"/>
    </g>
   </g>
   <g id="PathCollection_40">
    <g>
     <use style="fill:#dadcde;stroke:#c7cbce;" x="113.109983" xlink:href="#m84c8298084" y="73.154243"/>
    </g>
   </g>
   <g id="PathCollection_41">
    <g>
     <use style="fill:#dadcde;stroke:#c7cbce;" x="126.874766" xlink:href="#m84c8298084" y="169.507722"/>
    </g>
   </g>
   <g id="PathCollection_42">
    <g>
     <use style="fill:#dadcde;stroke:#c7cbce;" x="126.874766" xlink:href="#m84c8298084" y="155.742939"/>
    </g>
   </g>
   <g id="PathCollection_43">
    <g>
     <use style="fill:#dadcde;stroke:#c7cbce;" x="126.874766" xlink:href="#m84c8298084" y="141.978156"/>
    </g>
   </g>
   <g id="PathCollection_44">
    <g>
     <use style="fill:#dadcde;stroke:#c7cbce;" x="126.874766" xlink:href="#m84c8298084" y="128.213373"/>
    </g>
   </g>
   <g id="PathCollection_45">
    <g>
     <use style="fill:#dadcde;stroke:#c7cbce;" x="126.874766" xlink:href="#m84c8298084" y="114.448591"/>
    </g>
   </g>
   <g id="PathCollection_46">
    <g>
     <use style="fill:#dadcde;stroke:#c7cbce;" x="126.874766" xlink:href="#m84c8298084" y="100.683808"/>
    </g>
   </g>
   <g id="PathCollection_47">
    <g>
     <use style="fill:#dadcde;stroke:#c7cbce;" x="126.874766" xlink:href="#m84c8298084" y="86.919025"/>
    </g>
   </g>
   <g id="PathCollection_48">
    <g>
     <use style="fill:#dadcde;stroke:#c7cbce;" x="126.874766" xlink:href="#m84c8298084" y="73.154243"/>
    </g>
   </g>
   <g id="PathCollection_49">
    <g>
     <use style="fill:#dadcde;stroke:#c7cbce;" x="140.639549" xlink:href="#m84c8298084" y="169.507722"/>
    </g>
   </g>
   <g id="PathCollection_50">
    <g>
     <use style="fill:#dadcde;stroke:#c7cbce;" x="140.639549" xlink:href="#m84c8298084" y="155.742939"/>
    </g>
   </g>
   <g id="PathCollection_51">
    <g>
     <use style="fill:#dadcde;stroke:#c7cbce;" x="140.639549" xlink:href="#m84c8298084" y="141.978156"/>
    </g>
   </g>
   <g id="PathCollection_52">
    <g>
     <use style="fill:#dadcde;stroke:#c7cbce;" x="140.639549" xlink:href="#m84c8298084" y="128.213373"/>
    </g>
   </g>
   <g id="PathCollection_53">
    <g>
     <use style="fill:#dadcde;stroke:#c7cbce;" x="140.639549" xlink:href="#m84c8298084" y="114.448591"/>
    </g>
   </g>
   <g id="PathCollection_54">
    <g>
     <use style="fill:#dadcde;stroke:#c7cbce;" x="140.639549" xlink:href="#m84c8298084" y="100.683808"/>
    </g>
   </g>
   <g id="PathCollection_55">
    <g>
     <use style="fill:#dadcde;stroke:#c7cbce;" x="140.639549" xlink:href="#m84c8298084" y="86.919025"/>
    </g>
   </g>
   <g id="PathCollection_56">
    <g>
     <use style="fill:#dadcde;stroke:#c7cbce;" x="140.639549" xlink:href="#m84c8298084" y="73.154243"/>
    </g>
   </g>
   <g id="PathCollection_57">
    <g>
     <use style="fill:#dadcde;stroke:#c7cbce;" x="154.404331" xlink:href="#m84c8298084" y="169.507722"/>
    </g>
   </g>
   <g id="PathCollection_58">
    <g>
     <use style="fill:#dadcde;stroke:#c7cbce;" x="154.404331" xlink:href="#m84c8298084" y="155.742939"/>
    </g>
   </g>
   <g id="PathCollection_59">
    <g>
     <use style="fill:#dadcde;stroke:#c7cbce;" x="154.404331" xlink:href="#m84c8298084" y="141.978156"/>
    </g>
   </g>
   <g id="PathCollection_60">
    <g>
     <use style="fill:#dadcde;stroke:#c7cbce;" x="154.404331" xlink:href="#m84c8298084" y="128.213373"/>
    </g>
   </g>
   <g id="PathCollection_61">
    <g>
     <use style="fill:#dadcde;stroke:#c7cbce;" x="154.404331" xlink:href="#m84c8298084" y="114.448591"/>
    </g>
   </g>
   <g id="PathCollection_62">
    <g>
     <use style="fill:#dadcde;stroke:#c7cbce;" x="154.404331" xlink:href="#m84c8298084" y="100.683808"/>
    </g>
   </g>
   <g id="PathCollection_63">
    <g>
     <use style="fill:#dadcde;stroke:#c7cbce;" x="154.404331" xlink:href="#m84c8298084" y="86.919025"/>
    </g>
   </g>
   <g id="PathCollection_64">
    <g>
     <use style="fill:#dadcde;stroke:#c7cbce;" x="154.404331" xlink:href="#m84c8298084" y="73.154243"/>
    </g>
   </g>
   <g id="PathCollection_65">
    <g>
     <use style="fill:#dadcde;stroke:#c7cbce;" x="168.169114" xlink:href="#m84c8298084" y="169.507722"/>
    </g>
   </g>
   <g id="PathCollection_66">
    <g>
     <use style="fill:#dadcde;stroke:#c7cbce;" x="168.169114" xlink:href="#m84c8298084" y="155.742939"/>
    </g>
   </g>
   <g id="PathCollection_67">
    <g>
     <use style="fill:#dadcde;stroke:#c7cbce;" x="168.169114" xlink:href="#m84c8298084" y="141.978156"/>
    </g>
   </g>
   <g id="PathCollection_68">
    <g>
     <use style="fill:#dadcde;stroke:#c7cbce;" x="168.169114" xlink:href="#m84c8298084" y="128.213373"/>
    </g>
   </g>
   <g id="PathCollection_69">
    <g>
     <use style="fill:#dadcde;stroke:#c7cbce;" x="168.169114" xlink:href="#m84c8298084" y="114.448591"/>
    </g>
   </g>
   <g id="PathCollection_70">
    <g>
     <use style="fill:#dadcde;stroke:#c7cbce;" x="168.169114" xlink:href="#m84c8298084" y="100.683808"/>
    </g>
   </g>
   <g id="PathCollection_71">
    <g>
     <use style="fill:#dadcde;stroke:#c7cbce;" x="168.169114" xlink:href="#m84c8298084" y="86.919025"/>
    </g>
   </g>
   <g id="PathCollection_72">
    <g>
     <use style="fill:#dadcde;stroke:#c7cbce;" x="168.169114" xlink:href="#m84c8298084" y="73.154243"/>
    </g>
   </g>
   <g id="PathCollection_73">
    <g>
     <use style="fill:#dadcde;stroke:#c7cbce;" x="181.933897" xlink:href="#m84c8298084" y="169.507722"/>
    </g>
   </g>
   <g id="PathCollection_74">
    <g>
     <use style="fill:#dadcde;stroke:#c7cbce;" x="181.933897" xlink:href="#m84c8298084" y="155.742939"/>
    </g>
   </g>
   <g id="PathCollection_75">
    <g>
     <use style="fill:#dadcde;stroke:#c7cbce;" x="181.933897" xlink:href="#m84c8298084" y="141.978156"/>
    </g>
   </g>
   <g id="PathCollection_76">
    <g>
     <use style="fill:#dadcde;stroke:#c7cbce;" x="181.933897" xlink:href="#m84c8298084" y="128.213373"/>
    </g>
   </g>
   <g id="PathCollection_77">
    <g>
     <use style="fill:#dadcde;stroke:#c7cbce;" x="181.933897" xlink:href="#m84c8298084" y="114.448591"/>
    </g>
   </g>
   <g id="PathCollection_78">
    <g>
     <use style="fill:#dadcde;stroke:#c7cbce;" x="181.933897" xlink:href="#m84c8298084" y="100.683808"/>
    </g>
   </g>
   <g id="PathCollection_79">
    <g>
     <use style="fill:#dadcde;stroke:#c7cbce;" x="181.933897" xlink:href="#m84c8298084" y="86.919025"/>
    </g>
   </g>
   <g id="PathCollection_80">
    <g>
     <use style="fill:#dadcde;stroke:#c7cbce;" x="181.933897" xlink:href="#m84c8298084" y="73.154243"/>
    </g>
   </g>
   <g id="PathCollection_81">
    <g>
     <use style="fill:#dadcde;stroke:#c7cbce;" x="195.69868" xlink:href="#m84c8298084" y="169.507722"/>
    </g>
   </g>
   <g id="PathCollection_82">
    <g>
     <use style="fill:#dadcde;stroke:#c7cbce;" x="195.69868" xlink:href="#m84c8298084" y="155.742939"/>
    </g>
   </g>
   <g id="PathCollection_83">
    <g>
     <use style="fill:#dadcde;stroke:#c7cbce;" x="195.69868" xlink:href="#m84c8298084" y="141.978156"/>
    </g>
   </g>
   <g id="PathCollection_84">
    <g>
     <use style="fill:#dadcde;stroke:#c7cbce;" x="195.69868" xlink:href="#m84c8298084" y="128.213373"/>
    </g>
   </g>
   <g id="PathCollection_85">
    <g>
     <use style="fill:#dadcde;stroke:#c7cbce;" x="195.69868" xlink:href="#m84c8298084" y="114.448591"/>
    </g>
   </g>
   <g id="PathCollection_86">
    <g>
     <use style="fill:#dadcde;stroke:#c7cbce;" x="195.69868" xlink:href="#m84c8298084" y="100.683808"/>
    </g>
   </g>
   <g id="PathCollection_87">
    <g>
     <use style="fill:#dadcde;stroke:#c7cbce;" x="195.69868" xlink:href="#m84c8298084" y="86.919025"/>
    </g>
   </g>
   <g id="PathCollection_88">
    <g>
     <use style="fill:#dadcde;stroke:#c7cbce;" x="195.69868" xlink:href="#m84c8298084" y="73.154243"/>
    </g>
   </g>
   <g id="PathCollection_89">
    <g>
     <use style="fill:#dadcde;stroke:#c7cbce;" x="209.463462" xlink:href="#m84c8298084" y="169.507722"/>
    </g>
   </g>
   <g id="PathCollection_90">
    <g>
     <use style="fill:#dadcde;stroke:#c7cbce;" x="209.463462" xlink:href="#m84c8298084" y="155.742939"/>
    </g>
   </g>
   <g id="PathCollection_91">
    <g>
     <use style="fill:#dadcde;stroke:#c7cbce;" x="209.463462" xlink:href="#m84c8298084" y="141.978156"/>
    </g>
   </g>
   <g id="PathCollection_92">
    <g>
     <use style="fill:#dadcde;stroke:#c7cbce;" x="209.463462" xlink:href="#m84c8298084" y="128.213373"/>
    </g>
   </g>
   <g id="PathCollection_93">
    <g>
     <use style="fill:#dadcde;stroke:#c7cbce;" x="209.463462" xlink:href="#m84c8298084" y="114.448591"/>
    </g>
   </g>
   <g id="PathCollection_94">
    <g>
     <use style="fill:#dadcde;stroke:#c7cbce;" x="209.463462" xlink:href="#m84c8298084" y="100.683808"/>
    </g>
   </g>
   <g id="PathCollection_95">
    <g>
     <use style="fill:#dadcde;stroke:#c7cbce;" x="209.463462" xlink:href="#m84c8298084" y="86.919025"/>
    </g>
   </g>
   <g id="PathCollection_96">
    <g>
     <use style="fill:#dadcde;stroke:#c7cbce;" x="209.463462" xlink:href="#m84c8298084" y="73.154243"/>
    </g>
   </g>
   <g id="PathCollection_97">
    <g>
     <use style="fill:#dadcde;stroke:#c7cbce;" x="223.228245" xlink:href="#m84c8298084" y="169.507722"/>
    </g>
   </g>
   <g id="PathCollection_98">
    <g>
     <use style="fill:#dadcde;stroke:#c7cbce;" x="223.228245" xlink:href="#m84c8298084" y="155.742939"/>
    </g>
   </g>
   <g id="PathCollection_99">
    <g>
     <use style="fill:#dadcde;stroke:#c7cbce;" x="223.228245" xlink:href="#m84c8298084" y="141.978156"/>
    </g>
   </g>
   <g id="PathCollection_100">
    <g>
     <use style="fill:#dadcde;stroke:#c7cbce;" x="223.228245" xlink:href="#m84c8298084" y="128.213373"/>
    </g>
   </g>
   <g id="PathCollection_101">
    <g>
     <use style="fill:#dadcde;stroke:#c7cbce;" x="223.228245" xlink:href="#m84c8298084" y="114.448591"/>
    </g>
   </g>
   <g id="PathCollection_102">
    <g>
     <use style="fill:#dadcde;stroke:#c7cbce;" x="223.228245" xlink:href="#m84c8298084" y="100.683808"/>
    </g>
   </g>
   <g id="PathCollection_103">
    <g>
     <use style="fill:#dadcde;stroke:#c7cbce;" x="223.228245" xlink:href="#m84c8298084" y="86.919025"/>
    </g>
   </g>
   <g id="PathCollection_104">
    <g>
     <use style="fill:#dadcde;stroke:#c7cbce;" x="223.228245" xlink:href="#m84c8298084" y="73.154243"/>
    </g>
   </g>
   <g id="PathCollection_105">
    <g>
     <use style="fill:#dadcde;stroke:#c7cbce;" x="236.993028" xlink:href="#m84c8298084" y="169.507722"/>
    </g>
   </g>
   <g id="PathCollection_106">
    <g>
     <use style="fill:#dadcde;stroke:#c7cbce;" x="236.993028" xlink:href="#m84c8298084" y="155.742939"/>
    </g>
   </g>
   <g id="PathCollection_107">
    <g>
     <use style="fill:#dadcde;stroke:#c7cbce;" x="236.993028" xlink:href="#m84c8298084" y="141.978156"/>
    </g>
   </g>
   <g id="PathCollection_108">
    <g>
     <use style="fill:#dadcde;stroke:#c7cbce;" x="236.993028" xlink:href="#m84c8298084" y="128.213373"/>
    </g>
   </g>
   <g id="PathCollection_109">
    <g>
     <use style="fill:#dadcde;stroke:#c7cbce;" x="236.993028" xlink:href="#m84c8298084" y="114.448591"/>
    </g>
   </g>
   <g id="PathCollection_110">
    <g>
     <use style="fill:#dadcde;stroke:#c7cbce;" x="236.993028" xlink:href="#m84c8298084" y="100.683808"/>
    </g>
   </g>
   <g id="PathCollection_111">
    <g>
     <use style="fill:#dadcde;stroke:#c7cbce;" x="236.993028" xlink:href="#m84c8298084" y="86.919025"/>
    </g>
   </g>
   <g id="PathCollection_112">
    <g>
     <use style="fill:#dadcde;stroke:#c7cbce;" x="236.993028" xlink:href="#m84c8298084" y="73.154243"/>
    </g>
   </g>
   <g id="PathCollection_113">
    <g>
     <use style="fill:#dadcde;stroke:#c7cbce;" x="250.75781" xlink:href="#m84c8298084" y="169.507722"/>
    </g>
   </g>
   <g id="PathCollection_114">
    <g>
     <use style="fill:#dadcde;stroke:#c7cbce;" x="250.75781" xlink:href="#m84c8298084" y="155.742939"/>
    </g>
   </g>
   <g id="PathCollection_115">
    <g>
     <use style="fill:#dadcde;stroke:#c7cbce;" x="250.75781" xlink:href="#m84c8298084" y="141.978156"/>
    </g>
   </g>
   <g id="PathCollection_116">
    <g>
     <use style="fill:#dadcde;stroke:#c7cbce;" x="250.75781" xlink:href="#m84c8298084" y="128.213373"/>
    </g>
   </g>
   <g id="PathCollection_117">
    <g>
     <use style="fill:#dadcde;stroke:#c7cbce;" x="250.75781" xlink:href="#m84c8298084" y="114.448591"/>
    </g>
   </g>
   <g id="PathCollection_118">
    <g>
     <use style="fill:#dadcde;stroke:#c7cbce;" x="250.75781" xlink:href="#m84c8298084" y="100.683808"/>
    </g>
   </g>
   <g id="PathCollection_119">
    <g>
     <use style="fill:#dadcde;stroke:#c7cbce;" x="250.75781" xlink:href="#m84c8298084" y="86.919025"/>
    </g>
   </g>
   <g id="PathCollection_120">
    <g>
     <use style="fill:#dadcde;stroke:#c7cbce;" x="250.75781" xlink:href="#m84c8298084" y="73.154243"/>
    </g>
   </g>
   <g id="PathCollection_121">
    <g>
     <use style="fill:#dadcde;stroke:#c7cbce;" x="264.522593" xlink:href="#m84c8298084" y="169.507722"/>
    </g>
   </g>
   <g id="PathCollection_122">
    <g>
     <use style="fill:#dadcde;stroke:#c7cbce;" x="264.522593" xlink:href="#m84c8298084" y="155.742939"/>
    </g>
   </g>
   <g id="PathCollection_123">
    <g>
     <use style="fill:#dadcde;stroke:#c7cbce;" x="264.522593" xlink:href="#m84c8298084" y="141.978156"/>
    </g>
   </g>
   <g id="PathCollection_124">
    <g>
     <use style="fill:#dadcde;stroke:#c7cbce;" x="264.522593" xlink:href="#m84c8298084" y="128.213373"/>
    </g>
   </g>
   <g id="PathCollection_125">
    <g>
     <use style="fill:#dadcde;stroke:#c7cbce;" x="264.522593" xlink:href="#m84c8298084" y="114.448591"/>
    </g>
   </g>
   <g id="PathCollection_126">
    <g>
     <use style="fill:#dadcde;stroke:#c7cbce;" x="264.522593" xlink:href="#m84c8298084" y="100.683808"/>
    </g>
   </g>
   <g id="PathCollection_127">
    <g>
     <use style="fill:#dadcde;stroke:#c7cbce;" x="264.522593" xlink:href="#m84c8298084" y="86.919025"/>
    </g>
   </g>
   <g id="PathCollection_128">
    <g>
     <use style="fill:#dadcde;stroke:#c7cbce;" x="264.522593" xlink:href="#m84c8298084" y="73.154243"/>
    </g>
   </g>
   <g id="PathCollection_129">
    <g>
     <use style="fill:#dadcde;stroke:#c7cbce;" x="278.287376" xlink:href="#m84c8298084" y="169.507722"/>
    </g>
   </g>
   <g id="PathCollection_130">
    <g>
     <use style="fill:#dadcde;stroke:#c7cbce;" x="278.287376" xlink:href="#m84c8298084" y="155.742939"/>
    </g>
   </g>
   <g id="PathCollection_131">
    <g>
     <use style="fill:#dadcde;stroke:#c7cbce;" x="278.287376" xlink:href="#m84c8298084" y="141.978156"/>
    </g>
   </g>
   <g id="PathCollection_132">
    <g>
     <use style="fill:#dadcde;stroke:#c7cbce;" x="278.287376" xlink:href="#m84c8298084" y="128.213373"/>
    </g>
   </g>
   <g id="PathCollection_133">
    <g>
     <use style="fill:#dadcde;stroke:#c7cbce;" x="278.287376" xlink:href="#m84c8298084" y="114.448591"/>
    </g>
   </g>
   <g id="PathCollection_134">
    <g>
     <use style="fill:#dadcde;stroke:#c7cbce;" x="278.287376" xlink:href="#m84c8298084" y="100.683808"/>
    </g>
   </g>
   <g id="PathCollection_135">
    <g>
     <use style="fill:#dadcde;stroke:#c7cbce;" x="278.287376" xlink:href="#m84c8298084" y="86.919025"/>
    </g>
   </g>
   <g id="PathCollection_136">
    <g>
     <use style="fill:#dadcde;stroke:#c7cbce;" x="278.287376" xlink:href="#m84c8298084" y="73.154243"/>
    </g>
   </g>
   <g id="PathCollection_137">
    <g>
     <use style="fill:#dadcde;stroke:#c7cbce;" x="292.052158" xlink:href="#m84c8298084" y="169.507722"/>
    </g>
   </g>
   <g id="PathCollection_138">
    <g>
     <use style="fill:#dadcde;stroke:#c7cbce;" x="292.052158" xlink:href="#m84c8298084" y="155.742939"/>
    </g>
   </g>
   <g id="PathCollection_139">
    <g>
     <use style="fill:#dadcde;stroke:#c7cbce;" x="292.052158" xlink:href="#m84c8298084" y="141.978156"/>
    </g>
   </g>
   <g id="PathCollection_140">
    <g>
     <use style="fill:#dadcde;stroke:#c7cbce;" x="292.052158" xlink:href="#m84c8298084" y="128.213373"/>
    </g>
   </g>
   <g id="PathCollection_141">
    <g>
     <use style="fill:#dadcde;stroke:#c7cbce;" x="292.052158" xlink:href="#m84c8298084" y="114.448591"/>
    </g>
   </g>
   <g id="PathCollection_142">
    <g>
     <use style="fill:#dadcde;stroke:#c7cbce;" x="292.052158" xlink:href="#m84c8298084" y="100.683808"/>
    </g>
   </g>
   <g id="PathCollection_143">
    <g>
     <use style="fill:#dadcde;stroke:#c7cbce;" x="292.052158" xlink:href="#m84c8298084" y="86.919025"/>
    </g>
   </g>
   <g id="PathCollection_144">
    <g>
     <use style="fill:#dadcde;stroke:#c7cbce;" x="292.052158" xlink:href="#m84c8298084" y="73.154243"/>
    </g>
   </g>
   <g id="PathCollection_145">
    <g>
     <use style="fill:#dadcde;stroke:#c7cbce;" x="305.816941" xlink:href="#m84c8298084" y="169.507722"/>
    </g>
   </g>
   <g id="PathCollection_146">
    <g>
     <use style="fill:#dadcde;stroke:#c7cbce;" x="305.816941" xlink:href="#m84c8298084" y="155.742939"/>
    </g>
   </g>
   <g id="PathCollection_147">
    <g>
     <use style="fill:#dadcde;stroke:#c7cbce;" x="305.816941" xlink:href="#m84c8298084" y="141.978156"/>
    </g>
   </g>
   <g id="PathCollection_148">
    <g>
     <use style="fill:#dadcde;stroke:#c7cbce;" x="305.816941" xlink:href="#m84c8298084" y="128.213373"/>
    </g>
   </g>
   <g id="PathCollection_149">
    <g>
     <use style="fill:#dadcde;stroke:#c7cbce;" x="305.816941" xlink:href="#m84c8298084" y="114.448591"/>
    </g>
   </g>
   <g id="PathCollection_150">
    <g>
     <use style="fill:#dadcde;stroke:#c7cbce;" x="305.816941" xlink:href="#m84c8298084" y="100.683808"/>
    </g>
   </g>
   <g id="PathCollection_151">
    <g>
     <use style="fill:#dadcde;stroke:#c7cbce;" x="305.816941" xlink:href="#m84c8298084" y="86.919025"/>
    </g>
   </g>
   <g id="PathCollection_152">
    <g>
     <use style="fill:#dadcde;stroke:#c7cbce;" x="305.816941" xlink:href="#m84c8298084" y="73.154243"/>
    </g>
   </g>
   <g id="PathCollection_153">
    <g>
     <use style="fill:#dadcde;stroke:#c7cbce;" x="319.581724" xlink:href="#m84c8298084" y="169.507722"/>
    </g>
   </g>
   <g id="PathCollection_154">
    <g>
     <use style="fill:#dadcde;stroke:#c7cbce;" x="319.581724" xlink:href="#m84c8298084" y="155.742939"/>
    </g>
   </g>
   <g id="PathCollection_155">
    <g>
     <use style="fill:#dadcde;stroke:#c7cbce;" x="319.581724" xlink:href="#m84c8298084" y="141.978156"/>
    </g>
   </g>
   <g id="PathCollection_156">
    <g>
     <use style="fill:#dadcde;stroke:#c7cbce;" x="319.581724" xlink:href="#m84c8298084" y="128.213373"/>
    </g>
   </g>
   <g id="PathCollection_157">
    <g>
     <use style="fill:#dadcde;stroke:#c7cbce;" x="319.581724" xlink:href="#m84c8298084" y="114.448591"/>
    </g>
   </g>
   <g id="PathCollection_158">
    <g>
     <use style="fill:#dadcde;stroke:#c7cbce;" x="319.581724" xlink:href="#m84c8298084" y="100.683808"/>
    </g>
   </g>
   <g id="PathCollection_159">
    <g>
     <use style="fill:#dadcde;stroke:#c7cbce;" x="319.581724" xlink:href="#m84c8298084" y="86.919025"/>
    </g>
   </g>
   <g id="PathCollection_160">
    <g>
     <use style="fill:#dadcde;stroke:#c7cbce;" x="319.581724" xlink:href="#m84c8298084" y="73.154243"/>
    </g>
   </g>
   <g id="PathCollection_161">
    <g>
     <use style="fill:#dadcde;stroke:#c7cbce;" x="333.346507" xlink:href="#m84c8298084" y="169.507722"/>
    </g>
   </g>
   <g id="PathCollection_162">
    <g>
     <use style="fill:#dadcde;stroke:#c7cbce;" x="333.346507" xlink:href="#m84c8298084" y="155.742939"/>
    </g>
   </g>
   <g id="PathCollection_163">
    <g>
     <use style="fill:#dadcde;stroke:#c7cbce;" x="333.346507" xlink:href="#m84c8298084" y="141.978156"/>
    </g>
   </g>
   <g id="PathCollection_164">
    <g>
     <use style="fill:#dadcde;stroke:#c7cbce;" x="333.346507" xlink:href="#m84c8298084" y="128.213373"/>
    </g>
   </g>
   <g id="PathCollection_165">
    <g>
     <use style="fill:#dadcde;stroke:#c7cbce;" x="333.346507" xlink:href="#m84c8298084" y="114.448591"/>
    </g>
   </g>
   <g id="PathCollection_166">
    <g>
     <use style="fill:#dadcde;stroke:#c7cbce;" x="333.346507" xlink:href="#m84c8298084" y="100.683808"/>
    </g>
   </g>
   <g id="PathCollection_167">
    <g>
     <use style="fill:#dadcde;stroke:#c7cbce;" x="333.346507" xlink:href="#m84c8298084" y="86.919025"/>
    </g>
   </g>
   <g id="PathCollection_168">
    <g>
     <use style="fill:#dadcde;stroke:#c7cbce;" x="333.346507" xlink:href="#m84c8298084" y="73.154243"/>
    </g>
   </g>
   <g id="PathCollection_169">
    <g>
     <use style="fill:#dadcde;stroke:#c7cbce;" x="347.111289" xlink:href="#m84c8298084" y="169.507722"/>
    </g>
   </g>
   <g id="PathCollection_170">
    <g>
     <use style="fill:#dadcde;stroke:#c7cbce;" x="347.111289" xlink:href="#m84c8298084" y="155.742939"/>
    </g>
   </g>
   <g id="PathCollection_171">
    <g>
     <use style="fill:#dadcde;stroke:#c7cbce;" x="347.111289" xlink:href="#m84c8298084" y="141.978156"/>
    </g>
   </g>
   <g id="PathCollection_172">
    <g>
     <use style="fill:#dadcde;stroke:#c7cbce;" x="347.111289" xlink:href="#m84c8298084" y="128.213373"/>
    </g>
   </g>
   <g id="PathCollection_173">
    <g>
     <use style="fill:#dadcde;stroke:#c7cbce;" x="347.111289" xlink:href="#m84c8298084" y="114.448591"/>
    </g>
   </g>
   <g id="PathCollection_174">
    <g>
     <use style="fill:#dadcde;stroke:#c7cbce;" x="347.111289" xlink:href="#m84c8298084" y="100.683808"/>
    </g>
   </g>
   <g id="PathCollection_175">
    <g>
     <use style="fill:#dadcde;stroke:#c7cbce;" x="347.111289" xlink:href="#m84c8298084" y="86.919025"/>
    </g>
   </g>
   <g id="PathCollection_176">
    <g>
     <use style="fill:#dadcde;stroke:#c7cbce;" x="347.111289" xlink:href="#m84c8298084" y="73.154243"/>
    </g>
   </g>
   <g id="PathCollection_177">
    <g>
     <use style="fill:#dadcde;stroke:#c7cbce;" x="360.876072" xlink:href="#m84c8298084" y="169.507722"/>
    </g>
   </g>
   <g id="PathCollection_178">
    <g>
     <use style="fill:#dadcde;stroke:#c7cbce;" x="360.876072" xlink:href="#m84c8298084" y="155.742939"/>
    </g>
   </g>
   <g id="PathCollection_179">
    <g>
     <use style="fill:#dadcde;stroke:#c7cbce;" x="360.876072" xlink:href="#m84c8298084" y="141.978156"/>
    </g>
   </g>
   <g id="PathCollection_180">
    <g>
     <use style="fill:#dadcde;stroke:#c7cbce;" x="360.876072" xlink:href="#m84c8298084" y="128.213373"/>
    </g>
   </g>
   <g id="PathCollection_181">
    <g>
     <use style="fill:#dadcde;stroke:#c7cbce;" x="360.876072" xlink:href="#m84c8298084" y="114.448591"/>
    </g>
   </g>
   <g id="PathCollection_182">
    <g>
     <use style="fill:#dadcde;stroke:#c7cbce;" x="360.876072" xlink:href="#m84c8298084" y="100.683808"/>
    </g>
   </g>
   <g id="PathCollection_183">
    <g>
     <use style="fill:#dadcde;stroke:#c7cbce;" x="360.876072" xlink:href="#m84c8298084" y="86.919025"/>
    </g>
   </g>
   <g id="PathCollection_184">
    <g>
     <use style="fill:#dadcde;stroke:#c7cbce;" x="360.876072" xlink:href="#m84c8298084" y="73.154243"/>
    </g>
   </g>
   <g id="PathCollection_185">
    <g>
     <use style="fill:#dadcde;stroke:#c7cbce;" x="374.640855" xlink:href="#m84c8298084" y="169.507722"/>
    </g>
   </g>
   <g id="PathCollection_186">
    <g>
     <use style="fill:#dadcde;stroke:#c7cbce;" x="374.640855" xlink:href="#m84c8298084" y="155.742939"/>
    </g>
   </g>
   <g id="PathCollection_187">
    <g>
     <use style="fill:#dadcde;stroke:#c7cbce;" x="374.640855" xlink:href="#m84c8298084" y="141.978156"/>
    </g>
   </g>
   <g id="PathCollection_188">
    <g>
     <use style="fill:#dadcde;stroke:#c7cbce;" x="374.640855" xlink:href="#m84c8298084" y="128.213373"/>
    </g>
   </g>
   <g id="PathCollection_189">
    <g>
     <use style="fill:#dadcde;stroke:#c7cbce;" x="374.640855" xlink:href="#m84c8298084" y="114.448591"/>
    </g>
   </g>
   <g id="PathCollection_190">
    <g>
     <use style="fill:#dadcde;stroke:#c7cbce;" x="374.640855" xlink:href="#m84c8298084" y="100.683808"/>
    </g>
   </g>
   <g id="PathCollection_191">
    <g>
     <use style="fill:#dadcde;stroke:#c7cbce;" x="374.640855" xlink:href="#m84c8298084" y="86.919025"/>
    </g>
   </g>
   <g id="PathCollection_192">
    <g>
     <use style="fill:#dadcde;stroke:#c7cbce;" x="374.640855" xlink:href="#m84c8298084" y="73.154243"/>
    </g>
   </g>
   <g id="PathCollection_193">
    <g>
     <use style="fill:#dadcde;stroke:#c7cbce;" x="388.405637" xlink:href="#m84c8298084" y="169.507722"/>
    </g>
   </g>
   <g id="PathCollection_194">
    <g>
     <use style="fill:#dadcde;stroke:#c7cbce;" x="388.405637" xlink:href="#m84c8298084" y="155.742939"/>
    </g>
   </g>
   <g id="PathCollection_195">
    <g>
     <use style="fill:#dadcde;stroke:#c7cbce;" x="388.405637" xlink:href="#m84c8298084" y="141.978156"/>
    </g>
   </g>
   <g id="PathCollection_196">
    <g>
     <use style="fill:#dadcde;stroke:#c7cbce;" x="388.405637" xlink:href="#m84c8298084" y="128.213373"/>
    </g>
   </g>
   <g id="PathCollection_197">
    <g>
     <use style="fill:#dadcde;stroke:#c7cbce;" x="388.405637" xlink:href="#m84c8298084" y="114.448591"/>
    </g>
   </g>
   <g id="PathCollection_198">
    <g>
     <use style="fill:#dadcde;stroke:#c7cbce;" x="388.405637" xlink:href="#m84c8298084" y="100.683808"/>
    </g>
   </g>
   <g id="PathCollection_199">
    <g>
     <use style="fill:#dadcde;stroke:#c7cbce;" x="388.405637" xlink:href="#m84c8298084" y="86.919025"/>
    </g>
   </g>
   <g id="PathCollection_200">
    <g>
     <use style="fill:#dadcde;stroke:#c7cbce;" x="388.405637" xlink:href="#m84c8298084" y="73.154243"/>
    </g>
   </g>
   <g id="PathCollection_201">
    <g>
     <use style="fill:#dadcde;stroke:#c7cbce;" x="402.17042" xlink:href="#m84c8298084" y="169.507722"/>
    </g>
   </g>
   <g id="PathCollection_202">
    <g>
     <use style="fill:#dadcde;stroke:#c7cbce;" x="402.17042" xlink:href="#m84c8298084" y="155.742939"/>
    </g>
   </g>
   <g id="PathCollection_203">
    <g>
     <use style="fill:#dadcde;stroke:#c7cbce;" x="402.17042" xlink:href="#m84c8298084" y="141.978156"/>
    </g>
   </g>
   <g id="PathCollection_204">
    <g>
     <use style="fill:#dadcde;stroke:#c7cbce;" x="402.17042" xlink:href="#m84c8298084" y="128.213373"/>
    </g>
   </g>
   <g id="PathCollection_205">
    <g>
     <use style="fill:#dadcde;stroke:#c7cbce;" x="402.17042" xlink:href="#m84c8298084" y="114.448591"/>
    </g>
   </g>
   <g id="PathCollection_206">
    <g>
     <use style="fill:#dadcde;stroke:#c7cbce;" x="402.17042" xlink:href="#m84c8298084" y="100.683808"/>
    </g>
   </g>
   <g id="PathCollection_207">
    <g>
     <use style="fill:#dadcde;stroke:#c7cbce;" x="402.17042" xlink:href="#m84c8298084" y="86.919025"/>
    </g>
   </g>
   <g id="PathCollection_208">
    <g>
     <use style="fill:#dadcde;stroke:#c7cbce;" x="402.17042" xlink:href="#m84c8298084" y="73.154243"/>
    </g>
   </g>
   <g id="PathCollection_209">
    <g>
     <use style="fill:#dadcde;stroke:#c7cbce;" x="415.935203" xlink:href="#m84c8298084" y="169.507722"/>
    </g>
   </g>
   <g id="PathCollection_210">
    <g>
     <use style="fill:#dadcde;stroke:#c7cbce;" x="415.935203" xlink:href="#m84c8298084" y="155.742939"/>
    </g>
   </g>
   <g id="PathCollection_211">
    <g>
     <use style="fill:#dadcde;stroke:#c7cbce;" x="415.935203" xlink:href="#m84c8298084" y="141.978156"/>
    </g>
   </g>
   <g id="PathCollection_212">
    <g>
     <use style="fill:#dadcde;stroke:#c7cbce;" x="415.935203" xlink:href="#m84c8298084" y="128.213373"/>
    </g>
   </g>
   <g id="PathCollection_213">
    <g>
     <use style="fill:#dadcde;stroke:#c7cbce;" x="415.935203" xlink:href="#m84c8298084" y="114.448591"/>
    </g>
   </g>
   <g id="PathCollection_214">
    <g>
     <use style="fill:#dadcde;stroke:#c7cbce;" x="415.935203" xlink:href="#m84c8298084" y="100.683808"/>
    </g>
   </g>
   <g id="PathCollection_215">
    <g>
     <use style="fill:#dadcde;stroke:#c7cbce;" x="415.935203" xlink:href="#m84c8298084" y="86.919025"/>
    </g>
   </g>
   <g id="PathCollection_216">
    <g>
     <use style="fill:#dadcde;stroke:#c7cbce;" x="415.935203" xlink:href="#m84c8298084" y="73.154243"/>
    </g>
   </g>
   <g id="PathCollection_217">
    <g>
     <use style="fill:#dadcde;stroke:#c7cbce;" x="429.699985" xlink:href="#m84c8298084" y="169.507722"/>
    </g>
   </g>
   <g id="PathCollection_218">
    <g>
     <use style="fill:#dadcde;stroke:#c7cbce;" x="429.699985" xlink:href="#m84c8298084" y="155.742939"/>
    </g>
   </g>
   <g id="PathCollection_219">
    <g>
     <use style="fill:#dadcde;stroke:#c7cbce;" x="429.699985" xlink:href="#m84c8298084" y="141.978156"/>
    </g>
   </g>
   <g id="PathCollection_220">
    <g>
     <use style="fill:#dadcde;stroke:#c7cbce;" x="429.699985" xlink:href="#m84c8298084" y="128.213373"/>
    </g>
   </g>
   <g id="PathCollection_221">
    <g>
     <use style="fill:#dadcde;stroke:#c7cbce;" x="429.699985" xlink:href="#m84c8298084" y="114.448591"/>
    </g>
   </g>
   <g id="PathCollection_222">
    <g>
     <use style="fill:#dadcde;stroke:#c7cbce;" x="429.699985" xlink:href="#m84c8298084" y="100.683808"/>
    </g>
   </g>
   <g id="PathCollection_223">
    <g>
     <use style="fill:#dadcde;stroke:#c7cbce;" x="429.699985" xlink:href="#m84c8298084" y="86.919025"/>
    </g>
   </g>
   <g id="PathCollection_224">
    <g>
     <use style="fill:#dadcde;stroke:#c7cbce;" x="429.699985" xlink:href="#m84c8298084" y="73.154243"/>
    </g>
   </g>
   <g id="PathCollection_225">
    <g>
     <use style="fill:#dadcde;stroke:#c7cbce;" x="443.464768" xlink:href="#m84c8298084" y="169.507722"/>
    </g>
   </g>
   <g id="PathCollection_226">
    <g>
     <use style="fill:#dadcde;stroke:#c7cbce;" x="443.464768" xlink:href="#m84c8298084" y="155.742939"/>
    </g>
   </g>
   <g id="PathCollection_227">
    <g>
     <use style="fill:#dadcde;stroke:#c7cbce;" x="443.464768" xlink:href="#m84c8298084" y="141.978156"/>
    </g>
   </g>
   <g id="PathCollection_228">
    <g>
     <use style="fill:#dadcde;stroke:#c7cbce;" x="443.464768" xlink:href="#m84c8298084" y="128.213373"/>
    </g>
   </g>
   <g id="PathCollection_229">
    <g>
     <use style="fill:#dadcde;stroke:#c7cbce;" x="443.464768" xlink:href="#m84c8298084" y="114.448591"/>
    </g>
   </g>
   <g id="PathCollection_230">
    <g>
     <use style="fill:#dadcde;stroke:#c7cbce;" x="443.464768" xlink:href="#m84c8298084" y="100.683808"/>
    </g>
   </g>
   <g id="PathCollection_231">
    <g>
     <use style="fill:#dadcde;stroke:#c7cbce;" x="443.464768" xlink:href="#m84c8298084" y="86.919025"/>
    </g>
   </g>
   <g id="PathCollection_232">
    <g>
     <use style="fill:#dadcde;stroke:#c7cbce;" x="443.464768" xlink:href="#m84c8298084" y="73.154243"/>
    </g>
   </g>
   <g id="PathCollection_233">
    <g>
     <use style="fill:#dadcde;stroke:#c7cbce;" x="457.229551" xlink:href="#m84c8298084" y="169.507722"/>
    </g>
   </g>
   <g id="PathCollection_234">
    <g>
     <use style="fill:#dadcde;stroke:#c7cbce;" x="457.229551" xlink:href="#m84c8298084" y="155.742939"/>
    </g>
   </g>
   <g id="PathCollection_235">
    <g>
     <use style="fill:#dadcde;stroke:#c7cbce;" x="457.229551" xlink:href="#m84c8298084" y="141.978156"/>
    </g>
   </g>
   <g id="PathCollection_236">
    <g>
     <use style="fill:#dadcde;stroke:#c7cbce;" x="457.229551" xlink:href="#m84c8298084" y="128.213373"/>
    </g>
   </g>
   <g id="PathCollection_237">
    <g>
     <use style="fill:#dadcde;stroke:#c7cbce;" x="457.229551" xlink:href="#m84c8298084" y="114.448591"/>
    </g>
   </g>
   <g id="PathCollection_238">
    <g>
     <use style="fill:#dadcde;stroke:#c7cbce;" x="457.229551" xlink:href="#m84c8298084" y="100.683808"/>
    </g>
   </g>
   <g id="PathCollection_239">
    <g>
     <use style="fill:#dadcde;stroke:#c7cbce;" x="457.229551" xlink:href="#m84c8298084" y="86.919025"/>
    </g>
   </g>
   <g id="PathCollection_240">
    <g>
     <use style="fill:#dadcde;stroke:#c7cbce;" x="457.229551" xlink:href="#m84c8298084" y="73.154243"/>
    </g>
   </g>
   <g id="PathCollection_241">
    <g>
     <use style="fill:#dadcde;stroke:#c7cbce;" x="470.994334" xlink:href="#m84c8298084" y="169.507722"/>
    </g>
   </g>
   <g id="PathCollection_242">
    <g>
     <use style="fill:#dadcde;stroke:#c7cbce;" x="470.994334" xlink:href="#m84c8298084" y="155.742939"/>
    </g>
   </g>
   <g id="PathCollection_243">
    <g>
     <use style="fill:#dadcde;stroke:#c7cbce;" x="470.994334" xlink:href="#m84c8298084" y="141.978156"/>
    </g>
   </g>
   <g id="PathCollection_244">
    <g>
     <use style="fill:#dadcde;stroke:#c7cbce;" x="470.994334" xlink:href="#m84c8298084" y="128.213373"/>
    </g>
   </g>
   <g id="PathCollection_245">
    <g>
     <use style="fill:#dadcde;stroke:#c7cbce;" x="470.994334" xlink:href="#m84c8298084" y="114.448591"/>
    </g>
   </g>
   <g id="PathCollection_246">
    <g>
     <use style="fill:#dadcde;stroke:#c7cbce;" x="470.994334" xlink:href="#m84c8298084" y="100.683808"/>
    </g>
   </g>
   <g id="PathCollection_247">
    <g>
     <use style="fill:#dadcde;stroke:#c7cbce;" x="470.994334" xlink:href="#m84c8298084" y="86.919025"/>
    </g>
   </g>
   <g id="PathCollection_248">
    <g>
     <use style="fill:#dadcde;stroke:#c7cbce;" x="470.994334" xlink:href="#m84c8298084" y="73.154243"/>
    </g>
   </g>
   <g id="PathCollection_249">
    <g>
     <use style="fill:#dadcde;stroke:#c7cbce;" x="484.759116" xlink:href="#m84c8298084" y="169.507722"/>
    </g>
   </g>
   <g id="PathCollection_250">
    <g>
     <use style="fill:#dadcde;stroke:#c7cbce;" x="484.759116" xlink:href="#m84c8298084" y="155.742939"/>
    </g>
   </g>
   <g id="PathCollection_251">
    <g>
     <use style="fill:#dadcde;stroke:#c7cbce;" x="484.759116" xlink:href="#m84c8298084" y="141.978156"/>
    </g>
   </g>
   <g id="PathCollection_252">
    <g>
     <use style="fill:#dadcde;stroke:#c7cbce;" x="484.759116" xlink:href="#m84c8298084" y="128.213373"/>
    </g>
   </g>
   <g id="PathCollection_253">
    <g>
     <use style="fill:#dadcde;stroke:#c7cbce;" x="484.759116" xlink:href="#m84c8298084" y="114.448591"/>
    </g>
   </g>
   <g id="PathCollection_254">
    <g>
     <use style="fill:#dadcde;stroke:#c7cbce;" x="484.759116" xlink:href="#m84c8298084" y="100.683808"/>
    </g>
   </g>
   <g id="PathCollection_255">
    <g>
     <use style="fill:#dadcde;stroke:#c7cbce;" x="484.759116" xlink:href="#m84c8298084" y="86.919025"/>
    </g>
   </g>
   <g id="PathCollection_256">
    <g>
     <use style="fill:#dadcde;stroke:#c7cbce;" x="484.759116" xlink:href="#m84c8298084" y="73.154243"/>
    </g>
   </g>
   <g id="PathCollection_257">
    <g>
     <use style="fill:#dadcde;stroke:#c7cbce;" x="498.523899" xlink:href="#m84c8298084" y="169.507722"/>
    </g>
   </g>
   <g id="PathCollection_258">
    <g>
     <use style="fill:#dadcde;stroke:#c7cbce;" x="498.523899" xlink:href="#m84c8298084" y="155.742939"/>
    </g>
   </g>
   <g id="PathCollection_259">
    <g>
     <use style="fill:#dadcde;stroke:#c7cbce;" x="498.523899" xlink:href="#m84c8298084" y="141.978156"/>
    </g>
   </g>
   <g id="PathCollection_260">
    <g>
     <use style="fill:#dadcde;stroke:#c7cbce;" x="498.523899" xlink:href="#m84c8298084" y="128.213373"/>
    </g>
   </g>
   <g id="PathCollection_261">
    <g>
     <use style="fill:#dadcde;stroke:#c7cbce;" x="498.523899" xlink:href="#m84c8298084" y="114.448591"/>
    </g>
   </g>
   <g id="PathCollection_262">
    <g>
     <use style="fill:#dadcde;stroke:#c7cbce;" x="498.523899" xlink:href="#m84c8298084" y="100.683808"/>
    </g>
   </g>
   <g id="PathCollection_263">
    <g>
     <use style="fill:#dadcde;stroke:#c7cbce;" x="498.523899" xlink:href="#m84c8298084" y="86.919025"/>
    </g>
   </g>
   <g id="PathCollection_264">
    <g>
     <use style="fill:#dadcde;stroke:#c7cbce;" x="498.523899" xlink:href="#m84c8298084" y="73.154243"/>
    </g>
   </g>
   <g id="PathCollection_265">
    <g>
     <use style="fill:#dadcde;stroke:#c7cbce;" x="512.288682" xlink:href="#m84c8298084" y="169.507722"/>
    </g>
   </g>
   <g id="PathCollection_266">
    <g>
     <use style="fill:#dadcde;stroke:#c7cbce;" x="512.288682" xlink:href="#m84c8298084" y="155.742939"/>
    </g>
   </g>
   <g id="PathCollection_267">
    <g>
     <use style="fill:#dadcde;stroke:#c7cbce;" x="512.288682" xlink:href="#m84c8298084" y="141.978156"/>
    </g>
   </g>
   <g id="PathCollection_268">
    <g>
     <use style="fill:#dadcde;stroke:#c7cbce;" x="512.288682" xlink:href="#m84c8298084" y="128.213373"/>
    </g>
   </g>
   <g id="PathCollection_269">
    <g>
     <use style="fill:#dadcde;stroke:#c7cbce;" x="512.288682" xlink:href="#m84c8298084" y="114.448591"/>
    </g>
   </g>
   <g id="PathCollection_270">
    <g>
     <use style="fill:#dadcde;stroke:#c7cbce;" x="512.288682" xlink:href="#m84c8298084" y="100.683808"/>
    </g>
   </g>
   <g id="PathCollection_271">
    <g>
     <use style="fill:#dadcde;stroke:#c7cbce;" x="512.288682" xlink:href="#m84c8298084" y="86.919025"/>
    </g>
   </g>
   <g id="PathCollection_272">
    <g>
     <use style="fill:#dadcde;stroke:#c7cbce;" x="512.288682" xlink:href="#m84c8298084" y="73.154243"/>
    </g>
   </g>
   <g id="line2d_1">
    <path clip-path="url(#p86c6b6e4ca)" d="M 35.338961 172.948917 
L 46.350787 173.637156 
L 55.986135 169.507722 
L 73.880353 155.742939 
L 83.515701 155.742939 
L 101.409918 141.978156 
L 111.045266 141.978156 
L 128.939483 128.213373 
L 138.574831 128.213373 
L 156.469049 114.448591 
L 166.104397 114.448591 
L 183.998614 100.683808 
L 193.633962 100.683808 
L 211.52818 86.919025 
L 221.163528 86.919025 
L 239.057745 73.154243 
L 248.693093 73.154243 
L 262.457876 59.38946 
L 280.352093 73.154243 
L 289.987441 73.154243 
L 307.881659 86.919025 
L 317.517006 86.919025 
L 335.411224 100.683808 
L 345.046572 100.683808 
L 362.940789 114.448591 
L 372.576137 114.448591 
L 390.470355 128.213373 
L 400.105703 128.213373 
L 417.99992 141.978156 
L 427.635268 141.978156 
L 445.529486 155.742939 
L 455.164833 155.742939 
L 473.059051 169.507722 
L 482.694399 169.507722 
L 496.459182 183.272504 
L 514.353399 169.507722 
L 523.988747 166.066526 
" style="fill:none;stroke:#9d62c4;stroke-linecap:square;stroke-width:1.5;"/>
   </g>
   <g id="line2d_2">
    <path clip-path="url(#p86c6b6e4ca)" d="M 42.221352 165.378287 
L 60.11557 169.507722 
L 69.750918 169.507722 
L 83.515701 183.272504 
L 101.409918 169.507722 
L 111.045266 169.507722 
L 128.939483 155.742939 
L 138.574831 155.742939 
L 156.469049 141.978156 
L 166.104397 141.978156 
L 183.998614 128.213373 
L 193.633962 128.213373 
L 211.52818 114.448591 
L 221.163528 114.448591 
L 239.057745 100.683808 
L 248.693093 100.683808 
L 266.58731 86.919025 
L 276.222658 86.919025 
L 294.116876 73.154243 
L 303.752224 73.154243 
L 317.517006 59.38946 
L 335.411224 73.154243 
L 345.046572 73.154243 
L 362.940789 86.919025 
L 372.576137 86.919025 
L 390.470355 100.683808 
L 400.105703 100.683808 
L 417.99992 114.448591 
L 427.635268 114.448591 
L 445.529486 128.213373 
L 455.164833 128.213373 
L 473.059051 141.978156 
L 482.694399 141.978156 
L 500.588616 155.742939 
L 510.223964 155.742939 
L 528.118182 159.184135 
" style="fill:none;stroke:#747ed6;stroke-linecap:square;stroke-width:1.5;"/>
   </g>
   <g id="line2d_3">
    <path clip-path="url(#p86c6b6e4ca)" d="M 35.338961 159.184135 
L 46.350787 159.872374 
L 55.986135 155.742939 
L 73.880353 141.978156 
L 83.515701 141.978156 
L 101.409918 128.213373 
L 111.045266 128.213373 
L 128.939483 114.448591 
L 138.574831 114.448591 
L 156.469049 100.683808 
L 166.104397 100.683808 
L 183.998614 86.919025 
L 193.633962 86.919025 
L 211.52818 73.154243 
L 221.163528 73.154243 
L 234.92831 59.38946 
L 252.822528 73.154243 
L 262.457876 73.154243 
L 280.352093 86.919025 
L 289.987441 86.919025 
L 307.881659 100.683808 
L 317.517006 100.683808 
L 335.411224 114.448591 
L 345.046572 114.448591 
L 362.940789 128.213373 
L 372.576137 128.213373 
L 390.470355 141.978156 
L 400.105703 141.978156 
L 417.99992 155.742939 
L 427.635268 155.742939 
L 445.529486 169.507722 
L 455.164833 169.507722 
L 468.929616 183.272504 
L 486.823834 169.507722 
L 496.459182 169.507722 
L 514.353399 155.742939 
L 523.988747 152.301743 
" style="fill:none;stroke:#ae68ba;stroke-linecap:square;stroke-width:1.5;"/>
   </g>
   <g id="line2d_4">
    <path clip-path="url(#p86c6b6e4ca)" d="M 42.221352 151.613504 
L 60.11557 155.742939 
L 69.750918 155.742939 
L 87.645135 169.507722 
L 97.280483 169.507722 
L 111.045266 183.272504 
L 128.939483 169.507722 
L 138.574831 169.507722 
L 156.469049 155.742939 
L 166.104397 155.742939 
L 183.998614 141.978156 
L 193.633962 141.978156 
L 211.52818 128.213373 
L 221.163528 128.213373 
L 239.057745 114.448591 
L 248.693093 114.448591 
L 266.58731 100.683808 
L 276.222658 100.683808 
L 294.116876 86.919025 
L 303.752224 86.919025 
L 321.646441 73.154243 
L 331.281789 73.154243 
L 345.046572 59.38946 
L 362.940789 73.154243 
L 372.576137 73.154243 
L 390.470355 86.919025 
L 400.105703 86.919025 
L 417.99992 100.683808 
L 427.635268 100.683808 
L 445.529486 114.448591 
L 455.164833 114.448591 
L 473.059051 128.213373 
L 482.694399 128.213373 
L 500.588616 141.978156 
L 510.223964 141.978156 
L 528.118182 145.419352 
" style="fill:none;stroke:#5f9add;stroke-linecap:square;stroke-width:1.5;"/>
   </g>
   <g id="line2d_5">
    <path clip-path="url(#p86c6b6e4ca)" d="M 35.338961 145.419352 
L 46.350787 146.107591 
L 55.986135 141.978156 
L 73.880353 128.213373 
L 83.515701 128.213373 
L 101.409918 114.448591 
L 111.045266 114.448591 
L 128.939483 100.683808 
L 138.574831 100.683808 
L 156.469049 86.919025 
L 166.104397 86.919025 
L 183.998614 73.154243 
L 193.633962 73.154243 
L 207.398745 59.38946 
L 225.292962 73.154243 
L 234.92831 73.154243 
L 252.822528 86.919025 
L 262.457876 86.919025 
L 280.352093 100.683808 
L 289.987441 100.683808 
L 307.881659 114.448591 
L 317.517006 114.448591 
L 335.411224 128.213373 
L 345.046572 128.213373 
L 362.940789 141.978156 
L 372.576137 141.978156 
L 390.470355 155.742939 
L 400.105703 155.742939 
L 417.99992 169.507722 
L 427.635268 169.507722 
L 441.400051 183.272504 
L 459.294268 169.507722 
L 468.929616 169.507722 
L 486.823834 155.742939 
L 496.459182 155.742939 
L 514.353399 141.978156 
L 523.988747 138.536961 
" style="fill:none;stroke:#c26ea0;stroke-linecap:square;stroke-width:1.5;"/>
   </g>
   <g id="line2d_6">
    <path clip-path="url(#p86c6b6e4ca)" d="M 42.221352 137.848721 
L 60.11557 141.978156 
L 69.750918 141.978156 
L 87.645135 155.742939 
L 97.280483 155.742939 
L 115.174701 169.507722 
L 124.810049 169.507722 
L 138.574831 183.272504 
L 156.469049 169.507722 
L 166.104397 169.507722 
L 183.998614 155.742939 
L 193.633962 155.742939 
L 211.52818 141.978156 
L 221.163528 141.978156 
L 239.057745 128.213373 
L 248.693093 128.213373 
L 266.58731 114.448591 
L 276.222658 114.448591 
L 294.116876 100.683808 
L 303.752224 100.683808 
L 321.646441 86.919025 
L 331.281789 86.919025 
L 349.176007 73.154243 
L 358.811355 73.154243 
L 372.576137 59.38946 
L 390.470355 73.154243 
L 400.105703 73.154243 
L 417.99992 86.919025 
L 427.635268 86.919025 
L 445.529486 100.683808 
L 455.164833 100.683808 
L 473.059051 114.448591 
L 482.694399 114.448591 
L 500.588616 128.213373 
L 510.223964 128.213373 
L 528.118182 131.654569 
" style="fill:none;stroke:#3da8d8;stroke-linecap:square;stroke-width:1.5;"/>
   </g>
   <g id="line2d_7">
    <path clip-path="url(#p86c6b6e4ca)" d="M 35.338961 131.654569 
L 46.350787 132.342808 
L 55.986135 128.213373 
L 73.880353 114.448591 
L 83.515701 114.448591 
L 101.409918 100.683808 
L 111.045266 100.683808 
L 128.939483 86.919025 
L 138.574831 86.919025 
L 156.469049 73.154243 
L 166.104397 73.154243 
L 179.869179 59.38946 
L 197.763397 73.154243 
L 207.398745 73.154243 
L 225.292962 86.919025 
L 234.92831 86.919025 
L 252.822528 100.683808 
L 262.457876 100.683808 
L 280.352093 114.448591 
L 289.987441 114.448591 
L 307.881659 128.213373 
L 317.517006 128.213373 
L 335.411224 141.978156 
L 345.046572 141.978156 
L 362.940789 155.742939 
L 372.576137 155.742939 
L 390.470355 169.507722 
L 400.105703 169.507722 
L 413.870485 183.272504 
L 431.764703 169.507722 
L 441.400051 169.507722 
L 459.294268 155.742939 
L 468.929616 155.742939 
L 486.823834 141.978156 
L 496.459182 141.978156 
L 514.353399 128.213373 
L 523.988747 124.772178 
" style="fill:none;stroke:#d8747a;stroke-linecap:square;stroke-width:1.5;"/>
   </g>
   <g id="line2d_8">
    <path clip-path="url(#p86c6b6e4ca)" d="M 42.221352 124.083939 
L 60.11557 128.213373 
L 69.750918 128.213373 
L 87.645135 141.978156 
L 97.280483 141.978156 
L 115.174701 155.742939 
L 124.810049 155.742939 
L 142.704266 169.507722 
L 152.339614 169.507722 
L 166.104397 183.272504 
L 183.998614 169.507722 
L 193.633962 169.507722 
L 211.52818 155.742939 
L 221.163528 155.742939 
L 239.057745 141.978156 
L 248.693093 141.978156 
L 266.58731 128.213373 
L 276.222658 128.213373 
L 294.116876 114.448591 
L 303.752224 114.448591 
L 321.646441 100.683808 
L 331.281789 100.683808 
L 349.176007 86.919025 
L 358.811355 86.919025 
L 376.705572 73.154243 
L 386.34092 73.154243 
L 400.105703 59.38946 
L 417.99992 73.154243 
L 427.635268 73.154243 
L 445.529486 86.919025 
L 455.164833 86.919025 
L 473.059051 100.683808 
L 482.694399 100.683808 
L 500.588616 114.448591 
L 510.223964 114.448591 
L 528.118182 117.889786 
" style="fill:none;stroke:#18b3cf;stroke-linecap:square;stroke-width:1.5;"/>
   </g>
   <g id="line2d_9">
    <path clip-path="url(#p86c6b6e4ca)" d="M 35.338961 117.889786 
L 46.350787 118.578026 
L 55.986135 114.448591 
L 73.880353 100.683808 
L 83.515701 100.683808 
L 101.409918 86.919025 
L 111.045266 86.919025 
L 128.939483 73.154243 
L 138.574831 73.154243 
L 152.339614 59.38946 
L 170.233832 73.154243 
L 179.869179 73.154243 
L 197.763397 86.919025 
L 207.398745 86.919025 
L 225.292962 100.683808 
L 234.92831 100.683808 
L 252.822528 114.448591 
L 262.457876 114.448591 
L 280.352093 128.213373 
L 289.987441 128.213373 
L 307.881659 141.978156 
L 317.517006 141.978156 
L 335.411224 155.742939 
L 345.046572 155.742939 
L 362.940789 169.507722 
L 372.576137 169.507722 
L 386.34092 183.272504 
L 404.235137 169.507722 
L 413.870485 169.507722 
L 431.764703 155.742939 
L 441.400051 155.742939 
L 459.294268 141.978156 
L 468.929616 141.978156 
L 486.823834 128.213373 
L 496.459182 128.213373 
L 514.353399 114.448591 
L 523.988747 111.007395 
" style="fill:none;stroke:#eb7c54;stroke-linecap:square;stroke-width:1.5;"/>
   </g>
   <g id="line2d_10">
    <path clip-path="url(#p86c6b6e4ca)" d="M 42.221352 110.319156 
L 60.11557 114.448591 
L 69.750918 114.448591 
L 87.645135 128.213373 
L 97.280483 128.213373 
L 115.174701 141.978156 
L 124.810049 141.978156 
L 142.704266 155.742939 
L 152.339614 155.742939 
L 170.233832 169.507722 
L 179.869179 169.507722 
L 193.633962 183.272504 
L 211.52818 169.507722 
L 221.163528 169.507722 
L 239.057745 155.742939 
L 248.693093 155.742939 
L 266.58731 141.978156 
L 276.222658 141.978156 
L 294.116876 128.213373 
L 303.752224 128.213373 
L 321.646441 114.448591 
L 331.281789 114.448591 
L 349.176007 100.683808 
L 358.811355 100.683808 
L 376.705572 86.919025 
L 386.34092 86.919025 
L 404.235137 73.154243 
L 413.870485 73.154243 
L 427.635268 59.38946 
L 445.529486 73.154243 
L 455.164833 73.154243 
L 473.059051 86.919025 
L 482.694399 86.919025 
L 500.588616 100.683808 
L 510.223964 100.683808 
L 528.118182 104.125004 
" style="fill:none;stroke:#14b8b8;stroke-linecap:square;stroke-width:1.5;"/>
   </g>
   <g id="line2d_11">
    <path clip-path="url(#p86c6b6e4ca)" d="M 35.338961 104.125004 
L 46.350787 104.813243 
L 55.986135 100.683808 
L 73.880353 86.919025 
L 83.515701 86.919025 
L 101.409918 73.154243 
L 111.045266 73.154243 
L 124.810049 59.38946 
L 142.704266 73.154243 
L 152.339614 73.154243 
L 170.233832 86.919025 
L 179.869179 86.919025 
L 197.763397 100.683808 
L 207.398745 100.683808 
L 225.292962 114.448591 
L 234.92831 114.448591 
L 252.822528 128.213373 
L 262.457876 128.213373 
L 280.352093 141.978156 
L 289.987441 141.978156 
L 307.881659 155.742939 
L 317.517006 155.742939 
L 335.411224 169.507722 
L 345.046572 169.507722 
L 358.811355 183.272504 
L 376.705572 169.507722 
L 386.34092 169.507722 
L 404.235137 155.742939 
L 413.870485 155.742939 
L 431.764703 141.978156 
L 441.400051 141.978156 
L 459.294268 128.213373 
L 468.929616 128.213373 
L 486.823834 114.448591 
L 496.459182 114.448591 
L 514.353399 100.683808 
L 523.988747 97.242612 
" style="fill:none;stroke:#ec8d2f;stroke-linecap:square;stroke-width:1.5;"/>
   </g>
   <g id="line2d_12">
    <path clip-path="url(#p86c6b6e4ca)" d="M 42.221352 96.554373 
L 60.11557 100.683808 
L 69.750918 100.683808 
L 87.645135 114.448591 
L 97.280483 114.448591 
L 115.174701 128.213373 
L 124.810049 128.213373 
L 142.704266 141.978156 
L 152.339614 141.978156 
L 170.233832 155.742939 
L 179.869179 155.742939 
L 197.763397 169.507722 
L 207.398745 169.507722 
L 221.163528 183.272504 
L 239.057745 169.507722 
L 248.693093 169.507722 
L 266.58731 155.742939 
L 276.222658 155.742939 
L 294.116876 141.978156 
L 303.752224 141.978156 
L 321.646441 128.213373 
L 331.281789 128.213373 
L 349.176007 114.448591 
L 358.811355 114.448591 
L 376.705572 100.683808 
L 386.34092 100.683808 
L 404.235137 86.919025 
L 413.870485 86.919025 
L 431.764703 73.154243 
L 441.400051 73.154243 
L 455.164833 59.38946 
L 473.059051 73.154243 
L 482.694399 73.154243 
L 500.588616 86.919025 
L 510.223964 86.919025 
L 528.118182 90.360221 
" style="fill:none;stroke:#45b38e;stroke-linecap:square;stroke-width:1.5;"/>
   </g>
   <g id="line2d_13">
    <path clip-path="url(#p86c6b6e4ca)" d="M 35.338961 90.360221 
L 46.350787 91.04846 
L 55.986135 86.919025 
L 73.880353 73.154243 
L 83.515701 73.154243 
L 97.280483 59.38946 
L 115.174701 73.154243 
L 124.810049 73.154243 
L 142.704266 86.919025 
L 152.339614 86.919025 
L 170.233832 100.683808 
L 179.869179 100.683808 
L 197.763397 114.448591 
L 207.398745 114.448591 
L 225.292962 128.213373 
L 234.92831 128.213373 
L 252.822528 141.978156 
L 262.457876 141.978156 
L 280.352093 155.742939 
L 289.987441 155.742939 
L 307.881659 169.507722 
L 317.517006 169.507722 
L 331.281789 183.272504 
L 349.176007 169.507722 
L 358.811355 169.507722 
L 376.705572 155.742939 
L 386.34092 155.742939 
L 404.235137 141.978156 
L 413.870485 141.978156 
L 431.764703 128.213373 
L 441.400051 128.213373 
L 459.294268 114.448591 
L 468.929616 114.448591 
L 486.823834 100.683808 
L 496.459182 100.683808 
L 514.353399 86.919025 
L 523.988747 83.47783 
" style="fill:none;stroke:#ee9e0a;stroke-linecap:square;stroke-width:1.5;"/>
   </g>
   <g id="line2d_14">
    <path clip-path="url(#p86c6b6e4ca)" d="M 42.221352 82.789591 
L 60.11557 86.919025 
L 69.750918 86.919025 
L 87.645135 100.683808 
L 97.280483 100.683808 
L 115.174701 114.448591 
L 124.810049 114.448591 
L 142.704266 128.213373 
L 152.339614 128.213373 
L 170.233832 141.978156 
L 179.869179 141.978156 
L 197.763397 155.742939 
L 207.398745 155.742939 
L 225.292962 169.507722 
L 234.92831 169.507722 
L 248.693093 183.272504 
L 266.58731 169.507722 
L 276.222658 169.507722 
L 294.116876 155.742939 
L 303.752224 155.742939 
L 321.646441 141.978156 
L 331.281789 141.978156 
L 349.176007 128.213373 
L 358.811355 128.213373 
L 376.705572 114.448591 
L 386.34092 114.448591 
L 404.235137 100.683808 
L 413.870485 100.683808 
L 431.764703 86.919025 
L 441.400051 86.919025 
L 459.294268 73.154243 
L 468.929616 73.154243 
L 482.694399 59.38946 
L 500.588616 73.154243 
L 510.223964 73.154243 
L 528.118182 76.595438 
" style="fill:none;stroke:#76ae65;stroke-linecap:square;stroke-width:1.5;"/>
   </g>
   <g id="line2d_15">
    <path clip-path="url(#p86c6b6e4ca)" d="M 35.338961 76.595438 
L 46.350787 77.283677 
L 55.986135 73.154243 
L 69.750918 59.38946 
L 87.645135 73.154243 
L 97.280483 73.154243 
L 115.174701 86.919025 
L 124.810049 86.919025 
L 142.704266 100.683808 
L 152.339614 100.683808 
L 170.233832 114.448591 
L 179.869179 114.448591 
L 197.763397 128.213373 
L 207.398745 128.213373 
L 225.292962 141.978156 
L 234.92831 141.978156 
L 252.822528 155.742939 
L 262.457876 155.742939 
L 280.352093 169.507722 
L 289.987441 169.507722 
L 303.752224 183.272504 
L 321.646441 169.507722 
L 331.281789 169.507722 
L 349.176007 155.742939 
L 358.811355 155.742939 
L 376.705572 141.978156 
L 386.34092 141.978156 
L 404.235137 128.213373 
L 413.870485 128.213373 
L 431.764703 114.448591 
L 441.400051 114.448591 
L 459.294268 100.683808 
L 468.929616 100.683808 
L 486.823834 86.919025 
L 496.459182 86.919025 
L 514.353399 73.154243 
L 523.988747 69.713047 
" style="fill:none;stroke:#cba61d;stroke-linecap:square;stroke-width:1.5;"/>
   </g>
   <g id="line2d_16">
    <path clip-path="url(#p86c6b6e4ca)" d="M 42.221352 69.024808 
L 60.11557 73.154243 
L 69.750918 73.154243 
L 87.645135 86.919025 
L 97.280483 86.919025 
L 115.174701 100.683808 
L 124.810049 100.683808 
L 142.704266 114.448591 
L 152.339614 114.448591 
L 170.233832 128.213373 
L 179.869179 128.213373 
L 197.763397 141.978156 
L 207.398745 141.978156 
L 225.292962 155.742939 
L 234.92831 155.742939 
L 252.822528 169.507722 
L 262.457876 169.507722 
L 276.222658 183.272504 
L 294.116876 169.507722 
L 303.752224 169.507722 
L 321.646441 155.742939 
L 331.281789 155.742939 
L 349.176007 141.978156 
L 358.811355 141.978156 
L 376.705572 128.213373 
L 386.34092 128.213373 
L 404.235137 114.448591 
L 413.870485 114.448591 
L 431.764703 100.683808 
L 441.400051 100.683808 
L 459.294268 86.919025 
L 468.929616 86.919025 
L 486.823834 73.154243 
L 496.459182 73.154243 
L 510.223964 59.38946 
L 528.118182 62.830656 
" style="fill:none;stroke:#a7aa3c;stroke-linecap:square;stroke-width:1.5;"/>
   </g>
   <g id="line2d_17">
    <path clip-path="url(#p86c6b6e4ca)" d="M 42.221352 179.831309 
L 64.933244 179.831309 
L 73.880353 169.507722 
L 83.515701 169.507722 
L 101.409918 155.742939 
L 111.045266 155.742939 
L 128.939483 141.978156 
L 138.574831 141.978156 
L 156.469049 128.213373 
L 166.104397 128.213373 
L 183.998614 114.448591 
L 193.633962 114.448591 
L 211.52818 100.683808 
L 221.163528 100.683808 
L 239.057745 86.919025 
L 248.693093 86.919025 
L 266.58731 73.154243 
L 276.222658 73.154243 
L 289.987441 59.38946 
L 307.881659 73.154243 
L 317.517006 73.154243 
L 335.411224 86.919025 
L 345.046572 86.919025 
L 362.940789 100.683808 
L 372.576137 100.683808 
L 390.470355 114.448591 
L 400.105703 114.448591 
L 417.99992 128.213373 
L 427.635268 128.213373 
L 445.529486 141.978156 
L 455.164833 141.978156 
L 473.059051 155.742939 
L 482.694399 155.742939 
L 500.588616 169.507722 
L 510.223964 169.507722 
L 523.988747 179.831309 
" style="fill:none;stroke:#8d5ccd;stroke-linecap:square;stroke-width:1.5;"/>
   </g>
   <g id="matplotlib.axis_1"/>
   <g id="matplotlib.axis_2"/>
   <g id="text_1">
    <!-- 1 -->
    <defs>
     <path d="M 12.40625 8.296875 
L 28.515625 8.296875 
L 28.515625 63.921875 
L 10.984375 60.40625 
L 10.984375 69.390625 
L 28.421875 72.90625 
L 38.28125 72.90625 
L 38.28125 8.296875 
L 54.390625 8.296875 
L 54.390625 0 
L 12.40625 0 
z
" id="DejaVuSans-49"/>
    </defs>
    <g transform="translate(36.391124 181.762871)scale(0.07 -0.07)">
     <use xlink:href="#DejaVuSans-49"/>
    </g>
   </g>
   <g id="text_2">
    <!-- 2 -->
    <defs>
     <path d="M 19.1875 8.296875 
L 53.609375 8.296875 
L 53.609375 0 
L 7.328125 0 
L 7.328125 8.296875 
Q 12.9375 14.109375 22.625 23.890625 
Q 32.328125 33.6875 34.8125 36.53125 
Q 39.546875 41.84375 41.421875 45.53125 
Q 43.3125 49.21875 43.3125 52.78125 
Q 43.3125 58.59375 39.234375 62.25 
Q 35.15625 65.921875 28.609375 65.921875 
Q 23.96875 65.921875 18.8125 64.3125 
Q 13.671875 62.703125 7.8125 59.421875 
L 7.8125 69.390625 
Q 13.765625 71.78125 18.9375 73 
Q 24.125 74.21875 28.421875 74.21875 
Q 39.75 74.21875 46.484375 68.546875 
Q 53.21875 62.890625 53.21875 53.421875 
Q 53.21875 48.921875 51.53125 44.890625 
Q 49.859375 40.875 45.40625 35.40625 
Q 44.1875 33.984375 37.640625 27.21875 
Q 31.109375 20.453125 19.1875 8.296875 
z
" id="DejaVuSans-50"/>
    </defs>
    <g transform="translate(36.391124 167.998088)scale(0.07 -0.07)">
     <use xlink:href="#DejaVuSans-50"/>
    </g>
   </g>
   <g id="text_3">
    <!-- 3 -->
    <defs>
     <path d="M 40.578125 39.3125 
Q 47.65625 37.796875 51.625 33 
Q 55.609375 28.21875 55.609375 21.1875 
Q 55.609375 10.40625 48.1875 4.484375 
Q 40.765625 -1.421875 27.09375 -1.421875 
Q 22.515625 -1.421875 17.65625 -0.515625 
Q 12.796875 0.390625 7.625 2.203125 
L 7.625 11.71875 
Q 11.71875 9.328125 16.59375 8.109375 
Q 21.484375 6.890625 26.8125 6.890625 
Q 36.078125 6.890625 40.9375 10.546875 
Q 45.796875 14.203125 45.796875 21.1875 
Q 45.796875 27.640625 41.28125 31.265625 
Q 36.765625 34.90625 28.71875 34.90625 
L 20.21875 34.90625 
L 20.21875 43.015625 
L 29.109375 43.015625 
Q 36.375 43.015625 40.234375 45.921875 
Q 44.09375 48.828125 44.09375 54.296875 
Q 44.09375 59.90625 40.109375 62.90625 
Q 36.140625 65.921875 28.71875 65.921875 
Q 24.65625 65.921875 20.015625 65.03125 
Q 15.375 64.15625 9.8125 62.3125 
L 9.8125 71.09375 
Q 15.4375 72.65625 20.34375 73.4375 
Q 25.25 74.21875 29.59375 74.21875 
Q 40.828125 74.21875 47.359375 69.109375 
Q 53.90625 64.015625 53.90625 55.328125 
Q 53.90625 49.265625 50.4375 45.09375 
Q 46.96875 40.921875 40.578125 39.3125 
z
" id="DejaVuSans-51"/>
    </defs>
    <g transform="translate(36.391124 154.233306)scale(0.07 -0.07)">
     <use xlink:href="#DejaVuSans-51"/>
    </g>
   </g>
   <g id="text_4">
    <!-- 4 -->
    <defs>
     <path d="M 37.796875 64.3125 
L 12.890625 25.390625 
L 37.796875 25.390625 
z
M 35.203125 72.90625 
L 47.609375 72.90625 
L 47.609375 25.390625 
L 58.015625 25.390625 
L 58.015625 17.1875 
L 47.609375 17.1875 
L 47.609375 0 
L 37.796875 0 
L 37.796875 17.1875 
L 4.890625 17.1875 
L 4.890625 26.703125 
z
" id="DejaVuSans-52"/>
    </defs>
    <g transform="translate(36.391124 140.468523)scale(0.07 -0.07)">
     <use xlink:href="#DejaVuSans-52"/>
    </g>
   </g>
   <g id="text_5">
    <!-- 5 -->
    <defs>
     <path d="M 10.796875 72.90625 
L 49.515625 72.90625 
L 49.515625 64.59375 
L 19.828125 64.59375 
L 19.828125 46.734375 
Q 21.96875 47.46875 24.109375 47.828125 
Q 26.265625 48.1875 28.421875 48.1875 
Q 40.625 48.1875 47.75 41.5 
Q 54.890625 34.8125 54.890625 23.390625 
Q 54.890625 11.625 47.5625 5.09375 
Q 40.234375 -1.421875 26.90625 -1.421875 
Q 22.3125 -1.421875 17.546875 -0.640625 
Q 12.796875 0.140625 7.71875 1.703125 
L 7.71875 11.625 
Q 12.109375 9.234375 16.796875 8.0625 
Q 21.484375 6.890625 26.703125 6.890625 
Q 35.15625 6.890625 40.078125 11.328125 
Q 45.015625 15.765625 45.015625 23.390625 
Q 45.015625 31 40.078125 35.4375 
Q 35.15625 39.890625 26.703125 39.890625 
Q 22.75 39.890625 18.8125 39.015625 
Q 14.890625 38.140625 10.796875 36.28125 
z
" id="DejaVuSans-53"/>
    </defs>
    <g transform="translate(36.391124 126.70374)scale(0.07 -0.07)">
     <use xlink:href="#DejaVuSans-53"/>
    </g>
   </g>
   <g id="text_6">
    <!-- 6 -->
    <defs>
     <path d="M 33.015625 40.375 
Q 26.375 40.375 22.484375 35.828125 
Q 18.609375 31.296875 18.609375 23.390625 
Q 18.609375 15.53125 22.484375 10.953125 
Q 26.375 6.390625 33.015625 6.390625 
Q 39.65625 6.390625 43.53125 10.953125 
Q 47.40625 15.53125 47.40625 23.390625 
Q 47.40625 31.296875 43.53125 35.828125 
Q 39.65625 40.375 33.015625 40.375 
z
M 52.59375 71.296875 
L 52.59375 62.3125 
Q 48.875 64.0625 45.09375 64.984375 
Q 41.3125 65.921875 37.59375 65.921875 
Q 27.828125 65.921875 22.671875 59.328125 
Q 17.53125 52.734375 16.796875 39.40625 
Q 19.671875 43.65625 24.015625 45.921875 
Q 28.375 48.1875 33.59375 48.1875 
Q 44.578125 48.1875 50.953125 41.515625 
Q 57.328125 34.859375 57.328125 23.390625 
Q 57.328125 12.15625 50.6875 5.359375 
Q 44.046875 -1.421875 33.015625 -1.421875 
Q 20.359375 -1.421875 13.671875 8.265625 
Q 6.984375 17.96875 6.984375 36.375 
Q 6.984375 53.65625 15.1875 63.9375 
Q 23.390625 74.21875 37.203125 74.21875 
Q 40.921875 74.21875 44.703125 73.484375 
Q 48.484375 72.75 52.59375 71.296875 
z
" id="DejaVuSans-54"/>
    </defs>
    <g transform="translate(36.391124 112.938958)scale(0.07 -0.07)">
     <use xlink:href="#DejaVuSans-54"/>
    </g>
   </g>
   <g id="text_7">
    <!-- 7 -->
    <defs>
     <path d="M 8.203125 72.90625 
L 55.078125 72.90625 
L 55.078125 68.703125 
L 28.609375 0 
L 18.3125 0 
L 43.21875 64.59375 
L 8.203125 64.59375 
z
" id="DejaVuSans-55"/>
    </defs>
    <g transform="translate(36.391124 99.174175)scale(0.07 -0.07)">
     <use xlink:href="#DejaVuSans-55"/>
    </g>
   </g>
   <g id="text_8">
    <!-- 8 -->
    <defs>
     <path d="M 31.78125 34.625 
Q 24.75 34.625 20.71875 30.859375 
Q 16.703125 27.09375 16.703125 20.515625 
Q 16.703125 13.921875 20.71875 10.15625 
Q 24.75 6.390625 31.78125 6.390625 
Q 38.8125 6.390625 42.859375 10.171875 
Q 46.921875 13.96875 46.921875 20.515625 
Q 46.921875 27.09375 42.890625 30.859375 
Q 38.875 34.625 31.78125 34.625 
z
M 21.921875 38.8125 
Q 15.578125 40.375 12.03125 44.71875 
Q 8.5 49.078125 8.5 55.328125 
Q 8.5 64.0625 14.71875 69.140625 
Q 20.953125 74.21875 31.78125 74.21875 
Q 42.671875 74.21875 48.875 69.140625 
Q 55.078125 64.0625 55.078125 55.328125 
Q 55.078125 49.078125 51.53125 44.71875 
Q 48 40.375 41.703125 38.8125 
Q 48.828125 37.15625 52.796875 32.3125 
Q 56.78125 27.484375 56.78125 20.515625 
Q 56.78125 9.90625 50.3125 4.234375 
Q 43.84375 -1.421875 31.78125 -1.421875 
Q 19.734375 -1.421875 13.25 4.234375 
Q 6.78125 9.90625 6.78125 20.515625 
Q 6.78125 27.484375 10.78125 32.3125 
Q 14.796875 37.15625 21.921875 38.8125 
z
M 18.3125 54.390625 
Q 18.3125 48.734375 21.84375 45.5625 
Q 25.390625 42.390625 31.78125 42.390625 
Q 38.140625 42.390625 41.71875 45.5625 
Q 45.3125 48.734375 45.3125 54.390625 
Q 45.3125 60.0625 41.71875 63.234375 
Q 38.140625 66.40625 31.78125 66.40625 
Q 25.390625 66.40625 21.84375 63.234375 
Q 18.3125 60.0625 18.3125 54.390625 
z
" id="DejaVuSans-56"/>
    </defs>
    <g transform="translate(36.391124 85.409392)scale(0.07 -0.07)">
     <use xlink:href="#DejaVuSans-56"/>
    </g>
   </g>
   <g id="text_9">
    <!-- 9 -->
    <defs>
     <path d="M 10.984375 1.515625 
L 10.984375 10.5 
Q 14.703125 8.734375 18.5 7.8125 
Q 22.3125 6.890625 25.984375 6.890625 
Q 35.75 6.890625 40.890625 13.453125 
Q 46.046875 20.015625 46.78125 33.40625 
Q 43.953125 29.203125 39.59375 26.953125 
Q 35.25 24.703125 29.984375 24.703125 
Q 19.046875 24.703125 12.671875 31.3125 
Q 6.296875 37.9375 6.296875 49.421875 
Q 6.296875 60.640625 12.9375 67.421875 
Q 19.578125 74.21875 30.609375 74.21875 
Q 43.265625 74.21875 49.921875 64.515625 
Q 56.59375 54.828125 56.59375 36.375 
Q 56.59375 19.140625 48.40625 8.859375 
Q 40.234375 -1.421875 26.421875 -1.421875 
Q 22.703125 -1.421875 18.890625 -0.6875 
Q 15.09375 0.046875 10.984375 1.515625 
z
M 30.609375 32.421875 
Q 37.25 32.421875 41.125 36.953125 
Q 45.015625 41.5 45.015625 49.421875 
Q 45.015625 57.28125 41.125 61.84375 
Q 37.25 66.40625 30.609375 66.40625 
Q 23.96875 66.40625 20.09375 61.84375 
Q 16.21875 57.28125 16.21875 49.421875 
Q 16.21875 41.5 20.09375 36.953125 
Q 23.96875 32.421875 30.609375 32.421875 
z
" id="DejaVuSans-57"/>
    </defs>
    <g transform="translate(36.391124 71.64461)scale(0.07 -0.07)">
     <use xlink:href="#DejaVuSans-57"/>
    </g>
   </g>
   <g id="text_10">
    <!-- 17 -->
    <g transform="translate(25.054983 174.88048)scale(0.07 -0.07)">
     <use xlink:href="#DejaVuSans-49"/>
     <use x="63.623047" xlink:href="#DejaVuSans-55"/>
    </g>
   </g>
   <g id="text_11">
    <!-- 16 -->
    <g transform="translate(25.054983 161.115697)scale(0.07 -0.07)">
     <use xlink:href="#DejaVuSans-49"/>
     <use x="63.623047" xlink:href="#DejaVuSans-54"/>
    </g>
   </g>
   <g id="text_12">
    <!-- 15 -->
    <g transform="translate(25.054983 147.350914)scale(0.07 -0.07)">
     <use xlink:href="#DejaVuSans-49"/>
     <use x="63.623047" xlink:href="#DejaVuSans-53"/>
    </g>
   </g>
   <g id="text_13">
    <!-- 14 -->
    <g transform="translate(25.054983 133.586132)scale(0.07 -0.07)">
     <use xlink:href="#DejaVuSans-49"/>
     <use x="63.623047" xlink:href="#DejaVuSans-52"/>
    </g>
   </g>
   <g id="text_14">
    <!-- 13 -->
    <g transform="translate(25.054983 119.821349)scale(0.07 -0.07)">
     <use xlink:href="#DejaVuSans-49"/>
     <use x="63.623047" xlink:href="#DejaVuSans-51"/>
    </g>
   </g>
   <g id="text_15">
    <!-- 12 -->
    <g transform="translate(25.054983 106.056566)scale(0.07 -0.07)">
     <use xlink:href="#DejaVuSans-49"/>
     <use x="63.623047" xlink:href="#DejaVuSans-50"/>
    </g>
   </g>
   <g id="text_16">
    <!-- 11 -->
    <g transform="translate(25.054983 92.291784)scale(0.07 -0.07)">
     <use xlink:href="#DejaVuSans-49"/>
     <use x="63.623047" xlink:href="#DejaVuSans-49"/>
    </g>
   </g>
   <g id="text_17">
    <!-- 10 -->
    <defs>
     <path d="M 31.78125 66.40625 
Q 24.171875 66.40625 20.328125 58.90625 
Q 16.5 51.421875 16.5 36.375 
Q 16.5 21.390625 20.328125 13.890625 
Q 24.171875 6.390625 31.78125 6.390625 
Q 39.453125 6.390625 43.28125 13.890625 
Q 47.125 21.390625 47.125 36.375 
Q 47.125 51.421875 43.28125 58.90625 
Q 39.453125 66.40625 31.78125 66.40625 
z
M 31.78125 74.21875 
Q 44.046875 74.21875 50.515625 64.515625 
Q 56.984375 54.828125 56.984375 36.375 
Q 56.984375 17.96875 50.515625 8.265625 
Q 44.046875 -1.421875 31.78125 -1.421875 
Q 19.53125 -1.421875 13.0625 8.265625 
Q 6.59375 17.96875 6.59375 36.375 
Q 6.59375 54.828125 13.0625 64.515625 
Q 19.53125 74.21875 31.78125 74.21875 
z
" id="DejaVuSans-48"/>
    </defs>
    <g transform="translate(25.054983 78.527001)scale(0.07 -0.07)">
     <use xlink:href="#DejaVuSans-49"/>
     <use x="63.623047" xlink:href="#DejaVuSans-48"/>
    </g>
   </g>
   <g id="text_18">
    <!-- Square Layout (Marquee), N=17 -->
    <defs>
     <path d="M 53.515625 70.515625 
L 53.515625 60.890625 
Q 47.90625 63.578125 42.921875 64.890625 
Q 37.9375 66.21875 33.296875 66.21875 
Q 25.25 66.21875 20.875 63.09375 
Q 16.5 59.96875 16.5 54.203125 
Q 16.5 49.359375 19.40625 46.890625 
Q 22.3125 44.4375 30.421875 42.921875 
L 36.375 41.703125 
Q 47.40625 39.59375 52.65625 34.296875 
Q 57.90625 29 57.90625 20.125 
Q 57.90625 9.515625 50.796875 4.046875 
Q 43.703125 -1.421875 29.984375 -1.421875 
Q 24.8125 -1.421875 18.96875 -0.25 
Q 13.140625 0.921875 6.890625 3.21875 
L 6.890625 13.375 
Q 12.890625 10.015625 18.65625 8.296875 
Q 24.421875 6.59375 29.984375 6.59375 
Q 38.421875 6.59375 43.015625 9.90625 
Q 47.609375 13.234375 47.609375 19.390625 
Q 47.609375 24.75 44.3125 27.78125 
Q 41.015625 30.8125 33.5 32.328125 
L 27.484375 33.5 
Q 16.453125 35.6875 11.515625 40.375 
Q 6.59375 45.0625 6.59375 53.421875 
Q 6.59375 63.09375 13.40625 68.65625 
Q 20.21875 74.21875 32.171875 74.21875 
Q 37.3125 74.21875 42.625 73.28125 
Q 47.953125 72.359375 53.515625 70.515625 
z
" id="DejaVuSans-83"/>
     <path d="M 14.796875 27.296875 
Q 14.796875 17.390625 18.875 11.75 
Q 22.953125 6.109375 30.078125 6.109375 
Q 37.203125 6.109375 41.296875 11.75 
Q 45.40625 17.390625 45.40625 27.296875 
Q 45.40625 37.203125 41.296875 42.84375 
Q 37.203125 48.484375 30.078125 48.484375 
Q 22.953125 48.484375 18.875 42.84375 
Q 14.796875 37.203125 14.796875 27.296875 
z
M 45.40625 8.203125 
Q 42.578125 3.328125 38.25 0.953125 
Q 33.9375 -1.421875 27.875 -1.421875 
Q 17.96875 -1.421875 11.734375 6.484375 
Q 5.515625 14.40625 5.515625 27.296875 
Q 5.515625 40.1875 11.734375 48.09375 
Q 17.96875 56 27.875 56 
Q 33.9375 56 38.25 53.625 
Q 42.578125 51.265625 45.40625 46.390625 
L 45.40625 54.6875 
L 54.390625 54.6875 
L 54.390625 -20.796875 
L 45.40625 -20.796875 
z
" id="DejaVuSans-113"/>
     <path d="M 8.5 21.578125 
L 8.5 54.6875 
L 17.484375 54.6875 
L 17.484375 21.921875 
Q 17.484375 14.15625 20.5 10.265625 
Q 23.53125 6.390625 29.59375 6.390625 
Q 36.859375 6.390625 41.078125 11.03125 
Q 45.3125 15.671875 45.3125 23.6875 
L 45.3125 54.6875 
L 54.296875 54.6875 
L 54.296875 0 
L 45.3125 0 
L 45.3125 8.40625 
Q 42.046875 3.421875 37.71875 1 
Q 33.40625 -1.421875 27.6875 -1.421875 
Q 18.265625 -1.421875 13.375 4.4375 
Q 8.5 10.296875 8.5 21.578125 
z
M 31.109375 56 
z
" id="DejaVuSans-117"/>
     <path d="M 34.28125 27.484375 
Q 23.390625 27.484375 19.1875 25 
Q 14.984375 22.515625 14.984375 16.5 
Q 14.984375 11.71875 18.140625 8.90625 
Q 21.296875 6.109375 26.703125 6.109375 
Q 34.1875 6.109375 38.703125 11.40625 
Q 43.21875 16.703125 43.21875 25.484375 
L 43.21875 27.484375 
z
M 52.203125 31.203125 
L 52.203125 0 
L 43.21875 0 
L 43.21875 8.296875 
Q 40.140625 3.328125 35.546875 0.953125 
Q 30.953125 -1.421875 24.3125 -1.421875 
Q 15.921875 -1.421875 10.953125 3.296875 
Q 6 8.015625 6 15.921875 
Q 6 25.140625 12.171875 29.828125 
Q 18.359375 34.515625 30.609375 34.515625 
L 43.21875 34.515625 
L 43.21875 35.40625 
Q 43.21875 41.609375 39.140625 45 
Q 35.0625 48.390625 27.6875 48.390625 
Q 23 48.390625 18.546875 47.265625 
Q 14.109375 46.140625 10.015625 43.890625 
L 10.015625 52.203125 
Q 14.9375 54.109375 19.578125 55.046875 
Q 24.21875 56 28.609375 56 
Q 40.484375 56 46.34375 49.84375 
Q 52.203125 43.703125 52.203125 31.203125 
z
" id="DejaVuSans-97"/>
     <path d="M 41.109375 46.296875 
Q 39.59375 47.171875 37.8125 47.578125 
Q 36.03125 48 33.890625 48 
Q 26.265625 48 22.1875 43.046875 
Q 18.109375 38.09375 18.109375 28.8125 
L 18.109375 0 
L 9.078125 0 
L 9.078125 54.6875 
L 18.109375 54.6875 
L 18.109375 46.1875 
Q 20.953125 51.171875 25.484375 53.578125 
Q 30.03125 56 36.53125 56 
Q 37.453125 56 38.578125 55.875 
Q 39.703125 55.765625 41.0625 55.515625 
z
" id="DejaVuSans-114"/>
     <path d="M 56.203125 29.59375 
L 56.203125 25.203125 
L 14.890625 25.203125 
Q 15.484375 15.921875 20.484375 11.0625 
Q 25.484375 6.203125 34.421875 6.203125 
Q 39.59375 6.203125 44.453125 7.46875 
Q 49.3125 8.734375 54.109375 11.28125 
L 54.109375 2.78125 
Q 49.265625 0.734375 44.1875 -0.34375 
Q 39.109375 -1.421875 33.890625 -1.421875 
Q 20.796875 -1.421875 13.15625 6.1875 
Q 5.515625 13.8125 5.515625 26.8125 
Q 5.515625 40.234375 12.765625 48.109375 
Q 20.015625 56 32.328125 56 
Q 43.359375 56 49.78125 48.890625 
Q 56.203125 41.796875 56.203125 29.59375 
z
M 47.21875 32.234375 
Q 47.125 39.59375 43.09375 43.984375 
Q 39.0625 48.390625 32.421875 48.390625 
Q 24.90625 48.390625 20.390625 44.140625 
Q 15.875 39.890625 15.1875 32.171875 
z
" id="DejaVuSans-101"/>
     <path id="DejaVuSans-32"/>
     <path d="M 9.8125 72.90625 
L 19.671875 72.90625 
L 19.671875 8.296875 
L 55.171875 8.296875 
L 55.171875 0 
L 9.8125 0 
z
" id="DejaVuSans-76"/>
     <path d="M 32.171875 -5.078125 
Q 28.375 -14.84375 24.75 -17.8125 
Q 21.140625 -20.796875 15.09375 -20.796875 
L 7.90625 -20.796875 
L 7.90625 -13.28125 
L 13.1875 -13.28125 
Q 16.890625 -13.28125 18.9375 -11.515625 
Q 21 -9.765625 23.484375 -3.21875 
L 25.09375 0.875 
L 2.984375 54.6875 
L 12.5 54.6875 
L 29.59375 11.921875 
L 46.6875 54.6875 
L 56.203125 54.6875 
z
" id="DejaVuSans-121"/>
     <path d="M 30.609375 48.390625 
Q 23.390625 48.390625 19.1875 42.75 
Q 14.984375 37.109375 14.984375 27.296875 
Q 14.984375 17.484375 19.15625 11.84375 
Q 23.34375 6.203125 30.609375 6.203125 
Q 37.796875 6.203125 41.984375 11.859375 
Q 46.1875 17.53125 46.1875 27.296875 
Q 46.1875 37.015625 41.984375 42.703125 
Q 37.796875 48.390625 30.609375 48.390625 
z
M 30.609375 56 
Q 42.328125 56 49.015625 48.375 
Q 55.71875 40.765625 55.71875 27.296875 
Q 55.71875 13.875 49.015625 6.21875 
Q 42.328125 -1.421875 30.609375 -1.421875 
Q 18.84375 -1.421875 12.171875 6.21875 
Q 5.515625 13.875 5.515625 27.296875 
Q 5.515625 40.765625 12.171875 48.375 
Q 18.84375 56 30.609375 56 
z
" id="DejaVuSans-111"/>
     <path d="M 18.3125 70.21875 
L 18.3125 54.6875 
L 36.8125 54.6875 
L 36.8125 47.703125 
L 18.3125 47.703125 
L 18.3125 18.015625 
Q 18.3125 11.328125 20.140625 9.421875 
Q 21.96875 7.515625 27.59375 7.515625 
L 36.8125 7.515625 
L 36.8125 0 
L 27.59375 0 
Q 17.1875 0 13.234375 3.875 
Q 9.28125 7.765625 9.28125 18.015625 
L 9.28125 47.703125 
L 2.6875 47.703125 
L 2.6875 54.6875 
L 9.28125 54.6875 
L 9.28125 70.21875 
z
" id="DejaVuSans-116"/>
     <path d="M 31 75.875 
Q 24.46875 64.65625 21.28125 53.65625 
Q 18.109375 42.671875 18.109375 31.390625 
Q 18.109375 20.125 21.3125 9.0625 
Q 24.515625 -2 31 -13.1875 
L 23.1875 -13.1875 
Q 15.875 -1.703125 12.234375 9.375 
Q 8.59375 20.453125 8.59375 31.390625 
Q 8.59375 42.28125 12.203125 53.3125 
Q 15.828125 64.359375 23.1875 75.875 
z
" id="DejaVuSans-40"/>
     <path d="M 9.8125 72.90625 
L 24.515625 72.90625 
L 43.109375 23.296875 
L 61.8125 72.90625 
L 76.515625 72.90625 
L 76.515625 0 
L 66.890625 0 
L 66.890625 64.015625 
L 48.09375 14.015625 
L 38.1875 14.015625 
L 19.390625 64.015625 
L 19.390625 0 
L 9.8125 0 
z
" id="DejaVuSans-77"/>
     <path d="M 8.015625 75.875 
L 15.828125 75.875 
Q 23.140625 64.359375 26.78125 53.3125 
Q 30.421875 42.28125 30.421875 31.390625 
Q 30.421875 20.453125 26.78125 9.375 
Q 23.140625 -1.703125 15.828125 -13.1875 
L 8.015625 -13.1875 
Q 14.5 -2 17.703125 9.0625 
Q 20.90625 20.125 20.90625 31.390625 
Q 20.90625 42.671875 17.703125 53.65625 
Q 14.5 64.65625 8.015625 75.875 
z
" id="DejaVuSans-41"/>
     <path d="M 11.71875 12.40625 
L 22.015625 12.40625 
L 22.015625 4 
L 14.015625 -11.625 
L 7.71875 -11.625 
L 11.71875 4 
z
" id="DejaVuSans-44"/>
     <path d="M 9.8125 72.90625 
L 23.09375 72.90625 
L 55.421875 11.921875 
L 55.421875 72.90625 
L 64.984375 72.90625 
L 64.984375 0 
L 51.703125 0 
L 19.390625 60.984375 
L 19.390625 0 
L 9.8125 0 
z
" id="DejaVuSans-78"/>
     <path d="M 10.59375 45.40625 
L 73.1875 45.40625 
L 73.1875 37.203125 
L 10.59375 37.203125 
z
M 10.59375 25.484375 
L 73.1875 25.484375 
L 73.1875 17.1875 
L 10.59375 17.1875 
z
" id="DejaVuSans-61"/>
    </defs>
    <g transform="translate(184.301696 16.318125)scale(0.12 -0.12)">
     <use xlink:href="#DejaVuSans-83"/>
     <use x="63.476562" xlink:href="#DejaVuSans-113"/>
     <use x="126.953125" xlink:href="#DejaVuSans-117"/>
     <use x="190.332031" xlink:href="#DejaVuSans-97"/>
     <use x="251.611328" xlink:href="#DejaVuSans-114"/>
     <use x="292.693359" xlink:href="#DejaVuSans-101"/>
     <use x="354.216797" xlink:href="#DejaVuSans-32"/>
     <use x="386.003906" xlink:href="#DejaVuSans-76"/>
     <use x="441.716797" xlink:href="#DejaVuSans-97"/>
     <use x="502.996094" xlink:href="#DejaVuSans-121"/>
     <use x="562.175781" xlink:href="#DejaVuSans-111"/>
     <use x="623.357422" xlink:href="#DejaVuSans-117"/>
     <use x="686.736328" xlink:href="#DejaVuSans-116"/>
     <use x="725.945312" xlink:href="#DejaVuSans-32"/>
     <use x="757.732422" xlink:href="#DejaVuSans-40"/>
     <use x="796.746094" xlink:href="#DejaVuSans-77"/>
     <use x="883.025391" xlink:href="#DejaVuSans-97"/>
     <use x="944.304688" xlink:href="#DejaVuSans-114"/>
     <use x="985.402344" xlink:href="#DejaVuSans-113"/>
     <use x="1048.878906" xlink:href="#DejaVuSans-117"/>
     <use x="1112.257812" xlink:href="#DejaVuSans-101"/>
     <use x="1173.78125" xlink:href="#DejaVuSans-101"/>
     <use x="1235.304688" xlink:href="#DejaVuSans-41"/>
     <use x="1274.318359" xlink:href="#DejaVuSans-44"/>
     <use x="1306.105469" xlink:href="#DejaVuSans-32"/>
     <use x="1337.892578" xlink:href="#DejaVuSans-78"/>
     <use x="1412.697266" xlink:href="#DejaVuSans-61"/>
     <use x="1496.486328" xlink:href="#DejaVuSans-49"/>
     <use x="1560.109375" xlink:href="#DejaVuSans-55"/>
    </g>
   </g>
  </g>
 </g>
 <defs>
  <clipPath id="p86c6b6e4ca">
   <rect height="198.025714" width="542.057143" x="10.7" y="22.318125"/>
  </clipPath>
 </defs>
</svg>
