<?xml version="1.0" encoding="utf-8" standalone="no"?>
<!DOCTYPE svg PUBLIC "-//W3C//DTD SVG 1.1//EN"
  "http://www.w3.org/Graphics/SVG/1.1/DTD/svg11.dtd">
<!-- Created with matplotlib (https://matplotlib.org/) -->
<svg height="250.458125pt" version="1.1" viewBox="0 0 356.2 250.458125" width="356.2pt" xmlns="http://www.w3.org/2000/svg" xmlns:xlink="http://www.w3.org/1999/xlink">
 <defs>
  <style type="text/css">
*{stroke-linecap:butt;stroke-linejoin:round;}
  </style>
 </defs>
 <g id="figure_1">
  <g id="patch_1">
   <path d="M 0 250.458125 
L 356.2 250.458125 
L 356.2 0 
L 0 0 
z
" style="fill:none;"/>
  </g>
  <g id="axes_1">
   <g id="patch_2">
    <path d="M 10.7 239.758125 
L 345.5 239.758125 
L 345.5 22.318125 
L 10.7 22.318125 
z
" style="fill:none;"/>
   </g>
   <g id="PathCollection_1">
    <defs>
     <path d="M 0 5 
C 1.326016 5 2.597899 4.473168 3.535534 3.535534 
C 4.473168 2.597899 5 1.326016 5 0 
C 5 -1.326016 4.473168 -2.597899 3.535534 -3.535534 
C 2.597899 -4.473168 1.326016 -5 0 -5 
C -1.326016 -5 -2.597899 -4.473168 -3.535534 -3.535534 
C -4.473168 -2.597899 -5 -1.326016 -5 0 
C -5 1.326016 -4.473168 2.597899 -3.535534 3.535534 
C -2.597899 4.473168 -1.326016 5 0 5 
z
" id="mbff236e3ab" style="stroke:#c7cbce;"/>
    </defs>
    <g>
     <use style="fill:#dadcde;stroke:#c7cbce;" x="47.019022" xlink:href="#mbff236e3ab" y="156.614901"/>
    </g>
   </g>
   <g id="PathCollection_2">
    <g>
     <use style="fill:#dadcde;stroke:#c7cbce;" x="47.019022" xlink:href="#mbff236e3ab" y="143.826513"/>
    </g>
   </g>
   <g id="PathCollection_3">
    <g>
     <use style="fill:#dadcde;stroke:#c7cbce;" x="47.019022" xlink:href="#mbff236e3ab" y="131.038125"/>
    </g>
   </g>
   <g id="PathCollection_4">
    <g>
     <use style="fill:#dadcde;stroke:#c7cbce;" x="47.019022" xlink:href="#mbff236e3ab" y="118.249737"/>
    </g>
   </g>
   <g id="PathCollection_5">
    <g>
     <use style="fill:#dadcde;stroke:#c7cbce;" x="47.019022" xlink:href="#mbff236e3ab" y="105.461349"/>
    </g>
   </g>
   <g id="PathCollection_6">
    <g>
     <use style="fill:#dadcde;stroke:#c7cbce;" x="59.80741" xlink:href="#mbff236e3ab" y="156.614901"/>
    </g>
   </g>
   <g id="PathCollection_7">
    <g>
     <use style="fill:#dadcde;stroke:#c7cbce;" x="59.80741" xlink:href="#mbff236e3ab" y="143.826513"/>
    </g>
   </g>
   <g id="PathCollection_8">
    <g>
     <use style="fill:#dadcde;stroke:#c7cbce;" x="59.80741" xlink:href="#mbff236e3ab" y="131.038125"/>
    </g>
   </g>
   <g id="PathCollection_9">
    <g>
     <use style="fill:#dadcde;stroke:#c7cbce;" x="59.80741" xlink:href="#mbff236e3ab" y="118.249737"/>
    </g>
   </g>
   <g id="PathCollection_10">
    <g>
     <use style="fill:#dadcde;stroke:#c7cbce;" x="59.80741" xlink:href="#mbff236e3ab" y="105.461349"/>
    </g>
   </g>
   <g id="PathCollection_11">
    <g>
     <use style="fill:#dadcde;stroke:#c7cbce;" x="72.595798" xlink:href="#mbff236e3ab" y="156.614901"/>
    </g>
   </g>
   <g id="PathCollection_12">
    <g>
     <use style="fill:#dadcde;stroke:#c7cbce;" x="72.595798" xlink:href="#mbff236e3ab" y="143.826513"/>
    </g>
   </g>
   <g id="PathCollection_13">
    <g>
     <use style="fill:#dadcde;stroke:#c7cbce;" x="72.595798" xlink:href="#mbff236e3ab" y="131.038125"/>
    </g>
   </g>
   <g id="PathCollection_14">
    <g>
     <use style="fill:#dadcde;stroke:#c7cbce;" x="72.595798" xlink:href="#mbff236e3ab" y="118.249737"/>
    </g>
   </g>
   <g id="PathCollection_15">
    <g>
     <use style="fill:#dadcde;stroke:#c7cbce;" x="72.595798" xlink:href="#mbff236e3ab" y="105.461349"/>
    </g>
   </g>
   <g id="PathCollection_16">
    <g>
     <use style="fill:#dadcde;stroke:#c7cbce;" x="85.384186" xlink:href="#mbff236e3ab" y="156.614901"/>
    </g>
   </g>
   <g id="PathCollection_17">
    <g>
     <use style="fill:#dadcde;stroke:#c7cbce;" x="85.384186" xlink:href="#mbff236e3ab" y="143.826513"/>
    </g>
   </g>
   <g id="PathCollection_18">
    <g>
     <use style="fill:#dadcde;stroke:#c7cbce;" x="85.384186" xlink:href="#mbff236e3ab" y="131.038125"/>
    </g>
   </g>
   <g id="PathCollection_19">
    <g>
     <use style="fill:#dadcde;stroke:#c7cbce;" x="85.384186" xlink:href="#mbff236e3ab" y="118.249737"/>
    </g>
   </g>
   <g id="PathCollection_20">
    <g>
     <use style="fill:#dadcde;stroke:#c7cbce;" x="85.384186" xlink:href="#mbff236e3ab" y="105.461349"/>
    </g>
   </g>
   <g id="PathCollection_21">
    <g>
     <use style="fill:#dadcde;stroke:#c7cbce;" x="98.172574" xlink:href="#mbff236e3ab" y="156.614901"/>
    </g>
   </g>
   <g id="PathCollection_22">
    <g>
     <use style="fill:#dadcde;stroke:#c7cbce;" x="98.172574" xlink:href="#mbff236e3ab" y="143.826513"/>
    </g>
   </g>
   <g id="PathCollection_23">
    <g>
     <use style="fill:#dadcde;stroke:#c7cbce;" x="98.172574" xlink:href="#mbff236e3ab" y="131.038125"/>
    </g>
   </g>
   <g id="PathCollection_24">
    <g>
     <use style="fill:#dadcde;stroke:#c7cbce;" x="98.172574" xlink:href="#mbff236e3ab" y="118.249737"/>
    </g>
   </g>
   <g id="PathCollection_25">
    <g>
     <use style="fill:#dadcde;stroke:#c7cbce;" x="98.172574" xlink:href="#mbff236e3ab" y="105.461349"/>
    </g>
   </g>
   <g id="PathCollection_26">
    <g>
     <use style="fill:#dadcde;stroke:#c7cbce;" x="110.960963" xlink:href="#mbff236e3ab" y="156.614901"/>
    </g>
   </g>
   <g id="PathCollection_27">
    <g>
     <use style="fill:#dadcde;stroke:#c7cbce;" x="110.960963" xlink:href="#mbff236e3ab" y="143.826513"/>
    </g>
   </g>
   <g id="PathCollection_28">
    <g>
     <use style="fill:#dadcde;stroke:#c7cbce;" x="110.960963" xlink:href="#mbff236e3ab" y="131.038125"/>
    </g>
   </g>
   <g id="PathCollection_29">
    <g>
     <use style="fill:#dadcde;stroke:#c7cbce;" x="110.960963" xlink:href="#mbff236e3ab" y="118.249737"/>
    </g>
   </g>
   <g id="PathCollection_30">
    <g>
     <use style="fill:#dadcde;stroke:#c7cbce;" x="110.960963" xlink:href="#mbff236e3ab" y="105.461349"/>
    </g>
   </g>
   <g id="PathCollection_31">
    <g>
     <use style="fill:#dadcde;stroke:#c7cbce;" x="123.749351" xlink:href="#mbff236e3ab" y="156.614901"/>
    </g>
   </g>
   <g id="PathCollection_32">
    <g>
     <use style="fill:#dadcde;stroke:#c7cbce;" x="123.749351" xlink:href="#mbff236e3ab" y="143.826513"/>
    </g>
   </g>
   <g id="PathCollection_33">
    <g>
     <use style="fill:#dadcde;stroke:#c7cbce;" x="123.749351" xlink:href="#mbff236e3ab" y="131.038125"/>
    </g>
   </g>
   <g id="PathCollection_34">
    <g>
     <use style="fill:#dadcde;stroke:#c7cbce;" x="123.749351" xlink:href="#mbff236e3ab" y="118.249737"/>
    </g>
   </g>
   <g id="PathCollection_35">
    <g>
     <use style="fill:#dadcde;stroke:#c7cbce;" x="123.749351" xlink:href="#mbff236e3ab" y="105.461349"/>
    </g>
   </g>
   <g id="PathCollection_36">
    <g>
     <use style="fill:#dadcde;stroke:#c7cbce;" x="136.537739" xlink:href="#mbff236e3ab" y="156.614901"/>
    </g>
   </g>
   <g id="PathCollection_37">
    <g>
     <use style="fill:#dadcde;stroke:#c7cbce;" x="136.537739" xlink:href="#mbff236e3ab" y="143.826513"/>
    </g>
   </g>
   <g id="PathCollection_38">
    <g>
     <use style="fill:#dadcde;stroke:#c7cbce;" x="136.537739" xlink:href="#mbff236e3ab" y="131.038125"/>
    </g>
   </g>
   <g id="PathCollection_39">
    <g>
     <use style="fill:#dadcde;stroke:#c7cbce;" x="136.537739" xlink:href="#mbff236e3ab" y="118.249737"/>
    </g>
   </g>
   <g id="PathCollection_40">
    <g>
     <use style="fill:#dadcde;stroke:#c7cbce;" x="136.537739" xlink:href="#mbff236e3ab" y="105.461349"/>
    </g>
   </g>
   <g id="PathCollection_41">
    <g>
     <use style="fill:#dadcde;stroke:#c7cbce;" x="149.326127" xlink:href="#mbff236e3ab" y="156.614901"/>
    </g>
   </g>
   <g id="PathCollection_42">
    <g>
     <use style="fill:#dadcde;stroke:#c7cbce;" x="149.326127" xlink:href="#mbff236e3ab" y="143.826513"/>
    </g>
   </g>
   <g id="PathCollection_43">
    <g>
     <use style="fill:#dadcde;stroke:#c7cbce;" x="149.326127" xlink:href="#mbff236e3ab" y="131.038125"/>
    </g>
   </g>
   <g id="PathCollection_44">
    <g>
     <use style="fill:#dadcde;stroke:#c7cbce;" x="149.326127" xlink:href="#mbff236e3ab" y="118.249737"/>
    </g>
   </g>
   <g id="PathCollection_45">
    <g>
     <use style="fill:#dadcde;stroke:#c7cbce;" x="149.326127" xlink:href="#mbff236e3ab" y="105.461349"/>
    </g>
   </g>
   <g id="PathCollection_46">
    <g>
     <use style="fill:#dadcde;stroke:#c7cbce;" x="162.114515" xlink:href="#mbff236e3ab" y="156.614901"/>
    </g>
   </g>
   <g id="PathCollection_47">
    <g>
     <use style="fill:#dadcde;stroke:#c7cbce;" x="162.114515" xlink:href="#mbff236e3ab" y="143.826513"/>
    </g>
   </g>
   <g id="PathCollection_48">
    <g>
     <use style="fill:#dadcde;stroke:#c7cbce;" x="162.114515" xlink:href="#mbff236e3ab" y="131.038125"/>
    </g>
   </g>
   <g id="PathCollection_49">
    <g>
     <use style="fill:#dadcde;stroke:#c7cbce;" x="162.114515" xlink:href="#mbff236e3ab" y="118.249737"/>
    </g>
   </g>
   <g id="PathCollection_50">
    <g>
     <use style="fill:#dadcde;stroke:#c7cbce;" x="162.114515" xlink:href="#mbff236e3ab" y="105.461349"/>
    </g>
   </g>
   <g id="PathCollection_51">
    <g>
     <use style="fill:#dadcde;stroke:#c7cbce;" x="174.902903" xlink:href="#mbff236e3ab" y="156.614901"/>
    </g>
   </g>
   <g id="PathCollection_52">
    <g>
     <use style="fill:#dadcde;stroke:#c7cbce;" x="174.902903" xlink:href="#mbff236e3ab" y="143.826513"/>
    </g>
   </g>
   <g id="PathCollection_53">
    <g>
     <use style="fill:#dadcde;stroke:#c7cbce;" x="174.902903" xlink:href="#mbff236e3ab" y="131.038125"/>
    </g>
   </g>
   <g id="PathCollection_54">
    <g>
     <use style="fill:#dadcde;stroke:#c7cbce;" x="174.902903" xlink:href="#mbff236e3ab" y="118.249737"/>
    </g>
   </g>
   <g id="PathCollection_55">
    <g>
     <use style="fill:#dadcde;stroke:#c7cbce;" x="174.902903" xlink:href="#mbff236e3ab" y="105.461349"/>
    </g>
   </g>
   <g id="PathCollection_56">
    <g>
     <use style="fill:#dadcde;stroke:#c7cbce;" x="187.691291" xlink:href="#mbff236e3ab" y="156.614901"/>
    </g>
   </g>
   <g id="PathCollection_57">
    <g>
     <use style="fill:#dadcde;stroke:#c7cbce;" x="187.691291" xlink:href="#mbff236e3ab" y="143.826513"/>
    </g>
   </g>
   <g id="PathCollection_58">
    <g>
     <use style="fill:#dadcde;stroke:#c7cbce;" x="187.691291" xlink:href="#mbff236e3ab" y="131.038125"/>
    </g>
   </g>
   <g id="PathCollection_59">
    <g>
     <use style="fill:#dadcde;stroke:#c7cbce;" x="187.691291" xlink:href="#mbff236e3ab" y="118.249737"/>
    </g>
   </g>
   <g id="PathCollection_60">
    <g>
     <use style="fill:#dadcde;stroke:#c7cbce;" x="187.691291" xlink:href="#mbff236e3ab" y="105.461349"/>
    </g>
   </g>
   <g id="PathCollection_61">
    <g>
     <use style="fill:#dadcde;stroke:#c7cbce;" x="200.479679" xlink:href="#mbff236e3ab" y="156.614901"/>
    </g>
   </g>
   <g id="PathCollection_62">
    <g>
     <use style="fill:#dadcde;stroke:#c7cbce;" x="200.479679" xlink:href="#mbff236e3ab" y="143.826513"/>
    </g>
   </g>
   <g id="PathCollection_63">
    <g>
     <use style="fill:#dadcde;stroke:#c7cbce;" x="200.479679" xlink:href="#mbff236e3ab" y="131.038125"/>
    </g>
   </g>
   <g id="PathCollection_64">
    <g>
     <use style="fill:#dadcde;stroke:#c7cbce;" x="200.479679" xlink:href="#mbff236e3ab" y="118.249737"/>
    </g>
   </g>
   <g id="PathCollection_65">
    <g>
     <use style="fill:#dadcde;stroke:#c7cbce;" x="200.479679" xlink:href="#mbff236e3ab" y="105.461349"/>
    </g>
   </g>
   <g id="PathCollection_66">
    <g>
     <use style="fill:#dadcde;stroke:#c7cbce;" x="213.268067" xlink:href="#mbff236e3ab" y="156.614901"/>
    </g>
   </g>
   <g id="PathCollection_67">
    <g>
     <use style="fill:#dadcde;stroke:#c7cbce;" x="213.268067" xlink:href="#mbff236e3ab" y="143.826513"/>
    </g>
   </g>
   <g id="PathCollection_68">
    <g>
     <use style="fill:#dadcde;stroke:#c7cbce;" x="213.268067" xlink:href="#mbff236e3ab" y="131.038125"/>
    </g>
   </g>
   <g id="PathCollection_69">
    <g>
     <use style="fill:#dadcde;stroke:#c7cbce;" x="213.268067" xlink:href="#mbff236e3ab" y="118.249737"/>
    </g>
   </g>
   <g id="PathCollection_70">
    <g>
     <use style="fill:#dadcde;stroke:#c7cbce;" x="213.268067" xlink:href="#mbff236e3ab" y="105.461349"/>
    </g>
   </g>
   <g id="PathCollection_71">
    <g>
     <use style="fill:#dadcde;stroke:#c7cbce;" x="226.056455" xlink:href="#mbff236e3ab" y="156.614901"/>
    </g>
   </g>
   <g id="PathCollection_72">
    <g>
     <use style="fill:#dadcde;stroke:#c7cbce;" x="226.056455" xlink:href="#mbff236e3ab" y="143.826513"/>
    </g>
   </g>
   <g id="PathCollection_73">
    <g>
     <use style="fill:#dadcde;stroke:#c7cbce;" x="226.056455" xlink:href="#mbff236e3ab" y="131.038125"/>
    </g>
   </g>
   <g id="PathCollection_74">
    <g>
     <use style="fill:#dadcde;stroke:#c7cbce;" x="226.056455" xlink:href="#mbff236e3ab" y="118.249737"/>
    </g>
   </g>
   <g id="PathCollection_75">
    <g>
     <use style="fill:#dadcde;stroke:#c7cbce;" x="226.056455" xlink:href="#mbff236e3ab" y="105.461349"/>
    </g>
   </g>
   <g id="PathCollection_76">
    <g>
     <use style="fill:#dadcde;stroke:#c7cbce;" x="238.844843" xlink:href="#mbff236e3ab" y="156.614901"/>
    </g>
   </g>
   <g id="PathCollection_77">
    <g>
     <use style="fill:#dadcde;stroke:#c7cbce;" x="238.844843" xlink:href="#mbff236e3ab" y="143.826513"/>
    </g>
   </g>
   <g id="PathCollection_78">
    <g>
     <use style="fill:#dadcde;stroke:#c7cbce;" x="238.844843" xlink:href="#mbff236e3ab" y="131.038125"/>
    </g>
   </g>
   <g id="PathCollection_79">
    <g>
     <use style="fill:#dadcde;stroke:#c7cbce;" x="238.844843" xlink:href="#mbff236e3ab" y="118.249737"/>
    </g>
   </g>
   <g id="PathCollection_80">
    <g>
     <use style="fill:#dadcde;stroke:#c7cbce;" x="238.844843" xlink:href="#mbff236e3ab" y="105.461349"/>
    </g>
   </g>
   <g id="PathCollection_81">
    <g>
     <use style="fill:#dadcde;stroke:#c7cbce;" x="251.633231" xlink:href="#mbff236e3ab" y="156.614901"/>
    </g>
   </g>
   <g id="PathCollection_82">
    <g>
     <use style="fill:#dadcde;stroke:#c7cbce;" x="251.633231" xlink:href="#mbff236e3ab" y="143.826513"/>
    </g>
   </g>
   <g id="PathCollection_83">
    <g>
     <use style="fill:#dadcde;stroke:#c7cbce;" x="251.633231" xlink:href="#mbff236e3ab" y="131.038125"/>
    </g>
   </g>
   <g id="PathCollection_84">
    <g>
     <use style="fill:#dadcde;stroke:#c7cbce;" x="251.633231" xlink:href="#mbff236e3ab" y="118.249737"/>
    </g>
   </g>
   <g id="PathCollection_85">
    <g>
     <use style="fill:#dadcde;stroke:#c7cbce;" x="251.633231" xlink:href="#mbff236e3ab" y="105.461349"/>
    </g>
   </g>
   <g id="PathCollection_86">
    <g>
     <use style="fill:#dadcde;stroke:#c7cbce;" x="264.42162" xlink:href="#mbff236e3ab" y="156.614901"/>
    </g>
   </g>
   <g id="PathCollection_87">
    <g>
     <use style="fill:#dadcde;stroke:#c7cbce;" x="264.42162" xlink:href="#mbff236e3ab" y="143.826513"/>
    </g>
   </g>
   <g id="PathCollection_88">
    <g>
     <use style="fill:#dadcde;stroke:#c7cbce;" x="264.42162" xlink:href="#mbff236e3ab" y="131.038125"/>
    </g>
   </g>
   <g id="PathCollection_89">
    <g>
     <use style="fill:#dadcde;stroke:#c7cbce;" x="264.42162" xlink:href="#mbff236e3ab" y="118.249737"/>
    </g>
   </g>
   <g id="PathCollection_90">
    <g>
     <use style="fill:#dadcde;stroke:#c7cbce;" x="264.42162" xlink:href="#mbff236e3ab" y="105.461349"/>
    </g>
   </g>
   <g id="PathCollection_91">
    <g>
     <use style="fill:#dadcde;stroke:#c7cbce;" x="277.210008" xlink:href="#mbff236e3ab" y="156.614901"/>
    </g>
   </g>
   <g id="PathCollection_92">
    <g>
     <use style="fill:#dadcde;stroke:#c7cbce;" x="277.210008" xlink:href="#mbff236e3ab" y="143.826513"/>
    </g>
   </g>
   <g id="PathCollection_93">
    <g>
     <use style="fill:#dadcde;stroke:#c7cbce;" x="277.210008" xlink:href="#mbff236e3ab" y="131.038125"/>
    </g>
   </g>
   <g id="PathCollection_94">
    <g>
     <use style="fill:#dadcde;stroke:#c7cbce;" x="277.210008" xlink:href="#mbff236e3ab" y="118.249737"/>
    </g>
   </g>
   <g id="PathCollection_95">
    <g>
     <use style="fill:#dadcde;stroke:#c7cbce;" x="277.210008" xlink:href="#mbff236e3ab" y="105.461349"/>
    </g>
   </g>
   <g id="PathCollection_96">
    <g>
     <use style="fill:#dadcde;stroke:#c7cbce;" x="289.998396" xlink:href="#mbff236e3ab" y="156.614901"/>
    </g>
   </g>
   <g id="PathCollection_97">
    <g>
     <use style="fill:#dadcde;stroke:#c7cbce;" x="289.998396" xlink:href="#mbff236e3ab" y="143.826513"/>
    </g>
   </g>
   <g id="PathCollection_98">
    <g>
     <use style="fill:#dadcde;stroke:#c7cbce;" x="289.998396" xlink:href="#mbff236e3ab" y="131.038125"/>
    </g>
   </g>
   <g id="PathCollection_99">
    <g>
     <use style="fill:#dadcde;stroke:#c7cbce;" x="289.998396" xlink:href="#mbff236e3ab" y="118.249737"/>
    </g>
   </g>
   <g id="PathCollection_100">
    <g>
     <use style="fill:#dadcde;stroke:#c7cbce;" x="289.998396" xlink:href="#mbff236e3ab" y="105.461349"/>
    </g>
   </g>
   <g id="PathCollection_101">
    <g>
     <use style="fill:#dadcde;stroke:#c7cbce;" x="302.786784" xlink:href="#mbff236e3ab" y="156.614901"/>
    </g>
   </g>
   <g id="PathCollection_102">
    <g>
     <use style="fill:#dadcde;stroke:#c7cbce;" x="302.786784" xlink:href="#mbff236e3ab" y="143.826513"/>
    </g>
   </g>
   <g id="PathCollection_103">
    <g>
     <use style="fill:#dadcde;stroke:#c7cbce;" x="302.786784" xlink:href="#mbff236e3ab" y="131.038125"/>
    </g>
   </g>
   <g id="PathCollection_104">
    <g>
     <use style="fill:#dadcde;stroke:#c7cbce;" x="302.786784" xlink:href="#mbff236e3ab" y="118.249737"/>
    </g>
   </g>
   <g id="PathCollection_105">
    <g>
     <use style="fill:#dadcde;stroke:#c7cbce;" x="302.786784" xlink:href="#mbff236e3ab" y="105.461349"/>
    </g>
   </g>
   <g id="PathCollection_106">
    <g>
     <use style="fill:#dadcde;stroke:#c7cbce;" x="315.575172" xlink:href="#mbff236e3ab" y="156.614901"/>
    </g>
   </g>
   <g id="PathCollection_107">
    <g>
     <use style="fill:#dadcde;stroke:#c7cbce;" x="315.575172" xlink:href="#mbff236e3ab" y="143.826513"/>
    </g>
   </g>
   <g id="PathCollection_108">
    <g>
     <use style="fill:#dadcde;stroke:#c7cbce;" x="315.575172" xlink:href="#mbff236e3ab" y="131.038125"/>
    </g>
   </g>
   <g id="PathCollection_109">
    <g>
     <use style="fill:#dadcde;stroke:#c7cbce;" x="315.575172" xlink:href="#mbff236e3ab" y="118.249737"/>
    </g>
   </g>
   <g id="PathCollection_110">
    <g>
     <use style="fill:#dadcde;stroke:#c7cbce;" x="315.575172" xlink:href="#mbff236e3ab" y="105.461349"/>
    </g>
   </g>
   <g id="line2d_1">
    <path clip-path="url(#p1f6ae620d6)" d="M 25.918182 159.811998 
L 36.148892 160.451418 
L 45.100764 156.614901 
L 61.725668 143.826513 
L 70.67754 143.826513 
L 87.302445 131.038125 
L 96.254316 131.038125 
L 112.879221 118.249737 
L 121.831092 118.249737 
L 138.455997 105.461349 
L 147.407869 105.461349 
L 160.196257 92.672961 
L 176.821161 105.461349 
L 185.773033 105.461349 
L 202.397937 118.249737 
L 211.349809 118.249737 
L 227.974714 131.038125 
L 236.926585 131.038125 
L 253.55149 143.826513 
L 262.503361 143.826513 
L 279.128266 156.614901 
L 288.080138 156.614901 
L 300.868526 169.403289 
L 317.49343 156.614901 
L 326.445302 153.417804 
" style="fill:none;stroke:#a665be;stroke-linecap:square;stroke-width:1.5;"/>
   </g>
   <g id="line2d_2">
    <path clip-path="url(#p1f6ae620d6)" d="M 32.312376 152.778385 
L 48.93728 156.614901 
L 57.889152 156.614901 
L 70.67754 169.403289 
L 87.302445 156.614901 
L 96.254316 156.614901 
L 112.879221 143.826513 
L 121.831092 143.826513 
L 138.455997 131.038125 
L 147.407869 131.038125 
L 164.032773 118.249737 
L 172.984645 118.249737 
L 189.609549 105.461349 
L 198.561421 105.461349 
L 211.349809 92.672961 
L 227.974714 105.461349 
L 236.926585 105.461349 
L 253.55149 118.249737 
L 262.503361 118.249737 
L 279.128266 131.038125 
L 288.080138 131.038125 
L 304.705042 143.826513 
L 313.656914 143.826513 
L 330.281818 147.02361 
" style="fill:none;stroke:#6492db;stroke-linecap:square;stroke-width:1.5;"/>
   </g>
   <g id="line2d_3">
    <path clip-path="url(#p1f6ae620d6)" d="M 25.918182 147.02361 
L 36.148892 147.66303 
L 45.100764 143.826513 
L 61.725668 131.038125 
L 70.67754 131.038125 
L 87.302445 118.249737 
L 96.254316 118.249737 
L 112.879221 105.461349 
L 121.831092 105.461349 
L 134.619481 92.672961 
L 151.244385 105.461349 
L 160.196257 105.461349 
L 176.821161 118.249737 
L 185.773033 118.249737 
L 202.397937 131.038125 
L 211.349809 131.038125 
L 227.974714 143.826513 
L 236.926585 143.826513 
L 253.55149 156.614901 
L 262.503361 156.614901 
L 275.291749 169.403289 
L 291.916654 156.614901 
L 300.868526 156.614901 
L 317.49343 143.826513 
L 326.445302 140.629416 
" style="fill:none;stroke:#c36e9e;stroke-linecap:square;stroke-width:1.5;"/>
   </g>
   <g id="line2d_4">
    <path clip-path="url(#p1f6ae620d6)" d="M 32.312376 139.989997 
L 48.93728 143.826513 
L 57.889152 143.826513 
L 74.514057 156.614901 
L 83.465928 156.614901 
L 96.254316 169.403289 
L 112.879221 156.614901 
L 121.831092 156.614901 
L 138.455997 143.826513 
L 147.407869 143.826513 
L 164.032773 131.038125 
L 172.984645 131.038125 
L 189.609549 118.249737 
L 198.561421 118.249737 
L 215.186325 105.461349 
L 224.138197 105.461349 
L 236.926585 92.672961 
L 253.55149 105.461349 
L 262.503361 105.461349 
L 279.128266 118.249737 
L 288.080138 118.249737 
L 304.705042 131.038125 
L 313.656914 131.038125 
L 330.281818 134.235222 
" style="fill:none;stroke:#34abd6;stroke-linecap:square;stroke-width:1.5;"/>
   </g>
   <g id="line2d_5">
    <path clip-path="url(#p1f6ae620d6)" d="M 25.918182 134.235222 
L 36.148892 134.874641 
L 45.100764 131.038125 
L 61.725668 118.249737 
L 70.67754 118.249737 
L 87.302445 105.461349 
L 96.254316 105.461349 
L 109.042704 92.672961 
L 125.667609 105.461349 
L 134.619481 105.461349 
L 151.244385 118.249737 
L 160.196257 118.249737 
L 176.821161 131.038125 
L 185.773033 131.038125 
L 202.397937 143.826513 
L 211.349809 143.826513 
L 227.974714 156.614901 
L 236.926585 156.614901 
L 249.714973 169.403289 
L 266.339878 156.614901 
L 275.291749 156.614901 
L 291.916654 143.826513 
L 300.868526 143.826513 
L 317.49343 131.038125 
L 326.445302 127.841028 
" style="fill:none;stroke:#e57863;stroke-linecap:square;stroke-width:1.5;"/>
   </g>
   <g id="line2d_6">
    <path clip-path="url(#p1f6ae620d6)" d="M 32.312376 127.201609 
L 48.93728 131.038125 
L 57.889152 131.038125 
L 74.514057 143.826513 
L 83.465928 143.826513 
L 100.090833 156.614901 
L 109.042704 156.614901 
L 121.831092 169.403289 
L 138.455997 156.614901 
L 147.407869 156.614901 
L 164.032773 143.826513 
L 172.984645 143.826513 
L 189.609549 131.038125 
L 198.561421 131.038125 
L 215.186325 118.249737 
L 224.138197 118.249737 
L 240.763102 105.461349 
L 249.714973 105.461349 
L 262.503361 92.672961 
L 279.128266 105.461349 
L 288.080138 105.461349 
L 304.705042 118.249737 
L 313.656914 118.249737 
L 330.281818 121.446834 
" style="fill:none;stroke:#07b9c3;stroke-linecap:square;stroke-width:1.5;"/>
   </g>
   <g id="line2d_7">
    <path clip-path="url(#p1f6ae620d6)" d="M 25.918182 121.446834 
L 36.148892 122.086253 
L 45.100764 118.249737 
L 61.725668 105.461349 
L 70.67754 105.461349 
L 83.465928 92.672961 
L 100.090833 105.461349 
L 109.042704 105.461349 
L 125.667609 118.249737 
L 134.619481 118.249737 
L 151.244385 131.038125 
L 160.196257 131.038125 
L 176.821161 143.826513 
L 185.773033 143.826513 
L 202.397937 156.614901 
L 211.349809 156.614901 
L 224.138197 169.403289 
L 240.763102 156.614901 
L 249.714973 156.614901 
L 266.339878 143.826513 
L 275.291749 143.826513 
L 291.916654 131.038125 
L 300.868526 131.038125 
L 317.49343 118.249737 
L 326.445302 115.05264 
" style="fill:none;stroke:#ed9128;stroke-linecap:square;stroke-width:1.5;"/>
   </g>
   <g id="line2d_8">
    <path clip-path="url(#p1f6ae620d6)" d="M 32.312376 114.41322 
L 48.93728 118.249737 
L 57.889152 118.249737 
L 74.514057 131.038125 
L 83.465928 131.038125 
L 100.090833 143.826513 
L 109.042704 143.826513 
L 125.667609 156.614901 
L 134.619481 156.614901 
L 147.407869 169.403289 
L 164.032773 156.614901 
L 172.984645 156.614901 
L 189.609549 143.826513 
L 198.561421 143.826513 
L 215.186325 131.038125 
L 224.138197 131.038125 
L 240.763102 118.249737 
L 249.714973 118.249737 
L 266.339878 105.461349 
L 275.291749 105.461349 
L 288.080138 92.672961 
L 304.705042 105.461349 
L 313.656914 105.461349 
L 330.281818 108.658446 
" style="fill:none;stroke:#52b283;stroke-linecap:square;stroke-width:1.5;"/>
   </g>
   <g id="line2d_9">
    <path clip-path="url(#p1f6ae620d6)" d="M 25.918182 108.658446 
L 36.148892 109.297865 
L 45.100764 105.461349 
L 57.889152 92.672961 
L 74.514057 105.461349 
L 83.465928 105.461349 
L 100.090833 118.249737 
L 109.042704 118.249737 
L 125.667609 131.038125 
L 134.619481 131.038125 
L 151.244385 143.826513 
L 160.196257 143.826513 
L 176.821161 156.614901 
L 185.773033 156.614901 
L 198.561421 169.403289 
L 215.186325 156.614901 
L 224.138197 156.614901 
L 240.763102 143.826513 
L 249.714973 143.826513 
L 266.339878 131.038125 
L 275.291749 131.038125 
L 291.916654 118.249737 
L 300.868526 118.249737 
L 317.49343 105.461349 
L 326.445302 102.264252 
" style="fill:none;stroke:#d8a512;stroke-linecap:square;stroke-width:1.5;"/>
   </g>
   <g id="line2d_10">
    <path clip-path="url(#p1f6ae620d6)" d="M 32.312376 101.624832 
L 48.93728 105.461349 
L 57.889152 105.461349 
L 74.514057 118.249737 
L 83.465928 118.249737 
L 100.090833 131.038125 
L 109.042704 131.038125 
L 125.667609 143.826513 
L 134.619481 143.826513 
L 151.244385 156.614901 
L 160.196257 156.614901 
L 172.984645 169.403289 
L 189.609549 156.614901 
L 198.561421 156.614901 
L 215.186325 143.826513 
L 224.138197 143.826513 
L 240.763102 131.038125 
L 249.714973 131.038125 
L 266.339878 118.249737 
L 275.291749 118.249737 
L 291.916654 105.461349 
L 300.868526 105.461349 
L 313.656914 92.672961 
L 330.281818 95.870058 
" style="fill:none;stroke:#a1aa41;stroke-linecap:square;stroke-width:1.5;"/>
   </g>
   <g id="line2d_11">
    <path clip-path="url(#p1f6ae620d6)" d="M 32.312376 166.206192 
L 53.413216 166.206192 
L 61.725668 156.614901 
L 70.67754 156.614901 
L 87.302445 143.826513 
L 96.254316 143.826513 
L 112.879221 131.038125 
L 121.831092 131.038125 
L 138.455997 118.249737 
L 147.407869 118.249737 
L 164.032773 105.461349 
L 172.984645 105.461349 
L 185.773033 92.672961 
L 202.397937 105.461349 
L 211.349809 105.461349 
L 227.974714 118.249737 
L 236.926585 118.249737 
L 253.55149 131.038125 
L 262.503361 131.038125 
L 279.128266 143.826513 
L 288.080138 143.826513 
L 304.705042 156.614901 
L 313.656914 156.614901 
L 326.445302 166.206192 
" style="fill:none;stroke:#8d5ccd;stroke-linecap:square;stroke-width:1.5;"/>
   </g>
   <g id="matplotlib.axis_1"/>
   <g id="matplotlib.axis_2"/>
   <g id="text_1">
    <!-- 1 -->
    <defs>
     <path d="M 12.40625 8.296875 
L 28.515625 8.296875 
L 28.515625 63.921875 
L 10.984375 60.40625 
L 10.984375 69.390625 
L 28.421875 72.90625 
L 38.28125 72.90625 
L 38.28125 8.296875 
L 54.390625 8.296875 
L 54.390625 0 
L 12.40625 0 
z
" id="DejaVuSans-49"/>
    </defs>
    <g transform="translate(26.579787 168.137755)scale(0.07 -0.07)">
     <use xlink:href="#DejaVuSans-49"/>
    </g>
   </g>
   <g id="text_2">
    <!-- 2 -->
    <defs>
     <path d="M 19.1875 8.296875 
L 53.609375 8.296875 
L 53.609375 0 
L 7.328125 0 
L 7.328125 8.296875 
Q 12.9375 14.109375 22.625 23.890625 
Q 32.328125 33.6875 34.8125 36.53125 
Q 39.546875 41.84375 41.421875 45.53125 
Q 43.3125 49.21875 43.3125 52.78125 
Q 43.3125 58.59375 39.234375 62.25 
Q 35.15625 65.921875 28.609375 65.921875 
Q 23.96875 65.921875 18.8125 64.3125 
Q 13.671875 62.703125 7.8125 59.421875 
L 7.8125 69.390625 
Q 13.765625 71.78125 18.9375 73 
Q 24.125 74.21875 28.421875 74.21875 
Q 39.75 74.21875 46.484375 68.546875 
Q 53.21875 62.890625 53.21875 53.421875 
Q 53.21875 48.921875 51.53125 44.890625 
Q 49.859375 40.875 45.40625 35.40625 
Q 44.1875 33.984375 37.640625 27.21875 
Q 31.109375 20.453125 19.1875 8.296875 
z
" id="DejaVuSans-50"/>
    </defs>
    <g transform="translate(26.579787 155.349367)scale(0.07 -0.07)">
     <use xlink:href="#DejaVuSans-50"/>
    </g>
   </g>
   <g id="text_3">
    <!-- 3 -->
    <defs>
     <path d="M 40.578125 39.3125 
Q 47.65625 37.796875 51.625 33 
Q 55.609375 28.21875 55.609375 21.1875 
Q 55.609375 10.40625 48.1875 4.484375 
Q 40.765625 -1.421875 27.09375 -1.421875 
Q 22.515625 -1.421875 17.65625 -0.515625 
Q 12.796875 0.390625 7.625 2.203125 
L 7.625 11.71875 
Q 11.71875 9.328125 16.59375 8.109375 
Q 21.484375 6.890625 26.8125 6.890625 
Q 36.078125 6.890625 40.9375 10.546875 
Q 45.796875 14.203125 45.796875 21.1875 
Q 45.796875 27.640625 41.28125 31.265625 
Q 36.765625 34.90625 28.71875 34.90625 
L 20.21875 34.90625 
L 20.21875 43.015625 
L 29.109375 43.015625 
Q 36.375 43.015625 40.234375 45.921875 
Q 44.09375 48.828125 44.09375 54.296875 
Q 44.09375 59.90625 40.109375 62.90625 
Q 36.140625 65.921875 28.71875 65.921875 
Q 24.65625 65.921875 20.015625 65.03125 
Q 15.375 64.15625 9.8125 62.3125 
L 9.8125 71.09375 
Q 15.4375 72.65625 20.34375 73.4375 
Q 25.25 74.21875 29.59375 74.21875 
Q 40.828125 74.21875 47.359375 69.109375 
Q 53.90625 64.015625 53.90625 55.328125 
Q 53.90625 49.265625 50.4375 45.09375 
Q 46.96875 40.921875 40.578125 39.3125 
z
" id="DejaVuSans-51"/>
    </defs>
    <g transform="translate(26.579787 142.560979)scale(0.07 -0.07)">
     <use xlink:href="#DejaVuSans-51"/>
    </g>
   </g>
   <g id="text_4">
    <!-- 4 -->
    <defs>
     <path d="M 37.796875 64.3125 
L 12.890625 25.390625 
L 37.796875 25.390625 
z
M 35.203125 72.90625 
L 47.609375 72.90625 
L 47.609375 25.390625 
L 58.015625 25.390625 
L 58.015625 17.1875 
L 47.609375 17.1875 
L 47.609375 0 
L 37.796875 0 
L 37.796875 17.1875 
L 4.890625 17.1875 
L 4.890625 26.703125 
z
" id="DejaVuSans-52"/>
    </defs>
    <g transform="translate(26.579787 129.77259)scale(0.07 -0.07)">
     <use xlink:href="#DejaVuSans-52"/>
    </g>
   </g>
   <g id="text_5">
    <!-- 5 -->
    <defs>
     <path d="M 10.796875 72.90625 
L 49.515625 72.90625 
L 49.515625 64.59375 
L 19.828125 64.59375 
L 19.828125 46.734375 
Q 21.96875 47.46875 24.109375 47.828125 
Q 26.265625 48.1875 28.421875 48.1875 
Q 40.625 48.1875 47.75 41.5 
Q 54.890625 34.8125 54.890625 23.390625 
Q 54.890625 11.625 47.5625 5.09375 
Q 40.234375 -1.421875 26.90625 -1.421875 
Q 22.3125 -1.421875 17.546875 -0.640625 
Q 12.796875 0.140625 7.71875 1.703125 
L 7.71875 11.625 
Q 12.109375 9.234375 16.796875 8.0625 
Q 21.484375 6.890625 26.703125 6.890625 
Q 35.15625 6.890625 40.078125 11.328125 
Q 45.015625 15.765625 45.015625 23.390625 
Q 45.015625 31 40.078125 35.4375 
Q 35.15625 39.890625 26.703125 39.890625 
Q 22.75 39.890625 18.8125 39.015625 
Q 14.890625 38.140625 10.796875 36.28125 
z
" id="DejaVuSans-53"/>
    </defs>
    <g transform="translate(26.579787 116.984202)scale(0.07 -0.07)">
     <use xlink:href="#DejaVuSans-53"/>
    </g>
   </g>
   <g id="text_6">
    <!-- 6 -->
    <defs>
     <path d="M 33.015625 40.375 
Q 26.375 40.375 22.484375 35.828125 
Q 18.609375 31.296875 18.609375 23.390625 
Q 18.609375 15.53125 22.484375 10.953125 
Q 26.375 6.390625 33.015625 6.390625 
Q 39.65625 6.390625 43.53125 10.953125 
Q 47.40625 15.53125 47.40625 23.390625 
Q 47.40625 31.296875 43.53125 35.828125 
Q 39.65625 40.375 33.015625 40.375 
z
M 52.59375 71.296875 
L 52.59375 62.3125 
Q 48.875 64.0625 45.09375 64.984375 
Q 41.3125 65.921875 37.59375 65.921875 
Q 27.828125 65.921875 22.671875 59.328125 
Q 17.53125 52.734375 16.796875 39.40625 
Q 19.671875 43.65625 24.015625 45.921875 
Q 28.375 48.1875 33.59375 48.1875 
Q 44.578125 48.1875 50.953125 41.515625 
Q 57.328125 34.859375 57.328125 23.390625 
Q 57.328125 12.15625 50.6875 5.359375 
Q 44.046875 -1.421875 33.015625 -1.421875 
Q 20.359375 -1.421875 13.671875 8.265625 
Q 6.984375 17.96875 6.984375 36.375 
Q 6.984375 53.65625 15.1875 63.9375 
Q 23.390625 74.21875 37.203125 74.21875 
Q 40.921875 74.21875 44.703125 73.484375 
Q 48.484375 72.75 52.59375 71.296875 
z
" id="DejaVuSans-54"/>
    </defs>
    <g transform="translate(26.579787 104.195814)scale(0.07 -0.07)">
     <use xlink:href="#DejaVuSans-54"/>
    </g>
   </g>
   <g id="text_7">
    <!-- 11 -->
    <g transform="translate(15.731843 161.743561)scale(0.07 -0.07)">
     <use xlink:href="#DejaVuSans-49"/>
     <use x="63.623047" xlink:href="#DejaVuSans-49"/>
    </g>
   </g>
   <g id="text_8">
    <!-- 10 -->
    <defs>
     <path d="M 31.78125 66.40625 
Q 24.171875 66.40625 20.328125 58.90625 
Q 16.5 51.421875 16.5 36.375 
Q 16.5 21.390625 20.328125 13.890625 
Q 24.171875 6.390625 31.78125 6.390625 
Q 39.453125 6.390625 43.28125 13.890625 
Q 47.125 21.390625 47.125 36.375 
Q 47.125 51.421875 43.28125 58.90625 
Q 39.453125 66.40625 31.78125 66.40625 
z
M 31.78125 74.21875 
Q 44.046875 74.21875 50.515625 64.515625 
Q 56.984375 54.828125 56.984375 36.375 
Q 56.984375 17.96875 50.515625 8.265625 
Q 44.046875 -1.421875 31.78125 -1.421875 
Q 19.53125 -1.421875 13.0625 8.265625 
Q 6.59375 17.96875 6.59375 36.375 
Q 6.59375 54.828125 13.0625 64.515625 
Q 19.53125 74.21875 31.78125 74.21875 
z
" id="DejaVuSans-48"/>
    </defs>
    <g transform="translate(15.731843 148.955173)scale(0.07 -0.07)">
     <use xlink:href="#DejaVuSans-49"/>
     <use x="63.623047" xlink:href="#DejaVuSans-48"/>
    </g>
   </g>
   <g id="text_9">
    <!-- 9 -->
    <defs>
     <path d="M 10.984375 1.515625 
L 10.984375 10.5 
Q 14.703125 8.734375 18.5 7.8125 
Q 22.3125 6.890625 25.984375 6.890625 
Q 35.75 6.890625 40.890625 13.453125 
Q 46.046875 20.015625 46.78125 33.40625 
Q 43.953125 29.203125 39.59375 26.953125 
Q 35.25 24.703125 29.984375 24.703125 
Q 19.046875 24.703125 12.671875 31.3125 
Q 6.296875 37.9375 6.296875 49.421875 
Q 6.296875 60.640625 12.9375 67.421875 
Q 19.578125 74.21875 30.609375 74.21875 
Q 43.265625 74.21875 49.921875 64.515625 
Q 56.59375 54.828125 56.59375 36.375 
Q 56.59375 19.140625 48.40625 8.859375 
Q 40.234375 -1.421875 26.421875 -1.421875 
Q 22.703125 -1.421875 18.890625 -0.6875 
Q 15.09375 0.046875 10.984375 1.515625 
z
M 30.609375 32.421875 
Q 37.25 32.421875 41.125 36.953125 
Q 45.015625 41.5 45.015625 49.421875 
Q 45.015625 57.28125 41.125 61.84375 
Q 37.25 66.40625 30.609375 66.40625 
Q 23.96875 66.40625 20.09375 61.84375 
Q 16.21875 57.28125 16.21875 49.421875 
Q 16.21875 41.5 20.09375 36.953125 
Q 23.96875 32.421875 30.609375 32.421875 
z
" id="DejaVuSans-57"/>
    </defs>
    <g transform="translate(20.185593 136.166785)scale(0.07 -0.07)">
     <use xlink:href="#DejaVuSans-57"/>
    </g>
   </g>
   <g id="text_10">
    <!-- 8 -->
    <defs>
     <path d="M 31.78125 34.625 
Q 24.75 34.625 20.71875 30.859375 
Q 16.703125 27.09375 16.703125 20.515625 
Q 16.703125 13.921875 20.71875 10.15625 
Q 24.75 6.390625 31.78125 6.390625 
Q 38.8125 6.390625 42.859375 10.171875 
Q 46.921875 13.96875 46.921875 20.515625 
Q 46.921875 27.09375 42.890625 30.859375 
Q 38.875 34.625 31.78125 34.625 
z
M 21.921875 38.8125 
Q 15.578125 40.375 12.03125 44.71875 
Q 8.5 49.078125 8.5 55.328125 
Q 8.5 64.0625 14.71875 69.140625 
Q 20.953125 74.21875 31.78125 74.21875 
Q 42.671875 74.21875 48.875 69.140625 
Q 55.078125 64.0625 55.078125 55.328125 
Q 55.078125 49.078125 51.53125 44.71875 
Q 48 40.375 41.703125 38.8125 
Q 48.828125 37.15625 52.796875 32.3125 
Q 56.78125 27.484375 56.78125 20.515625 
Q 56.78125 9.90625 50.3125 4.234375 
Q 43.84375 -1.421875 31.78125 -1.421875 
Q 19.734375 -1.421875 13.25 4.234375 
Q 6.78125 9.90625 6.78125 20.515625 
Q 6.78125 27.484375 10.78125 32.3125 
Q 14.796875 37.15625 21.921875 38.8125 
z
M 18.3125 54.390625 
Q 18.3125 48.734375 21.84375 45.5625 
Q 25.390625 42.390625 31.78125 42.390625 
Q 38.140625 42.390625 41.71875 45.5625 
Q 45.3125 48.734375 45.3125 54.390625 
Q 45.3125 60.0625 41.71875 63.234375 
Q 38.140625 66.40625 31.78125 66.40625 
Q 25.390625 66.40625 21.84375 63.234375 
Q 18.3125 60.0625 18.3125 54.390625 
z
" id="DejaVuSans-56"/>
    </defs>
    <g transform="translate(20.185593 123.378396)scale(0.07 -0.07)">
     <use xlink:href="#DejaVuSans-56"/>
    </g>
   </g>
   <g id="text_11">
    <!-- 7 -->
    <defs>
     <path d="M 8.203125 72.90625 
L 55.078125 72.90625 
L 55.078125 68.703125 
L 28.609375 0 
L 18.3125 0 
L 43.21875 64.59375 
L 8.203125 64.59375 
z
" id="DejaVuSans-55"/>
    </defs>
    <g transform="translate(20.185593 110.590008)scale(0.07 -0.07)">
     <use xlink:href="#DejaVuSans-55"/>
    </g>
   </g>
   <g id="text_12">
    <!-- Square Layout (Marquee), N=11 -->
    <defs>
     <path d="M 53.515625 70.515625 
L 53.515625 60.890625 
Q 47.90625 63.578125 42.921875 64.890625 
Q 37.9375 66.21875 33.296875 66.21875 
Q 25.25 66.21875 20.875 63.09375 
Q 16.5 59.96875 16.5 54.203125 
Q 16.5 49.359375 19.40625 46.890625 
Q 22.3125 44.4375 30.421875 42.921875 
L 36.375 41.703125 
Q 47.40625 39.59375 52.65625 34.296875 
Q 57.90625 29 57.90625 20.125 
Q 57.90625 9.515625 50.796875 4.046875 
Q 43.703125 -1.421875 29.984375 -1.421875 
Q 24.8125 -1.421875 18.96875 -0.25 
Q 13.140625 0.921875 6.890625 3.21875 
L 6.890625 13.375 
Q 12.890625 10.015625 18.65625 8.296875 
Q 24.421875 6.59375 29.984375 6.59375 
Q 38.421875 6.59375 43.015625 9.90625 
Q 47.609375 13.234375 47.609375 19.390625 
Q 47.609375 24.75 44.3125 27.78125 
Q 41.015625 30.8125 33.5 32.328125 
L 27.484375 33.5 
Q 16.453125 35.6875 11.515625 40.375 
Q 6.59375 45.0625 6.59375 53.421875 
Q 6.59375 63.09375 13.40625 68.65625 
Q 20.21875 74.21875 32.171875 74.21875 
Q 37.3125 74.21875 42.625 73.28125 
Q 47.953125 72.359375 53.515625 70.515625 
z
" id="DejaVuSans-83"/>
     <path d="M 14.796875 27.296875 
Q 14.796875 17.390625 18.875 11.75 
Q 22.953125 6.109375 30.078125 6.109375 
Q 37.203125 6.109375 41.296875 11.75 
Q 45.40625 17.390625 45.40625 27.296875 
Q 45.40625 37.203125 41.296875 42.84375 
Q 37.203125 48.484375 30.078125 48.484375 
Q 22.953125 48.484375 18.875 42.84375 
Q 14.796875 37.203125 14.796875 27.296875 
z
M 45.40625 8.203125 
Q 42.578125 3.328125 38.25 0.953125 
Q 33.9375 -1.421875 27.875 -1.421875 
Q 17.96875 -1.421875 11.734375 6.484375 
Q 5.515625 14.40625 5.515625 27.296875 
Q 5.515625 40.1875 11.734375 48.09375 
Q 17.96875 56 27.875 56 
Q 33.9375 56 38.25 53.625 
Q 42.578125 51.265625 45.40625 46.390625 
L 45.40625 54.6875 
L 54.390625 54.6875 
L 54.390625 -20.796875 
L 45.40625 -20.796875 
z
" id="DejaVuSans-113"/>
     <path d="M 8.5 21.578125 
L 8.5 54.6875 
L 17.484375 54.6875 
L 17.484375 21.921875 
Q 17.484375 14.15625 20.5 10.265625 
Q 23.53125 6.390625 29.59375 6.390625 
Q 36.859375 6.390625 41.078125 11.03125 
Q 45.3125 15.671875 45.3125 23.6875 
L 45.3125 54.6875 
L 54.296875 54.6875 
L 54.296875 0 
L 45.3125 0 
L 45.3125 8.40625 
Q 42.046875 3.421875 37.71875 1 
Q 33.40625 -1.421875 27.6875 -1.421875 
Q 18.265625 -1.421875 13.375 4.4375 
Q 8.5 10.296875 8.5 21.578125 
z
M 31.109375 56 
z
" id="DejaVuSans-117"/>
     <path d="M 34.28125 27.484375 
Q 23.390625 27.484375 19.1875 25 
Q 14.984375 22.515625 14.984375 16.5 
Q 14.984375 11.71875 18.140625 8.90625 
Q 21.296875 6.109375 26.703125 6.109375 
Q 34.1875 6.109375 38.703125 11.40625 
Q 43.21875 16.703125 43.21875 25.484375 
L 43.21875 27.484375 
z
M 52.203125 31.203125 
L 52.203125 0 
L 43.21875 0 
L 43.21875 8.296875 
Q 40.140625 3.328125 35.546875 0.953125 
Q 30.953125 -1.421875 24.3125 -1.421875 
Q 15.921875 -1.421875 10.953125 3.296875 
Q 6 8.015625 6 15.921875 
Q 6 25.140625 12.171875 29.828125 
Q 18.359375 34.515625 30.609375 34.515625 
L 43.21875 34.515625 
L 43.21875 35.40625 
Q 43.21875 41.609375 39.140625 45 
Q 35.0625 48.390625 27.6875 48.390625 
Q 23 48.390625 18.546875 47.265625 
Q 14.109375 46.140625 10.015625 43.890625 
L 10.015625 52.203125 
Q 14.9375 54.109375 19.578125 55.046875 
Q 24.21875 56 28.609375 56 
Q 40.484375 56 46.34375 49.84375 
Q 52.203125 43.703125 52.203125 31.203125 
z
" id="DejaVuSans-97"/>
     <path d="M 41.109375 46.296875 
Q 39.59375 47.171875 37.8125 47.578125 
Q 36.03125 48 33.890625 48 
Q 26.265625 48 22.1875 43.046875 
Q 18.109375 38.09375 18.109375 28.8125 
L 18.109375 0 
L 9.078125 0 
L 9.078125 54.6875 
L 18.109375 54.6875 
L 18.109375 46.1875 
Q 20.953125 51.171875 25.484375 53.578125 
Q 30.03125 56 36.53125 56 
Q 37.453125 56 38.578125 55.875 
Q 39.703125 55.765625 41.0625 55.515625 
z
" id="DejaVuSans-114"/>
     <path d="M 56.203125 29.59375 
L 56.203125 25.203125 
L 14.890625 25.203125 
Q 15.484375 15.921875 20.484375 11.0625 
Q 25.484375 6.203125 34.421875 6.203125 
Q 39.59375 6.203125 44.453125 7.46875 
Q 49.3125 8.734375 54.109375 11.28125 
L 54.109375 2.78125 
Q 49.265625 0.734375 44.1875 -0.34375 
Q 39.109375 -1.421875 33.890625 -1.421875 
Q 20.796875 -1.421875 13.15625 6.1875 
Q 5.515625 13.8125 5.515625 26.8125 
Q 5.515625 40.234375 12.765625 48.109375 
Q 20.015625 56 32.328125 56 
Q 43.359375 56 49.78125 48.890625 
Q 56.203125 41.796875 56.203125 29.59375 
z
M 47.21875 32.234375 
Q 47.125 39.59375 43.09375 43.984375 
Q 39.0625 48.390625 32.421875 48.390625 
Q 24.90625 48.390625 20.390625 44.140625 
Q 15.875 39.890625 15.1875 32.171875 
z
" id="DejaVuSans-101"/>
     <path id="DejaVuSans-32"/>
     <path d="M 9.8125 72.90625 
L 19.671875 72.90625 
L 19.671875 8.296875 
L 55.171875 8.296875 
L 55.171875 0 
L 9.8125 0 
z
" id="DejaVuSans-76"/>
     <path d="M 32.171875 -5.078125 
Q 28.375 -14.84375 24.75 -17.8125 
Q 21.140625 -20.796875 15.09375 -20.796875 
L 7.90625 -20.796875 
L 7.90625 -13.28125 
L 13.1875 -13.28125 
Q 16.890625 -13.28125 18.9375 -11.515625 
Q 21 -9.765625 23.484375 -3.21875 
L 25.09375 0.875 
L 2.984375 54.6875 
L 12.5 54.6875 
L 29.59375 11.921875 
L 46.6875 54.6875 
L 56.203125 54.6875 
z
" id="DejaVuSans-121"/>
     <path d="M 30.609375 48.390625 
Q 23.390625 48.390625 19.1875 42.75 
Q 14.984375 37.109375 14.984375 27.296875 
Q 14.984375 17.484375 19.15625 11.84375 
Q 23.34375 6.203125 30.609375 6.203125 
Q 37.796875 6.203125 41.984375 11.859375 
Q 46.1875 17.53125 46.1875 27.296875 
Q 46.1875 37.015625 41.984375 42.703125 
Q 37.796875 48.390625 30.609375 48.390625 
z
M 30.609375 56 
Q 42.328125 56 49.015625 48.375 
Q 55.71875 40.765625 55.71875 27.296875 
Q 55.71875 13.875 49.015625 6.21875 
Q 42.328125 -1.421875 30.609375 -1.421875 
Q 18.84375 -1.421875 12.171875 6.21875 
Q 5.515625 13.875 5.515625 27.296875 
Q 5.515625 40.765625 12.171875 48.375 
Q 18.84375 56 30.609375 56 
z
" id="DejaVuSans-111"/>
     <path d="M 18.3125 70.21875 
L 18.3125 54.6875 
L 36.8125 54.6875 
L 36.8125 47.703125 
L 18.3125 47.703125 
L 18.3125 18.015625 
Q 18.3125 11.328125 20.140625 9.421875 
Q 21.96875 7.515625 27.59375 7.515625 
L 36.8125 7.515625 
L 36.8125 0 
L 27.59375 0 
Q 17.1875 0 13.234375 3.875 
Q 9.28125 7.765625 9.28125 18.015625 
L 9.28125 47.703125 
L 2.6875 47.703125 
L 2.6875 54.6875 
L 9.28125 54.6875 
L 9.28125 70.21875 
z
" id="DejaVuSans-116"/>
     <path d="M 31 75.875 
Q 24.46875 64.65625 21.28125 53.65625 
Q 18.109375 42.671875 18.109375 31.390625 
Q 18.109375 20.125 21.3125 9.0625 
Q 24.515625 -2 31 -13.1875 
L 23.1875 -13.1875 
Q 15.875 -1.703125 12.234375 9.375 
Q 8.59375 20.453125 8.59375 31.390625 
Q 8.59375 42.28125 12.203125 53.3125 
Q 15.828125 64.359375 23.1875 75.875 
z
" id="DejaVuSans-40"/>
     <path d="M 9.8125 72.90625 
L 24.515625 72.90625 
L 43.109375 23.296875 
L 61.8125 72.90625 
L 76.515625 72.90625 
L 76.515625 0 
L 66.890625 0 
L 66.890625 64.015625 
L 48.09375 14.015625 
L 38.1875 14.015625 
L 19.390625 64.015625 
L 19.390625 0 
L 9.8125 0 
z
" id="DejaVuSans-77"/>
     <path d="M 8.015625 75.875 
L 15.828125 75.875 
Q 23.140625 64.359375 26.78125 53.3125 
Q 30.421875 42.28125 30.421875 31.390625 
Q 30.421875 20.453125 26.78125 9.375 
Q 23.140625 -1.703125 15.828125 -13.1875 
L 8.015625 -13.1875 
Q 14.5 -2 17.703125 9.0625 
Q 20.90625 20.125 20.90625 31.390625 
Q 20.90625 42.671875 17.703125 53.65625 
Q 14.5 64.65625 8.015625 75.875 
z
" id="DejaVuSans-41"/>
     <path d="M 11.71875 12.40625 
L 22.015625 12.40625 
L 22.015625 4 
L 14.015625 -11.625 
L 7.71875 -11.625 
L 11.71875 4 
z
" id="DejaVuSans-44"/>
     <path d="M 9.8125 72.90625 
L 23.09375 72.90625 
L 55.421875 11.921875 
L 55.421875 72.90625 
L 64.984375 72.90625 
L 64.984375 0 
L 51.703125 0 
L 19.390625 60.984375 
L 19.390625 0 
L 9.8125 0 
z
" id="DejaVuSans-78"/>
     <path d="M 10.59375 45.40625 
L 73.1875 45.40625 
L 73.1875 37.203125 
L 10.59375 37.203125 
z
M 10.59375 25.484375 
L 73.1875 25.484375 
L 73.1875 17.1875 
L 10.59375 17.1875 
z
" id="DejaVuSans-61"/>
    </defs>
    <g transform="translate(80.673125 16.318125)scale(0.12 -0.12)">
     <use xlink:href="#DejaVuSans-83"/>
     <use x="63.476562" xlink:href="#DejaVuSans-113"/>
     <use x="126.953125" xlink:href="#DejaVuSans-117"/>
     <use x="190.332031" xlink:href="#DejaVuSans-97"/>
     <use x="251.611328" xlink:href="#DejaVuSans-114"/>
     <use x="292.693359" xlink:href="#DejaVuSans-101"/>
     <use x="354.216797" xlink:href="#DejaVuSans-32"/>
     <use x="386.003906" xlink:href="#DejaVuSans-76"/>
     <use x="441.716797" xlink:href="#DejaVuSans-97"/>
     <use x="502.996094" xlink:href="#DejaVuSans-121"/>
     <use x="562.175781" xlink:href="#DejaVuSans-111"/>
     <use x="623.357422" xlink:href="#DejaVuSans-117"/>
     <use x="686.736328" xlink:href="#DejaVuSans-116"/>
     <use x="725.945312" xlink:href="#DejaVuSans-32"/>
     <use x="757.732422" xlink:href="#DejaVuSans-40"/>
     <use x="796.746094" xlink:href="#DejaVuSans-77"/>
     <use x="883.025391" xlink:href="#DejaVuSans-97"/>
     <use x="944.304688" xlink:href="#DejaVuSans-114"/>
     <use x="985.402344" xlink:href="#DejaVuSans-113"/>
     <use x="1048.878906" xlink:href="#DejaVuSans-117"/>
     <use x="1112.257812" xlink:href="#DejaVuSans-101"/>
     <use x="1173.78125" xlink:href="#DejaVuSans-101"/>
     <use x="1235.304688" xlink:href="#DejaVuSans-41"/>
     <use x="1274.318359" xlink:href="#DejaVuSans-44"/>
     <use x="1306.105469" xlink:href="#DejaVuSans-32"/>
     <use x="1337.892578" xlink:href="#DejaVuSans-78"/>
     <use x="1412.697266" xlink:href="#DejaVuSans-61"/>
     <use x="1496.486328" xlink:href="#DejaVuSans-49"/>
     <use x="1560.109375" xlink:href="#DejaVuSans-49"/>
    </g>
   </g>
  </g>
 </g>
 <defs>
  <clipPath id="p1f6ae620d6">
   <rect height="217.44" width="334.8" x="10.7" y="22.318125"/>
  </clipPath>
 </defs>
</svg>
