<?xml version="1.0" encoding="utf-8" standalone="no"?>
<!DOCTYPE svg PUBLIC "-//W3C//DTD SVG 1.1//EN"
  "http://www.w3.org/Graphics/SVG/1.1/DTD/svg11.dtd">
<!-- Created with matplotlib (https://matplotlib.org/) -->
<svg height="250.458125pt" version="1.1" viewBox="0 0 356.2 250.458125" width="356.2pt" xmlns="http://www.w3.org/2000/svg" xmlns:xlink="http://www.w3.org/1999/xlink">
 <defs>
  <style type="text/css">
*{stroke-linecap:butt;stroke-linejoin:round;}
  </style>
 </defs>
 <g id="figure_1">
  <g id="patch_1">
   <path d="M 0 250.458125 
L 356.2 250.458125 
L 356.2 0 
L 0 0 
z
" style="fill:none;"/>
  </g>
  <g id="axes_1">
   <g id="patch_2">
    <path d="M 10.7 239.758125 
L 345.5 239.758125 
L 345.5 22.318125 
L 10.7 22.318125 
z
" style="fill:none;"/>
   </g>
   <g id="PathCollection_1">
    <defs>
     <path d="M 0 5 
C 1.326016 5 2.597899 4.473168 3.535534 3.535534 
C 4.473168 2.597899 5 1.326016 5 0 
C 5 -1.326016 4.473168 -2.597899 3.535534 -3.535534 
C 2.597899 -4.473168 1.326016 -5 0 -5 
C -1.326016 -5 -2.597899 -4.473168 -3.535534 -3.535534 
C -4.473168 -2.597899 -5 -1.326016 -5 0 
C -5 1.326016 -4.473168 2.597899 -3.535534 3.535534 
C -2.597899 4.473168 -1.326016 5 0 5 
z
" id="me83588cd14" style="stroke:#c7cbce;"/>
    </defs>
    <g>
     <use style="fill:#dadcde;stroke:#c7cbce;" x="70.948485" xlink:href="#me83588cd14" y="227.474489"/>
    </g>
   </g>
   <g id="PathCollection_2">
    <g>
     <use style="fill:#dadcde;stroke:#c7cbce;" x="70.948485" xlink:href="#me83588cd14" y="206.044186"/>
    </g>
   </g>
   <g id="PathCollection_3">
    <g>
     <use style="fill:#dadcde;stroke:#c7cbce;" x="70.948485" xlink:href="#me83588cd14" y="184.613883"/>
    </g>
   </g>
   <g id="PathCollection_4">
    <g>
     <use style="fill:#dadcde;stroke:#c7cbce;" x="70.948485" xlink:href="#me83588cd14" y="163.18358"/>
    </g>
   </g>
   <g id="PathCollection_5">
    <g>
     <use style="fill:#dadcde;stroke:#c7cbce;" x="70.948485" xlink:href="#me83588cd14" y="141.753277"/>
    </g>
   </g>
   <g id="PathCollection_6">
    <g>
     <use style="fill:#dadcde;stroke:#c7cbce;" x="70.948485" xlink:href="#me83588cd14" y="120.322973"/>
    </g>
   </g>
   <g id="PathCollection_7">
    <g>
     <use style="fill:#dadcde;stroke:#c7cbce;" x="70.948485" xlink:href="#me83588cd14" y="98.89267"/>
    </g>
   </g>
   <g id="PathCollection_8">
    <g>
     <use style="fill:#dadcde;stroke:#c7cbce;" x="70.948485" xlink:href="#me83588cd14" y="77.462367"/>
    </g>
   </g>
   <g id="PathCollection_9">
    <g>
     <use style="fill:#dadcde;stroke:#c7cbce;" x="70.948485" xlink:href="#me83588cd14" y="56.032064"/>
    </g>
   </g>
   <g id="PathCollection_10">
    <g>
     <use style="fill:#dadcde;stroke:#c7cbce;" x="70.948485" xlink:href="#me83588cd14" y="34.601761"/>
    </g>
   </g>
   <g id="PathCollection_11">
    <g>
     <use style="fill:#dadcde;stroke:#c7cbce;" x="92.378788" xlink:href="#me83588cd14" y="227.474489"/>
    </g>
   </g>
   <g id="PathCollection_12">
    <g>
     <use style="fill:#dadcde;stroke:#c7cbce;" x="92.378788" xlink:href="#me83588cd14" y="206.044186"/>
    </g>
   </g>
   <g id="PathCollection_13">
    <g>
     <use style="fill:#dadcde;stroke:#c7cbce;" x="92.378788" xlink:href="#me83588cd14" y="184.613883"/>
    </g>
   </g>
   <g id="PathCollection_14">
    <g>
     <use style="fill:#dadcde;stroke:#c7cbce;" x="92.378788" xlink:href="#me83588cd14" y="163.18358"/>
    </g>
   </g>
   <g id="PathCollection_15">
    <g>
     <use style="fill:#dadcde;stroke:#c7cbce;" x="92.378788" xlink:href="#me83588cd14" y="141.753277"/>
    </g>
   </g>
   <g id="PathCollection_16">
    <g>
     <use style="fill:#dadcde;stroke:#c7cbce;" x="92.378788" xlink:href="#me83588cd14" y="120.322973"/>
    </g>
   </g>
   <g id="PathCollection_17">
    <g>
     <use style="fill:#dadcde;stroke:#c7cbce;" x="92.378788" xlink:href="#me83588cd14" y="98.89267"/>
    </g>
   </g>
   <g id="PathCollection_18">
    <g>
     <use style="fill:#dadcde;stroke:#c7cbce;" x="92.378788" xlink:href="#me83588cd14" y="77.462367"/>
    </g>
   </g>
   <g id="PathCollection_19">
    <g>
     <use style="fill:#dadcde;stroke:#c7cbce;" x="92.378788" xlink:href="#me83588cd14" y="56.032064"/>
    </g>
   </g>
   <g id="PathCollection_20">
    <g>
     <use style="fill:#dadcde;stroke:#c7cbce;" x="92.378788" xlink:href="#me83588cd14" y="34.601761"/>
    </g>
   </g>
   <g id="PathCollection_21">
    <g>
     <use style="fill:#dadcde;stroke:#c7cbce;" x="113.809091" xlink:href="#me83588cd14" y="227.474489"/>
    </g>
   </g>
   <g id="PathCollection_22">
    <g>
     <use style="fill:#dadcde;stroke:#c7cbce;" x="113.809091" xlink:href="#me83588cd14" y="206.044186"/>
    </g>
   </g>
   <g id="PathCollection_23">
    <g>
     <use style="fill:#dadcde;stroke:#c7cbce;" x="113.809091" xlink:href="#me83588cd14" y="184.613883"/>
    </g>
   </g>
   <g id="PathCollection_24">
    <g>
     <use style="fill:#dadcde;stroke:#c7cbce;" x="113.809091" xlink:href="#me83588cd14" y="163.18358"/>
    </g>
   </g>
   <g id="PathCollection_25">
    <g>
     <use style="fill:#dadcde;stroke:#c7cbce;" x="113.809091" xlink:href="#me83588cd14" y="141.753277"/>
    </g>
   </g>
   <g id="PathCollection_26">
    <g>
     <use style="fill:#dadcde;stroke:#c7cbce;" x="113.809091" xlink:href="#me83588cd14" y="120.322973"/>
    </g>
   </g>
   <g id="PathCollection_27">
    <g>
     <use style="fill:#dadcde;stroke:#c7cbce;" x="113.809091" xlink:href="#me83588cd14" y="98.89267"/>
    </g>
   </g>
   <g id="PathCollection_28">
    <g>
     <use style="fill:#dadcde;stroke:#c7cbce;" x="113.809091" xlink:href="#me83588cd14" y="77.462367"/>
    </g>
   </g>
   <g id="PathCollection_29">
    <g>
     <use style="fill:#dadcde;stroke:#c7cbce;" x="113.809091" xlink:href="#me83588cd14" y="56.032064"/>
    </g>
   </g>
   <g id="PathCollection_30">
    <g>
     <use style="fill:#dadcde;stroke:#c7cbce;" x="113.809091" xlink:href="#me83588cd14" y="34.601761"/>
    </g>
   </g>
   <g id="PathCollection_31">
    <g>
     <use style="fill:#dadcde;stroke:#c7cbce;" x="135.239394" xlink:href="#me83588cd14" y="227.474489"/>
    </g>
   </g>
   <g id="PathCollection_32">
    <g>
     <use style="fill:#dadcde;stroke:#c7cbce;" x="135.239394" xlink:href="#me83588cd14" y="206.044186"/>
    </g>
   </g>
   <g id="PathCollection_33">
    <g>
     <use style="fill:#dadcde;stroke:#c7cbce;" x="135.239394" xlink:href="#me83588cd14" y="184.613883"/>
    </g>
   </g>
   <g id="PathCollection_34">
    <g>
     <use style="fill:#dadcde;stroke:#c7cbce;" x="135.239394" xlink:href="#me83588cd14" y="163.18358"/>
    </g>
   </g>
   <g id="PathCollection_35">
    <g>
     <use style="fill:#dadcde;stroke:#c7cbce;" x="135.239394" xlink:href="#me83588cd14" y="141.753277"/>
    </g>
   </g>
   <g id="PathCollection_36">
    <g>
     <use style="fill:#dadcde;stroke:#c7cbce;" x="135.239394" xlink:href="#me83588cd14" y="120.322973"/>
    </g>
   </g>
   <g id="PathCollection_37">
    <g>
     <use style="fill:#dadcde;stroke:#c7cbce;" x="135.239394" xlink:href="#me83588cd14" y="98.89267"/>
    </g>
   </g>
   <g id="PathCollection_38">
    <g>
     <use style="fill:#dadcde;stroke:#c7cbce;" x="135.239394" xlink:href="#me83588cd14" y="77.462367"/>
    </g>
   </g>
   <g id="PathCollection_39">
    <g>
     <use style="fill:#dadcde;stroke:#c7cbce;" x="135.239394" xlink:href="#me83588cd14" y="56.032064"/>
    </g>
   </g>
   <g id="PathCollection_40">
    <g>
     <use style="fill:#dadcde;stroke:#c7cbce;" x="135.239394" xlink:href="#me83588cd14" y="34.601761"/>
    </g>
   </g>
   <g id="PathCollection_41">
    <g>
     <use style="fill:#dadcde;stroke:#c7cbce;" x="156.669697" xlink:href="#me83588cd14" y="227.474489"/>
    </g>
   </g>
   <g id="PathCollection_42">
    <g>
     <use style="fill:#dadcde;stroke:#c7cbce;" x="156.669697" xlink:href="#me83588cd14" y="206.044186"/>
    </g>
   </g>
   <g id="PathCollection_43">
    <g>
     <use style="fill:#dadcde;stroke:#c7cbce;" x="156.669697" xlink:href="#me83588cd14" y="184.613883"/>
    </g>
   </g>
   <g id="PathCollection_44">
    <g>
     <use style="fill:#dadcde;stroke:#c7cbce;" x="156.669697" xlink:href="#me83588cd14" y="163.18358"/>
    </g>
   </g>
   <g id="PathCollection_45">
    <g>
     <use style="fill:#dadcde;stroke:#c7cbce;" x="156.669697" xlink:href="#me83588cd14" y="141.753277"/>
    </g>
   </g>
   <g id="PathCollection_46">
    <g>
     <use style="fill:#dadcde;stroke:#c7cbce;" x="156.669697" xlink:href="#me83588cd14" y="120.322973"/>
    </g>
   </g>
   <g id="PathCollection_47">
    <g>
     <use style="fill:#dadcde;stroke:#c7cbce;" x="156.669697" xlink:href="#me83588cd14" y="98.89267"/>
    </g>
   </g>
   <g id="PathCollection_48">
    <g>
     <use style="fill:#dadcde;stroke:#c7cbce;" x="156.669697" xlink:href="#me83588cd14" y="77.462367"/>
    </g>
   </g>
   <g id="PathCollection_49">
    <g>
     <use style="fill:#dadcde;stroke:#c7cbce;" x="156.669697" xlink:href="#me83588cd14" y="56.032064"/>
    </g>
   </g>
   <g id="PathCollection_50">
    <g>
     <use style="fill:#dadcde;stroke:#c7cbce;" x="156.669697" xlink:href="#me83588cd14" y="34.601761"/>
    </g>
   </g>
   <g id="PathCollection_51">
    <g>
     <use style="fill:#dadcde;stroke:#c7cbce;" x="178.1" xlink:href="#me83588cd14" y="227.474489"/>
    </g>
   </g>
   <g id="PathCollection_52">
    <g>
     <use style="fill:#dadcde;stroke:#c7cbce;" x="178.1" xlink:href="#me83588cd14" y="206.044186"/>
    </g>
   </g>
   <g id="PathCollection_53">
    <g>
     <use style="fill:#dadcde;stroke:#c7cbce;" x="178.1" xlink:href="#me83588cd14" y="184.613883"/>
    </g>
   </g>
   <g id="PathCollection_54">
    <g>
     <use style="fill:#dadcde;stroke:#c7cbce;" x="178.1" xlink:href="#me83588cd14" y="163.18358"/>
    </g>
   </g>
   <g id="PathCollection_55">
    <g>
     <use style="fill:#dadcde;stroke:#c7cbce;" x="178.1" xlink:href="#me83588cd14" y="141.753277"/>
    </g>
   </g>
   <g id="PathCollection_56">
    <g>
     <use style="fill:#dadcde;stroke:#c7cbce;" x="178.1" xlink:href="#me83588cd14" y="120.322973"/>
    </g>
   </g>
   <g id="PathCollection_57">
    <g>
     <use style="fill:#dadcde;stroke:#c7cbce;" x="178.1" xlink:href="#me83588cd14" y="98.89267"/>
    </g>
   </g>
   <g id="PathCollection_58">
    <g>
     <use style="fill:#dadcde;stroke:#c7cbce;" x="178.1" xlink:href="#me83588cd14" y="77.462367"/>
    </g>
   </g>
   <g id="PathCollection_59">
    <g>
     <use style="fill:#dadcde;stroke:#c7cbce;" x="178.1" xlink:href="#me83588cd14" y="56.032064"/>
    </g>
   </g>
   <g id="PathCollection_60">
    <g>
     <use style="fill:#dadcde;stroke:#c7cbce;" x="178.1" xlink:href="#me83588cd14" y="34.601761"/>
    </g>
   </g>
   <g id="PathCollection_61">
    <g>
     <use style="fill:#dadcde;stroke:#c7cbce;" x="199.530303" xlink:href="#me83588cd14" y="227.474489"/>
    </g>
   </g>
   <g id="PathCollection_62">
    <g>
     <use style="fill:#dadcde;stroke:#c7cbce;" x="199.530303" xlink:href="#me83588cd14" y="206.044186"/>
    </g>
   </g>
   <g id="PathCollection_63">
    <g>
     <use style="fill:#dadcde;stroke:#c7cbce;" x="199.530303" xlink:href="#me83588cd14" y="184.613883"/>
    </g>
   </g>
   <g id="PathCollection_64">
    <g>
     <use style="fill:#dadcde;stroke:#c7cbce;" x="199.530303" xlink:href="#me83588cd14" y="163.18358"/>
    </g>
   </g>
   <g id="PathCollection_65">
    <g>
     <use style="fill:#dadcde;stroke:#c7cbce;" x="199.530303" xlink:href="#me83588cd14" y="141.753277"/>
    </g>
   </g>
   <g id="PathCollection_66">
    <g>
     <use style="fill:#dadcde;stroke:#c7cbce;" x="199.530303" xlink:href="#me83588cd14" y="120.322973"/>
    </g>
   </g>
   <g id="PathCollection_67">
    <g>
     <use style="fill:#dadcde;stroke:#c7cbce;" x="199.530303" xlink:href="#me83588cd14" y="98.89267"/>
    </g>
   </g>
   <g id="PathCollection_68">
    <g>
     <use style="fill:#dadcde;stroke:#c7cbce;" x="199.530303" xlink:href="#me83588cd14" y="77.462367"/>
    </g>
   </g>
   <g id="PathCollection_69">
    <g>
     <use style="fill:#dadcde;stroke:#c7cbce;" x="199.530303" xlink:href="#me83588cd14" y="56.032064"/>
    </g>
   </g>
   <g id="PathCollection_70">
    <g>
     <use style="fill:#dadcde;stroke:#c7cbce;" x="199.530303" xlink:href="#me83588cd14" y="34.601761"/>
    </g>
   </g>
   <g id="PathCollection_71">
    <g>
     <use style="fill:#dadcde;stroke:#c7cbce;" x="220.960606" xlink:href="#me83588cd14" y="227.474489"/>
    </g>
   </g>
   <g id="PathCollection_72">
    <g>
     <use style="fill:#dadcde;stroke:#c7cbce;" x="220.960606" xlink:href="#me83588cd14" y="206.044186"/>
    </g>
   </g>
   <g id="PathCollection_73">
    <g>
     <use style="fill:#dadcde;stroke:#c7cbce;" x="220.960606" xlink:href="#me83588cd14" y="184.613883"/>
    </g>
   </g>
   <g id="PathCollection_74">
    <g>
     <use style="fill:#dadcde;stroke:#c7cbce;" x="220.960606" xlink:href="#me83588cd14" y="163.18358"/>
    </g>
   </g>
   <g id="PathCollection_75">
    <g>
     <use style="fill:#dadcde;stroke:#c7cbce;" x="220.960606" xlink:href="#me83588cd14" y="141.753277"/>
    </g>
   </g>
   <g id="PathCollection_76">
    <g>
     <use style="fill:#dadcde;stroke:#c7cbce;" x="220.960606" xlink:href="#me83588cd14" y="120.322973"/>
    </g>
   </g>
   <g id="PathCollection_77">
    <g>
     <use style="fill:#dadcde;stroke:#c7cbce;" x="220.960606" xlink:href="#me83588cd14" y="98.89267"/>
    </g>
   </g>
   <g id="PathCollection_78">
    <g>
     <use style="fill:#dadcde;stroke:#c7cbce;" x="220.960606" xlink:href="#me83588cd14" y="77.462367"/>
    </g>
   </g>
   <g id="PathCollection_79">
    <g>
     <use style="fill:#dadcde;stroke:#c7cbce;" x="220.960606" xlink:href="#me83588cd14" y="56.032064"/>
    </g>
   </g>
   <g id="PathCollection_80">
    <g>
     <use style="fill:#dadcde;stroke:#c7cbce;" x="220.960606" xlink:href="#me83588cd14" y="34.601761"/>
    </g>
   </g>
   <g id="PathCollection_81">
    <g>
     <use style="fill:#dadcde;stroke:#c7cbce;" x="242.390909" xlink:href="#me83588cd14" y="227.474489"/>
    </g>
   </g>
   <g id="PathCollection_82">
    <g>
     <use style="fill:#dadcde;stroke:#c7cbce;" x="242.390909" xlink:href="#me83588cd14" y="206.044186"/>
    </g>
   </g>
   <g id="PathCollection_83">
    <g>
     <use style="fill:#dadcde;stroke:#c7cbce;" x="242.390909" xlink:href="#me83588cd14" y="184.613883"/>
    </g>
   </g>
   <g id="PathCollection_84">
    <g>
     <use style="fill:#dadcde;stroke:#c7cbce;" x="242.390909" xlink:href="#me83588cd14" y="163.18358"/>
    </g>
   </g>
   <g id="PathCollection_85">
    <g>
     <use style="fill:#dadcde;stroke:#c7cbce;" x="242.390909" xlink:href="#me83588cd14" y="141.753277"/>
    </g>
   </g>
   <g id="PathCollection_86">
    <g>
     <use style="fill:#dadcde;stroke:#c7cbce;" x="242.390909" xlink:href="#me83588cd14" y="120.322973"/>
    </g>
   </g>
   <g id="PathCollection_87">
    <g>
     <use style="fill:#dadcde;stroke:#c7cbce;" x="242.390909" xlink:href="#me83588cd14" y="98.89267"/>
    </g>
   </g>
   <g id="PathCollection_88">
    <g>
     <use style="fill:#dadcde;stroke:#c7cbce;" x="242.390909" xlink:href="#me83588cd14" y="77.462367"/>
    </g>
   </g>
   <g id="PathCollection_89">
    <g>
     <use style="fill:#dadcde;stroke:#c7cbce;" x="242.390909" xlink:href="#me83588cd14" y="56.032064"/>
    </g>
   </g>
   <g id="PathCollection_90">
    <g>
     <use style="fill:#dadcde;stroke:#c7cbce;" x="242.390909" xlink:href="#me83588cd14" y="34.601761"/>
    </g>
   </g>
   <g id="PathCollection_91">
    <g>
     <use style="fill:#dadcde;stroke:#c7cbce;" x="263.821212" xlink:href="#me83588cd14" y="227.474489"/>
    </g>
   </g>
   <g id="PathCollection_92">
    <g>
     <use style="fill:#dadcde;stroke:#c7cbce;" x="263.821212" xlink:href="#me83588cd14" y="206.044186"/>
    </g>
   </g>
   <g id="PathCollection_93">
    <g>
     <use style="fill:#dadcde;stroke:#c7cbce;" x="263.821212" xlink:href="#me83588cd14" y="184.613883"/>
    </g>
   </g>
   <g id="PathCollection_94">
    <g>
     <use style="fill:#dadcde;stroke:#c7cbce;" x="263.821212" xlink:href="#me83588cd14" y="163.18358"/>
    </g>
   </g>
   <g id="PathCollection_95">
    <g>
     <use style="fill:#dadcde;stroke:#c7cbce;" x="263.821212" xlink:href="#me83588cd14" y="141.753277"/>
    </g>
   </g>
   <g id="PathCollection_96">
    <g>
     <use style="fill:#dadcde;stroke:#c7cbce;" x="263.821212" xlink:href="#me83588cd14" y="120.322973"/>
    </g>
   </g>
   <g id="PathCollection_97">
    <g>
     <use style="fill:#dadcde;stroke:#c7cbce;" x="263.821212" xlink:href="#me83588cd14" y="98.89267"/>
    </g>
   </g>
   <g id="PathCollection_98">
    <g>
     <use style="fill:#dadcde;stroke:#c7cbce;" x="263.821212" xlink:href="#me83588cd14" y="77.462367"/>
    </g>
   </g>
   <g id="PathCollection_99">
    <g>
     <use style="fill:#dadcde;stroke:#c7cbce;" x="263.821212" xlink:href="#me83588cd14" y="56.032064"/>
    </g>
   </g>
   <g id="PathCollection_100">
    <g>
     <use style="fill:#dadcde;stroke:#c7cbce;" x="263.821212" xlink:href="#me83588cd14" y="34.601761"/>
    </g>
   </g>
   <g id="PathCollection_101">
    <g>
     <use style="fill:#dadcde;stroke:#c7cbce;" x="285.251515" xlink:href="#me83588cd14" y="227.474489"/>
    </g>
   </g>
   <g id="PathCollection_102">
    <g>
     <use style="fill:#dadcde;stroke:#c7cbce;" x="285.251515" xlink:href="#me83588cd14" y="206.044186"/>
    </g>
   </g>
   <g id="PathCollection_103">
    <g>
     <use style="fill:#dadcde;stroke:#c7cbce;" x="285.251515" xlink:href="#me83588cd14" y="184.613883"/>
    </g>
   </g>
   <g id="PathCollection_104">
    <g>
     <use style="fill:#dadcde;stroke:#c7cbce;" x="285.251515" xlink:href="#me83588cd14" y="163.18358"/>
    </g>
   </g>
   <g id="PathCollection_105">
    <g>
     <use style="fill:#dadcde;stroke:#c7cbce;" x="285.251515" xlink:href="#me83588cd14" y="141.753277"/>
    </g>
   </g>
   <g id="PathCollection_106">
    <g>
     <use style="fill:#dadcde;stroke:#c7cbce;" x="285.251515" xlink:href="#me83588cd14" y="120.322973"/>
    </g>
   </g>
   <g id="PathCollection_107">
    <g>
     <use style="fill:#dadcde;stroke:#c7cbce;" x="285.251515" xlink:href="#me83588cd14" y="98.89267"/>
    </g>
   </g>
   <g id="PathCollection_108">
    <g>
     <use style="fill:#dadcde;stroke:#c7cbce;" x="285.251515" xlink:href="#me83588cd14" y="77.462367"/>
    </g>
   </g>
   <g id="PathCollection_109">
    <g>
     <use style="fill:#dadcde;stroke:#c7cbce;" x="285.251515" xlink:href="#me83588cd14" y="56.032064"/>
    </g>
   </g>
   <g id="PathCollection_110">
    <g>
     <use style="fill:#dadcde;stroke:#c7cbce;" x="285.251515" xlink:href="#me83588cd14" y="34.601761"/>
    </g>
   </g>
   <g id="line2d_1">
    <path clip-path="url(#p66d3f98984)" d="M 49.518182 229.617519 
L 70.948485 227.474489 
L 92.378788 203.901155 
L 92.378788 186.756913 
L 113.809091 161.040549 
L 113.809091 143.896307 
L 135.239394 118.179943 
L 135.239394 101.035701 
L 156.669697 75.319337 
L 156.669697 58.175095 
L 178.1 32.458731 
L 199.530303 34.601761 
L 199.530303 53.889034 
L 220.960606 79.605398 
L 220.960606 96.74964 
L 242.390909 122.466004 
L 242.390909 139.610246 
L 263.821212 165.32661 
L 263.821212 182.470852 
L 285.251515 208.187216 
L 285.251515 225.331458 
L 306.681818 227.474489 
" style="fill:none;stroke:#8d5ccd;stroke-linecap:square;stroke-width:1.5;"/>
   </g>
   <g id="line2d_2">
    <path clip-path="url(#p66d3f98984)" d="M 49.518182 186.756913 
L 70.948485 161.040549 
L 70.948485 143.896307 
L 92.378788 118.179943 
L 92.378788 101.035701 
L 113.809091 75.319337 
L 113.809091 58.175095 
L 135.239394 32.458731 
L 156.669697 34.601761 
L 156.669697 53.889034 
L 178.1 79.605398 
L 178.1 96.74964 
L 199.530303 122.466004 
L 199.530303 139.610246 
L 220.960606 165.32661 
L 220.960606 182.470852 
L 242.390909 208.187216 
L 242.390909 225.331458 
L 263.821212 227.474489 
L 285.251515 203.901155 
L 285.251515 186.756913 
L 306.681818 161.040549 
" style="fill:none;stroke:#a665be;stroke-linecap:square;stroke-width:1.5;"/>
   </g>
   <g id="line2d_3">
    <path clip-path="url(#p66d3f98984)" d="M 49.518182 143.896307 
L 70.948485 118.179943 
L 70.948485 101.035701 
L 92.378788 75.319337 
L 92.378788 58.175095 
L 113.809091 32.458731 
L 135.239394 34.601761 
L 135.239394 53.889034 
L 156.669697 79.605398 
L 156.669697 96.74964 
L 178.1 122.466004 
L 178.1 139.610246 
L 199.530303 165.32661 
L 199.530303 182.470852 
L 220.960606 208.187216 
L 220.960606 225.331458 
L 242.390909 227.474489 
L 263.821212 203.901155 
L 263.821212 186.756913 
L 285.251515 161.040549 
L 285.251515 143.896307 
L 306.681818 118.179943 
" style="fill:none;stroke:#c36e9e;stroke-linecap:square;stroke-width:1.5;"/>
   </g>
   <g id="line2d_4">
    <path clip-path="url(#p66d3f98984)" d="M 49.518182 101.035701 
L 70.948485 75.319337 
L 70.948485 58.175095 
L 92.378788 32.458731 
L 113.809091 34.601761 
L 113.809091 53.889034 
L 135.239394 79.605398 
L 135.239394 96.74964 
L 156.669697 122.466004 
L 156.669697 139.610246 
L 178.1 165.32661 
L 178.1 182.470852 
L 199.530303 208.187216 
L 199.530303 225.331458 
L 220.960606 227.474489 
L 242.390909 203.901155 
L 242.390909 186.756913 
L 263.821212 161.040549 
L 263.821212 143.896307 
L 285.251515 118.179943 
L 285.251515 101.035701 
L 306.681818 75.319337 
" style="fill:none;stroke:#e57863;stroke-linecap:square;stroke-width:1.5;"/>
   </g>
   <g id="line2d_5">
    <path clip-path="url(#p66d3f98984)" d="M 49.518182 58.175095 
L 70.948485 32.458731 
L 92.378788 34.601761 
L 92.378788 53.889034 
L 113.809091 79.605398 
L 113.809091 96.74964 
L 135.239394 122.466004 
L 135.239394 139.610246 
L 156.669697 165.32661 
L 156.669697 182.470852 
L 178.1 208.187216 
L 178.1 225.331458 
L 199.530303 227.474489 
L 220.960606 203.901155 
L 220.960606 186.756913 
L 242.390909 161.040549 
L 242.390909 143.896307 
L 263.821212 118.179943 
L 263.821212 101.035701 
L 285.251515 75.319337 
L 285.251515 58.175095 
L 306.681818 32.458731 
" style="fill:none;stroke:#ed9128;stroke-linecap:square;stroke-width:1.5;"/>
   </g>
   <g id="line2d_6">
    <path clip-path="url(#p66d3f98984)" d="M 49.518182 225.331458 
L 70.948485 227.474489 
L 92.378788 203.901155 
L 92.378788 186.756913 
L 113.809091 161.040549 
L 113.809091 143.896307 
L 135.239394 118.179943 
L 135.239394 101.035701 
L 156.669697 75.319337 
L 156.669697 58.175095 
L 178.1 32.458731 
L 199.530303 34.601761 
L 199.530303 53.889034 
L 220.960606 79.605398 
L 220.960606 96.74964 
L 242.390909 122.466004 
L 242.390909 139.610246 
L 263.821212 165.32661 
L 263.821212 182.470852 
L 285.251515 208.187216 
L 285.251515 225.331458 
" style="fill:none;stroke:#b1a933;stroke-linecap:square;stroke-width:1.5;"/>
   </g>
   <g id="line2d_7">
    <path clip-path="url(#p66d3f98984)" d="M 49.518182 182.470852 
L 70.948485 208.187216 
L 70.948485 225.331458 
L 92.378788 227.474489 
L 113.809091 203.901155 
L 113.809091 186.756913 
L 135.239394 161.040549 
L 135.239394 143.896307 
L 156.669697 118.179943 
L 156.669697 101.035701 
L 178.1 75.319337 
L 178.1 58.175095 
L 199.530303 32.458731 
L 220.960606 34.601761 
L 220.960606 53.889034 
L 242.390909 79.605398 
L 242.390909 96.74964 
L 263.821212 122.466004 
L 263.821212 139.610246 
L 285.251515 165.32661 
L 285.251515 182.470852 
L 306.681818 208.187216 
" style="fill:none;stroke:#66b073;stroke-linecap:square;stroke-width:1.5;"/>
   </g>
   <g id="line2d_8">
    <path clip-path="url(#p66d3f98984)" d="M 49.518182 139.610246 
L 70.948485 165.32661 
L 70.948485 182.470852 
L 92.378788 208.187216 
L 92.378788 225.331458 
L 113.809091 227.474489 
L 135.239394 203.901155 
L 135.239394 186.756913 
L 156.669697 161.040549 
L 156.669697 143.896307 
L 178.1 118.179943 
L 178.1 101.035701 
L 199.530303 75.319337 
L 199.530303 58.175095 
L 220.960606 32.458731 
L 242.390909 34.601761 
L 242.390909 53.889034 
L 263.821212 79.605398 
L 263.821212 96.74964 
L 285.251515 122.466004 
L 285.251515 139.610246 
L 306.681818 165.32661 
" style="fill:none;stroke:#1bb7b2;stroke-linecap:square;stroke-width:1.5;"/>
   </g>
   <g id="line2d_9">
    <path clip-path="url(#p66d3f98984)" d="M 49.518182 96.74964 
L 70.948485 122.466004 
L 70.948485 139.610246 
L 92.378788 165.32661 
L 92.378788 182.470852 
L 113.809091 208.187216 
L 113.809091 225.331458 
L 135.239394 227.474489 
L 156.669697 203.901155 
L 156.669697 186.756913 
L 178.1 161.040549 
L 178.1 143.896307 
L 199.530303 118.179943 
L 199.530303 101.035701 
L 220.960606 75.319337 
L 220.960606 58.175095 
L 242.390909 32.458731 
L 263.821212 34.601761 
L 263.821212 53.889034 
L 285.251515 79.605398 
L 285.251515 96.74964 
L 306.681818 122.466004 
" style="fill:none;stroke:#25afd2;stroke-linecap:square;stroke-width:1.5;"/>
   </g>
   <g id="line2d_10">
    <path clip-path="url(#p66d3f98984)" d="M 49.518182 36.744792 
L 70.948485 34.601761 
L 70.948485 53.889034 
L 92.378788 79.605398 
L 92.378788 96.74964 
L 113.809091 122.466004 
L 113.809091 139.610246 
L 135.239394 165.32661 
L 135.239394 182.470852 
L 156.669697 208.187216 
L 156.669697 225.331458 
L 178.1 227.474489 
L 199.530303 203.901155 
L 199.530303 186.756913 
L 220.960606 161.040549 
L 220.960606 143.896307 
L 242.390909 118.179943 
L 242.390909 101.035701 
L 263.821212 75.319337 
L 263.821212 58.175095 
L 285.251515 32.458731 
L 306.681818 34.601761 
" style="fill:none;stroke:#5d9bde;stroke-linecap:square;stroke-width:1.5;"/>
   </g>
   <g id="line2d_11">
    <path clip-path="url(#p66d3f98984)" d="M 49.518182 227.474489 
L 70.948485 203.901155 
L 70.948485 186.756913 
L 92.378788 161.040549 
L 92.378788 143.896307 
L 113.809091 118.179943 
L 113.809091 101.035701 
L 135.239394 75.319337 
L 135.239394 58.175095 
L 156.669697 32.458731 
L 178.1 34.601761 
L 178.1 53.889034 
L 199.530303 79.605398 
L 199.530303 96.74964 
L 220.960606 122.466004 
L 220.960606 139.610246 
L 242.390909 165.32661 
L 242.390909 182.470852 
L 263.821212 208.187216 
L 263.821212 225.331458 
L 285.251515 227.474489 
L 306.681818 203.901155 
" style="fill:none;stroke:#ed9128;stroke-linecap:square;stroke-width:1.5;"/>
   </g>
   <g id="line2d_12">
    <path clip-path="url(#p66d3f98984)" d="M 49.518182 53.889034 
L 70.948485 79.605398 
L 70.948485 96.74964 
L 92.378788 122.466004 
L 92.378788 139.610246 
L 113.809091 165.32661 
L 113.809091 182.470852 
L 135.239394 208.187216 
L 135.239394 225.331458 
L 156.669697 227.474489 
L 178.1 203.901155 
L 178.1 186.756913 
L 199.530303 161.040549 
L 199.530303 143.896307 
L 220.960606 118.179943 
L 220.960606 101.035701 
L 242.390909 75.319337 
L 242.390909 58.175095 
L 263.821212 32.458731 
L 285.251515 34.601761 
L 285.251515 53.889034 
L 306.681818 79.605398 
" style="fill:none;stroke:#b1a933;stroke-linecap:square;stroke-width:1.5;"/>
   </g>
   <g id="matplotlib.axis_1"/>
   <g id="matplotlib.axis_2"/>
   <g id="text_1">
    <!-- Orthogonal Layout (Square), N=11 -->
    <defs>
     <path d="M 39.40625 66.21875 
Q 28.65625 66.21875 22.328125 58.203125 
Q 16.015625 50.203125 16.015625 36.375 
Q 16.015625 22.609375 22.328125 14.59375 
Q 28.65625 6.59375 39.40625 6.59375 
Q 50.140625 6.59375 56.421875 14.59375 
Q 62.703125 22.609375 62.703125 36.375 
Q 62.703125 50.203125 56.421875 58.203125 
Q 50.140625 66.21875 39.40625 66.21875 
z
M 39.40625 74.21875 
Q 54.734375 74.21875 63.90625 63.9375 
Q 73.09375 53.65625 73.09375 36.375 
Q 73.09375 19.140625 63.90625 8.859375 
Q 54.734375 -1.421875 39.40625 -1.421875 
Q 24.03125 -1.421875 14.8125 8.828125 
Q 5.609375 19.09375 5.609375 36.375 
Q 5.609375 53.65625 14.8125 63.9375 
Q 24.03125 74.21875 39.40625 74.21875 
z
" id="DejaVuSans-79"/>
     <path d="M 41.109375 46.296875 
Q 39.59375 47.171875 37.8125 47.578125 
Q 36.03125 48 33.890625 48 
Q 26.265625 48 22.1875 43.046875 
Q 18.109375 38.09375 18.109375 28.8125 
L 18.109375 0 
L 9.078125 0 
L 9.078125 54.6875 
L 18.109375 54.6875 
L 18.109375 46.1875 
Q 20.953125 51.171875 25.484375 53.578125 
Q 30.03125 56 36.53125 56 
Q 37.453125 56 38.578125 55.875 
Q 39.703125 55.765625 41.0625 55.515625 
z
" id="DejaVuSans-114"/>
     <path d="M 18.3125 70.21875 
L 18.3125 54.6875 
L 36.8125 54.6875 
L 36.8125 47.703125 
L 18.3125 47.703125 
L 18.3125 18.015625 
Q 18.3125 11.328125 20.140625 9.421875 
Q 21.96875 7.515625 27.59375 7.515625 
L 36.8125 7.515625 
L 36.8125 0 
L 27.59375 0 
Q 17.1875 0 13.234375 3.875 
Q 9.28125 7.765625 9.28125 18.015625 
L 9.28125 47.703125 
L 2.6875 47.703125 
L 2.6875 54.6875 
L 9.28125 54.6875 
L 9.28125 70.21875 
z
" id="DejaVuSans-116"/>
     <path d="M 54.890625 33.015625 
L 54.890625 0 
L 45.90625 0 
L 45.90625 32.71875 
Q 45.90625 40.484375 42.875 44.328125 
Q 39.84375 48.1875 33.796875 48.1875 
Q 26.515625 48.1875 22.3125 43.546875 
Q 18.109375 38.921875 18.109375 30.90625 
L 18.109375 0 
L 9.078125 0 
L 9.078125 75.984375 
L 18.109375 75.984375 
L 18.109375 46.1875 
Q 21.34375 51.125 25.703125 53.5625 
Q 30.078125 56 35.796875 56 
Q 45.21875 56 50.046875 50.171875 
Q 54.890625 44.34375 54.890625 33.015625 
z
" id="DejaVuSans-104"/>
     <path d="M 30.609375 48.390625 
Q 23.390625 48.390625 19.1875 42.75 
Q 14.984375 37.109375 14.984375 27.296875 
Q 14.984375 17.484375 19.15625 11.84375 
Q 23.34375 6.203125 30.609375 6.203125 
Q 37.796875 6.203125 41.984375 11.859375 
Q 46.1875 17.53125 46.1875 27.296875 
Q 46.1875 37.015625 41.984375 42.703125 
Q 37.796875 48.390625 30.609375 48.390625 
z
M 30.609375 56 
Q 42.328125 56 49.015625 48.375 
Q 55.71875 40.765625 55.71875 27.296875 
Q 55.71875 13.875 49.015625 6.21875 
Q 42.328125 -1.421875 30.609375 -1.421875 
Q 18.84375 -1.421875 12.171875 6.21875 
Q 5.515625 13.875 5.515625 27.296875 
Q 5.515625 40.765625 12.171875 48.375 
Q 18.84375 56 30.609375 56 
z
" id="DejaVuSans-111"/>
     <path d="M 45.40625 27.984375 
Q 45.40625 37.75 41.375 43.109375 
Q 37.359375 48.484375 30.078125 48.484375 
Q 22.859375 48.484375 18.828125 43.109375 
Q 14.796875 37.75 14.796875 27.984375 
Q 14.796875 18.265625 18.828125 12.890625 
Q 22.859375 7.515625 30.078125 7.515625 
Q 37.359375 7.515625 41.375 12.890625 
Q 45.40625 18.265625 45.40625 27.984375 
z
M 54.390625 6.78125 
Q 54.390625 -7.171875 48.1875 -13.984375 
Q 42 -20.796875 29.203125 -20.796875 
Q 24.46875 -20.796875 20.265625 -20.09375 
Q 16.0625 -19.390625 12.109375 -17.921875 
L 12.109375 -9.1875 
Q 16.0625 -11.328125 19.921875 -12.34375 
Q 23.78125 -13.375 27.78125 -13.375 
Q 36.625 -13.375 41.015625 -8.765625 
Q 45.40625 -4.15625 45.40625 5.171875 
L 45.40625 9.625 
Q 42.625 4.78125 38.28125 2.390625 
Q 33.9375 0 27.875 0 
Q 17.828125 0 11.671875 7.65625 
Q 5.515625 15.328125 5.515625 27.984375 
Q 5.515625 40.671875 11.671875 48.328125 
Q 17.828125 56 27.875 56 
Q 33.9375 56 38.28125 53.609375 
Q 42.625 51.21875 45.40625 46.390625 
L 45.40625 54.6875 
L 54.390625 54.6875 
z
" id="DejaVuSans-103"/>
     <path d="M 54.890625 33.015625 
L 54.890625 0 
L 45.90625 0 
L 45.90625 32.71875 
Q 45.90625 40.484375 42.875 44.328125 
Q 39.84375 48.1875 33.796875 48.1875 
Q 26.515625 48.1875 22.3125 43.546875 
Q 18.109375 38.921875 18.109375 30.90625 
L 18.109375 0 
L 9.078125 0 
L 9.078125 54.6875 
L 18.109375 54.6875 
L 18.109375 46.1875 
Q 21.34375 51.125 25.703125 53.5625 
Q 30.078125 56 35.796875 56 
Q 45.21875 56 50.046875 50.171875 
Q 54.890625 44.34375 54.890625 33.015625 
z
" id="DejaVuSans-110"/>
     <path d="M 34.28125 27.484375 
Q 23.390625 27.484375 19.1875 25 
Q 14.984375 22.515625 14.984375 16.5 
Q 14.984375 11.71875 18.140625 8.90625 
Q 21.296875 6.109375 26.703125 6.109375 
Q 34.1875 6.109375 38.703125 11.40625 
Q 43.21875 16.703125 43.21875 25.484375 
L 43.21875 27.484375 
z
M 52.203125 31.203125 
L 52.203125 0 
L 43.21875 0 
L 43.21875 8.296875 
Q 40.140625 3.328125 35.546875 0.953125 
Q 30.953125 -1.421875 24.3125 -1.421875 
Q 15.921875 -1.421875 10.953125 3.296875 
Q 6 8.015625 6 15.921875 
Q 6 25.140625 12.171875 29.828125 
Q 18.359375 34.515625 30.609375 34.515625 
L 43.21875 34.515625 
L 43.21875 35.40625 
Q 43.21875 41.609375 39.140625 45 
Q 35.0625 48.390625 27.6875 48.390625 
Q 23 48.390625 18.546875 47.265625 
Q 14.109375 46.140625 10.015625 43.890625 
L 10.015625 52.203125 
Q 14.9375 54.109375 19.578125 55.046875 
Q 24.21875 56 28.609375 56 
Q 40.484375 56 46.34375 49.84375 
Q 52.203125 43.703125 52.203125 31.203125 
z
" id="DejaVuSans-97"/>
     <path d="M 9.421875 75.984375 
L 18.40625 75.984375 
L 18.40625 0 
L 9.421875 0 
z
" id="DejaVuSans-108"/>
     <path id="DejaVuSans-32"/>
     <path d="M 9.8125 72.90625 
L 19.671875 72.90625 
L 19.671875 8.296875 
L 55.171875 8.296875 
L 55.171875 0 
L 9.8125 0 
z
" id="DejaVuSans-76"/>
     <path d="M 32.171875 -5.078125 
Q 28.375 -14.84375 24.75 -17.8125 
Q 21.140625 -20.796875 15.09375 -20.796875 
L 7.90625 -20.796875 
L 7.90625 -13.28125 
L 13.1875 -13.28125 
Q 16.890625 -13.28125 18.9375 -11.515625 
Q 21 -9.765625 23.484375 -3.21875 
L 25.09375 0.875 
L 2.984375 54.6875 
L 12.5 54.6875 
L 29.59375 11.921875 
L 46.6875 54.6875 
L 56.203125 54.6875 
z
" id="DejaVuSans-121"/>
     <path d="M 8.5 21.578125 
L 8.5 54.6875 
L 17.484375 54.6875 
L 17.484375 21.921875 
Q 17.484375 14.15625 20.5 10.265625 
Q 23.53125 6.390625 29.59375 6.390625 
Q 36.859375 6.390625 41.078125 11.03125 
Q 45.3125 15.671875 45.3125 23.6875 
L 45.3125 54.6875 
L 54.296875 54.6875 
L 54.296875 0 
L 45.3125 0 
L 45.3125 8.40625 
Q 42.046875 3.421875 37.71875 1 
Q 33.40625 -1.421875 27.6875 -1.421875 
Q 18.265625 -1.421875 13.375 4.4375 
Q 8.5 10.296875 8.5 21.578125 
z
M 31.109375 56 
z
" id="DejaVuSans-117"/>
     <path d="M 31 75.875 
Q 24.46875 64.65625 21.28125 53.65625 
Q 18.109375 42.671875 18.109375 31.390625 
Q 18.109375 20.125 21.3125 9.0625 
Q 24.515625 -2 31 -13.1875 
L 23.1875 -13.1875 
Q 15.875 -1.703125 12.234375 9.375 
Q 8.59375 20.453125 8.59375 31.390625 
Q 8.59375 42.28125 12.203125 53.3125 
Q 15.828125 64.359375 23.1875 75.875 
z
" id="DejaVuSans-40"/>
     <path d="M 53.515625 70.515625 
L 53.515625 60.890625 
Q 47.90625 63.578125 42.921875 64.890625 
Q 37.9375 66.21875 33.296875 66.21875 
Q 25.25 66.21875 20.875 63.09375 
Q 16.5 59.96875 16.5 54.203125 
Q 16.5 49.359375 19.40625 46.890625 
Q 22.3125 44.4375 30.421875 42.921875 
L 36.375 41.703125 
Q 47.40625 39.59375 52.65625 34.296875 
Q 57.90625 29 57.90625 20.125 
Q 57.90625 9.515625 50.796875 4.046875 
Q 43.703125 -1.421875 29.984375 -1.421875 
Q 24.8125 -1.421875 18.96875 -0.25 
Q 13.140625 0.921875 6.890625 3.21875 
L 6.890625 13.375 
Q 12.890625 10.015625 18.65625 8.296875 
Q 24.421875 6.59375 29.984375 6.59375 
Q 38.421875 6.59375 43.015625 9.90625 
Q 47.609375 13.234375 47.609375 19.390625 
Q 47.609375 24.75 44.3125 27.78125 
Q 41.015625 30.8125 33.5 32.328125 
L 27.484375 33.5 
Q 16.453125 35.6875 11.515625 40.375 
Q 6.59375 45.0625 6.59375 53.421875 
Q 6.59375 63.09375 13.40625 68.65625 
Q 20.21875 74.21875 32.171875 74.21875 
Q 37.3125 74.21875 42.625 73.28125 
Q 47.953125 72.359375 53.515625 70.515625 
z
" id="DejaVuSans-83"/>
     <path d="M 14.796875 27.296875 
Q 14.796875 17.390625 18.875 11.75 
Q 22.953125 6.109375 30.078125 6.109375 
Q 37.203125 6.109375 41.296875 11.75 
Q 45.40625 17.390625 45.40625 27.296875 
Q 45.40625 37.203125 41.296875 42.84375 
Q 37.203125 48.484375 30.078125 48.484375 
Q 22.953125 48.484375 18.875 42.84375 
Q 14.796875 37.203125 14.796875 27.296875 
z
M 45.40625 8.203125 
Q 42.578125 3.328125 38.25 0.953125 
Q 33.9375 -1.421875 27.875 -1.421875 
Q 17.96875 -1.421875 11.734375 6.484375 
Q 5.515625 14.40625 5.515625 27.296875 
Q 5.515625 40.1875 11.734375 48.09375 
Q 17.96875 56 27.875 56 
Q 33.9375 56 38.25 53.625 
Q 42.578125 51.265625 45.40625 46.390625 
L 45.40625 54.6875 
L 54.390625 54.6875 
L 54.390625 -20.796875 
L 45.40625 -20.796875 
z
" id="DejaVuSans-113"/>
     <path d="M 56.203125 29.59375 
L 56.203125 25.203125 
L 14.890625 25.203125 
Q 15.484375 15.921875 20.484375 11.0625 
Q 25.484375 6.203125 34.421875 6.203125 
Q 39.59375 6.203125 44.453125 7.46875 
Q 49.3125 8.734375 54.109375 11.28125 
L 54.109375 2.78125 
Q 49.265625 0.734375 44.1875 -0.34375 
Q 39.109375 -1.421875 33.890625 -1.421875 
Q 20.796875 -1.421875 13.15625 6.1875 
Q 5.515625 13.8125 5.515625 26.8125 
Q 5.515625 40.234375 12.765625 48.109375 
Q 20.015625 56 32.328125 56 
Q 43.359375 56 49.78125 48.890625 
Q 56.203125 41.796875 56.203125 29.59375 
z
M 47.21875 32.234375 
Q 47.125 39.59375 43.09375 43.984375 
Q 39.0625 48.390625 32.421875 48.390625 
Q 24.90625 48.390625 20.390625 44.140625 
Q 15.875 39.890625 15.1875 32.171875 
z
" id="DejaVuSans-101"/>
     <path d="M 8.015625 75.875 
L 15.828125 75.875 
Q 23.140625 64.359375 26.78125 53.3125 
Q 30.421875 42.28125 30.421875 31.390625 
Q 30.421875 20.453125 26.78125 9.375 
Q 23.140625 -1.703125 15.828125 -13.1875 
L 8.015625 -13.1875 
Q 14.5 -2 17.703125 9.0625 
Q 20.90625 20.125 20.90625 31.390625 
Q 20.90625 42.671875 17.703125 53.65625 
Q 14.5 64.65625 8.015625 75.875 
z
" id="DejaVuSans-41"/>
     <path d="M 11.71875 12.40625 
L 22.015625 12.40625 
L 22.015625 4 
L 14.015625 -11.625 
L 7.71875 -11.625 
L 11.71875 4 
z
" id="DejaVuSans-44"/>
     <path d="M 9.8125 72.90625 
L 23.09375 72.90625 
L 55.421875 11.921875 
L 55.421875 72.90625 
L 64.984375 72.90625 
L 64.984375 0 
L 51.703125 0 
L 19.390625 60.984375 
L 19.390625 0 
L 9.8125 0 
z
" id="DejaVuSans-78"/>
     <path d="M 10.59375 45.40625 
L 73.1875 45.40625 
L 73.1875 37.203125 
L 10.59375 37.203125 
z
M 10.59375 25.484375 
L 73.1875 25.484375 
L 73.1875 17.1875 
L 10.59375 17.1875 
z
" id="DejaVuSans-61"/>
     <path d="M 12.40625 8.296875 
L 28.515625 8.296875 
L 28.515625 63.921875 
L 10.984375 60.40625 
L 10.984375 69.390625 
L 28.421875 72.90625 
L 38.28125 72.90625 
L 38.28125 8.296875 
L 54.390625 8.296875 
L 54.390625 0 
L 12.40625 0 
z
" id="DejaVuSans-49"/>
    </defs>
    <g transform="translate(73.345625 16.318125)scale(0.12 -0.12)">
     <use xlink:href="#DejaVuSans-79"/>
     <use x="78.710938" xlink:href="#DejaVuSans-114"/>
     <use x="119.824219" xlink:href="#DejaVuSans-116"/>
     <use x="159.033203" xlink:href="#DejaVuSans-104"/>
     <use x="222.412109" xlink:href="#DejaVuSans-111"/>
     <use x="283.59375" xlink:href="#DejaVuSans-103"/>
     <use x="347.070312" xlink:href="#DejaVuSans-111"/>
     <use x="408.251953" xlink:href="#DejaVuSans-110"/>
     <use x="471.630859" xlink:href="#DejaVuSans-97"/>
     <use x="532.910156" xlink:href="#DejaVuSans-108"/>
     <use x="560.693359" xlink:href="#DejaVuSans-32"/>
     <use x="592.480469" xlink:href="#DejaVuSans-76"/>
     <use x="648.193359" xlink:href="#DejaVuSans-97"/>
     <use x="709.472656" xlink:href="#DejaVuSans-121"/>
     <use x="768.652344" xlink:href="#DejaVuSans-111"/>
     <use x="829.833984" xlink:href="#DejaVuSans-117"/>
     <use x="893.212891" xlink:href="#DejaVuSans-116"/>
     <use x="932.421875" xlink:href="#DejaVuSans-32"/>
     <use x="964.208984" xlink:href="#DejaVuSans-40"/>
     <use x="1003.222656" xlink:href="#DejaVuSans-83"/>
     <use x="1066.699219" xlink:href="#DejaVuSans-113"/>
     <use x="1130.175781" xlink:href="#DejaVuSans-117"/>
     <use x="1193.554688" xlink:href="#DejaVuSans-97"/>
     <use x="1254.833984" xlink:href="#DejaVuSans-114"/>
     <use x="1295.916016" xlink:href="#DejaVuSans-101"/>
     <use x="1357.439453" xlink:href="#DejaVuSans-41"/>
     <use x="1396.453125" xlink:href="#DejaVuSans-44"/>
     <use x="1428.240234" xlink:href="#DejaVuSans-32"/>
     <use x="1460.027344" xlink:href="#DejaVuSans-78"/>
     <use x="1534.832031" xlink:href="#DejaVuSans-61"/>
     <use x="1618.621094" xlink:href="#DejaVuSans-49"/>
     <use x="1682.244141" xlink:href="#DejaVuSans-49"/>
    </g>
   </g>
  </g>
 </g>
 <defs>
  <clipPath id="p66d3f98984">
   <rect height="217.44" width="334.8" x="10.7" y="22.318125"/>
  </clipPath>
 </defs>
</svg>
