<?xml version="1.0" encoding="utf-8" standalone="no"?>
<!DOCTYPE svg PUBLIC "-//W3C//DTD SVG 1.1//EN"
  "http://www.w3.org/Graphics/SVG/1.1/DTD/svg11.dtd">
<!-- Created with matplotlib (https://matplotlib.org/) -->
<svg height="300.058125pt" version="1.1" viewBox="0 0 284.44 300.058125" width="284.44pt" xmlns="http://www.w3.org/2000/svg" xmlns:xlink="http://www.w3.org/1999/xlink">
 <defs>
  <style type="text/css">
*{stroke-linecap:butt;stroke-linejoin:round;}
  </style>
 </defs>
 <g id="figure_1">
  <g id="patch_1">
   <path d="M 0 300.058125 
L 284.44 300.058125 
L 284.44 0 
L 0 0 
z
" style="fill:none;"/>
  </g>
  <g id="axes_1">
   <g id="patch_2">
    <path d="M 10.7 289.358125 
L 273.74 289.358125 
L 273.74 26.318125 
L 10.7 26.318125 
z
" style="fill:none;"/>
   </g>
   <g id="PathCollection_1">
    <defs>
     <path d="M 0 7.071068 
C 1.875269 7.071068 3.673985 6.326016 5 5 
C 6.326016 3.673985 7.071068 1.875269 7.071068 0 
C 7.071068 -1.875269 6.326016 -3.673985 5 -5 
C 3.673985 -6.326016 1.875269 -7.071068 0 -7.071068 
C -1.875269 -7.071068 -3.673985 -6.326016 -5 -5 
C -6.326016 -3.673985 -7.071068 -1.875269 -7.071068 0 
C -7.071068 1.875269 -6.326016 3.673985 -5 5 
C -3.673985 6.326016 -1.875269 7.071068 0 7.071068 
z
" id="m3162816920" style="stroke:#44525c;"/>
    </defs>
    <g>
     <use style="fill:#ffffff;fill-opacity:0;stroke:#44525c;" x="30.342597" xlink:href="#m3162816920" y="149.297865"/>
     <use style="fill:#ffffff;fill-opacity:0;stroke:#44525c;" x="47.423117" xlink:href="#m3162816920" y="149.297865"/>
     <use style="fill:#ffffff;fill-opacity:0;stroke:#44525c;" x="64.503636" xlink:href="#m3162816920" y="149.297865"/>
     <use style="fill:#ffffff;fill-opacity:0;stroke:#44525c;" x="81.584156" xlink:href="#m3162816920" y="149.297865"/>
     <use style="fill:#ffffff;fill-opacity:0;stroke:#44525c;" x="98.664675" xlink:href="#m3162816920" y="149.297865"/>
     <use style="fill:#ffffff;fill-opacity:0;stroke:#44525c;" x="115.745195" xlink:href="#m3162816920" y="149.297865"/>
     <use style="fill:#ffffff;fill-opacity:0;stroke:#44525c;" x="132.825714" xlink:href="#m3162816920" y="149.297865"/>
     <use style="fill:#ffffff;fill-opacity:0;stroke:#44525c;" x="30.342597" xlink:href="#m3162816920" y="132.217346"/>
     <use style="fill:#ffffff;fill-opacity:0;stroke:#44525c;" x="47.423117" xlink:href="#m3162816920" y="132.217346"/>
     <use style="fill:#ffffff;fill-opacity:0;stroke:#44525c;" x="64.503636" xlink:href="#m3162816920" y="132.217346"/>
     <use style="fill:#ffffff;fill-opacity:0;stroke:#44525c;" x="81.584156" xlink:href="#m3162816920" y="132.217346"/>
     <use style="fill:#ffffff;fill-opacity:0;stroke:#44525c;" x="98.664675" xlink:href="#m3162816920" y="132.217346"/>
     <use style="fill:#ffffff;fill-opacity:0;stroke:#44525c;" x="115.745195" xlink:href="#m3162816920" y="132.217346"/>
     <use style="fill:#ffffff;fill-opacity:0;stroke:#44525c;" x="132.825714" xlink:href="#m3162816920" y="132.217346"/>
     <use style="fill:#ffffff;fill-opacity:0;stroke:#44525c;" x="30.342597" xlink:href="#m3162816920" y="115.136826"/>
     <use style="fill:#ffffff;fill-opacity:0;stroke:#44525c;" x="47.423117" xlink:href="#m3162816920" y="115.136826"/>
     <use style="fill:#ffffff;fill-opacity:0;stroke:#44525c;" x="64.503636" xlink:href="#m3162816920" y="115.136826"/>
     <use style="fill:#ffffff;fill-opacity:0;stroke:#44525c;" x="81.584156" xlink:href="#m3162816920" y="115.136826"/>
     <use style="fill:#ffffff;fill-opacity:0;stroke:#44525c;" x="98.664675" xlink:href="#m3162816920" y="115.136826"/>
     <use style="fill:#ffffff;fill-opacity:0;stroke:#44525c;" x="115.745195" xlink:href="#m3162816920" y="115.136826"/>
     <use style="fill:#ffffff;fill-opacity:0;stroke:#44525c;" x="132.825714" xlink:href="#m3162816920" y="115.136826"/>
     <use style="fill:#ffffff;fill-opacity:0;stroke:#44525c;" x="30.342597" xlink:href="#m3162816920" y="98.056307"/>
     <use style="fill:#ffffff;fill-opacity:0;stroke:#44525c;" x="47.423117" xlink:href="#m3162816920" y="98.056307"/>
     <use style="fill:#ffffff;fill-opacity:0;stroke:#44525c;" x="64.503636" xlink:href="#m3162816920" y="98.056307"/>
     <use style="fill:#ffffff;fill-opacity:0;stroke:#44525c;" x="81.584156" xlink:href="#m3162816920" y="98.056307"/>
     <use style="fill:#ffffff;fill-opacity:0;stroke:#44525c;" x="98.664675" xlink:href="#m3162816920" y="98.056307"/>
     <use style="fill:#ffffff;fill-opacity:0;stroke:#44525c;" x="115.745195" xlink:href="#m3162816920" y="98.056307"/>
     <use style="fill:#ffffff;fill-opacity:0;stroke:#44525c;" x="132.825714" xlink:href="#m3162816920" y="98.056307"/>
     <use style="fill:#ffffff;fill-opacity:0;stroke:#44525c;" x="30.342597" xlink:href="#m3162816920" y="80.975787"/>
     <use style="fill:#ffffff;fill-opacity:0;stroke:#44525c;" x="47.423117" xlink:href="#m3162816920" y="80.975787"/>
     <use style="fill:#ffffff;fill-opacity:0;stroke:#44525c;" x="64.503636" xlink:href="#m3162816920" y="80.975787"/>
     <use style="fill:#ffffff;fill-opacity:0;stroke:#44525c;" x="81.584156" xlink:href="#m3162816920" y="80.975787"/>
     <use style="fill:#ffffff;fill-opacity:0;stroke:#44525c;" x="98.664675" xlink:href="#m3162816920" y="80.975787"/>
     <use style="fill:#ffffff;fill-opacity:0;stroke:#44525c;" x="115.745195" xlink:href="#m3162816920" y="80.975787"/>
     <use style="fill:#ffffff;fill-opacity:0;stroke:#44525c;" x="132.825714" xlink:href="#m3162816920" y="80.975787"/>
     <use style="fill:#ffffff;fill-opacity:0;stroke:#44525c;" x="30.342597" xlink:href="#m3162816920" y="63.895268"/>
     <use style="fill:#ffffff;fill-opacity:0;stroke:#44525c;" x="47.423117" xlink:href="#m3162816920" y="63.895268"/>
     <use style="fill:#ffffff;fill-opacity:0;stroke:#44525c;" x="64.503636" xlink:href="#m3162816920" y="63.895268"/>
     <use style="fill:#ffffff;fill-opacity:0;stroke:#44525c;" x="81.584156" xlink:href="#m3162816920" y="63.895268"/>
     <use style="fill:#ffffff;fill-opacity:0;stroke:#44525c;" x="98.664675" xlink:href="#m3162816920" y="63.895268"/>
     <use style="fill:#ffffff;fill-opacity:0;stroke:#44525c;" x="115.745195" xlink:href="#m3162816920" y="63.895268"/>
     <use style="fill:#ffffff;fill-opacity:0;stroke:#44525c;" x="132.825714" xlink:href="#m3162816920" y="63.895268"/>
     <use style="fill:#ffffff;fill-opacity:0;stroke:#44525c;" x="30.342597" xlink:href="#m3162816920" y="46.814748"/>
     <use style="fill:#ffffff;fill-opacity:0;stroke:#44525c;" x="47.423117" xlink:href="#m3162816920" y="46.814748"/>
     <use style="fill:#ffffff;fill-opacity:0;stroke:#44525c;" x="64.503636" xlink:href="#m3162816920" y="46.814748"/>
     <use style="fill:#ffffff;fill-opacity:0;stroke:#44525c;" x="81.584156" xlink:href="#m3162816920" y="46.814748"/>
     <use style="fill:#ffffff;fill-opacity:0;stroke:#44525c;" x="98.664675" xlink:href="#m3162816920" y="46.814748"/>
     <use style="fill:#ffffff;fill-opacity:0;stroke:#44525c;" x="115.745195" xlink:href="#m3162816920" y="46.814748"/>
     <use style="fill:#ffffff;fill-opacity:0;stroke:#44525c;" x="132.825714" xlink:href="#m3162816920" y="46.814748"/>
    </g>
   </g>
   <g id="PathCollection_2">
    <defs>
     <path d="M 0 7.071068 
C 1.875269 7.071068 3.673985 6.326016 5 5 
C 6.326016 3.673985 7.071068 1.875269 7.071068 0 
C 7.071068 -1.875269 6.326016 -3.673985 5 -5 
C 3.673985 -6.326016 1.875269 -7.071068 0 -7.071068 
C -1.875269 -7.071068 -3.673985 -6.326016 -5 -5 
C -6.326016 -3.673985 -7.071068 -1.875269 -7.071068 0 
C -7.071068 1.875269 -6.326016 3.673985 -5 5 
C -3.673985 6.326016 -1.875269 7.071068 0 7.071068 
z
" id="m01fc6d50a8" style="stroke:#44525c;"/>
    </defs>
    <g>
     <use style="fill:#44525c;stroke:#44525c;" x="30.342597" xlink:href="#m01fc6d50a8" y="46.814748"/>
    </g>
   </g>
   <g id="PathCollection_3">
    <g>
     <use style="fill:#44525c;stroke:#44525c;" x="47.423117" xlink:href="#m01fc6d50a8" y="63.895268"/>
    </g>
   </g>
   <g id="PathCollection_4">
    <g>
     <use style="fill:#44525c;stroke:#44525c;" x="64.503636" xlink:href="#m01fc6d50a8" y="80.975787"/>
    </g>
   </g>
   <g id="PathCollection_5">
    <g>
     <use style="fill:#44525c;stroke:#44525c;" x="81.584156" xlink:href="#m01fc6d50a8" y="98.056307"/>
    </g>
   </g>
   <g id="PathCollection_6">
    <g>
     <use style="fill:#44525c;stroke:#44525c;" x="98.664675" xlink:href="#m01fc6d50a8" y="115.136826"/>
    </g>
   </g>
   <g id="PathCollection_7">
    <g>
     <use style="fill:#44525c;stroke:#44525c;" x="115.745195" xlink:href="#m01fc6d50a8" y="132.217346"/>
    </g>
   </g>
   <g id="PathCollection_8">
    <g>
     <use style="fill:#44525c;stroke:#44525c;" x="132.825714" xlink:href="#m01fc6d50a8" y="149.297865"/>
    </g>
   </g>
   <g id="PathCollection_9">
    <g>
     <use style="fill:#ffffff;fill-opacity:0;stroke:#44525c;" x="30.342597" xlink:href="#m3162816920" y="270.569554"/>
     <use style="fill:#ffffff;fill-opacity:0;stroke:#44525c;" x="47.423117" xlink:href="#m3162816920" y="270.569554"/>
     <use style="fill:#ffffff;fill-opacity:0;stroke:#44525c;" x="64.503636" xlink:href="#m3162816920" y="270.569554"/>
     <use style="fill:#ffffff;fill-opacity:0;stroke:#44525c;" x="81.584156" xlink:href="#m3162816920" y="270.569554"/>
     <use style="fill:#ffffff;fill-opacity:0;stroke:#44525c;" x="98.664675" xlink:href="#m3162816920" y="270.569554"/>
     <use style="fill:#ffffff;fill-opacity:0;stroke:#44525c;" x="115.745195" xlink:href="#m3162816920" y="270.569554"/>
     <use style="fill:#ffffff;fill-opacity:0;stroke:#44525c;" x="132.825714" xlink:href="#m3162816920" y="270.569554"/>
     <use style="fill:#ffffff;fill-opacity:0;stroke:#44525c;" x="30.342597" xlink:href="#m3162816920" y="253.489034"/>
     <use style="fill:#ffffff;fill-opacity:0;stroke:#44525c;" x="47.423117" xlink:href="#m3162816920" y="253.489034"/>
     <use style="fill:#ffffff;fill-opacity:0;stroke:#44525c;" x="64.503636" xlink:href="#m3162816920" y="253.489034"/>
     <use style="fill:#ffffff;fill-opacity:0;stroke:#44525c;" x="81.584156" xlink:href="#m3162816920" y="253.489034"/>
     <use style="fill:#ffffff;fill-opacity:0;stroke:#44525c;" x="98.664675" xlink:href="#m3162816920" y="253.489034"/>
     <use style="fill:#ffffff;fill-opacity:0;stroke:#44525c;" x="115.745195" xlink:href="#m3162816920" y="253.489034"/>
     <use style="fill:#ffffff;fill-opacity:0;stroke:#44525c;" x="132.825714" xlink:href="#m3162816920" y="253.489034"/>
     <use style="fill:#ffffff;fill-opacity:0;stroke:#44525c;" x="30.342597" xlink:href="#m3162816920" y="236.408515"/>
     <use style="fill:#ffffff;fill-opacity:0;stroke:#44525c;" x="47.423117" xlink:href="#m3162816920" y="236.408515"/>
     <use style="fill:#ffffff;fill-opacity:0;stroke:#44525c;" x="64.503636" xlink:href="#m3162816920" y="236.408515"/>
     <use style="fill:#ffffff;fill-opacity:0;stroke:#44525c;" x="81.584156" xlink:href="#m3162816920" y="236.408515"/>
     <use style="fill:#ffffff;fill-opacity:0;stroke:#44525c;" x="98.664675" xlink:href="#m3162816920" y="236.408515"/>
     <use style="fill:#ffffff;fill-opacity:0;stroke:#44525c;" x="115.745195" xlink:href="#m3162816920" y="236.408515"/>
     <use style="fill:#ffffff;fill-opacity:0;stroke:#44525c;" x="132.825714" xlink:href="#m3162816920" y="236.408515"/>
     <use style="fill:#ffffff;fill-opacity:0;stroke:#44525c;" x="30.342597" xlink:href="#m3162816920" y="219.327995"/>
     <use style="fill:#ffffff;fill-opacity:0;stroke:#44525c;" x="47.423117" xlink:href="#m3162816920" y="219.327995"/>
     <use style="fill:#ffffff;fill-opacity:0;stroke:#44525c;" x="64.503636" xlink:href="#m3162816920" y="219.327995"/>
     <use style="fill:#ffffff;fill-opacity:0;stroke:#44525c;" x="81.584156" xlink:href="#m3162816920" y="219.327995"/>
     <use style="fill:#ffffff;fill-opacity:0;stroke:#44525c;" x="98.664675" xlink:href="#m3162816920" y="219.327995"/>
     <use style="fill:#ffffff;fill-opacity:0;stroke:#44525c;" x="115.745195" xlink:href="#m3162816920" y="219.327995"/>
     <use style="fill:#ffffff;fill-opacity:0;stroke:#44525c;" x="132.825714" xlink:href="#m3162816920" y="219.327995"/>
     <use style="fill:#ffffff;fill-opacity:0;stroke:#44525c;" x="30.342597" xlink:href="#m3162816920" y="202.247476"/>
     <use style="fill:#ffffff;fill-opacity:0;stroke:#44525c;" x="47.423117" xlink:href="#m3162816920" y="202.247476"/>
     <use style="fill:#ffffff;fill-opacity:0;stroke:#44525c;" x="64.503636" xlink:href="#m3162816920" y="202.247476"/>
     <use style="fill:#ffffff;fill-opacity:0;stroke:#44525c;" x="81.584156" xlink:href="#m3162816920" y="202.247476"/>
     <use style="fill:#ffffff;fill-opacity:0;stroke:#44525c;" x="98.664675" xlink:href="#m3162816920" y="202.247476"/>
     <use style="fill:#ffffff;fill-opacity:0;stroke:#44525c;" x="115.745195" xlink:href="#m3162816920" y="202.247476"/>
     <use style="fill:#ffffff;fill-opacity:0;stroke:#44525c;" x="132.825714" xlink:href="#m3162816920" y="202.247476"/>
     <use style="fill:#ffffff;fill-opacity:0;stroke:#44525c;" x="30.342597" xlink:href="#m3162816920" y="185.166956"/>
     <use style="fill:#ffffff;fill-opacity:0;stroke:#44525c;" x="47.423117" xlink:href="#m3162816920" y="185.166956"/>
     <use style="fill:#ffffff;fill-opacity:0;stroke:#44525c;" x="64.503636" xlink:href="#m3162816920" y="185.166956"/>
     <use style="fill:#ffffff;fill-opacity:0;stroke:#44525c;" x="81.584156" xlink:href="#m3162816920" y="185.166956"/>
     <use style="fill:#ffffff;fill-opacity:0;stroke:#44525c;" x="98.664675" xlink:href="#m3162816920" y="185.166956"/>
     <use style="fill:#ffffff;fill-opacity:0;stroke:#44525c;" x="115.745195" xlink:href="#m3162816920" y="185.166956"/>
     <use style="fill:#ffffff;fill-opacity:0;stroke:#44525c;" x="132.825714" xlink:href="#m3162816920" y="185.166956"/>
     <use style="fill:#ffffff;fill-opacity:0;stroke:#44525c;" x="30.342597" xlink:href="#m3162816920" y="168.086437"/>
     <use style="fill:#ffffff;fill-opacity:0;stroke:#44525c;" x="47.423117" xlink:href="#m3162816920" y="168.086437"/>
     <use style="fill:#ffffff;fill-opacity:0;stroke:#44525c;" x="64.503636" xlink:href="#m3162816920" y="168.086437"/>
     <use style="fill:#ffffff;fill-opacity:0;stroke:#44525c;" x="81.584156" xlink:href="#m3162816920" y="168.086437"/>
     <use style="fill:#ffffff;fill-opacity:0;stroke:#44525c;" x="98.664675" xlink:href="#m3162816920" y="168.086437"/>
     <use style="fill:#ffffff;fill-opacity:0;stroke:#44525c;" x="115.745195" xlink:href="#m3162816920" y="168.086437"/>
     <use style="fill:#ffffff;fill-opacity:0;stroke:#44525c;" x="132.825714" xlink:href="#m3162816920" y="168.086437"/>
    </g>
   </g>
   <g id="PathCollection_10">
    <g>
     <use style="fill:#44525c;stroke:#44525c;" x="30.342597" xlink:href="#m01fc6d50a8" y="168.086437"/>
    </g>
   </g>
   <g id="PathCollection_11">
    <g>
     <use style="fill:#44525c;stroke:#44525c;" x="47.423117" xlink:href="#m01fc6d50a8" y="185.166956"/>
    </g>
   </g>
   <g id="PathCollection_12">
    <g>
     <use style="fill:#44525c;stroke:#44525c;" x="64.503636" xlink:href="#m01fc6d50a8" y="202.247476"/>
    </g>
   </g>
   <g id="PathCollection_13">
    <g>
     <use style="fill:#44525c;stroke:#44525c;" x="81.584156" xlink:href="#m01fc6d50a8" y="219.327995"/>
    </g>
   </g>
   <g id="PathCollection_14">
    <g>
     <use style="fill:#44525c;stroke:#44525c;" x="98.664675" xlink:href="#m01fc6d50a8" y="236.408515"/>
    </g>
   </g>
   <g id="PathCollection_15">
    <g>
     <use style="fill:#44525c;stroke:#44525c;" x="115.745195" xlink:href="#m01fc6d50a8" y="253.489034"/>
    </g>
   </g>
   <g id="PathCollection_16">
    <g>
     <use style="fill:#44525c;stroke:#44525c;" x="132.825714" xlink:href="#m01fc6d50a8" y="270.569554"/>
    </g>
   </g>
   <g id="PathCollection_17">
    <g>
     <use style="fill:#ffffff;fill-opacity:0;stroke:#44525c;" x="151.614286" xlink:href="#m3162816920" y="149.297865"/>
     <use style="fill:#ffffff;fill-opacity:0;stroke:#44525c;" x="168.694805" xlink:href="#m3162816920" y="149.297865"/>
     <use style="fill:#ffffff;fill-opacity:0;stroke:#44525c;" x="185.775325" xlink:href="#m3162816920" y="149.297865"/>
     <use style="fill:#ffffff;fill-opacity:0;stroke:#44525c;" x="202.855844" xlink:href="#m3162816920" y="149.297865"/>
     <use style="fill:#ffffff;fill-opacity:0;stroke:#44525c;" x="219.936364" xlink:href="#m3162816920" y="149.297865"/>
     <use style="fill:#ffffff;fill-opacity:0;stroke:#44525c;" x="237.016883" xlink:href="#m3162816920" y="149.297865"/>
     <use style="fill:#ffffff;fill-opacity:0;stroke:#44525c;" x="254.097403" xlink:href="#m3162816920" y="149.297865"/>
     <use style="fill:#ffffff;fill-opacity:0;stroke:#44525c;" x="151.614286" xlink:href="#m3162816920" y="132.217346"/>
     <use style="fill:#ffffff;fill-opacity:0;stroke:#44525c;" x="168.694805" xlink:href="#m3162816920" y="132.217346"/>
     <use style="fill:#ffffff;fill-opacity:0;stroke:#44525c;" x="185.775325" xlink:href="#m3162816920" y="132.217346"/>
     <use style="fill:#ffffff;fill-opacity:0;stroke:#44525c;" x="202.855844" xlink:href="#m3162816920" y="132.217346"/>
     <use style="fill:#ffffff;fill-opacity:0;stroke:#44525c;" x="219.936364" xlink:href="#m3162816920" y="132.217346"/>
     <use style="fill:#ffffff;fill-opacity:0;stroke:#44525c;" x="237.016883" xlink:href="#m3162816920" y="132.217346"/>
     <use style="fill:#ffffff;fill-opacity:0;stroke:#44525c;" x="254.097403" xlink:href="#m3162816920" y="132.217346"/>
     <use style="fill:#ffffff;fill-opacity:0;stroke:#44525c;" x="151.614286" xlink:href="#m3162816920" y="115.136826"/>
     <use style="fill:#ffffff;fill-opacity:0;stroke:#44525c;" x="168.694805" xlink:href="#m3162816920" y="115.136826"/>
     <use style="fill:#ffffff;fill-opacity:0;stroke:#44525c;" x="185.775325" xlink:href="#m3162816920" y="115.136826"/>
     <use style="fill:#ffffff;fill-opacity:0;stroke:#44525c;" x="202.855844" xlink:href="#m3162816920" y="115.136826"/>
     <use style="fill:#ffffff;fill-opacity:0;stroke:#44525c;" x="219.936364" xlink:href="#m3162816920" y="115.136826"/>
     <use style="fill:#ffffff;fill-opacity:0;stroke:#44525c;" x="237.016883" xlink:href="#m3162816920" y="115.136826"/>
     <use style="fill:#ffffff;fill-opacity:0;stroke:#44525c;" x="254.097403" xlink:href="#m3162816920" y="115.136826"/>
     <use style="fill:#ffffff;fill-opacity:0;stroke:#44525c;" x="151.614286" xlink:href="#m3162816920" y="98.056307"/>
     <use style="fill:#ffffff;fill-opacity:0;stroke:#44525c;" x="168.694805" xlink:href="#m3162816920" y="98.056307"/>
     <use style="fill:#ffffff;fill-opacity:0;stroke:#44525c;" x="185.775325" xlink:href="#m3162816920" y="98.056307"/>
     <use style="fill:#ffffff;fill-opacity:0;stroke:#44525c;" x="202.855844" xlink:href="#m3162816920" y="98.056307"/>
     <use style="fill:#ffffff;fill-opacity:0;stroke:#44525c;" x="219.936364" xlink:href="#m3162816920" y="98.056307"/>
     <use style="fill:#ffffff;fill-opacity:0;stroke:#44525c;" x="237.016883" xlink:href="#m3162816920" y="98.056307"/>
     <use style="fill:#ffffff;fill-opacity:0;stroke:#44525c;" x="254.097403" xlink:href="#m3162816920" y="98.056307"/>
     <use style="fill:#ffffff;fill-opacity:0;stroke:#44525c;" x="151.614286" xlink:href="#m3162816920" y="80.975787"/>
     <use style="fill:#ffffff;fill-opacity:0;stroke:#44525c;" x="168.694805" xlink:href="#m3162816920" y="80.975787"/>
     <use style="fill:#ffffff;fill-opacity:0;stroke:#44525c;" x="185.775325" xlink:href="#m3162816920" y="80.975787"/>
     <use style="fill:#ffffff;fill-opacity:0;stroke:#44525c;" x="202.855844" xlink:href="#m3162816920" y="80.975787"/>
     <use style="fill:#ffffff;fill-opacity:0;stroke:#44525c;" x="219.936364" xlink:href="#m3162816920" y="80.975787"/>
     <use style="fill:#ffffff;fill-opacity:0;stroke:#44525c;" x="237.016883" xlink:href="#m3162816920" y="80.975787"/>
     <use style="fill:#ffffff;fill-opacity:0;stroke:#44525c;" x="254.097403" xlink:href="#m3162816920" y="80.975787"/>
     <use style="fill:#ffffff;fill-opacity:0;stroke:#44525c;" x="151.614286" xlink:href="#m3162816920" y="63.895268"/>
     <use style="fill:#ffffff;fill-opacity:0;stroke:#44525c;" x="168.694805" xlink:href="#m3162816920" y="63.895268"/>
     <use style="fill:#ffffff;fill-opacity:0;stroke:#44525c;" x="185.775325" xlink:href="#m3162816920" y="63.895268"/>
     <use style="fill:#ffffff;fill-opacity:0;stroke:#44525c;" x="202.855844" xlink:href="#m3162816920" y="63.895268"/>
     <use style="fill:#ffffff;fill-opacity:0;stroke:#44525c;" x="219.936364" xlink:href="#m3162816920" y="63.895268"/>
     <use style="fill:#ffffff;fill-opacity:0;stroke:#44525c;" x="237.016883" xlink:href="#m3162816920" y="63.895268"/>
     <use style="fill:#ffffff;fill-opacity:0;stroke:#44525c;" x="254.097403" xlink:href="#m3162816920" y="63.895268"/>
     <use style="fill:#ffffff;fill-opacity:0;stroke:#44525c;" x="151.614286" xlink:href="#m3162816920" y="46.814748"/>
     <use style="fill:#ffffff;fill-opacity:0;stroke:#44525c;" x="168.694805" xlink:href="#m3162816920" y="46.814748"/>
     <use style="fill:#ffffff;fill-opacity:0;stroke:#44525c;" x="185.775325" xlink:href="#m3162816920" y="46.814748"/>
     <use style="fill:#ffffff;fill-opacity:0;stroke:#44525c;" x="202.855844" xlink:href="#m3162816920" y="46.814748"/>
     <use style="fill:#ffffff;fill-opacity:0;stroke:#44525c;" x="219.936364" xlink:href="#m3162816920" y="46.814748"/>
     <use style="fill:#ffffff;fill-opacity:0;stroke:#44525c;" x="237.016883" xlink:href="#m3162816920" y="46.814748"/>
     <use style="fill:#ffffff;fill-opacity:0;stroke:#44525c;" x="254.097403" xlink:href="#m3162816920" y="46.814748"/>
    </g>
   </g>
   <g id="PathCollection_18">
    <g>
     <use style="fill:#44525c;stroke:#44525c;" x="151.614286" xlink:href="#m01fc6d50a8" y="46.814748"/>
    </g>
   </g>
   <g id="PathCollection_19">
    <g>
     <use style="fill:#44525c;stroke:#44525c;" x="168.694805" xlink:href="#m01fc6d50a8" y="63.895268"/>
    </g>
   </g>
   <g id="PathCollection_20">
    <g>
     <use style="fill:#44525c;stroke:#44525c;" x="185.775325" xlink:href="#m01fc6d50a8" y="80.975787"/>
    </g>
   </g>
   <g id="PathCollection_21">
    <g>
     <use style="fill:#44525c;stroke:#44525c;" x="202.855844" xlink:href="#m01fc6d50a8" y="98.056307"/>
    </g>
   </g>
   <g id="PathCollection_22">
    <g>
     <use style="fill:#44525c;stroke:#44525c;" x="219.936364" xlink:href="#m01fc6d50a8" y="115.136826"/>
    </g>
   </g>
   <g id="PathCollection_23">
    <g>
     <use style="fill:#44525c;stroke:#44525c;" x="237.016883" xlink:href="#m01fc6d50a8" y="132.217346"/>
    </g>
   </g>
   <g id="PathCollection_24">
    <g>
     <use style="fill:#44525c;stroke:#44525c;" x="254.097403" xlink:href="#m01fc6d50a8" y="149.297865"/>
    </g>
   </g>
   <g id="PathCollection_25">
    <g>
     <use style="fill:#ffffff;fill-opacity:0;stroke:#44525c;" x="151.614286" xlink:href="#m3162816920" y="270.569554"/>
     <use style="fill:#ffffff;fill-opacity:0;stroke:#44525c;" x="168.694805" xlink:href="#m3162816920" y="270.569554"/>
     <use style="fill:#ffffff;fill-opacity:0;stroke:#44525c;" x="185.775325" xlink:href="#m3162816920" y="270.569554"/>
     <use style="fill:#ffffff;fill-opacity:0;stroke:#44525c;" x="202.855844" xlink:href="#m3162816920" y="270.569554"/>
     <use style="fill:#ffffff;fill-opacity:0;stroke:#44525c;" x="219.936364" xlink:href="#m3162816920" y="270.569554"/>
     <use style="fill:#ffffff;fill-opacity:0;stroke:#44525c;" x="237.016883" xlink:href="#m3162816920" y="270.569554"/>
     <use style="fill:#ffffff;fill-opacity:0;stroke:#44525c;" x="254.097403" xlink:href="#m3162816920" y="270.569554"/>
     <use style="fill:#ffffff;fill-opacity:0;stroke:#44525c;" x="151.614286" xlink:href="#m3162816920" y="253.489034"/>
     <use style="fill:#ffffff;fill-opacity:0;stroke:#44525c;" x="168.694805" xlink:href="#m3162816920" y="253.489034"/>
     <use style="fill:#ffffff;fill-opacity:0;stroke:#44525c;" x="185.775325" xlink:href="#m3162816920" y="253.489034"/>
     <use style="fill:#ffffff;fill-opacity:0;stroke:#44525c;" x="202.855844" xlink:href="#m3162816920" y="253.489034"/>
     <use style="fill:#ffffff;fill-opacity:0;stroke:#44525c;" x="219.936364" xlink:href="#m3162816920" y="253.489034"/>
     <use style="fill:#ffffff;fill-opacity:0;stroke:#44525c;" x="237.016883" xlink:href="#m3162816920" y="253.489034"/>
     <use style="fill:#ffffff;fill-opacity:0;stroke:#44525c;" x="254.097403" xlink:href="#m3162816920" y="253.489034"/>
     <use style="fill:#ffffff;fill-opacity:0;stroke:#44525c;" x="151.614286" xlink:href="#m3162816920" y="236.408515"/>
     <use style="fill:#ffffff;fill-opacity:0;stroke:#44525c;" x="168.694805" xlink:href="#m3162816920" y="236.408515"/>
     <use style="fill:#ffffff;fill-opacity:0;stroke:#44525c;" x="185.775325" xlink:href="#m3162816920" y="236.408515"/>
     <use style="fill:#ffffff;fill-opacity:0;stroke:#44525c;" x="202.855844" xlink:href="#m3162816920" y="236.408515"/>
     <use style="fill:#ffffff;fill-opacity:0;stroke:#44525c;" x="219.936364" xlink:href="#m3162816920" y="236.408515"/>
     <use style="fill:#ffffff;fill-opacity:0;stroke:#44525c;" x="237.016883" xlink:href="#m3162816920" y="236.408515"/>
     <use style="fill:#ffffff;fill-opacity:0;stroke:#44525c;" x="254.097403" xlink:href="#m3162816920" y="236.408515"/>
     <use style="fill:#ffffff;fill-opacity:0;stroke:#44525c;" x="151.614286" xlink:href="#m3162816920" y="219.327995"/>
     <use style="fill:#ffffff;fill-opacity:0;stroke:#44525c;" x="168.694805" xlink:href="#m3162816920" y="219.327995"/>
     <use style="fill:#ffffff;fill-opacity:0;stroke:#44525c;" x="185.775325" xlink:href="#m3162816920" y="219.327995"/>
     <use style="fill:#ffffff;fill-opacity:0;stroke:#44525c;" x="202.855844" xlink:href="#m3162816920" y="219.327995"/>
     <use style="fill:#ffffff;fill-opacity:0;stroke:#44525c;" x="219.936364" xlink:href="#m3162816920" y="219.327995"/>
     <use style="fill:#ffffff;fill-opacity:0;stroke:#44525c;" x="237.016883" xlink:href="#m3162816920" y="219.327995"/>
     <use style="fill:#ffffff;fill-opacity:0;stroke:#44525c;" x="254.097403" xlink:href="#m3162816920" y="219.327995"/>
     <use style="fill:#ffffff;fill-opacity:0;stroke:#44525c;" x="151.614286" xlink:href="#m3162816920" y="202.247476"/>
     <use style="fill:#ffffff;fill-opacity:0;stroke:#44525c;" x="168.694805" xlink:href="#m3162816920" y="202.247476"/>
     <use style="fill:#ffffff;fill-opacity:0;stroke:#44525c;" x="185.775325" xlink:href="#m3162816920" y="202.247476"/>
     <use style="fill:#ffffff;fill-opacity:0;stroke:#44525c;" x="202.855844" xlink:href="#m3162816920" y="202.247476"/>
     <use style="fill:#ffffff;fill-opacity:0;stroke:#44525c;" x="219.936364" xlink:href="#m3162816920" y="202.247476"/>
     <use style="fill:#ffffff;fill-opacity:0;stroke:#44525c;" x="237.016883" xlink:href="#m3162816920" y="202.247476"/>
     <use style="fill:#ffffff;fill-opacity:0;stroke:#44525c;" x="254.097403" xlink:href="#m3162816920" y="202.247476"/>
     <use style="fill:#ffffff;fill-opacity:0;stroke:#44525c;" x="151.614286" xlink:href="#m3162816920" y="185.166956"/>
     <use style="fill:#ffffff;fill-opacity:0;stroke:#44525c;" x="168.694805" xlink:href="#m3162816920" y="185.166956"/>
     <use style="fill:#ffffff;fill-opacity:0;stroke:#44525c;" x="185.775325" xlink:href="#m3162816920" y="185.166956"/>
     <use style="fill:#ffffff;fill-opacity:0;stroke:#44525c;" x="202.855844" xlink:href="#m3162816920" y="185.166956"/>
     <use style="fill:#ffffff;fill-opacity:0;stroke:#44525c;" x="219.936364" xlink:href="#m3162816920" y="185.166956"/>
     <use style="fill:#ffffff;fill-opacity:0;stroke:#44525c;" x="237.016883" xlink:href="#m3162816920" y="185.166956"/>
     <use style="fill:#ffffff;fill-opacity:0;stroke:#44525c;" x="254.097403" xlink:href="#m3162816920" y="185.166956"/>
     <use style="fill:#ffffff;fill-opacity:0;stroke:#44525c;" x="151.614286" xlink:href="#m3162816920" y="168.086437"/>
     <use style="fill:#ffffff;fill-opacity:0;stroke:#44525c;" x="168.694805" xlink:href="#m3162816920" y="168.086437"/>
     <use style="fill:#ffffff;fill-opacity:0;stroke:#44525c;" x="185.775325" xlink:href="#m3162816920" y="168.086437"/>
     <use style="fill:#ffffff;fill-opacity:0;stroke:#44525c;" x="202.855844" xlink:href="#m3162816920" y="168.086437"/>
     <use style="fill:#ffffff;fill-opacity:0;stroke:#44525c;" x="219.936364" xlink:href="#m3162816920" y="168.086437"/>
     <use style="fill:#ffffff;fill-opacity:0;stroke:#44525c;" x="237.016883" xlink:href="#m3162816920" y="168.086437"/>
     <use style="fill:#ffffff;fill-opacity:0;stroke:#44525c;" x="254.097403" xlink:href="#m3162816920" y="168.086437"/>
    </g>
   </g>
   <g id="PathCollection_26">
    <g>
     <use style="fill:#44525c;stroke:#44525c;" x="151.614286" xlink:href="#m01fc6d50a8" y="168.086437"/>
    </g>
   </g>
   <g id="PathCollection_27">
    <g>
     <use style="fill:#44525c;stroke:#44525c;" x="168.694805" xlink:href="#m01fc6d50a8" y="185.166956"/>
    </g>
   </g>
   <g id="PathCollection_28">
    <g>
     <use style="fill:#44525c;stroke:#44525c;" x="185.775325" xlink:href="#m01fc6d50a8" y="202.247476"/>
    </g>
   </g>
   <g id="PathCollection_29">
    <g>
     <use style="fill:#44525c;stroke:#44525c;" x="202.855844" xlink:href="#m01fc6d50a8" y="219.327995"/>
    </g>
   </g>
   <g id="PathCollection_30">
    <g>
     <use style="fill:#44525c;stroke:#44525c;" x="219.936364" xlink:href="#m01fc6d50a8" y="236.408515"/>
    </g>
   </g>
   <g id="PathCollection_31">
    <g>
     <use style="fill:#44525c;stroke:#44525c;" x="237.016883" xlink:href="#m01fc6d50a8" y="253.489034"/>
    </g>
   </g>
   <g id="PathCollection_32">
    <g>
     <use style="fill:#44525c;stroke:#44525c;" x="254.097403" xlink:href="#m01fc6d50a8" y="270.569554"/>
    </g>
   </g>
   <g id="matplotlib.axis_1"/>
   <g id="matplotlib.axis_2"/>
   <g id="line2d_1">
    <path clip-path="url(#pbab9023061)" d="M 142.22 277.401761 
L 142.22 38.274489 
" style="fill:none;stroke:#eb7a59;stroke-linecap:square;"/>
   </g>
   <g id="line2d_2">
    <path clip-path="url(#pbab9023061)" d="M 22.656364 158.692151 
L 261.783636 158.692151 
" style="fill:none;stroke:#eb7a59;stroke-linecap:square;"/>
   </g>
   <g id="text_1">
    <!-- 7 -->
    <defs>
     <path d="M 8.203125 72.90625 
L 55.078125 72.90625 
L 55.078125 68.703125 
L 28.609375 0 
L 18.3125 0 
L 43.21875 64.59375 
L 8.203125 64.59375 
z
" id="DejaVuSans-55"/>
    </defs>
    <g transform="translate(13.262078 152.609115)scale(0.12 -0.12)">
     <use xlink:href="#DejaVuSans-55"/>
    </g>
   </g>
   <g id="text_2">
    <!-- 1 -->
    <defs>
     <path d="M 12.40625 8.296875 
L 28.515625 8.296875 
L 28.515625 63.921875 
L 10.984375 60.40625 
L 10.984375 69.390625 
L 28.421875 72.90625 
L 38.28125 72.90625 
L 38.28125 8.296875 
L 54.390625 8.296875 
L 54.390625 0 
L 12.40625 0 
z
" id="DejaVuSans-49"/>
    </defs>
    <g transform="translate(26.525097 37.144302)scale(0.12 -0.12)">
     <use xlink:href="#DejaVuSans-49"/>
    </g>
   </g>
   <g id="text_3">
    <!-- 6 -->
    <defs>
     <path d="M 33.015625 40.375 
Q 26.375 40.375 22.484375 35.828125 
Q 18.609375 31.296875 18.609375 23.390625 
Q 18.609375 15.53125 22.484375 10.953125 
Q 26.375 6.390625 33.015625 6.390625 
Q 39.65625 6.390625 43.53125 10.953125 
Q 47.40625 15.53125 47.40625 23.390625 
Q 47.40625 31.296875 43.53125 35.828125 
Q 39.65625 40.375 33.015625 40.375 
z
M 52.59375 71.296875 
L 52.59375 62.3125 
Q 48.875 64.0625 45.09375 64.984375 
Q 41.3125 65.921875 37.59375 65.921875 
Q 27.828125 65.921875 22.671875 59.328125 
Q 17.53125 52.734375 16.796875 39.40625 
Q 19.671875 43.65625 24.015625 45.921875 
Q 28.375 48.1875 33.59375 48.1875 
Q 44.578125 48.1875 50.953125 41.515625 
Q 57.328125 34.859375 57.328125 23.390625 
Q 57.328125 12.15625 50.6875 5.359375 
Q 44.046875 -1.421875 33.015625 -1.421875 
Q 20.359375 -1.421875 13.671875 8.265625 
Q 6.984375 17.96875 6.984375 36.375 
Q 6.984375 53.65625 15.1875 63.9375 
Q 23.390625 74.21875 37.203125 74.21875 
Q 40.921875 74.21875 44.703125 73.484375 
Q 48.484375 72.75 52.59375 71.296875 
z
" id="DejaVuSans-54"/>
    </defs>
    <g transform="translate(13.262078 135.528596)scale(0.12 -0.12)">
     <use xlink:href="#DejaVuSans-54"/>
    </g>
   </g>
   <g id="text_4">
    <!-- 2 -->
    <defs>
     <path d="M 19.1875 8.296875 
L 53.609375 8.296875 
L 53.609375 0 
L 7.328125 0 
L 7.328125 8.296875 
Q 12.9375 14.109375 22.625 23.890625 
Q 32.328125 33.6875 34.8125 36.53125 
Q 39.546875 41.84375 41.421875 45.53125 
Q 43.3125 49.21875 43.3125 52.78125 
Q 43.3125 58.59375 39.234375 62.25 
Q 35.15625 65.921875 28.609375 65.921875 
Q 23.96875 65.921875 18.8125 64.3125 
Q 13.671875 62.703125 7.8125 59.421875 
L 7.8125 69.390625 
Q 13.765625 71.78125 18.9375 73 
Q 24.125 74.21875 28.421875 74.21875 
Q 39.75 74.21875 46.484375 68.546875 
Q 53.21875 62.890625 53.21875 53.421875 
Q 53.21875 48.921875 51.53125 44.890625 
Q 49.859375 40.875 45.40625 35.40625 
Q 44.1875 33.984375 37.640625 27.21875 
Q 31.109375 20.453125 19.1875 8.296875 
z
" id="DejaVuSans-50"/>
    </defs>
    <g transform="translate(43.605617 37.144302)scale(0.12 -0.12)">
     <use xlink:href="#DejaVuSans-50"/>
    </g>
   </g>
   <g id="text_5">
    <!-- 5 -->
    <defs>
     <path d="M 10.796875 72.90625 
L 49.515625 72.90625 
L 49.515625 64.59375 
L 19.828125 64.59375 
L 19.828125 46.734375 
Q 21.96875 47.46875 24.109375 47.828125 
Q 26.265625 48.1875 28.421875 48.1875 
Q 40.625 48.1875 47.75 41.5 
Q 54.890625 34.8125 54.890625 23.390625 
Q 54.890625 11.625 47.5625 5.09375 
Q 40.234375 -1.421875 26.90625 -1.421875 
Q 22.3125 -1.421875 17.546875 -0.640625 
Q 12.796875 0.140625 7.71875 1.703125 
L 7.71875 11.625 
Q 12.109375 9.234375 16.796875 8.0625 
Q 21.484375 6.890625 26.703125 6.890625 
Q 35.15625 6.890625 40.078125 11.328125 
Q 45.015625 15.765625 45.015625 23.390625 
Q 45.015625 31 40.078125 35.4375 
Q 35.15625 39.890625 26.703125 39.890625 
Q 22.75 39.890625 18.8125 39.015625 
Q 14.890625 38.140625 10.796875 36.28125 
z
" id="DejaVuSans-53"/>
    </defs>
    <g transform="translate(13.262078 118.448076)scale(0.12 -0.12)">
     <use xlink:href="#DejaVuSans-53"/>
    </g>
   </g>
   <g id="text_6">
    <!-- 3 -->
    <defs>
     <path d="M 40.578125 39.3125 
Q 47.65625 37.796875 51.625 33 
Q 55.609375 28.21875 55.609375 21.1875 
Q 55.609375 10.40625 48.1875 4.484375 
Q 40.765625 -1.421875 27.09375 -1.421875 
Q 22.515625 -1.421875 17.65625 -0.515625 
Q 12.796875 0.390625 7.625 2.203125 
L 7.625 11.71875 
Q 11.71875 9.328125 16.59375 8.109375 
Q 21.484375 6.890625 26.8125 6.890625 
Q 36.078125 6.890625 40.9375 10.546875 
Q 45.796875 14.203125 45.796875 21.1875 
Q 45.796875 27.640625 41.28125 31.265625 
Q 36.765625 34.90625 28.71875 34.90625 
L 20.21875 34.90625 
L 20.21875 43.015625 
L 29.109375 43.015625 
Q 36.375 43.015625 40.234375 45.921875 
Q 44.09375 48.828125 44.09375 54.296875 
Q 44.09375 59.90625 40.109375 62.90625 
Q 36.140625 65.921875 28.71875 65.921875 
Q 24.65625 65.921875 20.015625 65.03125 
Q 15.375 64.15625 9.8125 62.3125 
L 9.8125 71.09375 
Q 15.4375 72.65625 20.34375 73.4375 
Q 25.25 74.21875 29.59375 74.21875 
Q 40.828125 74.21875 47.359375 69.109375 
Q 53.90625 64.015625 53.90625 55.328125 
Q 53.90625 49.265625 50.4375 45.09375 
Q 46.96875 40.921875 40.578125 39.3125 
z
" id="DejaVuSans-51"/>
    </defs>
    <g transform="translate(60.686136 37.144302)scale(0.12 -0.12)">
     <use xlink:href="#DejaVuSans-51"/>
    </g>
   </g>
   <g id="text_7">
    <!-- 4 -->
    <defs>
     <path d="M 37.796875 64.3125 
L 12.890625 25.390625 
L 37.796875 25.390625 
z
M 35.203125 72.90625 
L 47.609375 72.90625 
L 47.609375 25.390625 
L 58.015625 25.390625 
L 58.015625 17.1875 
L 47.609375 17.1875 
L 47.609375 0 
L 37.796875 0 
L 37.796875 17.1875 
L 4.890625 17.1875 
L 4.890625 26.703125 
z
" id="DejaVuSans-52"/>
    </defs>
    <g transform="translate(13.262078 101.367557)scale(0.12 -0.12)">
     <use xlink:href="#DejaVuSans-52"/>
    </g>
   </g>
   <g id="text_8">
    <!-- 4 -->
    <g transform="translate(77.766656 37.144302)scale(0.12 -0.12)">
     <use xlink:href="#DejaVuSans-52"/>
    </g>
   </g>
   <g id="text_9">
    <!-- 3 -->
    <g transform="translate(13.262078 84.287037)scale(0.12 -0.12)">
     <use xlink:href="#DejaVuSans-51"/>
    </g>
   </g>
   <g id="text_10">
    <!-- 5 -->
    <g transform="translate(94.847175 37.144302)scale(0.12 -0.12)">
     <use xlink:href="#DejaVuSans-53"/>
    </g>
   </g>
   <g id="text_11">
    <!-- 2 -->
    <g transform="translate(13.262078 67.206518)scale(0.12 -0.12)">
     <use xlink:href="#DejaVuSans-50"/>
    </g>
   </g>
   <g id="text_12">
    <!-- 6 -->
    <g transform="translate(111.927695 37.144302)scale(0.12 -0.12)">
     <use xlink:href="#DejaVuSans-54"/>
    </g>
   </g>
   <g id="text_13">
    <!-- 1 -->
    <g transform="translate(13.262078 50.125998)scale(0.12 -0.12)">
     <use xlink:href="#DejaVuSans-49"/>
    </g>
   </g>
   <g id="text_14">
    <!-- 7 -->
    <g transform="translate(129.008214 37.144302)scale(0.12 -0.12)">
     <use xlink:href="#DejaVuSans-55"/>
    </g>
   </g>
   <g id="text_15">
    <!-- 7 -->
    <g transform="translate(13.262078 273.880804)scale(0.12 -0.12)">
     <use xlink:href="#DejaVuSans-55"/>
    </g>
   </g>
   <g id="text_16">
    <!-- 6 -->
    <g transform="translate(13.262078 256.800284)scale(0.12 -0.12)">
     <use xlink:href="#DejaVuSans-54"/>
    </g>
   </g>
   <g id="text_17">
    <!-- 5 -->
    <g transform="translate(13.262078 239.719765)scale(0.12 -0.12)">
     <use xlink:href="#DejaVuSans-53"/>
    </g>
   </g>
   <g id="text_18">
    <!-- 4 -->
    <g transform="translate(13.262078 222.639245)scale(0.12 -0.12)">
     <use xlink:href="#DejaVuSans-52"/>
    </g>
   </g>
   <g id="text_19">
    <!-- 3 -->
    <g transform="translate(13.262078 205.558726)scale(0.12 -0.12)">
     <use xlink:href="#DejaVuSans-51"/>
    </g>
   </g>
   <g id="text_20">
    <!-- 2 -->
    <g transform="translate(13.262078 188.478206)scale(0.12 -0.12)">
     <use xlink:href="#DejaVuSans-50"/>
    </g>
   </g>
   <g id="text_21">
    <!-- 1 -->
    <g transform="translate(13.262078 171.397687)scale(0.12 -0.12)">
     <use xlink:href="#DejaVuSans-49"/>
    </g>
   </g>
   <g id="text_22">
    <!-- 1 -->
    <g transform="translate(147.796786 37.144302)scale(0.12 -0.12)">
     <use xlink:href="#DejaVuSans-49"/>
    </g>
   </g>
   <g id="text_23">
    <!-- 2 -->
    <g transform="translate(164.877305 37.144302)scale(0.12 -0.12)">
     <use xlink:href="#DejaVuSans-50"/>
    </g>
   </g>
   <g id="text_24">
    <!-- 3 -->
    <g transform="translate(181.957825 37.144302)scale(0.12 -0.12)">
     <use xlink:href="#DejaVuSans-51"/>
    </g>
   </g>
   <g id="text_25">
    <!-- 4 -->
    <g transform="translate(199.038344 37.144302)scale(0.12 -0.12)">
     <use xlink:href="#DejaVuSans-52"/>
    </g>
   </g>
   <g id="text_26">
    <!-- 5 -->
    <g transform="translate(216.118864 37.144302)scale(0.12 -0.12)">
     <use xlink:href="#DejaVuSans-53"/>
    </g>
   </g>
   <g id="text_27">
    <!-- 6 -->
    <g transform="translate(233.199383 37.144302)scale(0.12 -0.12)">
     <use xlink:href="#DejaVuSans-54"/>
    </g>
   </g>
   <g id="text_28">
    <!-- 7 -->
    <g transform="translate(250.279903 37.144302)scale(0.12 -0.12)">
     <use xlink:href="#DejaVuSans-55"/>
    </g>
   </g>
   <g id="text_29">
    <!-- Charlieplexing -->
    <defs>
     <path d="M 64.40625 67.28125 
L 64.40625 56.890625 
Q 59.421875 61.53125 53.78125 63.8125 
Q 48.140625 66.109375 41.796875 66.109375 
Q 29.296875 66.109375 22.65625 58.46875 
Q 16.015625 50.828125 16.015625 36.375 
Q 16.015625 21.96875 22.65625 14.328125 
Q 29.296875 6.6875 41.796875 6.6875 
Q 48.140625 6.6875 53.78125 8.984375 
Q 59.421875 11.28125 64.40625 15.921875 
L 64.40625 5.609375 
Q 59.234375 2.09375 53.4375 0.328125 
Q 47.65625 -1.421875 41.21875 -1.421875 
Q 24.65625 -1.421875 15.125 8.703125 
Q 5.609375 18.84375 5.609375 36.375 
Q 5.609375 53.953125 15.125 64.078125 
Q 24.65625 74.21875 41.21875 74.21875 
Q 47.75 74.21875 53.53125 72.484375 
Q 59.328125 70.75 64.40625 67.28125 
z
" id="DejaVuSans-67"/>
     <path d="M 54.890625 33.015625 
L 54.890625 0 
L 45.90625 0 
L 45.90625 32.71875 
Q 45.90625 40.484375 42.875 44.328125 
Q 39.84375 48.1875 33.796875 48.1875 
Q 26.515625 48.1875 22.3125 43.546875 
Q 18.109375 38.921875 18.109375 30.90625 
L 18.109375 0 
L 9.078125 0 
L 9.078125 75.984375 
L 18.109375 75.984375 
L 18.109375 46.1875 
Q 21.34375 51.125 25.703125 53.5625 
Q 30.078125 56 35.796875 56 
Q 45.21875 56 50.046875 50.171875 
Q 54.890625 44.34375 54.890625 33.015625 
z
" id="DejaVuSans-104"/>
     <path d="M 34.28125 27.484375 
Q 23.390625 27.484375 19.1875 25 
Q 14.984375 22.515625 14.984375 16.5 
Q 14.984375 11.71875 18.140625 8.90625 
Q 21.296875 6.109375 26.703125 6.109375 
Q 34.1875 6.109375 38.703125 11.40625 
Q 43.21875 16.703125 43.21875 25.484375 
L 43.21875 27.484375 
z
M 52.203125 31.203125 
L 52.203125 0 
L 43.21875 0 
L 43.21875 8.296875 
Q 40.140625 3.328125 35.546875 0.953125 
Q 30.953125 -1.421875 24.3125 -1.421875 
Q 15.921875 -1.421875 10.953125 3.296875 
Q 6 8.015625 6 15.921875 
Q 6 25.140625 12.171875 29.828125 
Q 18.359375 34.515625 30.609375 34.515625 
L 43.21875 34.515625 
L 43.21875 35.40625 
Q 43.21875 41.609375 39.140625 45 
Q 35.0625 48.390625 27.6875 48.390625 
Q 23 48.390625 18.546875 47.265625 
Q 14.109375 46.140625 10.015625 43.890625 
L 10.015625 52.203125 
Q 14.9375 54.109375 19.578125 55.046875 
Q 24.21875 56 28.609375 56 
Q 40.484375 56 46.34375 49.84375 
Q 52.203125 43.703125 52.203125 31.203125 
z
" id="DejaVuSans-97"/>
     <path d="M 41.109375 46.296875 
Q 39.59375 47.171875 37.8125 47.578125 
Q 36.03125 48 33.890625 48 
Q 26.265625 48 22.1875 43.046875 
Q 18.109375 38.09375 18.109375 28.8125 
L 18.109375 0 
L 9.078125 0 
L 9.078125 54.6875 
L 18.109375 54.6875 
L 18.109375 46.1875 
Q 20.953125 51.171875 25.484375 53.578125 
Q 30.03125 56 36.53125 56 
Q 37.453125 56 38.578125 55.875 
Q 39.703125 55.765625 41.0625 55.515625 
z
" id="DejaVuSans-114"/>
     <path d="M 9.421875 75.984375 
L 18.40625 75.984375 
L 18.40625 0 
L 9.421875 0 
z
" id="DejaVuSans-108"/>
     <path d="M 9.421875 54.6875 
L 18.40625 54.6875 
L 18.40625 0 
L 9.421875 0 
z
M 9.421875 75.984375 
L 18.40625 75.984375 
L 18.40625 64.59375 
L 9.421875 64.59375 
z
" id="DejaVuSans-105"/>
     <path d="M 56.203125 29.59375 
L 56.203125 25.203125 
L 14.890625 25.203125 
Q 15.484375 15.921875 20.484375 11.0625 
Q 25.484375 6.203125 34.421875 6.203125 
Q 39.59375 6.203125 44.453125 7.46875 
Q 49.3125 8.734375 54.109375 11.28125 
L 54.109375 2.78125 
Q 49.265625 0.734375 44.1875 -0.34375 
Q 39.109375 -1.421875 33.890625 -1.421875 
Q 20.796875 -1.421875 13.15625 6.1875 
Q 5.515625 13.8125 5.515625 26.8125 
Q 5.515625 40.234375 12.765625 48.109375 
Q 20.015625 56 32.328125 56 
Q 43.359375 56 49.78125 48.890625 
Q 56.203125 41.796875 56.203125 29.59375 
z
M 47.21875 32.234375 
Q 47.125 39.59375 43.09375 43.984375 
Q 39.0625 48.390625 32.421875 48.390625 
Q 24.90625 48.390625 20.390625 44.140625 
Q 15.875 39.890625 15.1875 32.171875 
z
" id="DejaVuSans-101"/>
     <path d="M 18.109375 8.203125 
L 18.109375 -20.796875 
L 9.078125 -20.796875 
L 9.078125 54.6875 
L 18.109375 54.6875 
L 18.109375 46.390625 
Q 20.953125 51.265625 25.265625 53.625 
Q 29.59375 56 35.59375 56 
Q 45.5625 56 51.78125 48.09375 
Q 58.015625 40.1875 58.015625 27.296875 
Q 58.015625 14.40625 51.78125 6.484375 
Q 45.5625 -1.421875 35.59375 -1.421875 
Q 29.59375 -1.421875 25.265625 0.953125 
Q 20.953125 3.328125 18.109375 8.203125 
z
M 48.6875 27.296875 
Q 48.6875 37.203125 44.609375 42.84375 
Q 40.53125 48.484375 33.40625 48.484375 
Q 26.265625 48.484375 22.1875 42.84375 
Q 18.109375 37.203125 18.109375 27.296875 
Q 18.109375 17.390625 22.1875 11.75 
Q 26.265625 6.109375 33.40625 6.109375 
Q 40.53125 6.109375 44.609375 11.75 
Q 48.6875 17.390625 48.6875 27.296875 
z
" id="DejaVuSans-112"/>
     <path d="M 54.890625 54.6875 
L 35.109375 28.078125 
L 55.90625 0 
L 45.3125 0 
L 29.390625 21.484375 
L 13.484375 0 
L 2.875 0 
L 24.125 28.609375 
L 4.6875 54.6875 
L 15.28125 54.6875 
L 29.78125 35.203125 
L 44.28125 54.6875 
z
" id="DejaVuSans-120"/>
     <path d="M 54.890625 33.015625 
L 54.890625 0 
L 45.90625 0 
L 45.90625 32.71875 
Q 45.90625 40.484375 42.875 44.328125 
Q 39.84375 48.1875 33.796875 48.1875 
Q 26.515625 48.1875 22.3125 43.546875 
Q 18.109375 38.921875 18.109375 30.90625 
L 18.109375 0 
L 9.078125 0 
L 9.078125 54.6875 
L 18.109375 54.6875 
L 18.109375 46.1875 
Q 21.34375 51.125 25.703125 53.5625 
Q 30.078125 56 35.796875 56 
Q 45.21875 56 50.046875 50.171875 
Q 54.890625 44.34375 54.890625 33.015625 
z
" id="DejaVuSans-110"/>
     <path d="M 45.40625 27.984375 
Q 45.40625 37.75 41.375 43.109375 
Q 37.359375 48.484375 30.078125 48.484375 
Q 22.859375 48.484375 18.828125 43.109375 
Q 14.796875 37.75 14.796875 27.984375 
Q 14.796875 18.265625 18.828125 12.890625 
Q 22.859375 7.515625 30.078125 7.515625 
Q 37.359375 7.515625 41.375 12.890625 
Q 45.40625 18.265625 45.40625 27.984375 
z
M 54.390625 6.78125 
Q 54.390625 -7.171875 48.1875 -13.984375 
Q 42 -20.796875 29.203125 -20.796875 
Q 24.46875 -20.796875 20.265625 -20.09375 
Q 16.0625 -19.390625 12.109375 -17.921875 
L 12.109375 -9.1875 
Q 16.0625 -11.328125 19.921875 -12.34375 
Q 23.78125 -13.375 27.78125 -13.375 
Q 36.625 -13.375 41.015625 -8.765625 
Q 45.40625 -4.15625 45.40625 5.171875 
L 45.40625 9.625 
Q 42.625 4.78125 38.28125 2.390625 
Q 33.9375 0 27.875 0 
Q 17.828125 0 11.671875 7.65625 
Q 5.515625 15.328125 5.515625 27.984375 
Q 5.515625 40.671875 11.671875 48.328125 
Q 17.828125 56 27.875 56 
Q 33.9375 56 38.28125 53.609375 
Q 42.625 51.21875 45.40625 46.390625 
L 45.40625 54.6875 
L 54.390625 54.6875 
z
" id="DejaVuSans-103"/>
    </defs>
    <g transform="translate(99.062187 16.318125)scale(0.12 -0.12)">
     <use xlink:href="#DejaVuSans-67"/>
     <use x="69.824219" xlink:href="#DejaVuSans-104"/>
     <use x="133.203125" xlink:href="#DejaVuSans-97"/>
     <use x="194.482422" xlink:href="#DejaVuSans-114"/>
     <use x="235.595703" xlink:href="#DejaVuSans-108"/>
     <use x="263.378906" xlink:href="#DejaVuSans-105"/>
     <use x="291.162109" xlink:href="#DejaVuSans-101"/>
     <use x="352.685547" xlink:href="#DejaVuSans-112"/>
     <use x="416.162109" xlink:href="#DejaVuSans-108"/>
     <use x="443.945312" xlink:href="#DejaVuSans-101"/>
     <use x="505.453125" xlink:href="#DejaVuSans-120"/>
     <use x="564.632812" xlink:href="#DejaVuSans-105"/>
     <use x="592.416016" xlink:href="#DejaVuSans-110"/>
     <use x="655.794922" xlink:href="#DejaVuSans-103"/>
    </g>
   </g>
  </g>
 </g>
 <defs>
  <clipPath id="pbab9023061">
   <rect height="263.04" width="263.04" x="10.7" y="26.318125"/>
  </clipPath>
 </defs>
</svg>
