<?xml version="1.0" encoding="utf-8" standalone="no"?>
<!DOCTYPE svg PUBLIC "-//W3C//DTD SVG 1.1//EN"
  "http://www.w3.org/Graphics/SVG/1.1/DTD/svg11.dtd">
<!-- Created with matplotlib (https://matplotlib.org/) -->
<svg height="778.250394pt" version="1.1" viewBox="0 0 531.63622 778.250394" width="531.63622pt" xmlns="http://www.w3.org/2000/svg" xmlns:xlink="http://www.w3.org/1999/xlink">
 <defs>
  <style type="text/css">
*{stroke-linecap:butt;stroke-linejoin:round;}
  </style>
 </defs>
 <g id="figure_1">
  <g id="patch_1">
   <path d="M 0 778.250394 
L 531.63622 778.250394 
L 531.63622 0 
L 0 0 
z
" style="fill:none;"/>
  </g>
  <g id="axes_1">
   <g id="patch_2">
    <path d="M 10.7 767.550394 
L 520.93622 767.550394 
L 520.93622 10.7 
L 10.7 10.7 
z
" style="fill:none;"/>
   </g>
   <g id="matplotlib.axis_1"/>
   <g id="matplotlib.axis_2"/>
   <g id="line2d_1">
    <path clip-path="url(#pe3854155cb)" d="M 524.523027 301.458915 
L 532.63622 295.274148 
M 524.523027 301.458915 
L 514.503584 283.831757 
M 499.67929 303.999494 
L 514.503584 283.831757 
M 499.67929 303.999494 
L 485.099561 289.90916 
M 476.557664 313.436449 
L 485.099561 289.90916 
M 476.557664 313.436449 
L 458.598808 304.024464 
M 457.031322 329.005262 
L 458.598808 304.024464 
M 457.031322 329.005262 
L 437.148262 325.034119 
M 442.682175 349.44463 
L 437.148262 325.034119 
M 442.682175 349.44463 
L 422.48572 351.236054 
M 434.67271 373.098685 
L 422.48572 351.236054 
M 434.67271 373.098685 
L 415.799053 380.507539 
M 433.651798 398.051112 
L 415.799053 380.507539 
M 433.651798 398.051112 
L 417.629971 410.477178 
M 439.702147 422.280414 
L 417.629971 410.477178 
M 439.702147 422.280414 
L 427.830148 438.717005 
M 452.333605 443.823676 
L 427.830148 438.717005 
M 452.333605 443.823676 
L 445.573226 462.9392 
M 470.522834 460.935592 
L 445.573226 462.9392 
M 470.522834 460.935592 
L 469.421764 481.181426 
M 492.796259 472.229861 
L 469.421764 481.181426 
M 492.796259 472.229861 
L 497.443699 491.9658 
M 517.349414 476.791478 
L 497.443699 491.9658 
M 517.349414 476.791478 
L 527.368857 494.418637 
M 532.63622 487.252643 
L 527.368857 494.418637 
M 514.503584 283.831757 
L 532.63622 269.950574 
M 514.503584 283.831757 
L 501.045576 268.122511 
M 485.099561 289.90916 
L 501.045576 268.122511 
M 485.099561 289.90916 
L 467.76089 278.627812 
M 458.598808 304.024464 
L 467.76089 278.627812 
M 458.598808 304.024464 
L 438.784152 298.084957 
M 437.148262 325.034119 
L 438.784152 298.084957 
M 437.148262 325.034119 
L 416.462891 324.917637 
M 422.48572 351.236054 
L 416.462891 324.917637 
M 422.48572 351.236054 
L 402.605431 356.952033 
M 415.799053 380.507539 
L 402.605431 356.952033 
M 415.799053 380.507539 
L 398.334435 391.592906 
M 417.629971 410.477178 
L 398.334435 391.592906 
M 417.629971 410.477178 
L 403.995902 426.033862 
M 427.830148 438.717005 
L 403.995902 426.033862 
M 427.830148 438.717005 
L 419.13118 457.484699 
M 445.573226 462.9392 
L 419.13118 457.484699 
M 445.573226 462.9392 
L 442.51409 483.397448 
M 469.421764 481.181426 
L 442.51409 483.397448 
M 469.421764 481.181426 
L 472.250303 501.672825 
M 497.443699 491.9658 
L 472.250303 501.672825 
M 497.443699 491.9658 
L 505.930758 510.830269 
M 527.368857 494.418637 
L 505.930758 510.830269 
M 527.368857 494.418637 
L 532.63622 500.567118 
M 532.63622 262.657456 
L 523.826512 249.964007 
M 501.045576 268.122511 
L 523.826512 249.964007 
M 501.045576 268.122511 
L 484.503199 254.786729 
M 467.76089 278.627812 
L 484.503199 254.786729 
M 467.76089 278.627812 
L 448.131472 270.492751 
M 438.784152 298.084957 
L 448.131472 270.492751 
M 438.784152 298.084957 
L 417.657949 295.809667 
M 416.462891 324.917637 
L 417.657949 295.809667 
M 416.462891 324.917637 
L 395.551431 328.686449 
M 402.605431 356.952033 
L 395.551431 328.686449 
M 402.605431 356.952033 
L 383.602829 366.459622 
M 398.334435 391.592906 
L 383.602829 366.459622 
M 398.334435 391.592906 
L 382.780169 406.069025 
M 403.995902 426.033862 
L 382.780169 406.069025 
M 403.995902 426.033862 
L 393.150079 444.30574 
M 419.13118 457.484699 
L 393.150079 444.30574 
M 419.13118 457.484699 
L 413.872476 478.072054 
M 442.51409 483.397448 
L 413.872476 478.072054 
M 442.51409 483.397448 
L 443.268538 504.632422 
M 472.250303 501.672825 
L 443.268538 504.632422 
M 472.250303 501.672825 
L 478.956769 521.835093 
M 505.930758 510.830269 
L 478.956769 521.835093 
M 505.930758 510.830269 
L 518.045929 528.286387 
M 532.63622 516.65658 
L 518.045929 528.286387 
M 523.826512 249.964007 
L 532.63622 246.016576 
M 523.826512 249.964007 
L 508.355175 234.415425 
M 484.503199 254.786729 
L 508.355175 234.415425 
M 484.503199 254.786729 
L 465.278016 244.226743 
M 448.131472 270.492751 
L 465.278016 244.226743 
M 448.131472 270.492751 
L 426.709955 265.77688 
M 417.657949 295.809667 
L 426.709955 265.77688 
M 417.657949 295.809667 
L 395.775539 297.319961 
M 395.551431 328.686449 
L 395.775539 297.319961 
M 395.551431 328.686449 
L 374.980915 336.300557 
M 383.602829 366.459622 
L 374.980915 336.300557 
M 383.602829 366.459622 
L 366.010708 379.56069 
M 382.780169 406.069025 
L 366.010708 379.56069 
M 382.780169 406.069025 
L 369.591648 423.595683 
M 393.150079 444.30574 
L 369.591648 423.595683 
M 393.150079 444.30574 
L 385.433615 464.83808 
M 413.872476 478.072054 
L 385.433615 464.83808 
M 413.872476 478.072054 
L 412.25321 499.946673 
M 443.268538 504.632422 
L 412.25321 499.946673 
M 443.268538 504.632422 
L 447.877656 526.077165 
M 478.956769 521.835093 
L 447.877656 526.077165 
M 478.956769 521.835093 
L 489.420866 541.11263 
M 518.045929 528.286387 
L 489.420866 541.11263 
M 518.045929 528.286387 
L 532.63622 542.949524 
M 508.355175 234.415425 
L 532.63622 222.185311 
M 508.355175 234.415425 
L 489.855075 221.229891 
M 465.278016 244.226743 
L 489.855075 221.229891 
M 465.278016 244.226743 
L 443.812509 236.787402 
M 426.709955 265.77688 
L 443.812509 236.787402 
M 426.709955 265.77688 
L 404.018048 264.686424 
M 395.775539 297.319961 
L 404.018048 264.686424 
M 395.775539 297.319961 
L 373.695594 302.666717 
M 374.980915 336.300557 
L 373.695594 302.666717 
M 374.980915 336.300557 
L 355.301702 347.65137 
M 366.010708 379.56069 
L 355.301702 347.65137 
M 366.010708 379.56069 
L 350.326544 395.995988 
M 369.591648 423.595683 
L 350.326544 395.995988 
M 369.591648 423.595683 
L 359.173158 443.783974 
M 385.433615 464.83808 
L 359.173158 443.783974 
M 385.433615 464.83808 
L 381.124853 487.143833 
M 412.25321 499.946673 
L 381.124853 487.143833 
M 412.25321 499.946673 
L 414.403238 522.562798 
M 447.877656 526.077165 
L 414.403238 522.562798 
M 447.877656 526.077165 
L 456.312289 547.171442 
M 489.420866 541.11263 
L 456.312289 547.171442 
M 489.420866 541.11263 
L 503.456789 558.976123 
M 532.63622 544.278742 
L 503.456789 558.976123 
M 532.63622 213.963277 
L 521.055372 203.321085 
M 489.855075 221.229891 
L 521.055372 203.321085 
M 489.855075 221.229891 
L 468.703477 210.813885 
M 443.812509 236.787402 
L 468.703477 210.813885 
M 443.812509 236.787402 
L 420.583174 232.752407 
M 404.018048 264.686424 
L 420.583174 232.752407 
M 404.018048 264.686424 
L 380.592871 267.359333 
M 373.695594 302.666717 
L 380.592871 267.359333 
M 373.695594 302.666717 
L 351.972354 311.830999 
M 355.301702 347.65137 
L 351.972354 311.830999 
M 355.301702 347.65137 
L 337.040287 362.564577 
M 350.326544 395.995988 
L 337.040287 362.564577 
M 350.326544 395.995988 
L 337.006373 415.449939 
M 359.173158 443.783974 
L 337.006373 415.449939 
M 359.173158 443.783974 
L 351.873361 466.202627 
M 381.124853 487.143833 
L 351.873361 466.202627 
M 381.124853 487.143833 
L 380.436813 510.710964 
M 414.403238 522.562798 
L 380.436813 510.710964 
M 414.403238 522.562798 
L 420.382698 545.369146 
M 456.312289 547.171442 
L 420.382698 545.369146 
M 456.312289 547.171442 
L 468.474827 567.369361 
M 503.456789 558.976123 
L 468.474827 567.369361 
M 503.456789 558.976123 
L 520.817069 574.929309 
M 532.63622 568.145178 
L 520.817069 574.929309 
M 521.055372 203.321085 
L 532.63622 199.773204 
M 521.055372 203.321085 
L 500.67531 189.735175 
M 468.703477 210.813885 
L 500.67531 189.735175 
M 468.703477 210.813885 
L 445.321362 203.520031 
M 420.583174 232.752407 
L 445.321362 203.520031 
M 420.583174 232.752407 
L 396.093273 232.341505 
M 380.592871 267.359333 
L 396.093273 232.341505 
M 380.592871 267.359333 
L 356.979223 273.864676 
M 351.972354 311.830999 
L 356.979223 273.864676 
M 351.972354 311.830999 
L 331.147985 324.725558 
M 337.040287 362.564577 
L 331.147985 324.725558 
M 337.040287 362.564577 
L 320.69227 380.803721 
M 337.006373 415.449939 
L 320.69227 380.803721 
M 337.006373 415.449939 
L 326.459131 437.556038 
M 351.873361 466.202627 
L 326.459131 437.556038 
M 351.873361 466.202627 
L 347.981356 490.384781 
M 380.436813 510.710964 
L 347.981356 490.384781 
M 380.436813 510.710964 
L 383.515368 535.010072 
M 420.382698 545.369146 
L 383.515368 535.010072 
M 420.382698 545.369146 
L 430.182395 567.816631 
M 468.474827 567.369361 
L 430.182395 567.816631 
M 468.474827 567.369361 
L 484.201761 586.146687 
M 520.817069 574.929309 
L 484.201761 586.146687 
M 520.817069 574.929309 
L 532.63622 582.80828 
M 500.67531 189.735175 
L 532.63622 177.523289 
M 500.67531 189.735175 
L 477.631949 178.928314 
M 445.321362 203.520031 
L 477.631949 178.928314 
M 445.321362 203.520031 
L 420.166772 199.642987 
M 396.093273 232.341505 
L 420.166772 199.642987 
M 396.093273 232.341505 
L 370.865334 235.708375 
M 356.979223 273.864676 
L 370.865334 235.708375 
M 356.979223 273.864676 
L 333.721746 284.202698 
M 331.147985 324.725558 
L 333.721746 284.202698 
M 331.147985 324.725558 
L 311.74517 341.197205 
M 320.69227 380.803721 
L 311.74517 341.197205 
M 320.69227 380.803721 
L 306.715992 402.074558 
M 326.459131 437.556038 
L 306.715992 402.074558 
M 326.459131 437.556038 
L 319.04167 461.902832 
M 347.981356 490.384781 
L 319.04167 461.902832 
M 347.981356 490.384781 
L 347.723659 515.835091 
M 383.515368 535.010072 
L 347.723659 515.835091 
M 383.515368 535.010072 
L 390.438281 559.502072 
M 430.182395 567.816631 
L 390.438281 559.502072 
M 430.182395 567.816631 
L 443.725078 589.366132 
M 484.201761 586.146687 
L 443.725078 589.366132 
M 484.201761 586.146687 
L 503.267059 603.007851 
M 532.63622 591.786242 
L 503.267059 603.007851 
M 532.63622 171.333619 
L 516.486181 160.757716 
M 477.631949 178.928314 
L 516.486181 160.757716 
M 477.631949 178.928314 
L 452.327884 171.261923 
M 420.166772 199.642987 
L 452.327884 171.261923 
M 420.166772 199.642987 
L 393.727831 199.416114 
M 370.865334 235.708375 
L 393.727831 199.416114 
M 370.865334 235.708375 
L 345.433437 242.939412 
M 333.721746 284.202698 
L 345.433437 242.939412 
M 333.721746 284.202698 
L 311.357242 298.305813 
M 311.74517 341.197205 
L 311.357242 298.305813 
M 311.74517 341.197205 
L 294.259877 361.02986 
M 306.715992 402.074558 
L 294.259877 361.02986 
M 306.715992 402.074558 
L 295.526496 426.030022 
M 319.04167 461.902832 
L 295.526496 426.030022 
M 319.04167 461.902832 
L 315.054471 488.040376 
M 347.723659 515.835091 
L 315.054471 488.040376 
M 347.723659 515.835091 
L 351.261754 542.03721 
M 390.438281 559.502072 
L 351.261754 542.03721 
M 390.438281 559.502072 
L 401.215049 583.646017 
M 443.725078 589.366132 
L 401.215049 583.646017 
M 443.725078 589.366132 
L 460.867445 609.495912 
M 503.267059 603.007851 
L 460.867445 609.495912 
M 503.267059 603.007851 
L 525.38626 617.492677 
M 532.63622 614.102156 
L 525.38626 617.492677 
M 516.486181 160.757716 
L 532.63622 157.006433 
M 516.486181 160.757716 
L 491.651205 149.067965 
M 452.327884 171.261923 
L 491.651205 149.067965 
M 452.327884 171.261923 
L 425.205515 167.0425 
M 393.727831 199.416114 
L 425.205515 167.0425 
M 393.727831 199.416114 
L 366.515354 203.00888 
M 345.433437 242.939412 
L 366.515354 203.00888 
M 345.433437 242.939412 
L 320.335462 254.053273 
M 311.357242 298.305813 
L 320.335462 254.053273 
M 311.357242 298.305813 
L 290.407048 316.040406 
M 294.259877 361.02986 
L 290.407048 316.040406 
M 294.259877 361.02986 
L 279.154721 383.948427 
M 295.526496 426.030022 
L 279.154721 383.948427 
M 295.526496 426.030022 
L 287.49011 452.275839 
M 315.054471 488.040376 
L 287.49011 452.275839 
M 315.054471 488.040376 
L 314.737905 515.487168 
M 351.261754 542.03721 
L 314.737905 515.487168 
M 351.261754 542.03721 
L 358.690673 568.461398 
M 401.215049 583.646017 
L 358.690673 568.461398 
M 401.215049 583.646017 
L 415.787603 606.906864 
M 460.867445 609.495912 
L 415.787603 606.906864 
M 460.867445 609.495912 
L 481.403049 627.708969 
M 525.38626 617.492677 
L 481.403049 627.708969 
M 525.38626 617.492677 
L 532.63622 620.905213 
M 491.651205 149.067965 
L 532.63622 136.036538 
M 491.651205 149.067965 
L 464.486837 140.544955 
M 425.205515 167.0425 
L 464.486837 140.544955 
M 425.205515 167.0425 
L 396.740287 166.517821 
M 366.515354 203.00888 
L 396.740287 166.517821 
M 366.515354 203.00888 
L 339.055338 210.525023 
M 320.335462 254.053273 
L 339.055338 210.525023 
M 320.335462 254.053273 
L 296.105313 269.001351 
M 290.407048 316.040406 
L 296.105313 269.001351 
M 290.407048 316.040406 
L 271.369749 337.209393 
M 279.154721 383.948427 
L 271.369749 337.209393 
M 279.154721 383.948427 
L 266.85258 409.623349 
M 287.49011 452.275839 
L 266.85258 409.623349 
M 287.49011 452.275839 
L 282.919734 480.376668 
M 314.737905 515.487168 
L 282.919734 480.376668 
M 314.737905 515.487168 
L 318.269584 543.737336 
M 358.690673 568.461398 
L 318.269584 543.737336 
M 358.690673 568.461398 
L 370.038282 594.572242 
M 415.787603 606.906864 
L 370.038282 594.572242 
M 415.787603 606.906864 
L 434.031831 628.763056 
M 481.403049 627.708969 
L 434.031831 628.763056 
M 481.403049 627.708969 
L 505.065857 643.539848 
M 532.63622 634.773688 
L 505.065857 643.539848 
M 532.63622 132.658956 
L 510.337822 121.689363 
M 464.486837 140.544955 
L 510.337822 121.689363 
M 464.486837 140.544955 
L 435.421755 135.508311 
M 396.740287 166.517821 
L 435.421755 135.508311 
M 396.740287 166.517821 
L 367.433563 169.873795 
M 339.055338 210.525023 
L 367.433563 169.873795 
M 339.055338 210.525023 
L 311.88124 222.00171 
M 296.105313 269.001351 
L 311.88124 222.00171 
M 296.105313 269.001351 
L 273.265302 287.668981 
M 271.369749 337.209393 
L 273.265302 287.668981 
M 271.369749 337.209393 
L 254.714198 361.555634 
M 266.85258 409.623349 
L 254.714198 361.555634 
M 266.85258 409.623349 
L 257.730809 437.675806 
M 282.919734 480.376668 
L 257.730809 437.675806 
M 282.919734 480.376668 
L 282.070772 509.862697 
M 318.269584 543.737336 
L 282.070772 509.862697 
M 318.269584 543.737336 
L 325.762192 572.268145 
M 370.038282 594.572242 
L 325.762192 572.268145 
M 370.038282 594.572242 
L 385.265434 619.836446 
M 434.031831 628.763056 
L 385.265434 619.836446 
M 434.031831 628.763056 
L 455.759935 648.713892 
M 505.065857 643.539848 
L 455.759935 648.713892 
M 505.065857 643.539848 
L 531.534619 656.561031 
M 532.63622 656.108012 
L 531.534619 656.561031 
M 510.337822 121.689363 
L 532.63622 117.421267 
M 510.337822 121.689363 
L 481.434605 111.861458 
M 435.421755 135.508311 
L 481.434605 111.861458 
M 435.421755 135.508311 
L 404.920476 134.221467 
M 367.433563 169.873795 
L 404.920476 134.221467 
M 367.433563 169.873795 
L 337.805247 177.232283 
M 311.88124 222.00171 
L 337.805247 177.232283 
M 311.88124 222.00171 
L 285.526212 237.409387 
M 273.265302 287.668981 
L 285.526212 237.409387 
M 273.265302 287.668981 
L 252.318686 309.877611 
M 254.714198 361.555634 
L 252.318686 309.877611 
M 254.714198 361.555634 
L 240.872956 388.766001 
M 257.730809 437.675806 
L 240.872956 388.766001 
M 257.730809 437.675806 
L 252.116295 467.683486 
M 282.070772 509.862697 
L 252.116295 467.683486 
M 282.070772 509.862697 
L 285.137826 540.236644 
M 325.762192 572.268145 
L 285.137826 540.236644 
M 325.762192 572.268145 
L 337.262325 600.547659 
M 385.265434 619.836446 
L 337.262325 600.547659 
M 385.265434 619.836446 
L 404.267001 643.73047 
M 455.759935 648.713892 
L 404.267001 643.73047 
M 455.759935 648.713892 
L 480.723525 666.286691 
M 531.534619 656.561031 
L 480.723525 666.286691 
M 531.534619 656.561031 
L 532.63622 656.935606 
M 481.434605 111.861458 
L 532.63622 97.382005 
M 481.434605 111.861458 
L 450.513058 105.561211 
M 404.920476 134.221467 
L 450.513058 105.561211 
M 404.920476 134.221467 
L 373.476483 136.888027 
M 337.805247 177.232283 
L 373.476483 136.888027 
M 337.805247 177.232283 
L 308.386225 188.649628 
M 285.526212 237.409387 
L 308.386225 188.649628 
M 285.526212 237.409387 
L 260.515491 256.652552 
M 252.318686 309.877611 
L 260.515491 256.652552 
M 252.318686 309.877611 
L 233.742509 335.387619 
M 240.872956 388.766001 
L 233.742509 335.387619 
M 240.872956 388.766001 
L 230.236228 418.476187 
M 252.116295 467.683486 
L 230.236228 418.476187 
M 252.116295 467.683486 
L 250.280764 499.186917 
M 285.137826 540.236644 
L 250.280764 499.186917 
M 285.137826 540.236644 
L 292.252174 570.981095 
M 337.262325 600.547659 
L 292.252174 570.981095 
M 337.262325 600.547659 
L 352.75022 628.042403 
M 404.267001 643.73047 
L 352.75022 628.042403 
M 404.267001 643.73047 
L 426.873686 665.748057 
M 480.723525 666.286691 
L 426.873686 665.748057 
M 480.723525 666.286691 
L 508.617539 681.043347 
M 532.63622 674.251035 
L 508.617539 681.043347 
M 532.63622 96.972644 
L 502.78764 85.663773 
M 450.513058 105.561211 
L 502.78764 85.663773 
M 450.513058 105.561211 
L 418.027826 103.06916 
M 373.476483 136.888027 
L 418.027826 103.06916 
M 373.476483 136.888027 
L 341.605031 143.649071 
M 308.386225 188.649628 
L 341.605031 143.649071 
M 308.386225 188.649628 
L 279.710593 204.116012 
M 260.515491 256.652552 
L 279.710593 204.116012 
M 260.515491 256.652552 
L 237.358811 279.571301 
M 233.742509 335.387619 
L 237.358811 279.571301 
M 233.742509 335.387619 
L 217.980788 363.901988 
M 230.236228 418.476187 
L 217.980788 363.901988 
M 230.236228 418.476187 
L 223.146406 450.276111 
M 250.280764 499.186917 
L 223.146406 450.276111 
M 250.280764 499.186917 
L 252.437193 531.696158 
M 292.252174 570.981095 
L 252.437193 531.696158 
M 292.252174 570.981095 
L 303.480182 601.56594 
M 352.75022 628.042403 
L 303.480182 601.56594 
M 352.75022 628.042403 
L 372.140143 654.225038 
M 426.873686 665.748057 
L 372.140143 654.225038 
M 426.873686 665.748057 
L 452.854691 685.407327 
M 508.617539 681.043347 
L 452.854691 685.407327 
M 508.617539 681.043347 
L 532.63622 690.143417 
M 502.78764 85.663773 
L 470.15121 77.684734 
M 502.78764 85.663773 
L 532.63622 80.613797 
M 418.027826 103.06916 
L 470.15121 77.684734 
M 418.027826 103.06916 
L 384.465436 104.608068 
M 341.605031 143.649071 
L 384.465436 104.608068 
M 341.605031 143.649071 
L 309.83572 154.581254 
M 279.710593 204.116012 
L 309.83572 154.581254 
M 279.710593 204.116012 
L 252.30813 223.555816 
M 237.358811 279.571301 
L 252.30813 223.555816 
M 237.358811 279.571301 
L 216.54315 305.943827 
M 217.980788 363.901988 
L 216.54315 305.943827 
M 217.980788 363.901988 
L 205.438306 395.070691 
M 223.146406 450.276111 
L 205.438306 395.070691 
M 223.146406 450.276111 
L 219.893224 483.715891 
M 252.437193 531.696158 
L 219.893224 483.715891 
M 252.437193 531.696158 
L 258.736878 564.697908 
M 303.480182 601.56594 
L 258.736878 564.697908 
M 303.480182 601.56594 
L 318.822337 631.456078 
M 372.140143 654.225038 
L 318.822337 631.456078 
M 372.140143 654.225038 
L 395.281862 678.582047 
M 452.854691 685.407327 
L 395.281862 678.582047 
M 452.854691 685.407327 
L 481.921163 702.257935 
M 532.63622 693.677633 
L 481.921163 702.257935 
M 470.15121 77.684734 
L 435.790774 73.56927 
M 470.15121 77.684734 
L 528.142146 62.363246 
M 384.465436 104.608068 
L 435.790774 73.56927 
M 384.465436 104.608068 
L 350.337381 110.339729 
M 309.83572 154.581254 
L 350.337381 110.339729 
M 309.83572 154.581254 
L 278.704894 169.695753 
M 252.30813 223.555816 
L 278.704894 169.695753 
M 252.30813 223.555816 
L 226.696536 246.828638 
M 216.54315 305.943827 
L 226.696536 246.828638 
M 216.54315 305.943827 
L 198.525742 335.489542 
M 205.438306 395.070691 
L 198.525742 335.489542 
M 205.438306 395.070691 
L 196.474722 428.495691 
M 219.893224 483.715891 
L 196.474722 428.495691 
M 219.893224 483.715891 
L 220.709647 518.312269 
M 258.736878 564.697908 
L 220.709647 518.312269 
M 258.736878 564.697908 
L 269.267134 597.662891 
M 318.822337 631.456078 
L 269.267134 597.662891 
M 318.822337 631.456078 
L 338.213369 660.119025 
M 395.281862 678.582047 
L 338.213369 660.119025 
M 395.281862 678.582047 
L 421.962705 700.620833 
M 481.921163 702.257935 
L 421.962705 700.620833 
M 481.921163 702.257935 
L 513.730295 715.887148 
M 532.63622 710.89211 
L 513.730295 715.887148 
M 532.63622 64.288816 
L 528.142146 62.363246 
M 435.790774 73.56927 
L 400.186294 73.560903 
M 435.790774 73.56927 
L 493.982245 52.324287 
M 350.337381 110.339729 
L 400.186294 73.560903 
M 350.337381 110.339729 
L 316.172779 120.362662 
M 278.704894 169.695753 
L 316.172779 120.362662 
M 278.704894 169.695753 
L 248.747977 188.937972 
M 226.696536 246.828638 
L 248.747977 188.937972 
M 226.696536 246.828638 
L 203.374247 273.731245 
M 198.525742 335.489542 
L 203.374247 273.731245 
M 198.525742 335.489542 
L 183.727513 367.873054 
M 196.474722 428.495691 
L 183.727513 367.873054 
M 196.474722 428.495691 
L 191.399434 463.736581 
M 220.709647 518.312269 
L 191.399434 463.736581 
M 220.709647 518.312269 
L 225.768436 553.555543 
M 269.267134 597.662891 
L 225.768436 553.555543 
M 269.267134 597.662891 
L 284.050179 630.053329 
M 338.213369 660.119025 
L 284.050179 630.053329 
M 338.213369 660.119025 
L 361.523033 687.032572 
M 421.962705 700.620833 
L 361.523033 687.032572 
M 421.962705 700.620833 
L 451.910588 719.877096 
M 513.730295 715.887148 
L 451.910588 719.877096 
M 513.730295 715.887148 
L 532.63622 721.443247 
M 528.142146 62.363246 
L 532.63622 62.073191 
M 528.142146 62.363246 
L 493.982245 52.324287 
M 400.186294 73.560903 
L 363.845764 77.843896 
M 400.186294 73.560903 
L 457.907109 46.195473 
M 316.172779 120.362662 
L 363.845764 77.843896 
M 316.172779 120.362662 
L 282.510946 134.710457 
M 248.747977 188.937972 
L 282.510946 134.710457 
M 248.747977 188.937972 
L 220.49194 212.188204 
M 203.374247 273.731245 
L 220.49194 212.188204 
M 203.374247 273.731245 
L 182.813134 304.000337 
M 183.727513 367.873054 
L 182.813134 304.000337 
M 183.727513 367.873054 
L 172.527048 402.708772 
M 191.399434 463.736581 
L 172.527048 402.708772 
M 191.399434 463.736581 
L 190.466988 500.316749 
M 225.768436 553.555543 
L 190.466988 500.316749 
M 225.768436 553.555543 
L 235.179615 588.916644 
M 284.050179 630.053329 
L 235.179615 588.916644 
M 284.050179 630.053329 
L 303.042506 661.330649 
M 361.523033 687.032572 
L 303.042506 661.330649 
M 361.523033 687.032572 
L 388.557866 711.692147 
M 451.910588 719.877096 
L 388.557866 711.692147 
M 451.910588 719.877096 
L 484.797738 735.921217 
M 532.63622 728.342642 
L 484.797738 735.921217 
M 493.982245 52.324287 
L 532.63622 46.200722 
M 493.982245 52.324287 
L 457.907109 46.195473 
M 363.845764 77.843896 
L 327.298158 86.540159 
M 363.845764 77.843896 
L 420.389912 44.242825 
M 282.510946 134.710457 
L 327.298158 86.540159 
M 282.510946 134.710457 
L 249.893813 153.351121 
M 220.49194 212.188204 
L 249.893813 153.351121 
M 220.49194 212.188204 
L 194.447682 239.263102 
M 182.813134 304.000337 
L 194.447682 239.263102 
M 182.813134 304.000337 
L 165.451744 337.316021 
M 172.527048 402.708772 
L 165.451744 337.316021 
M 172.527048 402.708772 
L 165.25503 439.56621 
M 190.466988 500.316749 
L 165.25503 439.56621 
M 190.466988 500.316749 
L 193.873478 537.729971 
M 235.179615 588.916644 
L 193.873478 537.729971 
M 235.179615 588.916644 
L 248.988628 623.854647 
M 303.042506 661.330649 
L 248.988628 623.854647 
M 303.042506 661.330649 
L 326.13535 690.962942 
M 388.557866 711.692147 
L 326.13535 690.962942 
M 388.557866 711.692147 
L 419.06367 733.618133 
M 484.797738 735.921217 
L 419.06367 733.618133 
M 484.797738 735.921217 
L 520.245104 748.364589 
M 532.63622 745.19299 
L 520.245104 748.364589 
M 532.63622 33.750341 
L 521.627337 29.885805 
M 457.907109 46.195473 
L 521.627337 29.885805 
M 457.907109 46.195473 
L 420.389912 44.242825 
L 420.389912 44.242825 
" style="fill:none;stroke:#eb7a59;stroke-linecap:square;"/>
   </g>
   <g id="line2d_2">
    <path clip-path="url(#pe3854155cb)" d="M 530.803012 320.500155 
L 532.63622 319.047524 
M 530.803012 320.500155 
L 524.523027 301.458915 
M 511.069429 320.500155 
L 524.523027 301.458915 
M 511.069429 320.500155 
L 499.67929 303.999494 
M 492.135196 326.059747 
L 499.67929 303.999494 
M 492.135196 326.059747 
L 476.557664 313.436449 
M 475.534249 336.72853 
L 476.557664 313.436449 
M 475.534249 336.72853 
L 457.031322 329.005262 
M 462.611501 351.642176 
L 457.031322 329.005262 
M 462.611501 351.642176 
L 442.682175 349.44463 
M 454.413875 369.592475 
L 442.682175 349.44463 
M 454.413875 369.592475 
L 434.67271 373.098685 
M 451.605495 389.125197 
L 434.67271 373.098685 
M 451.605495 389.125197 
L 433.651798 398.051112 
M 454.413875 408.657919 
L 433.651798 398.051112 
M 454.413875 408.657919 
L 439.702147 422.280414 
M 462.611501 426.608217 
L 439.702147 422.280414 
M 462.611501 426.608217 
L 452.333605 443.823676 
M 475.534249 441.521863 
L 452.333605 443.823676 
M 475.534249 441.521863 
L 470.522834 460.935592 
M 492.135196 452.190647 
L 470.522834 460.935592 
M 492.135196 452.190647 
L 492.796259 472.229861 
M 511.069429 457.750239 
L 492.796259 472.229861 
M 511.069429 457.750239 
L 517.349414 476.791478 
M 530.803012 457.750239 
L 517.349414 476.791478 
M 530.803012 457.750239 
L 532.63622 460.405971 
L 532.63622 460.405971 
" style="fill:none;stroke:#00bac9;stroke-linecap:square;"/>
   </g>
   <g id="line2d_3">
    <path clip-path="url(#pe3854155cb)" d="M 327.298158 86.540159 
L 291.086055 99.707524 
M 327.298158 86.540159 
L 381.934992 46.674676 
M 249.893813 153.351121 
L 291.086055 99.707524 
M 249.893813 153.351121 
L 218.858209 176.187244 
M 194.447682 239.263102 
L 218.858209 176.187244 
M 194.447682 239.263102 
L 171.102951 269.917934 
M 165.451744 337.316021 
L 171.102951 269.917934 
M 165.451744 337.316021 
L 151.689093 373.306086 
M 165.25503 439.56621 
L 151.689093 373.306086 
M 165.25503 439.56621 
L 162.189426 477.975811 
M 193.873478 537.729971 
L 162.189426 477.975811 
M 193.873478 537.729971 
L 201.753318 575.447393 
M 248.988628 623.854647 
L 201.753318 575.447393 
M 248.988628 623.854647 
L 267.175488 657.82425 
M 326.13535 690.962942 
L 267.175488 657.82425 
M 326.13535 690.962942 
L 353.155844 718.432716 
M 419.06367 733.618133 
L 353.155844 718.432716 
M 419.06367 733.618133 
L 452.728777 752.362639 
M 520.245104 748.364589 
L 452.728777 752.362639 
M 520.245104 748.364589 
L 532.63622 751.167298 
M 521.627337 29.885805 
L 532.63622 29.233902 
M 521.627337 29.885805 
L 484.044971 21.385162 
M 420.389912 44.242825 
L 484.044971 21.385162 
M 420.389912 44.242825 
L 381.934992 46.674676 
L 381.934992 46.674676 
" style="fill:none;stroke:#00bac9;stroke-linecap:square;"/>
   </g>
   <g id="line2d_4">
    <path clip-path="url(#pe3854155cb)" d="M 142.511024 767.550394 
L 142.511024 10.7 
" style="fill:none;stroke:#000000;stroke-linecap:square;"/>
   </g>
   <g id="patch_3">
    <path d="M 10.7 767.550394 
L 10.7 10.7 
" style="fill:none;stroke:#000000;stroke-linecap:square;stroke-linejoin:miter;stroke-width:0.8;"/>
   </g>
   <g id="patch_4">
    <path d="M 520.93622 767.550394 
L 520.93622 10.7 
" style="fill:none;stroke:#000000;stroke-linecap:square;stroke-linejoin:miter;stroke-width:0.8;"/>
   </g>
   <g id="patch_5">
    <path d="M 10.7 767.550394 
L 520.93622 767.550394 
" style="fill:none;stroke:#000000;stroke-linecap:square;stroke-linejoin:miter;stroke-width:0.8;"/>
   </g>
   <g id="patch_6">
    <path d="M 10.7 10.7 
L 520.93622 10.7 
" style="fill:none;stroke:#000000;stroke-linecap:square;stroke-linejoin:miter;stroke-width:0.8;"/>
   </g>
   <g id="PathCollection_1">
    <defs>
     <path d="M 0 2.236068 
C 0.593012 2.236068 1.161816 2.000462 1.581139 1.581139 
C 2.000462 1.161816 2.236068 0.593012 2.236068 0 
C 2.236068 -0.593012 2.000462 -1.161816 1.581139 -1.581139 
C 1.161816 -2.000462 0.593012 -2.236068 0 -2.236068 
C -0.593012 -2.236068 -1.161816 -2.000462 -1.581139 -1.581139 
C -2.000462 -1.161816 -2.236068 -0.593012 -2.236068 0 
C -2.236068 0.593012 -2.000462 1.161816 -1.581139 1.581139 
C -1.161816 2.000462 -0.593012 2.236068 0 2.236068 
z
" id="mb4a2a1d4f3" style="stroke:#44525c;"/>
    </defs>
    <g clip-path="url(#pe3854155cb)">
     <use style="fill:#44525c;stroke:#44525c;" x="608.220644" xlink:href="#mb4a2a1d4f3" y="380.199282"/>
     <use style="fill:#44525c;stroke:#44525c;" x="602.170297" xlink:href="#mb4a2a1d4f3" y="355.969981"/>
     <use style="fill:#44525c;stroke:#44525c;" x="589.538838" xlink:href="#mb4a2a1d4f3" y="334.426718"/>
     <use style="fill:#44525c;stroke:#44525c;" x="571.349605" xlink:href="#mb4a2a1d4f3" y="317.314803"/>
     <use style="fill:#44525c;stroke:#44525c;" x="549.076182" xlink:href="#mb4a2a1d4f3" y="306.020532"/>
     <use style="fill:#44525c;stroke:#44525c;" x="524.523027" xlink:href="#mb4a2a1d4f3" y="301.458914"/>
     <use style="fill:#44525c;stroke:#44525c;" x="499.679289" xlink:href="#mb4a2a1d4f3" y="303.999496"/>
     <use style="fill:#44525c;stroke:#44525c;" x="476.557662" xlink:href="#mb4a2a1d4f3" y="313.436452"/>
     <use style="fill:#44525c;stroke:#44525c;" x="457.031319" xlink:href="#mb4a2a1d4f3" y="329.00526"/>
     <use style="fill:#44525c;stroke:#44525c;" x="442.682172" xlink:href="#mb4a2a1d4f3" y="349.444629"/>
     <use style="fill:#44525c;stroke:#44525c;" x="434.672709" xlink:href="#mb4a2a1d4f3" y="373.098685"/>
     <use style="fill:#44525c;stroke:#44525c;" x="433.651797" xlink:href="#mb4a2a1d4f3" y="398.051112"/>
     <use style="fill:#44525c;stroke:#44525c;" x="439.702144" xlink:href="#mb4a2a1d4f3" y="422.280412"/>
     <use style="fill:#44525c;stroke:#44525c;" x="452.333603" xlink:href="#mb4a2a1d4f3" y="443.823675"/>
     <use style="fill:#44525c;stroke:#44525c;" x="470.522836" xlink:href="#mb4a2a1d4f3" y="460.935591"/>
     <use style="fill:#44525c;stroke:#44525c;" x="492.796259" xlink:href="#mb4a2a1d4f3" y="472.229862"/>
     <use style="fill:#44525c;stroke:#44525c;" x="517.349414" xlink:href="#mb4a2a1d4f3" y="476.791479"/>
     <use style="fill:#44525c;stroke:#44525c;" x="542.193152" xlink:href="#mb4a2a1d4f3" y="474.250898"/>
     <use style="fill:#44525c;stroke:#44525c;" x="565.314779" xlink:href="#mb4a2a1d4f3" y="464.813942"/>
     <use style="fill:#44525c;stroke:#44525c;" x="584.841122" xlink:href="#mb4a2a1d4f3" y="449.245134"/>
     <use style="fill:#44525c;stroke:#44525c;" x="599.190269" xlink:href="#mb4a2a1d4f3" y="428.805765"/>
     <use style="fill:#44525c;stroke:#44525c;" x="607.199732" xlink:href="#mb4a2a1d4f3" y="405.151709"/>
     <use style="fill:#44525c;stroke:#44525c;" x="624.24247" xlink:href="#mb4a2a1d4f3" y="367.773215"/>
     <use style="fill:#44525c;stroke:#44525c;" x="614.042297" xlink:href="#mb4a2a1d4f3" y="339.533387"/>
     <use style="fill:#44525c;stroke:#44525c;" x="596.299214" xlink:href="#mb4a2a1d4f3" y="315.311197"/>
     <use style="fill:#44525c;stroke:#44525c;" x="572.450678" xlink:href="#mb4a2a1d4f3" y="297.068965"/>
     <use style="fill:#44525c;stroke:#44525c;" x="544.428742" xlink:href="#mb4a2a1d4f3" y="286.284596"/>
     <use style="fill:#44525c;stroke:#44525c;" x="514.503584" xlink:href="#mb4a2a1d4f3" y="283.831758"/>
     <use style="fill:#44525c;stroke:#44525c;" x="485.09956" xlink:href="#mb4a2a1d4f3" y="289.909158"/>
     <use style="fill:#44525c;stroke:#44525c;" x="458.598811" xlink:href="#mb4a2a1d4f3" y="304.024461"/>
     <use style="fill:#44525c;stroke:#44525c;" x="437.148262" xlink:href="#mb4a2a1d4f3" y="325.034117"/>
     <use style="fill:#44525c;stroke:#44525c;" x="422.485717" xlink:href="#mb4a2a1d4f3" y="351.236054"/>
     <use style="fill:#44525c;stroke:#44525c;" x="415.799054" xlink:href="#mb4a2a1d4f3" y="380.507539"/>
     <use style="fill:#44525c;stroke:#44525c;" x="417.629971" xlink:href="#mb4a2a1d4f3" y="410.477179"/>
     <use style="fill:#44525c;stroke:#44525c;" x="427.830144" xlink:href="#mb4a2a1d4f3" y="438.717006"/>
     <use style="fill:#44525c;stroke:#44525c;" x="445.573226" xlink:href="#mb4a2a1d4f3" y="462.939197"/>
     <use style="fill:#44525c;stroke:#44525c;" x="469.421763" xlink:href="#mb4a2a1d4f3" y="481.181428"/>
     <use style="fill:#44525c;stroke:#44525c;" x="497.443699" xlink:href="#mb4a2a1d4f3" y="491.965798"/>
     <use style="fill:#44525c;stroke:#44525c;" x="527.368857" xlink:href="#mb4a2a1d4f3" y="494.418636"/>
     <use style="fill:#44525c;stroke:#44525c;" x="556.772881" xlink:href="#mb4a2a1d4f3" y="488.341235"/>
     <use style="fill:#44525c;stroke:#44525c;" x="583.27363" xlink:href="#mb4a2a1d4f3" y="474.225932"/>
     <use style="fill:#44525c;stroke:#44525c;" x="604.724179" xlink:href="#mb4a2a1d4f3" y="453.216276"/>
     <use style="fill:#44525c;stroke:#44525c;" x="619.386723" xlink:href="#mb4a2a1d4f3" y="427.01434"/>
     <use style="fill:#44525c;stroke:#44525c;" x="626.073387" xlink:href="#mb4a2a1d4f3" y="397.742855"/>
     <use style="fill:#44525c;stroke:#44525c;" x="637.876533" xlink:href="#mb4a2a1d4f3" y="352.216531"/>
     <use style="fill:#44525c;stroke:#44525c;" x="622.741264" xlink:href="#mb4a2a1d4f3" y="320.765696"/>
     <use style="fill:#44525c;stroke:#44525c;" x="599.358349" xlink:href="#mb4a2a1d4f3" y="294.852945"/>
     <use style="fill:#44525c;stroke:#44525c;" x="569.622138" xlink:href="#mb4a2a1d4f3" y="276.577571"/>
     <use style="fill:#44525c;stroke:#44525c;" x="535.941684" xlink:href="#mb4a2a1d4f3" y="267.420119"/>
     <use style="fill:#44525c;stroke:#44525c;" x="501.045577" xlink:href="#mb4a2a1d4f3" y="268.122511"/>
     <use style="fill:#44525c;stroke:#44525c;" x="467.760889" xlink:href="#mb4a2a1d4f3" y="278.627809"/>
     <use style="fill:#44525c;stroke:#44525c;" x="438.784154" xlink:href="#mb4a2a1d4f3" y="298.084957"/>
     <use style="fill:#44525c;stroke:#44525c;" x="416.46289" xlink:href="#mb4a2a1d4f3" y="324.917638"/>
     <use style="fill:#44525c;stroke:#44525c;" x="402.605438" xlink:href="#mb4a2a1d4f3" y="356.952033"/>
     <use style="fill:#44525c;stroke:#44525c;" x="398.334435" xlink:href="#mb4a2a1d4f3" y="391.592906"/>
     <use style="fill:#44525c;stroke:#44525c;" x="403.995908" xlink:href="#mb4a2a1d4f3" y="426.033863"/>
     <use style="fill:#44525c;stroke:#44525c;" x="419.131177" xlink:href="#mb4a2a1d4f3" y="457.484697"/>
     <use style="fill:#44525c;stroke:#44525c;" x="442.514092" xlink:href="#mb4a2a1d4f3" y="483.397448"/>
     <use style="fill:#44525c;stroke:#44525c;" x="472.250303" xlink:href="#mb4a2a1d4f3" y="501.672823"/>
     <use style="fill:#44525c;stroke:#44525c;" x="505.930757" xlink:href="#mb4a2a1d4f3" y="510.830275"/>
     <use style="fill:#44525c;stroke:#44525c;" x="540.826864" xlink:href="#mb4a2a1d4f3" y="510.127882"/>
     <use style="fill:#44525c;stroke:#44525c;" x="574.111552" xlink:href="#mb4a2a1d4f3" y="499.622584"/>
     <use style="fill:#44525c;stroke:#44525c;" x="603.088287" xlink:href="#mb4a2a1d4f3" y="480.165436"/>
     <use style="fill:#44525c;stroke:#44525c;" x="625.409551" xlink:href="#mb4a2a1d4f3" y="453.332756"/>
     <use style="fill:#44525c;stroke:#44525c;" x="639.267003" xlink:href="#mb4a2a1d4f3" y="421.298361"/>
     <use style="fill:#44525c;stroke:#44525c;" x="643.538006" xlink:href="#mb4a2a1d4f3" y="386.657488"/>
     <use style="fill:#44525c;stroke:#44525c;" x="648.722369" xlink:href="#mb4a2a1d4f3" y="333.944654"/>
     <use style="fill:#44525c;stroke:#44525c;" x="627.999968" xlink:href="#mb4a2a1d4f3" y="300.178341"/>
     <use style="fill:#44525c;stroke:#44525c;" x="598.603904" xlink:href="#mb4a2a1d4f3" y="273.617973"/>
     <use style="fill:#44525c;stroke:#44525c;" x="562.915672" xlink:href="#mb4a2a1d4f3" y="256.4153"/>
     <use style="fill:#44525c;stroke:#44525c;" x="523.826512" xlink:href="#mb4a2a1d4f3" y="249.964009"/>
     <use style="fill:#44525c;stroke:#44525c;" x="484.503198" xlink:href="#mb4a2a1d4f3" y="254.786734"/>
     <use style="fill:#44525c;stroke:#44525c;" x="448.131474" xlink:href="#mb4a2a1d4f3" y="270.49275"/>
     <use style="fill:#44525c;stroke:#44525c;" x="417.657951" xlink:href="#mb4a2a1d4f3" y="295.809667"/>
     <use style="fill:#44525c;stroke:#44525c;" x="395.551426" xlink:href="#mb4a2a1d4f3" y="328.68645"/>
     <use style="fill:#44525c;stroke:#44525c;" x="383.602834" xlink:href="#mb4a2a1d4f3" y="366.459622"/>
     <use style="fill:#44525c;stroke:#44525c;" x="382.780171" xlink:href="#mb4a2a1d4f3" y="406.069025"/>
     <use style="fill:#44525c;stroke:#44525c;" x="393.150072" xlink:href="#mb4a2a1d4f3" y="444.30574"/>
     <use style="fill:#44525c;stroke:#44525c;" x="413.872473" xlink:href="#mb4a2a1d4f3" y="478.072053"/>
     <use style="fill:#44525c;stroke:#44525c;" x="443.268537" xlink:href="#mb4a2a1d4f3" y="504.63242"/>
     <use style="fill:#44525c;stroke:#44525c;" x="478.956769" xlink:href="#mb4a2a1d4f3" y="521.835094"/>
     <use style="fill:#44525c;stroke:#44525c;" x="518.045929" xlink:href="#mb4a2a1d4f3" y="528.286385"/>
     <use style="fill:#44525c;stroke:#44525c;" x="557.369243" xlink:href="#mb4a2a1d4f3" y="523.46366"/>
     <use style="fill:#44525c;stroke:#44525c;" x="593.740967" xlink:href="#mb4a2a1d4f3" y="507.757644"/>
     <use style="fill:#44525c;stroke:#44525c;" x="624.21449" xlink:href="#mb4a2a1d4f3" y="482.440727"/>
     <use style="fill:#44525c;stroke:#44525c;" x="646.321015" xlink:href="#mb4a2a1d4f3" y="449.563944"/>
     <use style="fill:#44525c;stroke:#44525c;" x="658.269607" xlink:href="#mb4a2a1d4f3" y="411.790772"/>
     <use style="fill:#44525c;stroke:#44525c;" x="659.09227" xlink:href="#mb4a2a1d4f3" y="372.181369"/>
     <use style="fill:#44525c;stroke:#44525c;" x="656.438831" xlink:href="#mb4a2a1d4f3" y="313.412311"/>
     <use style="fill:#44525c;stroke:#44525c;" x="629.619228" xlink:href="#mb4a2a1d4f3" y="278.303721"/>
     <use style="fill:#44525c;stroke:#44525c;" x="593.994782" xlink:href="#mb4a2a1d4f3" y="252.173223"/>
     <use style="fill:#44525c;stroke:#44525c;" x="552.451573" xlink:href="#mb4a2a1d4f3" y="237.137768"/>
     <use style="fill:#44525c;stroke:#44525c;" x="508.355175" xlink:href="#mb4a2a1d4f3" y="234.415421"/>
     <use style="fill:#44525c;stroke:#44525c;" x="465.278016" xlink:href="#mb4a2a1d4f3" y="244.226748"/>
     <use style="fill:#44525c;stroke:#44525c;" x="426.709953" xlink:href="#mb4a2a1d4f3" y="265.776874"/>
     <use style="fill:#44525c;stroke:#44525c;" x="395.775545" xlink:href="#mb4a2a1d4f3" y="297.319963"/>
     <use style="fill:#44525c;stroke:#44525c;" x="374.980918" xlink:href="#mb4a2a1d4f3" y="336.300558"/>
     <use style="fill:#44525c;stroke:#44525c;" x="366.010706" xlink:href="#mb4a2a1d4f3" y="379.56069"/>
     <use style="fill:#44525c;stroke:#44525c;" x="369.591643" xlink:href="#mb4a2a1d4f3" y="423.595683"/>
     <use style="fill:#44525c;stroke:#44525c;" x="385.433609" xlink:href="#mb4a2a1d4f3" y="464.838083"/>
     <use style="fill:#44525c;stroke:#44525c;" x="412.253213" xlink:href="#mb4a2a1d4f3" y="499.946673"/>
     <use style="fill:#44525c;stroke:#44525c;" x="447.877659" xlink:href="#mb4a2a1d4f3" y="526.077171"/>
     <use style="fill:#44525c;stroke:#44525c;" x="489.420868" xlink:href="#mb4a2a1d4f3" y="541.112626"/>
     <use style="fill:#44525c;stroke:#44525c;" x="533.517266" xlink:href="#mb4a2a1d4f3" y="543.834972"/>
     <use style="fill:#44525c;stroke:#44525c;" x="576.594425" xlink:href="#mb4a2a1d4f3" y="534.023646"/>
     <use style="fill:#44525c;stroke:#44525c;" x="615.162488" xlink:href="#mb4a2a1d4f3" y="512.47352"/>
     <use style="fill:#44525c;stroke:#44525c;" x="646.096896" xlink:href="#mb4a2a1d4f3" y="480.930431"/>
     <use style="fill:#44525c;stroke:#44525c;" x="666.891522" xlink:href="#mb4a2a1d4f3" y="441.949836"/>
     <use style="fill:#44525c;stroke:#44525c;" x="675.861735" xlink:href="#mb4a2a1d4f3" y="398.689704"/>
     <use style="fill:#44525c;stroke:#44525c;" x="672.280798" xlink:href="#mb4a2a1d4f3" y="354.65471"/>
     <use style="fill:#44525c;stroke:#44525c;" x="660.747586" xlink:href="#mb4a2a1d4f3" y="291.106564"/>
     <use style="fill:#44525c;stroke:#44525c;" x="627.469203" xlink:href="#mb4a2a1d4f3" y="255.687591"/>
     <use style="fill:#44525c;stroke:#44525c;" x="585.560153" xlink:href="#mb4a2a1d4f3" y="231.078946"/>
     <use style="fill:#44525c;stroke:#44525c;" x="538.415652" xlink:href="#mb4a2a1d4f3" y="219.274266"/>
     <use style="fill:#44525c;stroke:#44525c;" x="489.855076" xlink:href="#mb4a2a1d4f3" y="221.229895"/>
     <use style="fill:#44525c;stroke:#44525c;" x="443.812508" xlink:href="#mb4a2a1d4f3" y="236.787403"/>
     <use style="fill:#44525c;stroke:#44525c;" x="404.018049" xlink:href="#mb4a2a1d4f3" y="264.686418"/>
     <use style="fill:#44525c;stroke:#44525c;" x="373.695594" xlink:href="#mb4a2a1d4f3" y="302.666714"/>
     <use style="fill:#44525c;stroke:#44525c;" x="355.301699" xlink:href="#mb4a2a1d4f3" y="347.651369"/>
     <use style="fill:#44525c;stroke:#44525c;" x="350.326547" xlink:href="#mb4a2a1d4f3" y="395.995988"/>
     <use style="fill:#44525c;stroke:#44525c;" x="359.173163" xlink:href="#mb4a2a1d4f3" y="443.783974"/>
     <use style="fill:#44525c;stroke:#44525c;" x="381.124855" xlink:href="#mb4a2a1d4f3" y="487.14383"/>
     <use style="fill:#44525c;stroke:#44525c;" x="414.403238" xlink:href="#mb4a2a1d4f3" y="522.562803"/>
     <use style="fill:#44525c;stroke:#44525c;" x="456.312288" xlink:href="#mb4a2a1d4f3" y="547.171448"/>
     <use style="fill:#44525c;stroke:#44525c;" x="503.456789" xlink:href="#mb4a2a1d4f3" y="558.976127"/>
     <use style="fill:#44525c;stroke:#44525c;" x="552.017365" xlink:href="#mb4a2a1d4f3" y="557.020499"/>
     <use style="fill:#44525c;stroke:#44525c;" x="598.059933" xlink:href="#mb4a2a1d4f3" y="541.462991"/>
     <use style="fill:#44525c;stroke:#44525c;" x="637.854392" xlink:href="#mb4a2a1d4f3" y="513.563975"/>
     <use style="fill:#44525c;stroke:#44525c;" x="668.176847" xlink:href="#mb4a2a1d4f3" y="475.583679"/>
     <use style="fill:#44525c;stroke:#44525c;" x="686.570742" xlink:href="#mb4a2a1d4f3" y="430.599025"/>
     <use style="fill:#44525c;stroke:#44525c;" x="691.545894" xlink:href="#mb4a2a1d4f3" y="382.254406"/>
     <use style="fill:#44525c;stroke:#44525c;" x="682.699278" xlink:href="#mb4a2a1d4f3" y="334.46642"/>
     <use style="fill:#44525c;stroke:#44525c;" x="661.435624" xlink:href="#mb4a2a1d4f3" y="267.539431"/>
     <use style="fill:#44525c;stroke:#44525c;" x="621.489744" xlink:href="#mb4a2a1d4f3" y="232.881242"/>
     <use style="fill:#44525c;stroke:#44525c;" x="573.397613" xlink:href="#mb4a2a1d4f3" y="210.881039"/>
     <use style="fill:#44525c;stroke:#44525c;" x="521.055372" xlink:href="#mb4a2a1d4f3" y="203.321085"/>
     <use style="fill:#44525c;stroke:#44525c;" x="468.703479" xlink:href="#mb4a2a1d4f3" y="210.813888"/>
     <use style="fill:#44525c;stroke:#44525c;" x="420.583175" xlink:href="#mb4a2a1d4f3" y="232.752401"/>
     <use style="fill:#44525c;stroke:#44525c;" x="380.592867" xlink:href="#mb4a2a1d4f3" y="267.359335"/>
     <use style="fill:#44525c;stroke:#44525c;" x="351.97236" xlink:href="#mb4a2a1d4f3" y="311.830999"/>
     <use style="fill:#44525c;stroke:#44525c;" x="337.04028" xlink:href="#mb4a2a1d4f3" y="362.564576"/>
     <use style="fill:#44525c;stroke:#44525c;" x="337.006367" xlink:href="#mb4a2a1d4f3" y="415.449939"/>
     <use style="fill:#44525c;stroke:#44525c;" x="351.873364" xlink:href="#mb4a2a1d4f3" y="466.202628"/>
     <use style="fill:#44525c;stroke:#44525c;" x="380.436817" xlink:href="#mb4a2a1d4f3" y="510.710963"/>
     <use style="fill:#44525c;stroke:#44525c;" x="420.382697" xlink:href="#mb4a2a1d4f3" y="545.369152"/>
     <use style="fill:#44525c;stroke:#44525c;" x="468.474828" xlink:href="#mb4a2a1d4f3" y="567.369355"/>
     <use style="fill:#44525c;stroke:#44525c;" x="520.817069" xlink:href="#mb4a2a1d4f3" y="574.929309"/>
     <use style="fill:#44525c;stroke:#44525c;" x="573.168962" xlink:href="#mb4a2a1d4f3" y="567.436506"/>
     <use style="fill:#44525c;stroke:#44525c;" x="621.289265" xlink:href="#mb4a2a1d4f3" y="545.497993"/>
     <use style="fill:#44525c;stroke:#44525c;" x="661.279574" xlink:href="#mb4a2a1d4f3" y="510.891059"/>
     <use style="fill:#44525c;stroke:#44525c;" x="689.900081" xlink:href="#mb4a2a1d4f3" y="466.419395"/>
     <use style="fill:#44525c;stroke:#44525c;" x="704.832161" xlink:href="#mb4a2a1d4f3" y="415.685818"/>
     <use style="fill:#44525c;stroke:#44525c;" x="704.866074" xlink:href="#mb4a2a1d4f3" y="362.800455"/>
     <use style="fill:#44525c;stroke:#44525c;" x="689.999077" xlink:href="#mb4a2a1d4f3" y="312.047765"/>
     <use style="fill:#44525c;stroke:#44525c;" x="658.357073" xlink:href="#mb4a2a1d4f3" y="243.240317"/>
     <use style="fill:#44525c;stroke:#44525c;" x="611.690042" xlink:href="#mb4a2a1d4f3" y="210.433759"/>
     <use style="fill:#44525c;stroke:#44525c;" x="557.670681" xlink:href="#mb4a2a1d4f3" y="192.103703"/>
     <use style="fill:#44525c;stroke:#44525c;" x="500.67531" xlink:href="#mb4a2a1d4f3" y="189.735168"/>
     <use style="fill:#44525c;stroke:#44525c;" x="445.321364" xlink:href="#mb4a2a1d4f3" y="203.520037"/>
     <use style="fill:#44525c;stroke:#44525c;" x="396.093267" xlink:href="#mb4a2a1d4f3" y="232.341509"/>
     <use style="fill:#44525c;stroke:#44525c;" x="356.979222" xlink:href="#mb4a2a1d4f3" y="273.864679"/>
     <use style="fill:#44525c;stroke:#44525c;" x="331.147983" xlink:href="#mb4a2a1d4f3" y="324.725559"/>
     <use style="fill:#44525c;stroke:#44525c;" x="320.692265" xlink:href="#mb4a2a1d4f3" y="380.803722"/>
     <use style="fill:#44525c;stroke:#44525c;" x="326.459127" xlink:href="#mb4a2a1d4f3" y="437.556038"/>
     <use style="fill:#44525c;stroke:#44525c;" x="347.981355" xlink:href="#mb4a2a1d4f3" y="490.384783"/>
     <use style="fill:#44525c;stroke:#44525c;" x="383.515368" xlink:href="#mb4a2a1d4f3" y="535.010077"/>
     <use style="fill:#44525c;stroke:#44525c;" x="430.182399" xlink:href="#mb4a2a1d4f3" y="567.816634"/>
     <use style="fill:#44525c;stroke:#44525c;" x="484.20176" xlink:href="#mb4a2a1d4f3" y="586.14669"/>
     <use style="fill:#44525c;stroke:#44525c;" x="541.197131" xlink:href="#mb4a2a1d4f3" y="588.515225"/>
     <use style="fill:#44525c;stroke:#44525c;" x="596.551077" xlink:href="#mb4a2a1d4f3" y="574.730357"/>
     <use style="fill:#44525c;stroke:#44525c;" x="645.779174" xlink:href="#mb4a2a1d4f3" y="545.908885"/>
     <use style="fill:#44525c;stroke:#44525c;" x="684.893219" xlink:href="#mb4a2a1d4f3" y="504.385715"/>
     <use style="fill:#44525c;stroke:#44525c;" x="710.724458" xlink:href="#mb4a2a1d4f3" y="453.524834"/>
     <use style="fill:#44525c;stroke:#44525c;" x="721.180176" xlink:href="#mb4a2a1d4f3" y="397.446672"/>
     <use style="fill:#44525c;stroke:#44525c;" x="715.413314" xlink:href="#mb4a2a1d4f3" y="340.694356"/>
     <use style="fill:#44525c;stroke:#44525c;" x="693.891086" xlink:href="#mb4a2a1d4f3" y="287.865611"/>
     <use style="fill:#44525c;stroke:#44525c;" x="651.434159" xlink:href="#mb4a2a1d4f3" y="218.74832"/>
     <use style="fill:#44525c;stroke:#44525c;" x="598.147365" xlink:href="#mb4a2a1d4f3" y="188.884255"/>
     <use style="fill:#44525c;stroke:#44525c;" x="538.605382" xlink:href="#mb4a2a1d4f3" y="175.242542"/>
     <use style="fill:#44525c;stroke:#44525c;" x="477.631948" xlink:href="#mb4a2a1d4f3" y="178.928314"/>
     <use style="fill:#44525c;stroke:#44525c;" x="420.166775" xlink:href="#mb4a2a1d4f3" y="199.64299"/>
     <use style="fill:#44525c;stroke:#44525c;" x="370.86533" xlink:href="#mb4a2a1d4f3" y="235.70837"/>
     <use style="fill:#44525c;stroke:#44525c;" x="333.721742" xlink:href="#mb4a2a1d4f3" y="284.202695"/>
     <use style="fill:#44525c;stroke:#44525c;" x="311.745165" xlink:href="#mb4a2a1d4f3" y="341.197205"/>
     <use style="fill:#44525c;stroke:#44525c;" x="306.715987" xlink:href="#mb4a2a1d4f3" y="402.074558"/>
     <use style="fill:#44525c;stroke:#44525c;" x="319.041666" xlink:href="#mb4a2a1d4f3" y="461.902829"/>
     <use style="fill:#44525c;stroke:#44525c;" x="347.72366" xlink:href="#mb4a2a1d4f3" y="515.835096"/>
     <use style="fill:#44525c;stroke:#44525c;" x="390.438282" xlink:href="#mb4a2a1d4f3" y="559.502074"/>
     <use style="fill:#44525c;stroke:#44525c;" x="443.725076" xlink:href="#mb4a2a1d4f3" y="589.366139"/>
     <use style="fill:#44525c;stroke:#44525c;" x="503.267059" xlink:href="#mb4a2a1d4f3" y="603.007852"/>
     <use style="fill:#44525c;stroke:#44525c;" x="564.240493" xlink:href="#mb4a2a1d4f3" y="599.322079"/>
     <use style="fill:#44525c;stroke:#44525c;" x="621.705666" xlink:href="#mb4a2a1d4f3" y="578.607404"/>
     <use style="fill:#44525c;stroke:#44525c;" x="671.007111" xlink:href="#mb4a2a1d4f3" y="542.542024"/>
     <use style="fill:#44525c;stroke:#44525c;" x="708.150699" xlink:href="#mb4a2a1d4f3" y="494.047699"/>
     <use style="fill:#44525c;stroke:#44525c;" x="730.127275" xlink:href="#mb4a2a1d4f3" y="437.053188"/>
     <use style="fill:#44525c;stroke:#44525c;" x="735.156454" xlink:href="#mb4a2a1d4f3" y="376.175836"/>
     <use style="fill:#44525c;stroke:#44525c;" x="722.830775" xlink:href="#mb4a2a1d4f3" y="316.347565"/>
     <use style="fill:#44525c;stroke:#44525c;" x="694.148781" xlink:href="#mb4a2a1d4f3" y="262.415298"/>
     <use style="fill:#44525c;stroke:#44525c;" x="640.657393" xlink:href="#mb4a2a1d4f3" y="194.604377"/>
     <use style="fill:#44525c;stroke:#44525c;" x="581.004997" xlink:href="#mb4a2a1d4f3" y="168.754485"/>
     <use style="fill:#44525c;stroke:#44525c;" x="516.486181" xlink:href="#mb4a2a1d4f3" y="160.757714"/>
     <use style="fill:#44525c;stroke:#44525c;" x="452.327885" xlink:href="#mb4a2a1d4f3" y="171.261917"/>
     <use style="fill:#44525c;stroke:#44525c;" x="393.727828" xlink:href="#mb4a2a1d4f3" y="199.416113"/>
     <use style="fill:#44525c;stroke:#44525c;" x="345.43344" xlink:href="#mb4a2a1d4f3" y="242.939409"/>
     <use style="fill:#44525c;stroke:#44525c;" x="311.357238" xlink:href="#mb4a2a1d4f3" y="298.305812"/>
     <use style="fill:#44525c;stroke:#44525c;" x="294.259873" xlink:href="#mb4a2a1d4f3" y="361.029859"/>
     <use style="fill:#44525c;stroke:#44525c;" x="295.52649" xlink:href="#mb4a2a1d4f3" y="426.030021"/>
     <use style="fill:#44525c;stroke:#44525c;" x="315.054472" xlink:href="#mb4a2a1d4f3" y="488.040375"/>
     <use style="fill:#44525c;stroke:#44525c;" x="351.26175" xlink:href="#mb4a2a1d4f3" y="542.037205"/>
     <use style="fill:#44525c;stroke:#44525c;" x="401.215048" xlink:href="#mb4a2a1d4f3" y="583.646017"/>
     <use style="fill:#44525c;stroke:#44525c;" x="460.867444" xlink:href="#mb4a2a1d4f3" y="609.495909"/>
     <use style="fill:#44525c;stroke:#44525c;" x="525.38626" xlink:href="#mb4a2a1d4f3" y="617.492679"/>
     <use style="fill:#44525c;stroke:#44525c;" x="589.544556" xlink:href="#mb4a2a1d4f3" y="606.988476"/>
     <use style="fill:#44525c;stroke:#44525c;" x="648.144613" xlink:href="#mb4a2a1d4f3" y="578.834281"/>
     <use style="fill:#44525c;stroke:#44525c;" x="696.439001" xlink:href="#mb4a2a1d4f3" y="535.310985"/>
     <use style="fill:#44525c;stroke:#44525c;" x="730.515203" xlink:href="#mb4a2a1d4f3" y="479.944581"/>
     <use style="fill:#44525c;stroke:#44525c;" x="747.612568" xlink:href="#mb4a2a1d4f3" y="417.220535"/>
     <use style="fill:#44525c;stroke:#44525c;" x="746.34595" xlink:href="#mb4a2a1d4f3" y="352.220373"/>
     <use style="fill:#44525c;stroke:#44525c;" x="726.817969" xlink:href="#mb4a2a1d4f3" y="290.210019"/>
     <use style="fill:#44525c;stroke:#44525c;" x="690.610691" xlink:href="#mb4a2a1d4f3" y="236.213189"/>
     <use style="fill:#44525c;stroke:#44525c;" x="626.084836" xlink:href="#mb4a2a1d4f3" y="171.343531"/>
     <use style="fill:#44525c;stroke:#44525c;" x="560.469393" xlink:href="#mb4a2a1d4f3" y="150.541429"/>
     <use style="fill:#44525c;stroke:#44525c;" x="491.651205" xlink:href="#mb4a2a1d4f3" y="149.067953"/>
     <use style="fill:#44525c;stroke:#44525c;" x="425.205516" xlink:href="#mb4a2a1d4f3" y="167.042494"/>
     <use style="fill:#44525c;stroke:#44525c;" x="366.51535" xlink:href="#mb4a2a1d4f3" y="203.008878"/>
     <use style="fill:#44525c;stroke:#44525c;" x="320.335466" xlink:href="#mb4a2a1d4f3" y="254.053267"/>
     <use style="fill:#44525c;stroke:#44525c;" x="290.407048" xlink:href="#mb4a2a1d4f3" y="316.040406"/>
     <use style="fill:#44525c;stroke:#44525c;" x="279.154712" xlink:href="#mb4a2a1d4f3" y="383.948427"/>
     <use style="fill:#44525c;stroke:#44525c;" x="287.490102" xlink:href="#mb4a2a1d4f3" y="452.275836"/>
     <use style="fill:#44525c;stroke:#44525c;" x="314.737899" xlink:href="#mb4a2a1d4f3" y="515.487164"/>
     <use style="fill:#44525c;stroke:#44525c;" x="358.690673" xlink:href="#mb4a2a1d4f3" y="568.461392"/>
     <use style="fill:#44525c;stroke:#44525c;" x="415.787605" xlink:href="#mb4a2a1d4f3" y="606.906863"/>
     <use style="fill:#44525c;stroke:#44525c;" x="481.403048" xlink:href="#mb4a2a1d4f3" y="627.708964"/>
     <use style="fill:#44525c;stroke:#44525c;" x="550.221236" xlink:href="#mb4a2a1d4f3" y="629.182441"/>
     <use style="fill:#44525c;stroke:#44525c;" x="616.666925" xlink:href="#mb4a2a1d4f3" y="611.2079"/>
     <use style="fill:#44525c;stroke:#44525c;" x="675.357091" xlink:href="#mb4a2a1d4f3" y="575.241516"/>
     <use style="fill:#44525c;stroke:#44525c;" x="721.536975" xlink:href="#mb4a2a1d4f3" y="524.197127"/>
     <use style="fill:#44525c;stroke:#44525c;" x="751.465393" xlink:href="#mb4a2a1d4f3" y="462.209988"/>
     <use style="fill:#44525c;stroke:#44525c;" x="762.717729" xlink:href="#mb4a2a1d4f3" y="394.301967"/>
     <use style="fill:#44525c;stroke:#44525c;" x="754.382339" xlink:href="#mb4a2a1d4f3" y="325.974558"/>
     <use style="fill:#44525c;stroke:#44525c;" x="727.134542" xlink:href="#mb4a2a1d4f3" y="262.76323"/>
     <use style="fill:#44525c;stroke:#44525c;" x="683.181768" xlink:href="#mb4a2a1d4f3" y="209.789002"/>
     <use style="fill:#44525c;stroke:#44525c;" x="607.84061" xlink:href="#mb4a2a1d4f3" y="149.487347"/>
     <use style="fill:#44525c;stroke:#44525c;" x="536.806583" xlink:href="#mb4a2a1d4f3" y="134.710547"/>
     <use style="fill:#44525c;stroke:#44525c;" x="464.486836" xlink:href="#mb4a2a1d4f3" y="140.544952"/>
     <use style="fill:#44525c;stroke:#44525c;" x="396.740282" xlink:href="#mb4a2a1d4f3" y="166.517819"/>
     <use style="fill:#44525c;stroke:#44525c;" x="339.055342" xlink:href="#mb4a2a1d4f3" y="210.525024"/>
     <use style="fill:#44525c;stroke:#44525c;" x="296.105314" xlink:href="#mb4a2a1d4f3" y="269.00135"/>
     <use style="fill:#44525c;stroke:#44525c;" x="271.369747" xlink:href="#mb4a2a1d4f3" y="337.209393"/>
     <use style="fill:#44525c;stroke:#44525c;" x="266.852566" xlink:href="#mb4a2a1d4f3" y="409.623349"/>
     <use style="fill:#44525c;stroke:#44525c;" x="282.919747" xlink:href="#mb4a2a1d4f3" y="480.376668"/>
     <use style="fill:#44525c;stroke:#44525c;" x="318.269582" xlink:href="#mb4a2a1d4f3" y="543.737342"/>
     <use style="fill:#44525c;stroke:#44525c;" x="370.038287" xlink:href="#mb4a2a1d4f3" y="594.572236"/>
     <use style="fill:#44525c;stroke:#44525c;" x="434.031831" xlink:href="#mb4a2a1d4f3" y="628.763046"/>
     <use style="fill:#44525c;stroke:#44525c;" x="505.065858" xlink:href="#mb4a2a1d4f3" y="643.539847"/>
     <use style="fill:#44525c;stroke:#44525c;" x="577.385604" xlink:href="#mb4a2a1d4f3" y="637.705442"/>
     <use style="fill:#44525c;stroke:#44525c;" x="645.132159" xlink:href="#mb4a2a1d4f3" y="611.732575"/>
     <use style="fill:#44525c;stroke:#44525c;" x="702.817099" xlink:href="#mb4a2a1d4f3" y="567.72537"/>
     <use style="fill:#44525c;stroke:#44525c;" x="745.767127" xlink:href="#mb4a2a1d4f3" y="509.249044"/>
     <use style="fill:#44525c;stroke:#44525c;" x="770.502694" xlink:href="#mb4a2a1d4f3" y="441.041001"/>
     <use style="fill:#44525c;stroke:#44525c;" x="775.019875" xlink:href="#mb4a2a1d4f3" y="368.627044"/>
     <use style="fill:#44525c;stroke:#44525c;" x="758.952694" xlink:href="#mb4a2a1d4f3" y="297.873726"/>
     <use style="fill:#44525c;stroke:#44525c;" x="723.602859" xlink:href="#mb4a2a1d4f3" y="234.513052"/>
     <use style="fill:#44525c;stroke:#44525c;" x="671.834154" xlink:href="#mb4a2a1d4f3" y="183.678158"/>
     <use style="fill:#44525c;stroke:#44525c;" x="586.112504" xlink:href="#mb4a2a1d4f3" y="129.536511"/>
     <use style="fill:#44525c;stroke:#44525c;" x="510.337822" xlink:href="#mb4a2a1d4f3" y="121.689369"/>
     <use style="fill:#44525c;stroke:#44525c;" x="435.421754" xlink:href="#mb4a2a1d4f3" y="135.508299"/>
     <use style="fill:#44525c;stroke:#44525c;" x="367.433562" xlink:href="#mb4a2a1d4f3" y="169.873798"/>
     <use style="fill:#44525c;stroke:#44525c;" x="311.881238" xlink:href="#mb4a2a1d4f3" y="222.001709"/>
     <use style="fill:#44525c;stroke:#44525c;" x="273.265294" xlink:href="#mb4a2a1d4f3" y="287.668984"/>
     <use style="fill:#44525c;stroke:#44525c;" x="254.714187" xlink:href="#mb4a2a1d4f3" y="361.555635"/>
     <use style="fill:#44525c;stroke:#44525c;" x="257.730805" xlink:href="#mb4a2a1d4f3" y="437.675806"/>
     <use style="fill:#44525c;stroke:#44525c;" x="282.070766" xlink:href="#mb4a2a1d4f3" y="509.862699"/>
     <use style="fill:#44525c;stroke:#44525c;" x="325.762195" xlink:href="#mb4a2a1d4f3" y="572.268152"/>
     <use style="fill:#44525c;stroke:#44525c;" x="385.265435" xlink:href="#mb4a2a1d4f3" y="619.836438"/>
     <use style="fill:#44525c;stroke:#44525c;" x="455.759937" xlink:href="#mb4a2a1d4f3" y="648.713883"/>
     <use style="fill:#44525c;stroke:#44525c;" x="531.534619" xlink:href="#mb4a2a1d4f3" y="656.561025"/>
     <use style="fill:#44525c;stroke:#44525c;" x="606.450687" xlink:href="#mb4a2a1d4f3" y="642.742095"/>
     <use style="fill:#44525c;stroke:#44525c;" x="674.438879" xlink:href="#mb4a2a1d4f3" y="608.376595"/>
     <use style="fill:#44525c;stroke:#44525c;" x="729.991203" xlink:href="#mb4a2a1d4f3" y="556.248685"/>
     <use style="fill:#44525c;stroke:#44525c;" x="768.607147" xlink:href="#mb4a2a1d4f3" y="490.581409"/>
     <use style="fill:#44525c;stroke:#44525c;" x="787.158254" xlink:href="#mb4a2a1d4f3" y="416.694759"/>
     <use style="fill:#44525c;stroke:#44525c;" x="784.141636" xlink:href="#mb4a2a1d4f3" y="340.574588"/>
     <use style="fill:#44525c;stroke:#44525c;" x="759.801675" xlink:href="#mb4a2a1d4f3" y="268.387695"/>
     <use style="fill:#44525c;stroke:#44525c;" x="716.110245" xlink:href="#mb4a2a1d4f3" y="205.982242"/>
     <use style="fill:#44525c;stroke:#44525c;" x="656.607006" xlink:href="#mb4a2a1d4f3" y="158.413955"/>
     <use style="fill:#44525c;stroke:#44525c;" x="561.148915" xlink:href="#mb4a2a1d4f3" y="111.963711"/>
     <use style="fill:#44525c;stroke:#44525c;" x="481.434606" xlink:href="#mb4a2a1d4f3" y="111.861471"/>
     <use style="fill:#44525c;stroke:#44525c;" x="404.920474" xlink:href="#mb4a2a1d4f3" y="134.221461"/>
     <use style="fill:#44525c;stroke:#44525c;" x="337.805241" xlink:href="#mb4a2a1d4f3" y="177.232286"/>
     <use style="fill:#44525c;stroke:#44525c;" x="285.526215" xlink:href="#mb4a2a1d4f3" y="237.409385"/>
     <use style="fill:#44525c;stroke:#44525c;" x="252.318687" xlink:href="#mb4a2a1d4f3" y="309.877614"/>
     <use style="fill:#44525c;stroke:#44525c;" x="240.872955" xlink:href="#mb4a2a1d4f3" y="388.766001"/>
     <use style="fill:#44525c;stroke:#44525c;" x="252.116288" xlink:href="#mb4a2a1d4f3" y="467.683485"/>
     <use style="fill:#44525c;stroke:#44525c;" x="285.137828" xlink:href="#mb4a2a1d4f3" y="540.236639"/>
     <use style="fill:#44525c;stroke:#44525c;" x="337.262332" xlink:href="#mb4a2a1d4f3" y="600.547661"/>
     <use style="fill:#44525c;stroke:#44525c;" x="404.266998" xlink:href="#mb4a2a1d4f3" y="643.730459"/>
     <use style="fill:#44525c;stroke:#44525c;" x="480.723526" xlink:href="#mb4a2a1d4f3" y="666.286682"/>
     <use style="fill:#44525c;stroke:#44525c;" x="560.437835" xlink:href="#mb4a2a1d4f3" y="666.388922"/>
     <use style="fill:#44525c;stroke:#44525c;" x="636.951967" xlink:href="#mb4a2a1d4f3" y="644.028933"/>
     <use style="fill:#44525c;stroke:#44525c;" x="704.0672" xlink:href="#mb4a2a1d4f3" y="601.018107"/>
     <use style="fill:#44525c;stroke:#44525c;" x="756.346226" xlink:href="#mb4a2a1d4f3" y="540.841009"/>
     <use style="fill:#44525c;stroke:#44525c;" x="789.553754" xlink:href="#mb4a2a1d4f3" y="468.37278"/>
     <use style="fill:#44525c;stroke:#44525c;" x="800.999486" xlink:href="#mb4a2a1d4f3" y="389.484393"/>
     <use style="fill:#44525c;stroke:#44525c;" x="789.756153" xlink:href="#mb4a2a1d4f3" y="310.566909"/>
     <use style="fill:#44525c;stroke:#44525c;" x="756.734613" xlink:href="#mb4a2a1d4f3" y="238.013755"/>
     <use style="fill:#44525c;stroke:#44525c;" x="704.610109" xlink:href="#mb4a2a1d4f3" y="177.702733"/>
     <use style="fill:#44525c;stroke:#44525c;" x="637.605443" xlink:href="#mb4a2a1d4f3" y="134.519935"/>
     <use style="fill:#44525c;stroke:#44525c;" x="533.254902" xlink:href="#mb4a2a1d4f3" y="97.207051"/>
     <use style="fill:#44525c;stroke:#44525c;" x="450.51306" xlink:href="#mb4a2a1d4f3" y="105.561201"/>
     <use style="fill:#44525c;stroke:#44525c;" x="373.476489" xlink:href="#mb4a2a1d4f3" y="136.888024"/>
     <use style="fill:#44525c;stroke:#44525c;" x="308.386225" xlink:href="#mb4a2a1d4f3" y="188.649633"/>
     <use style="fill:#44525c;stroke:#44525c;" x="260.515504" xlink:href="#mb4a2a1d4f3" y="256.652558"/>
     <use style="fill:#44525c;stroke:#44525c;" x="233.74252" xlink:href="#mb4a2a1d4f3" y="335.38762"/>
     <use style="fill:#44525c;stroke:#44525c;" x="230.236221" xlink:href="#mb4a2a1d4f3" y="418.476187"/>
     <use style="fill:#44525c;stroke:#44525c;" x="250.280755" xlink:href="#mb4a2a1d4f3" y="499.186916"/>
     <use style="fill:#44525c;stroke:#44525c;" x="292.252178" xlink:href="#mb4a2a1d4f3" y="570.981097"/>
     <use style="fill:#44525c;stroke:#44525c;" x="352.750216" xlink:href="#mb4a2a1d4f3" y="628.042393"/>
     <use style="fill:#44525c;stroke:#44525c;" x="426.873686" xlink:href="#mb4a2a1d4f3" y="665.748044"/>
     <use style="fill:#44525c;stroke:#44525c;" x="508.617539" xlink:href="#mb4a2a1d4f3" y="681.043343"/>
     <use style="fill:#44525c;stroke:#44525c;" x="591.359381" xlink:href="#mb4a2a1d4f3" y="672.689192"/>
     <use style="fill:#44525c;stroke:#44525c;" x="668.395952" xlink:href="#mb4a2a1d4f3" y="641.36237"/>
     <use style="fill:#44525c;stroke:#44525c;" x="733.486216" xlink:href="#mb4a2a1d4f3" y="589.60076"/>
     <use style="fill:#44525c;stroke:#44525c;" x="781.356937" xlink:href="#mb4a2a1d4f3" y="521.597836"/>
     <use style="fill:#44525c;stroke:#44525c;" x="808.129921" xlink:href="#mb4a2a1d4f3" y="442.862774"/>
     <use style="fill:#44525c;stroke:#44525c;" x="811.63622" xlink:href="#mb4a2a1d4f3" y="359.774207"/>
     <use style="fill:#44525c;stroke:#44525c;" x="791.591686" xlink:href="#mb4a2a1d4f3" y="279.063478"/>
     <use style="fill:#44525c;stroke:#44525c;" x="749.620263" xlink:href="#mb4a2a1d4f3" y="207.269297"/>
     <use style="fill:#44525c;stroke:#44525c;" x="689.122225" xlink:href="#mb4a2a1d4f3" y="150.208001"/>
     <use style="fill:#44525c;stroke:#44525c;" x="614.998755" xlink:href="#mb4a2a1d4f3" y="112.50235"/>
     <use style="fill:#44525c;stroke:#44525c;" x="502.787639" xlink:href="#mb4a2a1d4f3" y="85.663783"/>
     <use style="fill:#44525c;stroke:#44525c;" x="418.027827" xlink:href="#mb4a2a1d4f3" y="103.069165"/>
     <use style="fill:#44525c;stroke:#44525c;" x="341.605027" xlink:href="#mb4a2a1d4f3" y="143.649076"/>
     <use style="fill:#44525c;stroke:#44525c;" x="279.710598" xlink:href="#mb4a2a1d4f3" y="204.116012"/>
     <use style="fill:#44525c;stroke:#44525c;" x="237.358817" xlink:href="#mb4a2a1d4f3" y="279.571298"/>
     <use style="fill:#44525c;stroke:#44525c;" x="217.980788" xlink:href="#mb4a2a1d4f3" y="363.901989"/>
     <use style="fill:#44525c;stroke:#44525c;" x="223.146417" xlink:href="#mb4a2a1d4f3" y="450.276109"/>
     <use style="fill:#44525c;stroke:#44525c;" x="252.437201" xlink:href="#mb4a2a1d4f3" y="531.696161"/>
     <use style="fill:#44525c;stroke:#44525c;" x="303.480184" xlink:href="#mb4a2a1d4f3" y="601.565937"/>
     <use style="fill:#44525c;stroke:#44525c;" x="372.140139" xlink:href="#mb4a2a1d4f3" y="654.225024"/>
     <use style="fill:#44525c;stroke:#44525c;" x="452.85469" xlink:href="#mb4a2a1d4f3" y="685.407327"/>
     <use style="fill:#44525c;stroke:#44525c;" x="539.084802" xlink:href="#mb4a2a1d4f3" y="692.586611"/>
     <use style="fill:#44525c;stroke:#44525c;" x="623.844614" xlink:href="#mb4a2a1d4f3" y="675.181229"/>
     <use style="fill:#44525c;stroke:#44525c;" x="700.267414" xlink:href="#mb4a2a1d4f3" y="634.601317"/>
     <use style="fill:#44525c;stroke:#44525c;" x="762.161843" xlink:href="#mb4a2a1d4f3" y="574.134381"/>
     <use style="fill:#44525c;stroke:#44525c;" x="804.513624" xlink:href="#mb4a2a1d4f3" y="498.679096"/>
     <use style="fill:#44525c;stroke:#44525c;" x="823.891653" xlink:href="#mb4a2a1d4f3" y="414.348405"/>
     <use style="fill:#44525c;stroke:#44525c;" x="818.726024" xlink:href="#mb4a2a1d4f3" y="327.974285"/>
     <use style="fill:#44525c;stroke:#44525c;" x="789.43524" xlink:href="#mb4a2a1d4f3" y="246.554233"/>
     <use style="fill:#44525c;stroke:#44525c;" x="738.392257" xlink:href="#mb4a2a1d4f3" y="176.684457"/>
     <use style="fill:#44525c;stroke:#44525c;" x="669.732302" xlink:href="#mb4a2a1d4f3" y="124.02537"/>
     <use style="fill:#44525c;stroke:#44525c;" x="589.017751" xlink:href="#mb4a2a1d4f3" y="92.843067"/>
     <use style="fill:#44525c;stroke:#44525c;" x="470.151209" xlink:href="#mb4a2a1d4f3" y="77.684746"/>
     <use style="fill:#44525c;stroke:#44525c;" x="384.465439" xlink:href="#mb4a2a1d4f3" y="104.608062"/>
     <use style="fill:#44525c;stroke:#44525c;" x="309.835723" xlink:href="#mb4a2a1d4f3" y="154.581257"/>
     <use style="fill:#44525c;stroke:#44525c;" x="252.308117" xlink:href="#mb4a2a1d4f3" y="223.555812"/>
     <use style="fill:#44525c;stroke:#44525c;" x="216.543158" xlink:href="#mb4a2a1d4f3" y="305.943825"/>
     <use style="fill:#44525c;stroke:#44525c;" x="205.438316" xlink:href="#mb4a2a1d4f3" y="395.070691"/>
     <use style="fill:#44525c;stroke:#44525c;" x="219.893231" xlink:href="#mb4a2a1d4f3" y="483.715894"/>
     <use style="fill:#44525c;stroke:#44525c;" x="258.736876" xlink:href="#mb4a2a1d4f3" y="564.697912"/>
     <use style="fill:#44525c;stroke:#44525c;" x="318.822332" xlink:href="#mb4a2a1d4f3" y="631.456075"/>
     <use style="fill:#44525c;stroke:#44525c;" x="395.281863" xlink:href="#mb4a2a1d4f3" y="678.582043"/>
     <use style="fill:#44525c;stroke:#44525c;" x="481.921165" xlink:href="#mb4a2a1d4f3" y="702.257932"/>
     <use style="fill:#44525c;stroke:#44525c;" x="571.721232" xlink:href="#mb4a2a1d4f3" y="700.565648"/>
     <use style="fill:#44525c;stroke:#44525c;" x="657.407002" xlink:href="#mb4a2a1d4f3" y="673.642332"/>
     <use style="fill:#44525c;stroke:#44525c;" x="732.036718" xlink:href="#mb4a2a1d4f3" y="623.669137"/>
     <use style="fill:#44525c;stroke:#44525c;" x="789.564324" xlink:href="#mb4a2a1d4f3" y="554.694582"/>
     <use style="fill:#44525c;stroke:#44525c;" x="825.329283" xlink:href="#mb4a2a1d4f3" y="472.306569"/>
     <use style="fill:#44525c;stroke:#44525c;" x="836.434125" xlink:href="#mb4a2a1d4f3" y="383.179703"/>
     <use style="fill:#44525c;stroke:#44525c;" x="821.97921" xlink:href="#mb4a2a1d4f3" y="294.5345"/>
     <use style="fill:#44525c;stroke:#44525c;" x="783.135565" xlink:href="#mb4a2a1d4f3" y="213.552482"/>
     <use style="fill:#44525c;stroke:#44525c;" x="723.050109" xlink:href="#mb4a2a1d4f3" y="146.794318"/>
     <use style="fill:#44525c;stroke:#44525c;" x="646.590578" xlink:href="#mb4a2a1d4f3" y="99.66835"/>
     <use style="fill:#44525c;stroke:#44525c;" x="559.951276" xlink:href="#mb4a2a1d4f3" y="75.992462"/>
     <use style="fill:#44525c;stroke:#44525c;" x="435.790772" xlink:href="#mb4a2a1d4f3" y="73.569279"/>
     <use style="fill:#44525c;stroke:#44525c;" x="350.337387" xlink:href="#mb4a2a1d4f3" y="110.339741"/>
     <use style="fill:#44525c;stroke:#44525c;" x="278.704906" xlink:href="#mb4a2a1d4f3" y="169.695757"/>
     <use style="fill:#44525c;stroke:#44525c;" x="226.696536" xlink:href="#mb4a2a1d4f3" y="246.828634"/>
     <use style="fill:#44525c;stroke:#44525c;" x="198.525742" xlink:href="#mb4a2a1d4f3" y="335.489542"/>
     <use style="fill:#44525c;stroke:#44525c;" x="196.474727" xlink:href="#mb4a2a1d4f3" y="428.49569"/>
     <use style="fill:#44525c;stroke:#44525c;" x="220.709636" xlink:href="#mb4a2a1d4f3" y="518.312264"/>
     <use style="fill:#44525c;stroke:#44525c;" x="269.267125" xlink:href="#mb4a2a1d4f3" y="597.662884"/>
     <use style="fill:#44525c;stroke:#44525c;" x="338.213363" xlink:href="#mb4a2a1d4f3" y="660.119038"/>
     <use style="fill:#44525c;stroke:#44525c;" x="421.962704" xlink:href="#mb4a2a1d4f3" y="700.620823"/>
     <use style="fill:#44525c;stroke:#44525c;" x="513.730295" xlink:href="#mb4a2a1d4f3" y="715.887142"/>
     <use style="fill:#44525c;stroke:#44525c;" x="606.081669" xlink:href="#mb4a2a1d4f3" y="704.681115"/>
     <use style="fill:#44525c;stroke:#44525c;" x="691.535054" xlink:href="#mb4a2a1d4f3" y="667.910653"/>
     <use style="fill:#44525c;stroke:#44525c;" x="763.167535" xlink:href="#mb4a2a1d4f3" y="608.554636"/>
     <use style="fill:#44525c;stroke:#44525c;" x="815.175904" xlink:href="#mb4a2a1d4f3" y="531.42176"/>
     <use style="fill:#44525c;stroke:#44525c;" x="843.346699" xlink:href="#mb4a2a1d4f3" y="442.760852"/>
     <use style="fill:#44525c;stroke:#44525c;" x="845.397714" xlink:href="#mb4a2a1d4f3" y="349.754704"/>
     <use style="fill:#44525c;stroke:#44525c;" x="821.162804" xlink:href="#mb4a2a1d4f3" y="259.93813"/>
     <use style="fill:#44525c;stroke:#44525c;" x="772.605316" xlink:href="#mb4a2a1d4f3" y="180.587509"/>
     <use style="fill:#44525c;stroke:#44525c;" x="703.659078" xlink:href="#mb4a2a1d4f3" y="118.131356"/>
     <use style="fill:#44525c;stroke:#44525c;" x="619.909737" xlink:href="#mb4a2a1d4f3" y="77.629571"/>
     <use style="fill:#44525c;stroke:#44525c;" x="528.142146" xlink:href="#mb4a2a1d4f3" y="62.363251"/>
     <use style="fill:#44525c;stroke:#44525c;" x="400.186296" xlink:href="#mb4a2a1d4f3" y="73.560899"/>
     <use style="fill:#44525c;stroke:#44525c;" x="316.172785" xlink:href="#mb4a2a1d4f3" y="120.362656"/>
     <use style="fill:#44525c;stroke:#44525c;" x="248.747968" xlink:href="#mb4a2a1d4f3" y="188.93797"/>
     <use style="fill:#44525c;stroke:#44525c;" x="203.374243" xlink:href="#mb4a2a1d4f3" y="273.731243"/>
     <use style="fill:#44525c;stroke:#44525c;" x="183.727504" xlink:href="#mb4a2a1d4f3" y="367.873054"/>
     <use style="fill:#44525c;stroke:#44525c;" x="191.399443" xlink:href="#mb4a2a1d4f3" y="463.736584"/>
     <use style="fill:#44525c;stroke:#44525c;" x="225.76843" xlink:href="#mb4a2a1d4f3" y="553.555548"/>
     <use style="fill:#44525c;stroke:#44525c;" x="284.05017" xlink:href="#mb4a2a1d4f3" y="630.053318"/>
     <use style="fill:#44525c;stroke:#44525c;" x="361.523031" xlink:href="#mb4a2a1d4f3" y="687.032568"/>
     <use style="fill:#44525c;stroke:#44525c;" x="451.910586" xlink:href="#mb4a2a1d4f3" y="719.877094"/>
     <use style="fill:#44525c;stroke:#44525c;" x="547.890196" xlink:href="#mb4a2a1d4f3" y="725.926116"/>
     <use style="fill:#44525c;stroke:#44525c;" x="641.686145" xlink:href="#mb4a2a1d4f3" y="704.689495"/>
     <use style="fill:#44525c;stroke:#44525c;" x="725.699655" xlink:href="#mb4a2a1d4f3" y="657.887737"/>
     <use style="fill:#44525c;stroke:#44525c;" x="793.124473" xlink:href="#mb4a2a1d4f3" y="589.312423"/>
     <use style="fill:#44525c;stroke:#44525c;" x="838.498198" xlink:href="#mb4a2a1d4f3" y="504.519151"/>
     <use style="fill:#44525c;stroke:#44525c;" x="858.144937" xlink:href="#mb4a2a1d4f3" y="410.37734"/>
     <use style="fill:#44525c;stroke:#44525c;" x="850.472998" xlink:href="#mb4a2a1d4f3" y="314.513809"/>
     <use style="fill:#44525c;stroke:#44525c;" x="816.104011" xlink:href="#mb4a2a1d4f3" y="224.694846"/>
     <use style="fill:#44525c;stroke:#44525c;" x="757.82227" xlink:href="#mb4a2a1d4f3" y="148.197076"/>
     <use style="fill:#44525c;stroke:#44525c;" x="680.349409" xlink:href="#mb4a2a1d4f3" y="91.217826"/>
     <use style="fill:#44525c;stroke:#44525c;" x="589.961855" xlink:href="#mb4a2a1d4f3" y="58.3733"/>
     <use style="fill:#44525c;stroke:#44525c;" x="493.982245" xlink:href="#mb4a2a1d4f3" y="52.324278"/>
     <use style="fill:#44525c;stroke:#44525c;" x="363.845759" xlink:href="#mb4a2a1d4f3" y="77.843891"/>
     <use style="fill:#44525c;stroke:#44525c;" x="282.510949" xlink:href="#mb4a2a1d4f3" y="134.710466"/>
     <use style="fill:#44525c;stroke:#44525c;" x="220.491937" xlink:href="#mb4a2a1d4f3" y="212.188206"/>
     <use style="fill:#44525c;stroke:#44525c;" x="182.81313" xlink:href="#mb4a2a1d4f3" y="304.000334"/>
     <use style="fill:#44525c;stroke:#44525c;" x="172.527045" xlink:href="#mb4a2a1d4f3" y="402.708773"/>
     <use style="fill:#44525c;stroke:#44525c;" x="190.466984" xlink:href="#mb4a2a1d4f3" y="500.316752"/>
     <use style="fill:#44525c;stroke:#44525c;" x="235.179609" xlink:href="#mb4a2a1d4f3" y="588.916643"/>
     <use style="fill:#44525c;stroke:#44525c;" x="303.042501" xlink:href="#mb4a2a1d4f3" y="661.330643"/>
     <use style="fill:#44525c;stroke:#44525c;" x="388.55786" xlink:href="#mb4a2a1d4f3" y="711.692144"/>
     <use style="fill:#44525c;stroke:#44525c;" x="484.797736" xlink:href="#mb4a2a1d4f3" y="735.921215"/>
     <use style="fill:#44525c;stroke:#44525c;" x="583.965331" xlink:href="#mb4a2a1d4f3" y="732.054914"/>
     <use style="fill:#44525c;stroke:#44525c;" x="678.026682" xlink:href="#mb4a2a1d4f3" y="700.406503"/>
     <use style="fill:#44525c;stroke:#44525c;" x="759.361492" xlink:href="#mb4a2a1d4f3" y="643.539928"/>
     <use style="fill:#44525c;stroke:#44525c;" x="821.380504" xlink:href="#mb4a2a1d4f3" y="566.062187"/>
     <use style="fill:#44525c;stroke:#44525c;" x="859.059311" xlink:href="#mb4a2a1d4f3" y="474.25006"/>
     <use style="fill:#44525c;stroke:#44525c;" x="869.345396" xlink:href="#mb4a2a1d4f3" y="375.541621"/>
     <use style="fill:#44525c;stroke:#44525c;" x="851.405457" xlink:href="#mb4a2a1d4f3" y="277.933642"/>
     <use style="fill:#44525c;stroke:#44525c;" x="806.692832" xlink:href="#mb4a2a1d4f3" y="189.333751"/>
     <use style="fill:#44525c;stroke:#44525c;" x="738.82994" xlink:href="#mb4a2a1d4f3" y="116.919751"/>
     <use style="fill:#44525c;stroke:#44525c;" x="653.314581" xlink:href="#mb4a2a1d4f3" y="66.55825"/>
     <use style="fill:#44525c;stroke:#44525c;" x="557.074705" xlink:href="#mb4a2a1d4f3" y="42.329179"/>
     <use style="fill:#44525c;stroke:#44525c;" x="457.90711" xlink:href="#mb4a2a1d4f3" y="46.19548"/>
     <use style="fill:#44525c;stroke:#44525c;" x="327.298159" xlink:href="#mb4a2a1d4f3" y="86.540148"/>
     <use style="fill:#44525c;stroke:#44525c;" x="249.893801" xlink:href="#mb4a2a1d4f3" y="153.351134"/>
     <use style="fill:#44525c;stroke:#44525c;" x="194.44769" xlink:href="#mb4a2a1d4f3" y="239.263098"/>
     <use style="fill:#44525c;stroke:#44525c;" x="165.451731" xlink:href="#mb4a2a1d4f3" y="337.316023"/>
     <use style="fill:#44525c;stroke:#44525c;" x="165.255037" xlink:href="#mb4a2a1d4f3" y="439.56621"/>
     <use style="fill:#44525c;stroke:#44525c;" x="193.873475" xlink:href="#mb4a2a1d4f3" y="537.729977"/>
     <use style="fill:#44525c;stroke:#44525c;" x="248.988618" xlink:href="#mb4a2a1d4f3" y="623.854639"/>
     <use style="fill:#44525c;stroke:#44525c;" x="326.135349" xlink:href="#mb4a2a1d4f3" y="690.962938"/>
     <use style="fill:#44525c;stroke:#44525c;" x="419.063668" xlink:href="#mb4a2a1d4f3" y="733.618141"/>
     <use style="fill:#44525c;stroke:#44525c;" x="520.245104" xlink:href="#mb4a2a1d4f3" y="748.364583"/>
     <use style="fill:#44525c;stroke:#44525c;" x="621.482526" xlink:href="#mb4a2a1d4f3" y="734.007555"/>
     <use style="fill:#44525c;stroke:#44525c;" x="714.574282" xlink:href="#mb4a2a1d4f3" y="691.710246"/>
     <use style="fill:#44525c;stroke:#44525c;" x="791.97864" xlink:href="#mb4a2a1d4f3" y="624.89926"/>
     <use style="fill:#44525c;stroke:#44525c;" x="847.424751" xlink:href="#mb4a2a1d4f3" y="538.987296"/>
     <use style="fill:#44525c;stroke:#44525c;" x="876.42071" xlink:href="#mb4a2a1d4f3" y="440.934371"/>
     <use style="fill:#44525c;stroke:#44525c;" x="876.617404" xlink:href="#mb4a2a1d4f3" y="338.684184"/>
     <use style="fill:#44525c;stroke:#44525c;" x="847.998965" xlink:href="#mb4a2a1d4f3" y="240.520416"/>
     <use style="fill:#44525c;stroke:#44525c;" x="792.883823" xlink:href="#mb4a2a1d4f3" y="154.395754"/>
     <use style="fill:#44525c;stroke:#44525c;" x="715.737091" xlink:href="#mb4a2a1d4f3" y="87.287456"/>
     <use style="fill:#44525c;stroke:#44525c;" x="622.808773" xlink:href="#mb4a2a1d4f3" y="44.632253"/>
     <use style="fill:#44525c;stroke:#44525c;" x="521.627337" xlink:href="#mb4a2a1d4f3" y="29.885811"/>
     <use style="fill:#44525c;stroke:#44525c;" x="420.389915" xlink:href="#mb4a2a1d4f3" y="44.242839"/>
    </g>
   </g>
   <g id="PathCollection_2">
    <defs>
     <path d="M 0 2.236068 
C 0.593012 2.236068 1.161816 2.000462 1.581139 1.581139 
C 2.000462 1.161816 2.236068 0.593012 2.236068 0 
C 2.236068 -0.593012 2.000462 -1.161816 1.581139 -1.581139 
C 1.161816 -2.000462 0.593012 -2.236068 0 -2.236068 
C -0.593012 -2.236068 -1.161816 -2.000462 -1.581139 -1.581139 
C -2.000462 -1.161816 -2.236068 -0.593012 -2.236068 0 
C -2.236068 0.593012 -2.000462 1.161816 -1.581139 1.581139 
C -1.161816 2.000462 -0.593012 2.236068 0 2.236068 
z
" id="mf9e971e8c4" style="stroke:#5aa0df;"/>
    </defs>
    <g clip-path="url(#pe3854155cb)">
     <use style="fill:#5aa0df;stroke:#5aa0df;" x="590.266946" xlink:href="#mf9e971e8c4" y="389.125197"/>
     <use style="fill:#5aa0df;stroke:#5aa0df;" x="587.458566" xlink:href="#mf9e971e8c4" y="369.592474"/>
     <use style="fill:#5aa0df;stroke:#5aa0df;" x="579.260937" xlink:href="#mf9e971e8c4" y="351.642175"/>
     <use style="fill:#5aa0df;stroke:#5aa0df;" x="566.338191" xlink:href="#mf9e971e8c4" y="336.728532"/>
     <use style="fill:#5aa0df;stroke:#5aa0df;" x="549.737245" xlink:href="#mf9e971e8c4" y="326.059747"/>
     <use style="fill:#5aa0df;stroke:#5aa0df;" x="530.803011" xlink:href="#mf9e971e8c4" y="320.500155"/>
     <use style="fill:#5aa0df;stroke:#5aa0df;" x="511.069429" xlink:href="#mf9e971e8c4" y="320.500155"/>
     <use style="fill:#5aa0df;stroke:#5aa0df;" x="492.135196" xlink:href="#mf9e971e8c4" y="326.059747"/>
     <use style="fill:#5aa0df;stroke:#5aa0df;" x="475.53425" xlink:href="#mf9e971e8c4" y="336.728532"/>
     <use style="fill:#5aa0df;stroke:#5aa0df;" x="462.611503" xlink:href="#mf9e971e8c4" y="351.642175"/>
     <use style="fill:#5aa0df;stroke:#5aa0df;" x="454.413875" xlink:href="#mf9e971e8c4" y="369.592474"/>
     <use style="fill:#5aa0df;stroke:#5aa0df;" x="451.605495" xlink:href="#mf9e971e8c4" y="389.125197"/>
     <use style="fill:#5aa0df;stroke:#5aa0df;" x="454.413875" xlink:href="#mf9e971e8c4" y="408.65792"/>
     <use style="fill:#5aa0df;stroke:#5aa0df;" x="462.611503" xlink:href="#mf9e971e8c4" y="426.608219"/>
     <use style="fill:#5aa0df;stroke:#5aa0df;" x="475.53425" xlink:href="#mf9e971e8c4" y="441.521862"/>
     <use style="fill:#5aa0df;stroke:#5aa0df;" x="492.135196" xlink:href="#mf9e971e8c4" y="452.190647"/>
     <use style="fill:#5aa0df;stroke:#5aa0df;" x="511.069429" xlink:href="#mf9e971e8c4" y="457.750238"/>
     <use style="fill:#5aa0df;stroke:#5aa0df;" x="530.803011" xlink:href="#mf9e971e8c4" y="457.750238"/>
     <use style="fill:#5aa0df;stroke:#5aa0df;" x="549.737245" xlink:href="#mf9e971e8c4" y="452.190647"/>
     <use style="fill:#5aa0df;stroke:#5aa0df;" x="566.338191" xlink:href="#mf9e971e8c4" y="441.521862"/>
     <use style="fill:#5aa0df;stroke:#5aa0df;" x="579.260937" xlink:href="#mf9e971e8c4" y="426.608219"/>
     <use style="fill:#5aa0df;stroke:#5aa0df;" x="587.458566" xlink:href="#mf9e971e8c4" y="408.65792"/>
    </g>
   </g>
   <g id="PathCollection_3">
    <g clip-path="url(#pe3854155cb)">
     <use style="fill:#5aa0df;stroke:#5aa0df;" x="291.086043" xlink:href="#mf9e971e8c4" y="99.707522"/>
     <use style="fill:#5aa0df;stroke:#5aa0df;" x="218.858208" xlink:href="#mf9e971e8c4" y="176.187247"/>
     <use style="fill:#5aa0df;stroke:#5aa0df;" x="171.102959" xlink:href="#mf9e971e8c4" y="269.917927"/>
     <use style="fill:#5aa0df;stroke:#5aa0df;" x="151.689084" xlink:href="#mf9e971e8c4" y="373.306086"/>
     <use style="fill:#5aa0df;stroke:#5aa0df;" x="162.189435" xlink:href="#mf9e971e8c4" y="477.975808"/>
     <use style="fill:#5aa0df;stroke:#5aa0df;" x="201.753327" xlink:href="#mf9e971e8c4" y="575.447388"/>
     <use style="fill:#5aa0df;stroke:#5aa0df;" x="267.175479" xlink:href="#mf9e971e8c4" y="657.824236"/>
     <use style="fill:#5aa0df;stroke:#5aa0df;" x="353.15585" xlink:href="#mf9e971e8c4" y="718.432705"/>
     <use style="fill:#5aa0df;stroke:#5aa0df;" x="452.728776" xlink:href="#mf9e971e8c4" y="752.362644"/>
     <use style="fill:#5aa0df;stroke:#5aa0df;" x="557.82747" xlink:href="#mf9e971e8c4" y="756.865227"/>
     <use style="fill:#5aa0df;stroke:#5aa0df;" x="659.937453" xlink:href="#mf9e971e8c4" y="731.575722"/>
     <use style="fill:#5aa0df;stroke:#5aa0df;" x="750.786398" xlink:href="#mf9e971e8c4" y="678.542872"/>
     <use style="fill:#5aa0df;stroke:#5aa0df;" x="823.014233" xlink:href="#mf9e971e8c4" y="602.063147"/>
     <use style="fill:#5aa0df;stroke:#5aa0df;" x="870.769482" xlink:href="#mf9e971e8c4" y="508.332466"/>
     <use style="fill:#5aa0df;stroke:#5aa0df;" x="890.183357" xlink:href="#mf9e971e8c4" y="404.944308"/>
     <use style="fill:#5aa0df;stroke:#5aa0df;" x="879.683006" xlink:href="#mf9e971e8c4" y="300.274586"/>
     <use style="fill:#5aa0df;stroke:#5aa0df;" x="840.119114" xlink:href="#mf9e971e8c4" y="202.803006"/>
     <use style="fill:#5aa0df;stroke:#5aa0df;" x="774.696962" xlink:href="#mf9e971e8c4" y="120.426158"/>
     <use style="fill:#5aa0df;stroke:#5aa0df;" x="688.716591" xlink:href="#mf9e971e8c4" y="59.817689"/>
     <use style="fill:#5aa0df;stroke:#5aa0df;" x="589.143665" xlink:href="#mf9e971e8c4" y="25.88775"/>
     <use style="fill:#5aa0df;stroke:#5aa0df;" x="484.044971" xlink:href="#mf9e971e8c4" y="21.385166"/>
     <use style="fill:#5aa0df;stroke:#5aa0df;" x="381.934988" xlink:href="#mf9e971e8c4" y="46.674672"/>
    </g>
   </g>
  </g>
 </g>
 <defs>
  <clipPath id="pe3854155cb">
   <rect height="756.850394" width="510.23622" x="10.7" y="10.7"/>
  </clipPath>
 </defs>
</svg>
