<?xml version="1.0" encoding="utf-8" standalone="no"?>
<!DOCTYPE svg PUBLIC "-//W3C//DTD SVG 1.1//EN"
  "http://www.w3.org/Graphics/SVG/1.1/DTD/svg11.dtd">
<!-- Created with matplotlib (https://matplotlib.org/) -->
<svg height="778.250394pt" version="1.1" viewBox="0 0 531.63622 778.250394" width="531.63622pt" xmlns="http://www.w3.org/2000/svg" xmlns:xlink="http://www.w3.org/1999/xlink">
 <defs>
  <style type="text/css">
*{stroke-linecap:butt;stroke-linejoin:round;}
  </style>
 </defs>
 <g id="figure_1">
  <g id="patch_1">
   <path d="M 0 778.250394 
L 531.63622 778.250394 
L 531.63622 0 
L 0 0 
z
" style="fill:none;"/>
  </g>
  <g id="axes_1">
   <g id="patch_2">
    <path d="M 10.7 767.550394 
L 520.93622 767.550394 
L 520.93622 10.7 
L 10.7 10.7 
z
" style="fill:none;"/>
   </g>
   <g id="matplotlib.axis_1"/>
   <g id="matplotlib.axis_2"/>
   <g id="line2d_1">
    <path clip-path="url(#p5ba436f456)" d="M 532.63622 290.055659 
L 526.640521 275.085192 
M 505.230963 300.056255 
L 526.640521 275.085192 
M 505.230963 300.056255 
L 487.292531 280.01166 
M 475.71473 310.79928 
L 487.292531 280.01166 
M 475.71473 310.79928 
L 452.00247 298.098832 
M 451.652884 330.989574 
L 452.00247 298.098832 
M 451.652884 330.989574 
L 425.026831 327.165126 
M 435.947623 358.191877 
L 425.026831 327.165126 
M 435.947623 358.191877 
L 409.619286 363.704719 
M 430.49324 389.125197 
L 409.619286 363.704719 
M 430.49324 389.125197 
L 407.638202 403.310396 
M 435.947623 420.058517 
L 407.638202 403.310396 
M 435.947623 420.058517 
L 419.322535 441.205127 
M 451.652884 447.26082 
L 419.322535 441.205127 
M 451.652884 447.26082 
L 443.262972 472.81825 
M 475.71473 467.451114 
L 443.262972 472.81825 
M 475.71473 467.451114 
L 476.571952 494.336757 
M 505.230963 478.194138 
L 476.571952 494.336757 
M 505.230963 478.194138 
L 515.23192 503.165201 
M 532.63622 482.865675 
L 515.23192 503.165201 
M 526.640521 275.085192 
L 532.63622 271.708749 
M 526.640521 275.085192 
L 510.740877 252.667748 
M 487.292531 280.01166 
L 510.740877 252.667748 
M 487.292531 280.01166 
L 464.684534 264.384154 
M 452.00247 298.098832 
L 464.684534 264.384154 
M 452.00247 298.098832 
L 425.412977 291.14616 
M 425.026831 327.165126 
L 425.412977 291.14616 
M 425.026831 327.165126 
L 397.662931 329.725896 
M 409.619286 363.704719 
L 397.662931 329.725896 
M 409.619286 363.704719 
L 384.781455 375.470062 
M 407.638202 403.310396 
L 384.781455 375.470062 
M 407.638202 403.310396 
L 388.322271 422.861237 
M 419.322535 441.205127 
L 388.322271 422.861237 
M 419.322535 441.205127 
L 407.858274 466.183349 
M 443.262972 472.81825 
L 407.858274 466.183349 
M 443.262972 472.81825 
L 441.03315 500.211111 
M 476.571952 494.336757 
L 441.03315 500.211111 
M 476.571952 494.336757 
L 483.845511 520.840274 
M 515.23192 503.165201 
L 483.845511 520.840274 
M 515.23192 503.165201 
L 531.131564 525.582646 
M 532.63622 523.828015 
L 531.131564 525.582646 
M 510.740877 252.667748 
L 532.63622 239.566347 
M 510.740877 252.667748 
L 489.581578 233.754011 
M 464.684534 264.384154 
L 489.581578 233.754011 
M 464.684534 264.384154 
L 438.332417 253.847956 
M 425.412977 291.14616 
L 438.332417 253.847956 
M 425.412977 291.14616 
L 397.046497 290.258339 
M 397.662931 329.725896 
L 397.046497 290.258339 
M 397.662931 329.725896 
L 370.703495 338.593522 
M 384.781455 375.470062 
L 370.703495 338.593522 
M 384.781455 375.470062 
L 362.480788 393.02357 
M 388.322271 422.861237 
L 362.480788 393.02357 
M 388.322271 422.861237 
L 373.370143 446.983416 
M 407.858274 466.183349 
L 373.370143 446.983416 
M 407.858274 466.183349 
L 402.058149 493.964707 
M 441.03315 500.211111 
L 402.058149 493.964707 
M 441.03315 500.211111 
L 445.084599 528.300816 
M 483.845511 520.840274 
L 445.084599 528.300816 
M 483.845511 520.840274 
L 497.259872 545.850271 
M 531.131564 525.582646 
L 497.259872 545.850271 
M 531.131564 525.582646 
L 532.63622 526.927618 
M 532.63622 218.324658 
L 525.485612 209.920749 
M 489.581578 233.754011 
L 525.485612 209.920749 
M 489.581578 233.754011 
L 463.919722 219.172129 
M 438.332417 253.847956 
L 463.919722 219.172129 
M 438.332417 253.847956 
L 409.230864 248.922339 
M 397.046497 290.258339 
L 409.230864 248.922339 
M 397.046497 290.258339 
L 368.015322 295.58309 
M 370.703495 338.593522 
L 368.015322 295.58309 
M 370.703495 338.593522 
L 345.244292 353.526398 
M 362.480788 393.02357 
L 345.244292 353.526398 
M 362.480788 393.02357 
L 343.6643 415.763445 
M 373.370143 446.983416 
L 343.6643 415.763445 
M 373.370143 446.983416 
L 363.465924 474.78753 
M 402.058149 493.964707 
L 363.465924 474.78753 
M 402.058149 493.964707 
L 402.260791 523.479469 
M 445.084599 528.300816 
L 402.260791 523.479469 
M 445.084599 528.300816 
L 455.369664 555.966298 
M 497.259872 545.850271 
L 455.369664 555.966298 
M 497.259872 545.850271 
L 516.386829 568.329645 
M 532.63622 557.543224 
L 516.386829 568.329645 
M 525.485612 209.920749 
L 532.63622 207.714344 
M 525.485612 209.920749 
L 501.214555 190.916861 
M 463.919722 219.172129 
L 501.214555 190.916861 
M 463.919722 219.172129 
L 434.612673 209.615493 
M 409.230864 248.922339 
L 434.612673 209.615493 
M 409.230864 248.922339 
L 378.422694 249.965648 
M 368.015322 295.58309 
L 378.422694 249.965648 
M 368.015322 295.58309 
L 339.421932 307.100491 
M 345.244292 353.526398 
L 339.421932 307.100491 
M 345.244292 353.526398 
L 322.314484 374.128729 
M 343.6643 415.763445 
L 322.314484 374.128729 
M 343.6643 415.763445 
L 329.163744 442.965759 
M 363.465924 474.78753 
L 329.163744 442.965759 
M 363.465924 474.78753 
L 359.143605 505.308827 
M 402.260791 523.479469 
L 359.143605 505.308827 
M 402.260791 523.479469 
L 408.638032 553.638436 
M 455.369664 555.966298 
L 408.638032 553.638436 
M 455.369664 555.966298 
L 471.677281 582.125308 
M 516.386829 568.329645 
L 471.677281 582.125308 
M 516.386829 568.329645 
L 532.63622 581.052684 
M 501.214555 190.916861 
L 532.63622 178.605741 
M 501.214555 190.916861 
L 472.493471 176.224455 
M 434.612673 209.615493 
L 472.493471 176.224455 
M 434.612673 209.615493 
L 402.598586 205.63233 
M 378.422694 249.965648 
L 402.598586 205.63233 
M 378.422694 249.965648 
L 346.976957 257.172159 
M 339.421932 307.100491 
L 346.976957 257.172159 
M 339.421932 307.100491 
L 312.337396 324.627475 
M 322.314484 374.128729 
L 312.337396 324.627475 
M 322.314484 374.128729 
L 302.857916 399.862164 
M 329.163744 442.965759 
L 302.857916 399.862164 
M 329.163744 442.965759 
L 319.681913 473.801818 
M 359.143605 505.308827 
L 319.681913 473.801818 
M 359.143605 505.308827 
L 360.780145 537.528217 
M 408.638032 553.638436 
L 360.780145 537.528217 
M 408.638032 553.638436 
L 421.195557 583.355027 
M 471.677281 582.125308 
L 421.195557 583.355027 
M 471.677281 582.125308 
L 493.641169 605.754849 
M 532.63622 590.47645 
L 493.641169 605.754849 
M 532.63622 160.900639 
L 521.121809 152.339686 
M 472.493471 176.224455 
L 521.121809 152.339686 
M 472.493471 176.224455 
L 440.125201 166.556126 
M 402.598586 205.63233 
L 440.125201 166.556126 
M 402.598586 205.63233 
L 368.875593 207.61768 
M 346.976957 257.172159 
L 368.875593 207.61768 
M 346.976957 257.172159 
L 315.966752 270.571719 
M 312.337396 324.627475 
L 315.966752 270.571719 
M 312.337396 324.627475 
L 287.780243 347.825055 
M 302.857916 399.862164 
L 287.780243 347.825055 
M 302.857916 399.862164 
L 287.715785 430.059802 
M 319.681913 473.801818 
L 287.715785 430.059802 
M 319.681913 473.801818 
L 315.781155 507.35723 
M 360.780145 537.528217 
L 315.781155 507.35723 
M 360.780145 537.528217 
L 368.591255 570.394132 
M 421.195557 583.355027 
L 368.591255 570.394132 
M 421.195557 583.355027 
L 439.776413 611.567319 
M 493.641169 605.754849 
L 439.776413 611.567319 
M 493.641169 605.754849 
L 520.750632 625.910708 
M 532.63622 620.072866 
L 520.750632 625.910708 
M 521.121809 152.339686 
L 532.63622 150.034369 
M 521.121809 152.339686 
L 489.508623 136.505066 
M 440.125201 166.556126 
L 489.508623 136.505066 
M 440.125201 166.556126 
L 405.00277 162.488799 
M 368.875593 207.61768 
L 405.00277 162.488799 
M 368.875593 207.61768 
L 334.480201 215.808217 
M 315.966752 270.571719 
L 334.480201 215.808217 
M 315.966752 270.571719 
L 286.446978 290.032228 
M 287.780243 347.825055 
L 286.446978 290.032228 
M 287.780243 347.825055 
L 266.69661 376.208312 
M 287.715785 430.059802 
L 266.69661 376.208312 
M 287.715785 430.059802 
L 277.611304 463.942364 
M 315.781155 507.35723 
L 277.611304 463.942364 
M 315.781155 507.35723 
L 317.874575 542.652366 
M 368.591255 570.394132 
L 317.874575 542.652366 
M 368.591255 570.394132 
L 382.630068 602.844711 
M 439.776413 611.567319 
L 382.630068 602.844711 
M 439.776413 611.567319 
L 464.067327 637.259352 
M 520.750632 625.910708 
L 464.067327 637.259352 
M 520.750632 625.910708 
L 532.63622 631.864039 
M 489.508623 136.505066 
L 532.63622 123.486479 
M 489.508623 136.505066 
L 454.14923 125.726472 
M 405.00277 162.488799 
L 454.14923 125.726472 
M 405.00277 162.488799 
L 368.089315 164.453851 
M 334.480201 215.808217 
L 368.089315 164.453851 
M 334.480201 215.808217 
L 300.464975 230.279915 
M 286.446978 290.032228 
L 300.464975 230.279915 
M 286.446978 290.032228 
L 259.432723 315.26506 
M 266.69661 376.208312 
L 259.432723 315.26506 
M 266.69661 376.208312 
L 249.941683 409.15883 
M 277.611304 463.942364 
L 249.941683 409.15883 
M 277.611304 463.942364 
L 273.13655 500.63625 
M 317.874575 542.652366 
L 273.13655 500.63625 
M 317.874575 542.652366 
L 326.219722 578.663793 
M 382.630068 602.844711 
L 326.219722 578.663793 
M 382.630068 602.844711 
L 402.788581 633.830184 
M 464.067327 637.259352 
L 402.788581 633.830184 
M 464.067327 637.259352 
L 493.607789 659.481546 
M 532.63622 647.700342 
L 493.607789 659.481546 
M 532.63622 110.592968 
L 514.070786 100.880621 
M 454.14923 125.726472 
L 514.070786 100.880621 
M 454.14923 125.726472 
L 415.899368 120.612006 
M 368.089315 164.453851 
L 415.899368 120.612006 
M 368.089315 164.453851 
L 330.396952 172.73006 
M 300.464975 230.279915 
L 330.396952 172.73006 
M 300.464975 230.279915 
L 267.876389 250.948551 
M 259.432723 315.26506 
L 267.876389 250.948551 
M 259.432723 315.26506 
L 235.878565 345.833185 
M 249.941683 409.15883 
L 235.878565 345.833185 
M 249.941683 409.15883 
L 238.262901 445.939475 
M 273.13655 500.63625 
L 238.262901 445.939475 
M 273.13655 500.63625 
L 274.741807 539.193127 
M 326.219722 578.663793 
L 274.741807 539.193127 
M 326.219722 578.663793 
L 340.91541 614.346368 
M 402.788581 633.830184 
L 340.91541 614.346368 
M 402.788581 633.830184 
L 428.80217 662.334619 
M 493.607789 659.481546 
L 428.80217 662.334619 
M 493.607789 659.481546 
L 527.801655 677.369773 
M 532.63622 675.365171 
L 527.801655 677.369773 
M 514.070786 100.880621 
L 532.63622 98.124499 
M 514.070786 100.880621 
L 475.941244 88.0877 
M 415.899368 120.612006 
L 475.941244 88.0877 
M 415.899368 120.612006 
L 375.69388 121.631677 
M 330.396952 172.73006 
L 375.69388 121.631677 
M 330.396952 172.73006 
L 292.964887 187.439305 
M 267.876389 250.948551 
L 292.964887 187.439305 
M 267.876389 250.948551 
L 237.732605 277.573237 
M 235.878565 345.833185 
L 237.732605 277.573237 
M 235.878565 345.833185 
L 216.658848 381.161982 
M 238.262901 445.939475 
L 216.658848 381.161982 
M 238.262901 445.939475 
L 232.285444 485.711213 
M 274.741807 539.193127 
L 232.285444 485.711213 
M 274.741807 539.193127 
L 282.727588 578.610733 
M 340.91541 614.346368 
L 282.727588 578.610733 
M 340.91541 614.346368 
L 361.901188 648.655526 
M 428.80217 662.334619 
L 361.901188 648.655526 
M 428.80217 662.334619 
L 460.256777 687.397112 
M 527.801655 677.369773 
L 460.256777 687.397112 
M 527.801655 677.369773 
L 532.63622 678.991828 
M 475.941244 88.0877 
L 532.63622 73.39403 
M 475.941244 88.0877 
L 434.699195 81.033419 
M 375.69388 121.631677 
L 434.699195 81.033419 
M 375.69388 121.631677 
L 334.526327 129.108421 
M 292.964887 187.439305 
L 334.526327 129.108421 
M 292.964887 187.439305 
L 256.837245 208.545291 
M 237.732605 277.573237 
L 256.837245 208.545291 
M 237.732605 277.573237 
L 211.002407 309.762763 
M 216.658848 381.161982 
L 211.002407 309.762763 
M 216.658848 381.161982 
L 202.550137 420.552513 
M 232.285444 485.711213 
L 202.550137 420.552513 
M 232.285444 485.711213 
L 232.499957 527.55166 
M 282.727588 578.610733 
L 232.499957 527.55166 
M 282.727588 578.610733 
L 297.239425 617.854541 
M 361.901188 648.655526 
L 297.239425 617.854541 
M 361.901188 648.655526 
L 388.960031 680.569289 
M 460.256777 687.397112 
L 388.960031 680.569289 
M 460.256777 687.397112 
L 496.598922 708.13158 
M 532.63622 698.791772 
L 496.598922 708.13158 
M 532.63622 65.252799 
L 504.724283 54.505257 
M 434.699195 81.033419 
L 504.724283 54.505257 
M 434.699195 81.033419 
L 391.25522 80.230095 
M 334.526327 129.108421 
L 391.25522 80.230095 
M 334.526327 129.108421 
L 293.427592 143.212268 
M 256.837245 208.545291 
L 293.427592 143.212268 
M 256.837245 208.545291 
L 223.040879 235.855163 
M 211.002407 309.762763 
L 223.040879 235.855163 
M 211.002407 309.762763 
L 188.584711 346.984694 
M 202.550137 420.552513 
L 188.584711 346.984694 
M 202.550137 420.552513 
L 194.215073 463.196986 
M 232.499957 527.55166 
L 194.215073 463.196986 
M 232.499957 527.55166 
L 239.252797 570.475118 
M 297.239425 617.854541 
L 239.252797 570.475118 
M 297.239425 617.854541 
L 318.265726 655.879792 
M 388.960031 680.569289 
L 318.265726 655.879792 
M 388.960031 680.569289 
L 421.723694 709.109915 
M 496.598922 708.13158 
L 421.723694 709.109915 
M 496.598922 708.13158 
L 532.63622 722.007807 
M 504.724283 54.505257 
L 460.760562 44.695713 
M 504.724283 54.505257 
L 532.63622 51.039398 
M 391.25522 80.230095 
L 460.760562 44.695713 
M 391.25522 80.230095 
L 346.587773 86.048656 
M 293.427592 143.212268 
L 346.587773 86.048656 
M 293.427592 143.212268 
L 253.444001 163.957085 
M 223.040879 235.855163 
L 253.444001 163.957085 
M 223.040879 235.855163 
L 192.563719 269.024111 
M 188.584711 346.984694 
L 192.563719 269.024111 
M 188.584711 346.984694 
L 171.290026 388.577103 
M 194.215073 463.196986 
L 171.290026 388.577103 
M 194.215073 463.196986 
L 192.188802 508.196205 
M 239.252797 570.475118 
L 192.188802 508.196205 
M 239.252797 570.475118 
L 252.739374 613.453587 
M 318.265726 655.879792 
L 252.739374 613.453587 
M 318.265726 655.879792 
L 345.638459 691.653642 
M 421.723694 709.109915 
L 345.638459 691.653642 
M 421.723694 709.109915 
L 459.681028 733.364324 
M 532.63622 724.30539 
L 459.681028 733.364324 
M 460.760562 44.695713 
L 414.270294 41.249454 
M 460.760562 44.695713 
L 532.63622 27.43904 
M 346.587773 86.048656 
L 414.270294 41.249454 
M 346.587773 86.048656 
L 301.722517 98.710828 
M 253.444001 163.957085 
L 301.722517 98.710828 
M 253.444001 163.957085 
L 215.615169 191.200444 
M 192.563719 269.024111 
L 215.615169 191.200444 
M 192.563719 269.024111 
L 166.334013 307.56273 
M 171.290026 388.577103 
L 166.334013 307.56273 
M 171.290026 388.577103 
L 159.823156 433.762641 
M 192.188802 508.196205 
L 159.823156 433.762641 
M 192.188802 508.196205 
L 196.867824 554.578614 
M 252.739374 613.453587 
L 196.867824 554.578614 
M 252.739374 613.453587 
L 272.999947 655.438465 
M 345.638459 691.653642 
L 272.999947 655.438465 
M 345.638459 691.653642 
L 379.036844 724.177002 
M 459.681028 733.364324 
L 379.036844 724.177002 
M 459.681028 733.364324 
L 502.188893 752.503351 
M 532.63622 745.193233 
L 502.188893 752.503351 
M 414.270294 41.249454 
L 366.218185 44.589713 
M 414.270294 41.249454 
L 493.386908 12.451058 
M 301.722517 98.710828 
L 366.218185 44.589713 
M 301.722517 98.710828 
L 257.710762 118.284411 
M 215.615169 191.200444 
L 257.710762 118.284411 
M 215.615169 191.200444 
L 180.952175 224.646537 
M 166.334013 307.56273 
L 180.952175 224.646537 
M 166.334013 307.56273 
L 145.200707 350.847195 
M 159.823156 433.762641 
L 145.200707 350.847195 
M 159.823156 433.762641 
L 154.768505 481.664753 
M 196.867824 554.578614 
L 154.768505 481.664753 
M 196.867824 554.578614 
L 208.501515 601.320676 
M 272.999947 655.438465 
L 208.501515 601.320676 
M 272.999947 655.438465 
L 299.918742 695.382686 
M 379.036844 724.177002 
L 299.918742 695.382686 
M 379.036844 724.177002 
L 417.993964 752.505539 
M 502.188893 752.503351 
L 417.993964 752.505539 
M 502.188893 752.503351 
L 532.63622 761.247554 
M 532.63622 23.723112 
L 493.386908 12.451058 
L 493.386908 12.451058 
" style="fill:none;stroke:#eb7a59;stroke-linecap:square;"/>
   </g>
   <g id="line2d_2">
    <path clip-path="url(#p5ba436f456)" d="M 142.511024 767.550394 
L 142.511024 10.7 
" style="fill:none;stroke:#000000;stroke-linecap:square;"/>
   </g>
   <g id="patch_3">
    <path d="M 10.7 767.550394 
L 10.7 10.7 
" style="fill:none;stroke:#000000;stroke-linecap:square;stroke-linejoin:miter;stroke-width:0.8;"/>
   </g>
   <g id="patch_4">
    <path d="M 520.93622 767.550394 
L 520.93622 10.7 
" style="fill:none;stroke:#000000;stroke-linecap:square;stroke-linejoin:miter;stroke-width:0.8;"/>
   </g>
   <g id="patch_5">
    <path d="M 10.7 767.550394 
L 520.93622 767.550394 
" style="fill:none;stroke:#000000;stroke-linecap:square;stroke-linejoin:miter;stroke-width:0.8;"/>
   </g>
   <g id="patch_6">
    <path d="M 10.7 10.7 
L 520.93622 10.7 
" style="fill:none;stroke:#000000;stroke-linecap:square;stroke-linejoin:miter;stroke-width:0.8;"/>
   </g>
   <g id="PathCollection_1">
    <defs>
     <path d="M 0 2.236068 
C 0.593012 2.236068 1.161816 2.000462 1.581139 1.581139 
C 2.000462 1.161816 2.236068 0.593012 2.236068 0 
C 2.236068 -0.593012 2.000462 -1.161816 1.581139 -1.581139 
C 1.161816 -2.000462 0.593012 -2.236068 0 -2.236068 
C -0.593012 -2.236068 -1.161816 -2.000462 -1.581139 -1.581139 
C -2.000462 -1.161816 -2.236068 -0.593012 -2.236068 0 
C -2.236068 0.593012 -2.000462 1.161816 -1.581139 1.581139 
C -1.161816 2.000462 -0.593012 2.236068 0 2.236068 
z
" id="mefd6e13bb7" style="stroke:#44525c;"/>
    </defs>
    <g clip-path="url(#p5ba436f456)">
     <use style="fill:#44525c;stroke:#44525c;" x="611.3792" xlink:href="#mefd6e13bb7" y="389.125197"/>
     <use style="fill:#44525c;stroke:#44525c;" x="605.924815" xlink:href="#mefd6e13bb7" y="358.191878"/>
     <use style="fill:#44525c;stroke:#44525c;" x="590.219556" xlink:href="#mefd6e13bb7" y="330.989571"/>
     <use style="fill:#44525c;stroke:#44525c;" x="566.15771" xlink:href="#mefd6e13bb7" y="310.79928"/>
     <use style="fill:#44525c;stroke:#44525c;" x="536.641478" xlink:href="#mefd6e13bb7" y="300.056258"/>
     <use style="fill:#44525c;stroke:#44525c;" x="505.230963" xlink:href="#mefd6e13bb7" y="300.056258"/>
     <use style="fill:#44525c;stroke:#44525c;" x="475.714731" xlink:href="#mefd6e13bb7" y="310.79928"/>
     <use style="fill:#44525c;stroke:#44525c;" x="451.652884" xlink:href="#mefd6e13bb7" y="330.989571"/>
     <use style="fill:#44525c;stroke:#44525c;" x="435.947626" xlink:href="#mefd6e13bb7" y="358.191878"/>
     <use style="fill:#44525c;stroke:#44525c;" x="430.493241" xlink:href="#mefd6e13bb7" y="389.125197"/>
     <use style="fill:#44525c;stroke:#44525c;" x="435.947626" xlink:href="#mefd6e13bb7" y="420.058516"/>
     <use style="fill:#44525c;stroke:#44525c;" x="451.652884" xlink:href="#mefd6e13bb7" y="447.260823"/>
     <use style="fill:#44525c;stroke:#44525c;" x="475.714731" xlink:href="#mefd6e13bb7" y="467.451114"/>
     <use style="fill:#44525c;stroke:#44525c;" x="505.230963" xlink:href="#mefd6e13bb7" y="478.194135"/>
     <use style="fill:#44525c;stroke:#44525c;" x="536.641478" xlink:href="#mefd6e13bb7" y="478.194135"/>
     <use style="fill:#44525c;stroke:#44525c;" x="566.15771" xlink:href="#mefd6e13bb7" y="467.451114"/>
     <use style="fill:#44525c;stroke:#44525c;" x="590.219556" xlink:href="#mefd6e13bb7" y="447.260823"/>
     <use style="fill:#44525c;stroke:#44525c;" x="605.924815" xlink:href="#mefd6e13bb7" y="420.058516"/>
     <use style="fill:#44525c;stroke:#44525c;" x="634.234236" xlink:href="#mefd6e13bb7" y="374.939998"/>
     <use style="fill:#44525c;stroke:#44525c;" x="622.549909" xlink:href="#mefd6e13bb7" y="337.045267"/>
     <use style="fill:#44525c;stroke:#44525c;" x="598.609466" xlink:href="#mefd6e13bb7" y="305.432145"/>
     <use style="fill:#44525c;stroke:#44525c;" x="565.300488" xlink:href="#mefd6e13bb7" y="283.913635"/>
     <use style="fill:#44525c;stroke:#44525c;" x="526.640521" xlink:href="#mefd6e13bb7" y="275.085192"/>
     <use style="fill:#44525c;stroke:#44525c;" x="487.29253" xlink:href="#mefd6e13bb7" y="280.011657"/>
     <use style="fill:#44525c;stroke:#44525c;" x="452.002472" xlink:href="#mefd6e13bb7" y="298.098832"/>
     <use style="fill:#44525c;stroke:#44525c;" x="425.026833" xlink:href="#mefd6e13bb7" y="327.165124"/>
     <use style="fill:#44525c;stroke:#44525c;" x="409.619285" xlink:href="#mefd6e13bb7" y="363.704718"/>
     <use style="fill:#44525c;stroke:#44525c;" x="407.638205" xlink:href="#mefd6e13bb7" y="403.310396"/>
     <use style="fill:#44525c;stroke:#44525c;" x="419.322532" xlink:href="#mefd6e13bb7" y="441.205126"/>
     <use style="fill:#44525c;stroke:#44525c;" x="443.262975" xlink:href="#mefd6e13bb7" y="472.818248"/>
     <use style="fill:#44525c;stroke:#44525c;" x="476.571953" xlink:href="#mefd6e13bb7" y="494.336759"/>
     <use style="fill:#44525c;stroke:#44525c;" x="515.23192" xlink:href="#mefd6e13bb7" y="503.165202"/>
     <use style="fill:#44525c;stroke:#44525c;" x="554.579911" xlink:href="#mefd6e13bb7" y="498.238737"/>
     <use style="fill:#44525c;stroke:#44525c;" x="589.869969" xlink:href="#mefd6e13bb7" y="480.151562"/>
     <use style="fill:#44525c;stroke:#44525c;" x="616.845608" xlink:href="#mefd6e13bb7" y="451.085269"/>
     <use style="fill:#44525c;stroke:#44525c;" x="632.253156" xlink:href="#mefd6e13bb7" y="414.545675"/>
     <use style="fill:#44525c;stroke:#44525c;" x="653.550176" xlink:href="#mefd6e13bb7" y="355.389158"/>
     <use style="fill:#44525c;stroke:#44525c;" x="634.014165" xlink:href="#mefd6e13bb7" y="312.067047"/>
     <use style="fill:#44525c;stroke:#44525c;" x="600.839293" xlink:href="#mefd6e13bb7" y="278.039281"/>
     <use style="fill:#44525c;stroke:#44525c;" x="558.026929" xlink:href="#mefd6e13bb7" y="257.410125"/>
     <use style="fill:#44525c;stroke:#44525c;" x="510.740877" xlink:href="#mefd6e13bb7" y="252.667743"/>
     <use style="fill:#44525c;stroke:#44525c;" x="464.684534" xlink:href="#mefd6e13bb7" y="264.384159"/>
     <use style="fill:#44525c;stroke:#44525c;" x="425.412976" xlink:href="#mefd6e13bb7" y="291.146161"/>
     <use style="fill:#44525c;stroke:#44525c;" x="397.662928" xlink:href="#mefd6e13bb7" y="329.725893"/>
     <use style="fill:#44525c;stroke:#44525c;" x="384.781458" xlink:href="#mefd6e13bb7" y="375.470062"/>
     <use style="fill:#44525c;stroke:#44525c;" x="388.322265" xlink:href="#mefd6e13bb7" y="422.861236"/>
     <use style="fill:#44525c;stroke:#44525c;" x="407.858276" xlink:href="#mefd6e13bb7" y="466.183347"/>
     <use style="fill:#44525c;stroke:#44525c;" x="441.033148" xlink:href="#mefd6e13bb7" y="500.211113"/>
     <use style="fill:#44525c;stroke:#44525c;" x="483.845512" xlink:href="#mefd6e13bb7" y="520.840269"/>
     <use style="fill:#44525c;stroke:#44525c;" x="531.131564" xlink:href="#mefd6e13bb7" y="525.582651"/>
     <use style="fill:#44525c;stroke:#44525c;" x="577.187907" xlink:href="#mefd6e13bb7" y="513.866234"/>
     <use style="fill:#44525c;stroke:#44525c;" x="616.459464" xlink:href="#mefd6e13bb7" y="487.104233"/>
     <use style="fill:#44525c;stroke:#44525c;" x="644.209513" xlink:href="#mefd6e13bb7" y="448.524501"/>
     <use style="fill:#44525c;stroke:#44525c;" x="657.090983" xlink:href="#mefd6e13bb7" y="402.780331"/>
     <use style="fill:#44525c;stroke:#44525c;" x="668.502301" xlink:href="#mefd6e13bb7" y="331.26698"/>
     <use style="fill:#44525c;stroke:#44525c;" x="639.814292" xlink:href="#mefd6e13bb7" y="284.285687"/>
     <use style="fill:#44525c;stroke:#44525c;" x="596.787841" xlink:href="#mefd6e13bb7" y="249.949573"/>
     <use style="fill:#44525c;stroke:#44525c;" x="544.612569" xlink:href="#mefd6e13bb7" y="232.400117"/>
     <use style="fill:#44525c;stroke:#44525c;" x="489.581577" xlink:href="#mefd6e13bb7" y="233.754011"/>
     <use style="fill:#44525c;stroke:#44525c;" x="438.332414" xlink:href="#mefd6e13bb7" y="253.847949"/>
     <use style="fill:#44525c;stroke:#44525c;" x="397.046502" xlink:href="#mefd6e13bb7" y="290.258341"/>
     <use style="fill:#44525c;stroke:#44525c;" x="370.703495" xlink:href="#mefd6e13bb7" y="338.593521"/>
     <use style="fill:#44525c;stroke:#44525c;" x="362.480794" xlink:href="#mefd6e13bb7" y="393.02357"/>
     <use style="fill:#44525c;stroke:#44525c;" x="373.37014" xlink:href="#mefd6e13bb7" y="446.983414"/>
     <use style="fill:#44525c;stroke:#44525c;" x="402.058149" xlink:href="#mefd6e13bb7" y="493.964707"/>
     <use style="fill:#44525c;stroke:#44525c;" x="445.0846" xlink:href="#mefd6e13bb7" y="528.300821"/>
     <use style="fill:#44525c;stroke:#44525c;" x="497.259872" xlink:href="#mefd6e13bb7" y="545.850277"/>
     <use style="fill:#44525c;stroke:#44525c;" x="552.290864" xlink:href="#mefd6e13bb7" y="544.496382"/>
     <use style="fill:#44525c;stroke:#44525c;" x="603.540026" xlink:href="#mefd6e13bb7" y="524.402445"/>
     <use style="fill:#44525c;stroke:#44525c;" x="644.825939" xlink:href="#mefd6e13bb7" y="487.992053"/>
     <use style="fill:#44525c;stroke:#44525c;" x="671.168946" xlink:href="#mefd6e13bb7" y="439.656873"/>
     <use style="fill:#44525c;stroke:#44525c;" x="679.391647" xlink:href="#mefd6e13bb7" y="385.226824"/>
     <use style="fill:#44525c;stroke:#44525c;" x="678.406514" xlink:href="#mefd6e13bb7" y="303.462865"/>
     <use style="fill:#44525c;stroke:#44525c;" x="639.611651" xlink:href="#mefd6e13bb7" y="254.770919"/>
     <use style="fill:#44525c;stroke:#44525c;" x="586.502777" xlink:href="#mefd6e13bb7" y="222.284098"/>
     <use style="fill:#44525c;stroke:#44525c;" x="525.485612" xlink:href="#mefd6e13bb7" y="209.920749"/>
     <use style="fill:#44525c;stroke:#44525c;" x="463.919719" xlink:href="#mefd6e13bb7" y="219.172134"/>
     <use style="fill:#44525c;stroke:#44525c;" x="409.230864" xlink:href="#mefd6e13bb7" y="248.922335"/>
     <use style="fill:#44525c;stroke:#44525c;" x="368.015319" xlink:href="#mefd6e13bb7" y="295.583087"/>
     <use style="fill:#44525c;stroke:#44525c;" x="345.244288" xlink:href="#mefd6e13bb7" y="353.526398"/>
     <use style="fill:#44525c;stroke:#44525c;" x="343.664301" xlink:href="#mefd6e13bb7" y="415.763445"/>
     <use style="fill:#44525c;stroke:#44525c;" x="363.465927" xlink:href="#mefd6e13bb7" y="474.787529"/>
     <use style="fill:#44525c;stroke:#44525c;" x="402.26079" xlink:href="#mefd6e13bb7" y="523.479474"/>
     <use style="fill:#44525c;stroke:#44525c;" x="455.369664" xlink:href="#mefd6e13bb7" y="555.966295"/>
     <use style="fill:#44525c;stroke:#44525c;" x="516.386829" xlink:href="#mefd6e13bb7" y="568.329645"/>
     <use style="fill:#44525c;stroke:#44525c;" x="577.952722" xlink:href="#mefd6e13bb7" y="559.078259"/>
     <use style="fill:#44525c;stroke:#44525c;" x="632.641577" xlink:href="#mefd6e13bb7" y="529.328059"/>
     <use style="fill:#44525c;stroke:#44525c;" x="673.857122" xlink:href="#mefd6e13bb7" y="482.667306"/>
     <use style="fill:#44525c;stroke:#44525c;" x="696.628152" xlink:href="#mefd6e13bb7" y="424.723995"/>
     <use style="fill:#44525c;stroke:#44525c;" x="698.20814" xlink:href="#mefd6e13bb7" y="362.486948"/>
     <use style="fill:#44525c;stroke:#44525c;" x="682.728839" xlink:href="#mefd6e13bb7" y="272.94156"/>
     <use style="fill:#44525c;stroke:#44525c;" x="633.23441" xlink:href="#mefd6e13bb7" y="224.611962"/>
     <use style="fill:#44525c;stroke:#44525c;" x="570.195159" xlink:href="#mefd6e13bb7" y="196.125081"/>
     <use style="fill:#44525c;stroke:#44525c;" x="501.214555" xlink:href="#mefd6e13bb7" y="190.916861"/>
     <use style="fill:#44525c;stroke:#44525c;" x="434.612675" xlink:href="#mefd6e13bb7" y="209.615489"/>
     <use style="fill:#44525c;stroke:#44525c;" x="378.422689" xlink:href="#mefd6e13bb7" y="249.965644"/>
     <use style="fill:#44525c;stroke:#44525c;" x="339.421927" xlink:href="#mefd6e13bb7" y="307.100491"/>
     <use style="fill:#44525c;stroke:#44525c;" x="322.314478" xlink:href="#mefd6e13bb7" y="374.128729"/>
     <use style="fill:#44525c;stroke:#44525c;" x="329.16374" xlink:href="#mefd6e13bb7" y="442.96576"/>
     <use style="fill:#44525c;stroke:#44525c;" x="359.143602" xlink:href="#mefd6e13bb7" y="505.308834"/>
     <use style="fill:#44525c;stroke:#44525c;" x="408.638031" xlink:href="#mefd6e13bb7" y="553.638432"/>
     <use style="fill:#44525c;stroke:#44525c;" x="471.677282" xlink:href="#mefd6e13bb7" y="582.125313"/>
     <use style="fill:#44525c;stroke:#44525c;" x="540.657886" xlink:href="#mefd6e13bb7" y="587.333533"/>
     <use style="fill:#44525c;stroke:#44525c;" x="607.259766" xlink:href="#mefd6e13bb7" y="568.634905"/>
     <use style="fill:#44525c;stroke:#44525c;" x="663.449752" xlink:href="#mefd6e13bb7" y="528.284749"/>
     <use style="fill:#44525c;stroke:#44525c;" x="702.450514" xlink:href="#mefd6e13bb7" y="471.149903"/>
     <use style="fill:#44525c;stroke:#44525c;" x="719.557963" xlink:href="#mefd6e13bb7" y="404.121665"/>
     <use style="fill:#44525c;stroke:#44525c;" x="712.708701" xlink:href="#mefd6e13bb7" y="335.284633"/>
     <use style="fill:#44525c;stroke:#44525c;" x="681.092298" xlink:href="#mefd6e13bb7" y="240.722179"/>
     <use style="fill:#44525c;stroke:#44525c;" x="620.676887" xlink:href="#mefd6e13bb7" y="194.895364"/>
     <use style="fill:#44525c;stroke:#44525c;" x="548.231272" xlink:href="#mefd6e13bb7" y="172.495541"/>
     <use style="fill:#44525c;stroke:#44525c;" x="472.493471" xlink:href="#mefd6e13bb7" y="176.224458"/>
     <use style="fill:#44525c;stroke:#44525c;" x="402.598585" xlink:href="#mefd6e13bb7" y="205.632323"/>
     <use style="fill:#44525c;stroke:#44525c;" x="346.97696" xlink:href="#mefd6e13bb7" y="257.172165"/>
     <use style="fill:#44525c;stroke:#44525c;" x="312.337397" xlink:href="#mefd6e13bb7" y="324.627476"/>
     <use style="fill:#44525c;stroke:#44525c;" x="302.857918" xlink:href="#mefd6e13bb7" y="399.862164"/>
     <use style="fill:#44525c;stroke:#44525c;" x="319.681909" xlink:href="#mefd6e13bb7" y="473.801821"/>
     <use style="fill:#44525c;stroke:#44525c;" x="360.780143" xlink:href="#mefd6e13bb7" y="537.528214"/>
     <use style="fill:#44525c;stroke:#44525c;" x="421.195554" xlink:href="#mefd6e13bb7" y="583.35503"/>
     <use style="fill:#44525c;stroke:#44525c;" x="493.641169" xlink:href="#mefd6e13bb7" y="605.754853"/>
     <use style="fill:#44525c;stroke:#44525c;" x="569.37897" xlink:href="#mefd6e13bb7" y="602.025935"/>
     <use style="fill:#44525c;stroke:#44525c;" x="639.273856" xlink:href="#mefd6e13bb7" y="572.618071"/>
     <use style="fill:#44525c;stroke:#44525c;" x="694.895481" xlink:href="#mefd6e13bb7" y="521.078229"/>
     <use style="fill:#44525c;stroke:#44525c;" x="729.535044" xlink:href="#mefd6e13bb7" y="453.622918"/>
     <use style="fill:#44525c;stroke:#44525c;" x="739.014523" xlink:href="#mefd6e13bb7" y="378.38823"/>
     <use style="fill:#44525c;stroke:#44525c;" x="722.190532" xlink:href="#mefd6e13bb7" y="304.448573"/>
     <use style="fill:#44525c;stroke:#44525c;" x="673.281191" xlink:href="#mefd6e13bb7" y="207.856257"/>
     <use style="fill:#44525c;stroke:#44525c;" x="602.09603" xlink:href="#mefd6e13bb7" y="166.683073"/>
     <use style="fill:#44525c;stroke:#44525c;" x="521.121809" xlink:href="#mefd6e13bb7" y="152.339684"/>
     <use style="fill:#44525c;stroke:#44525c;" x="440.125201" xlink:href="#mefd6e13bb7" y="166.556125"/>
     <use style="fill:#44525c;stroke:#44525c;" x="368.875599" xlink:href="#mefd6e13bb7" y="207.617675"/>
     <use style="fill:#44525c;stroke:#44525c;" x="315.966751" xlink:href="#mefd6e13bb7" y="270.571714"/>
     <use style="fill:#44525c;stroke:#44525c;" x="287.780251" xlink:href="#mefd6e13bb7" y="347.825054"/>
     <use style="fill:#44525c;stroke:#44525c;" x="287.715776" xlink:href="#mefd6e13bb7" y="430.059802"/>
     <use style="fill:#44525c;stroke:#44525c;" x="315.781154" xlink:href="#mefd6e13bb7" y="507.357227"/>
     <use style="fill:#44525c;stroke:#44525c;" x="368.591249" xlink:href="#mefd6e13bb7" y="570.394137"/>
     <use style="fill:#44525c;stroke:#44525c;" x="439.776411" xlink:href="#mefd6e13bb7" y="611.567321"/>
     <use style="fill:#44525c;stroke:#44525c;" x="520.750632" xlink:href="#mefd6e13bb7" y="625.91071"/>
     <use style="fill:#44525c;stroke:#44525c;" x="601.74724" xlink:href="#mefd6e13bb7" y="611.694269"/>
     <use style="fill:#44525c;stroke:#44525c;" x="672.996842" xlink:href="#mefd6e13bb7" y="570.632719"/>
     <use style="fill:#44525c;stroke:#44525c;" x="725.90569" xlink:href="#mefd6e13bb7" y="507.67868"/>
     <use style="fill:#44525c;stroke:#44525c;" x="754.09219" xlink:href="#mefd6e13bb7" y="430.425339"/>
     <use style="fill:#44525c;stroke:#44525c;" x="754.156665" xlink:href="#mefd6e13bb7" y="348.190592"/>
     <use style="fill:#44525c;stroke:#44525c;" x="726.091287" xlink:href="#mefd6e13bb7" y="270.893167"/>
     <use style="fill:#44525c;stroke:#44525c;" x="659.242373" xlink:href="#mefd6e13bb7" y="175.405688"/>
     <use style="fill:#44525c;stroke:#44525c;" x="577.805114" xlink:href="#mefd6e13bb7" y="140.991028"/>
     <use style="fill:#44525c;stroke:#44525c;" x="489.508625" xlink:href="#mefd6e13bb7" y="136.505071"/>
     <use style="fill:#44525c;stroke:#44525c;" x="405.002763" xlink:href="#mefd6e13bb7" y="162.488804"/>
     <use style="fill:#44525c;stroke:#44525c;" x="334.480201" xlink:href="#mefd6e13bb7" y="215.80822"/>
     <use style="fill:#44525c;stroke:#44525c;" x="286.446969" xlink:href="#mefd6e13bb7" y="290.032227"/>
     <use style="fill:#44525c;stroke:#44525c;" x="266.696611" xlink:href="#mefd6e13bb7" y="376.208312"/>
     <use style="fill:#44525c;stroke:#44525c;" x="277.611301" xlink:href="#mefd6e13bb7" y="463.942362"/>
     <use style="fill:#44525c;stroke:#44525c;" x="317.874571" xlink:href="#mefd6e13bb7" y="542.652361"/>
     <use style="fill:#44525c;stroke:#44525c;" x="382.630068" xlink:href="#mefd6e13bb7" y="602.844706"/>
     <use style="fill:#44525c;stroke:#44525c;" x="464.067327" xlink:href="#mefd6e13bb7" y="637.259365"/>
     <use style="fill:#44525c;stroke:#44525c;" x="552.363816" xlink:href="#mefd6e13bb7" y="641.745323"/>
     <use style="fill:#44525c;stroke:#44525c;" x="636.869678" xlink:href="#mefd6e13bb7" y="615.761589"/>
     <use style="fill:#44525c;stroke:#44525c;" x="707.39224" xlink:href="#mefd6e13bb7" y="562.442173"/>
     <use style="fill:#44525c;stroke:#44525c;" x="755.425472" xlink:href="#mefd6e13bb7" y="488.218166"/>
     <use style="fill:#44525c;stroke:#44525c;" x="775.17583" xlink:href="#mefd6e13bb7" y="402.042082"/>
     <use style="fill:#44525c;stroke:#44525c;" x="764.26114" xlink:href="#mefd6e13bb7" y="314.308032"/>
     <use style="fill:#44525c;stroke:#44525c;" x="723.997869" xlink:href="#mefd6e13bb7" y="235.598033"/>
     <use style="fill:#44525c;stroke:#44525c;" x="639.083866" xlink:href="#mefd6e13bb7" y="144.420201"/>
     <use style="fill:#44525c;stroke:#44525c;" x="548.264653" xlink:href="#mefd6e13bb7" y="118.768855"/>
     <use style="fill:#44525c;stroke:#44525c;" x="454.149233" xlink:href="#mefd6e13bb7" y="125.726466"/>
     <use style="fill:#44525c;stroke:#44525c;" x="368.089309" xlink:href="#mefd6e13bb7" y="164.453854"/>
     <use style="fill:#44525c;stroke:#44525c;" x="300.464972" xlink:href="#mefd6e13bb7" y="230.27991"/>
     <use style="fill:#44525c;stroke:#44525c;" x="259.432713" xlink:href="#mefd6e13bb7" y="315.265058"/>
     <use style="fill:#44525c;stroke:#44525c;" x="249.941677" xlink:href="#mefd6e13bb7" y="409.15883"/>
     <use style="fill:#44525c;stroke:#44525c;" x="273.136562" xlink:href="#mefd6e13bb7" y="500.636252"/>
     <use style="fill:#44525c;stroke:#44525c;" x="326.21972" xlink:href="#mefd6e13bb7" y="578.663795"/>
     <use style="fill:#44525c;stroke:#44525c;" x="402.788575" xlink:href="#mefd6e13bb7" y="633.830193"/>
     <use style="fill:#44525c;stroke:#44525c;" x="493.607788" xlink:href="#mefd6e13bb7" y="659.481539"/>
     <use style="fill:#44525c;stroke:#44525c;" x="587.723208" xlink:href="#mefd6e13bb7" y="652.523928"/>
     <use style="fill:#44525c;stroke:#44525c;" x="673.783132" xlink:href="#mefd6e13bb7" y="613.79654"/>
     <use style="fill:#44525c;stroke:#44525c;" x="741.407469" xlink:href="#mefd6e13bb7" y="547.970484"/>
     <use style="fill:#44525c;stroke:#44525c;" x="782.439728" xlink:href="#mefd6e13bb7" y="462.985336"/>
     <use style="fill:#44525c;stroke:#44525c;" x="791.930764" xlink:href="#mefd6e13bb7" y="369.091564"/>
     <use style="fill:#44525c;stroke:#44525c;" x="768.735879" xlink:href="#mefd6e13bb7" y="277.614142"/>
     <use style="fill:#44525c;stroke:#44525c;" x="715.652721" xlink:href="#mefd6e13bb7" y="199.586599"/>
     <use style="fill:#44525c;stroke:#44525c;" x="613.070274" xlink:href="#mefd6e13bb7" y="115.915762"/>
     <use style="fill:#44525c;stroke:#44525c;" x="514.070786" xlink:href="#mefd6e13bb7" y="100.880631"/>
     <use style="fill:#44525c;stroke:#44525c;" x="415.899368" xlink:href="#mefd6e13bb7" y="120.612011"/>
     <use style="fill:#44525c;stroke:#44525c;" x="330.396958" xlink:href="#mefd6e13bb7" y="172.730055"/>
     <use style="fill:#44525c;stroke:#44525c;" x="267.876398" xlink:href="#mefd6e13bb7" y="250.948548"/>
     <use style="fill:#44525c;stroke:#44525c;" x="235.878555" xlink:href="#mefd6e13bb7" y="345.833184"/>
     <use style="fill:#44525c;stroke:#44525c;" x="238.262891" xlink:href="#mefd6e13bb7" y="445.939476"/>
     <use style="fill:#44525c;stroke:#44525c;" x="274.741799" xlink:href="#mefd6e13bb7" y="539.193127"/>
     <use style="fill:#44525c;stroke:#44525c;" x="340.915408" xlink:href="#mefd6e13bb7" y="614.34637"/>
     <use style="fill:#44525c;stroke:#44525c;" x="428.802167" xlink:href="#mefd6e13bb7" y="662.334632"/>
     <use style="fill:#44525c;stroke:#44525c;" x="527.801655" xlink:href="#mefd6e13bb7" y="677.369763"/>
     <use style="fill:#44525c;stroke:#44525c;" x="625.973073" xlink:href="#mefd6e13bb7" y="657.638382"/>
     <use style="fill:#44525c;stroke:#44525c;" x="711.475483" xlink:href="#mefd6e13bb7" y="605.520339"/>
     <use style="fill:#44525c;stroke:#44525c;" x="773.996043" xlink:href="#mefd6e13bb7" y="527.301846"/>
     <use style="fill:#44525c;stroke:#44525c;" x="805.993886" xlink:href="#mefd6e13bb7" y="432.417209"/>
     <use style="fill:#44525c;stroke:#44525c;" x="803.60955" xlink:href="#mefd6e13bb7" y="332.310918"/>
     <use style="fill:#44525c;stroke:#44525c;" x="767.130642" xlink:href="#mefd6e13bb7" y="239.057267"/>
     <use style="fill:#44525c;stroke:#44525c;" x="700.957033" xlink:href="#mefd6e13bb7" y="163.904024"/>
     <use style="fill:#44525c;stroke:#44525c;" x="581.615665" xlink:href="#mefd6e13bb7" y="90.853282"/>
     <use style="fill:#44525c;stroke:#44525c;" x="475.941246" xlink:href="#mefd6e13bb7" y="88.087695"/>
     <use style="fill:#44525c;stroke:#44525c;" x="375.693881" xlink:href="#mefd6e13bb7" y="121.63168"/>
     <use style="fill:#44525c;stroke:#44525c;" x="292.964884" xlink:href="#mefd6e13bb7" y="187.439299"/>
     <use style="fill:#44525c;stroke:#44525c;" x="237.732606" xlink:href="#mefd6e13bb7" y="277.573234"/>
     <use style="fill:#44525c;stroke:#44525c;" x="216.658861" xlink:href="#mefd6e13bb7" y="381.161983"/>
     <use style="fill:#44525c;stroke:#44525c;" x="232.285452" xlink:href="#mefd6e13bb7" y="485.711214"/>
     <use style="fill:#44525c;stroke:#44525c;" x="282.727594" xlink:href="#mefd6e13bb7" y="578.610729"/>
     <use style="fill:#44525c;stroke:#44525c;" x="361.901187" xlink:href="#mefd6e13bb7" y="648.655518"/>
     <use style="fill:#44525c;stroke:#44525c;" x="460.256776" xlink:href="#mefd6e13bb7" y="687.397112"/>
     <use style="fill:#44525c;stroke:#44525c;" x="565.931195" xlink:href="#mefd6e13bb7" y="690.162698"/>
     <use style="fill:#44525c;stroke:#44525c;" x="666.17856" xlink:href="#mefd6e13bb7" y="656.618714"/>
     <use style="fill:#44525c;stroke:#44525c;" x="748.907557" xlink:href="#mefd6e13bb7" y="590.811095"/>
     <use style="fill:#44525c;stroke:#44525c;" x="804.139835" xlink:href="#mefd6e13bb7" y="500.67716"/>
     <use style="fill:#44525c;stroke:#44525c;" x="825.21358" xlink:href="#mefd6e13bb7" y="397.088411"/>
     <use style="fill:#44525c;stroke:#44525c;" x="809.586988" xlink:href="#mefd6e13bb7" y="292.53918"/>
     <use style="fill:#44525c;stroke:#44525c;" x="759.144847" xlink:href="#mefd6e13bb7" y="199.639665"/>
     <use style="fill:#44525c;stroke:#44525c;" x="679.971254" xlink:href="#mefd6e13bb7" y="129.594876"/>
     <use style="fill:#44525c;stroke:#44525c;" x="545.273519" xlink:href="#mefd6e13bb7" y="70.118804"/>
     <use style="fill:#44525c;stroke:#44525c;" x="434.699195" xlink:href="#mefd6e13bb7" y="81.033413"/>
     <use style="fill:#44525c;stroke:#44525c;" x="334.52632" xlink:href="#mefd6e13bb7" y="129.108412"/>
     <use style="fill:#44525c;stroke:#44525c;" x="256.837247" xlink:href="#mefd6e13bb7" y="208.545295"/>
     <use style="fill:#44525c;stroke:#44525c;" x="211.002415" xlink:href="#mefd6e13bb7" y="309.762763"/>
     <use style="fill:#44525c;stroke:#44525c;" x="202.550134" xlink:href="#mefd6e13bb7" y="420.552512"/>
     <use style="fill:#44525c;stroke:#44525c;" x="232.499962" xlink:href="#mefd6e13bb7" y="527.551661"/>
     <use style="fill:#44525c;stroke:#44525c;" x="297.239428" xlink:href="#mefd6e13bb7" y="617.854547"/>
     <use style="fill:#44525c;stroke:#44525c;" x="388.960034" xlink:href="#mefd6e13bb7" y="680.569287"/>
     <use style="fill:#44525c;stroke:#44525c;" x="496.598922" xlink:href="#mefd6e13bb7" y="708.13159"/>
     <use style="fill:#44525c;stroke:#44525c;" x="607.173246" xlink:href="#mefd6e13bb7" y="697.216981"/>
     <use style="fill:#44525c;stroke:#44525c;" x="707.346121" xlink:href="#mefd6e13bb7" y="649.141982"/>
     <use style="fill:#44525c;stroke:#44525c;" x="785.035194" xlink:href="#mefd6e13bb7" y="569.705099"/>
     <use style="fill:#44525c;stroke:#44525c;" x="830.870026" xlink:href="#mefd6e13bb7" y="468.487631"/>
     <use style="fill:#44525c;stroke:#44525c;" x="839.322307" xlink:href="#mefd6e13bb7" y="357.697881"/>
     <use style="fill:#44525c;stroke:#44525c;" x="809.372479" xlink:href="#mefd6e13bb7" y="250.698733"/>
     <use style="fill:#44525c;stroke:#44525c;" x="744.633013" xlink:href="#mefd6e13bb7" y="160.395847"/>
     <use style="fill:#44525c;stroke:#44525c;" x="652.912407" xlink:href="#mefd6e13bb7" y="97.681106"/>
     <use style="fill:#44525c;stroke:#44525c;" x="504.724282" xlink:href="#mefd6e13bb7" y="54.505269"/>
     <use style="fill:#44525c;stroke:#44525c;" x="391.255214" xlink:href="#mefd6e13bb7" y="80.230092"/>
     <use style="fill:#44525c;stroke:#44525c;" x="293.427585" xlink:href="#mefd6e13bb7" y="143.212273"/>
     <use style="fill:#44525c;stroke:#44525c;" x="223.040879" xlink:href="#mefd6e13bb7" y="235.85516"/>
     <use style="fill:#44525c;stroke:#44525c;" x="188.58471" xlink:href="#mefd6e13bb7" y="346.984694"/>
     <use style="fill:#44525c;stroke:#44525c;" x="194.215068" xlink:href="#mefd6e13bb7" y="463.196986"/>
     <use style="fill:#44525c;stroke:#44525c;" x="239.252796" xlink:href="#mefd6e13bb7" y="570.475115"/>
     <use style="fill:#44525c;stroke:#44525c;" x="318.26573" xlink:href="#mefd6e13bb7" y="655.879786"/>
     <use style="fill:#44525c;stroke:#44525c;" x="421.723696" xlink:href="#mefd6e13bb7" y="709.109924"/>
     <use style="fill:#44525c;stroke:#44525c;" x="537.148159" xlink:href="#mefd6e13bb7" y="723.745124"/>
     <use style="fill:#44525c;stroke:#44525c;" x="650.617226" xlink:href="#mefd6e13bb7" y="698.020302"/>
     <use style="fill:#44525c;stroke:#44525c;" x="748.444856" xlink:href="#mefd6e13bb7" y="635.038121"/>
     <use style="fill:#44525c;stroke:#44525c;" x="818.831562" xlink:href="#mefd6e13bb7" y="542.395233"/>
     <use style="fill:#44525c;stroke:#44525c;" x="853.287731" xlink:href="#mefd6e13bb7" y="431.265699"/>
     <use style="fill:#44525c;stroke:#44525c;" x="847.657373" xlink:href="#mefd6e13bb7" y="315.053407"/>
     <use style="fill:#44525c;stroke:#44525c;" x="802.619645" xlink:href="#mefd6e13bb7" y="207.775279"/>
     <use style="fill:#44525c;stroke:#44525c;" x="723.606711" xlink:href="#mefd6e13bb7" y="122.370608"/>
     <use style="fill:#44525c;stroke:#44525c;" x="620.148745" xlink:href="#mefd6e13bb7" y="69.140469"/>
     <use style="fill:#44525c;stroke:#44525c;" x="460.760561" xlink:href="#mefd6e13bb7" y="44.6957"/>
     <use style="fill:#44525c;stroke:#44525c;" x="346.587775" xlink:href="#mefd6e13bb7" y="86.048656"/>
     <use style="fill:#44525c;stroke:#44525c;" x="253.444001" xlink:href="#mefd6e13bb7" y="163.95709"/>
     <use style="fill:#44525c;stroke:#44525c;" x="192.563713" xlink:href="#mefd6e13bb7" y="269.024112"/>
     <use style="fill:#44525c;stroke:#44525c;" x="171.290029" xlink:href="#mefd6e13bb7" y="388.577103"/>
     <use style="fill:#44525c;stroke:#44525c;" x="192.188788" xlink:href="#mefd6e13bb7" y="508.196205"/>
     <use style="fill:#44525c;stroke:#44525c;" x="252.739379" xlink:href="#mefd6e13bb7" y="613.453582"/>
     <use style="fill:#44525c;stroke:#44525c;" x="345.638461" xlink:href="#mefd6e13bb7" y="691.653638"/>
     <use style="fill:#44525c;stroke:#44525c;" x="459.681028" xlink:href="#mefd6e13bb7" y="733.364325"/>
     <use style="fill:#44525c;stroke:#44525c;" x="581.11188" xlink:href="#mefd6e13bb7" y="733.554694"/>
     <use style="fill:#44525c;stroke:#44525c;" x="695.284666" xlink:href="#mefd6e13bb7" y="692.201738"/>
     <use style="fill:#44525c;stroke:#44525c;" x="788.42844" xlink:href="#mefd6e13bb7" y="614.293303"/>
     <use style="fill:#44525c;stroke:#44525c;" x="849.308728" xlink:href="#mefd6e13bb7" y="509.226282"/>
     <use style="fill:#44525c;stroke:#44525c;" x="870.582412" xlink:href="#mefd6e13bb7" y="389.673291"/>
     <use style="fill:#44525c;stroke:#44525c;" x="849.683653" xlink:href="#mefd6e13bb7" y="270.054189"/>
     <use style="fill:#44525c;stroke:#44525c;" x="789.133062" xlink:href="#mefd6e13bb7" y="164.796812"/>
     <use style="fill:#44525c;stroke:#44525c;" x="696.23398" xlink:href="#mefd6e13bb7" y="86.596755"/>
     <use style="fill:#44525c;stroke:#44525c;" x="582.191413" xlink:href="#mefd6e13bb7" y="44.886069"/>
     <use style="fill:#44525c;stroke:#44525c;" x="414.270295" xlink:href="#mefd6e13bb7" y="41.249443"/>
     <use style="fill:#44525c;stroke:#44525c;" x="301.72252" xlink:href="#mefd6e13bb7" y="98.710831"/>
     <use style="fill:#44525c;stroke:#44525c;" x="215.615159" xlink:href="#mefd6e13bb7" y="191.20044"/>
     <use style="fill:#44525c;stroke:#44525c;" x="166.334017" xlink:href="#mefd6e13bb7" y="307.562727"/>
     <use style="fill:#44525c;stroke:#44525c;" x="159.823157" xlink:href="#mefd6e13bb7" y="433.762639"/>
     <use style="fill:#44525c;stroke:#44525c;" x="196.867818" xlink:href="#mefd6e13bb7" y="554.578609"/>
     <use style="fill:#44525c;stroke:#44525c;" x="272.999936" xlink:href="#mefd6e13bb7" y="655.438467"/>
     <use style="fill:#44525c;stroke:#44525c;" x="379.036844" xlink:href="#mefd6e13bb7" y="724.177008"/>
     <use style="fill:#44525c;stroke:#44525c;" x="502.188892" xlink:href="#mefd6e13bb7" y="752.503352"/>
     <use style="fill:#44525c;stroke:#44525c;" x="627.602146" xlink:href="#mefd6e13bb7" y="737.000951"/>
     <use style="fill:#44525c;stroke:#44525c;" x="740.149921" xlink:href="#mefd6e13bb7" y="679.539562"/>
     <use style="fill:#44525c;stroke:#44525c;" x="826.257282" xlink:href="#mefd6e13bb7" y="587.049953"/>
     <use style="fill:#44525c;stroke:#44525c;" x="875.538424" xlink:href="#mefd6e13bb7" y="470.687667"/>
     <use style="fill:#44525c;stroke:#44525c;" x="882.049284" xlink:href="#mefd6e13bb7" y="344.487754"/>
     <use style="fill:#44525c;stroke:#44525c;" x="845.004623" xlink:href="#mefd6e13bb7" y="223.671785"/>
     <use style="fill:#44525c;stroke:#44525c;" x="768.872505" xlink:href="#mefd6e13bb7" y="122.811926"/>
     <use style="fill:#44525c;stroke:#44525c;" x="662.835597" xlink:href="#mefd6e13bb7" y="54.073385"/>
     <use style="fill:#44525c;stroke:#44525c;" x="539.683549" xlink:href="#mefd6e13bb7" y="25.747042"/>
     <use style="fill:#44525c;stroke:#44525c;" x="366.218186" xlink:href="#mefd6e13bb7" y="44.589703"/>
     <use style="fill:#44525c;stroke:#44525c;" x="257.710773" xlink:href="#mefd6e13bb7" y="118.284418"/>
     <use style="fill:#44525c;stroke:#44525c;" x="180.952186" xlink:href="#mefd6e13bb7" y="224.646537"/>
     <use style="fill:#44525c;stroke:#44525c;" x="145.200717" xlink:href="#mefd6e13bb7" y="350.847193"/>
     <use style="fill:#44525c;stroke:#44525c;" x="154.7685" xlink:href="#mefd6e13bb7" y="481.66475"/>
     <use style="fill:#44525c;stroke:#44525c;" x="208.501512" xlink:href="#mefd6e13bb7" y="601.320677"/>
     <use style="fill:#44525c;stroke:#44525c;" x="299.918737" xlink:href="#mefd6e13bb7" y="695.382691"/>
     <use style="fill:#44525c;stroke:#44525c;" x="417.993961" xlink:href="#mefd6e13bb7" y="752.505542"/>
     <use style="fill:#44525c;stroke:#44525c;" x="548.485533" xlink:href="#mefd6e13bb7" y="765.799323"/>
     <use style="fill:#44525c;stroke:#44525c;" x="675.654255" xlink:href="#mefd6e13bb7" y="733.660691"/>
     <use style="fill:#44525c;stroke:#44525c;" x="784.161668" xlink:href="#mefd6e13bb7" y="659.965975"/>
     <use style="fill:#44525c;stroke:#44525c;" x="860.920255" xlink:href="#mefd6e13bb7" y="553.603856"/>
     <use style="fill:#44525c;stroke:#44525c;" x="896.671724" xlink:href="#mefd6e13bb7" y="427.4032"/>
     <use style="fill:#44525c;stroke:#44525c;" x="887.103941" xlink:href="#mefd6e13bb7" y="296.585644"/>
     <use style="fill:#44525c;stroke:#44525c;" x="833.370929" xlink:href="#mefd6e13bb7" y="176.929716"/>
     <use style="fill:#44525c;stroke:#44525c;" x="741.953704" xlink:href="#mefd6e13bb7" y="82.867703"/>
     <use style="fill:#44525c;stroke:#44525c;" x="623.87848" xlink:href="#mefd6e13bb7" y="25.744852"/>
     <use style="fill:#44525c;stroke:#44525c;" x="493.386908" xlink:href="#mefd6e13bb7" y="12.45107"/>
    </g>
   </g>
  </g>
 </g>
 <defs>
  <clipPath id="p5ba436f456">
   <rect height="756.850394" width="510.23622" x="10.7" y="10.7"/>
  </clipPath>
 </defs>
</svg>
