<?xml version="1.0" encoding="utf-8" standalone="no"?>
<!DOCTYPE svg PUBLIC "-//W3C//DTD SVG 1.1//EN"
  "http://www.w3.org/Graphics/SVG/1.1/DTD/svg11.dtd">
<!-- Created with matplotlib (https://matplotlib.org/) -->
<svg height="778.250394pt" version="1.1" viewBox="0 0 531.63622 778.250394" width="531.63622pt" xmlns="http://www.w3.org/2000/svg" xmlns:xlink="http://www.w3.org/1999/xlink">
 <defs>
  <style type="text/css">
*{stroke-linecap:butt;stroke-linejoin:round;}
  </style>
 </defs>
 <g id="figure_1">
  <g id="patch_1">
   <path d="M 0 778.250394 
L 531.63622 778.250394 
L 531.63622 0 
L 0 0 
z
" style="fill:none;"/>
  </g>
  <g id="axes_1">
   <g id="patch_2">
    <path d="M 10.7 767.550394 
L 520.93622 767.550394 
L 520.93622 10.7 
L 10.7 10.7 
z
" style="fill:none;"/>
   </g>
   <g id="matplotlib.axis_1"/>
   <g id="matplotlib.axis_2"/>
   <g id="line2d_1">
    <path clip-path="url(#pc00b9fea44)" d="M 389.125197 767.550394 
L 389.125197 10.7 
" style="fill:none;stroke:#000000;stroke-linecap:square;"/>
   </g>
   <g id="line2d_2">
    <path clip-path="url(#pc00b9fea44)" d="M 101.14298 389.125197 
L 123.998019 374.939998 
M 101.14298 389.125197 
L 122.016934 414.545675 
M 95.688597 358.191877 
L 123.998019 374.939998 
M 95.688597 358.191877 
L 112.313686 337.045267 
M 79.983336 330.989574 
L 112.313686 337.045267 
M 79.983336 330.989574 
L 88.373248 305.432143 
M 55.92149 310.79928 
L 88.373248 305.432143 
M 55.92149 310.79928 
L 55.064268 283.913637 
M 26.405257 300.056255 
L 55.064268 283.913637 
M 26.405257 300.056255 
L 16.404301 275.085192 
M -1 295.384719 
L 16.404301 275.085192 
M -1 488.194735 
L 4.995699 503.165201 
M 26.405257 478.194138 
L 4.995699 503.165201 
M 26.405257 478.194138 
L 44.34369 498.238734 
M 55.92149 467.451114 
L 44.34369 498.238734 
M 55.92149 467.451114 
L 79.633751 480.151562 
M 79.983336 447.26082 
L 79.633751 480.151562 
M 79.983336 447.26082 
L 106.60939 451.085267 
M 95.688597 420.058517 
L 106.60939 451.085267 
M 95.688597 420.058517 
L 122.016934 414.545675 
M 123.998019 374.939998 
L 143.313949 355.389156 
M 123.998019 374.939998 
L 146.854765 402.780332 
M 112.313686 337.045267 
L 143.313949 355.389156 
M 112.313686 337.045267 
L 123.777947 312.067045 
M 88.373248 305.432143 
L 123.777947 312.067045 
M 88.373248 305.432143 
L 90.603071 278.039282 
M 55.064268 283.913637 
L 90.603071 278.039282 
M 55.064268 283.913637 
L 47.790709 257.410119 
M 16.404301 275.085192 
L 47.790709 257.410119 
M 16.404301 275.085192 
L 0.504657 252.667748 
M -1 254.422379 
L 0.504657 252.667748 
M 4.995699 503.165201 
L -1 506.541644 
M 4.995699 503.165201 
L 20.895343 525.582646 
M 44.34369 498.238734 
L 20.895343 525.582646 
M 44.34369 498.238734 
L 66.951687 513.86624 
M 79.633751 480.151562 
L 66.951687 513.86624 
M 79.633751 480.151562 
L 106.223244 487.104234 
M 106.60939 451.085267 
L 106.223244 487.104234 
M 106.60939 451.085267 
L 133.973289 448.524497 
M 122.016934 414.545675 
L 133.973289 448.524497 
M 122.016934 414.545675 
L 146.854765 402.780332 
M 143.313949 355.389156 
L 158.266078 331.266977 
M 143.313949 355.389156 
L 169.155432 385.226824 
M 123.777947 312.067045 
L 158.266078 331.266977 
M 123.777947 312.067045 
L 129.578072 284.285687 
M 90.603071 278.039282 
L 129.578072 284.285687 
M 90.603071 278.039282 
L 86.551622 249.949578 
M 47.790709 257.410119 
L 86.551622 249.949578 
M 47.790709 257.410119 
L 34.376349 232.400123 
M 0.504657 252.667748 
L 34.376349 232.400123 
M 0.504657 252.667748 
L -1 251.322775 
M 20.895343 525.582646 
L -1 538.684046 
M 20.895343 525.582646 
L 42.054643 544.496382 
M 66.951687 513.86624 
L 42.054643 544.496382 
M 66.951687 513.86624 
L 93.303803 524.402438 
M 106.223244 487.104234 
L 93.303803 524.402438 
M 106.223244 487.104234 
L 134.589723 487.992055 
M 133.973289 448.524497 
L 134.589723 487.992055 
M 133.973289 448.524497 
L 160.932725 439.656872 
M 146.854765 402.780332 
L 160.932725 439.656872 
M 146.854765 402.780332 
L 169.155432 385.226824 
M 158.266078 331.266977 
L 168.170297 303.462863 
M 158.266078 331.266977 
L 187.97192 362.486949 
M 129.578072 284.285687 
L 168.170297 303.462863 
M 129.578072 284.285687 
L 129.37543 254.770925 
M 86.551622 249.949578 
L 129.37543 254.770925 
M 86.551622 249.949578 
L 76.266556 222.284096 
M 34.376349 232.400123 
L 76.266556 222.284096 
M 34.376349 232.400123 
L 15.249392 209.920749 
M -1 220.70717 
L 15.249392 209.920749 
M -1 559.925736 
L 6.150608 568.329645 
M 42.054643 544.496382 
L 6.150608 568.329645 
M 42.054643 544.496382 
L 67.716498 559.078264 
M 93.303803 524.402438 
L 67.716498 559.078264 
M 93.303803 524.402438 
L 122.405357 529.328055 
M 134.589723 487.992055 
L 122.405357 529.328055 
M 134.589723 487.992055 
L 163.620899 482.667304 
M 160.932725 439.656872 
L 163.620899 482.667304 
M 160.932725 439.656872 
L 186.391928 424.723996 
M 169.155432 385.226824 
L 186.391928 424.723996 
M 169.155432 385.226824 
L 187.97192 362.486949 
M 168.170297 303.462863 
L 172.492616 272.941567 
M 168.170297 303.462863 
L 202.472477 335.284635 
M 129.37543 254.770925 
L 172.492616 272.941567 
M 129.37543 254.770925 
L 122.998188 224.611958 
M 76.266556 222.284096 
L 122.998188 224.611958 
M 76.266556 222.284096 
L 59.958939 196.125086 
M 15.249392 209.920749 
L 59.958939 196.125086 
M 15.249392 209.920749 
L -1 197.197709 
M 6.150608 568.329645 
L -1 570.53605 
M 6.150608 568.329645 
L 30.421665 587.333533 
M 67.716498 559.078264 
L 30.421665 587.333533 
M 67.716498 559.078264 
L 97.023548 568.634901 
M 122.405357 529.328055 
L 97.023548 568.634901 
M 122.405357 529.328055 
L 153.213526 528.284746 
M 163.620899 482.667304 
L 153.213526 528.284746 
M 163.620899 482.667304 
L 192.214288 471.149903 
M 186.391928 424.723996 
L 192.214288 471.149903 
M 186.391928 424.723996 
L 209.321736 404.121665 
M 187.97192 362.486949 
L 209.321736 404.121665 
M 187.97192 362.486949 
L 202.472477 335.284635 
M 172.492616 272.941567 
L 170.856075 240.722177 
M 172.492616 272.941567 
L 211.954307 304.448575 
M 122.998188 224.611958 
L 170.856075 240.722177 
M 122.998188 224.611958 
L 110.440663 194.895367 
M 59.958939 196.125086 
L 110.440663 194.895367 
M 59.958939 196.125086 
L 37.995051 172.495545 
M -1 187.773944 
L 37.995051 172.495545 
M 30.421665 587.333533 
L -1 599.644653 
M 30.421665 587.333533 
L 59.14275 602.025939 
M 97.023548 568.634901 
L 59.14275 602.025939 
M 97.023548 568.634901 
L 129.037634 572.618064 
M 153.213526 528.284746 
L 129.037634 572.618064 
M 153.213526 528.284746 
L 184.659263 521.078235 
M 192.214288 471.149903 
L 184.659263 521.078235 
M 192.214288 471.149903 
L 219.298825 453.622919 
M 209.321736 404.121665 
L 219.298825 453.622919 
M 209.321736 404.121665 
L 228.778305 378.388229 
M 202.472477 335.284635 
L 228.778305 378.388229 
M 202.472477 335.284635 
L 211.954307 304.448575 
M 170.856075 240.722177 
L 163.044965 207.856261 
M 170.856075 240.722177 
L 215.855065 270.893164 
M 110.440663 194.895367 
L 163.044965 207.856261 
M 110.440663 194.895367 
L 91.859807 166.683075 
M 37.995051 172.495545 
L 91.859807 166.683075 
M 37.995051 172.495545 
L 10.885588 152.339686 
M -1 158.177527 
L 10.885588 152.339686 
M -1 617.349754 
L 10.514412 625.910708 
M 59.14275 602.025939 
L 10.514412 625.910708 
M 59.14275 602.025939 
L 91.51102 611.694267 
M 129.037634 572.618064 
L 91.51102 611.694267 
M 129.037634 572.618064 
L 162.760628 570.632714 
M 184.659263 521.078235 
L 162.760628 570.632714 
M 184.659263 521.078235 
L 215.669469 507.678675 
M 219.298825 453.622919 
L 215.669469 507.678675 
M 219.298825 453.622919 
L 243.855978 430.425339 
M 228.778305 378.388229 
L 243.855978 430.425339 
M 228.778305 378.388229 
L 243.920435 348.190592 
M 211.954307 304.448575 
L 243.920435 348.190592 
M 211.954307 304.448575 
L 215.855065 270.893164 
M 163.044965 207.856261 
L 149.006152 175.405682 
M 163.044965 207.856261 
L 213.761645 235.598028 
M 91.859807 166.683075 
L 149.006152 175.405682 
M 91.859807 166.683075 
L 67.568893 140.991042 
M 10.885588 152.339686 
L 67.568893 140.991042 
M 10.885588 152.339686 
L -1 146.386354 
M 10.514412 625.910708 
L -1 628.216024 
M 10.514412 625.910708 
L 42.127597 641.745327 
M 91.51102 611.694267 
L 42.127597 641.745327 
M 91.51102 611.694267 
L 126.633451 615.761594 
M 162.760628 570.632714 
L 126.633451 615.761594 
M 162.760628 570.632714 
L 197.156019 562.442177 
M 215.669469 507.678675 
L 197.156019 562.442177 
M 215.669469 507.678675 
L 245.189242 488.218166 
M 243.855978 430.425339 
L 245.189242 488.218166 
M 243.855978 430.425339 
L 264.93961 402.042082 
M 243.920435 348.190592 
L 264.93961 402.042082 
M 243.920435 348.190592 
L 254.024916 314.308029 
M 215.855065 270.893164 
L 254.024916 314.308029 
M 215.855065 270.893164 
L 213.761645 235.598028 
M 149.006152 175.405682 
L 128.84764 144.42021 
M 149.006152 175.405682 
L 205.416499 199.586601 
M 67.568893 140.991042 
L 128.84764 144.42021 
M 67.568893 140.991042 
L 38.028431 118.768847 
M -1 130.550052 
L 38.028431 118.768847 
M 42.127597 641.745327 
L -1 654.763915 
M 42.127597 641.745327 
L 77.486991 652.523922 
M 126.633451 615.761594 
L 77.486991 652.523922 
M 126.633451 615.761594 
L 163.546906 613.796543 
M 197.156019 562.442177 
L 163.546906 613.796543 
M 197.156019 562.442177 
L 231.171245 547.970479 
M 245.189242 488.218166 
L 231.171245 547.970479 
M 245.189242 488.218166 
L 272.203497 462.985333 
M 264.93961 402.042082 
L 272.203497 462.985333 
M 264.93961 402.042082 
L 281.694538 369.091563 
M 254.024916 314.308029 
L 281.694538 369.091563 
M 254.024916 314.308029 
L 258.499671 277.614144 
M 213.761645 235.598028 
L 258.499671 277.614144 
M 213.761645 235.598028 
L 205.416499 199.586601 
M 128.84764 144.42021 
L 102.834051 115.915775 
M 128.84764 144.42021 
L 190.720811 163.904026 
M 38.028431 118.768847 
L 102.834051 115.915775 
M 38.028431 118.768847 
L 3.834565 100.880621 
M -1 102.885223 
L 3.834565 100.880621 
M -1 667.657426 
L 17.565435 677.369773 
M 77.486991 652.523922 
L 17.565435 677.369773 
M 77.486991 652.523922 
L 115.736852 657.638387 
M 163.546906 613.796543 
L 115.736852 657.638387 
M 163.546906 613.796543 
L 201.239269 605.520333 
M 231.171245 547.970479 
L 201.239269 605.520333 
M 231.171245 547.970479 
L 263.759831 527.301843 
M 272.203497 462.985333 
L 263.759831 527.301843 
M 272.203497 462.985333 
L 295.757655 432.417209 
M 281.694538 369.091563 
L 295.757655 432.417209 
M 281.694538 369.091563 
L 293.373319 332.310919 
M 258.499671 277.614144 
L 293.373319 332.310919 
M 258.499671 277.614144 
L 256.894413 239.057267 
M 205.416499 199.586601 
L 256.894413 239.057267 
M 205.416499 199.586601 
L 190.720811 163.904026 
M 102.834051 115.915775 
L 71.379443 90.853282 
M 102.834051 115.915775 
L 169.735032 129.594868 
M 3.834565 100.880621 
L 71.379443 90.853282 
M 3.834565 100.880621 
L -1 99.258566 
M 17.565435 677.369773 
L -1 680.125895 
M 17.565435 677.369773 
L 55.694976 690.162693 
M 115.736852 657.638387 
L 55.694976 690.162693 
M 115.736852 657.638387 
L 155.94234 656.618717 
M 201.239269 605.520333 
L 155.94234 656.618717 
M 201.239269 605.520333 
L 238.671333 590.811088 
M 263.759831 527.301843 
L 238.671333 590.811088 
M 263.759831 527.301843 
L 293.903615 500.677157 
M 295.757655 432.417209 
L 293.903615 500.677157 
M 295.757655 432.417209 
L 314.977373 397.088411 
M 293.373319 332.310919 
L 314.977373 397.088411 
M 293.373319 332.310919 
L 299.350776 292.539181 
M 256.894413 239.057267 
L 299.350776 292.539181 
M 256.894413 239.057267 
L 248.908632 199.63966 
M 190.720811 163.904026 
L 248.908632 199.63966 
M 190.720811 163.904026 
L 169.735032 129.594868 
M 71.379443 90.853282 
L 35.037299 70.118813 
M 71.379443 90.853282 
L 142.67619 97.681105 
M -1 79.458622 
L 35.037299 70.118813 
M 55.694976 690.162693 
L -1 704.856364 
M 55.694976 690.162693 
L 96.937025 697.216975 
M 155.94234 656.618717 
L 96.937025 697.216975 
M 155.94234 656.618717 
L 197.109894 649.141973 
M 238.671333 590.811088 
L 197.109894 649.141973 
M 238.671333 590.811088 
L 274.798976 569.705103 
M 293.903615 500.677157 
L 274.798976 569.705103 
M 293.903615 500.677157 
L 320.633814 468.487631 
M 314.977373 397.088411 
L 320.633814 468.487631 
M 314.977373 397.088411 
L 329.086084 357.697881 
M 299.350776 292.539181 
L 329.086084 357.697881 
M 299.350776 292.539181 
L 299.136263 250.698734 
M 248.908632 199.63966 
L 299.136263 250.698734 
M 248.908632 199.63966 
L 234.396796 160.395853 
M 169.735032 129.594868 
L 234.396796 160.395853 
M 169.735032 129.594868 
L 142.67619 97.681105 
M 35.037299 70.118813 
L -1 56.242586 
M 35.037299 70.118813 
L 109.912526 69.140479 
M -1 712.997595 
L 26.911938 723.745137 
M 96.937025 697.216975 
L 26.911938 723.745137 
M 96.937025 697.216975 
L 140.381 698.020299 
M 197.109894 649.141973 
L 140.381 698.020299 
M 197.109894 649.141973 
L 238.208629 635.038126 
M 274.798976 569.705103 
L 238.208629 635.038126 
M 274.798976 569.705103 
L 308.595341 542.39523 
M 320.633814 468.487631 
L 308.595341 542.39523 
M 320.633814 468.487631 
L 343.05151 431.2657 
M 329.086084 357.697881 
L 343.05151 431.2657 
M 329.086084 357.697881 
L 337.421147 315.053408 
M 299.136263 250.698734 
L 337.421147 315.053408 
M 299.136263 250.698734 
L 292.383424 207.775275 
M 234.396796 160.395853 
L 292.383424 207.775275 
M 234.396796 160.395853 
L 213.370495 122.370602 
M 142.67619 97.681105 
L 213.370495 122.370602 
M 142.67619 97.681105 
L 109.912526 69.140479 
M -1 53.945004 
L 71.955192 44.886069 
M 26.911938 723.745137 
L -1 727.210996 
M 26.911938 723.745137 
L 70.875659 733.554681 
M 140.381 698.020299 
L 70.875659 733.554681 
M 140.381 698.020299 
L 185.048448 692.201738 
M 238.208629 635.038126 
L 185.048448 692.201738 
M 238.208629 635.038126 
L 278.192219 614.293309 
M 308.595341 542.39523 
L 278.192219 614.293309 
M 308.595341 542.39523 
L 339.072501 509.226283 
M 343.05151 431.2657 
L 339.072501 509.226283 
M 343.05151 431.2657 
L 360.346195 389.673291 
M 337.421147 315.053408 
L 360.346195 389.673291 
M 337.421147 315.053408 
L 339.447419 270.054189 
M 292.383424 207.775275 
L 339.447419 270.054189 
M 292.383424 207.775275 
L 278.896846 164.796806 
M 213.370495 122.370602 
L 278.896846 164.796806 
M 213.370495 122.370602 
L 185.997762 86.596751 
M 109.912526 69.140479 
L 185.997762 86.596751 
M 109.912526 69.140479 
L 71.955192 44.886069 
M -1 33.057161 
L 29.447328 25.747042 
M 70.875659 733.554681 
L -1 750.811354 
M 70.875659 733.554681 
L 117.365927 737.000939 
M 185.048448 692.201738 
L 117.365927 737.000939 
M 185.048448 692.201738 
L 229.913703 679.539566 
M 278.192219 614.293309 
L 229.913703 679.539566 
M 278.192219 614.293309 
L 316.021052 587.049949 
M 339.072501 509.226283 
L 316.021052 587.049949 
M 339.072501 509.226283 
L 365.302207 470.687664 
M 360.346195 389.673291 
L 365.302207 470.687664 
M 360.346195 389.673291 
L 371.813065 344.487753 
M 339.447419 270.054189 
L 371.813065 344.487753 
M 339.447419 270.054189 
L 334.768396 223.67178 
M 278.896846 164.796806 
L 334.768396 223.67178 
M 278.896846 164.796806 
L 258.636273 122.811929 
M 185.997762 86.596751 
L 258.636273 122.811929 
M 185.997762 86.596751 
L 152.599377 54.073391 
M 71.955192 44.886069 
L 152.599377 54.073391 
M 71.955192 44.886069 
L 29.447328 25.747042 
M -1 754.527281 
L 38.249313 765.799336 
M 117.365927 737.000939 
L 38.249313 765.799336 
M 117.365927 737.000939 
L 165.418036 733.660681 
M 229.913703 679.539566 
L 165.418036 733.660681 
M 229.913703 679.539566 
L 273.925458 659.965983 
M 316.021052 587.049949 
L 273.925458 659.965983 
M 316.021052 587.049949 
L 350.684046 553.603857 
M 365.302207 470.687664 
L 350.684046 553.603857 
M 365.302207 470.687664 
L 386.435514 427.403199 
M 371.813065 344.487753 
L 386.435514 427.403199 
M 371.813065 344.487753 
L 376.867715 296.58564 
M 334.768396 223.67178 
L 376.867715 296.58564 
M 334.768396 223.67178 
L 323.134705 176.929718 
M 258.636273 122.811929 
L 323.134705 176.929718 
M 258.636273 122.811929 
L 231.717478 82.867708 
M 152.599377 54.073391 
L 231.717478 82.867708 
M 152.599377 54.073391 
L 113.642257 25.744854 
M 29.447328 25.747042 
L 113.642257 25.744854 
M 29.447328 25.747042 
L -1 17.00284 
L -1 17.00284 
" style="fill:none;stroke:#eb7a59;stroke-linecap:square;"/>
   </g>
   <g id="patch_3">
    <path d="M 10.7 767.550394 
L 10.7 10.7 
" style="fill:none;stroke:#000000;stroke-linecap:square;stroke-linejoin:miter;stroke-width:0.8;"/>
   </g>
   <g id="patch_4">
    <path d="M 520.93622 767.550394 
L 520.93622 10.7 
" style="fill:none;stroke:#000000;stroke-linecap:square;stroke-linejoin:miter;stroke-width:0.8;"/>
   </g>
   <g id="patch_5">
    <path d="M 10.7 767.550394 
L 520.93622 767.550394 
" style="fill:none;stroke:#000000;stroke-linecap:square;stroke-linejoin:miter;stroke-width:0.8;"/>
   </g>
   <g id="patch_6">
    <path d="M 10.7 10.7 
L 520.93622 10.7 
" style="fill:none;stroke:#000000;stroke-linecap:square;stroke-linejoin:miter;stroke-width:0.8;"/>
   </g>
   <g id="PathCollection_1">
    <defs>
     <path d="M 0 2.236068 
C 0.593012 2.236068 1.161816 2.000462 1.581139 1.581139 
C 2.000462 1.161816 2.236068 0.593012 2.236068 0 
C 2.236068 -0.593012 2.000462 -1.161816 1.581139 -1.581139 
C 1.161816 -2.000462 0.593012 -2.236068 0 -2.236068 
C -0.593012 -2.236068 -1.161816 -2.000462 -1.581139 -1.581139 
C -2.000462 -1.161816 -2.236068 -0.593012 -2.236068 0 
C -2.236068 0.593012 -2.000462 1.161816 -1.581139 1.581139 
C -1.161816 2.000462 -0.593012 2.236068 0 2.236068 
z
" id="m9064c23747" style="stroke:#44525c;"/>
    </defs>
    <g clip-path="url(#pc00b9fea44)">
     <use style="fill:#44525c;stroke:#44525c;" x="101.14298" xlink:href="#m9064c23747" y="389.125197"/>
     <use style="fill:#44525c;stroke:#44525c;" x="95.688595" xlink:href="#m9064c23747" y="358.191878"/>
     <use style="fill:#44525c;stroke:#44525c;" x="79.983336" xlink:href="#m9064c23747" y="330.989571"/>
     <use style="fill:#44525c;stroke:#44525c;" x="55.92149" xlink:href="#m9064c23747" y="310.79928"/>
     <use style="fill:#44525c;stroke:#44525c;" x="26.405257" xlink:href="#m9064c23747" y="300.056258"/>
     <use style="fill:#44525c;stroke:#44525c;" x="-1" xlink:href="#m9064c23747" y="300.056258"/>
     <use style="fill:#44525c;stroke:#44525c;" x="-1" xlink:href="#m9064c23747" y="478.194135"/>
     <use style="fill:#44525c;stroke:#44525c;" x="26.405257" xlink:href="#m9064c23747" y="478.194135"/>
     <use style="fill:#44525c;stroke:#44525c;" x="55.92149" xlink:href="#m9064c23747" y="467.451114"/>
     <use style="fill:#44525c;stroke:#44525c;" x="79.983336" xlink:href="#m9064c23747" y="447.260823"/>
     <use style="fill:#44525c;stroke:#44525c;" x="95.688595" xlink:href="#m9064c23747" y="420.058516"/>
     <use style="fill:#44525c;stroke:#44525c;" x="123.998016" xlink:href="#m9064c23747" y="374.939998"/>
     <use style="fill:#44525c;stroke:#44525c;" x="112.313688" xlink:href="#m9064c23747" y="337.045267"/>
     <use style="fill:#44525c;stroke:#44525c;" x="88.373245" xlink:href="#m9064c23747" y="305.432145"/>
     <use style="fill:#44525c;stroke:#44525c;" x="55.064268" xlink:href="#m9064c23747" y="283.913635"/>
     <use style="fill:#44525c;stroke:#44525c;" x="16.404301" xlink:href="#m9064c23747" y="275.085192"/>
     <use style="fill:#44525c;stroke:#44525c;" x="-1" xlink:href="#m9064c23747" y="277.264253"/>
     <use style="fill:#44525c;stroke:#44525c;" x="-1" xlink:href="#m9064c23747" y="501.796016"/>
     <use style="fill:#44525c;stroke:#44525c;" x="4.995699" xlink:href="#m9064c23747" y="503.165202"/>
     <use style="fill:#44525c;stroke:#44525c;" x="44.34369" xlink:href="#m9064c23747" y="498.238737"/>
     <use style="fill:#44525c;stroke:#44525c;" x="79.633748" xlink:href="#m9064c23747" y="480.151562"/>
     <use style="fill:#44525c;stroke:#44525c;" x="106.609387" xlink:href="#m9064c23747" y="451.085269"/>
     <use style="fill:#44525c;stroke:#44525c;" x="122.016935" xlink:href="#m9064c23747" y="414.545675"/>
     <use style="fill:#44525c;stroke:#44525c;" x="143.313956" xlink:href="#m9064c23747" y="355.389158"/>
     <use style="fill:#44525c;stroke:#44525c;" x="123.777945" xlink:href="#m9064c23747" y="312.067047"/>
     <use style="fill:#44525c;stroke:#44525c;" x="90.603072" xlink:href="#m9064c23747" y="278.039281"/>
     <use style="fill:#44525c;stroke:#44525c;" x="47.790708" xlink:href="#m9064c23747" y="257.410125"/>
     <use style="fill:#44525c;stroke:#44525c;" x="0.504657" xlink:href="#m9064c23747" y="252.667743"/>
     <use style="fill:#44525c;stroke:#44525c;" x="-1" xlink:href="#m9064c23747" y="253.050517"/>
     <use style="fill:#44525c;stroke:#44525c;" x="-1" xlink:href="#m9064c23747" y="523.386737"/>
     <use style="fill:#44525c;stroke:#44525c;" x="20.895343" xlink:href="#m9064c23747" y="525.582651"/>
     <use style="fill:#44525c;stroke:#44525c;" x="66.951686" xlink:href="#m9064c23747" y="513.866234"/>
     <use style="fill:#44525c;stroke:#44525c;" x="106.223244" xlink:href="#m9064c23747" y="487.104233"/>
     <use style="fill:#44525c;stroke:#44525c;" x="133.973292" xlink:href="#m9064c23747" y="448.524501"/>
     <use style="fill:#44525c;stroke:#44525c;" x="146.854762" xlink:href="#m9064c23747" y="402.780331"/>
     <use style="fill:#44525c;stroke:#44525c;" x="158.26608" xlink:href="#m9064c23747" y="331.26698"/>
     <use style="fill:#44525c;stroke:#44525c;" x="129.578072" xlink:href="#m9064c23747" y="284.285687"/>
     <use style="fill:#44525c;stroke:#44525c;" x="86.551621" xlink:href="#m9064c23747" y="249.949573"/>
     <use style="fill:#44525c;stroke:#44525c;" x="34.376348" xlink:href="#m9064c23747" y="232.400117"/>
     <use style="fill:#44525c;stroke:#44525c;" x="-1" xlink:href="#m9064c23747" y="233.27046"/>
     <use style="fill:#44525c;stroke:#44525c;" x="-1" xlink:href="#m9064c23747" y="545.55563"/>
     <use style="fill:#44525c;stroke:#44525c;" x="42.054643" xlink:href="#m9064c23747" y="544.496382"/>
     <use style="fill:#44525c;stroke:#44525c;" x="93.303806" xlink:href="#m9064c23747" y="524.402445"/>
     <use style="fill:#44525c;stroke:#44525c;" x="134.589719" xlink:href="#m9064c23747" y="487.992053"/>
     <use style="fill:#44525c;stroke:#44525c;" x="160.932725" xlink:href="#m9064c23747" y="439.656873"/>
     <use style="fill:#44525c;stroke:#44525c;" x="169.155427" xlink:href="#m9064c23747" y="385.226824"/>
     <use style="fill:#44525c;stroke:#44525c;" x="168.170293" xlink:href="#m9064c23747" y="303.462865"/>
     <use style="fill:#44525c;stroke:#44525c;" x="129.37543" xlink:href="#m9064c23747" y="254.770919"/>
     <use style="fill:#44525c;stroke:#44525c;" x="76.266556" xlink:href="#m9064c23747" y="222.284098"/>
     <use style="fill:#44525c;stroke:#44525c;" x="15.249392" xlink:href="#m9064c23747" y="209.920749"/>
     <use style="fill:#44525c;stroke:#44525c;" x="-1" xlink:href="#m9064c23747" y="212.362513"/>
     <use style="fill:#44525c;stroke:#44525c;" x="-1" xlink:href="#m9064c23747" y="566.880783"/>
     <use style="fill:#44525c;stroke:#44525c;" x="6.150608" xlink:href="#m9064c23747" y="568.329645"/>
     <use style="fill:#44525c;stroke:#44525c;" x="67.716502" xlink:href="#m9064c23747" y="559.078259"/>
     <use style="fill:#44525c;stroke:#44525c;" x="122.405357" xlink:href="#m9064c23747" y="529.328059"/>
     <use style="fill:#44525c;stroke:#44525c;" x="163.620902" xlink:href="#m9064c23747" y="482.667306"/>
     <use style="fill:#44525c;stroke:#44525c;" x="186.391932" xlink:href="#m9064c23747" y="424.723995"/>
     <use style="fill:#44525c;stroke:#44525c;" x="187.97192" xlink:href="#m9064c23747" y="362.486948"/>
     <use style="fill:#44525c;stroke:#44525c;" x="172.492618" xlink:href="#m9064c23747" y="272.94156"/>
     <use style="fill:#44525c;stroke:#44525c;" x="122.99819" xlink:href="#m9064c23747" y="224.611962"/>
     <use style="fill:#44525c;stroke:#44525c;" x="59.958938" xlink:href="#m9064c23747" y="196.125081"/>
     <use style="fill:#44525c;stroke:#44525c;" x="-1" xlink:href="#m9064c23747" y="191.522518"/>
     <use style="fill:#44525c;stroke:#44525c;" x="-1" xlink:href="#m9064c23747" y="584.961113"/>
     <use style="fill:#44525c;stroke:#44525c;" x="30.421665" xlink:href="#m9064c23747" y="587.333533"/>
     <use style="fill:#44525c;stroke:#44525c;" x="97.023546" xlink:href="#m9064c23747" y="568.634905"/>
     <use style="fill:#44525c;stroke:#44525c;" x="153.213532" xlink:href="#m9064c23747" y="528.284749"/>
     <use style="fill:#44525c;stroke:#44525c;" x="192.214294" xlink:href="#m9064c23747" y="471.149903"/>
     <use style="fill:#44525c;stroke:#44525c;" x="209.321742" xlink:href="#m9064c23747" y="404.121665"/>
     <use style="fill:#44525c;stroke:#44525c;" x="202.47248" xlink:href="#m9064c23747" y="335.284633"/>
     <use style="fill:#44525c;stroke:#44525c;" x="170.856077" xlink:href="#m9064c23747" y="240.722179"/>
     <use style="fill:#44525c;stroke:#44525c;" x="110.440667" xlink:href="#m9064c23747" y="194.895364"/>
     <use style="fill:#44525c;stroke:#44525c;" x="37.995051" xlink:href="#m9064c23747" y="172.495541"/>
     <use style="fill:#44525c;stroke:#44525c;" x="-1" xlink:href="#m9064c23747" y="174.415445"/>
     <use style="fill:#44525c;stroke:#44525c;" x="-1" xlink:href="#m9064c23747" y="604.987037"/>
     <use style="fill:#44525c;stroke:#44525c;" x="59.142749" xlink:href="#m9064c23747" y="602.025935"/>
     <use style="fill:#44525c;stroke:#44525c;" x="129.037636" xlink:href="#m9064c23747" y="572.618071"/>
     <use style="fill:#44525c;stroke:#44525c;" x="184.65926" xlink:href="#m9064c23747" y="521.078229"/>
     <use style="fill:#44525c;stroke:#44525c;" x="219.298823" xlink:href="#m9064c23747" y="453.622918"/>
     <use style="fill:#44525c;stroke:#44525c;" x="228.778302" xlink:href="#m9064c23747" y="378.38823"/>
     <use style="fill:#44525c;stroke:#44525c;" x="211.954312" xlink:href="#m9064c23747" y="304.448573"/>
     <use style="fill:#44525c;stroke:#44525c;" x="163.044971" xlink:href="#m9064c23747" y="207.856257"/>
     <use style="fill:#44525c;stroke:#44525c;" x="91.859809" xlink:href="#m9064c23747" y="166.683073"/>
     <use style="fill:#44525c;stroke:#44525c;" x="10.885588" xlink:href="#m9064c23747" y="152.339684"/>
     <use style="fill:#44525c;stroke:#44525c;" x="-1" xlink:href="#m9064c23747" y="154.42583"/>
     <use style="fill:#44525c;stroke:#44525c;" x="-1" xlink:href="#m9064c23747" y="623.871102"/>
     <use style="fill:#44525c;stroke:#44525c;" x="10.514412" xlink:href="#m9064c23747" y="625.91071"/>
     <use style="fill:#44525c;stroke:#44525c;" x="91.511019" xlink:href="#m9064c23747" y="611.694269"/>
     <use style="fill:#44525c;stroke:#44525c;" x="162.760621" xlink:href="#m9064c23747" y="570.632719"/>
     <use style="fill:#44525c;stroke:#44525c;" x="215.669469" xlink:href="#m9064c23747" y="507.67868"/>
     <use style="fill:#44525c;stroke:#44525c;" x="243.85597" xlink:href="#m9064c23747" y="430.425339"/>
     <use style="fill:#44525c;stroke:#44525c;" x="243.920444" xlink:href="#m9064c23747" y="348.190592"/>
     <use style="fill:#44525c;stroke:#44525c;" x="215.855066" xlink:href="#m9064c23747" y="270.893167"/>
     <use style="fill:#44525c;stroke:#44525c;" x="149.006152" xlink:href="#m9064c23747" y="175.405688"/>
     <use style="fill:#44525c;stroke:#44525c;" x="67.568893" xlink:href="#m9064c23747" y="140.991028"/>
     <use style="fill:#44525c;stroke:#44525c;" x="-1" xlink:href="#m9064c23747" y="137.507343"/>
     <use style="fill:#44525c;stroke:#44525c;" x="-1" xlink:href="#m9064c23747" y="639.554199"/>
     <use style="fill:#44525c;stroke:#44525c;" x="42.127596" xlink:href="#m9064c23747" y="641.745323"/>
     <use style="fill:#44525c;stroke:#44525c;" x="126.633457" xlink:href="#m9064c23747" y="615.761589"/>
     <use style="fill:#44525c;stroke:#44525c;" x="197.156019" xlink:href="#m9064c23747" y="562.442173"/>
     <use style="fill:#44525c;stroke:#44525c;" x="245.189252" xlink:href="#m9064c23747" y="488.218166"/>
     <use style="fill:#44525c;stroke:#44525c;" x="264.939609" xlink:href="#m9064c23747" y="402.042082"/>
     <use style="fill:#44525c;stroke:#44525c;" x="254.02492" xlink:href="#m9064c23747" y="314.308032"/>
     <use style="fill:#44525c;stroke:#44525c;" x="213.761649" xlink:href="#m9064c23747" y="235.598033"/>
     <use style="fill:#44525c;stroke:#44525c;" x="128.847646" xlink:href="#m9064c23747" y="144.420201"/>
     <use style="fill:#44525c;stroke:#44525c;" x="38.028432" xlink:href="#m9064c23747" y="118.768855"/>
     <use style="fill:#44525c;stroke:#44525c;" x="-1" xlink:href="#m9064c23747" y="121.654085"/>
     <use style="fill:#44525c;stroke:#44525c;" x="-1" xlink:href="#m9064c23747" y="658.326186"/>
     <use style="fill:#44525c;stroke:#44525c;" x="77.486988" xlink:href="#m9064c23747" y="652.523928"/>
     <use style="fill:#44525c;stroke:#44525c;" x="163.546912" xlink:href="#m9064c23747" y="613.79654"/>
     <use style="fill:#44525c;stroke:#44525c;" x="231.171248" xlink:href="#m9064c23747" y="547.970484"/>
     <use style="fill:#44525c;stroke:#44525c;" x="272.203508" xlink:href="#m9064c23747" y="462.985336"/>
     <use style="fill:#44525c;stroke:#44525c;" x="281.694544" xlink:href="#m9064c23747" y="369.091564"/>
     <use style="fill:#44525c;stroke:#44525c;" x="258.499659" xlink:href="#m9064c23747" y="277.614142"/>
     <use style="fill:#44525c;stroke:#44525c;" x="205.4165" xlink:href="#m9064c23747" y="199.586599"/>
     <use style="fill:#44525c;stroke:#44525c;" x="102.834054" xlink:href="#m9064c23747" y="115.915762"/>
     <use style="fill:#44525c;stroke:#44525c;" x="3.834565" xlink:href="#m9064c23747" y="100.880631"/>
     <use style="fill:#44525c;stroke:#44525c;" x="-1" xlink:href="#m9064c23747" y="101.852326"/>
     <use style="fill:#44525c;stroke:#44525c;" x="-1" xlink:href="#m9064c23747" y="674.550215"/>
     <use style="fill:#44525c;stroke:#44525c;" x="17.565435" xlink:href="#m9064c23747" y="677.369763"/>
     <use style="fill:#44525c;stroke:#44525c;" x="115.736853" xlink:href="#m9064c23747" y="657.638382"/>
     <use style="fill:#44525c;stroke:#44525c;" x="201.239262" xlink:href="#m9064c23747" y="605.520339"/>
     <use style="fill:#44525c;stroke:#44525c;" x="263.759823" xlink:href="#m9064c23747" y="527.301846"/>
     <use style="fill:#44525c;stroke:#44525c;" x="295.757666" xlink:href="#m9064c23747" y="432.417209"/>
     <use style="fill:#44525c;stroke:#44525c;" x="293.37333" xlink:href="#m9064c23747" y="332.310918"/>
     <use style="fill:#44525c;stroke:#44525c;" x="256.894422" xlink:href="#m9064c23747" y="239.057267"/>
     <use style="fill:#44525c;stroke:#44525c;" x="190.720813" xlink:href="#m9064c23747" y="163.904024"/>
     <use style="fill:#44525c;stroke:#44525c;" x="71.379445" xlink:href="#m9064c23747" y="90.853282"/>
     <use style="fill:#44525c;stroke:#44525c;" x="-1" xlink:href="#m9064c23747" y="88.959052"/>
     <use style="fill:#44525c;stroke:#44525c;" x="-1" xlink:href="#m9064c23747" y="688.678944"/>
     <use style="fill:#44525c;stroke:#44525c;" x="55.694975" xlink:href="#m9064c23747" y="690.162698"/>
     <use style="fill:#44525c;stroke:#44525c;" x="155.94234" xlink:href="#m9064c23747" y="656.618714"/>
     <use style="fill:#44525c;stroke:#44525c;" x="238.671337" xlink:href="#m9064c23747" y="590.811095"/>
     <use style="fill:#44525c;stroke:#44525c;" x="293.903615" xlink:href="#m9064c23747" y="500.67716"/>
     <use style="fill:#44525c;stroke:#44525c;" x="314.97736" xlink:href="#m9064c23747" y="397.088411"/>
     <use style="fill:#44525c;stroke:#44525c;" x="299.350768" xlink:href="#m9064c23747" y="292.53918"/>
     <use style="fill:#44525c;stroke:#44525c;" x="248.908627" xlink:href="#m9064c23747" y="199.639665"/>
     <use style="fill:#44525c;stroke:#44525c;" x="169.735034" xlink:href="#m9064c23747" y="129.594876"/>
     <use style="fill:#44525c;stroke:#44525c;" x="35.037298" xlink:href="#m9064c23747" y="70.118804"/>
     <use style="fill:#44525c;stroke:#44525c;" x="-1" xlink:href="#m9064c23747" y="73.675986"/>
     <use style="fill:#44525c;stroke:#44525c;" x="-1" xlink:href="#m9064c23747" y="706.884183"/>
     <use style="fill:#44525c;stroke:#44525c;" x="96.937026" xlink:href="#m9064c23747" y="697.216981"/>
     <use style="fill:#44525c;stroke:#44525c;" x="197.109901" xlink:href="#m9064c23747" y="649.141982"/>
     <use style="fill:#44525c;stroke:#44525c;" x="274.798974" xlink:href="#m9064c23747" y="569.705099"/>
     <use style="fill:#44525c;stroke:#44525c;" x="320.633805" xlink:href="#m9064c23747" y="468.487631"/>
     <use style="fill:#44525c;stroke:#44525c;" x="329.086087" xlink:href="#m9064c23747" y="357.697881"/>
     <use style="fill:#44525c;stroke:#44525c;" x="299.136259" xlink:href="#m9064c23747" y="250.698733"/>
     <use style="fill:#44525c;stroke:#44525c;" x="234.396793" xlink:href="#m9064c23747" y="160.395847"/>
     <use style="fill:#44525c;stroke:#44525c;" x="142.676186" xlink:href="#m9064c23747" y="97.681106"/>
     <use style="fill:#44525c;stroke:#44525c;" x="-1" xlink:href="#m9064c23747" y="55.81986"/>
     <use style="fill:#44525c;stroke:#44525c;" x="-1" xlink:href="#m9064c23747" y="720.206041"/>
     <use style="fill:#44525c;stroke:#44525c;" x="26.911939" xlink:href="#m9064c23747" y="723.745124"/>
     <use style="fill:#44525c;stroke:#44525c;" x="140.381006" xlink:href="#m9064c23747" y="698.020302"/>
     <use style="fill:#44525c;stroke:#44525c;" x="238.208635" xlink:href="#m9064c23747" y="635.038121"/>
     <use style="fill:#44525c;stroke:#44525c;" x="308.595341" xlink:href="#m9064c23747" y="542.395233"/>
     <use style="fill:#44525c;stroke:#44525c;" x="343.05151" xlink:href="#m9064c23747" y="431.265699"/>
     <use style="fill:#44525c;stroke:#44525c;" x="337.421152" xlink:href="#m9064c23747" y="315.053407"/>
     <use style="fill:#44525c;stroke:#44525c;" x="292.383425" xlink:href="#m9064c23747" y="207.775279"/>
     <use style="fill:#44525c;stroke:#44525c;" x="213.370491" xlink:href="#m9064c23747" y="122.370608"/>
     <use style="fill:#44525c;stroke:#44525c;" x="109.912524" xlink:href="#m9064c23747" y="69.140469"/>
     <use style="fill:#44525c;stroke:#44525c;" x="-1" xlink:href="#m9064c23747" y="52.130231"/>
     <use style="fill:#44525c;stroke:#44525c;" x="-1" xlink:href="#m9064c23747" y="733.442013"/>
     <use style="fill:#44525c;stroke:#44525c;" x="70.875659" xlink:href="#m9064c23747" y="733.554694"/>
     <use style="fill:#44525c;stroke:#44525c;" x="185.048445" xlink:href="#m9064c23747" y="692.201738"/>
     <use style="fill:#44525c;stroke:#44525c;" x="278.192219" xlink:href="#m9064c23747" y="614.293303"/>
     <use style="fill:#44525c;stroke:#44525c;" x="339.072508" xlink:href="#m9064c23747" y="509.226282"/>
     <use style="fill:#44525c;stroke:#44525c;" x="360.346191" xlink:href="#m9064c23747" y="389.673291"/>
     <use style="fill:#44525c;stroke:#44525c;" x="339.447432" xlink:href="#m9064c23747" y="270.054189"/>
     <use style="fill:#44525c;stroke:#44525c;" x="278.896842" xlink:href="#m9064c23747" y="164.796812"/>
     <use style="fill:#44525c;stroke:#44525c;" x="185.99776" xlink:href="#m9064c23747" y="86.596755"/>
     <use style="fill:#44525c;stroke:#44525c;" x="71.955193" xlink:href="#m9064c23747" y="44.886069"/>
     <use style="fill:#44525c;stroke:#44525c;" x="-1" xlink:href="#m9064c23747" y="43.306096"/>
     <use style="fill:#44525c;stroke:#44525c;" x="-1" xlink:href="#m9064c23747" y="751.632228"/>
     <use style="fill:#44525c;stroke:#44525c;" x="117.365926" xlink:href="#m9064c23747" y="737.000951"/>
     <use style="fill:#44525c;stroke:#44525c;" x="229.9137" xlink:href="#m9064c23747" y="679.539562"/>
     <use style="fill:#44525c;stroke:#44525c;" x="316.021061" xlink:href="#m9064c23747" y="587.049953"/>
     <use style="fill:#44525c;stroke:#44525c;" x="365.302204" xlink:href="#m9064c23747" y="470.687667"/>
     <use style="fill:#44525c;stroke:#44525c;" x="371.813063" xlink:href="#m9064c23747" y="344.487754"/>
     <use style="fill:#44525c;stroke:#44525c;" x="334.768403" xlink:href="#m9064c23747" y="223.671785"/>
     <use style="fill:#44525c;stroke:#44525c;" x="258.636285" xlink:href="#m9064c23747" y="122.811926"/>
     <use style="fill:#44525c;stroke:#44525c;" x="152.599376" xlink:href="#m9064c23747" y="54.073385"/>
     <use style="fill:#44525c;stroke:#44525c;" x="29.447328" xlink:href="#m9064c23747" y="25.747042"/>
     <use style="fill:#44525c;stroke:#44525c;" x="-1" xlink:href="#m9064c23747" y="29.05438"/>
     <use style="fill:#44525c;stroke:#44525c;" x="-1" xlink:href="#m9064c23747" y="761.800814"/>
     <use style="fill:#44525c;stroke:#44525c;" x="38.249313" xlink:href="#m9064c23747" y="765.799323"/>
     <use style="fill:#44525c;stroke:#44525c;" x="165.418034" xlink:href="#m9064c23747" y="733.660691"/>
     <use style="fill:#44525c;stroke:#44525c;" x="273.925447" xlink:href="#m9064c23747" y="659.965975"/>
     <use style="fill:#44525c;stroke:#44525c;" x="350.684035" xlink:href="#m9064c23747" y="553.603856"/>
     <use style="fill:#44525c;stroke:#44525c;" x="386.435504" xlink:href="#m9064c23747" y="427.4032"/>
     <use style="fill:#44525c;stroke:#44525c;" x="376.86772" xlink:href="#m9064c23747" y="296.585644"/>
     <use style="fill:#44525c;stroke:#44525c;" x="323.134709" xlink:href="#m9064c23747" y="176.929716"/>
     <use style="fill:#44525c;stroke:#44525c;" x="231.717483" xlink:href="#m9064c23747" y="82.867703"/>
     <use style="fill:#44525c;stroke:#44525c;" x="113.642259" xlink:href="#m9064c23747" y="25.744852"/>
     <use style="fill:#44525c;stroke:#44525c;" x="-1" xlink:href="#m9064c23747" y="14.065713"/>
    </g>
   </g>
  </g>
 </g>
 <defs>
  <clipPath id="pc00b9fea44">
   <rect height="756.850394" width="510.23622" x="10.7" y="10.7"/>
  </clipPath>
 </defs>
</svg>
