<?xml version="1.0" encoding="utf-8" standalone="no"?>
<!DOCTYPE svg PUBLIC "-//W3C//DTD SVG 1.1//EN"
  "http://www.w3.org/Graphics/SVG/1.1/DTD/svg11.dtd">
<!-- Created with matplotlib (https://matplotlib.org/) -->
<svg height="804.457363pt" version="1.1" viewBox="0 0 806.750836 804.457363" width="806.750836pt" xmlns="http://www.w3.org/2000/svg" xmlns:xlink="http://www.w3.org/1999/xlink">
 <defs>
  <style type="text/css">
*{stroke-linecap:butt;stroke-linejoin:round;}
  </style>
 </defs>
 <g id="figure_1">
  <g id="patch_1">
   <path d="M 0 804.457363 
L 806.750836 804.457363 
L 806.750836 0 
L 0 0 
z
" style="fill:none;"/>
  </g>
  <g id="axes_1">
   <g id="patch_2">
    <path d="M 19.27198 782.748682 
L 785.884424 782.748682 
L 785.884424 21.708682 
L 19.27198 21.708682 
z
" style="fill:none;"/>
   </g>
   <g id="matplotlib.axis_1"/>
   <g id="matplotlib.axis_2"/>
   <g id="line2d_1">
    <path clip-path="url(#p565858e76c)" d="M 354.081773 352.177937 
L 347.824456 347.159838 
L 341.526057 342.39678 
L 335.194263 337.891317 
L 328.836802 333.645989 
L 322.461412 329.663303 
L 316.075818 325.945717 
L 309.687691 322.49561 
L 303.30461 319.315251 
L 296.934012 316.406759 
L 290.583137 313.77205 
L 284.258962 311.412778 
L 277.968136 309.330271 
L 271.716898 307.52545 
L 265.510997 305.998749 
L 259.355611 304.750023 
L 253.255256 303.778455 
L 247.213712 303.082468 
L 241.233945 302.659633 
L 235.318054 302.506593 
L 229.467227 302.618999 
L 223.681735 302.99147 
L 217.960954 303.617585 
L 212.303427 304.489899 
L 206.706974 305.600017 
L 201.168852 306.9387 
L 195.685951 308.496031 
L 190.255044 310.261622 
L 184.873058 312.22488 
L 179.537369 314.375306 
L 172.930063 317.311262 
L 166.390699 320.506073 
L 159.92068 323.94464 
L 153.524459 327.615325 
L 147.209202 331.510022 
L 140.983908 335.623247 
L 134.858056 339.949848 
L 128.840058 344.481007 
L 122.93597 349.19859 
L 116.006021 355.056357 
L 108.13924 362.02913 
L 92.180898 376.298404 
L 86.250098 381.24909 
L 81.574793 384.89106 
L 77.185204 388.061082 
L 72.345621 391.252081 
L 68.020404 393.831757 
L 63.116059 396.477981 
L 55.678311 400.391289 
L 54.598456 401.248136 
L 54.220981 401.777534 
L 54.118001 402.292882 
L 54.289627 402.810228 
L 54.735671 403.345691 
L 55.678311 404.066075 
L 57.371761 405.052461 
L 62.575022 407.701873 
L 67.352338 410.24901 
L 71.587864 412.735057 
L 75.517711 415.260152 
L 79.782514 418.241273 
L 84.34822 421.695856 
L 89.175729 425.609669 
L 95.257194 430.839274 
L 104.842514 439.449091 
L 114.867668 448.409824 
L 121.769157 454.295529 
L 127.649983 459.046935 
L 133.645594 463.617243 
L 139.750488 467.985668 
L 145.95664 472.142028 
L 152.254662 476.080816 
L 158.635338 479.796848 
L 165.091049 483.282653 
L 171.616754 486.527319 
L 178.210439 489.516401 
L 183.534884 491.71202 
L 188.905073 493.723044 
L 194.323475 495.539047 
L 199.793076 497.149429 
L 205.317092 498.543727 
L 210.898687 499.711882 
L 216.540716 500.644469 
L 222.245517 501.33287 
L 228.014738 501.769395 
L 233.849221 501.947362 
L 239.748922 501.861131 
L 245.712881 501.506097 
L 251.739226 500.878661 
L 257.825202 499.976168 
L 263.967227 498.796836 
L 270.16096 497.339667 
L 276.401382 495.604356 
L 282.682878 493.591202 
L 288.999324 491.301012 
L 295.344167 488.735018 
L 301.710504 485.894801 
L 308.091155 482.782218 
L 314.478726 479.39934 
L 320.86567 475.748404 
L 327.244333 471.831766 
L 333.607002 467.651865 
L 339.945937 463.211199 
L 346.253408 458.5123 
L 352.521714 453.557721 
L 354.081773 452.279427 
L 354.081773 452.279427 
" style="fill:none;stroke:#8d5ccd;stroke-linecap:square;stroke-width:3;"/>
   </g>
   <g id="line2d_2">
    <path clip-path="url(#p565858e76c)" d="M 367.468919 342.026365 
L 362.594338 335.65661 
L 357.618832 329.524651 
L 352.549257 323.634811 
L 347.392506 317.991405 
L 342.155493 312.598718 
L 336.845129 307.460986 
L 331.468294 302.582354 
L 326.031803 297.966839 
L 320.542371 293.618279 
L 315.006567 289.540265 
L 309.430773 285.736076 
L 303.821123 282.208589 
L 298.183456 278.960194 
L 292.523251 275.992687 
L 286.845569 273.307166 
L 281.154991 270.90392 
L 275.455563 268.782321 
L 269.750749 266.940721 
L 264.043388 265.376362 
L 258.335675 264.085307 
L 252.629161 263.062397 
L 246.924776 262.301244 
L 241.222887 261.794276 
L 235.52339 261.532817 
L 229.825827 261.507241 
L 224.129556 261.707175 
L 218.433927 262.12176 
L 212.738494 262.739976 
L 207.043219 263.551001 
L 199.925289 264.820411 
L 192.811379 266.357414 
L 185.706464 268.147685 
L 178.617653 270.180992 
L 171.553844 272.451176 
L 164.525086 274.955068 
L 157.541817 277.689933 
L 150.614314 280.649224 
L 143.752797 283.816782 
L 135.622364 287.845887 
L 126.315484 292.7334 
L 107.406001 302.768954 
L 100.462762 306.156449 
L 95.051733 308.573715 
L 90.031062 310.601125 
L 84.568453 312.541211 
L 79.751561 314.010835 
L 74.356445 315.406478 
L 66.198309 317.426102 
L 64.944775 317.999624 
L 64.451576 318.423304 
L 64.228257 318.899032 
L 64.271087 319.442418 
L 64.576025 320.069066 
L 65.318875 320.994106 
L 66.727058 322.357099 
L 71.145076 326.174746 
L 75.174002 329.791154 
L 78.691501 333.218588 
L 81.902859 336.610783 
L 85.330306 340.525912 
L 88.936605 344.972756 
L 92.687198 349.928138 
L 97.340421 356.461171 
L 104.586745 367.11472 
L 112.176142 378.214246 
L 117.468546 385.580558 
L 122.0414 391.601271 
L 126.769043 397.473617 
L 131.651106 403.1761 
L 136.682237 408.696914 
L 141.854636 414.028463 
L 147.160597 419.163509 
L 152.594509 424.092976 
L 158.154089 428.805061 
L 163.84084 433.285258 
L 168.485121 436.6913 
L 173.217992 439.929057 
L 178.044347 442.988999 
L 182.969622 445.861548 
L 187.999443 448.537313 
L 193.139288 451.007286 
L 198.394187 453.263001 
L 203.768472 455.296646 
L 209.265584 457.101151 
L 214.887937 458.67023 
L 220.636839 459.998395 
L 226.512462 461.080947 
L 232.513847 461.913942 
L 238.638956 462.494144 
L 244.884738 462.818963 
L 251.247215 462.886394 
L 257.721589 462.694939 
L 264.302336 462.243544 
L 270.983316 461.531527 
L 277.757872 460.558517 
L 284.618923 459.324396 
L 291.559053 457.829248 
L 298.570589 456.073317 
L 305.645666 454.056966 
L 312.77629 451.780652 
L 319.954387 449.244897 
L 327.171846 446.450276 
L 334.420553 443.397395 
L 341.692422 440.086891 
L 343.513064 439.219088 
L 343.513064 439.219088 
" style="fill:none;stroke:#a865be;stroke-linecap:square;stroke-width:3;"/>
   </g>
   <g id="line2d_3">
    <path clip-path="url(#p565858e76c)" d="M 382.896488 335.373534 
L 379.687936 328.022308 
L 376.324483 320.877817 
L 372.811751 313.945896 
L 369.155401 307.232385 
L 365.361121 300.743101 
L 361.434607 294.483809 
L 357.381546 288.46018 
L 353.207594 282.677747 
L 348.918354 277.14184 
L 344.519343 271.857522 
L 340.015973 266.8295 
L 335.413512 262.062039 
L 330.717058 257.558855 
L 325.931499 253.323002 
L 321.061487 249.356759 
L 316.111401 245.661502 
L 311.085321 242.237591 
L 305.987002 239.084253 
L 300.819861 236.199491 
L 295.586974 233.580006 
L 290.291079 231.221162 
L 284.934609 229.116978 
L 279.519733 227.26019 
L 274.048423 225.64235 
L 268.522542 224.254001 
L 262.943947 223.084918 
L 257.314606 222.124403 
L 251.636723 221.361649 
L 245.912852 220.786138 
L 238.697966 220.315229 
L 231.422944 220.1051 
L 224.096045 220.143032 
L 216.72662 220.42079 
L 209.324782 220.934527 
L 201.901046 221.683568 
L 194.466203 222.667757 
L 187.031795 223.883197 
L 179.611615 225.316642 
L 170.75321 227.28293 
L 160.547112 229.801138 
L 139.78544 235.019742 
L 132.233278 236.647176 
L 126.400994 237.699257 
L 121.041023 238.466229 
L 115.272854 239.042652 
L 110.244229 239.316813 
L 104.671886 239.380765 
L 96.267483 239.389333 
L 94.913121 239.6462 
L 94.332861 239.939538 
L 94.002182 240.347998 
L 93.913727 240.885844 
L 94.059837 241.56726 
L 94.559724 242.643195 
L 95.600803 244.303582 
L 98.976819 249.067596 
L 102.023208 253.543103 
L 104.618257 257.712735 
L 106.924493 261.774887 
L 109.315392 266.396491 
L 111.7527 271.577162 
L 114.208407 277.286126 
L 117.162958 284.742909 
L 121.649157 296.821044 
L 126.361729 309.4143 
L 129.737471 317.833115 
L 132.736595 324.773233 
L 135.921517 331.606338 
L 139.297023 338.311472 
L 142.860742 344.87589 
L 146.606917 351.290349 
L 150.529798 357.54598 
L 154.626113 363.632625 
L 158.896466 369.538281 
L 163.345789 375.24922 
L 167.039996 379.667737 
L 170.860493 383.944062 
L 174.81431 388.070109 
L 178.909019 392.037883 
L 183.152331 395.83961 
L 187.551718 399.467856 
L 192.114092 402.915603 
L 196.845526 406.176304 
L 201.751055 409.243919 
L 206.834528 412.112921 
L 212.098527 414.778294 
L 217.544343 417.235518 
L 223.171991 419.480533 
L 228.980264 421.509709 
L 234.966819 423.319804 
L 241.128278 424.907916 
L 247.460336 426.271443 
L 253.957885 427.408041 
L 260.615124 428.315577 
L 267.42568 428.992098 
L 274.382706 429.435795 
L 281.478982 429.644975 
L 288.706997 429.618038 
L 296.059029 429.353456 
L 303.527208 428.849757 
L 311.103568 428.105519 
L 318.780097 427.119354 
L 326.548773 425.889914 
L 334.401589 424.415879 
L 336.377006 424.009001 
L 336.377006 424.009001 
" style="fill:none;stroke:#b55092;stroke-linecap:square;stroke-width:3;"/>
   </g>
   <g id="line2d_4">
    <path clip-path="url(#p565858e76c)" d="M 399.467887 332.606081 
L 398.111833 324.700611 
L 396.555905 316.958799 
L 394.804164 309.387656 
L 392.860709 301.994205 
L 390.729671 294.785457 
L 388.415201 287.768372 
L 385.921463 280.949818 
L 383.252626 274.33652 
L 380.412852 267.934994 
L 377.406289 261.751477 
L 374.237063 255.791833 
L 370.909269 250.061465 
L 367.426968 244.565199 
L 363.794175 239.307174 
L 360.014861 234.290712 
L 356.092948 229.5182 
L 352.032312 224.990962 
L 347.836784 220.709147 
L 343.51016 216.671633 
L 339.056214 212.875954 
L 334.478717 209.318262 
L 329.78146 205.993335 
L 324.968289 202.894637 
L 320.04314 200.014438 
L 315.010085 197.344003 
L 309.873373 194.873846 
L 304.637477 192.594052 
L 299.307122 190.494656 
L 293.887305 188.566056 
L 286.994766 186.382196 
L 279.981431 184.437146 
L 272.858361 182.720534 
L 265.636606 181.226602 
L 258.326906 179.954035 
L 250.939634 178.904694 
L 243.485301 178.08101 
L 235.97605 177.481961 
L 228.428441 177.097988 
L 219.356882 176.887184 
L 208.844708 176.889738 
L 187.437438 176.988105 
L 179.715259 176.760899 
L 173.80067 176.386651 
L 168.412902 175.848611 
L 162.674399 175.027871 
L 157.726285 174.090637 
L 152.300559 172.819182 
L 144.138322 170.816196 
L 142.761844 170.741478 
L 142.128244 170.887427 
L 141.709423 171.204881 
L 141.494824 171.70593 
L 141.473615 172.402511 
L 141.701488 173.566812 
L 142.314958 175.428098 
L 144.45277 180.861612 
L 146.339578 185.936118 
L 147.861361 190.605624 
L 149.128446 195.101655 
L 150.343847 200.161144 
L 151.470515 205.774559 
L 152.48862 211.90532 
L 153.572792 219.852493 
L 155.038143 232.653277 
L 156.600013 246.008389 
L 157.862908 254.990436 
L 159.114004 262.446624 
L 160.571109 269.843374 
L 162.243885 277.16148 
L 164.133081 284.388001 
L 166.235318 291.512586 
L 168.547137 298.525247 
L 171.06779 305.415338 
L 173.800739 312.171348 
L 176.754056 318.78113 
L 179.283495 323.955335 
L 181.969584 329.021702 
L 184.821083 333.974065 
L 187.847257 338.80647 
L 191.057453 343.513217 
L 194.460706 348.088875 
L 198.065405 352.528284 
L 201.879016 356.826542 
L 205.907871 360.978987 
L 210.15703 364.981175 
L 214.630202 368.828856 
L 219.32972 372.517946 
L 224.256571 376.044509 
L 229.410452 379.404732 
L 234.789866 382.594905 
L 240.392224 385.611403 
L 246.21397 388.450669 
L 252.250706 391.109204 
L 258.497311 393.583551 
L 264.948062 395.870286 
L 271.596746 397.966015 
L 278.436756 399.867367 
L 285.461185 401.57099 
L 292.662899 403.073553 
L 300.034609 404.371743 
L 307.568922 405.462272 
L 315.25839 406.341877 
L 323.095546 407.007328 
L 331.072934 407.455428 
L 333.088321 407.533122 
L 333.088321 407.533122 
" style="fill:none;stroke:#b51e4d;stroke-linecap:square;stroke-width:3;"/>
   </g>
   <g id="line2d_5">
    <path clip-path="url(#p565858e76c)" d="M 416.220046 333.88484 
L 416.795299 325.884564 
L 417.137321 317.995357 
L 417.248375 310.224998 
L 417.130762 302.581289 
L 416.786814 295.072023 
L 416.218897 287.704952 
L 415.429409 280.487743 
L 414.42079 273.42792 
L 413.19552 266.532809 
L 411.756134 259.809456 
L 410.105236 253.264543 
L 408.24551 246.904296 
L 406.17974 240.734373 
L 403.910837 234.759751 
L 401.441861 228.98461 
L 398.776049 223.412203 
L 395.916846 218.044744 
L 392.867938 212.883296 
L 389.633278 207.927676 
L 386.217122 203.176393 
L 382.62405 198.626615 
L 378.858994 194.274177 
L 374.927251 190.113654 
L 370.834495 186.138483 
L 366.586768 182.341157 
L 362.190467 178.713483 
L 357.652307 175.246904 
L 352.979261 171.932874 
L 348.178478 168.76327 
L 342.008856 164.993376 
L 335.664796 161.426444 
L 329.159522 158.055052 
L 322.505139 154.876252 
L 315.712391 151.891338 
L 308.790903 149.104599 
L 301.7503 146.520911 
L 294.602616 144.142187 
L 287.366218 141.963111 
L 278.608711 139.587466 
L 268.40139 137.074219 
L 247.592636 132.046632 
L 240.149223 129.977989 
L 234.496065 128.199163 
L 229.393617 126.38738 
L 224.01828 124.217176 
L 219.438244 122.123015 
L 214.474459 119.590044 
L 207.028748 115.69191 
L 205.710149 115.289951 
L 205.060033 115.280029 
L 204.57741 115.488028 
L 204.249138 115.92316 
L 204.061842 116.594424 
L 204.004459 117.779427 
L 204.154667 119.73344 
L 204.930033 125.520678 
L 205.547606 130.89927 
L 205.907682 135.797275 
L 206.061977 140.465894 
L 206.031246 145.669227 
L 205.781797 151.389156 
L 205.30313 157.585417 
L 204.453915 165.561119 
L 202.813258 178.340617 
L 201.133655 191.681433 
L 200.210308 200.704709 
L 199.640667 208.24364 
L 199.285273 215.774162 
L 199.158104 223.279939 
L 199.262983 230.748584 
L 199.599108 238.169241 
L 200.165511 245.531381 
L 200.964012 252.82449 
L 202.000727 260.03822 
L 203.286401 267.162708 
L 204.504072 272.791895 
L 205.899647 278.353866 
L 207.483108 283.84473 
L 209.264877 289.260925 
L 211.255392 294.599153 
L 213.464726 299.856302 
L 215.902259 305.029371 
L 218.576413 310.115387 
L 221.494452 315.111337 
L 224.662351 320.01412 
L 228.08473 324.820493 
L 231.764832 329.527053 
L 235.704556 334.130214 
L 239.904521 338.626199 
L 244.36416 343.011049 
L 249.081828 347.280625 
L 254.054925 351.430623 
L 259.280015 355.456591 
L 264.752955 359.353948 
L 270.469008 363.118001 
L 276.422952 366.743966 
L 282.609181 370.22699 
L 289.021789 373.562165 
L 295.654647 376.744549 
L 302.501471 379.769181 
L 309.55587 382.631101 
L 316.811393 385.325357 
L 324.261563 387.847024 
L 331.899905 390.191218 
L 333.838135 390.748967 
L 333.838135 390.748967 
" style="fill:none;stroke:#da5c55;stroke-linecap:square;stroke-width:3;"/>
   </g>
   <g id="line2d_6">
    <path clip-path="url(#p565858e76c)" d="M 432.179391 339.135495 
L 434.652519 331.505359 
L 436.872613 323.927249 
L 438.840009 316.40926 
L 440.555073 308.959517 
L 442.018205 301.586144 
L 443.229845 294.297236 
L 444.19049 287.100808 
L 444.900705 280.004753 
L 445.361147 273.016775 
L 445.572592 266.144323 
L 445.535966 259.394507 
L 445.252386 252.774016 
L 444.723203 246.289008 
L 443.950051 239.945015 
L 442.934901 233.746824 
L 441.680117 227.69837 
L 440.188514 221.802628 
L 438.463417 216.06151 
L 436.508709 210.475787 
L 434.328876 205.045028 
L 431.929045 199.767579 
L 429.315001 194.640579 
L 426.493186 189.660026 
L 423.470679 184.820906 
L 420.255143 180.117375 
L 416.85475 175.543011 
L 413.278067 171.091111 
L 409.53391 166.755048 
L 405.631166 162.528644 
L 400.543016 157.391809 
L 395.236926 152.410294 
L 389.72751 147.580053 
L 384.027228 142.901126 
L 378.146202 138.377337 
L 372.09275 134.015155 
L 365.875051 129.821618 
L 359.504332 125.801463 
L 352.999697 121.953923 
L 345.065196 117.551501 
L 335.755941 112.668512 
L 316.755032 102.807158 
L 310.022969 99.017301 
L 304.959783 95.937275 
L 300.439191 92.957043 
L 295.739415 89.563499 
L 291.793632 86.434116 
L 287.580266 82.786838 
L 281.283798 77.220101 
L 280.09971 76.51426 
L 279.470859 76.349043 
L 278.952483 76.435499 
L 278.529616 76.779427 
L 278.187119 77.386362 
L 277.847813 78.523198 
L 277.526031 80.456378 
L 276.89389 86.261007 
L 276.206335 91.631102 
L 275.383779 96.472951 
L 274.416317 101.042833 
L 273.14124 106.087613 
L 271.530171 111.581634 
L 269.582551 117.483291 
L 266.849302 125.024003 
L 262.197985 137.039517 
L 257.374522 149.590718 
L 254.318595 158.130822 
L 251.961322 165.314362 
L 249.814083 172.541009 
L 247.89436 179.798248 
L 246.208827 187.074968 
L 244.759306 194.360433 
L 243.547375 201.644192 
L 242.577317 208.91647 
L 241.857549 216.168685 
L 241.400862 223.39383 
L 241.235996 229.150851 
L 241.259952 234.885184 
L 241.483351 240.595441 
L 241.917165 246.280656 
L 242.572317 251.940126 
L 243.459334 257.573241 
L 244.58804 263.179329 
L 245.967325 268.757521 
L 247.604961 274.306631 
L 249.507495 279.825075 
L 251.680186 285.310814 
L 254.126997 290.761316 
L 256.850631 296.173554 
L 259.852593 301.544012 
L 263.13328 306.868708 
L 266.692085 312.143229 
L 270.527512 317.362776 
L 274.637294 322.522203 
L 279.018501 327.616069 
L 283.667659 332.638687 
L 288.580842 337.58416 
L 293.753768 342.446435 
L 299.181878 347.219333 
L 304.860404 351.89659 
L 310.78443 356.471884 
L 316.948938 360.93887 
L 323.348851 365.291196 
L 329.979058 369.522531 
L 336.834441 373.626581 
L 338.582872 374.631972 
L 338.582872 374.631972 
" style="fill:none;stroke:#ec8a36;stroke-linecap:square;stroke-width:3;"/>
   </g>
   <g id="line2d_7">
    <path clip-path="url(#p565858e76c)" d="M 446.418422 348.052896 
L 450.645697 341.236337 
L 454.614839 334.409736 
L 458.324239 327.581035 
L 461.772306 320.758209 
L 464.957485 313.949244 
L 467.878268 307.162102 
L 470.533216 300.404688 
L 472.920991 293.684796 
L 475.040386 287.010067 
L 476.890372 280.387918 
L 478.470147 273.825475 
L 479.779195 267.329497 
L 480.817353 260.906291 
L 481.584884 254.561615 
L 482.082556 248.30059 
L 482.311723 242.127605 
L 482.274408 236.046218 
L 481.973379 230.059084 
L 481.412221 224.167879 
L 480.595396 218.37326 
L 479.528276 212.674848 
L 478.217163 207.071247 
L 476.669269 201.560115 
L 474.892668 196.138277 
L 472.896198 190.801895 
L 470.689331 185.546686 
L 468.28199 180.368194 
L 465.684319 175.262094 
L 462.906426 170.224514 
L 459.195454 164.019272 
L 455.235703 157.91268 
L 451.042333 151.904308 
L 446.627431 145.997174 
L 441.999911 140.197417 
L 437.1663 134.513306 
L 432.132855 128.953633 
L 426.909343 123.525684 
L 421.514498 118.233285 
L 414.864128 112.059939 
L 406.993959 105.090991 
L 390.905158 90.968974 
L 385.275689 85.678155 
L 381.096728 81.475929 
L 377.420712 77.50045 
L 373.669632 73.080785 
L 370.587417 69.098049 
L 367.369334 64.548429 
L 362.588037 57.636609 
L 361.607275 56.667908 
L 361.036237 56.356998 
L 360.512234 56.316886 
L 360.019347 56.549621 
L 359.541553 57.056955 
L 358.940044 58.079555 
L 358.164972 59.879553 
L 356.162061 65.364228 
L 354.209338 70.413736 
L 352.251953 74.918039 
L 350.218959 79.1236 
L 347.77364 83.716642 
L 344.89458 88.665463 
L 341.591195 93.929532 
L 337.132759 100.597015 
L 329.7411 111.150247 
L 322.0541 122.182403 
L 317.043191 129.743016 
L 313.035283 136.153683 
L 309.220989 142.656469 
L 305.620278 149.243406 
L 302.242291 155.905303 
L 299.091364 162.632173 
L 296.171532 169.414245 
L 293.489293 176.243054 
L 291.054871 183.11228 
L 288.882363 190.018184 
L 287.344544 195.568461 
L 285.995487 201.141897 
L 284.845841 206.739688 
L 283.906488 212.363519 
L 283.188203 218.015323 
L 282.701352 223.697027 
L 282.455635 229.41033 
L 282.459892 235.156514 
L 282.721953 240.936289 
L 283.248552 246.749684 
L 284.045285 252.595975 
L 285.116606 258.473656 
L 286.465863 264.380433 
L 288.095358 270.313251 
L 290.006431 276.268341 
L 292.199548 282.241272 
L 294.674406 288.227026 
L 297.430033 294.220065 
L 300.464889 300.214405 
L 303.776959 306.20369 
L 307.363845 312.181259 
L 311.222837 318.140207 
L 315.350986 324.073445 
L 319.745163 329.973749 
L 324.402108 335.833806 
L 329.318468 341.646252 
L 334.490831 347.403707 
L 339.915751 353.0988 
L 345.589766 358.724194 
L 347.046785 360.118797 
L 347.046785 360.118797 
" style="fill:none;stroke:#eba302;stroke-linecap:square;stroke-width:3;"/>
   </g>
   <g id="line2d_8">
    <path clip-path="url(#p565858e76c)" d="M 458.109619 360.118797 
L 463.845366 354.511968 
L 469.332885 348.833614 
L 474.568711 343.09106 
L 479.549394 337.291669 
L 484.271509 331.442824 
L 488.731688 325.551893 
L 492.926644 319.626207 
L 496.853209 313.673016 
L 500.508386 307.699447 
L 503.889399 301.712455 
L 506.993764 295.71877 
L 509.819362 289.72483 
L 512.364527 283.736717 
L 514.628136 277.760088 
L 516.609708 271.800098 
L 518.309508 265.861332 
L 519.728648 259.947729 
L 520.869181 254.062529 
L 521.734187 248.208218 
L 522.32784 242.386501 
L 522.655448 236.598296 
L 522.723463 230.843755 
L 522.539449 225.122332 
L 522.112003 219.432874 
L 521.450627 213.773771 
L 520.565542 208.143131 
L 519.467447 202.539002 
L 518.167229 196.959613 
L 516.675629 191.403622 
L 514.557502 184.4906 
L 512.174218 177.613824 
L 509.540597 170.776505 
L 506.667654 163.984467 
L 503.562574 157.245802 
L 500.229716 150.570102 
L 496.673051 143.967401 
L 492.900318 137.447109 
L 488.928791 131.017428 
L 483.949046 123.43193 
L 477.975348 114.782032 
L 465.733679 97.220073 
L 461.533968 90.735776 
L 458.482099 85.655568 
L 455.864296 80.915881 
L 453.27991 75.726951 
L 451.24039 71.122324 
L 449.204613 65.93477 
L 446.216359 58.079555 
L 445.495922 56.904291 
L 445.015883 56.465757 
L 444.516706 56.301409 
L 443.982444 56.409425 
L 443.397121 56.787674 
L 442.568367 57.636609 
L 441.385049 59.198815 
L 438.127771 64.044788 
L 435.023363 68.480248 
L 432.044907 72.385232 
L 429.064531 75.98206 
L 425.591081 79.856433 
L 421.611351 83.972446 
L 417.144183 88.292999 
L 411.219667 93.699764 
L 401.517243 102.177398 
L 391.413445 111.04936 
L 384.738771 117.191086 
L 379.313152 122.456316 
L 374.053476 127.857322 
L 368.981038 133.391148 
L 364.106913 139.051057 
L 359.437701 144.82839 
L 354.979658 150.714626 
L 350.741119 156.7031 
L 346.733523 162.790124 
L 342.971454 168.97544 
L 340.150052 173.996412 
L 337.506386 179.085044 
L 335.050508 184.245044 
L 332.792579 189.480656 
L 330.742601 194.796332 
L 328.910177 200.196424 
L 327.304317 205.684906 
L 325.933298 211.265135 
L 324.804553 216.939675 
L 323.924614 222.710167 
L 323.299087 228.577246 
L 322.932656 234.540516 
L 322.829121 240.598551 
L 322.991451 246.748936 
L 323.421845 252.988332 
L 324.121818 259.312548 
L 325.092276 265.716638 
L 326.333601 272.194995 
L 327.84573 278.741439 
L 329.628229 285.349317 
L 331.68036 292.011586 
L 334.001147 298.720895 
L 336.589423 305.469655 
L 339.443878 312.250102 
L 342.563097 319.054357 
L 345.945587 325.874466 
L 349.589801 332.702447 
L 353.494159 339.530319 
L 357.657052 346.35013 
L 358.737982 348.052896 
L 358.737982 348.052896 
" style="fill:none;stroke:#c5a013;stroke-linecap:square;stroke-width:3;"/>
   </g>
   <g id="line2d_9">
    <path clip-path="url(#p565858e76c)" d="M 466.573532 374.631972 
L 473.484411 370.560721 
L 480.171391 366.360619 
L 486.629357 362.037948 
L 492.853195 357.599033 
L 498.837815 353.05022 
L 504.578181 348.39786 
L 510.069348 343.648282 
L 515.306507 338.807768 
L 520.285039 333.882521 
L 525.000587 328.87863 
L 529.449128 323.802034 
L 533.627063 318.658476 
L 537.531319 313.453465 
L 541.159453 308.192223 
L 544.509762 302.879641 
L 547.581409 297.520233 
L 550.374529 292.118092 
L 552.890341 286.676852 
L 555.13124 281.199667 
L 557.100871 275.689189 
L 558.804168 270.147579 
L 560.247358 264.576533 
L 561.437917 258.977326 
L 562.384468 253.350899 
L 563.096622 247.697961 
L 563.584756 242.019123 
L 563.859726 236.315049 
L 563.932526 230.586624 
L 563.813904 224.835117 
L 563.411721 217.616073 
L 562.743411 210.368767 
L 561.822596 203.099861 
L 560.658576 195.817647 
L 559.256392 188.531701 
L 557.61798 181.25238 
L 555.744795 173.990375 
L 553.642099 166.756678 
L 551.324701 159.563382 
L 548.304987 151.006575 
L 544.57493 141.178427 
L 536.891833 121.197164 
L 534.365952 113.896232 
L 532.618538 108.233286 
L 531.211085 103.004844 
L 529.943589 97.348211 
L 529.065293 92.389296 
L 528.330135 86.865291 
L 527.308591 78.523198 
L 526.890347 77.209673 
L 526.529205 76.669001 
L 526.083864 76.389968 
L 525.539277 76.366988 
L 524.880441 76.594168 
L 523.872606 77.220101 
L 522.349813 78.453726 
L 518.027468 82.379366 
L 513.951794 85.943006 
L 510.125362 89.021727 
L 506.370814 91.800787 
L 502.071097 94.731327 
L 497.221985 97.775324 
L 491.850648 100.901266 
L 484.804365 104.733091 
L 473.355045 110.642439 
L 461.421645 116.8386 
L 453.471114 121.204505 
L 446.943102 125.018301 
L 440.543717 129.003642 
L 434.294344 133.162751 
L 428.207347 137.491739 
L 422.291208 141.983778 
L 416.554038 146.63209 
L 411.005528 151.432202 
L 405.657666 156.383267 
L 400.524672 161.488527 
L 396.583658 165.688393 
L 392.799023 169.996488 
L 389.179639 174.418818 
L 385.734358 178.961934 
L 382.471824 183.632555 
L 379.400319 188.437202 
L 376.527644 193.381891 
L 373.861028 198.471862 
L 371.407076 203.711385 
L 369.171737 209.103613 
L 367.160302 214.650507 
L 365.377415 220.352802 
L 363.827107 226.210024 
L 362.512835 232.220539 
L 361.437538 238.381629 
L 360.603687 244.689589 
L 360.013347 251.139835 
L 359.668229 257.72701 
L 359.569752 264.445102 
L 359.719085 271.287547 
L 360.1172 278.247331 
L 360.764906 285.31708 
L 361.662887 292.489148 
L 362.81173 299.755684 
L 364.211946 307.108697 
L 365.863988 314.540109 
L 367.768265 322.041798 
L 369.925152 329.605639 
L 372.334992 337.223524 
L 372.977013 339.135495 
L 372.977013 339.135495 
" style="fill:none;stroke:#9ca538;stroke-linecap:square;stroke-width:3;"/>
   </g>
   <g id="line2d_10">
    <path clip-path="url(#p565858e76c)" d="M 471.318269 390.748967 
L 479.002644 388.449901 
L 486.500464 385.972145 
L 493.805256 383.320576 
L 500.910542 380.500109 
L 507.809862 377.51569 
L 514.496806 374.372279 
L 520.965058 371.074837 
L 527.208445 367.628314 
L 533.220999 364.037627 
L 538.997031 360.307644 
L 544.531214 356.44317 
L 549.818681 352.44892 
L 554.855127 348.329507 
L 559.636931 344.089416 
L 564.161271 339.73299 
L 568.426252 335.264409 
L 572.431026 330.687682 
L 576.175906 326.006628 
L 579.662465 321.224881 
L 582.893606 316.345891 
L 585.873602 311.372937 
L 588.608094 306.309153 
L 591.104036 301.157568 
L 593.369574 295.92116 
L 595.413871 290.602916 
L 597.246856 285.205912 
L 598.878909 279.733392 
L 600.320495 274.188847 
L 601.581747 268.57608 
L 602.91888 261.47056 
L 604.004384 254.273911 
L 604.849889 246.995861 
L 605.462442 239.646687 
L 605.844644 232.236892 
L 605.995896 224.776997 
L 605.915054 217.277731 
L 605.604596 209.751023 
L 605.076005 202.212162 
L 604.191817 193.181335 
L 602.922179 182.746115 
L 600.244168 161.506785 
L 599.538912 153.813522 
L 599.197506 147.896947 
L 599.082199 142.483608 
L 599.205255 136.688016 
L 599.539226 131.663008 
L 600.147412 126.123585 
L 601.151945 117.779427 
L 601.060202 116.403978 
L 600.838945 115.79259 
L 600.473322 115.415088 
L 599.95006 115.262448 
L 599.256001 115.325357 
L 598.127656 115.69191 
L 596.353886 116.525261 
L 591.217674 119.302423 
L 586.407596 121.787138 
L 581.955567 123.860672 
L 577.645047 125.660455 
L 572.768948 127.476849 
L 567.332266 129.271925 
L 561.368924 131.021588 
L 553.610377 133.055781 
L 541.079554 136.053412 
L 528.010079 139.213675 
L 519.245746 141.550028 
L 511.994725 143.690747 
L 504.82754 146.028807 
L 497.764422 148.571487 
L 490.818308 151.317969 
L 483.999066 154.263653 
L 477.316194 157.403899 
L 470.780171 160.736683 
L 464.402841 164.264052 
L 458.197234 167.992557 
L 453.365645 171.127236 
L 448.65999 174.404423 
L 444.087446 177.832072 
L 439.655039 181.418664 
L 435.369556 185.17279 
L 431.237477 189.102764 
L 427.264934 193.216293 
L 423.457695 197.520196 
L 419.821151 202.020198 
L 416.360323 206.720786 
L 413.079878 211.62513 
L 409.98415 216.735054 
L 407.077165 222.051063 
L 404.362674 227.572397 
L 401.844177 233.297121 
L 399.524963 239.22223 
L 397.408132 245.343765 
L 395.496629 251.656937 
L 393.793268 258.156247 
L 392.300758 264.835601 
L 391.021719 271.68842 
L 389.958702 278.707742 
L 389.114201 285.886304 
L 388.490665 293.216623 
L 388.090502 300.691064 
L 387.916085 308.301893 
L 387.969756 316.04132 
L 388.253822 323.901546 
L 388.770557 331.874782 
L 388.936358 333.88484 
L 388.936358 333.88484 
" style="fill:none;stroke:#6faf6b;stroke-linecap:square;stroke-width:3;"/>
   </g>
   <g id="line2d_11">
    <path clip-path="url(#p565858e76c)" d="M 472.068083 407.533122 
L 480.079367 407.139853 
L 487.952279 406.528442 
L 495.679369 405.702074 
L 503.25317 404.663971 
L 510.666227 403.417389 
L 517.911128 401.96561 
L 524.980554 400.311941 
L 531.867327 398.459707 
L 538.564475 396.412257 
L 545.065309 394.172956 
L 551.363508 391.745193 
L 557.453217 389.132382 
L 563.329153 386.337972 
L 568.986727 383.365451 
L 574.422159 380.21836 
L 579.632608 376.900306 
L 584.616293 373.414974 
L 589.372604 369.766152 
L 593.902197 365.957743 
L 598.207065 361.99379 
L 602.290573 357.8785 
L 606.157449 353.616267 
L 609.813718 349.211696 
L 613.266578 344.669627 
L 616.524211 339.995154 
L 619.59552 335.193639 
L 622.489809 330.270717 
L 625.216402 325.232281 
L 627.784226 320.084448 
L 630.782968 313.505398 
L 633.5592 306.777648 
L 636.121887 299.913427 
L 638.475413 292.924401 
L 640.619788 285.821388 
L 642.551916 278.614461 
L 644.268115 271.313763 
L 645.767936 263.93147 
L 647.058874 256.485175 
L 648.361597 247.505167 
L 649.626163 237.069331 
L 652.108874 215.806288 
L 653.26523 208.167798 
L 654.349674 202.341444 
L 655.533215 197.057813 
L 657.039671 191.460079 
L 658.566501 186.661013 
L 660.482685 181.428104 
L 663.454916 173.566812 
L 663.695005 172.209377 
L 663.626492 171.562804 
L 663.361836 171.108772 
L 662.890307 170.835342 
L 662.201361 170.730324 
L 661.018082 170.816196 
L 659.096421 171.200839 
L 653.444839 172.668127 
L 648.179902 173.929514 
L 643.361012 174.877354 
L 638.745031 175.593264 
L 633.575932 176.18995 
L 627.86764 176.631781 
L 621.65886 176.90348 
L 613.638948 177.021822 
L 600.754868 176.933524 
L 587.308867 176.874226 
L 578.240084 177.045247 
L 570.687457 177.388477 
L 563.169004 177.943378 
L 555.702624 178.721858 
L 548.301075 179.726218 
L 540.975039 180.954354 
L 533.734849 182.404035 
L 526.591164 184.075801 
L 519.554992 185.974476 
L 512.63742 188.109538 
L 507.19605 189.996854 
L 501.842851 192.052675 
L 496.582886 194.286442 
L 491.42095 196.70807 
L 486.361574 199.327524 
L 481.409061 202.154429 
L 476.567522 205.197734 
L 471.840923 208.465442 
L 467.233129 211.9644 
L 462.747941 215.700168 
L 458.389134 219.676938 
L 454.160477 223.897521 
L 450.06576 228.363369 
L 446.108805 233.074643 
L 442.293476 238.030302 
L 438.623682 243.228213 
L 435.103383 248.665277 
L 431.736583 254.337547 
L 428.527333 260.240358 
L 425.479718 266.36844 
L 422.597859 272.716036 
L 419.885897 279.276992 
L 417.347994 286.044856 
L 414.988317 293.012947 
L 412.81103 300.17443 
L 410.820292 307.52236 
L 409.020236 315.049739 
L 407.414973 322.749542 
L 406.008572 330.614753 
L 405.688517 332.606081 
L 405.688517 332.606081 
" style="fill:none;stroke:#1bb7b2;stroke-linecap:square;stroke-width:3;"/>
   </g>
   <g id="line2d_12">
    <path clip-path="url(#p565858e76c)" d="M 468.779398 424.009001 
L 476.652003 425.544386 
L 484.442463 426.834853 
L 492.142781 427.881711 
L 499.744936 428.686303 
L 507.240909 429.250005 
L 514.62272 429.57423 
L 521.882471 429.660438 
L 529.012394 429.51014 
L 536.004922 429.124917 
L 542.852754 428.506437 
L 549.548941 427.656478 
L 556.08698 426.576954 
L 562.460918 425.269948 
L 568.665464 423.737749 
L 574.6961 421.982891 
L 580.549206 420.008195 
L 586.222169 417.816815 
L 591.71349 415.412281 
L 597.022873 412.798539 
L 602.151286 409.979994 
L 607.100988 406.961535 
L 611.875519 403.748559 
L 616.479626 400.346979 
L 620.91914 396.763217 
L 625.200787 393.004178 
L 629.331927 389.077199 
L 633.320246 384.989977 
L 637.173385 380.750465 
L 640.898551 376.366739 
L 645.384623 370.696511 
L 649.690239 364.828652 
L 653.821175 358.777185 
L 657.778895 352.554482 
L 661.560821 346.171053 
L 665.161535 339.635935 
L 668.575036 332.958095 
L 671.797974 326.149249 
L 674.833414 319.228271 
L 678.247338 310.820968 
L 681.972618 300.991008 
L 689.471766 280.939982 
L 692.42253 273.800187 
L 694.8698 268.402661 
L 697.283405 263.555802 
L 700.085711 258.481247 
L 702.716666 254.187028 
L 705.829486 249.56475 
L 710.59668 242.643195 
L 711.154648 241.382661 
L 711.242861 240.73848 
L 711.094552 240.234305 
L 710.702161 239.855977 
L 710.058367 239.589134 
L 708.888921 239.389333 
L 706.931049 239.302917 
L 701.092547 239.375055 
L 695.67873 239.339807 
L 690.773035 239.106868 
L 686.119858 238.697299 
L 680.958167 238.0396 
L 675.31001 237.102508 
L 669.216624 235.880454 
L 661.401436 234.076066 
L 648.912874 230.906973 
L 635.871781 227.631559 
L 627.025592 225.627308 
L 619.610291 224.153103 
L 612.177513 222.892596 
L 604.74179 221.861633 
L 597.314958 221.065501 
L 589.907891 220.504714 
L 582.531157 220.17958 
L 575.194974 220.093171 
L 567.908878 220.252809 
L 560.681364 220.670346 
L 554.946447 221.200615 
L 549.256811 221.915593 
L 543.615116 222.825659 
L 538.023643 223.941587 
L 532.484407 225.274136 
L 526.999282 226.833682 
L 521.570118 228.629899 
L 516.198852 230.671504 
L 510.887597 232.966071 
L 505.638713 235.519908 
L 500.454861 238.33799 
L 495.33903 241.423947 
L 490.294551 244.780096 
L 485.325096 248.407507 
L 480.434666 252.306095 
L 475.627568 256.474726 
L 470.908388 260.911336 
L 466.281959 265.613052 
L 461.753328 270.576314 
L 457.327726 275.796984 
L 453.010529 281.270455 
L 448.807233 286.991747 
L 444.723421 292.955589 
L 440.764737 299.156493 
L 436.936864 305.588817 
L 433.245498 312.246815 
L 429.696329 319.12468 
L 426.295028 326.216576 
L 423.047227 333.516665 
L 422.259916 335.373534 
L 422.259916 335.373534 
" style="fill:none;stroke:#28aed3;stroke-linecap:square;stroke-width:3;"/>
   </g>
   <g id="line2d_13">
    <path clip-path="url(#p565858e76c)" d="M 461.64334 439.219088 
L 468.91974 442.593895 
L 476.174994 445.711243 
L 483.401026 448.570488 
L 490.589724 451.171014 
L 497.732975 453.51224 
L 504.822692 455.593627 
L 511.850856 457.414701 
L 518.809566 458.975073 
L 525.691094 460.274466 
L 532.487952 461.312751 
L 539.192968 462.089993 
L 545.799371 462.606493 
L 552.300881 462.862849 
L 558.691813 462.860018 
L 564.967175 462.599378 
L 571.122776 462.082804 
L 577.155324 461.31273 
L 583.062521 460.292226 
L 588.843132 459.025054 
L 594.497044 457.51572 
L 600.025282 455.769513 
L 605.429989 453.79252 
L 610.71436 451.591619 
L 615.882521 449.17444 
L 620.939347 446.549297 
L 625.890232 443.725076 
L 630.740793 440.711088 
L 635.496549 437.516885 
L 640.162562 434.152033 
L 645.875253 429.720158 
L 651.460026 425.053211 
L 656.919135 420.166186 
L 662.251041 415.071447 
L 667.450725 409.778583 
L 672.510765 404.295071 
L 677.423188 398.628181 
L 682.181936 392.788487 
L 686.78547 386.795049 
L 692.112192 379.449052 
L 698.081685 370.796251 
L 710.161446 353.122535 
L 714.735131 346.896374 
L 718.403 342.24136 
L 721.906399 338.112955 
L 725.841697 333.856493 
L 729.423874 330.316685 
L 733.552425 326.573669 
L 739.837529 320.994106 
L 740.680949 319.903731 
L 740.920761 319.29938 
L 740.897419 318.774362 
L 740.60697 318.313122 
L 740.045743 317.899964 
L 738.958095 317.426102 
L 737.077796 316.873647 
L 731.391687 315.546444 
L 726.143621 314.216609 
L 721.436222 312.81643 
L 717.016274 311.305183 
L 712.16197 309.431322 
L 706.9022 307.169768 
L 701.278333 304.524983 
L 694.122058 300.90273 
L 682.754805 294.837016 
L 670.87652 288.535842 
L 662.767034 284.472799 
L 655.920008 281.266834 
L 649.004873 278.264175 
L 642.031944 275.483685 
L 635.011448 272.93333 
L 627.953823 270.616212 
L 620.869253 268.535156 
L 613.766925 266.695596 
L 606.654346 265.106918 
L 599.536927 263.782665 
L 593.841754 262.92507 
L 588.146344 262.257653 
L 582.450793 261.791128 
L 576.754739 261.536501 
L 571.057563 261.504703 
L 565.358602 261.706256 
L 559.657338 262.150994 
L 553.953563 262.847845 
L 548.247517 263.80467 
L 542.539983 265.028157 
L 536.832353 266.523773 
L 531.126661 268.295759 
L 525.425586 270.347162 
L 519.732438 272.679899 
L 514.051122 275.294844 
L 508.386091 278.191929 
L 502.742292 281.370245 
L 497.125103 284.828161 
L 491.54028 288.563427 
L 485.99389 292.573278 
L 480.492255 296.854527 
L 475.041904 301.403654 
L 469.64952 306.216877 
L 464.321895 311.290219 
L 459.065897 316.619562 
L 453.888432 322.200689 
L 448.796415 328.029324 
L 443.796748 334.101158 
L 438.896296 340.411869 
L 437.687485 342.026365 
L 437.687485 342.026365 
" style="fill:none;stroke:#6098dd;stroke-linecap:square;stroke-width:3;"/>
   </g>
   <g id="line2d_14">
    <path clip-path="url(#p565858e76c)" d="M 451.074631 452.279427 
L 457.331948 457.297525 
L 463.630347 462.060584 
L 469.962141 466.566047 
L 476.319602 470.811375 
L 482.694992 474.79406 
L 489.080586 478.511647 
L 495.468713 481.961754 
L 501.851794 485.142112 
L 508.222392 488.050604 
L 514.573267 490.685314 
L 520.897442 493.044585 
L 527.188268 495.127092 
L 533.439506 496.931913 
L 539.645407 498.458614 
L 545.800793 499.707341 
L 551.901148 500.678908 
L 557.942692 501.374895 
L 563.922459 501.79773 
L 569.83835 501.95077 
L 575.689177 501.838364 
L 581.474669 501.465893 
L 587.19545 500.839779 
L 592.852977 499.967465 
L 598.44943 498.857347 
L 603.987552 497.518663 
L 609.470453 495.961333 
L 614.90136 494.195741 
L 620.283346 492.232483 
L 625.619035 490.082057 
L 632.226341 487.146101 
L 638.765705 483.95129 
L 645.235724 480.512724 
L 651.631945 476.842038 
L 657.947202 472.947341 
L 664.172496 468.834116 
L 670.298348 464.507516 
L 676.316346 459.976356 
L 682.220434 455.258773 
L 689.150383 449.401006 
L 697.017164 442.428233 
L 712.975506 428.158959 
L 718.906306 423.208273 
L 723.581611 419.566304 
L 727.9712 416.396281 
L 732.810783 413.205282 
L 737.136 410.625606 
L 742.040345 407.979382 
L 749.478093 404.066075 
L 750.557948 403.209228 
L 750.935423 402.679829 
L 751.038403 402.164481 
L 750.866777 401.647135 
L 750.420733 401.111672 
L 749.478093 400.391289 
L 747.784643 399.404902 
L 742.581382 396.75549 
L 737.804066 394.208353 
L 733.56854 391.722306 
L 729.638693 389.197211 
L 725.37389 386.21609 
L 720.808184 382.761507 
L 715.980675 378.847695 
L 709.89921 373.618089 
L 700.31389 365.008272 
L 690.288736 356.047539 
L 683.387247 350.161835 
L 677.506421 345.410428 
L 671.51081 340.840121 
L 665.405916 336.471695 
L 659.199764 332.315335 
L 652.901742 328.376547 
L 646.521066 324.660515 
L 640.065355 321.174711 
L 633.53965 317.930045 
L 626.945965 314.940963 
L 621.62152 312.745343 
L 616.251331 310.73432 
L 610.832929 308.918316 
L 605.363328 307.307934 
L 599.839312 305.913637 
L 594.257717 304.745482 
L 588.615688 303.812894 
L 582.910887 303.124494 
L 577.141666 302.687969 
L 571.307183 302.510001 
L 565.407482 302.596233 
L 559.443523 302.951266 
L 553.417178 303.578702 
L 547.331202 304.481195 
L 541.189177 305.660527 
L 534.995444 307.117696 
L 528.755022 308.853007 
L 522.473526 310.866161 
L 516.15708 313.156352 
L 509.812237 315.722345 
L 503.4459 318.562562 
L 497.065249 321.675145 
L 490.677678 325.058023 
L 484.290734 328.708959 
L 477.912071 332.625597 
L 471.549402 336.805498 
L 465.210467 341.246165 
L 458.902996 345.945064 
L 452.63469 350.899642 
L 451.074631 352.177937 
L 451.074631 352.177937 
" style="fill:none;stroke:#8d5ccd;stroke-linecap:square;stroke-width:3;"/>
   </g>
   <g id="line2d_15">
    <path clip-path="url(#p565858e76c)" d="M 437.687485 462.430998 
L 442.562066 468.800753 
L 447.537572 474.932712 
L 452.607147 480.822552 
L 457.763898 486.465958 
L 463.000911 491.858645 
L 468.311275 496.996378 
L 473.68811 501.87501 
L 479.124601 506.490524 
L 484.614033 510.839084 
L 490.149837 514.917098 
L 495.725631 518.721287 
L 501.335281 522.248774 
L 506.972948 525.497169 
L 512.633153 528.464676 
L 518.310835 531.150198 
L 524.001413 533.553444 
L 529.700841 535.675042 
L 535.405655 537.516642 
L 541.113016 539.081001 
L 546.820729 540.372056 
L 552.527243 541.394967 
L 558.231628 542.156119 
L 563.933517 542.663087 
L 569.633014 542.924546 
L 575.330577 542.950122 
L 581.026848 542.750189 
L 586.722477 542.335603 
L 592.41791 541.717387 
L 598.113185 540.906363 
L 605.231115 539.636952 
L 612.345025 538.099949 
L 619.44994 536.309678 
L 626.538751 534.276371 
L 633.60256 532.006187 
L 640.631318 529.502295 
L 647.614587 526.76743 
L 654.54209 523.808139 
L 661.403607 520.640582 
L 669.53404 516.611476 
L 678.84092 511.723963 
L 697.750403 501.688409 
L 704.693642 498.300915 
L 710.104671 495.883648 
L 715.125342 493.856238 
L 720.587951 491.916152 
L 725.404843 490.446528 
L 730.799959 489.050886 
L 738.958095 487.031261 
L 740.211629 486.457739 
L 740.704828 486.034059 
L 740.928147 485.558332 
L 740.885317 485.014945 
L 740.580379 484.388297 
L 739.837529 483.463258 
L 738.429346 482.100265 
L 734.011328 478.282618 
L 729.982402 474.666209 
L 726.464903 471.238775 
L 723.253545 467.84658 
L 719.826098 463.931451 
L 716.219799 459.484608 
L 712.469206 454.529225 
L 707.815983 447.996192 
L 700.569659 437.342644 
L 692.980262 426.243117 
L 687.687858 418.876806 
L 683.115004 412.856093 
L 678.387361 406.983746 
L 673.505298 401.281263 
L 668.474166 395.760449 
L 663.301768 390.4289 
L 657.995807 385.293854 
L 652.561895 380.364388 
L 647.002315 375.652302 
L 641.315564 371.172105 
L 636.671283 367.766064 
L 631.938412 364.528306 
L 627.112057 361.468364 
L 622.186782 358.595816 
L 617.156961 355.92005 
L 612.017116 353.450077 
L 606.762217 351.194363 
L 601.387932 349.160718 
L 595.89082 347.356212 
L 590.268467 345.787133 
L 584.519565 344.458968 
L 578.643942 343.376416 
L 572.642557 342.543421 
L 566.517448 341.96322 
L 560.271666 341.6384 
L 553.909189 341.570969 
L 547.434815 341.762424 
L 540.854068 342.213819 
L 534.173088 342.925836 
L 527.398532 343.898846 
L 520.537481 345.132968 
L 513.597351 346.628115 
L 506.585815 348.384047 
L 499.510738 350.400397 
L 492.380114 352.676711 
L 485.202017 355.212466 
L 477.984558 358.007088 
L 470.735851 361.059969 
L 463.463982 364.370473 
L 461.64334 365.238275 
L 461.64334 365.238275 
" style="fill:none;stroke:#a865be;stroke-linecap:square;stroke-width:3;"/>
   </g>
   <g id="line2d_16">
    <path clip-path="url(#p565858e76c)" d="M 422.259916 469.083829 
L 425.468468 476.435055 
L 428.831921 483.579547 
L 432.344653 490.511467 
L 436.001002 497.224978 
L 439.795283 503.714262 
L 443.721797 509.973555 
L 447.774858 515.997183 
L 451.94881 521.779617 
L 456.23805 527.315523 
L 460.637061 532.599841 
L 465.140431 537.627863 
L 469.742892 542.395324 
L 474.439346 546.898509 
L 479.224905 551.134361 
L 484.094917 555.100605 
L 489.045003 558.795861 
L 494.071083 562.219772 
L 499.169402 565.37311 
L 504.336543 568.257872 
L 509.56943 570.877357 
L 514.865325 573.236202 
L 520.221795 575.340385 
L 525.636671 577.197173 
L 531.107981 578.815013 
L 536.633862 580.203362 
L 542.212457 581.372445 
L 547.841798 582.33296 
L 553.519681 583.095715 
L 559.243552 583.671225 
L 566.458438 584.142134 
L 573.73346 584.352263 
L 581.060359 584.314332 
L 588.429784 584.036573 
L 595.831622 583.522836 
L 603.255358 582.773795 
L 610.690201 581.789606 
L 618.124609 580.574166 
L 625.544789 579.140721 
L 634.403194 577.174433 
L 644.609292 574.656225 
L 665.370964 569.437621 
L 672.923126 567.810187 
L 678.75541 566.758106 
L 684.115381 565.991134 
L 689.88355 565.414711 
L 694.912175 565.14055 
L 700.484518 565.076598 
L 708.888921 565.06803 
L 710.243283 564.811164 
L 710.823543 564.517825 
L 711.154222 564.109365 
L 711.242677 563.571519 
L 711.096567 562.890103 
L 710.59668 561.814169 
L 709.555601 560.153781 
L 706.179585 555.389767 
L 703.133196 550.91426 
L 700.538147 546.744628 
L 698.231911 542.682476 
L 695.841012 538.060872 
L 693.403704 532.880202 
L 690.947997 527.171237 
L 687.993446 519.714454 
L 683.507247 507.636319 
L 678.794675 495.043063 
L 675.418933 486.624248 
L 672.419809 479.684131 
L 669.234887 472.851025 
L 665.859381 466.145891 
L 662.295662 459.581474 
L 658.549487 453.167014 
L 654.626606 446.911383 
L 650.530291 440.824738 
L 646.259938 434.919083 
L 641.810615 429.208144 
L 638.116408 424.789626 
L 634.295911 420.513302 
L 630.342094 416.387254 
L 626.247385 412.419481 
L 622.004073 408.617753 
L 617.604686 404.989507 
L 613.042312 401.54176 
L 608.310878 398.281059 
L 603.405349 395.213444 
L 598.321876 392.344442 
L 593.057877 389.679069 
L 587.612061 387.221845 
L 581.984413 384.97683 
L 576.17614 382.947654 
L 570.189585 381.137559 
L 564.028126 379.549448 
L 557.696068 378.18592 
L 551.198519 377.049323 
L 544.54128 376.141787 
L 537.730724 375.465266 
L 530.773698 375.021569 
L 523.677422 374.812388 
L 516.449407 374.839325 
L 509.097375 375.103907 
L 501.629196 375.607606 
L 494.052836 376.351845 
L 486.376307 377.338009 
L 478.607631 378.56745 
L 470.754815 380.041484 
L 468.779398 380.448362 
L 468.779398 380.448362 
" style="fill:none;stroke:#b55092;stroke-linecap:square;stroke-width:3;"/>
   </g>
   <g id="line2d_17">
    <path clip-path="url(#p565858e76c)" d="M 405.688517 471.851283 
L 407.044571 479.756752 
L 408.600499 487.498564 
L 410.35224 495.069708 
L 412.295695 502.463158 
L 414.426733 509.671906 
L 416.741203 516.688991 
L 419.234941 523.507545 
L 421.903778 530.120844 
L 424.743552 536.522369 
L 427.750115 542.705887 
L 430.919341 548.66553 
L 434.247135 554.395899 
L 437.729436 559.892164 
L 441.362229 565.15019 
L 445.141543 570.166651 
L 449.063456 574.939163 
L 453.124092 579.466402 
L 457.31962 583.748217 
L 461.646244 587.785731 
L 466.10019 591.58141 
L 470.677687 595.139101 
L 475.374944 598.464028 
L 480.188115 601.562726 
L 485.113264 604.442925 
L 490.146319 607.11336 
L 495.283031 609.583518 
L 500.518927 611.863311 
L 505.849282 613.962708 
L 511.269099 615.891307 
L 518.161638 618.075168 
L 525.174973 620.020217 
L 532.298043 621.73683 
L 539.519798 623.230761 
L 546.829498 624.503328 
L 554.21677 625.552669 
L 561.671103 626.376353 
L 569.180354 626.975402 
L 576.727963 627.359375 
L 585.799522 627.57018 
L 596.311696 627.567625 
L 617.718966 627.469258 
L 625.441145 627.696465 
L 631.355734 628.070712 
L 636.743502 628.608752 
L 642.482005 629.429492 
L 647.430119 630.366726 
L 652.855845 631.638182 
L 661.018082 633.641168 
L 662.39456 633.715885 
L 663.02816 633.569936 
L 663.446981 633.252482 
L 663.66158 632.751433 
L 663.682789 632.054852 
L 663.454916 630.890551 
L 662.841446 629.029265 
L 660.703634 623.595751 
L 658.816826 618.521245 
L 657.295043 613.85174 
L 656.027958 609.355708 
L 654.812557 604.29622 
L 653.685889 598.682804 
L 652.667784 592.552043 
L 651.583612 584.60487 
L 650.118261 571.804086 
L 648.556391 558.448974 
L 647.293496 549.466927 
L 646.0424 542.010739 
L 644.585295 534.61399 
L 642.912519 527.295883 
L 641.023323 520.069362 
L 638.921086 512.944777 
L 636.609267 505.932116 
L 634.088614 499.042026 
L 631.355665 492.286015 
L 628.402348 485.676233 
L 625.872909 480.502028 
L 623.18682 475.435661 
L 620.335321 470.483299 
L 617.309147 465.650894 
L 614.098951 460.944147 
L 610.695698 456.368488 
L 607.090999 451.929079 
L 603.277388 447.630821 
L 599.248533 443.478376 
L 594.999374 439.476188 
L 590.526202 435.628508 
L 585.826684 431.939418 
L 580.899833 428.412854 
L 575.745952 425.052631 
L 570.366538 421.862459 
L 564.76418 418.845961 
L 558.942434 416.006694 
L 552.905698 413.348159 
L 546.659093 410.873813 
L 540.208342 408.587077 
L 533.559658 406.491348 
L 526.719648 404.589996 
L 519.695219 402.886373 
L 512.493505 401.383811 
L 505.121795 400.08562 
L 497.587482 398.995091 
L 489.898014 398.115486 
L 482.060858 397.450036 
L 474.08347 397.001935 
L 472.068083 396.924242 
L 472.068083 396.924242 
" style="fill:none;stroke:#b51e4d;stroke-linecap:square;stroke-width:3;"/>
   </g>
   <g id="line2d_18">
    <path clip-path="url(#p565858e76c)" d="M 388.936358 470.572524 
L 388.361105 478.572799 
L 388.019083 486.462007 
L 387.908029 494.232365 
L 388.025642 501.876074 
L 388.36959 509.38534 
L 388.937507 516.752411 
L 389.726995 523.969621 
L 390.735614 531.029443 
L 391.960884 537.924554 
L 393.40027 544.647908 
L 395.051168 551.19282 
L 396.910894 557.553067 
L 398.976664 563.722991 
L 401.245567 569.697612 
L 403.714543 575.472753 
L 406.380355 581.04516 
L 409.239558 586.412619 
L 412.288466 591.574068 
L 415.523126 596.529688 
L 418.939282 601.28097 
L 422.532354 605.830749 
L 426.29741 610.183186 
L 430.229153 614.343709 
L 434.321909 618.31888 
L 438.569636 622.116206 
L 442.965937 625.743881 
L 447.504097 629.21046 
L 452.177143 632.524489 
L 456.977926 635.694094 
L 463.147548 639.463988 
L 469.491608 643.030919 
L 475.996882 646.402312 
L 482.651265 649.581111 
L 489.444013 652.566025 
L 496.365501 655.352764 
L 503.406104 657.936452 
L 510.553788 660.315176 
L 517.790186 662.494252 
L 526.547693 664.869897 
L 536.755014 667.383145 
L 557.563768 672.410731 
L 565.007181 674.479374 
L 570.660339 676.2582 
L 575.762787 678.069983 
L 581.138124 680.240187 
L 585.71816 682.334349 
L 590.681945 684.867319 
L 598.127656 688.765453 
L 599.446255 689.167412 
L 600.096371 689.177335 
L 600.578994 688.969335 
L 600.907266 688.534203 
L 601.094562 687.862939 
L 601.151945 686.677937 
L 601.001737 684.723923 
L 600.226371 678.936686 
L 599.608798 673.558093 
L 599.248722 668.660088 
L 599.094427 663.99147 
L 599.125157 658.788136 
L 599.374607 653.068207 
L 599.853274 646.871946 
L 600.702489 638.896244 
L 602.343146 626.116747 
L 604.022749 612.77593 
L 604.946096 603.752654 
L 605.515737 596.213723 
L 605.871131 588.683201 
L 605.9983 581.177424 
L 605.893421 573.708779 
L 605.557296 566.288123 
L 604.990893 558.925982 
L 604.192392 551.632874 
L 603.155677 544.419143 
L 601.870003 537.294655 
L 600.652332 531.665468 
L 599.256757 526.103497 
L 597.673296 520.612633 
L 595.891527 515.196438 
L 593.901012 509.858211 
L 591.691678 504.601061 
L 589.254145 499.427992 
L 586.579991 494.341977 
L 583.661952 489.346026 
L 580.494053 484.443244 
L 577.071674 479.63687 
L 573.391572 474.93031 
L 569.451848 470.32715 
L 565.251883 465.831164 
L 560.792244 461.446314 
L 556.074576 457.176738 
L 551.101479 453.02674 
L 545.876389 449.000772 
L 540.403449 445.103415 
L 534.687396 441.339362 
L 528.733452 437.713397 
L 522.547223 434.230373 
L 516.134615 430.895198 
L 509.501757 427.712815 
L 502.654933 424.688182 
L 495.600534 421.826263 
L 488.345011 419.132007 
L 480.894841 416.610339 
L 473.256499 414.266146 
L 471.318269 413.708396 
L 471.318269 413.708396 
" style="fill:none;stroke:#da5c55;stroke-linecap:square;stroke-width:3;"/>
   </g>
   <g id="line2d_19">
    <path clip-path="url(#p565858e76c)" d="M 372.977013 465.321869 
L 370.503885 472.952004 
L 368.283791 480.530114 
L 366.316395 488.048103 
L 364.601331 495.497847 
L 363.138199 502.871219 
L 361.926559 510.160128 
L 360.965914 517.356555 
L 360.255699 524.45261 
L 359.795257 531.440588 
L 359.583812 538.313041 
L 359.620438 545.062856 
L 359.904018 551.683348 
L 360.433201 558.168355 
L 361.206353 564.512349 
L 362.221503 570.71054 
L 363.476287 576.758993 
L 364.96789 582.654735 
L 366.692987 588.395853 
L 368.647695 593.981577 
L 370.827528 599.412335 
L 373.227359 604.689784 
L 375.841403 609.816784 
L 378.663218 614.797337 
L 381.685725 619.636458 
L 384.901261 624.339988 
L 388.301654 628.914353 
L 391.878337 633.366252 
L 395.622494 637.702315 
L 399.525238 641.928719 
L 404.613388 647.065554 
L 409.919478 652.047069 
L 415.428894 656.87731 
L 421.129176 661.556238 
L 427.010202 666.080026 
L 433.063654 670.442208 
L 439.281353 674.635746 
L 445.652072 678.6559 
L 452.156707 682.50344 
L 460.091208 686.905862 
L 469.400463 691.788851 
L 488.401372 701.650205 
L 495.133435 705.440063 
L 500.196621 708.520089 
L 504.717213 711.50032 
L 509.416989 714.893865 
L 513.362772 718.023248 
L 517.576138 721.670526 
L 523.872606 727.237262 
L 525.056694 727.943103 
L 525.685545 728.10832 
L 526.203921 728.021864 
L 526.626788 727.677937 
L 526.969285 727.071001 
L 527.308591 725.934165 
L 527.630373 724.000985 
L 528.262514 718.196357 
L 528.950069 712.826261 
L 529.772625 707.984412 
L 530.740087 703.41453 
L 532.015164 698.36975 
L 533.626233 692.875729 
L 535.573853 686.974073 
L 538.307102 679.43336 
L 542.958419 667.417847 
L 547.781882 654.866646 
L 550.837809 646.326541 
L 553.195082 639.143001 
L 555.342321 631.916354 
L 557.262044 624.659115 
L 558.947577 617.382396 
L 560.397098 610.09693 
L 561.609029 602.813171 
L 562.579087 595.540893 
L 563.298855 588.288679 
L 563.755542 581.063533 
L 563.920408 575.306512 
L 563.896452 569.57218 
L 563.673053 563.861923 
L 563.239239 558.176707 
L 562.584087 552.517237 
L 561.69707 546.884123 
L 560.568364 541.278034 
L 559.189079 535.699842 
L 557.551443 530.150732 
L 555.648909 524.632288 
L 553.476218 519.14655 
L 551.029407 513.696048 
L 548.305773 508.283809 
L 545.303811 502.913351 
L 542.023124 497.588656 
L 538.464319 492.314134 
L 534.628892 487.094588 
L 530.51911 481.935161 
L 526.137903 476.841294 
L 521.488745 471.818677 
L 516.575562 466.873203 
L 511.402636 462.010928 
L 505.974526 457.23803 
L 500.296 452.560773 
L 494.371974 447.985479 
L 488.207466 443.518494 
L 481.807553 439.166168 
L 475.177346 434.934832 
L 468.321963 430.830783 
L 466.573532 429.825391 
L 466.573532 429.825391 
" style="fill:none;stroke:#ec8a36;stroke-linecap:square;stroke-width:3;"/>
   </g>
   <g id="line2d_20">
    <path clip-path="url(#p565858e76c)" d="M 358.737982 456.404467 
L 354.510707 463.221026 
L 350.541565 470.047627 
L 346.832165 476.876328 
L 343.384098 483.699154 
L 340.198919 490.508119 
L 337.278136 497.295261 
L 334.623188 504.052676 
L 332.235413 510.772567 
L 330.116018 517.447296 
L 328.266032 524.069446 
L 326.686257 530.631888 
L 325.377209 537.127866 
L 324.339051 543.551073 
L 323.57152 549.895749 
L 323.073848 556.156773 
L 322.844681 562.329759 
L 322.881996 568.411145 
L 323.183025 574.398279 
L 323.744183 580.289484 
L 324.561008 586.084103 
L 325.628128 591.782516 
L 326.939241 597.386117 
L 328.487135 602.897248 
L 330.263736 608.319086 
L 332.260206 613.655468 
L 334.467073 618.910678 
L 336.874414 624.089169 
L 339.472085 629.195269 
L 342.249978 634.23285 
L 345.96095 640.438091 
L 349.920701 646.544684 
L 354.114071 652.553056 
L 358.528973 658.460189 
L 363.156493 664.259946 
L 367.990104 669.944057 
L 373.023549 675.50373 
L 378.247061 680.93168 
L 383.641906 686.224078 
L 390.292276 692.397424 
L 398.162445 699.366372 
L 414.251246 713.488389 
L 419.880715 718.779208 
L 424.059676 722.981434 
L 427.735692 726.956914 
L 431.486772 731.376578 
L 434.568987 735.359314 
L 437.78707 739.908934 
L 442.568367 746.820755 
L 443.549129 747.789456 
L 444.120167 748.100366 
L 444.64417 748.140477 
L 445.137057 747.907743 
L 445.614851 747.400408 
L 446.216359 746.377808 
L 446.991432 744.57781 
L 448.994343 739.093135 
L 450.947066 734.043628 
L 452.904451 729.539324 
L 454.937444 725.333763 
L 457.382764 720.740721 
L 460.261824 715.7919 
L 463.565209 710.527832 
L 468.023645 703.860348 
L 475.415304 693.307116 
L 483.102304 682.274961 
L 488.113213 674.714347 
L 492.121121 668.30368 
L 495.935415 661.800894 
L 499.536126 655.213957 
L 502.914113 648.55206 
L 506.06504 641.825191 
L 508.984872 635.043119 
L 511.667111 628.21431 
L 514.101533 621.345083 
L 516.274041 614.439179 
L 517.81186 608.888902 
L 519.160917 603.315466 
L 520.310563 597.717676 
L 521.249916 592.093844 
L 521.968201 586.44204 
L 522.455052 580.760336 
L 522.700769 575.047033 
L 522.696512 569.300849 
L 522.434451 563.521074 
L 521.907852 557.707679 
L 521.111119 551.861388 
L 520.039798 545.983707 
L 518.690541 540.07693 
L 517.061046 534.144112 
L 515.149973 528.189022 
L 512.956856 522.216091 
L 510.481998 516.230337 
L 507.726371 510.237299 
L 504.691515 504.242959 
L 501.379445 498.253673 
L 497.792559 492.276104 
L 493.933567 486.317156 
L 489.805418 480.383918 
L 485.411241 474.483614 
L 480.754296 468.623557 
L 475.837936 462.811111 
L 470.665573 457.053656 
L 465.240653 451.358564 
L 459.566638 445.733169 
L 458.109619 444.338566 
L 458.109619 444.338566 
" style="fill:none;stroke:#eba302;stroke-linecap:square;stroke-width:3;"/>
   </g>
   <g id="line2d_21">
    <path clip-path="url(#p565858e76c)" d="M 347.046785 444.338566 
L 341.311038 449.945395 
L 335.823519 455.623749 
L 330.587693 461.366304 
L 325.60701 467.165694 
L 320.884895 473.01454 
L 316.424716 478.90547 
L 312.22976 484.831156 
L 308.303195 490.784348 
L 304.648018 496.757917 
L 301.267005 502.744908 
L 298.16264 508.738593 
L 295.337042 514.732534 
L 292.791877 520.720646 
L 290.528268 526.697276 
L 288.546696 532.657265 
L 286.846896 538.596032 
L 285.427756 544.509634 
L 284.287223 550.394834 
L 283.422217 556.249145 
L 282.828564 562.070862 
L 282.500956 567.859068 
L 282.432941 573.613608 
L 282.616955 579.335031 
L 283.044401 585.024489 
L 283.705777 590.683592 
L 284.590862 596.314232 
L 285.688957 601.918361 
L 286.989175 607.49775 
L 288.480775 613.053741 
L 290.598902 619.966764 
L 292.982186 626.84354 
L 295.615807 633.680859 
L 298.48875 640.472896 
L 301.59383 647.211561 
L 304.926688 653.887261 
L 308.483353 660.489963 
L 312.256086 667.010254 
L 316.227613 673.439936 
L 321.207358 681.025433 
L 327.181056 689.675331 
L 339.422725 707.23729 
L 343.622436 713.721588 
L 346.674305 718.801795 
L 349.292108 723.541483 
L 351.876494 728.730412 
L 353.916014 733.33504 
L 355.951791 738.522593 
L 358.940044 746.377808 
L 359.660482 747.553072 
L 360.140521 747.991606 
L 360.639698 748.155954 
L 361.17396 748.047938 
L 361.759283 747.66969 
L 362.588037 746.820755 
L 363.771355 745.258548 
L 367.028633 740.412576 
L 370.133041 735.977115 
L 373.111497 732.072131 
L 376.091873 728.475304 
L 379.565323 724.600931 
L 383.545053 720.484918 
L 388.012221 716.164365 
L 393.936737 710.7576 
L 403.639161 702.279966 
L 413.742959 693.408004 
L 420.417633 687.266277 
L 425.843252 682.001048 
L 431.102928 676.600041 
L 436.175366 671.066215 
L 441.049491 665.406306 
L 445.718703 659.628973 
L 450.176746 653.742737 
L 454.415285 647.754263 
L 458.422881 641.667239 
L 462.18495 635.481923 
L 465.006352 630.460951 
L 467.650018 625.372319 
L 470.105896 620.212319 
L 472.363825 614.976707 
L 474.413803 609.661031 
L 476.246227 604.260939 
L 477.852087 598.772458 
L 479.223106 593.192229 
L 480.351851 587.517688 
L 481.23179 581.747197 
L 481.857317 575.880117 
L 482.223748 569.916847 
L 482.327283 563.858813 
L 482.164953 557.708427 
L 481.734559 551.469032 
L 481.034586 545.144816 
L 480.064128 538.740725 
L 478.822803 532.262369 
L 477.310674 525.715925 
L 475.528175 519.108047 
L 473.476044 512.445777 
L 471.155257 505.736468 
L 468.566981 498.987708 
L 465.712526 492.207261 
L 462.593307 485.403007 
L 459.210817 478.582898 
L 455.566603 471.754917 
L 451.662245 464.927044 
L 447.499352 458.107233 
L 446.418422 456.404467 
L 446.418422 456.404467 
" style="fill:none;stroke:#c5a013;stroke-linecap:square;stroke-width:3;"/>
   </g>
   <g id="line2d_22">
    <path clip-path="url(#p565858e76c)" d="M 338.582872 429.825391 
L 331.671993 433.896642 
L 324.985013 438.096744 
L 318.527047 442.419415 
L 312.303209 446.85833 
L 306.318589 451.407143 
L 300.578223 456.059503 
L 295.087056 460.809081 
L 289.849897 465.649595 
L 284.871365 470.574842 
L 280.155817 475.578733 
L 275.707276 480.655329 
L 271.529341 485.798887 
L 267.625085 491.003898 
L 263.996951 496.26514 
L 260.646642 501.577722 
L 257.574995 506.93713 
L 254.781875 512.339272 
L 252.266063 517.780511 
L 250.025164 523.257697 
L 248.055533 528.768175 
L 246.352236 534.309784 
L 244.909046 539.88083 
L 243.718487 545.480037 
L 242.771936 551.106464 
L 242.059782 556.759402 
L 241.571648 562.43824 
L 241.296678 568.142315 
L 241.223878 573.870739 
L 241.3425 579.622247 
L 241.744683 586.84129 
L 242.412993 594.088597 
L 243.333808 601.357502 
L 244.497828 608.639716 
L 245.900012 615.925662 
L 247.538424 623.204983 
L 249.411609 630.466988 
L 251.514305 637.700685 
L 253.831703 644.893981 
L 256.851417 653.450789 
L 260.581474 663.278936 
L 268.264571 683.260199 
L 270.790452 690.561131 
L 272.537866 696.224078 
L 273.945319 701.45252 
L 275.212815 707.109152 
L 276.091111 712.068067 
L 276.826269 717.592073 
L 277.847813 725.934165 
L 278.266057 727.24769 
L 278.627199 727.788362 
L 279.07254 728.067396 
L 279.617127 728.090375 
L 280.275963 727.863195 
L 281.283798 727.237262 
L 282.806591 726.003637 
L 287.128936 722.077998 
L 291.20461 718.514357 
L 295.031042 715.435636 
L 298.78559 712.656576 
L 303.085307 709.726037 
L 307.934419 706.682039 
L 313.305756 703.556097 
L 320.352039 699.724272 
L 331.801359 693.814925 
L 343.734759 687.618763 
L 351.68529 683.252858 
L 358.213302 679.439062 
L 364.612687 675.453722 
L 370.86206 671.294612 
L 376.949057 666.965624 
L 382.865196 662.473586 
L 388.602366 657.825273 
L 394.150876 653.025162 
L 399.498738 648.074096 
L 404.631732 642.968836 
L 408.572746 638.76897 
L 412.357381 634.460875 
L 415.976765 630.038546 
L 419.422046 625.495429 
L 422.68458 620.824809 
L 425.756085 616.020161 
L 428.62876 611.075472 
L 431.295376 605.985501 
L 433.749328 600.745979 
L 435.984667 595.35375 
L 437.996102 589.806856 
L 439.778989 584.104561 
L 441.329297 578.247339 
L 442.643569 572.236824 
L 443.718866 566.075735 
L 444.552717 559.767774 
L 445.143057 553.317529 
L 445.488175 546.730353 
L 445.586652 540.012261 
L 445.437319 533.169816 
L 445.039204 526.210033 
L 444.391498 519.140283 
L 443.493517 511.968215 
L 442.344674 504.701679 
L 440.944458 497.348667 
L 439.292416 489.917255 
L 437.388139 482.415565 
L 435.231252 474.851724 
L 432.821412 467.233839 
L 432.179391 465.321869 
L 432.179391 465.321869 
" style="fill:none;stroke:#9ca538;stroke-linecap:square;stroke-width:3;"/>
   </g>
   <g id="line2d_23">
    <path clip-path="url(#p565858e76c)" d="M 333.838135 413.708396 
L 326.15376 416.007462 
L 318.65594 418.485218 
L 311.351148 421.136787 
L 304.245862 423.957254 
L 297.346542 426.941673 
L 290.659598 430.085085 
L 284.191346 433.382526 
L 277.947959 436.829049 
L 271.935405 440.419737 
L 266.159373 444.149719 
L 260.62519 448.014194 
L 255.337723 452.008443 
L 250.301277 456.127857 
L 245.519473 460.367947 
L 240.995133 464.724374 
L 236.730152 469.192954 
L 232.725378 473.769682 
L 228.980498 478.450735 
L 225.493939 483.232482 
L 222.262798 488.111472 
L 219.282802 493.084426 
L 216.54831 498.14821 
L 214.052368 503.299795 
L 211.78683 508.536204 
L 209.742533 513.854448 
L 207.909548 519.251451 
L 206.277495 524.723971 
L 204.835909 530.268516 
L 203.574657 535.881283 
L 202.237524 542.986803 
L 201.15202 550.183453 
L 200.306515 557.461503 
L 199.693962 564.810677 
L 199.31176 572.220471 
L 199.160508 579.680366 
L 199.24135 587.179632 
L 199.551808 594.70634 
L 200.080399 602.245201 
L 200.964587 611.276028 
L 202.234225 621.711249 
L 204.912236 642.950578 
L 205.617492 650.643841 
L 205.958898 656.560416 
L 206.074205 661.973755 
L 205.951149 667.769348 
L 205.617178 672.794355 
L 205.008992 678.333778 
L 204.004459 686.677937 
L 204.096202 688.053385 
L 204.317459 688.664773 
L 204.683082 689.042275 
L 205.206344 689.194915 
L 205.900403 689.132006 
L 207.028748 688.765453 
L 208.802518 687.932103 
L 213.93873 685.15494 
L 218.748808 682.670225 
L 223.200837 680.596691 
L 227.511357 678.796908 
L 232.387456 676.980514 
L 237.824138 675.185438 
L 243.78748 673.435775 
L 251.546027 671.401582 
L 264.07685 668.403951 
L 277.146325 665.243688 
L 285.910658 662.907335 
L 293.161679 660.766617 
L 300.328864 658.428556 
L 307.391982 655.885876 
L 314.338096 653.139394 
L 321.157338 650.193711 
L 327.84021 647.053464 
L 334.376233 643.720681 
L 340.753563 640.193311 
L 346.95917 636.464807 
L 351.790759 633.330128 
L 356.496414 630.052941 
L 361.068958 626.625291 
L 365.501365 623.038699 
L 369.786848 619.284574 
L 373.918927 615.354599 
L 377.89147 611.241071 
L 381.698709 606.937168 
L 385.335253 602.437166 
L 388.796081 597.736577 
L 392.076526 592.832234 
L 395.172254 587.722309 
L 398.079239 582.406301 
L 400.79373 576.884967 
L 403.312226 571.160242 
L 405.631441 565.235133 
L 407.748272 559.113598 
L 409.659775 552.800426 
L 411.363136 546.301116 
L 412.855646 539.621763 
L 414.134685 532.768943 
L 415.197702 525.749621 
L 416.042203 518.57106 
L 416.665739 511.24074 
L 417.065902 503.766299 
L 417.240319 496.155471 
L 417.186648 488.416043 
L 416.902582 480.555817 
L 416.385847 472.582581 
L 416.220046 470.572524 
L 416.220046 470.572524 
" style="fill:none;stroke:#6faf6b;stroke-linecap:square;stroke-width:3;"/>
   </g>
   <g id="line2d_24">
    <path clip-path="url(#p565858e76c)" d="M 333.088321 396.924242 
L 325.077037 397.31751 
L 317.204125 397.928921 
L 309.477035 398.755289 
L 301.903234 399.793392 
L 294.490177 401.039974 
L 287.245276 402.491753 
L 280.17585 404.145423 
L 273.289077 405.997656 
L 266.591929 408.045106 
L 260.091095 410.284407 
L 253.792896 412.712171 
L 247.703187 415.324981 
L 241.827251 418.119391 
L 236.169677 421.091912 
L 230.734245 424.239003 
L 225.523796 427.557058 
L 220.540111 431.042389 
L 215.7838 434.691211 
L 211.254207 438.499621 
L 206.949339 442.463573 
L 202.865831 446.578863 
L 198.998955 450.841096 
L 195.342686 455.245667 
L 191.889826 459.787736 
L 188.632193 464.46221 
L 185.560884 469.263724 
L 182.666595 474.186646 
L 179.940002 479.225083 
L 177.372178 484.372916 
L 174.373436 490.951965 
L 171.597204 497.679715 
L 169.034517 504.543936 
L 166.680991 511.532963 
L 164.536616 518.635975 
L 162.604488 525.842902 
L 160.888289 533.1436 
L 159.388468 540.525893 
L 158.09753 547.972188 
L 156.794807 556.952196 
L 155.530241 567.388032 
L 153.04753 588.651076 
L 151.891174 596.289565 
L 150.80673 602.115919 
L 149.623189 607.399551 
L 148.116733 612.997285 
L 146.589903 617.79635 
L 144.673719 623.029259 
L 141.701488 630.890551 
L 141.461399 632.247987 
L 141.529912 632.894559 
L 141.794568 633.348591 
L 142.266097 633.622021 
L 142.955043 633.727039 
L 144.138322 633.641168 
L 146.059983 633.256524 
L 151.711565 631.789237 
L 156.976502 630.52785 
L 161.795392 629.580009 
L 166.411373 628.8641 
L 171.580472 628.267413 
L 177.288764 627.825583 
L 183.497544 627.553883 
L 191.517456 627.435541 
L 204.401536 627.523839 
L 217.847537 627.583137 
L 226.91632 627.412116 
L 234.468947 627.068886 
L 241.9874 626.513985 
L 249.45378 625.735505 
L 256.855329 624.731145 
L 264.181365 623.50301 
L 271.421555 622.053329 
L 278.56524 620.381562 
L 285.601412 618.482887 
L 292.518984 616.347825 
L 297.960354 614.460509 
L 303.313553 612.404688 
L 308.573518 610.170921 
L 313.735454 607.749293 
L 318.79483 605.129839 
L 323.747343 602.302934 
L 328.588882 599.259629 
L 333.315481 595.991921 
L 337.923275 592.492963 
L 342.408463 588.757196 
L 346.76727 584.780425 
L 350.995927 580.559842 
L 355.090644 576.093994 
L 359.047599 571.38272 
L 362.862928 566.427062 
L 366.532722 561.22915 
L 370.053021 555.792086 
L 373.419821 550.119816 
L 376.629071 544.217006 
L 379.676686 538.088923 
L 382.558545 531.741328 
L 385.270507 525.180371 
L 387.80841 518.412508 
L 390.168087 511.444416 
L 392.345374 504.282934 
L 394.336112 496.935003 
L 396.136168 489.407625 
L 397.741431 481.707821 
L 399.147832 473.84261 
L 399.467887 471.851283 
L 399.467887 471.851283 
" style="fill:none;stroke:#1bb7b2;stroke-linecap:square;stroke-width:3;"/>
   </g>
   <g id="line2d_25">
    <path clip-path="url(#p565858e76c)" d="M 336.377006 380.448362 
L 328.504401 378.912977 
L 320.713941 377.62251 
L 313.013623 376.575652 
L 305.411468 375.77106 
L 297.915495 375.207358 
L 290.533684 374.883133 
L 283.273933 374.796925 
L 276.14401 374.947224 
L 269.151482 375.332446 
L 262.30365 375.950926 
L 255.607463 376.800885 
L 249.069424 377.880409 
L 242.695486 379.187415 
L 236.49094 380.719614 
L 230.460304 382.474472 
L 224.607198 384.449168 
L 218.934235 386.640548 
L 213.442914 389.045083 
L 208.133531 391.658824 
L 203.005118 394.477369 
L 198.055416 397.495829 
L 193.280885 400.708805 
L 188.676778 404.110385 
L 184.237264 407.694146 
L 179.955617 411.453185 
L 175.824477 415.380164 
L 171.836158 419.467386 
L 167.983019 423.706899 
L 164.257853 428.090624 
L 159.771781 433.760853 
L 155.466165 439.628711 
L 151.335229 445.680178 
L 147.377509 451.902881 
L 143.595583 458.28631 
L 139.994869 464.821429 
L 136.581368 471.499268 
L 133.35843 478.308114 
L 130.32299 485.229092 
L 126.909066 493.636396 
L 123.183786 503.466355 
L 115.684638 523.517381 
L 112.733874 530.657176 
L 110.286604 536.054702 
L 107.872999 540.901561 
L 105.070693 545.976117 
L 102.439738 550.270336 
L 99.326918 554.892613 
L 94.559724 561.814169 
L 94.001756 563.074703 
L 93.913543 563.718883 
L 94.061852 564.223058 
L 94.454243 564.601387 
L 95.098037 564.868229 
L 96.267483 565.06803 
L 98.225355 565.154447 
L 104.063857 565.082308 
L 109.477674 565.117557 
L 114.383369 565.350495 
L 119.036546 565.760065 
L 124.198237 566.417764 
L 129.846394 567.354855 
L 135.93978 568.576909 
L 143.754968 570.381297 
L 156.24353 573.550391 
L 169.284623 576.825804 
L 178.130812 578.830055 
L 185.546113 580.30426 
L 192.978891 581.564767 
L 200.414614 582.595731 
L 207.841446 583.391862 
L 215.248513 583.952649 
L 222.625247 584.277784 
L 229.96143 584.364192 
L 237.247526 584.204555 
L 244.47504 583.787017 
L 250.209957 583.256748 
L 255.899593 582.54177 
L 261.541288 581.631704 
L 267.132761 580.515776 
L 272.671997 579.183227 
L 278.157122 577.623681 
L 283.586286 575.827464 
L 288.957552 573.78586 
L 294.268807 571.491292 
L 299.517691 568.937455 
L 304.701543 566.119373 
L 309.817374 563.033417 
L 314.861853 559.677268 
L 319.831308 556.049856 
L 324.721738 552.151268 
L 329.528836 547.982637 
L 334.248016 543.546028 
L 338.874445 538.844311 
L 343.403076 533.88105 
L 347.828678 528.66038 
L 352.145875 523.186908 
L 356.349171 517.465616 
L 360.432983 511.501774 
L 364.391667 505.30087 
L 368.21954 498.868547 
L 371.910906 492.210548 
L 375.460075 485.332683 
L 378.861376 478.240787 
L 382.109177 470.940698 
L 382.896488 469.083829 
L 382.896488 469.083829 
" style="fill:none;stroke:#28aed3;stroke-linecap:square;stroke-width:3;"/>
   </g>
   <g id="line2d_26">
    <path clip-path="url(#p565858e76c)" d="M 343.513064 365.238275 
L 336.236664 361.863468 
L 328.98141 358.746121 
L 321.755378 355.886876 
L 314.56668 353.286349 
L 307.423429 350.945124 
L 300.333712 348.863736 
L 293.305548 347.042662 
L 286.346838 345.48229 
L 279.46531 344.182898 
L 272.668452 343.144612 
L 265.963436 342.367371 
L 259.357033 341.850871 
L 252.855523 341.594514 
L 246.464591 341.597345 
L 240.189229 341.857985 
L 234.033628 342.37456 
L 228.00108 343.144633 
L 222.093883 344.165137 
L 216.313272 345.432309 
L 210.65936 346.941643 
L 205.131122 348.68785 
L 199.726415 350.664843 
L 194.442044 352.865744 
L 189.273883 355.282923 
L 184.217057 357.908066 
L 179.266172 360.732288 
L 174.415611 363.746275 
L 169.659855 366.940478 
L 164.993842 370.305331 
L 159.281151 374.737205 
L 153.696378 379.404153 
L 148.237269 384.291178 
L 142.905363 389.385916 
L 137.705679 394.67878 
L 132.645639 400.162293 
L 127.733216 405.829182 
L 122.974468 411.668876 
L 118.370934 417.662315 
L 113.044212 425.008311 
L 107.074719 433.661112 
L 94.994958 451.334828 
L 90.421273 457.560989 
L 86.753404 462.216003 
L 83.250005 466.344408 
L 79.314707 470.60087 
L 75.73253 474.140678 
L 71.603979 477.883694 
L 65.318875 483.463258 
L 64.475455 484.553633 
L 64.235643 485.157984 
L 64.258985 485.683001 
L 64.549434 486.144241 
L 65.110661 486.557399 
L 66.198309 487.031261 
L 68.078608 487.583716 
L 73.764717 488.910919 
L 79.012783 490.240754 
L 83.720182 491.640933 
L 88.14013 493.15218 
L 92.994434 495.026041 
L 98.254204 497.287595 
L 103.878071 499.932381 
L 111.034346 503.554633 
L 122.401599 509.620347 
L 134.279884 515.921522 
L 142.38937 519.984564 
L 149.236396 523.190529 
L 156.151531 526.193188 
L 163.12446 528.973678 
L 170.144956 531.524033 
L 177.202581 533.841152 
L 184.287151 535.922207 
L 191.389479 537.761767 
L 198.502058 539.350446 
L 205.619477 540.674698 
L 211.31465 541.532294 
L 217.01006 542.199711 
L 222.705611 542.666236 
L 228.401665 542.920862 
L 234.098841 542.95266 
L 239.797802 542.751108 
L 245.499066 542.30637 
L 251.202841 541.609518 
L 256.908887 540.652694 
L 262.616421 539.429206 
L 268.324051 537.93359 
L 274.029743 536.161604 
L 279.730818 534.110202 
L 285.423966 531.777464 
L 291.105282 529.162519 
L 296.770313 526.265435 
L 302.414112 523.087119 
L 308.031301 519.629202 
L 313.616124 515.893936 
L 319.162514 511.884086 
L 324.664149 507.602836 
L 330.1145 503.053709 
L 335.506884 498.240486 
L 340.834509 493.167144 
L 346.090507 487.837802 
L 351.267972 482.256675 
L 356.359989 476.428039 
L 361.359656 470.356205 
L 366.260108 464.045494 
L 367.468919 462.430998 
L 367.468919 462.430998 
" style="fill:none;stroke:#6098dd;stroke-linecap:square;stroke-width:3;"/>
   </g>
   <g id="text_1">
    <!-- 1 -->
    <defs>
     <path d="M 12.40625 8.296875 
L 28.515625 8.296875 
L 28.515625 63.921875 
L 10.984375 60.40625 
L 10.984375 69.390625 
L 28.421875 72.90625 
L 38.28125 72.90625 
L 38.28125 8.296875 
L 54.390625 8.296875 
L 54.390625 0 
L 12.40625 0 
z
" id="DejaVuSans-49"/>
    </defs>
    <g transform="translate(9.728224 410.506807)scale(0.3 -0.3)">
     <use xlink:href="#DejaVuSans-49"/>
    </g>
   </g>
   <g id="text_2">
    <!-- 2 -->
    <defs>
     <path d="M 19.1875 8.296875 
L 53.609375 8.296875 
L 53.609375 0 
L 7.328125 0 
L 7.328125 8.296875 
Q 12.9375 14.109375 22.625 23.890625 
Q 32.328125 33.6875 34.8125 36.53125 
Q 39.546875 41.84375 41.421875 45.53125 
Q 43.3125 49.21875 43.3125 52.78125 
Q 43.3125 58.59375 39.234375 62.25 
Q 35.15625 65.921875 28.609375 65.921875 
Q 23.96875 65.921875 18.8125 64.3125 
Q 13.671875 62.703125 7.8125 59.421875 
L 7.8125 69.390625 
Q 13.765625 71.78125 18.9375 73 
Q 24.125 74.21875 28.421875 74.21875 
Q 39.75 74.21875 46.484375 68.546875 
Q 53.21875 62.890625 53.21875 53.421875 
Q 53.21875 48.921875 51.53125 44.890625 
Q 49.859375 40.875 45.40625 35.40625 
Q 44.1875 33.984375 37.640625 27.21875 
Q 31.109375 20.453125 19.1875 8.296875 
z
" id="DejaVuSans-50"/>
    </defs>
    <g transform="translate(20.866406 318.775622)scale(0.3 -0.3)">
     <use xlink:href="#DejaVuSans-50"/>
    </g>
   </g>
   <g id="text_3">
    <!-- 3 -->
    <defs>
     <path d="M 40.578125 39.3125 
Q 47.65625 37.796875 51.625 33 
Q 55.609375 28.21875 55.609375 21.1875 
Q 55.609375 10.40625 48.1875 4.484375 
Q 40.765625 -1.421875 27.09375 -1.421875 
Q 22.515625 -1.421875 17.65625 -0.515625 
Q 12.796875 0.390625 7.625 2.203125 
L 7.625 11.71875 
Q 11.71875 9.328125 16.59375 8.109375 
Q 21.484375 6.890625 26.8125 6.890625 
Q 36.078125 6.890625 40.9375 10.546875 
Q 45.796875 14.203125 45.796875 21.1875 
Q 45.796875 27.640625 41.28125 31.265625 
Q 36.765625 34.90625 28.71875 34.90625 
L 20.21875 34.90625 
L 20.21875 43.015625 
L 29.109375 43.015625 
Q 36.375 43.015625 40.234375 45.921875 
Q 44.09375 48.828125 44.09375 54.296875 
Q 44.09375 59.90625 40.109375 62.90625 
Q 36.140625 65.921875 28.71875 65.921875 
Q 24.65625 65.921875 20.015625 65.03125 
Q 15.375 64.15625 9.8125 62.3125 
L 9.8125 71.09375 
Q 15.4375 72.65625 20.34375 73.4375 
Q 25.25 74.21875 29.59375 74.21875 
Q 40.828125 74.21875 47.359375 69.109375 
Q 53.90625 64.015625 53.90625 55.328125 
Q 53.90625 49.265625 50.4375 45.09375 
Q 46.96875 40.921875 40.578125 39.3125 
z
" id="DejaVuSans-51"/>
    </defs>
    <g transform="translate(53.633643 232.37552)scale(0.3 -0.3)">
     <use xlink:href="#DejaVuSans-51"/>
    </g>
   </g>
   <g id="text_4">
    <!-- 4 -->
    <defs>
     <path d="M 37.796875 64.3125 
L 12.890625 25.390625 
L 37.796875 25.390625 
z
M 35.203125 72.90625 
L 47.609375 72.90625 
L 47.609375 25.390625 
L 58.015625 25.390625 
L 58.015625 17.1875 
L 47.609375 17.1875 
L 47.609375 0 
L 37.796875 0 
L 37.796875 17.1875 
L 4.890625 17.1875 
L 4.890625 26.703125 
z
" id="DejaVuSans-52"/>
    </defs>
    <g transform="translate(106.12562 156.327762)scale(0.3 -0.3)">
     <use xlink:href="#DejaVuSans-52"/>
    </g>
   </g>
   <g id="text_5">
    <!-- 5 -->
    <defs>
     <path d="M 10.796875 72.90625 
L 49.515625 72.90625 
L 49.515625 64.59375 
L 19.828125 64.59375 
L 19.828125 46.734375 
Q 21.96875 47.46875 24.109375 47.828125 
Q 26.265625 48.1875 28.421875 48.1875 
Q 40.625 48.1875 47.75 41.5 
Q 54.890625 34.8125 54.890625 23.390625 
Q 54.890625 11.625 47.5625 5.09375 
Q 40.234375 -1.421875 26.90625 -1.421875 
Q 22.3125 -1.421875 17.546875 -0.640625 
Q 12.796875 0.140625 7.71875 1.703125 
L 7.71875 11.625 
Q 12.109375 9.234375 16.796875 8.0625 
Q 21.484375 6.890625 26.703125 6.890625 
Q 35.15625 6.890625 40.078125 11.328125 
Q 45.015625 15.765625 45.015625 23.390625 
Q 45.015625 31 40.078125 35.4375 
Q 35.15625 39.890625 26.703125 39.890625 
Q 22.75 39.890625 18.8125 39.015625 
Q 14.890625 38.140625 10.796875 36.28125 
z
" id="DejaVuSans-53"/>
    </defs>
    <g transform="translate(175.291697 95.051965)scale(0.3 -0.3)">
     <use xlink:href="#DejaVuSans-53"/>
    </g>
   </g>
   <g id="text_6">
    <!-- 6 -->
    <defs>
     <path d="M 33.015625 40.375 
Q 26.375 40.375 22.484375 35.828125 
Q 18.609375 31.296875 18.609375 23.390625 
Q 18.609375 15.53125 22.484375 10.953125 
Q 26.375 6.390625 33.015625 6.390625 
Q 39.65625 6.390625 43.53125 10.953125 
Q 47.40625 15.53125 47.40625 23.390625 
Q 47.40625 31.296875 43.53125 35.828125 
Q 39.65625 40.375 33.015625 40.375 
z
M 52.59375 71.296875 
L 52.59375 62.3125 
Q 48.875 64.0625 45.09375 64.984375 
Q 41.3125 65.921875 37.59375 65.921875 
Q 27.828125 65.921875 22.671875 59.328125 
Q 17.53125 52.734375 16.796875 39.40625 
Q 19.671875 43.65625 24.015625 45.921875 
Q 28.375 48.1875 33.59375 48.1875 
Q 44.578125 48.1875 50.953125 41.515625 
Q 57.328125 34.859375 57.328125 23.390625 
Q 57.328125 12.15625 50.6875 5.359375 
Q 44.046875 -1.421875 33.015625 -1.421875 
Q 20.359375 -1.421875 13.671875 8.265625 
Q 6.984375 17.96875 6.984375 36.375 
Q 6.984375 53.65625 15.1875 63.9375 
Q 23.390625 74.21875 37.203125 74.21875 
Q 40.921875 74.21875 44.703125 73.484375 
Q 48.484375 72.75 52.59375 71.296875 
z
" id="DejaVuSans-54"/>
    </defs>
    <g transform="translate(257.11219 52.109257)scale(0.3 -0.3)">
     <use xlink:href="#DejaVuSans-54"/>
    </g>
   </g>
   <g id="text_7">
    <!-- 7 -->
    <defs>
     <path d="M 8.203125 72.90625 
L 55.078125 72.90625 
L 55.078125 68.703125 
L 28.609375 0 
L 18.3125 0 
L 43.21875 64.59375 
L 8.203125 64.59375 
z
" id="DejaVuSans-55"/>
    </defs>
    <g transform="translate(346.831992 29.995312)scale(0.3 -0.3)">
     <use xlink:href="#DejaVuSans-55"/>
    </g>
   </g>
   <g id="text_8">
    <!-- 8 -->
    <defs>
     <path d="M 31.78125 34.625 
Q 24.75 34.625 20.71875 30.859375 
Q 16.703125 27.09375 16.703125 20.515625 
Q 16.703125 13.921875 20.71875 10.15625 
Q 24.75 6.390625 31.78125 6.390625 
Q 38.8125 6.390625 42.859375 10.171875 
Q 46.921875 13.96875 46.921875 20.515625 
Q 46.921875 27.09375 42.890625 30.859375 
Q 38.875 34.625 31.78125 34.625 
z
M 21.921875 38.8125 
Q 15.578125 40.375 12.03125 44.71875 
Q 8.5 49.078125 8.5 55.328125 
Q 8.5 64.0625 14.71875 69.140625 
Q 20.953125 74.21875 31.78125 74.21875 
Q 42.671875 74.21875 48.875 69.140625 
Q 55.078125 64.0625 55.078125 55.328125 
Q 55.078125 49.078125 51.53125 44.71875 
Q 48 40.375 41.703125 38.8125 
Q 48.828125 37.15625 52.796875 32.3125 
Q 56.78125 27.484375 56.78125 20.515625 
Q 56.78125 9.90625 50.3125 4.234375 
Q 43.84375 -1.421875 31.78125 -1.421875 
Q 19.734375 -1.421875 13.25 4.234375 
Q 6.78125 9.90625 6.78125 20.515625 
Q 6.78125 27.484375 10.78125 32.3125 
Q 14.796875 37.15625 21.921875 38.8125 
z
M 18.3125 54.390625 
Q 18.3125 48.734375 21.84375 45.5625 
Q 25.390625 42.390625 31.78125 42.390625 
Q 38.140625 42.390625 41.71875 45.5625 
Q 45.3125 48.734375 45.3125 54.390625 
Q 45.3125 60.0625 41.71875 63.234375 
Q 38.140625 66.40625 31.78125 66.40625 
Q 25.390625 66.40625 21.84375 63.234375 
Q 18.3125 60.0625 18.3125 54.390625 
z
" id="DejaVuSans-56"/>
    </defs>
    <g transform="translate(439.236912 29.995312)scale(0.3 -0.3)">
     <use xlink:href="#DejaVuSans-56"/>
    </g>
   </g>
   <g id="text_9">
    <!-- 9 -->
    <defs>
     <path d="M 10.984375 1.515625 
L 10.984375 10.5 
Q 14.703125 8.734375 18.5 7.8125 
Q 22.3125 6.890625 25.984375 6.890625 
Q 35.75 6.890625 40.890625 13.453125 
Q 46.046875 20.015625 46.78125 33.40625 
Q 43.953125 29.203125 39.59375 26.953125 
Q 35.25 24.703125 29.984375 24.703125 
Q 19.046875 24.703125 12.671875 31.3125 
Q 6.296875 37.9375 6.296875 49.421875 
Q 6.296875 60.640625 12.9375 67.421875 
Q 19.578125 74.21875 30.609375 74.21875 
Q 43.265625 74.21875 49.921875 64.515625 
Q 56.59375 54.828125 56.59375 36.375 
Q 56.59375 19.140625 48.40625 8.859375 
Q 40.234375 -1.421875 26.421875 -1.421875 
Q 22.703125 -1.421875 18.890625 -0.6875 
Q 15.09375 0.046875 10.984375 1.515625 
z
M 30.609375 32.421875 
Q 37.25 32.421875 41.125 36.953125 
Q 45.015625 41.5 45.015625 49.421875 
Q 45.015625 57.28125 41.125 61.84375 
Q 37.25 66.40625 30.609375 66.40625 
Q 23.96875 66.40625 20.09375 61.84375 
Q 16.21875 57.28125 16.21875 49.421875 
Q 16.21875 41.5 20.09375 36.953125 
Q 23.96875 32.421875 30.609375 32.421875 
z
" id="DejaVuSans-57"/>
    </defs>
    <g transform="translate(528.956714 52.109257)scale(0.3 -0.3)">
     <use xlink:href="#DejaVuSans-57"/>
    </g>
   </g>
   <g id="text_10">
    <!-- 10 -->
    <defs>
     <path d="M 31.78125 66.40625 
Q 24.171875 66.40625 20.328125 58.90625 
Q 16.5 51.421875 16.5 36.375 
Q 16.5 21.390625 20.328125 13.890625 
Q 24.171875 6.390625 31.78125 6.390625 
Q 39.453125 6.390625 43.28125 13.890625 
Q 47.125 21.390625 47.125 36.375 
Q 47.125 51.421875 43.28125 58.90625 
Q 39.453125 66.40625 31.78125 66.40625 
z
M 31.78125 74.21875 
Q 44.046875 74.21875 50.515625 64.515625 
Q 56.984375 54.828125 56.984375 36.375 
Q 56.984375 17.96875 50.515625 8.265625 
Q 44.046875 -1.421875 31.78125 -1.421875 
Q 19.53125 -1.421875 13.0625 8.265625 
Q 6.59375 17.96875 6.59375 36.375 
Q 6.59375 54.828125 13.0625 64.515625 
Q 19.53125 74.21875 31.78125 74.21875 
z
" id="DejaVuSans-48"/>
    </defs>
    <g transform="translate(601.233457 95.051965)scale(0.3 -0.3)">
     <use xlink:href="#DejaVuSans-49"/>
     <use x="63.623047" xlink:href="#DejaVuSans-48"/>
    </g>
   </g>
   <g id="text_11">
    <!-- 11 -->
    <g transform="translate(670.399534 156.327762)scale(0.3 -0.3)">
     <use xlink:href="#DejaVuSans-49"/>
     <use x="63.623047" xlink:href="#DejaVuSans-49"/>
    </g>
   </g>
   <g id="text_12">
    <!-- 12 -->
    <g transform="translate(722.891511 232.37552)scale(0.3 -0.3)">
     <use xlink:href="#DejaVuSans-49"/>
     <use x="63.623047" xlink:href="#DejaVuSans-50"/>
    </g>
   </g>
   <g id="text_13">
    <!-- 13 -->
    <g transform="translate(755.658748 318.775622)scale(0.3 -0.3)">
     <use xlink:href="#DejaVuSans-49"/>
     <use x="63.623047" xlink:href="#DejaVuSans-51"/>
    </g>
   </g>
   <g id="text_14">
    <!-- 1' -->
    <defs>
     <path d="M 17.921875 72.90625 
L 17.921875 45.796875 
L 9.625 45.796875 
L 9.625 72.90625 
z
" id="DejaVuSans-39"/>
    </defs>
    <g transform="translate(772.218024 410.506807)scale(0.3 -0.3)">
     <use xlink:href="#DejaVuSans-49"/>
     <use x="63.623047" xlink:href="#DejaVuSans-39"/>
    </g>
   </g>
   <g id="text_15">
    <!-- 2' -->
    <g transform="translate(761.079841 502.237991)scale(0.3 -0.3)">
     <use xlink:href="#DejaVuSans-50"/>
     <use x="63.623047" xlink:href="#DejaVuSans-39"/>
    </g>
   </g>
   <g id="text_16">
    <!-- 3' -->
    <g transform="translate(728.312605 588.638093)scale(0.3 -0.3)">
     <use xlink:href="#DejaVuSans-51"/>
     <use x="63.623047" xlink:href="#DejaVuSans-39"/>
    </g>
   </g>
   <g id="text_17">
    <!-- 4' -->
    <g transform="translate(675.820627 664.685852)scale(0.3 -0.3)">
     <use xlink:href="#DejaVuSans-52"/>
     <use x="63.623047" xlink:href="#DejaVuSans-39"/>
    </g>
   </g>
   <g id="text_18">
    <!-- 5' -->
    <g transform="translate(606.654551 725.961648)scale(0.3 -0.3)">
     <use xlink:href="#DejaVuSans-53"/>
     <use x="63.623047" xlink:href="#DejaVuSans-39"/>
    </g>
   </g>
   <g id="text_19">
    <!-- 6' -->
    <g transform="translate(524.834057 768.904356)scale(0.3 -0.3)">
     <use xlink:href="#DejaVuSans-54"/>
     <use x="63.623047" xlink:href="#DejaVuSans-39"/>
    </g>
   </g>
   <g id="text_20">
    <!-- 7' -->
    <g transform="translate(435.114256 791.018301)scale(0.3 -0.3)">
     <use xlink:href="#DejaVuSans-55"/>
     <use x="63.623047" xlink:href="#DejaVuSans-39"/>
    </g>
   </g>
   <g id="text_21">
    <!-- 8' -->
    <g transform="translate(342.709335 791.018301)scale(0.3 -0.3)">
     <use xlink:href="#DejaVuSans-56"/>
     <use x="63.623047" xlink:href="#DejaVuSans-39"/>
    </g>
   </g>
   <g id="text_22">
    <!-- 9' -->
    <g transform="translate(252.989534 768.904356)scale(0.3 -0.3)">
     <use xlink:href="#DejaVuSans-57"/>
     <use x="63.623047" xlink:href="#DejaVuSans-39"/>
    </g>
   </g>
   <g id="text_23">
    <!-- 10' -->
    <g transform="translate(161.62529 725.961648)scale(0.3 -0.3)">
     <use xlink:href="#DejaVuSans-49"/>
     <use x="63.623047" xlink:href="#DejaVuSans-48"/>
     <use x="127.246094" xlink:href="#DejaVuSans-39"/>
    </g>
   </g>
   <g id="text_24">
    <!-- 11' -->
    <g transform="translate(92.459214 664.685852)scale(0.3 -0.3)">
     <use xlink:href="#DejaVuSans-49"/>
     <use x="63.623047" xlink:href="#DejaVuSans-49"/>
     <use x="127.246094" xlink:href="#DejaVuSans-39"/>
    </g>
   </g>
   <g id="text_25">
    <!-- 12' -->
    <g transform="translate(39.967236 588.638093)scale(0.3 -0.3)">
     <use xlink:href="#DejaVuSans-49"/>
     <use x="63.623047" xlink:href="#DejaVuSans-50"/>
     <use x="127.246094" xlink:href="#DejaVuSans-39"/>
    </g>
   </g>
   <g id="text_26">
    <!-- 13' -->
    <g transform="translate(7.2 502.237991)scale(0.3 -0.3)">
     <use xlink:href="#DejaVuSans-49"/>
     <use x="63.623047" xlink:href="#DejaVuSans-51"/>
     <use x="127.246094" xlink:href="#DejaVuSans-39"/>
    </g>
   </g>
  </g>
 </g>
 <defs>
  <clipPath id="p565858e76c">
   <rect height="761.04" width="766.612443" x="19.27198" y="21.708682"/>
  </clipPath>
 </defs>
</svg>
