<?xml version="1.0" encoding="utf-8" standalone="no"?>
<!DOCTYPE svg PUBLIC "-//W3C//DTD SVG 1.1//EN"
  "http://www.w3.org/Graphics/SVG/1.1/DTD/svg11.dtd">
<!-- Created with matplotlib (https://matplotlib.org/) -->
<svg height="834.943307pt" version="1.1" viewBox="0 0 588.329134 834.943307" width="588.329134pt" xmlns="http://www.w3.org/2000/svg" xmlns:xlink="http://www.w3.org/1999/xlink">
 <defs>
  <style type="text/css">
*{stroke-linecap:butt;stroke-linejoin:round;}
  </style>
 </defs>
 <g id="figure_1">
  <g id="patch_1">
   <path d="M 0 834.943307 
L 588.329134 834.943307 
L 588.329134 0 
L 0 0 
z
" style="fill:none;"/>
  </g>
  <g id="axes_1">
   <g id="patch_2">
    <path d="M 10.7 824.243307 
L 577.629134 824.243307 
L 577.629134 10.7 
L 10.7 10.7 
z
" style="fill:none;"/>
   </g>
   <g id="matplotlib.axis_1"/>
   <g id="matplotlib.axis_2"/>
   <g id="line2d_1">
    <path clip-path="url(#p7c07167369)" d="M 361.350782 417.471654 
L 388.845629 397.90238 
M 361.350782 417.471654 
L 384.395295 452.197382 
M 350.685204 381.148045 
L 388.845629 397.90238 
M 350.685204 381.148045 
L 363.235401 349.820486 
M 322.07473 356.356926 
L 363.235401 349.820486 
M 322.07473 356.356926 
L 315.695665 323.217359 
M 284.602972 350.969299 
L 315.695665 323.217359 
M 284.602972 350.969299 
L 261.31996 326.539304 
M 250.166955 366.695702 
L 261.31996 326.539304 
M 250.166955 366.695702 
L 217.372188 358.731631 
M 229.699867 398.543109 
L 217.372188 358.731631 
M 229.699867 398.543109 
L 197.805454 409.573497 
M 229.699867 436.400198 
L 197.805454 409.573497 
M 229.699867 436.400198 
L 208.832055 462.92297 
M 250.166955 468.247605 
L 208.832055 462.92297 
M 250.166955 468.247605 
L 246.951126 501.841977 
M 284.602972 483.974008 
L 246.951126 501.841977 
M 284.602972 483.974008 
L 300.060133 513.973996 
M 322.07473 478.586382 
L 300.060133 513.973996 
M 322.07473 478.586382 
L 351.297339 495.46721 
M 350.685204 453.795262 
L 351.297339 495.46721 
M 350.685204 453.795262 
L 384.395295 452.197382 
M 388.845629 397.90238 
L 407.996294 368.316895 
M 388.845629 397.90238 
L 416.50098 437.66212 
M 363.235401 349.820486 
L 407.996294 368.316895 
M 363.235401 349.820486 
L 363.350847 314.577959 
M 315.695665 323.217359 
L 363.350847 314.577959 
M 315.695665 323.217359 
L 296.739235 293.507052 
M 261.31996 326.539304 
L 296.739235 293.507052 
M 261.31996 326.539304 
L 229.310189 311.794017 
M 217.372188 358.731631 
L 229.310189 311.794017 
M 217.372188 358.731631 
L 182.47195 363.632894 
M 197.805454 409.573497 
L 182.47195 363.632894 
M 197.805454 409.573497 
L 171.095322 432.565196 
M 208.832055 462.92297 
L 171.095322 432.565196 
M 208.832055 462.92297 
L 198.792324 496.705402 
M 246.951126 501.841977 
L 198.792324 496.705402 
M 246.951126 501.841977 
L 256.769325 535.689451 
M 300.060133 513.973996 
L 256.769325 535.689451 
M 300.060133 513.973996 
L 326.619056 537.140192 
M 351.297339 495.46721 
L 326.619056 537.140192 
M 351.297339 495.46721 
L 386.164718 500.597013 
M 384.395295 452.197382 
L 386.164718 500.597013 
M 384.395295 452.197382 
L 416.50098 437.66212 
M 407.996294 368.316895 
L 416.508522 331.699033 
M 407.996294 368.316895 
L 443.459034 411.459268 
M 363.350847 314.577959 
L 416.508522 331.699033 
M 363.350847 314.577959 
L 350.714674 279.170989 
M 296.739235 293.507052 
L 350.714674 279.170989 
M 296.739235 293.507052 
L 266.966562 270.552439 
M 229.310189 311.794017 
L 266.966562 270.552439 
M 229.310189 311.794017 
L 191.853623 308.579692 
M 182.47195 363.632894 
L 191.853623 308.579692 
M 182.47195 363.632894 
L 149.223689 381.17938 
M 171.095322 432.565196 
L 149.223689 381.17938 
M 171.095322 432.565196 
L 152.61146 465.301612 
M 198.792324 496.705402 
L 152.61146 465.301612 
M 198.792324 496.705402 
L 200.941335 534.238155 
M 256.769325 535.689451 
L 200.941335 534.238155 
M 256.769325 535.689451 
L 278.868937 566.102183 
M 326.619056 537.140192 
L 278.868937 566.102183 
M 326.619056 537.140192 
L 361.652791 550.777039 
M 386.164718 500.597013 
L 361.652791 550.777039 
M 386.164718 500.597013 
L 423.009609 493.128405 
M 416.50098 437.66212 
L 423.009609 493.128405 
M 416.50098 437.66212 
L 443.459034 411.459268 
M 416.508522 331.699033 
L 412.9223 291.399402 
M 416.508522 331.699033 
L 462.229733 375.618204 
M 350.714674 279.170989 
L 412.9223 291.399402 
M 350.714674 279.170989 
L 325.910122 247.207641 
M 266.966562 270.552439 
L 325.910122 247.207641 
M 266.966562 270.552439 
L 228.818954 257.073507 
M 191.853623 308.579692 
L 228.818954 257.073507 
M 191.853623 308.579692 
L 152.474564 317.864653 
M 149.223689 381.17938 
L 152.474564 317.864653 
M 149.223689 381.17938 
L 121.115734 410.280317 
M 152.61146 465.301612 
L 121.115734 410.280317 
M 152.61146 465.301612 
L 144.698695 504.979176 
M 200.941335 534.238155 
L 144.698695 504.979176 
M 200.941335 534.238155 
L 215.736012 571.895011 
M 278.868937 566.102183 
L 215.736012 571.895011 
M 278.868937 566.102183 
L 311.673843 589.782532 
M 361.652791 550.777039 
L 311.673843 589.782532 
M 361.652791 550.777039 
L 402.052593 552.962559 
M 423.009609 493.128405 
L 402.052593 552.962559 
M 423.009609 493.128405 
L 458.177673 473.125178 
M 443.459034 411.459268 
L 458.177673 473.125178 
M 443.459034 411.459268 
L 462.229733 375.618204 
M 412.9223 291.399402 
L 396.65581 250.945709 
M 412.9223 291.399402 
L 470.416412 332.792069 
M 325.910122 247.207641 
L 396.65581 250.945709 
M 325.910122 247.207641 
L 290.354965 221.970174 
M 228.818954 257.073507 
L 290.354965 221.970174 
M 228.818954 257.073507 
L 185.263644 255.06496 
M 152.474564 317.864653 
L 185.263644 255.06496 
M 152.474564 317.864653 
L 114.747597 339.722742 
M 121.115734 410.280317 
L 114.747597 339.722742 
M 121.115734 410.280317 
L 101.195174 449.065244 
M 144.698695 504.979176 
L 101.195174 449.065244 
M 144.698695 504.979176 
L 148.909157 548.377011 
M 215.736012 571.895011 
L 148.909157 548.377011 
M 215.736012 571.895011 
L 242.740722 606.12725 
M 311.673843 589.782532 
L 242.740722 606.12725 
M 311.673843 589.782532 
L 352.898987 603.980672 
M 402.052593 552.962559 
L 352.898987 603.980672 
M 402.052593 552.962559 
L 444.409484 542.618799 
M 458.177673 473.125178 
L 444.409484 542.618799 
M 458.177673 473.125178 
L 488.218305 441.523589 
M 462.229733 375.618204 
L 488.218305 441.523589 
M 462.229733 375.618204 
L 470.416412 332.792069 
M 396.65581 250.945709 
L 368.009061 213.846293 
M 396.65581 250.945709 
L 466.374693 286.094457 
M 290.354965 221.970174 
L 368.009061 213.846293 
M 290.354965 221.970174 
L 246.19833 206.247749 
M 185.263644 255.06496 
L 246.19833 206.247749 
M 185.263644 255.06496 
L 139.616545 265.711304 
M 114.747597 339.722742 
L 139.616545 265.711304 
M 114.747597 339.722742 
L 82.102644 373.357697 
M 101.195174 449.065244 
L 82.102644 373.357697 
M 101.195174 449.065244 
L 91.916931 495.009955 
M 148.909157 548.377011 
L 91.916931 495.009955 
M 148.909157 548.377011 
L 165.943399 592.044353 
M 242.740722 606.12725 
L 165.943399 592.044353 
M 242.740722 606.12725 
L 280.679184 633.653152 
M 352.898987 603.980672 
L 280.679184 633.653152 
M 352.898987 603.980672 
L 399.69648 606.625838 
M 444.409484 542.618799 
L 399.69648 606.625838 
M 444.409484 542.618799 
L 485.208149 519.543428 
M 488.218305 441.523589 
L 485.208149 519.543428 
M 488.218305 441.523589 
L 510.064811 400.053941 
M 470.416412 332.792069 
L 510.064811 400.053941 
M 470.416412 332.792069 
L 466.374693 286.094457 
M 368.009061 213.846293 
L 328.125922 183.396822 
M 368.009061 213.846293 
L 449.285086 238.916261 
M 246.19833 206.247749 
L 328.125922 183.396822 
M 246.19833 206.247749 
L 196.184274 202.194473 
M 139.616545 265.711304 
L 196.184274 202.194473 
M 139.616545 265.711304 
L 95.350672 289.341115 
M 82.102644 373.357697 
L 95.350672 289.341115 
M 82.102644 373.357697 
L 57.639087 417.168297 
M 91.916931 495.009955 
L 57.639087 417.168297 
M 91.916931 495.009955 
L 95.022664 545.09179 
M 165.943399 592.044353 
L 95.022664 545.09179 
M 165.943399 592.044353 
L 195.632383 632.496789 
M 280.679184 633.653152 
L 195.632383 632.496789 
M 280.679184 633.653152 
L 327.525384 651.632829 
M 399.69648 606.625838 
L 327.525384 651.632829 
M 399.69648 606.625838 
L 448.826561 596.424341 
M 485.208149 519.543428 
L 448.826561 596.424341 
M 485.208149 519.543428 
L 521.023646 484.399654 
M 510.064811 400.053941 
L 521.023646 484.399654 
M 510.064811 400.053941 
L 521.194578 351.125795 
M 466.374693 286.094457 
L 521.194578 351.125795 
M 466.374693 286.094457 
L 449.285086 238.916261 
M 328.125922 183.396822 
L 278.915914 162.499766 
M 328.125922 183.396822 
L 419.184804 194.731609 
M 196.184274 202.194473 
L 278.915914 162.499766 
M 196.184274 202.194473 
L 143.488374 211.219685 
M 95.350672 289.341115 
L 143.488374 211.219685 
M 95.350672 289.341115 
L 55.899441 325.42316 
M 57.639087 417.168297 
L 55.899441 325.42316 
M 57.639087 417.168297 
L 43.958027 468.851384 
M 95.022664 545.09179 
L 43.958027 468.851384 
M 95.022664 545.09179 
L 111.455415 595.966897 
M 195.632383 632.496789 
L 111.455415 595.966897 
M 195.632383 632.496789 
L 236.961657 666.411441 
M 327.525384 651.632829 
L 236.961657 666.411441 
M 327.525384 651.632829 
L 380.629423 657.81937 
M 448.826561 596.424341 
L 380.629423 657.81937 
M 448.826561 596.424341 
L 496.845209 572.918573 
M 521.023646 484.399654 
L 496.845209 572.918573 
M 521.023646 484.399654 
L 548.711329 438.664494 
M 521.194578 351.125795 
L 548.711329 438.664494 
M 521.194578 351.125795 
L 519.760637 297.681844 
M 449.285086 238.916261 
L 519.760637 297.681844 
M 449.285086 238.916261 
L 419.184804 194.731609 
M 278.915914 162.499766 
L 222.939356 153.505251 
M 278.915914 162.499766 
L 376.957126 156.901713 
M 143.488374 211.219685 
L 222.939356 153.505251 
M 143.488374 211.219685 
L 91.535086 233.916238 
M 55.899441 325.42316 
L 91.535086 233.916238 
M 55.899441 325.42316 
L 24.464242 372.60477 
M 43.958027 468.851384 
L 24.464242 372.60477 
M 43.958027 468.851384 
L 43.02135 525.538235 
M 111.455415 595.966897 
L 43.02135 525.538235 
M 111.455415 595.966897 
L 141.314655 644.161315 
M 236.961657 666.411441 
L 141.314655 644.161315 
M 236.961657 666.411441 
L 288.136722 690.812011 
M 380.629423 657.81937 
L 288.136722 690.812011 
M 380.629423 657.81937 
L 436.87259 650.679095 
M 496.845209 572.918573 
L 436.87259 650.679095 
M 496.845209 572.918573 
L 540.299678 536.504464 
M 548.711329 438.664494 
L 540.299678 536.504464 
M 548.711329 438.664494 
L 565.580587 384.537753 
M 519.760637 297.681844 
L 565.580587 384.537753 
M 519.760637 297.681844 
L 504.688836 243.027321 
M 419.184804 194.731609 
L 504.688836 243.027321 
M 419.184804 194.731609 
L 376.957126 156.901713 
L 376.957126 156.901713 
" style="fill:none;stroke:#eb7a59;stroke-linecap:square;"/>
   </g>
   <g id="line2d_2">
    <path clip-path="url(#p7c07167369)" d="M 10.7 700.93622 
L 577.629134 700.93622 
" style="fill:none;stroke:#000000;stroke-linecap:square;"/>
   </g>
   <g id="line2d_3">
    <path clip-path="url(#p7c07167369)" d="M 10.7 134.007087 
L 577.629134 134.007087 
" style="fill:none;stroke:#000000;stroke-linecap:square;"/>
   </g>
   <g id="patch_3">
    <path d="M 10.7 824.243307 
L 10.7 10.7 
" style="fill:none;stroke:#000000;stroke-linecap:square;stroke-linejoin:miter;stroke-width:0.8;"/>
   </g>
   <g id="patch_4">
    <path d="M 577.629134 824.243307 
L 577.629134 10.7 
" style="fill:none;stroke:#000000;stroke-linecap:square;stroke-linejoin:miter;stroke-width:0.8;"/>
   </g>
   <g id="patch_5">
    <path d="M 10.7 824.243307 
L 577.629134 824.243307 
" style="fill:none;stroke:#000000;stroke-linecap:square;stroke-linejoin:miter;stroke-width:0.8;"/>
   </g>
   <g id="patch_6">
    <path d="M 10.7 10.7 
L 577.629134 10.7 
" style="fill:none;stroke:#000000;stroke-linecap:square;stroke-linejoin:miter;stroke-width:0.8;"/>
   </g>
   <g id="PathCollection_1">
    <defs>
     <path d="M 0 2.236068 
C 0.593012 2.236068 1.161816 2.000462 1.581139 1.581139 
C 2.000462 1.161816 2.236068 0.593012 2.236068 0 
C 2.236068 -0.593012 2.000462 -1.161816 1.581139 -1.581139 
C 1.161816 -2.000462 0.593012 -2.236068 0 -2.236068 
C -0.593012 -2.236068 -1.161816 -2.000462 -1.581139 -1.581139 
C -2.000462 -1.161816 -2.236068 -0.593012 -2.236068 0 
C -2.236068 0.593012 -2.000462 1.161816 -1.581139 1.581139 
C -1.161816 2.000462 -0.593012 2.236068 0 2.236068 
z
" id="m61221cd6ef" style="stroke:#44525c;"/>
    </defs>
    <g clip-path="url(#p7c07167369)">
     <use style="fill:#44525c;stroke:#44525c;" x="361.350782" xlink:href="#m61221cd6ef" y="417.471654"/>
     <use style="fill:#44525c;stroke:#44525c;" x="350.685204" xlink:href="#m61221cd6ef" y="381.148045"/>
     <use style="fill:#44525c;stroke:#44525c;" x="322.07473" xlink:href="#m61221cd6ef" y="356.356926"/>
     <use style="fill:#44525c;stroke:#44525c;" x="284.602972" xlink:href="#m61221cd6ef" y="350.969299"/>
     <use style="fill:#44525c;stroke:#44525c;" x="250.166955" xlink:href="#m61221cd6ef" y="366.695702"/>
     <use style="fill:#44525c;stroke:#44525c;" x="229.699867" xlink:href="#m61221cd6ef" y="398.543109"/>
     <use style="fill:#44525c;stroke:#44525c;" x="229.699867" xlink:href="#m61221cd6ef" y="436.400198"/>
     <use style="fill:#44525c;stroke:#44525c;" x="250.166955" xlink:href="#m61221cd6ef" y="468.247605"/>
     <use style="fill:#44525c;stroke:#44525c;" x="284.602972" xlink:href="#m61221cd6ef" y="483.974008"/>
     <use style="fill:#44525c;stroke:#44525c;" x="322.07473" xlink:href="#m61221cd6ef" y="478.586382"/>
     <use style="fill:#44525c;stroke:#44525c;" x="350.685204" xlink:href="#m61221cd6ef" y="453.795262"/>
     <use style="fill:#44525c;stroke:#44525c;" x="388.845629" xlink:href="#m61221cd6ef" y="397.90238"/>
     <use style="fill:#44525c;stroke:#44525c;" x="363.235401" xlink:href="#m61221cd6ef" y="349.820486"/>
     <use style="fill:#44525c;stroke:#44525c;" x="315.695665" xlink:href="#m61221cd6ef" y="323.217359"/>
     <use style="fill:#44525c;stroke:#44525c;" x="261.31996" xlink:href="#m61221cd6ef" y="326.539304"/>
     <use style="fill:#44525c;stroke:#44525c;" x="217.372188" xlink:href="#m61221cd6ef" y="358.731631"/>
     <use style="fill:#44525c;stroke:#44525c;" x="197.805454" xlink:href="#m61221cd6ef" y="409.573497"/>
     <use style="fill:#44525c;stroke:#44525c;" x="208.832055" xlink:href="#m61221cd6ef" y="462.92297"/>
     <use style="fill:#44525c;stroke:#44525c;" x="246.951126" xlink:href="#m61221cd6ef" y="501.841977"/>
     <use style="fill:#44525c;stroke:#44525c;" x="300.060133" xlink:href="#m61221cd6ef" y="513.973996"/>
     <use style="fill:#44525c;stroke:#44525c;" x="351.297339" xlink:href="#m61221cd6ef" y="495.46721"/>
     <use style="fill:#44525c;stroke:#44525c;" x="384.395295" xlink:href="#m61221cd6ef" y="452.197382"/>
     <use style="fill:#44525c;stroke:#44525c;" x="407.996294" xlink:href="#m61221cd6ef" y="368.316895"/>
     <use style="fill:#44525c;stroke:#44525c;" x="363.350847" xlink:href="#m61221cd6ef" y="314.577959"/>
     <use style="fill:#44525c;stroke:#44525c;" x="296.739235" xlink:href="#m61221cd6ef" y="293.507052"/>
     <use style="fill:#44525c;stroke:#44525c;" x="229.310189" xlink:href="#m61221cd6ef" y="311.794017"/>
     <use style="fill:#44525c;stroke:#44525c;" x="182.47195" xlink:href="#m61221cd6ef" y="363.632894"/>
     <use style="fill:#44525c;stroke:#44525c;" x="171.095322" xlink:href="#m61221cd6ef" y="432.565196"/>
     <use style="fill:#44525c;stroke:#44525c;" x="198.792324" xlink:href="#m61221cd6ef" y="496.705402"/>
     <use style="fill:#44525c;stroke:#44525c;" x="256.769325" xlink:href="#m61221cd6ef" y="535.689451"/>
     <use style="fill:#44525c;stroke:#44525c;" x="326.619056" xlink:href="#m61221cd6ef" y="537.140192"/>
     <use style="fill:#44525c;stroke:#44525c;" x="386.164718" xlink:href="#m61221cd6ef" y="500.597013"/>
     <use style="fill:#44525c;stroke:#44525c;" x="416.50098" xlink:href="#m61221cd6ef" y="437.66212"/>
     <use style="fill:#44525c;stroke:#44525c;" x="416.508522" xlink:href="#m61221cd6ef" y="331.699033"/>
     <use style="fill:#44525c;stroke:#44525c;" x="350.714674" xlink:href="#m61221cd6ef" y="279.170989"/>
     <use style="fill:#44525c;stroke:#44525c;" x="266.966562" xlink:href="#m61221cd6ef" y="270.552439"/>
     <use style="fill:#44525c;stroke:#44525c;" x="191.853623" xlink:href="#m61221cd6ef" y="308.579692"/>
     <use style="fill:#44525c;stroke:#44525c;" x="149.223689" xlink:href="#m61221cd6ef" y="381.17938"/>
     <use style="fill:#44525c;stroke:#44525c;" x="152.61146" xlink:href="#m61221cd6ef" y="465.301612"/>
     <use style="fill:#44525c;stroke:#44525c;" x="200.941335" xlink:href="#m61221cd6ef" y="534.238155"/>
     <use style="fill:#44525c;stroke:#44525c;" x="278.868937" xlink:href="#m61221cd6ef" y="566.102183"/>
     <use style="fill:#44525c;stroke:#44525c;" x="361.652791" xlink:href="#m61221cd6ef" y="550.777039"/>
     <use style="fill:#44525c;stroke:#44525c;" x="423.009609" xlink:href="#m61221cd6ef" y="493.128405"/>
     <use style="fill:#44525c;stroke:#44525c;" x="443.459034" xlink:href="#m61221cd6ef" y="411.459268"/>
     <use style="fill:#44525c;stroke:#44525c;" x="412.9223" xlink:href="#m61221cd6ef" y="291.399402"/>
     <use style="fill:#44525c;stroke:#44525c;" x="325.910122" xlink:href="#m61221cd6ef" y="247.207641"/>
     <use style="fill:#44525c;stroke:#44525c;" x="228.818954" xlink:href="#m61221cd6ef" y="257.073507"/>
     <use style="fill:#44525c;stroke:#44525c;" x="152.474564" xlink:href="#m61221cd6ef" y="317.864653"/>
     <use style="fill:#44525c;stroke:#44525c;" x="121.115734" xlink:href="#m61221cd6ef" y="410.280317"/>
     <use style="fill:#44525c;stroke:#44525c;" x="144.698695" xlink:href="#m61221cd6ef" y="504.979176"/>
     <use style="fill:#44525c;stroke:#44525c;" x="215.736012" xlink:href="#m61221cd6ef" y="571.895011"/>
     <use style="fill:#44525c;stroke:#44525c;" x="311.673843" xlink:href="#m61221cd6ef" y="589.782532"/>
     <use style="fill:#44525c;stroke:#44525c;" x="402.052593" xlink:href="#m61221cd6ef" y="552.962559"/>
     <use style="fill:#44525c;stroke:#44525c;" x="458.177673" xlink:href="#m61221cd6ef" y="473.125178"/>
     <use style="fill:#44525c;stroke:#44525c;" x="462.229733" xlink:href="#m61221cd6ef" y="375.618204"/>
     <use style="fill:#44525c;stroke:#44525c;" x="396.65581" xlink:href="#m61221cd6ef" y="250.945709"/>
     <use style="fill:#44525c;stroke:#44525c;" x="290.354965" xlink:href="#m61221cd6ef" y="221.970174"/>
     <use style="fill:#44525c;stroke:#44525c;" x="185.263644" xlink:href="#m61221cd6ef" y="255.06496"/>
     <use style="fill:#44525c;stroke:#44525c;" x="114.747597" xlink:href="#m61221cd6ef" y="339.722742"/>
     <use style="fill:#44525c;stroke:#44525c;" x="101.195174" xlink:href="#m61221cd6ef" y="449.065244"/>
     <use style="fill:#44525c;stroke:#44525c;" x="148.909157" xlink:href="#m61221cd6ef" y="548.377011"/>
     <use style="fill:#44525c;stroke:#44525c;" x="242.740722" xlink:href="#m61221cd6ef" y="606.12725"/>
     <use style="fill:#44525c;stroke:#44525c;" x="352.898987" xlink:href="#m61221cd6ef" y="603.980672"/>
     <use style="fill:#44525c;stroke:#44525c;" x="444.409484" xlink:href="#m61221cd6ef" y="542.618799"/>
     <use style="fill:#44525c;stroke:#44525c;" x="488.218305" xlink:href="#m61221cd6ef" y="441.523589"/>
     <use style="fill:#44525c;stroke:#44525c;" x="470.416412" xlink:href="#m61221cd6ef" y="332.792069"/>
     <use style="fill:#44525c;stroke:#44525c;" x="368.009061" xlink:href="#m61221cd6ef" y="213.846293"/>
     <use style="fill:#44525c;stroke:#44525c;" x="246.19833" xlink:href="#m61221cd6ef" y="206.247749"/>
     <use style="fill:#44525c;stroke:#44525c;" x="139.616545" xlink:href="#m61221cd6ef" y="265.711304"/>
     <use style="fill:#44525c;stroke:#44525c;" x="82.102644" xlink:href="#m61221cd6ef" y="373.357697"/>
     <use style="fill:#44525c;stroke:#44525c;" x="91.916931" xlink:href="#m61221cd6ef" y="495.009955"/>
     <use style="fill:#44525c;stroke:#44525c;" x="165.943399" xlink:href="#m61221cd6ef" y="592.044353"/>
     <use style="fill:#44525c;stroke:#44525c;" x="280.679184" xlink:href="#m61221cd6ef" y="633.653152"/>
     <use style="fill:#44525c;stroke:#44525c;" x="399.69648" xlink:href="#m61221cd6ef" y="606.625838"/>
     <use style="fill:#44525c;stroke:#44525c;" x="485.208149" xlink:href="#m61221cd6ef" y="519.543428"/>
     <use style="fill:#44525c;stroke:#44525c;" x="510.064811" xlink:href="#m61221cd6ef" y="400.053941"/>
     <use style="fill:#44525c;stroke:#44525c;" x="466.374693" xlink:href="#m61221cd6ef" y="286.094457"/>
     <use style="fill:#44525c;stroke:#44525c;" x="328.125922" xlink:href="#m61221cd6ef" y="183.396822"/>
     <use style="fill:#44525c;stroke:#44525c;" x="196.184274" xlink:href="#m61221cd6ef" y="202.194473"/>
     <use style="fill:#44525c;stroke:#44525c;" x="95.350672" xlink:href="#m61221cd6ef" y="289.341115"/>
     <use style="fill:#44525c;stroke:#44525c;" x="57.639087" xlink:href="#m61221cd6ef" y="417.168297"/>
     <use style="fill:#44525c;stroke:#44525c;" x="95.022664" xlink:href="#m61221cd6ef" y="545.09179"/>
     <use style="fill:#44525c;stroke:#44525c;" x="195.632383" xlink:href="#m61221cd6ef" y="632.496789"/>
     <use style="fill:#44525c;stroke:#44525c;" x="327.525384" xlink:href="#m61221cd6ef" y="651.632829"/>
     <use style="fill:#44525c;stroke:#44525c;" x="448.826561" xlink:href="#m61221cd6ef" y="596.424341"/>
     <use style="fill:#44525c;stroke:#44525c;" x="521.023646" xlink:href="#m61221cd6ef" y="484.399654"/>
     <use style="fill:#44525c;stroke:#44525c;" x="521.194578" xlink:href="#m61221cd6ef" y="351.125795"/>
     <use style="fill:#44525c;stroke:#44525c;" x="449.285086" xlink:href="#m61221cd6ef" y="238.916261"/>
     <use style="fill:#44525c;stroke:#44525c;" x="278.915914" xlink:href="#m61221cd6ef" y="162.499766"/>
     <use style="fill:#44525c;stroke:#44525c;" x="143.488374" xlink:href="#m61221cd6ef" y="211.219685"/>
     <use style="fill:#44525c;stroke:#44525c;" x="55.899441" xlink:href="#m61221cd6ef" y="325.42316"/>
     <use style="fill:#44525c;stroke:#44525c;" x="43.958027" xlink:href="#m61221cd6ef" y="468.851384"/>
     <use style="fill:#44525c;stroke:#44525c;" x="111.455415" xlink:href="#m61221cd6ef" y="595.966897"/>
     <use style="fill:#44525c;stroke:#44525c;" x="236.961657" xlink:href="#m61221cd6ef" y="666.411441"/>
     <use style="fill:#44525c;stroke:#44525c;" x="380.629423" xlink:href="#m61221cd6ef" y="657.81937"/>
     <use style="fill:#44525c;stroke:#44525c;" x="496.845209" xlink:href="#m61221cd6ef" y="572.918573"/>
     <use style="fill:#44525c;stroke:#44525c;" x="548.711329" xlink:href="#m61221cd6ef" y="438.664494"/>
     <use style="fill:#44525c;stroke:#44525c;" x="519.760637" xlink:href="#m61221cd6ef" y="297.681844"/>
     <use style="fill:#44525c;stroke:#44525c;" x="419.184804" xlink:href="#m61221cd6ef" y="194.731609"/>
     <use style="fill:#44525c;stroke:#44525c;" x="222.939356" xlink:href="#m61221cd6ef" y="153.505251"/>
     <use style="fill:#44525c;stroke:#44525c;" x="91.535086" xlink:href="#m61221cd6ef" y="233.916238"/>
     <use style="fill:#44525c;stroke:#44525c;" x="24.464242" xlink:href="#m61221cd6ef" y="372.60477"/>
     <use style="fill:#44525c;stroke:#44525c;" x="43.02135" xlink:href="#m61221cd6ef" y="525.538235"/>
     <use style="fill:#44525c;stroke:#44525c;" x="141.314655" xlink:href="#m61221cd6ef" y="644.161315"/>
     <use style="fill:#44525c;stroke:#44525c;" x="288.136722" xlink:href="#m61221cd6ef" y="690.812011"/>
     <use style="fill:#44525c;stroke:#44525c;" x="436.87259" xlink:href="#m61221cd6ef" y="650.679095"/>
     <use style="fill:#44525c;stroke:#44525c;" x="540.299678" xlink:href="#m61221cd6ef" y="536.504464"/>
     <use style="fill:#44525c;stroke:#44525c;" x="565.580587" xlink:href="#m61221cd6ef" y="384.537753"/>
     <use style="fill:#44525c;stroke:#44525c;" x="504.688836" xlink:href="#m61221cd6ef" y="243.027321"/>
     <use style="fill:#44525c;stroke:#44525c;" x="376.957126" xlink:href="#m61221cd6ef" y="156.901713"/>
    </g>
   </g>
  </g>
 </g>
 <defs>
  <clipPath id="p7c07167369">
   <rect height="813.543307" width="566.929134" x="10.7" y="10.7"/>
  </clipPath>
 </defs>
</svg>
