<?xml version="1.0" encoding="utf-8" standalone="no"?>
<!DOCTYPE svg PUBLIC "-//W3C//DTD SVG 1.1//EN"
  "http://www.w3.org/Graphics/SVG/1.1/DTD/svg11.dtd">
<!-- Created with matplotlib (https://matplotlib.org/) -->
<svg height="778.250394pt" version="1.1" viewBox="0 0 531.63622 778.250394" width="531.63622pt" xmlns="http://www.w3.org/2000/svg" xmlns:xlink="http://www.w3.org/1999/xlink">
 <defs>
  <style type="text/css">
*{stroke-linecap:butt;stroke-linejoin:round;}
  </style>
 </defs>
 <g id="figure_1">
  <g id="patch_1">
   <path d="M 0 778.250394 
L 531.63622 778.250394 
L 531.63622 0 
L 0 0 
z
" style="fill:none;"/>
  </g>
  <g id="axes_1">
   <g id="patch_2">
    <path d="M 10.7 767.550394 
L 520.93622 767.550394 
L 520.93622 10.7 
L 10.7 10.7 
z
" style="fill:none;"/>
   </g>
   <g id="matplotlib.axis_1"/>
   <g id="matplotlib.axis_2"/>
   <g id="line2d_1">
    <path clip-path="url(#p7f0334da14)" d="M 389.125197 767.550394 
L 389.125197 10.7 
" style="fill:none;stroke:#000000;stroke-linecap:square;"/>
   </g>
   <g id="line2d_2">
    <path clip-path="url(#p7f0334da14)" d="M 82.616386 380.121084 
L 103.019611 365.63975 
M 82.616386 380.121084 
L 105.484555 398.631261 
M 75.19971 356.067245 
L 103.019611 365.63975 
M 75.19971 356.067245 
L 89.419559 335.48093 
M 60.003415 336.000686 
L 89.419559 335.48093 
M 60.003415 336.000686 
L 66.324768 311.7924 
M 38.860401 322.341725 
L 66.324768 311.7924 
M 38.860401 322.341725 
L 36.520809 297.431345 
M 14.320828 316.737836 
L 36.520809 297.431345 
M 14.320828 316.737836 
L 3.602481 294.129921 
M -1 302.43721 
L 3.602481 294.129921 
M 7.079172 461.512557 
L -1 468.53871 
M 7.079172 461.512557 
L 17.797519 484.120472 
M 32.055469 458.385458 
L 17.797519 484.120472 
M 32.055469 458.385458 
L 49.859784 475.964059 
M 54.455983 446.904554 
L 49.859784 475.964059 
M 54.455983 446.904554 
L 77.198796 457.333598 
M 71.578879 428.454606 
L 77.198796 457.333598 
M 71.578879 428.454606 
L 96.51708 430.476201 
M 81.358884 405.260949 
L 96.51708 430.476201 
M 81.358884 405.260949 
L 105.484555 398.631261 
M 103.019611 365.63975 
L 119.690195 346.391939 
M 103.019611 365.63975 
L 127.732919 386.245914 
M 89.419559 335.48093 
L 119.690195 346.391939 
M 89.419559 335.48093 
L 98.501652 311.692229 
M 66.324768 311.7924 
L 98.501652 311.692229 
M 66.324768 311.7924 
L 66.722928 286.332071 
M 36.520809 297.431345 
L 66.722928 286.332071 
M 36.520809 297.431345 
L 28.187014 273.370285 
M 3.602481 294.129921 
L 28.187014 273.370285 
M 3.602481 294.129921 
L -1 288.467391 
M 17.797519 484.120472 
L -1 499.993447 
M 17.797519 484.120472 
L 33.858093 503.88014 
M 49.859784 475.964059 
L 33.858093 503.88014 
M 49.859784 475.964059 
L 71.709991 489.03904 
M 77.198796 457.333598 
L 71.709991 489.03904 
M 77.198796 457.333598 
L 102.203181 462.146847 
M 96.51708 430.476201 
L 102.203181 462.146847 
M 96.51708 430.476201 
L 121.659743 426.447171 
M 105.484555 398.631261 
L 121.659743 426.447171 
M 105.484555 398.631261 
L 127.732919 386.245914 
M 119.690195 346.391939 
L 131.908822 323.188758 
M 119.690195 346.391939 
L 147.150621 368.621071 
M 98.501652 311.692229 
L 131.908822 323.188758 
M 98.501652 311.692229 
L 102.047447 285.709353 
M 66.722928 286.332071 
L 102.047447 285.709353 
M 66.722928 286.332071 
L 61.168219 260.703432 
M 28.187014 273.370285 
L 61.168219 260.703432 
M 28.187014 273.370285 
L 14.201781 251.187057 
M -1 264.406395 
L 14.201781 251.187057 
M -1 514.059408 
L 7.198219 527.063336 
M 33.858093 503.88014 
L 7.198219 527.063336 
M 33.858093 503.88014 
L 54.587026 519.942322 
M 71.709991 489.03904 
L 54.587026 519.942322 
M 71.709991 489.03904 
L 96.682409 497.042843 
M 102.203181 462.146847 
L 96.682409 497.042843 
M 102.203181 462.146847 
L 128.407041 461.126897 
M 121.659743 426.447171 
L 128.407041 461.126897 
M 121.659743 426.447171 
L 145.934473 416.526484 
M 127.732919 386.245914 
L 145.934473 416.526484 
M 127.732919 386.245914 
L 147.150621 368.621071 
M 131.908822 323.188758 
L 139.097298 296.922826 
M 131.908822 323.188758 
L 162.889063 346.397767 
M 102.047447 285.709353 
L 139.097298 296.922826 
M 102.047447 285.709353 
L 99.818921 258.568843 
M 61.168219 260.703432 
L 99.818921 258.568843 
M 61.168219 260.703432 
L 49.791489 235.961901 
M 14.201781 251.187057 
L 49.791489 235.961901 
M 14.201781 251.187057 
L -1 235.822066 
M 7.198219 527.063336 
L -1 530.570507 
M 7.198219 527.063336 
L 26.35095 546.421696 
M 54.587026 519.942322 
L 26.35095 546.421696 
M 54.587026 519.942322 
L 79.205652 531.582626 
M 96.682409 497.042843 
L 79.205652 531.582626 
M 96.682409 497.042843 
L 123.797563 499.56107 
M 128.407041 461.126897 
L 123.797563 499.56107 
M 128.407041 461.126897 
L 154.748244 454.219325 
M 145.934473 416.526484 
L 154.748244 454.219325 
M 145.934473 416.526484 
L 168.324574 401.02627 
M 147.150621 368.621071 
L 168.324574 401.02627 
M 147.150621 368.621071 
L 162.889063 346.397767 
M 139.097298 296.922826 
L 140.826383 268.54814 
M 139.097298 296.922826 
L 174.218582 320.325669 
M 99.818921 258.568843 
L 140.826383 268.54814 
M 99.818921 258.568843 
L 91.739018 231.313982 
M 49.791489 235.961901 
L 91.739018 231.313982 
M 49.791489 235.961901 
L 32.877155 213.114184 
M -1 229.874063 
L 32.877155 213.114184 
M 26.35095 546.421696 
L -1 559.952898 
M 26.35095 546.421696 
L 50.059601 562.106476 
M 79.205652 531.582626 
L 50.059601 562.106476 
M 79.205652 531.582626 
L 106.84901 538.212662 
M 123.797563 499.56107 
L 106.84901 538.212662 
M 123.797563 499.56107 
L 152.041429 496.336682 
M 154.748244 454.219325 
L 152.041429 496.336682 
M 154.748244 454.219325 
L 180.185991 441.529423 
M 168.324574 401.02627 
L 180.185991 441.529423 
M 168.324574 401.02627 
L 187.888035 380.401439 
M 162.889063 346.397767 
L 187.888035 380.401439 
M 162.889063 346.397767 
L 174.218582 320.325669 
M 140.826383 268.54814 
L 136.821056 239.058999 
M 140.826383 268.54814 
L 180.540692 291.245042 
M 91.739018 231.313982 
L 136.821056 239.058999 
M 91.739018 231.313982 
L 77.889364 204.973167 
M 32.877155 213.114184 
L 77.889364 204.973167 
M 32.877155 213.114184 
L 10.853642 193.098779 
M -1 200.012127 
L 10.853642 193.098779 
M -1 574.658056 
L 10.546358 585.151615 
M 50.059601 562.106476 
L 10.546358 585.151615 
M 50.059601 562.106476 
L 77.600613 573.382332 
M 106.84901 538.212662 
L 77.600613 573.382332 
M 106.84901 538.212662 
L 136.585663 539.388909 
M 152.041429 496.336682 
L 136.585663 539.388909 
M 152.041429 496.336682 
L 180.387048 487.271468 
M 180.185991 441.529423 
L 180.387048 487.271468 
M 180.185991 441.529423 
L 203.721668 423.316138 
M 187.888035 380.401439 
L 203.721668 423.316138 
M 187.888035 380.401439 
L 203.775027 355.236875 
M 174.218582 320.325669 
L 203.775027 355.236875 
M 174.218582 320.325669 
L 180.540692 291.245042 
M 136.821056 239.058999 
L 126.962838 209.468416 
M 136.821056 239.058999 
L 181.397563 260.067279 
M 77.889364 204.973167 
L 126.962838 209.468416 
M 77.889364 204.973167 
L 58.505096 180.538817 
M 10.853642 193.098779 
L 58.505096 180.538817 
M 10.853642 193.098779 
L -1 185.813691 
M 10.546358 585.151615 
L -1 588.195002 
M 10.546358 585.151615 
L 37.118648 601.482583 
M 77.600613 573.382332 
L 37.118648 601.482583 
M 77.600613 573.382332 
L 108.155916 579.640165 
M 136.585663 539.388909 
L 108.155916 579.640165 
M 136.585663 539.388909 
L 167.438553 534.818815 
M 180.387048 487.271468 
L 167.438553 534.818815 
M 180.387048 487.271468 
L 207.816218 472.424673 
M 203.721668 423.316138 
L 207.816218 472.424673 
M 203.721668 423.316138 
L 224.418754 399.983381 
M 203.775027 355.236875 
L 224.418754 399.983381 
M 203.775027 355.236875 
L 215.243653 326.232432 
M 180.540692 291.245042 
L 215.243653 326.232432 
M 180.540692 291.245042 
L 181.397563 260.067279 
M 126.962838 209.468416 
L 111.289455 180.786359 
M 126.962838 209.468416 
L 176.479246 227.754357 
M 58.505096 180.538817 
L 111.289455 180.786359 
M 58.505096 180.538817 
L 33.967093 158.947104 
M -1 171.488696 
L 33.967093 158.947104 
M 37.118648 601.482583 
L -1 615.154539 
M 37.118648 601.482583 
L 67.561627 613.379659 
M 108.155916 579.640165 
L 67.561627 613.379659 
M 108.155916 579.640165 
L 140.831994 580.407638 
M 167.438553 534.818815 
L 140.831994 580.407638 
M 167.438553 534.818815 
L 198.40653 524.36414 
M 207.816218 472.424673 
L 198.40653 524.36414 
M 207.816218 472.424673 
L 233.340869 452.008815 
M 224.418754 399.983381 
L 233.340869 452.008815 
M 224.418754 399.983381 
L 241.421457 372.068805 
M 215.243653 326.232432 
L 241.421457 372.068805 
M 215.243653 326.232432 
L 221.67362 294.186048 
M 181.397563 260.067279 
L 221.67362 294.186048 
M 181.397563 260.067279 
L 176.479246 227.754357 
M 111.289455 180.786359 
L 89.991526 153.998314 
M 111.289455 180.786359 
L 165.627796 195.297492 
M 33.967093 158.947104 
L 89.991526 153.998314 
M 33.967093 158.947104 
L 4.791535 141.058897 
M -1 143.765443 
L 4.791535 141.058897 
M -1 626.395341 
L 16.608465 637.191497 
M 67.561627 613.379659 
L 16.608465 637.191497 
M 67.561627 613.379659 
L 101.095811 620.210447 
M 140.831994 580.407638 
L 101.095811 620.210447 
M 140.831994 580.407638 
L 174.680091 575.357119 
M 198.40653 524.36414 
L 174.680091 575.357119 
M 198.40653 524.36414 
L 228.485948 508.041467 
M 233.340869 452.008815 
L 228.485948 508.041467 
M 233.340869 452.008815 
L 256.023614 426.382754 
M 241.421457 372.068805 
L 256.023614 426.382754 
M 241.421457 372.068805 
L 253.971625 340.230233 
M 221.67362 294.186048 
L 253.971625 340.230233 
M 221.67362 294.186048 
L 222.577478 259.97516 
M 176.479246 227.754357 
L 222.577478 259.97516 
M 176.479246 227.754357 
L 165.627796 195.297492 
M 89.991526 153.998314 
L 63.406518 130.044466 
M 89.991526 153.998314 
L 148.838755 163.695643 
M 4.791535 141.058897 
L 63.406518 130.044466 
M 4.791535 141.058897 
L -1 138.716647 
M 16.608465 637.191497 
L -1 640.50033 
M 16.608465 637.191497 
L 49.782897 650.608116 
M 101.095811 620.210447 
L 49.782897 650.608116 
M 101.095811 620.210447 
L 136.858341 621.471636 
M 174.680091 575.357119 
L 136.858341 621.471636 
M 174.680091 575.357119 
L 208.717217 564.31074 
M 228.485948 508.041467 
L 208.717217 564.31074 
M 228.485948 508.041467 
L 256.692308 486.019882 
M 256.023614 426.382754 
L 256.692308 486.019882 
M 256.023614 426.382754 
L 274.997104 396.042091 
M 253.971625 340.230233 
L 274.997104 396.042091 
M 253.971625 340.230233 
L 261.423739 305.230024 
M 222.577478 259.97516 
L 261.423739 305.230024 
M 222.577478 259.97516 
L 217.609407 224.536948 
M 165.627796 195.297492 
L 217.609407 224.536948 
M 165.627796 195.297492 
L 148.838755 163.695643 
M 63.406518 130.044466 
L 32.009982 109.800024 
M 63.406518 130.044466 
L 126.259664 133.933853 
M -1 119.552374 
L 32.009982 109.800024 
M 49.782897 650.608116 
L -1 665.611231 
M 49.782897 650.608116 
L 86.210004 658.89344 
M 136.858341 621.471636 
L 86.210004 658.89344 
M 136.858341 621.471636 
L 173.922365 616.79849 
M 208.717217 564.31074 
L 173.922365 616.79849 
M 208.717217 564.31074 
L 241.947699 547.242772 
M 256.692308 486.019882 
L 241.947699 547.242772 
M 256.692308 486.019882 
L 282.081167 458.615741 
M 274.997104 396.042091 
L 282.081167 458.615741 
M 274.997104 396.042091 
L 289.482037 361.607126 
M 261.423739 305.230024 
L 289.482037 361.607126 
M 261.423739 305.230024 
L 263.257686 267.917599 
M 217.609407 224.536948 
L 263.257686 267.917599 
M 217.609407 224.536948 
L 206.571148 188.847498 
M 148.838755 163.695643 
L 206.571148 188.847498 
M 148.838755 163.695643 
L 126.259664 133.933853 
M 32.009982 109.800024 
L -1 95.204458 
M 32.009982 109.800024 
L 98.185773 106.962148 
M -1 672.699482 
L 24.995715 684.193647 
M 86.210004 658.89344 
L 24.995715 684.193647 
M 86.210004 658.89344 
L 125.052928 661.509397 
M 173.922365 616.79849 
L 125.052928 661.509397 
M 173.922365 616.79849 
L 211.317497 605.971628 
M 241.947699 547.242772 
L 211.317497 605.971628 
M 241.947699 547.242772 
L 273.384636 524.27897 
M 282.081167 458.615741 
L 273.384636 524.27897 
M 282.081167 458.615741 
L 303.768102 426.284765 
M 289.482037 361.607126 
L 303.768102 426.284765 
M 289.482037 361.607126 
L 298.80327 323.808571 
M 263.257686 267.917599 
L 298.80327 323.808571 
M 263.257686 267.917599 
L 259.088915 229.21052 
M 206.571148 188.847498 
L 259.088915 229.21052 
M 206.571148 188.847498 
L 189.415181 153.900554 
M 126.259664 133.933853 
L 189.415181 153.900554 
M 126.259664 133.933853 
L 98.185773 106.962148 
M -1 93.66421 
L 65.052885 83.675366 
M 24.995715 684.193647 
L -1 688.124848 
M 24.995715 684.193647 
L 64.094995 694.743938 
M 125.052928 661.509397 
L 64.094995 694.743938 
M 125.052928 661.509397 
L 165.402652 658.050711 
M 211.317497 605.971628 
L 165.402652 658.050711 
M 211.317497 605.971628 
L 248.050884 588.921101 
M 273.384636 524.27897 
L 248.050884 588.921101 
M 273.384636 524.27897 
L 302.071087 495.693147 
M 303.768102 426.284765 
L 302.071087 495.693147 
M 303.768102 426.284765 
L 320.947668 389.611531 
M 298.80327 323.808571 
L 320.947668 389.611531 
M 298.80327 323.808571 
L 302.403769 283.471255 
M 259.088915 229.21052 
L 302.403769 283.471255 
M 259.088915 229.21052 
L 248.676103 190.074397 
M 189.415181 153.900554 
L 248.676103 190.074397 
M 189.415181 153.900554 
L 166.245001 120.686008 
M 98.185773 106.962148 
L 166.245001 120.686008 
M 98.185773 106.962148 
L 65.052885 83.675366 
M -1 72.439459 
L 27.427668 64.893976 
M 64.094995 694.743938 
L -1 712.021937 
M 64.094995 694.743938 
L 105.874747 699.524076 
M 165.402652 658.050711 
L 105.874747 699.524076 
M 165.402652 658.050711 
L 206.297679 648.253067 
M 248.050884 588.921101 
L 206.297679 648.253067 
M 248.050884 588.921101 
L 283.128633 565.727397 
M 302.071087 495.693147 
L 283.128633 565.727397 
M 302.071087 495.693147 
L 327.100685 461.900894 
M 320.947668 389.611531 
L 327.100685 461.900894 
M 320.947668 389.611531 
L 332.910162 349.296571 
M 302.403769 283.471255 
L 332.910162 349.296571 
M 302.403769 283.471255 
L 299.856301 241.496161 
M 248.676103 190.074397 
L 299.856301 241.496161 
M 248.676103 190.074397 
L 231.92596 151.502 
M 166.245001 120.686008 
L 231.92596 151.502 
M 166.245001 120.686008 
L 137.312475 90.168698 
M 65.052885 83.675366 
L 137.312475 90.168698 
M 65.052885 83.675366 
L 27.427668 64.893976 
M -1 715.000349 
L 35.404557 726.903795 
M 105.874747 699.524076 
L 35.404557 726.903795 
M 105.874747 699.524076 
L 149.441773 698.083773 
M 206.297679 648.253067 
L 149.441773 698.083773 
M 206.297679 648.253067 
L 246.744685 631.998829 
M 283.128633 565.727397 
L 246.744685 631.998829 
M 283.128633 565.727397 
L 315.577104 536.619719 
M 327.100685 461.900894 
L 315.577104 536.619719 
M 327.100685 461.900894 
L 347.636873 423.450595 
M 332.910162 349.296571 
L 347.636873 423.450595 
M 332.910162 349.296571 
L 339.057065 306.141318 
M 299.856301 241.496161 
L 339.057065 306.141318 
M 299.856301 241.496161 
L 290.872555 198.841135 
M 231.92596 151.502 
L 290.872555 198.841135 
M 231.92596 151.502 
L 208.8951 114.491996 
M 137.312475 90.168698 
L 208.8951 114.491996 
M 137.312475 90.168698 
L 103.012388 63.267701 
M 27.427668 64.893976 
L 103.012388 63.267701 
M 27.427668 64.893976 
L -1 55.598787 
M 35.404557 726.903795 
L -1 731.816677 
M 35.404557 726.903795 
L 79.854236 734.596046 
M 149.441773 698.083773 
L 79.854236 734.596046 
M 149.441773 698.083773 
L 193.841713 690.109446 
M 246.744685 631.998829 
L 193.841713 690.109446 
M 246.744685 631.998829 
L 285.739602 609.319734 
M 315.577104 536.619719 
L 285.739602 609.319734 
M 315.577104 536.619719 
L 344.463638 501.971295 
M 347.636873 423.450595 
L 344.463638 501.971295 
M 347.636873 423.450595 
L 362.930868 381.011955 
M 339.057065 306.141318 
L 362.930868 381.011955 
M 339.057065 306.141318 
L 338.913853 261.031187 
M 290.872555 198.841135 
L 338.913853 261.031187 
M 290.872555 198.841135 
L 275.30941 156.500453 
M 208.8951 114.491996 
L 275.30941 156.500453 
M 208.8951 114.491996 
L 179.78917 80.027697 
M 103.012388 63.267701 
L 179.78917 80.027697 
M 103.012388 63.267701 
L 63.874266 40.836665 
M -1 49.591602 
L 63.874266 40.836665 
L 63.874266 40.836665 
" style="fill:none;stroke:#eb7a59;stroke-linecap:square;"/>
   </g>
   <g id="line2d_3">
    <path clip-path="url(#p7f0334da14)" d="M 59.330707 389.125197 
L 82.616386 380.121084 
M 59.330707 389.125197 
L 81.358884 405.260949 
M 56.397916 372.492517 
L 82.616386 380.121084 
M 56.397916 372.492517 
L 75.19971 356.067245 
M 47.95328 357.865982 
L 75.19971 356.067245 
M 47.95328 357.865982 
L 60.003415 336.000686 
M 35.015353 347.009772 
L 60.003415 336.000686 
M 35.015353 347.009772 
L 38.860401 322.341725 
M 19.144633 341.2333 
L 38.860401 322.341725 
M 19.144633 341.2333 
L 14.320828 316.737836 
M 2.255367 341.2333 
L 14.320828 316.737836 
M 2.255367 341.2333 
L -1 335.845433 
M 2.255367 437.017094 
L -1 440.136374 
M 2.255367 437.017094 
L 7.079172 461.512557 
M 19.144633 437.017094 
L 7.079172 461.512557 
M 19.144633 437.017094 
L 32.055469 458.385458 
M 35.015353 431.240622 
L 32.055469 458.385458 
M 35.015353 431.240622 
L 54.455983 446.904554 
M 47.95328 420.384412 
L 54.455983 446.904554 
M 47.95328 420.384412 
L 71.578879 428.454606 
M 56.397916 405.757877 
L 71.578879 428.454606 
M 56.397916 405.757877 
L 81.358884 405.260949 
" style="fill:none;stroke:#00bac9;stroke-linecap:square;"/>
   </g>
   <g id="line2d_4">
    <path clip-path="url(#p7f0334da14)" d="M -1 753.871434 
L 0.848406 754.604913 
M 79.854236 734.596046 
L 0.848406 754.604913 
M 79.854236 734.596046 
L 126.443948 735.933221 
M 193.841713 690.109446 
L 126.443948 735.933221 
M 193.841713 690.109446 
L 238.079068 675.431364 
M 285.739602 609.319734 
L 238.079068 675.431364 
M 285.739602 609.319734 
L 322.288918 580.396781 
M 344.463638 501.971295 
L 322.288918 580.396781 
M 344.463638 501.971295 
L 368.916524 462.292006 
M 362.930868 381.011955 
L 368.916524 462.292006 
M 362.930868 381.011955 
L 372.337955 335.362237 
M 338.913853 261.031187 
L 372.337955 335.362237 
M 338.913853 261.031187 
L 332.140514 214.91708 
M 275.30941 156.500453 
L 332.140514 214.91708 
M 275.30941 156.500453 
L 253.172584 115.483989 
M 179.78917 80.027697 
L 253.172584 115.483989 
M 179.78917 80.027697 
L 144.958887 49.056055 
M 63.874266 40.836665 
L 144.958887 49.056055 
M 63.874266 40.836665 
L 20.551594 23.64548 
M -1 29.103596 
L 20.551594 23.64548 
" style="fill:none;stroke:#00bac9;stroke-linecap:square;"/>
   </g>
   <g id="patch_3">
    <path d="M 10.7 767.550394 
L 10.7 10.7 
" style="fill:none;stroke:#000000;stroke-linecap:square;stroke-linejoin:miter;stroke-width:0.8;"/>
   </g>
   <g id="patch_4">
    <path d="M 520.93622 767.550394 
L 520.93622 10.7 
" style="fill:none;stroke:#000000;stroke-linecap:square;stroke-linejoin:miter;stroke-width:0.8;"/>
   </g>
   <g id="patch_5">
    <path d="M 10.7 767.550394 
L 520.93622 767.550394 
" style="fill:none;stroke:#000000;stroke-linecap:square;stroke-linejoin:miter;stroke-width:0.8;"/>
   </g>
   <g id="patch_6">
    <path d="M 10.7 10.7 
L 520.93622 10.7 
" style="fill:none;stroke:#000000;stroke-linecap:square;stroke-linejoin:miter;stroke-width:0.8;"/>
   </g>
   <g id="PathCollection_1">
    <defs>
     <path d="M 0 2.236068 
C 0.593012 2.236068 1.161816 2.000462 1.581139 1.581139 
C 2.000462 1.161816 2.236068 0.593012 2.236068 0 
C 2.236068 -0.593012 2.000462 -1.161816 1.581139 -1.581139 
C 1.161816 -2.000462 0.593012 -2.236068 0 -2.236068 
C -0.593012 -2.236068 -1.161816 -2.000462 -1.581139 -1.581139 
C -2.000462 -1.161816 -2.236068 -0.593012 -2.236068 0 
C -2.236068 0.593012 -2.000462 1.161816 -1.581139 1.581139 
C -1.161816 2.000462 -0.593012 2.236068 0 2.236068 
z
" id="m7b27d38880" style="stroke:#44525c;"/>
    </defs>
    <g clip-path="url(#p7f0334da14)">
     <use style="fill:#44525c;stroke:#44525c;" x="82.616385" xlink:href="#m7b27d38880" y="380.121084"/>
     <use style="fill:#44525c;stroke:#44525c;" x="75.199708" xlink:href="#m7b27d38880" y="356.067244"/>
     <use style="fill:#44525c;stroke:#44525c;" x="60.003415" xlink:href="#m7b27d38880" y="336.000684"/>
     <use style="fill:#44525c;stroke:#44525c;" x="38.860402" xlink:href="#m7b27d38880" y="322.341724"/>
     <use style="fill:#44525c;stroke:#44525c;" x="14.320828" xlink:href="#m7b27d38880" y="316.737838"/>
     <use style="fill:#44525c;stroke:#44525c;" x="-1" xlink:href="#m7b27d38880" y="318.656045"/>
     <use style="fill:#44525c;stroke:#44525c;" x="-1" xlink:href="#m7b27d38880" y="459.667587"/>
     <use style="fill:#44525c;stroke:#44525c;" x="7.079172" xlink:href="#m7b27d38880" y="461.512556"/>
     <use style="fill:#44525c;stroke:#44525c;" x="32.055469" xlink:href="#m7b27d38880" y="458.38546"/>
     <use style="fill:#44525c;stroke:#44525c;" x="54.455981" xlink:href="#m7b27d38880" y="446.904551"/>
     <use style="fill:#44525c;stroke:#44525c;" x="71.578883" xlink:href="#m7b27d38880" y="428.454606"/>
     <use style="fill:#44525c;stroke:#44525c;" x="81.358884" xlink:href="#m7b27d38880" y="405.260949"/>
     <use style="fill:#44525c;stroke:#44525c;" x="103.01961" xlink:href="#m7b27d38880" y="365.639749"/>
     <use style="fill:#44525c;stroke:#44525c;" x="89.419562" xlink:href="#m7b27d38880" y="335.480929"/>
     <use style="fill:#44525c;stroke:#44525c;" x="66.324767" xlink:href="#m7b27d38880" y="311.792402"/>
     <use style="fill:#44525c;stroke:#44525c;" x="36.520809" xlink:href="#m7b27d38880" y="297.431346"/>
     <use style="fill:#44525c;stroke:#44525c;" x="3.60248" xlink:href="#m7b27d38880" y="294.12992"/>
     <use style="fill:#44525c;stroke:#44525c;" x="-1" xlink:href="#m7b27d38880" y="295.300759"/>
     <use style="fill:#44525c;stroke:#44525c;" x="-1" xlink:href="#m7b27d38880" y="482.235244"/>
     <use style="fill:#44525c;stroke:#44525c;" x="17.79752" xlink:href="#m7b27d38880" y="484.120474"/>
     <use style="fill:#44525c;stroke:#44525c;" x="49.859785" xlink:href="#m7b27d38880" y="475.964058"/>
     <use style="fill:#44525c;stroke:#44525c;" x="77.198792" xlink:href="#m7b27d38880" y="457.333601"/>
     <use style="fill:#44525c;stroke:#44525c;" x="96.517077" xlink:href="#m7b27d38880" y="430.476202"/>
     <use style="fill:#44525c;stroke:#44525c;" x="105.484553" xlink:href="#m7b27d38880" y="398.631261"/>
     <use style="fill:#44525c;stroke:#44525c;" x="119.690194" xlink:href="#m7b27d38880" y="346.391939"/>
     <use style="fill:#44525c;stroke:#44525c;" x="98.501652" xlink:href="#m7b27d38880" y="311.69223"/>
     <use style="fill:#44525c;stroke:#44525c;" x="66.722927" xlink:href="#m7b27d38880" y="286.332073"/>
     <use style="fill:#44525c;stroke:#44525c;" x="28.187013" xlink:href="#m7b27d38880" y="273.370281"/>
     <use style="fill:#44525c;stroke:#44525c;" x="-1" xlink:href="#m7b27d38880" y="274.088357"/>
     <use style="fill:#44525c;stroke:#44525c;" x="-1" xlink:href="#m7b27d38880" y="504.737737"/>
     <use style="fill:#44525c;stroke:#44525c;" x="33.858093" xlink:href="#m7b27d38880" y="503.880138"/>
     <use style="fill:#44525c;stroke:#44525c;" x="71.709994" xlink:href="#m7b27d38880" y="489.039039"/>
     <use style="fill:#44525c;stroke:#44525c;" x="102.203178" xlink:href="#m7b27d38880" y="462.146845"/>
     <use style="fill:#44525c;stroke:#44525c;" x="121.659745" xlink:href="#m7b27d38880" y="426.447171"/>
     <use style="fill:#44525c;stroke:#44525c;" x="127.732915" xlink:href="#m7b27d38880" y="386.245914"/>
     <use style="fill:#44525c;stroke:#44525c;" x="131.908828" xlink:href="#m7b27d38880" y="323.188758"/>
     <use style="fill:#44525c;stroke:#44525c;" x="102.047446" xlink:href="#m7b27d38880" y="285.709355"/>
     <use style="fill:#44525c;stroke:#44525c;" x="61.168218" xlink:href="#m7b27d38880" y="260.703428"/>
     <use style="fill:#44525c;stroke:#44525c;" x="14.201781" xlink:href="#m7b27d38880" y="251.187062"/>
     <use style="fill:#44525c;stroke:#44525c;" x="-1" xlink:href="#m7b27d38880" y="253.471401"/>
     <use style="fill:#44525c;stroke:#44525c;" x="-1" xlink:href="#m7b27d38880" y="525.402204"/>
     <use style="fill:#44525c;stroke:#44525c;" x="7.198219" xlink:href="#m7b27d38880" y="527.063331"/>
     <use style="fill:#44525c;stroke:#44525c;" x="54.587025" xlink:href="#m7b27d38880" y="519.942317"/>
     <use style="fill:#44525c;stroke:#44525c;" x="96.682413" xlink:href="#m7b27d38880" y="497.042845"/>
     <use style="fill:#44525c;stroke:#44525c;" x="128.407044" xlink:href="#m7b27d38880" y="461.126899"/>
     <use style="fill:#44525c;stroke:#44525c;" x="145.934468" xlink:href="#m7b27d38880" y="416.526484"/>
     <use style="fill:#44525c;stroke:#44525c;" x="147.150628" xlink:href="#m7b27d38880" y="368.62107"/>
     <use style="fill:#44525c;stroke:#44525c;" x="139.097303" xlink:href="#m7b27d38880" y="296.922823"/>
     <use style="fill:#44525c;stroke:#44525c;" x="99.818923" xlink:href="#m7b27d38880" y="258.568839"/>
     <use style="fill:#44525c;stroke:#44525c;" x="49.791489" xlink:href="#m7b27d38880" y="235.961901"/>
     <use style="fill:#44525c;stroke:#44525c;" x="-1" xlink:href="#m7b27d38880" y="232.127008"/>
     <use style="fill:#44525c;stroke:#44525c;" x="-1" xlink:href="#m7b27d38880" y="544.356623"/>
     <use style="fill:#44525c;stroke:#44525c;" x="26.350951" xlink:href="#m7b27d38880" y="546.421693"/>
     <use style="fill:#44525c;stroke:#44525c;" x="79.205649" xlink:href="#m7b27d38880" y="531.582621"/>
     <use style="fill:#44525c;stroke:#44525c;" x="123.797564" xlink:href="#m7b27d38880" y="499.56107"/>
     <use style="fill:#44525c;stroke:#44525c;" x="154.748239" xlink:href="#m7b27d38880" y="454.219326"/>
     <use style="fill:#44525c;stroke:#44525c;" x="168.324572" xlink:href="#m7b27d38880" y="401.026271"/>
     <use style="fill:#44525c;stroke:#44525c;" x="162.889057" xlink:href="#m7b27d38880" y="346.397768"/>
     <use style="fill:#44525c;stroke:#44525c;" x="140.826379" xlink:href="#m7b27d38880" y="268.548137"/>
     <use style="fill:#44525c;stroke:#44525c;" x="91.739018" xlink:href="#m7b27d38880" y="231.313987"/>
     <use style="fill:#44525c;stroke:#44525c;" x="32.877155" xlink:href="#m7b27d38880" y="213.114191"/>
     <use style="fill:#44525c;stroke:#44525c;" x="-1" xlink:href="#m7b27d38880" y="214.782114"/>
     <use style="fill:#44525c;stroke:#44525c;" x="-1" xlink:href="#m7b27d38880" y="564.620366"/>
     <use style="fill:#44525c;stroke:#44525c;" x="50.059602" xlink:href="#m7b27d38880" y="562.106474"/>
     <use style="fill:#44525c;stroke:#44525c;" x="106.849011" xlink:href="#m7b27d38880" y="538.212657"/>
     <use style="fill:#44525c;stroke:#44525c;" x="152.041436" xlink:href="#m7b27d38880" y="496.336682"/>
     <use style="fill:#44525c;stroke:#44525c;" x="180.185995" xlink:href="#m7b27d38880" y="441.529424"/>
     <use style="fill:#44525c;stroke:#44525c;" x="187.888035" xlink:href="#m7b27d38880" y="380.401439"/>
     <use style="fill:#44525c;stroke:#44525c;" x="174.218586" xlink:href="#m7b27d38880" y="320.325669"/>
     <use style="fill:#44525c;stroke:#44525c;" x="136.82106" xlink:href="#m7b27d38880" y="239.058997"/>
     <use style="fill:#44525c;stroke:#44525c;" x="77.889365" xlink:href="#m7b27d38880" y="204.97317"/>
     <use style="fill:#44525c;stroke:#44525c;" x="10.853642" xlink:href="#m7b27d38880" y="193.098772"/>
     <use style="fill:#44525c;stroke:#44525c;" x="-1" xlink:href="#m7b27d38880" y="195.179311"/>
     <use style="fill:#44525c;stroke:#44525c;" x="-1" xlink:href="#m7b27d38880" y="583.106353"/>
     <use style="fill:#44525c;stroke:#44525c;" x="10.546358" xlink:href="#m7b27d38880" y="585.151622"/>
     <use style="fill:#44525c;stroke:#44525c;" x="77.600615" xlink:href="#m7b27d38880" y="573.382329"/>
     <use style="fill:#44525c;stroke:#44525c;" x="136.585668" xlink:href="#m7b27d38880" y="539.388916"/>
     <use style="fill:#44525c;stroke:#44525c;" x="180.387055" xlink:href="#m7b27d38880" y="487.271467"/>
     <use style="fill:#44525c;stroke:#44525c;" x="203.721675" xlink:href="#m7b27d38880" y="423.316139"/>
     <use style="fill:#44525c;stroke:#44525c;" x="203.775025" xlink:href="#m7b27d38880" y="355.236876"/>
     <use style="fill:#44525c;stroke:#44525c;" x="180.540685" xlink:href="#m7b27d38880" y="291.245042"/>
     <use style="fill:#44525c;stroke:#44525c;" x="126.962844" xlink:href="#m7b27d38880" y="209.468414"/>
     <use style="fill:#44525c;stroke:#44525c;" x="58.505095" xlink:href="#m7b27d38880" y="180.538822"/>
     <use style="fill:#44525c;stroke:#44525c;" x="-1" xlink:href="#m7b27d38880" y="177.515609"/>
     <use style="fill:#44525c;stroke:#44525c;" x="-1" xlink:href="#m7b27d38880" y="599.545925"/>
     <use style="fill:#44525c;stroke:#44525c;" x="37.118649" xlink:href="#m7b27d38880" y="601.48258"/>
     <use style="fill:#44525c;stroke:#44525c;" x="108.155915" xlink:href="#m7b27d38880" y="579.64017"/>
     <use style="fill:#44525c;stroke:#44525c;" x="167.438556" xlink:href="#m7b27d38880" y="534.818817"/>
     <use style="fill:#44525c;stroke:#44525c;" x="207.816218" xlink:href="#m7b27d38880" y="472.424671"/>
     <use style="fill:#44525c;stroke:#44525c;" x="224.418752" xlink:href="#m7b27d38880" y="399.983381"/>
     <use style="fill:#44525c;stroke:#44525c;" x="215.243654" xlink:href="#m7b27d38880" y="326.232429"/>
     <use style="fill:#44525c;stroke:#44525c;" x="181.397559" xlink:href="#m7b27d38880" y="260.067281"/>
     <use style="fill:#44525c;stroke:#44525c;" x="111.289458" xlink:href="#m7b27d38880" y="180.786353"/>
     <use style="fill:#44525c;stroke:#44525c;" x="33.967093" xlink:href="#m7b27d38880" y="158.947106"/>
     <use style="fill:#44525c;stroke:#44525c;" x="-1" xlink:href="#m7b27d38880" y="161.532097"/>
     <use style="fill:#44525c;stroke:#44525c;" x="-1" xlink:href="#m7b27d38880" y="618.448174"/>
     <use style="fill:#44525c;stroke:#44525c;" x="67.561628" xlink:href="#m7b27d38880" y="613.379659"/>
     <use style="fill:#44525c;stroke:#44525c;" x="140.831989" xlink:href="#m7b27d38880" y="580.407631"/>
     <use style="fill:#44525c;stroke:#44525c;" x="198.406525" xlink:href="#m7b27d38880" y="524.364139"/>
     <use style="fill:#44525c;stroke:#44525c;" x="233.340873" xlink:href="#m7b27d38880" y="452.008814"/>
     <use style="fill:#44525c;stroke:#44525c;" x="241.42146" xlink:href="#m7b27d38880" y="372.068804"/>
     <use style="fill:#44525c;stroke:#44525c;" x="221.673616" xlink:href="#m7b27d38880" y="294.186048"/>
     <use style="fill:#44525c;stroke:#44525c;" x="176.479244" xlink:href="#m7b27d38880" y="227.754352"/>
     <use style="fill:#44525c;stroke:#44525c;" x="89.991525" xlink:href="#m7b27d38880" y="153.998311"/>
     <use style="fill:#44525c;stroke:#44525c;" x="4.791535" xlink:href="#m7b27d38880" y="141.058909"/>
     <use style="fill:#44525c;stroke:#44525c;" x="-1" xlink:href="#m7b27d38880" y="142.222945"/>
     <use style="fill:#44525c;stroke:#44525c;" x="-1" xlink:href="#m7b27d38880" y="634.517271"/>
     <use style="fill:#44525c;stroke:#44525c;" x="16.608465" xlink:href="#m7b27d38880" y="637.191485"/>
     <use style="fill:#44525c;stroke:#44525c;" x="101.095813" xlink:href="#m7b27d38880" y="620.210444"/>
     <use style="fill:#44525c;stroke:#44525c;" x="174.680085" xlink:href="#m7b27d38880" y="575.357124"/>
     <use style="fill:#44525c;stroke:#44525c;" x="228.485951" xlink:href="#m7b27d38880" y="508.041467"/>
     <use style="fill:#44525c;stroke:#44525c;" x="256.023626" xlink:href="#m7b27d38880" y="426.382754"/>
     <use style="fill:#44525c;stroke:#44525c;" x="253.971637" xlink:href="#m7b27d38880" y="340.230231"/>
     <use style="fill:#44525c;stroke:#44525c;" x="222.577474" xlink:href="#m7b27d38880" y="259.975165"/>
     <use style="fill:#44525c;stroke:#44525c;" x="165.627799" xlink:href="#m7b27d38880" y="195.297497"/>
     <use style="fill:#44525c;stroke:#44525c;" x="63.406517" xlink:href="#m7b27d38880" y="130.044466"/>
     <use style="fill:#44525c;stroke:#44525c;" x="-1" xlink:href="#m7b27d38880" y="128.358913"/>
     <use style="fill:#44525c;stroke:#44525c;" x="-1" xlink:href="#m7b27d38880" y="649.27909"/>
     <use style="fill:#44525c;stroke:#44525c;" x="49.782896" xlink:href="#m7b27d38880" y="650.608105"/>
     <use style="fill:#44525c;stroke:#44525c;" x="136.858339" xlink:href="#m7b27d38880" y="621.471628"/>
     <use style="fill:#44525c;stroke:#44525c;" x="208.71721" xlink:href="#m7b27d38880" y="564.310741"/>
     <use style="fill:#44525c;stroke:#44525c;" x="256.692321" xlink:href="#m7b27d38880" y="486.01988"/>
     <use style="fill:#44525c;stroke:#44525c;" x="274.997101" xlink:href="#m7b27d38880" y="396.042091"/>
     <use style="fill:#44525c;stroke:#44525c;" x="261.423741" xlink:href="#m7b27d38880" y="305.230024"/>
     <use style="fill:#44525c;stroke:#44525c;" x="217.609405" xlink:href="#m7b27d38880" y="224.536944"/>
     <use style="fill:#44525c;stroke:#44525c;" x="148.838749" xlink:href="#m7b27d38880" y="163.695638"/>
     <use style="fill:#44525c;stroke:#44525c;" x="32.009983" xlink:href="#m7b27d38880" y="109.800021"/>
     <use style="fill:#44525c;stroke:#44525c;" x="-1" xlink:href="#m7b27d38880" y="113.058383"/>
     <use style="fill:#44525c;stroke:#44525c;" x="-1" xlink:href="#m7b27d38880" y="667.501787"/>
     <use style="fill:#44525c;stroke:#44525c;" x="86.210001" xlink:href="#m7b27d38880" y="658.89343"/>
     <use style="fill:#44525c;stroke:#44525c;" x="173.922368" xlink:href="#m7b27d38880" y="616.798492"/>
     <use style="fill:#44525c;stroke:#44525c;" x="241.94769" xlink:href="#m7b27d38880" y="547.242775"/>
     <use style="fill:#44525c;stroke:#44525c;" x="282.081174" xlink:href="#m7b27d38880" y="458.615743"/>
     <use style="fill:#44525c;stroke:#44525c;" x="289.482023" xlink:href="#m7b27d38880" y="361.607126"/>
     <use style="fill:#44525c;stroke:#44525c;" x="263.257679" xlink:href="#m7b27d38880" y="267.917599"/>
     <use style="fill:#44525c;stroke:#44525c;" x="206.571146" xlink:href="#m7b27d38880" y="188.847503"/>
     <use style="fill:#44525c;stroke:#44525c;" x="126.259668" xlink:href="#m7b27d38880" y="133.933853"/>
     <use style="fill:#44525c;stroke:#44525c;" x="-1" xlink:href="#m7b27d38880" y="94.853868"/>
     <use style="fill:#44525c;stroke:#44525c;" x="-1" xlink:href="#m7b27d38880" y="680.897511"/>
     <use style="fill:#44525c;stroke:#44525c;" x="24.995714" xlink:href="#m7b27d38880" y="684.19364"/>
     <use style="fill:#44525c;stroke:#44525c;" x="125.052929" xlink:href="#m7b27d38880" y="661.509387"/>
     <use style="fill:#44525c;stroke:#44525c;" x="211.317502" xlink:href="#m7b27d38880" y="605.971633"/>
     <use style="fill:#44525c;stroke:#44525c;" x="273.384646" xlink:href="#m7b27d38880" y="524.27897"/>
     <use style="fill:#44525c;stroke:#44525c;" x="303.768088" xlink:href="#m7b27d38880" y="426.284766"/>
     <use style="fill:#44525c;stroke:#44525c;" x="298.803263" xlink:href="#m7b27d38880" y="323.80857"/>
     <use style="fill:#44525c;stroke:#44525c;" x="259.088903" xlink:href="#m7b27d38880" y="229.210513"/>
     <use style="fill:#44525c;stroke:#44525c;" x="189.415186" xlink:href="#m7b27d38880" y="153.900559"/>
     <use style="fill:#44525c;stroke:#44525c;" x="98.185774" xlink:href="#m7b27d38880" y="106.962148"/>
     <use style="fill:#44525c;stroke:#44525c;" x="-1" xlink:href="#m7b27d38880" y="90.448382"/>
     <use style="fill:#44525c;stroke:#44525c;" x="-1" xlink:href="#m7b27d38880" y="694.64189"/>
     <use style="fill:#44525c;stroke:#44525c;" x="64.094994" xlink:href="#m7b27d38880" y="694.743949"/>
     <use style="fill:#44525c;stroke:#44525c;" x="165.402652" xlink:href="#m7b27d38880" y="658.050721"/>
     <use style="fill:#44525c;stroke:#44525c;" x="248.050887" xlink:href="#m7b27d38880" y="588.921103"/>
     <use style="fill:#44525c;stroke:#44525c;" x="302.071101" xlink:href="#m7b27d38880" y="495.693147"/>
     <use style="fill:#44525c;stroke:#44525c;" x="320.947662" xlink:href="#m7b27d38880" y="389.611531"/>
     <use style="fill:#44525c;stroke:#44525c;" x="302.403772" xlink:href="#m7b27d38880" y="283.471255"/>
     <use style="fill:#44525c;stroke:#44525c;" x="248.676113" xlink:href="#m7b27d38880" y="190.074396"/>
     <use style="fill:#44525c;stroke:#44525c;" x="166.244996" xlink:href="#m7b27d38880" y="120.686002"/>
     <use style="fill:#44525c;stroke:#44525c;" x="65.052885" xlink:href="#m7b27d38880" y="83.675376"/>
     <use style="fill:#44525c;stroke:#44525c;" x="-1" xlink:href="#m7b27d38880" y="81.489158"/>
     <use style="fill:#44525c;stroke:#44525c;" x="-1" xlink:href="#m7b27d38880" y="712.734948"/>
     <use style="fill:#44525c;stroke:#44525c;" x="105.874744" xlink:href="#m7b27d38880" y="699.524083"/>
     <use style="fill:#44525c;stroke:#44525c;" x="206.297677" xlink:href="#m7b27d38880" y="648.253074"/>
     <use style="fill:#44525c;stroke:#44525c;" x="283.128633" xlink:href="#m7b27d38880" y="565.727394"/>
     <use style="fill:#44525c;stroke:#44525c;" x="327.100681" xlink:href="#m7b27d38880" y="461.900896"/>
     <use style="fill:#44525c;stroke:#44525c;" x="332.910162" xlink:href="#m7b27d38880" y="349.296571"/>
     <use style="fill:#44525c;stroke:#44525c;" x="299.85629" xlink:href="#m7b27d38880" y="241.496156"/>
     <use style="fill:#44525c;stroke:#44525c;" x="231.925964" xlink:href="#m7b27d38880" y="151.502003"/>
     <use style="fill:#44525c;stroke:#44525c;" x="137.312471" xlink:href="#m7b27d38880" y="90.168691"/>
     <use style="fill:#44525c;stroke:#44525c;" x="27.427668" xlink:href="#m7b27d38880" y="64.893972"/>
     <use style="fill:#44525c;stroke:#44525c;" x="-1" xlink:href="#m7b27d38880" y="67.686583"/>
     <use style="fill:#44525c;stroke:#44525c;" x="-1" xlink:href="#m7b27d38880" y="723.195084"/>
     <use style="fill:#44525c;stroke:#44525c;" x="35.404556" xlink:href="#m7b27d38880" y="726.903802"/>
     <use style="fill:#44525c;stroke:#44525c;" x="149.44178" xlink:href="#m7b27d38880" y="698.083776"/>
     <use style="fill:#44525c;stroke:#44525c;" x="246.744693" xlink:href="#m7b27d38880" y="631.998823"/>
     <use style="fill:#44525c;stroke:#44525c;" x="315.577093" xlink:href="#m7b27d38880" y="536.61972"/>
     <use style="fill:#44525c;stroke:#44525c;" x="347.63687" xlink:href="#m7b27d38880" y="423.450596"/>
     <use style="fill:#44525c;stroke:#44525c;" x="339.057072" xlink:href="#m7b27d38880" y="306.141316"/>
     <use style="fill:#44525c;stroke:#44525c;" x="290.872561" xlink:href="#m7b27d38880" y="198.841129"/>
     <use style="fill:#44525c;stroke:#44525c;" x="208.895103" xlink:href="#m7b27d38880" y="114.492"/>
     <use style="fill:#44525c;stroke:#44525c;" x="103.012386" xlink:href="#m7b27d38880" y="63.267704"/>
     <use style="fill:#44525c;stroke:#44525c;" x="-1" xlink:href="#m7b27d38880" y="52.671432"/>
     <use style="fill:#44525c;stroke:#44525c;" x="-1" xlink:href="#m7b27d38880" y="736.458416"/>
     <use style="fill:#44525c;stroke:#44525c;" x="79.854239" xlink:href="#m7b27d38880" y="734.596043"/>
     <use style="fill:#44525c;stroke:#44525c;" x="193.841711" xlink:href="#m7b27d38880" y="690.109443"/>
     <use style="fill:#44525c;stroke:#44525c;" x="285.739589" xlink:href="#m7b27d38880" y="609.319733"/>
     <use style="fill:#44525c;stroke:#44525c;" x="344.463648" xlink:href="#m7b27d38880" y="501.971297"/>
     <use style="fill:#44525c;stroke:#44525c;" x="362.930871" xlink:href="#m7b27d38880" y="381.011955"/>
     <use style="fill:#44525c;stroke:#44525c;" x="338.913849" xlink:href="#m7b27d38880" y="261.03118"/>
     <use style="fill:#44525c;stroke:#44525c;" x="275.309416" xlink:href="#m7b27d38880" y="156.500458"/>
     <use style="fill:#44525c;stroke:#44525c;" x="179.789173" xlink:href="#m7b27d38880" y="80.027694"/>
     <use style="fill:#44525c;stroke:#44525c;" x="63.874267" xlink:href="#m7b27d38880" y="40.836671"/>
     <use style="fill:#44525c;stroke:#44525c;" x="-1" xlink:href="#m7b27d38880" y="42.330966"/>
    </g>
   </g>
   <g id="PathCollection_2">
    <defs>
     <path d="M 0 2.236068 
C 0.593012 2.236068 1.161816 2.000462 1.581139 1.581139 
C 2.000462 1.161816 2.236068 0.593012 2.236068 0 
C 2.236068 -0.593012 2.000462 -1.161816 1.581139 -1.581139 
C 1.161816 -2.000462 0.593012 -2.236068 0 -2.236068 
C -0.593012 -2.236068 -1.161816 -2.000462 -1.581139 -1.581139 
C -2.000462 -1.161816 -2.236068 -0.593012 -2.236068 0 
C -2.236068 0.593012 -2.000462 1.161816 -1.581139 1.581139 
C -1.161816 2.000462 -0.593012 2.236068 0 2.236068 
z
" id="mffbc5714b6" style="stroke:#5aa0df;"/>
    </defs>
    <g clip-path="url(#p7f0334da14)">
     <use style="fill:#5aa0df;stroke:#5aa0df;" x="59.330708" xlink:href="#mffbc5714b6" y="389.125197"/>
     <use style="fill:#5aa0df;stroke:#5aa0df;" x="56.397918" xlink:href="#mffbc5714b6" y="372.492517"/>
     <use style="fill:#5aa0df;stroke:#5aa0df;" x="47.95328" xlink:href="#mffbc5714b6" y="357.865981"/>
     <use style="fill:#5aa0df;stroke:#5aa0df;" x="35.015354" xlink:href="#mffbc5714b6" y="347.009771"/>
     <use style="fill:#5aa0df;stroke:#5aa0df;" x="19.144633" xlink:href="#mffbc5714b6" y="341.233301"/>
     <use style="fill:#5aa0df;stroke:#5aa0df;" x="2.255367" xlink:href="#mffbc5714b6" y="341.233301"/>
     <use style="fill:#5aa0df;stroke:#5aa0df;" x="-1" xlink:href="#mffbc5714b6" y="342.418158"/>
     <use style="fill:#5aa0df;stroke:#5aa0df;" x="-1" xlink:href="#mffbc5714b6" y="435.832236"/>
     <use style="fill:#5aa0df;stroke:#5aa0df;" x="2.255367" xlink:href="#mffbc5714b6" y="437.017092"/>
     <use style="fill:#5aa0df;stroke:#5aa0df;" x="19.144633" xlink:href="#mffbc5714b6" y="437.017092"/>
     <use style="fill:#5aa0df;stroke:#5aa0df;" x="35.015354" xlink:href="#mffbc5714b6" y="431.240623"/>
     <use style="fill:#5aa0df;stroke:#5aa0df;" x="47.95328" xlink:href="#mffbc5714b6" y="420.384413"/>
     <use style="fill:#5aa0df;stroke:#5aa0df;" x="56.397918" xlink:href="#mffbc5714b6" y="405.757877"/>
    </g>
   </g>
   <g id="PathCollection_3">
    <g clip-path="url(#p7f0334da14)">
     <use style="fill:#5aa0df;stroke:#5aa0df;" x="-1" xlink:href="#mffbc5714b6" y="754.227377"/>
     <use style="fill:#5aa0df;stroke:#5aa0df;" x="0.848406" xlink:href="#mffbc5714b6" y="754.60492"/>
     <use style="fill:#5aa0df;stroke:#5aa0df;" x="126.443954" xlink:href="#mffbc5714b6" y="735.933217"/>
     <use style="fill:#5aa0df;stroke:#5aa0df;" x="238.079064" xlink:href="#mffbc5714b6" y="675.431368"/>
     <use style="fill:#5aa0df;stroke:#5aa0df;" x="322.288918" xlink:href="#mffbc5714b6" y="580.396778"/>
     <use style="fill:#5aa0df;stroke:#5aa0df;" x="368.916528" xlink:href="#mffbc5714b6" y="462.292007"/>
     <use style="fill:#5aa0df;stroke:#5aa0df;" x="372.337969" xlink:href="#mffbc5714b6" y="335.362239"/>
     <use style="fill:#5aa0df;stroke:#5aa0df;" x="332.140524" xlink:href="#mffbc5714b6" y="214.917081"/>
     <use style="fill:#5aa0df;stroke:#5aa0df;" x="253.172587" xlink:href="#mffbc5714b6" y="115.483986"/>
     <use style="fill:#5aa0df;stroke:#5aa0df;" x="144.958891" xlink:href="#mffbc5714b6" y="49.056061"/>
     <use style="fill:#5aa0df;stroke:#5aa0df;" x="20.551594" xlink:href="#mffbc5714b6" y="23.645474"/>
     <use style="fill:#5aa0df;stroke:#5aa0df;" x="-1" xlink:href="#mffbc5714b6" y="26.849448"/>
    </g>
   </g>
  </g>
 </g>
 <defs>
  <clipPath id="p7f0334da14">
   <rect height="756.850394" width="510.23622" x="10.7" y="10.7"/>
  </clipPath>
 </defs>
</svg>
