<?xml version="1.0" encoding="utf-8" standalone="no"?>
<!DOCTYPE svg PUBLIC "-//W3C//DTD SVG 1.1//EN"
  "http://www.w3.org/Graphics/SVG/1.1/DTD/svg11.dtd">
<!-- Created with matplotlib (https://matplotlib.org/) -->
<svg height="369.278788pt" version="1.1" viewBox="0 0 364.257143 369.278788" width="364.257143pt" xmlns="http://www.w3.org/2000/svg" xmlns:xlink="http://www.w3.org/1999/xlink">
 <defs>
  <style type="text/css">
*{stroke-linecap:butt;stroke-linejoin:round;}
  </style>
 </defs>
 <g id="figure_1">
  <g id="patch_1">
   <path d="M 0 369.278788 
L 364.257143 369.278788 
L 364.257143 0 
L 0 0 
z
" style="fill:none;"/>
  </g>
  <g id="axes_1">
   <g id="patch_2">
    <path d="M 10.7 358.578788 
L 353.557143 358.578788 
L 353.557143 10.7 
L 10.7 10.7 
z
" style="fill:none;"/>
   </g>
   <g id="matplotlib.axis_1"/>
   <g id="matplotlib.axis_2"/>
   <g id="line2d_1">
    <path clip-path="url(#p6cae8d373e)" d="M 248.798806 171.367498 
L 254.340582 153.45709 
M 248.798806 171.367498 
L 259.904213 198.821698 
M 230.155252 136.365184 
L 254.340582 153.45709 
M 230.155252 136.365184 
L 225.134189 118.301879 
M 195.547617 116.998831 
L 225.134189 118.301879 
M 195.547617 116.998831 
L 181.557872 104.517603 
M 155.96358 119.417115 
L 181.557872 104.517603 
M 155.96358 119.417115 
L 137.446796 116.480672 
M 123.970792 142.852253 
L 137.446796 116.480672 
M 123.970792 142.852253 
L 106.805917 150.392889 
M 109.726741 179.863754 
L 106.805917 150.392889 
M 109.726741 179.863754 
L 99.363501 195.487368 
M 117.753804 218.700726 
L 99.363501 195.487368 
M 117.753804 218.700726 
L 117.482466 237.446933 
M 145.503459 247.032701 
L 117.482466 237.446933 
M 145.503459 247.032701 
L 155.410153 262.949721 
M 184.165375 255.864492 
L 155.410153 262.949721 
M 184.165375 255.864492 
L 201.104803 263.898766 
M 221.464671 242.392042 
L 201.104803 263.898766 
M 221.464671 242.392042 
L 240.058684 239.992766 
M 245.559088 210.892786 
L 240.058684 239.992766 
M 245.559088 210.892786 
L 259.904213 198.821698 
M 254.340582 153.45709 
L 254.677862 133.169771 
M 254.340582 153.45709 
L 271.15611 181.937268 
M 225.134189 118.301879 
L 254.677862 133.169771 
M 225.134189 118.301879 
L 214.449779 101.052749 
M 181.557872 104.517603 
L 214.449779 101.052749 
M 181.557872 104.517603 
L 163.24399 95.783142 
M 137.446796 116.480672 
L 163.24399 95.783142 
M 137.446796 116.480672 
L 117.317971 119.034 
M 106.805917 150.392889 
L 117.317971 119.034 
M 106.805917 150.392889 
L 91.252913 163.423352 
M 99.363501 195.487368 
L 91.252913 163.423352 
M 99.363501 195.487368 
L 93.324285 214.857888 
M 117.482466 237.446933 
L 93.324285 214.857888 
M 117.482466 237.446933 
L 122.874436 257.007496 
M 155.410153 262.949721 
L 122.874436 257.007496 
M 155.410153 262.949721 
L 170.521413 276.489998 
M 201.104803 263.898766 
L 170.521413 276.489998 
M 201.104803 263.898766 
L 221.137631 267.119803 
M 240.058684 239.992766 
L 221.137631 267.119803 
M 240.058684 239.992766 
L 258.652796 231.871918 
M 259.904213 198.821698 
L 258.652796 231.871918 
M 259.904213 198.821698 
L 271.15611 181.937268 
M 254.677862 133.169771 
L 249.232577 111.982425 
M 254.677862 133.169771 
L 278.029992 161.169398 
M 214.449779 101.052749 
L 249.232577 111.982425 
M 214.449779 101.052749 
L 198.414171 86.172767 
M 163.24399 95.783142 
L 198.414171 86.172767 
M 163.24399 95.783142 
L 141.70925 91.93481 
M 117.317971 119.034 
L 141.70925 91.93481 
M 117.317971 119.034 
L 97.121228 127.439141 
M 91.252913 163.423352 
L 97.121228 127.439141 
M 91.252913 163.423352 
L 78.806491 181.413386 
M 93.324285 214.857888 
L 78.806491 181.413386 
M 93.324285 214.857888 
L 92.579833 236.721109 
M 122.874436 257.007496 
L 92.579833 236.721109 
M 122.874436 257.007496 
L 134.068318 275.802488 
M 170.521413 276.489998 
L 134.068318 275.802488 
M 170.521413 276.489998 
L 190.099644 286.24948 
M 221.137631 267.119803 
L 190.099644 286.24948 
M 221.137631 267.119803 
L 242.884259 264.745218 
M 258.652796 231.871918 
L 242.884259 264.745218 
M 258.652796 231.871918 
L 275.663431 218.117164 
M 271.15611 181.937268 
L 275.663431 218.117164 
M 271.15611 181.937268 
L 278.029992 161.169398 
M 249.232577 111.982425 
L 237.814862 91.471407 
M 249.232577 111.982425 
L 279.513887 137.741546 
M 198.414171 86.172767 
L 237.814862 91.471407 
M 198.414171 86.172767 
L 177.719882 75.090678 
M 141.70925 91.93481 
L 177.719882 75.090678 
M 141.70925 91.93481 
L 118.308682 93.800142 
M 97.121228 127.439141 
L 118.308682 93.800142 
M 97.121228 127.439141 
L 78.443889 141.659659 
M 78.806491 181.413386 
L 78.443889 141.659659 
M 78.806491 181.413386 
L 70.782308 203.474179 
M 92.579833 236.721109 
L 70.782308 203.474179 
M 92.579833 236.721109 
L 97.756424 259.618031 
M 134.068318 275.802488 
L 97.756424 259.618031 
M 134.068318 275.802488 
L 150.802155 292.265927 
M 190.099644 286.24948 
L 150.802155 292.265927 
M 190.099644 286.24948 
L 213.077852 291.052411 
M 242.884259 264.745218 
L 213.077852 291.052411 
M 242.884259 264.745218 
L 264.811416 256.362747 
M 275.663431 218.117164 
L 264.811416 256.362747 
M 275.663431 218.117164 
L 289.577823 199.210663 
M 278.029992 161.169398 
L 289.577823 199.210663 
M 278.029992 161.169398 
L 279.513887 137.741546 
M 237.814862 91.471407 
L 220.633434 73.218512 
M 237.814862 91.471407 
L 274.928211 113.097255 
M 177.719882 75.090678 
L 220.633434 73.218512 
M 177.719882 75.090678 
L 153.397686 69.024355 
M 118.308682 93.800142 
L 153.397686 69.024355 
M 118.308682 93.800142 
L 94.56785 101.846391 
M 78.443889 141.659659 
L 94.56785 101.846391 
M 78.443889 141.659659 
L 62.821959 161.263862 
M 70.782308 203.474179 
L 62.821959 161.263862 
M 70.782308 203.474179 
L 68.239136 228.412138 
M 97.756424 259.618031 
L 68.239136 228.412138 
M 97.756424 259.618031 
L 109.099454 281.972116 
M 150.802155 292.265927 
L 109.099454 281.972116 
M 150.802155 292.265927 
L 172.430049 304.938877 
M 213.077852 291.052411 
L 172.430049 304.938877 
M 213.077852 291.052411 
L 238.123906 290.020655 
M 264.811416 256.362747 
L 238.123906 290.020655 
M 264.811416 256.362747 
L 285.323691 241.953853 
M 289.577823 199.210663 
L 285.323691 241.953853 
M 289.577823 199.210663 
L 299.04381 175.999361 
M 279.513887 137.741546 
L 299.04381 175.999361 
M 279.513887 137.741546 
L 274.928211 113.097255 
M 220.633434 73.218512 
L 198.284558 58.717677 
M 220.633434 73.218512 
L 263.966883 88.815657 
M 153.397686 69.024355 
L 198.284558 58.717677 
M 153.397686 69.024355 
L 126.756872 68.90819 
M 94.56785 101.846391 
L 126.756872 68.90819 
M 94.56785 101.846391 
L 72.093352 116.15178 
M 62.821959 161.263862 
L 72.093352 116.15178 
M 62.821959 161.263862 
L 51.649293 185.448944 
M 68.239136 228.412138 
L 51.649293 185.448944 
M 68.239136 228.412138 
L 71.915526 254.798327 
M 109.099454 281.972116 
L 71.915526 254.798327 
M 109.099454 281.972116 
L 126.457683 302.181979 
M 172.430049 304.938877 
L 126.457683 302.181979 
M 172.430049 304.938877 
L 197.958997 312.555938 
M 238.123906 290.020655 
L 197.958997 312.555938 
M 238.123906 290.020655 
L 263.718313 282.626527 
M 285.323691 241.953853 
L 263.718313 282.626527 
M 285.323691 241.953853 
L 302.857506 221.896139 
M 299.04381 175.999361 
L 302.857506 221.896139 
M 299.04381 175.999361 
L 302.950175 149.646239 
M 274.928211 113.097255 
L 302.950175 149.646239 
M 274.928211 113.097255 
L 263.966883 88.815657 
M 198.284558 58.717677 
L 171.720514 49.286723 
M 198.284558 58.717677 
L 246.718546 66.520241 
M 126.756872 68.90819 
L 171.720514 49.286723 
M 126.756872 68.90819 
L 99.311021 75.335975 
M 72.093352 116.15178 
L 99.311021 75.335975 
M 72.093352 116.15178 
L 52.479562 136.397527 
M 51.649293 185.448944 
L 52.479562 136.397527 
M 51.649293 185.448944 
L 46.094802 213.084769 
M 71.915526 254.798327 
L 46.094802 213.084769 
M 71.915526 254.798327 
L 82.183849 281.050046 
M 126.457683 302.181979 
L 82.183849 281.050046 
M 126.457683 302.181979 
L 149.288692 318.714864 
M 197.958997 312.555938 
L 149.288692 318.714864 
M 197.958997 312.555938 
L 226.104016 314.120898 
M 263.718313 282.626527 
L 226.104016 314.120898 
M 263.718313 282.626527 
L 288.241497 268.726723 
M 302.857506 221.896139 
L 288.241497 268.726723 
M 302.857506 221.896139 
L 315.972925 196.944645 
M 302.950175 149.646239 
L 315.972925 196.944645 
M 302.950175 149.646239 
L 300.493771 121.564982 
M 263.966883 88.815657 
L 300.493771 121.564982 
M 263.966883 88.815657 
L 246.718546 66.520241 
M 171.720514 49.286723 
L 142.199129 45.988893 
M 171.720514 49.286723 
L 223.666521 47.785456 
M 99.311021 75.335975 
L 142.199129 45.988893 
M 99.311021 75.335975 
L 72.69311 88.522129 
M 52.479562 136.397527 
L 72.69311 88.522129 
M 52.479562 136.397527 
L 37.21611 161.881151 
M 46.094802 213.084769 
L 37.21611 161.881151 
M 46.094802 213.084769 
L 47.031873 242.774999 
M 82.183849 281.050046 
L 47.031873 242.774999 
M 82.183849 281.050046 
L 99.023907 305.520437 
M 149.288692 318.714864 
L 99.023907 305.520437 
M 149.288692 318.714864 
L 176.685146 330.196248 
M 226.104016 314.120898 
L 176.685146 330.196248 
M 226.104016 314.120898 
L 255.358685 308.968018 
M 288.241497 268.726723 
L 255.358685 308.968018 
M 288.241497 268.726723 
L 310.066238 248.575567 
M 315.972925 196.944645 
L 310.066238 248.575567 
M 315.972925 196.944645 
L 323.438515 168.193079 
M 300.493771 121.564982 
L 323.438515 168.193079 
M 300.493771 121.564982 
L 291.229957 93.341416 
M 246.718546 66.520241 
L 291.229957 93.341416 
M 246.718546 66.520241 
L 223.666521 47.785456 
M 142.199129 45.988893 
L 111.217061 49.567664 
M 142.199129 45.988893 
L 195.667914 34.045932 
M 72.69311 88.522129 
L 111.217061 49.567664 
M 72.69311 88.522129 
L 48.564156 108.282952 
M 37.21611 161.881151 
L 48.564156 108.282952 
M 37.21611 161.881151 
L 27.601074 191.55011 
M 47.031873 242.774999 
L 27.601074 191.55011 
M 47.031873 242.774999 
L 54.98342 272.932408 
M 99.023907 305.520437 
L 54.98342 272.932408 
M 99.023907 305.520437 
L 122.017506 326.591535 
M 176.685146 330.196248 
L 122.017506 326.591535 
M 176.685146 330.196248 
L 207.420484 335.491087 
M 255.358685 308.968018 
L 207.420484 335.491087 
M 255.358685 308.968018 
L 284.077514 296.805554 
M 310.066238 248.575567 
L 284.077514 296.805554 
M 310.066238 248.575567 
L 327.650515 222.817284 
M 323.438515 168.193079 
L 327.650515 222.817284 
M 323.438515 168.193079 
L 324.305388 137.017045 
M 291.229957 93.341416 
L 324.305388 137.017045 
M 291.229957 93.341416 
L 275.104177 66.645803 
M 223.666521 47.785456 
L 275.104177 66.645803 
M 223.666521 47.785456 
L 195.667914 34.045932 
L 195.667914 34.045932 
" style="fill:none;stroke:#44525c;stroke-linecap:square;"/>
   </g>
   <g id="line2d_2">
    <path clip-path="url(#p6cae8d373e)" d="M 238.987634 185.613398 
L 248.798806 171.367498 
M 238.987634 185.613398 
L 245.559088 210.892786 
M 229.603481 153.653921 
L 248.798806 171.367498 
M 229.603481 153.653921 
L 230.155252 136.365184 
M 204.430434 131.841351 
L 230.155252 136.365184 
M 204.430434 131.841351 
L 195.547617 116.998831 
M 171.460753 127.101026 
L 195.547617 116.998831 
M 171.460753 127.101026 
L 155.96358 119.417115 
M 141.162079 140.937968 
L 155.96358 119.417115 
M 141.162079 140.937968 
L 123.970792 142.852253 
M 123.154026 168.959041 
L 123.970792 142.852253 
M 123.154026 168.959041 
L 109.726741 179.863754 
M 123.154026 202.267756 
L 109.726741 179.863754 
M 123.154026 202.267756 
L 117.753804 218.700726 
M 141.162079 230.288829 
L 117.753804 218.700726 
M 141.162079 230.288829 
L 145.503459 247.032701 
M 171.460753 244.12577 
L 145.503459 247.032701 
M 171.460753 244.12577 
L 184.165375 255.864492 
M 204.430434 239.385446 
L 184.165375 255.864492 
M 204.430434 239.385446 
L 221.464671 242.392042 
M 229.603481 217.572875 
L 221.464671 242.392042 
M 229.603481 217.572875 
L 245.559088 210.892786 
" style="fill:none;stroke:#44525c;stroke-linecap:square;"/>
   </g>
   <g id="line2d_3">
    <path clip-path="url(#p6cae8d373e)" d="M 111.217061 49.567664 
L 80.430137 60.398406 
M 111.217061 49.567664 
L 163.912763 26.512672 
M 48.564156 108.282952 
L 80.430137 60.398406 
M 48.564156 108.282952 
L 28.520095 134.03902 
M 27.601074 191.55011 
L 28.520095 134.03902 
M 27.601074 191.55011 
L 24.663713 224.054135 
M 54.98342 272.932408 
L 24.663713 224.054135 
M 54.98342 272.932408 
L 70.08536 301.864592 
M 122.017506 326.591535 
L 70.08536 301.864592 
M 122.017506 326.591535 
L 150.363981 342.766116 
M 207.420484 335.491087 
L 150.363981 342.766116 
M 207.420484 335.491087 
L 240.011692 333.772746 
M 284.077514 296.805554 
L 240.011692 333.772746 
M 284.077514 296.805554 
L 310.565971 277.739852 
M 327.650515 222.817284 
L 310.565971 277.739852 
M 327.650515 222.817284 
L 339.626335 192.457451 
M 324.305388 137.017045 
L 339.626335 192.457451 
M 324.305388 137.017045 
L 317.966322 105.002114 
M 275.104177 66.645803 
L 317.966322 105.002114 
M 275.104177 66.645803 
L 252.462829 43.140292 
M 195.667914 34.045932 
L 252.462829 43.140292 
M 195.667914 34.045932 
L 163.912763 26.512672 
" style="fill:none;stroke:#44525c;stroke-linecap:square;"/>
   </g>
   <g id="PathCollection_1">
    <defs>
     <path d="M 0 6.123724 
C 1.624031 6.123724 3.181764 5.47849 4.330127 4.330127 
C 5.47849 3.181764 6.123724 1.624031 6.123724 0 
C 6.123724 -1.624031 5.47849 -3.181764 4.330127 -4.330127 
C 3.181764 -5.47849 1.624031 -6.123724 0 -6.123724 
C -1.624031 -6.123724 -3.181764 -5.47849 -4.330127 -4.330127 
C -5.47849 -3.181764 -6.123724 -1.624031 -6.123724 0 
C -6.123724 1.624031 -5.47849 3.181764 -4.330127 4.330127 
C -3.181764 5.47849 -1.624031 6.123724 0 6.123724 
z
" id="m8ac75d24f5" style="stroke:#44525c;"/>
    </defs>
    <g clip-path="url(#p6cae8d373e)">
     <use style="fill:#eea300;stroke:#44525c;" x="248.798806" xlink:href="#m8ac75d24f5" y="171.367498"/>
     <use style="fill:#eea300;stroke:#44525c;" x="230.155252" xlink:href="#m8ac75d24f5" y="136.365184"/>
     <use style="fill:#eea300;stroke:#44525c;" x="195.547617" xlink:href="#m8ac75d24f5" y="116.998831"/>
     <use style="fill:#eea300;stroke:#44525c;" x="155.96358" xlink:href="#m8ac75d24f5" y="119.417115"/>
     <use style="fill:#eea300;stroke:#44525c;" x="123.970792" xlink:href="#m8ac75d24f5" y="142.852253"/>
     <use style="fill:#eea300;stroke:#44525c;" x="109.726741" xlink:href="#m8ac75d24f5" y="179.863754"/>
     <use style="fill:#eea300;stroke:#44525c;" x="117.753804" xlink:href="#m8ac75d24f5" y="218.700726"/>
     <use style="fill:#eea300;stroke:#44525c;" x="145.503459" xlink:href="#m8ac75d24f5" y="247.032701"/>
     <use style="fill:#eea300;stroke:#44525c;" x="184.165375" xlink:href="#m8ac75d24f5" y="255.864492"/>
     <use style="fill:#eea300;stroke:#44525c;" x="221.464671" xlink:href="#m8ac75d24f5" y="242.392042"/>
     <use style="fill:#eea300;stroke:#44525c;" x="245.559088" xlink:href="#m8ac75d24f5" y="210.892786"/>
     <use style="fill:#eea300;stroke:#44525c;" x="254.340582" xlink:href="#m8ac75d24f5" y="153.45709"/>
     <use style="fill:#eea300;stroke:#44525c;" x="225.134189" xlink:href="#m8ac75d24f5" y="118.301879"/>
     <use style="fill:#eea300;stroke:#44525c;" x="181.557872" xlink:href="#m8ac75d24f5" y="104.517603"/>
     <use style="fill:#eea300;stroke:#44525c;" x="137.446796" xlink:href="#m8ac75d24f5" y="116.480672"/>
     <use style="fill:#eea300;stroke:#44525c;" x="106.805917" xlink:href="#m8ac75d24f5" y="150.392889"/>
     <use style="fill:#eea300;stroke:#44525c;" x="99.363501" xlink:href="#m8ac75d24f5" y="195.487368"/>
     <use style="fill:#eea300;stroke:#44525c;" x="117.482466" xlink:href="#m8ac75d24f5" y="237.446933"/>
     <use style="fill:#eea300;stroke:#44525c;" x="155.410153" xlink:href="#m8ac75d24f5" y="262.949721"/>
     <use style="fill:#eea300;stroke:#44525c;" x="201.104803" xlink:href="#m8ac75d24f5" y="263.898766"/>
     <use style="fill:#eea300;stroke:#44525c;" x="240.058684" xlink:href="#m8ac75d24f5" y="239.992766"/>
     <use style="fill:#eea300;stroke:#44525c;" x="259.904213" xlink:href="#m8ac75d24f5" y="198.821698"/>
     <use style="fill:#eea300;stroke:#44525c;" x="254.677862" xlink:href="#m8ac75d24f5" y="133.169771"/>
     <use style="fill:#eea300;stroke:#44525c;" x="214.449779" xlink:href="#m8ac75d24f5" y="101.052749"/>
     <use style="fill:#eea300;stroke:#44525c;" x="163.24399" xlink:href="#m8ac75d24f5" y="95.783142"/>
     <use style="fill:#eea300;stroke:#44525c;" x="117.317971" xlink:href="#m8ac75d24f5" y="119.034"/>
     <use style="fill:#eea300;stroke:#44525c;" x="91.252913" xlink:href="#m8ac75d24f5" y="163.423352"/>
     <use style="fill:#eea300;stroke:#44525c;" x="93.324285" xlink:href="#m8ac75d24f5" y="214.857888"/>
     <use style="fill:#eea300;stroke:#44525c;" x="122.874436" xlink:href="#m8ac75d24f5" y="257.007496"/>
     <use style="fill:#eea300;stroke:#44525c;" x="170.521413" xlink:href="#m8ac75d24f5" y="276.489998"/>
     <use style="fill:#eea300;stroke:#44525c;" x="221.137631" xlink:href="#m8ac75d24f5" y="267.119803"/>
     <use style="fill:#eea300;stroke:#44525c;" x="258.652796" xlink:href="#m8ac75d24f5" y="231.871918"/>
     <use style="fill:#eea300;stroke:#44525c;" x="271.15611" xlink:href="#m8ac75d24f5" y="181.937268"/>
     <use style="fill:#eea300;stroke:#44525c;" x="249.232577" xlink:href="#m8ac75d24f5" y="111.982425"/>
     <use style="fill:#eea300;stroke:#44525c;" x="198.414171" xlink:href="#m8ac75d24f5" y="86.172767"/>
     <use style="fill:#eea300;stroke:#44525c;" x="141.70925" xlink:href="#m8ac75d24f5" y="91.93481"/>
     <use style="fill:#eea300;stroke:#44525c;" x="97.121228" xlink:href="#m8ac75d24f5" y="127.439141"/>
     <use style="fill:#eea300;stroke:#44525c;" x="78.806491" xlink:href="#m8ac75d24f5" y="181.413386"/>
     <use style="fill:#eea300;stroke:#44525c;" x="92.579833" xlink:href="#m8ac75d24f5" y="236.721109"/>
     <use style="fill:#eea300;stroke:#44525c;" x="134.068318" xlink:href="#m8ac75d24f5" y="275.802488"/>
     <use style="fill:#eea300;stroke:#44525c;" x="190.099644" xlink:href="#m8ac75d24f5" y="286.24948"/>
     <use style="fill:#eea300;stroke:#44525c;" x="242.884259" xlink:href="#m8ac75d24f5" y="264.745218"/>
     <use style="fill:#eea300;stroke:#44525c;" x="275.663431" xlink:href="#m8ac75d24f5" y="218.117164"/>
     <use style="fill:#eea300;stroke:#44525c;" x="278.029992" xlink:href="#m8ac75d24f5" y="161.169398"/>
     <use style="fill:#eea300;stroke:#44525c;" x="237.814862" xlink:href="#m8ac75d24f5" y="91.471407"/>
     <use style="fill:#eea300;stroke:#44525c;" x="177.719882" xlink:href="#m8ac75d24f5" y="75.090678"/>
     <use style="fill:#eea300;stroke:#44525c;" x="118.308682" xlink:href="#m8ac75d24f5" y="93.800142"/>
     <use style="fill:#eea300;stroke:#44525c;" x="78.443889" xlink:href="#m8ac75d24f5" y="141.659659"/>
     <use style="fill:#eea300;stroke:#44525c;" x="70.782308" xlink:href="#m8ac75d24f5" y="203.474179"/>
     <use style="fill:#eea300;stroke:#44525c;" x="97.756424" xlink:href="#m8ac75d24f5" y="259.618031"/>
     <use style="fill:#eea300;stroke:#44525c;" x="150.802155" xlink:href="#m8ac75d24f5" y="292.265927"/>
     <use style="fill:#eea300;stroke:#44525c;" x="213.077852" xlink:href="#m8ac75d24f5" y="291.052411"/>
     <use style="fill:#eea300;stroke:#44525c;" x="264.811416" xlink:href="#m8ac75d24f5" y="256.362747"/>
     <use style="fill:#eea300;stroke:#44525c;" x="289.577823" xlink:href="#m8ac75d24f5" y="199.210663"/>
     <use style="fill:#eea300;stroke:#44525c;" x="279.513887" xlink:href="#m8ac75d24f5" y="137.741546"/>
     <use style="fill:#eea300;stroke:#44525c;" x="220.633434" xlink:href="#m8ac75d24f5" y="73.218512"/>
     <use style="fill:#eea300;stroke:#44525c;" x="153.397686" xlink:href="#m8ac75d24f5" y="69.024355"/>
     <use style="fill:#eea300;stroke:#44525c;" x="94.56785" xlink:href="#m8ac75d24f5" y="101.846391"/>
     <use style="fill:#eea300;stroke:#44525c;" x="62.821959" xlink:href="#m8ac75d24f5" y="161.263862"/>
     <use style="fill:#eea300;stroke:#44525c;" x="68.239136" xlink:href="#m8ac75d24f5" y="228.412138"/>
     <use style="fill:#eea300;stroke:#44525c;" x="109.099454" xlink:href="#m8ac75d24f5" y="281.972116"/>
     <use style="fill:#eea300;stroke:#44525c;" x="172.430049" xlink:href="#m8ac75d24f5" y="304.938877"/>
     <use style="fill:#eea300;stroke:#44525c;" x="238.123906" xlink:href="#m8ac75d24f5" y="290.020655"/>
     <use style="fill:#eea300;stroke:#44525c;" x="285.323691" xlink:href="#m8ac75d24f5" y="241.953853"/>
     <use style="fill:#eea300;stroke:#44525c;" x="299.04381" xlink:href="#m8ac75d24f5" y="175.999361"/>
     <use style="fill:#eea300;stroke:#44525c;" x="274.928211" xlink:href="#m8ac75d24f5" y="113.097255"/>
     <use style="fill:#eea300;stroke:#44525c;" x="198.284558" xlink:href="#m8ac75d24f5" y="58.717677"/>
     <use style="fill:#eea300;stroke:#44525c;" x="126.756872" xlink:href="#m8ac75d24f5" y="68.90819"/>
     <use style="fill:#eea300;stroke:#44525c;" x="72.093352" xlink:href="#m8ac75d24f5" y="116.15178"/>
     <use style="fill:#eea300;stroke:#44525c;" x="51.649293" xlink:href="#m8ac75d24f5" y="185.448944"/>
     <use style="fill:#eea300;stroke:#44525c;" x="71.915526" xlink:href="#m8ac75d24f5" y="254.798327"/>
     <use style="fill:#eea300;stroke:#44525c;" x="126.457683" xlink:href="#m8ac75d24f5" y="302.181979"/>
     <use style="fill:#eea300;stroke:#44525c;" x="197.958997" xlink:href="#m8ac75d24f5" y="312.555938"/>
     <use style="fill:#eea300;stroke:#44525c;" x="263.718313" xlink:href="#m8ac75d24f5" y="282.626527"/>
     <use style="fill:#eea300;stroke:#44525c;" x="302.857506" xlink:href="#m8ac75d24f5" y="221.896139"/>
     <use style="fill:#eea300;stroke:#44525c;" x="302.950175" xlink:href="#m8ac75d24f5" y="149.646239"/>
     <use style="fill:#eea300;stroke:#44525c;" x="263.966883" xlink:href="#m8ac75d24f5" y="88.815657"/>
     <use style="fill:#eea300;stroke:#44525c;" x="171.720514" xlink:href="#m8ac75d24f5" y="49.286723"/>
     <use style="fill:#eea300;stroke:#44525c;" x="99.311021" xlink:href="#m8ac75d24f5" y="75.335975"/>
     <use style="fill:#eea300;stroke:#44525c;" x="52.479562" xlink:href="#m8ac75d24f5" y="136.397527"/>
     <use style="fill:#eea300;stroke:#44525c;" x="46.094802" xlink:href="#m8ac75d24f5" y="213.084769"/>
     <use style="fill:#eea300;stroke:#44525c;" x="82.183849" xlink:href="#m8ac75d24f5" y="281.050046"/>
     <use style="fill:#eea300;stroke:#44525c;" x="149.288692" xlink:href="#m8ac75d24f5" y="318.714864"/>
     <use style="fill:#eea300;stroke:#44525c;" x="226.104016" xlink:href="#m8ac75d24f5" y="314.120898"/>
     <use style="fill:#eea300;stroke:#44525c;" x="288.241497" xlink:href="#m8ac75d24f5" y="268.726723"/>
     <use style="fill:#eea300;stroke:#44525c;" x="315.972925" xlink:href="#m8ac75d24f5" y="196.944645"/>
     <use style="fill:#eea300;stroke:#44525c;" x="300.493771" xlink:href="#m8ac75d24f5" y="121.564982"/>
     <use style="fill:#eea300;stroke:#44525c;" x="246.718546" xlink:href="#m8ac75d24f5" y="66.520241"/>
     <use style="fill:#eea300;stroke:#44525c;" x="142.199129" xlink:href="#m8ac75d24f5" y="45.988893"/>
     <use style="fill:#eea300;stroke:#44525c;" x="72.69311" xlink:href="#m8ac75d24f5" y="88.522129"/>
     <use style="fill:#eea300;stroke:#44525c;" x="37.21611" xlink:href="#m8ac75d24f5" y="161.881151"/>
     <use style="fill:#eea300;stroke:#44525c;" x="47.031873" xlink:href="#m8ac75d24f5" y="242.774999"/>
     <use style="fill:#eea300;stroke:#44525c;" x="99.023907" xlink:href="#m8ac75d24f5" y="305.520437"/>
     <use style="fill:#eea300;stroke:#44525c;" x="176.685146" xlink:href="#m8ac75d24f5" y="330.196248"/>
     <use style="fill:#eea300;stroke:#44525c;" x="255.358685" xlink:href="#m8ac75d24f5" y="308.968018"/>
     <use style="fill:#eea300;stroke:#44525c;" x="310.066238" xlink:href="#m8ac75d24f5" y="248.575567"/>
     <use style="fill:#eea300;stroke:#44525c;" x="323.438515" xlink:href="#m8ac75d24f5" y="168.193079"/>
     <use style="fill:#eea300;stroke:#44525c;" x="291.229957" xlink:href="#m8ac75d24f5" y="93.341416"/>
     <use style="fill:#eea300;stroke:#44525c;" x="223.666521" xlink:href="#m8ac75d24f5" y="47.785456"/>
     <use style="fill:#eea300;stroke:#44525c;" x="111.217061" xlink:href="#m8ac75d24f5" y="49.567664"/>
     <use style="fill:#eea300;stroke:#44525c;" x="48.564156" xlink:href="#m8ac75d24f5" y="108.282952"/>
     <use style="fill:#eea300;stroke:#44525c;" x="27.601074" xlink:href="#m8ac75d24f5" y="191.55011"/>
     <use style="fill:#eea300;stroke:#44525c;" x="54.98342" xlink:href="#m8ac75d24f5" y="272.932408"/>
     <use style="fill:#eea300;stroke:#44525c;" x="122.017506" xlink:href="#m8ac75d24f5" y="326.591535"/>
     <use style="fill:#eea300;stroke:#44525c;" x="207.420484" xlink:href="#m8ac75d24f5" y="335.491087"/>
     <use style="fill:#eea300;stroke:#44525c;" x="284.077514" xlink:href="#m8ac75d24f5" y="296.805554"/>
     <use style="fill:#eea300;stroke:#44525c;" x="327.650515" xlink:href="#m8ac75d24f5" y="222.817284"/>
     <use style="fill:#eea300;stroke:#44525c;" x="324.305388" xlink:href="#m8ac75d24f5" y="137.017045"/>
     <use style="fill:#eea300;stroke:#44525c;" x="275.104177" xlink:href="#m8ac75d24f5" y="66.645803"/>
     <use style="fill:#eea300;stroke:#44525c;" x="195.667914" xlink:href="#m8ac75d24f5" y="34.045932"/>
    </g>
   </g>
  </g>
 </g>
 <defs>
  <clipPath id="p6cae8d373e">
   <rect height="347.878788" width="342.857143" x="10.7" y="10.7"/>
  </clipPath>
 </defs>
</svg>
