<?xml version="1.0" encoding="utf-8" standalone="no"?>
<!DOCTYPE svg PUBLIC "-//W3C//DTD SVG 1.1//EN"
  "http://www.w3.org/Graphics/SVG/1.1/DTD/svg11.dtd">
<!-- Created with matplotlib (https://matplotlib.org/) -->
<svg height="778.250394pt" version="1.1" viewBox="0 0 531.63622 778.250394" width="531.63622pt" xmlns="http://www.w3.org/2000/svg" xmlns:xlink="http://www.w3.org/1999/xlink">
 <defs>
  <style type="text/css">
*{stroke-linecap:butt;stroke-linejoin:round;}
  </style>
 </defs>
 <g id="figure_1">
  <g id="patch_1">
   <path d="M 0 778.250394 
L 531.63622 778.250394 
L 531.63622 0 
L 0 0 
z
" style="fill:none;"/>
  </g>
  <g id="axes_1">
   <g id="patch_2">
    <path d="M 10.7 767.550394 
L 520.93622 767.550394 
L 520.93622 10.7 
L 10.7 10.7 
z
" style="fill:none;"/>
   </g>
   <g id="matplotlib.axis_1"/>
   <g id="matplotlib.axis_2"/>
   <g id="line2d_1">
    <path clip-path="url(#p0343b5738f)" d="M 524.557049 316.737836 
L 532.63622 309.711683 
M 524.557049 316.737836 
L 513.838701 294.129921 
M 499.580751 319.864935 
L 513.838701 294.129921 
M 499.580751 319.864935 
L 481.776437 302.286335 
M 477.180238 331.34584 
L 481.776437 302.286335 
M 477.180238 331.34584 
L 454.437425 320.916796 
M 460.057341 349.795788 
L 454.437425 320.916796 
M 460.057341 349.795788 
L 435.119141 347.774193 
M 450.277336 372.989445 
L 435.119141 347.774193 
M 450.277336 372.989445 
L 426.151665 379.619133 
M 449.019835 398.12931 
L 426.151665 379.619133 
M 449.019835 398.12931 
L 428.616609 412.610644 
M 456.436511 422.183148 
L 428.616609 412.610644 
M 456.436511 422.183148 
L 442.216661 442.769464 
M 471.632806 442.249708 
L 442.216661 442.769464 
M 471.632806 442.249708 
L 465.311453 466.457994 
M 492.775819 455.908668 
L 465.311453 466.457994 
M 492.775819 455.908668 
L 495.115411 480.819049 
M 517.315392 461.512557 
L 495.115411 480.819049 
M 517.315392 461.512557 
L 528.03374 484.120472 
M 532.63622 475.813184 
L 528.03374 484.120472 
M 513.838701 294.129921 
L 532.63622 278.256947 
M 513.838701 294.129921 
L 497.778127 274.370254 
M 481.776437 302.286335 
L 497.778127 274.370254 
M 481.776437 302.286335 
L 459.926229 289.211354 
M 454.437425 320.916796 
L 459.926229 289.211354 
M 454.437425 320.916796 
L 429.433039 316.103547 
M 435.119141 347.774193 
L 429.433039 316.103547 
M 435.119141 347.774193 
L 409.976478 351.803222 
M 426.151665 379.619133 
L 409.976478 351.803222 
M 426.151665 379.619133 
L 403.903302 392.004479 
M 428.616609 412.610644 
L 403.903302 392.004479 
M 428.616609 412.610644 
L 411.946026 431.858455 
M 442.216661 442.769464 
L 411.946026 431.858455 
M 442.216661 442.769464 
L 433.134569 466.558165 
M 465.311453 466.457994 
L 433.134569 466.558165 
M 465.311453 466.457994 
L 464.913293 491.918323 
M 495.115411 480.819049 
L 464.913293 491.918323 
M 495.115411 480.819049 
L 503.449207 504.880109 
M 528.03374 484.120472 
L 503.449207 504.880109 
M 528.03374 484.120472 
L 532.63622 489.783003 
M 532.63622 264.190986 
L 524.438001 251.187057 
M 497.778127 274.370254 
L 524.438001 251.187057 
M 497.778127 274.370254 
L 477.049194 258.308071 
M 459.926229 289.211354 
L 477.049194 258.308071 
M 459.926229 289.211354 
L 434.953811 281.20755 
M 429.433039 316.103547 
L 434.953811 281.20755 
M 429.433039 316.103547 
L 403.229179 317.123497 
M 409.976478 351.803222 
L 403.229179 317.123497 
M 409.976478 351.803222 
L 385.701748 361.723909 
M 403.903302 392.004479 
L 385.701748 361.723909 
M 403.903302 392.004479 
L 384.485599 409.629323 
M 411.946026 431.858455 
L 384.485599 409.629323 
M 411.946026 431.858455 
L 399.727399 455.061636 
M 433.134569 466.558165 
L 399.727399 455.061636 
M 433.134569 466.558165 
L 429.588774 492.541041 
M 464.913293 491.918323 
L 429.588774 492.541041 
M 464.913293 491.918323 
L 470.468001 517.546962 
M 503.449207 504.880109 
L 470.468001 517.546962 
M 503.449207 504.880109 
L 517.43444 527.063336 
M 532.63622 513.843999 
L 517.43444 527.063336 
M 524.438001 251.187057 
L 532.63622 247.679887 
M 524.438001 251.187057 
L 505.28527 231.828697 
M 477.049194 258.308071 
L 505.28527 231.828697 
M 477.049194 258.308071 
L 452.430568 246.667767 
M 434.953811 281.20755 
L 452.430568 246.667767 
M 434.953811 281.20755 
L 407.838657 278.689324 
M 403.229179 317.123497 
L 407.838657 278.689324 
M 403.229179 317.123497 
L 376.887977 324.031068 
M 385.701748 361.723909 
L 376.887977 324.031068 
M 385.701748 361.723909 
L 363.311647 377.224123 
M 384.485599 409.629323 
L 363.311647 377.224123 
M 384.485599 409.629323 
L 368.747157 431.852627 
M 399.727399 455.061636 
L 368.747157 431.852627 
M 399.727399 455.061636 
L 392.538922 481.327568 
M 429.588774 492.541041 
L 392.538922 481.327568 
M 429.588774 492.541041 
L 431.817299 519.681551 
M 470.468001 517.546962 
L 431.817299 519.681551 
M 470.468001 517.546962 
L 481.844732 542.288493 
M 517.43444 527.063336 
L 481.844732 542.288493 
M 517.43444 527.063336 
L 532.63622 542.428328 
M 505.28527 231.828697 
L 532.63622 218.297496 
M 505.28527 231.828697 
L 481.576619 216.143918 
M 452.430568 246.667767 
L 481.576619 216.143918 
M 452.430568 246.667767 
L 424.787211 240.037732 
M 407.838657 278.689324 
L 424.787211 240.037732 
M 407.838657 278.689324 
L 379.594791 281.913712 
M 376.887977 324.031068 
L 379.594791 281.913712 
M 376.887977 324.031068 
L 351.450229 336.720971 
M 363.311647 377.224123 
L 351.450229 336.720971 
M 363.311647 377.224123 
L 343.748185 397.848955 
M 368.747157 431.852627 
L 343.748185 397.848955 
M 368.747157 431.852627 
L 357.417638 457.924725 
M 392.538922 481.327568 
L 357.417638 457.924725 
M 392.538922 481.327568 
L 390.809838 509.702253 
M 431.817299 519.681551 
L 390.809838 509.702253 
M 431.817299 519.681551 
L 439.897203 546.936412 
M 481.844732 542.288493 
L 439.897203 546.936412 
M 481.844732 542.288493 
L 498.759066 565.13621 
M 532.63622 548.376331 
L 498.759066 565.13621 
M 532.63622 203.592338 
L 521.089863 193.098779 
M 481.576619 216.143918 
L 521.089863 193.098779 
M 481.576619 216.143918 
L 454.035608 204.868062 
M 424.787211 240.037732 
L 454.035608 204.868062 
M 424.787211 240.037732 
L 395.050557 238.861485 
M 379.594791 281.913712 
L 395.050557 238.861485 
M 379.594791 281.913712 
L 351.249172 290.978926 
M 351.450229 336.720971 
L 351.249172 290.978926 
M 351.450229 336.720971 
L 327.914552 354.934256 
M 343.748185 397.848955 
L 327.914552 354.934256 
M 343.748185 397.848955 
L 327.861193 423.013518 
M 357.417638 457.924725 
L 327.861193 423.013518 
M 357.417638 457.924725 
L 351.095529 487.005352 
M 390.809838 509.702253 
L 351.095529 487.005352 
M 390.809838 509.702253 
L 394.815165 539.191395 
M 439.897203 546.936412 
L 394.815165 539.191395 
M 439.897203 546.936412 
L 453.746857 573.277227 
M 498.759066 565.13621 
L 453.746857 573.277227 
M 498.759066 565.13621 
L 520.782578 585.151615 
M 532.63622 578.238266 
L 520.782578 585.151615 
M 521.089863 193.098779 
L 532.63622 190.055392 
M 521.089863 193.098779 
L 494.517573 176.767811 
M 454.035608 204.868062 
L 494.517573 176.767811 
M 454.035608 204.868062 
L 423.480304 198.610229 
M 395.050557 238.861485 
L 423.480304 198.610229 
M 395.050557 238.861485 
L 364.197668 243.431579 
M 351.249172 290.978926 
L 364.197668 243.431579 
M 351.249172 290.978926 
L 323.820002 305.82572 
M 327.914552 354.934256 
L 323.820002 305.82572 
M 327.914552 354.934256 
L 307.217467 378.267013 
M 327.861193 423.013518 
L 307.217467 378.267013 
M 327.861193 423.013518 
L 316.392568 452.017962 
M 351.095529 487.005352 
L 316.392568 452.017962 
M 351.095529 487.005352 
L 350.238658 518.183114 
M 394.815165 539.191395 
L 350.238658 518.183114 
M 394.815165 539.191395 
L 404.673383 568.781978 
M 453.746857 573.277227 
L 404.673383 568.781978 
M 453.746857 573.277227 
L 473.131124 597.711576 
M 520.782578 585.151615 
L 473.131124 597.711576 
M 520.782578 585.151615 
L 532.63622 592.436702 
M 494.517573 176.767811 
L 532.63622 163.095855 
M 494.517573 176.767811 
L 464.074594 164.870734 
M 423.480304 198.610229 
L 464.074594 164.870734 
M 423.480304 198.610229 
L 390.804227 197.842756 
M 364.197668 243.431579 
L 390.804227 197.842756 
M 364.197668 243.431579 
L 333.22969 253.886253 
M 323.820002 305.82572 
L 333.22969 253.886253 
M 323.820002 305.82572 
L 298.295351 326.241578 
M 307.217467 378.267013 
L 298.295351 326.241578 
M 307.217467 378.267013 
L 290.214764 406.181589 
M 316.392568 452.017962 
L 290.214764 406.181589 
M 316.392568 452.017962 
L 309.962601 484.064346 
M 350.238658 518.183114 
L 309.962601 484.064346 
M 350.238658 518.183114 
L 355.156974 550.496037 
M 404.673383 568.781978 
L 355.156974 550.496037 
M 404.673383 568.781978 
L 420.346765 597.464034 
M 473.131124 597.711576 
L 420.346765 597.464034 
M 473.131124 597.711576 
L 497.669127 619.30329 
M 532.63622 606.761697 
L 497.669127 619.30329 
M 532.63622 151.855053 
L 515.027756 141.058897 
M 464.074594 164.870734 
L 515.027756 141.058897 
M 464.074594 164.870734 
L 430.54041 158.039946 
M 390.804227 197.842756 
L 430.54041 158.039946 
M 390.804227 197.842756 
L 356.956129 202.893275 
M 333.22969 253.886253 
L 356.956129 202.893275 
M 333.22969 253.886253 
L 303.150273 270.208926 
M 298.295351 326.241578 
L 303.150273 270.208926 
M 298.295351 326.241578 
L 275.612607 351.86764 
M 290.214764 406.181589 
L 275.612607 351.86764 
M 290.214764 406.181589 
L 277.664595 438.020161 
M 309.962601 484.064346 
L 277.664595 438.020161 
M 309.962601 484.064346 
L 309.058743 518.275234 
M 355.156974 550.496037 
L 309.058743 518.275234 
M 355.156974 550.496037 
L 366.008425 582.952902 
M 420.346765 597.464034 
L 366.008425 582.952902 
M 420.346765 597.464034 
L 441.644694 624.252079 
M 497.669127 619.30329 
L 441.644694 624.252079 
M 497.669127 619.30329 
L 526.844685 637.191497 
M 532.63622 634.48495 
L 526.844685 637.191497 
M 515.027756 141.058897 
L 532.63622 137.750064 
M 515.027756 141.058897 
L 481.853323 127.642278 
M 430.54041 158.039946 
L 481.853323 127.642278 
M 430.54041 158.039946 
L 394.777879 156.778757 
M 356.956129 202.893275 
L 394.777879 156.778757 
M 356.956129 202.893275 
L 322.919003 213.939654 
M 303.150273 270.208926 
L 322.919003 213.939654 
M 303.150273 270.208926 
L 274.943913 292.230512 
M 275.612607 351.86764 
L 274.943913 292.230512 
M 275.612607 351.86764 
L 256.639116 382.208303 
M 277.664595 438.020161 
L 256.639116 382.208303 
M 277.664595 438.020161 
L 270.212481 473.02037 
M 309.058743 518.275234 
L 270.212481 473.02037 
M 309.058743 518.275234 
L 314.026814 553.713446 
M 366.008425 582.952902 
L 314.026814 553.713446 
M 366.008425 582.952902 
L 382.797465 614.554751 
M 441.644694 624.252079 
L 382.797465 614.554751 
M 441.644694 624.252079 
L 468.229702 648.205927 
M 526.844685 637.191497 
L 468.229702 648.205927 
M 526.844685 637.191497 
L 532.63622 639.533747 
M 481.853323 127.642278 
L 532.63622 112.639163 
M 481.853323 127.642278 
L 445.426216 119.356954 
M 394.777879 156.778757 
L 445.426216 119.356954 
M 394.777879 156.778757 
L 357.713855 161.451904 
M 322.919003 213.939654 
L 357.713855 161.451904 
M 322.919003 213.939654 
L 289.688522 231.007622 
M 274.943913 292.230512 
L 289.688522 231.007622 
M 274.943913 292.230512 
L 249.555053 319.634652 
M 256.639116 382.208303 
L 249.555053 319.634652 
M 256.639116 382.208303 
L 242.154184 416.643268 
M 270.212481 473.02037 
L 242.154184 416.643268 
M 270.212481 473.02037 
L 268.378534 510.332795 
M 314.026814 553.713446 
L 268.378534 510.332795 
M 314.026814 553.713446 
L 325.065073 589.402895 
M 382.797465 614.554751 
L 325.065073 589.402895 
M 382.797465 614.554751 
L 405.376557 644.31654 
M 468.229702 648.205927 
L 405.376557 644.31654 
M 468.229702 648.205927 
L 499.626239 668.450369 
M 532.63622 658.69802 
L 499.626239 668.450369 
M 532.63622 105.550912 
L 506.640506 94.056747 
M 445.426216 119.356954 
L 506.640506 94.056747 
M 445.426216 119.356954 
L 406.583292 116.740997 
M 357.713855 161.451904 
L 406.583292 116.740997 
M 357.713855 161.451904 
L 320.318724 172.278766 
M 289.688522 231.007622 
L 320.318724 172.278766 
M 289.688522 231.007622 
L 258.251584 253.971423 
M 249.555053 319.634652 
L 258.251584 253.971423 
M 249.555053 319.634652 
L 227.868119 351.965629 
M 242.154184 416.643268 
L 227.868119 351.965629 
M 242.154184 416.643268 
L 232.832951 454.441823 
M 268.378534 510.332795 
L 232.832951 454.441823 
M 268.378534 510.332795 
L 272.547305 549.039874 
M 325.065073 589.402895 
L 272.547305 549.039874 
M 325.065073 589.402895 
L 342.221039 624.34984 
M 405.376557 644.31654 
L 342.221039 624.34984 
M 405.376557 644.31654 
L 433.450448 671.288246 
M 499.626239 668.450369 
L 433.450448 671.288246 
M 499.626239 668.450369 
L 532.63622 683.045936 
M 506.640506 94.056747 
L 467.541225 83.506455 
M 506.640506 94.056747 
L 532.63622 90.125546 
M 406.583292 116.740997 
L 467.541225 83.506455 
M 406.583292 116.740997 
L 366.233568 120.199683 
M 320.318724 172.278766 
L 366.233568 120.199683 
M 320.318724 172.278766 
L 283.585336 189.329292 
M 258.251584 253.971423 
L 283.585336 189.329292 
M 258.251584 253.971423 
L 229.565133 282.557247 
M 227.868119 351.965629 
L 229.565133 282.557247 
M 227.868119 351.965629 
L 210.688552 388.638863 
M 232.832951 454.441823 
L 210.688552 388.638863 
M 232.832951 454.441823 
L 229.232451 494.779138 
M 272.547305 549.039874 
L 229.232451 494.779138 
M 272.547305 549.039874 
L 282.960117 588.175996 
M 342.221039 624.34984 
L 282.960117 588.175996 
M 342.221039 624.34984 
L 365.39122 657.564385 
M 433.450448 671.288246 
L 365.39122 657.564385 
M 433.450448 671.288246 
L 466.583336 694.575028 
M 532.63622 684.586184 
L 466.583336 694.575028 
M 467.541225 83.506455 
L 425.761474 78.726318 
M 467.541225 83.506455 
L 532.63622 66.228457 
M 366.233568 120.199683 
L 425.761474 78.726318 
M 366.233568 120.199683 
L 325.338542 129.997327 
M 283.585336 189.329292 
L 325.338542 129.997327 
M 283.585336 189.329292 
L 248.507588 212.522997 
M 229.565133 282.557247 
L 248.507588 212.522997 
M 229.565133 282.557247 
L 204.535536 316.3495 
M 210.688552 388.638863 
L 204.535536 316.3495 
M 210.688552 388.638863 
L 198.726059 428.953822 
M 229.232451 494.779138 
L 198.726059 428.953822 
M 229.232451 494.779138 
L 231.77992 536.754233 
M 282.960117 588.175996 
L 231.77992 536.754233 
M 282.960117 588.175996 
L 299.71026 626.748394 
M 365.39122 657.564385 
L 299.71026 626.748394 
M 365.39122 657.564385 
L 394.323745 688.081696 
M 466.583336 694.575028 
L 394.323745 688.081696 
M 466.583336 694.575028 
L 504.208553 713.356418 
M 532.63622 705.810935 
L 504.208553 713.356418 
M 425.761474 78.726318 
L 382.194447 80.166621 
M 425.761474 78.726318 
L 496.231664 51.346599 
M 325.338542 129.997327 
L 382.194447 80.166621 
M 325.338542 129.997327 
L 284.891536 146.251564 
M 248.507588 212.522997 
L 284.891536 146.251564 
M 248.507588 212.522997 
L 216.059117 241.630675 
M 204.535536 316.3495 
L 216.059117 241.630675 
M 204.535536 316.3495 
L 183.999348 354.799799 
M 198.726059 428.953822 
L 183.999348 354.799799 
M 198.726059 428.953822 
L 192.579155 472.109076 
M 231.77992 536.754233 
L 192.579155 472.109076 
M 231.77992 536.754233 
L 240.763666 579.409258 
M 299.71026 626.748394 
L 240.763666 579.409258 
M 299.71026 626.748394 
L 322.741121 663.758398 
M 394.323745 688.081696 
L 322.741121 663.758398 
M 394.323745 688.081696 
L 428.623832 714.982693 
M 504.208553 713.356418 
L 428.623832 714.982693 
M 504.208553 713.356418 
L 532.63622 722.651606 
M 532.63622 63.250045 
L 496.231664 51.346599 
M 382.194447 80.166621 
L 337.794507 88.140948 
M 382.194447 80.166621 
L 451.781984 43.654347 
M 284.891536 146.251564 
L 337.794507 88.140948 
M 284.891536 146.251564 
L 245.896618 168.930659 
M 216.059117 241.630675 
L 245.896618 168.930659 
M 216.059117 241.630675 
L 187.172582 276.279099 
M 183.999348 354.799799 
L 187.172582 276.279099 
M 183.999348 354.799799 
L 168.705353 397.238439 
M 192.579155 472.109076 
L 168.705353 397.238439 
M 192.579155 472.109076 
L 192.722368 517.219207 
M 240.763666 579.409258 
L 192.722368 517.219207 
M 240.763666 579.409258 
L 256.326811 621.749941 
M 322.741121 663.758398 
L 256.326811 621.749941 
M 322.741121 663.758398 
L 351.847051 698.222697 
M 428.623832 714.982693 
L 351.847051 698.222697 
M 428.623832 714.982693 
L 467.761955 737.413729 
M 532.63622 728.658791 
L 467.761955 737.413729 
M 496.231664 51.346599 
L 532.63622 46.433716 
M 496.231664 51.346599 
L 451.781984 43.654347 
L 451.781984 43.654347 
" style="fill:none;stroke:#eb7a59;stroke-linecap:square;"/>
   </g>
   <g id="line2d_2">
    <path clip-path="url(#p0343b5738f)" d="M 529.380854 341.2333 
L 532.63622 338.11402 
M 529.380854 341.2333 
L 524.557049 316.737836 
M 512.491587 341.2333 
L 524.557049 316.737836 
M 512.491587 341.2333 
L 499.580751 319.864935 
M 496.620867 347.009772 
L 499.580751 319.864935 
M 496.620867 347.009772 
L 477.180238 331.34584 
M 483.68294 357.865982 
L 477.180238 331.34584 
M 483.68294 357.865982 
L 460.057341 349.795788 
M 475.238304 372.492517 
L 460.057341 349.795788 
M 475.238304 372.492517 
L 450.277336 372.989445 
M 472.305514 389.125197 
L 450.277336 372.989445 
M 472.305514 389.125197 
L 449.019835 398.12931 
M 475.238304 405.757877 
L 449.019835 398.12931 
M 475.238304 405.757877 
L 456.436511 422.183148 
M 483.68294 420.384412 
L 456.436511 422.183148 
M 483.68294 420.384412 
L 471.632806 442.249708 
M 496.620867 431.240622 
L 471.632806 442.249708 
M 496.620867 431.240622 
L 492.775819 455.908668 
M 512.491587 437.017094 
L 492.775819 455.908668 
M 512.491587 437.017094 
L 517.315392 461.512557 
M 529.380854 437.017094 
L 517.315392 461.512557 
M 529.380854 437.017094 
L 532.63622 442.404961 
" style="fill:none;stroke:#00bac9;stroke-linecap:square;"/>
   </g>
   <g id="line2d_3">
    <path clip-path="url(#p0343b5738f)" d="M 337.794507 88.140948 
L 293.557153 102.819029 
M 337.794507 88.140948 
L 405.192272 42.317173 
M 245.896618 168.930659 
L 293.557153 102.819029 
M 245.896618 168.930659 
L 209.347302 197.853613 
M 187.172582 276.279099 
L 209.347302 197.853613 
M 187.172582 276.279099 
L 162.719696 315.958388 
M 168.705353 397.238439 
L 162.719696 315.958388 
M 168.705353 397.238439 
L 159.298265 442.888156 
M 192.722368 517.219207 
L 159.298265 442.888156 
M 192.722368 517.219207 
L 199.495707 563.333314 
M 256.326811 621.749941 
L 199.495707 563.333314 
M 256.326811 621.749941 
L 278.463637 662.766404 
M 351.847051 698.222697 
L 278.463637 662.766404 
M 351.847051 698.222697 
L 386.677333 729.194339 
M 467.761955 737.413729 
L 386.677333 729.194339 
M 467.761955 737.413729 
L 511.084627 754.604913 
M 532.63622 749.146797 
L 511.084627 754.604913 
M 532.63622 24.37896 
L 530.787814 23.64548 
M 451.781984 43.654347 
L 530.787814 23.64548 
M 451.781984 43.654347 
L 405.192272 42.317173 
" style="fill:none;stroke:#00bac9;stroke-linecap:square;"/>
   </g>
   <g id="line2d_4">
    <path clip-path="url(#p0343b5738f)" d="M 142.511024 767.550394 
L 142.511024 10.7 
" style="fill:none;stroke:#000000;stroke-linecap:square;"/>
   </g>
   <g id="patch_3">
    <path d="M 10.7 767.550394 
L 10.7 10.7 
" style="fill:none;stroke:#000000;stroke-linecap:square;stroke-linejoin:miter;stroke-width:0.8;"/>
   </g>
   <g id="patch_4">
    <path d="M 520.93622 767.550394 
L 520.93622 10.7 
" style="fill:none;stroke:#000000;stroke-linecap:square;stroke-linejoin:miter;stroke-width:0.8;"/>
   </g>
   <g id="patch_5">
    <path d="M 10.7 767.550394 
L 520.93622 767.550394 
" style="fill:none;stroke:#000000;stroke-linecap:square;stroke-linejoin:miter;stroke-width:0.8;"/>
   </g>
   <g id="patch_6">
    <path d="M 10.7 10.7 
L 520.93622 10.7 
" style="fill:none;stroke:#000000;stroke-linecap:square;stroke-linejoin:miter;stroke-width:0.8;"/>
   </g>
   <g id="PathCollection_1">
    <defs>
     <path d="M 0 2.236068 
C 0.593012 2.236068 1.161816 2.000462 1.581139 1.581139 
C 2.000462 1.161816 2.236068 0.593012 2.236068 0 
C 2.236068 -0.593012 2.000462 -1.161816 1.581139 -1.581139 
C 1.161816 -2.000462 0.593012 -2.236068 0 -2.236068 
C -0.593012 -2.236068 -1.161816 -2.000462 -1.581139 -1.581139 
C -2.000462 -1.161816 -2.236068 -0.593012 -2.236068 0 
C -2.236068 0.593012 -2.000462 1.161816 -1.581139 1.581139 
C -1.161816 2.000462 -0.593012 2.236068 0 2.236068 
z
" id="m348a28b5e0" style="stroke:#44525c;"/>
    </defs>
    <g clip-path="url(#p0343b5738f)">
     <use style="fill:#44525c;stroke:#44525c;" x="592.852605" xlink:href="#m348a28b5e0" y="380.121084"/>
     <use style="fill:#44525c;stroke:#44525c;" x="585.435928" xlink:href="#m348a28b5e0" y="356.067244"/>
     <use style="fill:#44525c;stroke:#44525c;" x="570.239635" xlink:href="#m348a28b5e0" y="336.000684"/>
     <use style="fill:#44525c;stroke:#44525c;" x="549.096622" xlink:href="#m348a28b5e0" y="322.341724"/>
     <use style="fill:#44525c;stroke:#44525c;" x="524.557049" xlink:href="#m348a28b5e0" y="316.737838"/>
     <use style="fill:#44525c;stroke:#44525c;" x="499.580751" xlink:href="#m348a28b5e0" y="319.864934"/>
     <use style="fill:#44525c;stroke:#44525c;" x="477.180239" xlink:href="#m348a28b5e0" y="331.345843"/>
     <use style="fill:#44525c;stroke:#44525c;" x="460.057338" xlink:href="#m348a28b5e0" y="349.795788"/>
     <use style="fill:#44525c;stroke:#44525c;" x="450.277336" xlink:href="#m348a28b5e0" y="372.989445"/>
     <use style="fill:#44525c;stroke:#44525c;" x="449.019836" xlink:href="#m348a28b5e0" y="398.12931"/>
     <use style="fill:#44525c;stroke:#44525c;" x="456.436513" xlink:href="#m348a28b5e0" y="422.18315"/>
     <use style="fill:#44525c;stroke:#44525c;" x="471.632806" xlink:href="#m348a28b5e0" y="442.24971"/>
     <use style="fill:#44525c;stroke:#44525c;" x="492.775819" xlink:href="#m348a28b5e0" y="455.90867"/>
     <use style="fill:#44525c;stroke:#44525c;" x="517.315392" xlink:href="#m348a28b5e0" y="461.512556"/>
     <use style="fill:#44525c;stroke:#44525c;" x="542.29169" xlink:href="#m348a28b5e0" y="458.38546"/>
     <use style="fill:#44525c;stroke:#44525c;" x="564.692202" xlink:href="#m348a28b5e0" y="446.904551"/>
     <use style="fill:#44525c;stroke:#44525c;" x="581.815103" xlink:href="#m348a28b5e0" y="428.454606"/>
     <use style="fill:#44525c;stroke:#44525c;" x="591.595105" xlink:href="#m348a28b5e0" y="405.260949"/>
     <use style="fill:#44525c;stroke:#44525c;" x="613.255831" xlink:href="#m348a28b5e0" y="365.639749"/>
     <use style="fill:#44525c;stroke:#44525c;" x="599.655782" xlink:href="#m348a28b5e0" y="335.480929"/>
     <use style="fill:#44525c;stroke:#44525c;" x="576.560988" xlink:href="#m348a28b5e0" y="311.792402"/>
     <use style="fill:#44525c;stroke:#44525c;" x="546.75703" xlink:href="#m348a28b5e0" y="297.431346"/>
     <use style="fill:#44525c;stroke:#44525c;" x="513.838701" xlink:href="#m348a28b5e0" y="294.12992"/>
     <use style="fill:#44525c;stroke:#44525c;" x="481.776435" xlink:href="#m348a28b5e0" y="302.286336"/>
     <use style="fill:#44525c;stroke:#44525c;" x="454.437428" xlink:href="#m348a28b5e0" y="320.916792"/>
     <use style="fill:#44525c;stroke:#44525c;" x="435.119143" xlink:href="#m348a28b5e0" y="347.774191"/>
     <use style="fill:#44525c;stroke:#44525c;" x="426.151668" xlink:href="#m348a28b5e0" y="379.619133"/>
     <use style="fill:#44525c;stroke:#44525c;" x="428.61661" xlink:href="#m348a28b5e0" y="412.610644"/>
     <use style="fill:#44525c;stroke:#44525c;" x="442.216659" xlink:href="#m348a28b5e0" y="442.769465"/>
     <use style="fill:#44525c;stroke:#44525c;" x="465.311453" xlink:href="#m348a28b5e0" y="466.457992"/>
     <use style="fill:#44525c;stroke:#44525c;" x="495.115411" xlink:href="#m348a28b5e0" y="480.819047"/>
     <use style="fill:#44525c;stroke:#44525c;" x="528.03374" xlink:href="#m348a28b5e0" y="484.120474"/>
     <use style="fill:#44525c;stroke:#44525c;" x="560.096006" xlink:href="#m348a28b5e0" y="475.964058"/>
     <use style="fill:#44525c;stroke:#44525c;" x="587.435013" xlink:href="#m348a28b5e0" y="457.333601"/>
     <use style="fill:#44525c;stroke:#44525c;" x="606.753298" xlink:href="#m348a28b5e0" y="430.476202"/>
     <use style="fill:#44525c;stroke:#44525c;" x="615.720773" xlink:href="#m348a28b5e0" y="398.631261"/>
     <use style="fill:#44525c;stroke:#44525c;" x="629.926414" xlink:href="#m348a28b5e0" y="346.391939"/>
     <use style="fill:#44525c;stroke:#44525c;" x="608.737872" xlink:href="#m348a28b5e0" y="311.69223"/>
     <use style="fill:#44525c;stroke:#44525c;" x="576.959148" xlink:href="#m348a28b5e0" y="286.332073"/>
     <use style="fill:#44525c;stroke:#44525c;" x="538.423233" xlink:href="#m348a28b5e0" y="273.370281"/>
     <use style="fill:#44525c;stroke:#44525c;" x="497.778128" xlink:href="#m348a28b5e0" y="274.370256"/>
     <use style="fill:#44525c;stroke:#44525c;" x="459.926226" xlink:href="#m348a28b5e0" y="289.211355"/>
     <use style="fill:#44525c;stroke:#44525c;" x="429.433043" xlink:href="#m348a28b5e0" y="316.103549"/>
     <use style="fill:#44525c;stroke:#44525c;" x="409.976476" xlink:href="#m348a28b5e0" y="351.803222"/>
     <use style="fill:#44525c;stroke:#44525c;" x="403.903306" xlink:href="#m348a28b5e0" y="392.004479"/>
     <use style="fill:#44525c;stroke:#44525c;" x="411.946027" xlink:href="#m348a28b5e0" y="431.858455"/>
     <use style="fill:#44525c;stroke:#44525c;" x="433.134569" xlink:href="#m348a28b5e0" y="466.558163"/>
     <use style="fill:#44525c;stroke:#44525c;" x="464.913293" xlink:href="#m348a28b5e0" y="491.91832"/>
     <use style="fill:#44525c;stroke:#44525c;" x="503.449208" xlink:href="#m348a28b5e0" y="504.880113"/>
     <use style="fill:#44525c;stroke:#44525c;" x="544.094313" xlink:href="#m348a28b5e0" y="503.880138"/>
     <use style="fill:#44525c;stroke:#44525c;" x="581.946215" xlink:href="#m348a28b5e0" y="489.039039"/>
     <use style="fill:#44525c;stroke:#44525c;" x="612.439398" xlink:href="#m348a28b5e0" y="462.146845"/>
     <use style="fill:#44525c;stroke:#44525c;" x="631.895965" xlink:href="#m348a28b5e0" y="426.447171"/>
     <use style="fill:#44525c;stroke:#44525c;" x="637.969135" xlink:href="#m348a28b5e0" y="386.245914"/>
     <use style="fill:#44525c;stroke:#44525c;" x="642.145048" xlink:href="#m348a28b5e0" y="323.188758"/>
     <use style="fill:#44525c;stroke:#44525c;" x="612.283666" xlink:href="#m348a28b5e0" y="285.709355"/>
     <use style="fill:#44525c;stroke:#44525c;" x="571.404439" xlink:href="#m348a28b5e0" y="260.703428"/>
     <use style="fill:#44525c;stroke:#44525c;" x="524.438001" xlink:href="#m348a28b5e0" y="251.187062"/>
     <use style="fill:#44525c;stroke:#44525c;" x="477.049195" xlink:href="#m348a28b5e0" y="258.308076"/>
     <use style="fill:#44525c;stroke:#44525c;" x="434.953808" xlink:href="#m348a28b5e0" y="281.207549"/>
     <use style="fill:#44525c;stroke:#44525c;" x="403.229177" xlink:href="#m348a28b5e0" y="317.123495"/>
     <use style="fill:#44525c;stroke:#44525c;" x="385.701753" xlink:href="#m348a28b5e0" y="361.72391"/>
     <use style="fill:#44525c;stroke:#44525c;" x="384.485593" xlink:href="#m348a28b5e0" y="409.629324"/>
     <use style="fill:#44525c;stroke:#44525c;" x="399.727393" xlink:href="#m348a28b5e0" y="455.061636"/>
     <use style="fill:#44525c;stroke:#44525c;" x="429.588775" xlink:href="#m348a28b5e0" y="492.541039"/>
     <use style="fill:#44525c;stroke:#44525c;" x="470.468002" xlink:href="#m348a28b5e0" y="517.546965"/>
     <use style="fill:#44525c;stroke:#44525c;" x="517.43444" xlink:href="#m348a28b5e0" y="527.063331"/>
     <use style="fill:#44525c;stroke:#44525c;" x="564.823246" xlink:href="#m348a28b5e0" y="519.942317"/>
     <use style="fill:#44525c;stroke:#44525c;" x="606.918633" xlink:href="#m348a28b5e0" y="497.042845"/>
     <use style="fill:#44525c;stroke:#44525c;" x="638.643264" xlink:href="#m348a28b5e0" y="461.126899"/>
     <use style="fill:#44525c;stroke:#44525c;" x="656.170688" xlink:href="#m348a28b5e0" y="416.526484"/>
     <use style="fill:#44525c;stroke:#44525c;" x="657.386848" xlink:href="#m348a28b5e0" y="368.62107"/>
     <use style="fill:#44525c;stroke:#44525c;" x="649.333524" xlink:href="#m348a28b5e0" y="296.922823"/>
     <use style="fill:#44525c;stroke:#44525c;" x="610.055143" xlink:href="#m348a28b5e0" y="258.568839"/>
     <use style="fill:#44525c;stroke:#44525c;" x="560.02771" xlink:href="#m348a28b5e0" y="235.961901"/>
     <use style="fill:#44525c;stroke:#44525c;" x="505.28527" xlink:href="#m348a28b5e0" y="231.828701"/>
     <use style="fill:#44525c;stroke:#44525c;" x="452.430571" xlink:href="#m348a28b5e0" y="246.667772"/>
     <use style="fill:#44525c;stroke:#44525c;" x="407.838656" xlink:href="#m348a28b5e0" y="278.689324"/>
     <use style="fill:#44525c;stroke:#44525c;" x="376.887982" xlink:href="#m348a28b5e0" y="324.031068"/>
     <use style="fill:#44525c;stroke:#44525c;" x="363.311648" xlink:href="#m348a28b5e0" y="377.224123"/>
     <use style="fill:#44525c;stroke:#44525c;" x="368.747164" xlink:href="#m348a28b5e0" y="431.852626"/>
     <use style="fill:#44525c;stroke:#44525c;" x="392.538917" xlink:href="#m348a28b5e0" y="481.32757"/>
     <use style="fill:#44525c;stroke:#44525c;" x="431.817297" xlink:href="#m348a28b5e0" y="519.681554"/>
     <use style="fill:#44525c;stroke:#44525c;" x="481.844731" xlink:href="#m348a28b5e0" y="542.288493"/>
     <use style="fill:#44525c;stroke:#44525c;" x="536.587171" xlink:href="#m348a28b5e0" y="546.421693"/>
     <use style="fill:#44525c;stroke:#44525c;" x="589.44187" xlink:href="#m348a28b5e0" y="531.582621"/>
     <use style="fill:#44525c;stroke:#44525c;" x="634.033785" xlink:href="#m348a28b5e0" y="499.56107"/>
     <use style="fill:#44525c;stroke:#44525c;" x="664.984459" xlink:href="#m348a28b5e0" y="454.219326"/>
     <use style="fill:#44525c;stroke:#44525c;" x="678.560793" xlink:href="#m348a28b5e0" y="401.026271"/>
     <use style="fill:#44525c;stroke:#44525c;" x="673.125277" xlink:href="#m348a28b5e0" y="346.397768"/>
     <use style="fill:#44525c;stroke:#44525c;" x="651.0626" xlink:href="#m348a28b5e0" y="268.548137"/>
     <use style="fill:#44525c;stroke:#44525c;" x="601.975238" xlink:href="#m348a28b5e0" y="231.313987"/>
     <use style="fill:#44525c;stroke:#44525c;" x="543.113375" xlink:href="#m348a28b5e0" y="213.114191"/>
     <use style="fill:#44525c;stroke:#44525c;" x="481.576619" xlink:href="#m348a28b5e0" y="216.14392"/>
     <use style="fill:#44525c;stroke:#44525c;" x="424.78721" xlink:href="#m348a28b5e0" y="240.037737"/>
     <use style="fill:#44525c;stroke:#44525c;" x="379.594784" xlink:href="#m348a28b5e0" y="281.913712"/>
     <use style="fill:#44525c;stroke:#44525c;" x="351.450226" xlink:href="#m348a28b5e0" y="336.720969"/>
     <use style="fill:#44525c;stroke:#44525c;" x="343.748185" xlink:href="#m348a28b5e0" y="397.848955"/>
     <use style="fill:#44525c;stroke:#44525c;" x="357.417635" xlink:href="#m348a28b5e0" y="457.924725"/>
     <use style="fill:#44525c;stroke:#44525c;" x="390.809841" xlink:href="#m348a28b5e0" y="509.702257"/>
     <use style="fill:#44525c;stroke:#44525c;" x="439.897203" xlink:href="#m348a28b5e0" y="546.936407"/>
     <use style="fill:#44525c;stroke:#44525c;" x="498.759066" xlink:href="#m348a28b5e0" y="565.136203"/>
     <use style="fill:#44525c;stroke:#44525c;" x="560.295822" xlink:href="#m348a28b5e0" y="562.106474"/>
     <use style="fill:#44525c;stroke:#44525c;" x="617.085231" xlink:href="#m348a28b5e0" y="538.212657"/>
     <use style="fill:#44525c;stroke:#44525c;" x="662.277657" xlink:href="#m348a28b5e0" y="496.336682"/>
     <use style="fill:#44525c;stroke:#44525c;" x="690.422215" xlink:href="#m348a28b5e0" y="441.529424"/>
     <use style="fill:#44525c;stroke:#44525c;" x="698.124256" xlink:href="#m348a28b5e0" y="380.401439"/>
     <use style="fill:#44525c;stroke:#44525c;" x="684.454806" xlink:href="#m348a28b5e0" y="320.325669"/>
     <use style="fill:#44525c;stroke:#44525c;" x="647.05728" xlink:href="#m348a28b5e0" y="239.058997"/>
     <use style="fill:#44525c;stroke:#44525c;" x="588.125585" xlink:href="#m348a28b5e0" y="204.97317"/>
     <use style="fill:#44525c;stroke:#44525c;" x="521.089863" xlink:href="#m348a28b5e0" y="193.098772"/>
     <use style="fill:#44525c;stroke:#44525c;" x="454.035605" xlink:href="#m348a28b5e0" y="204.868065"/>
     <use style="fill:#44525c;stroke:#44525c;" x="395.050553" xlink:href="#m348a28b5e0" y="238.861478"/>
     <use style="fill:#44525c;stroke:#44525c;" x="351.249166" xlink:href="#m348a28b5e0" y="290.978926"/>
     <use style="fill:#44525c;stroke:#44525c;" x="327.914545" xlink:href="#m348a28b5e0" y="354.934255"/>
     <use style="fill:#44525c;stroke:#44525c;" x="327.861195" xlink:href="#m348a28b5e0" y="423.013518"/>
     <use style="fill:#44525c;stroke:#44525c;" x="351.095535" xlink:href="#m348a28b5e0" y="487.005352"/>
     <use style="fill:#44525c;stroke:#44525c;" x="394.815161" xlink:href="#m348a28b5e0" y="539.191397"/>
     <use style="fill:#44525c;stroke:#44525c;" x="453.746856" xlink:href="#m348a28b5e0" y="573.277223"/>
     <use style="fill:#44525c;stroke:#44525c;" x="520.782578" xlink:href="#m348a28b5e0" y="585.151622"/>
     <use style="fill:#44525c;stroke:#44525c;" x="587.836836" xlink:href="#m348a28b5e0" y="573.382329"/>
     <use style="fill:#44525c;stroke:#44525c;" x="646.821888" xlink:href="#m348a28b5e0" y="539.388916"/>
     <use style="fill:#44525c;stroke:#44525c;" x="690.623275" xlink:href="#m348a28b5e0" y="487.271467"/>
     <use style="fill:#44525c;stroke:#44525c;" x="713.957896" xlink:href="#m348a28b5e0" y="423.316139"/>
     <use style="fill:#44525c;stroke:#44525c;" x="714.011246" xlink:href="#m348a28b5e0" y="355.236876"/>
     <use style="fill:#44525c;stroke:#44525c;" x="690.776905" xlink:href="#m348a28b5e0" y="291.245042"/>
     <use style="fill:#44525c;stroke:#44525c;" x="637.199065" xlink:href="#m348a28b5e0" y="209.468414"/>
     <use style="fill:#44525c;stroke:#44525c;" x="568.741315" xlink:href="#m348a28b5e0" y="180.538822"/>
     <use style="fill:#44525c;stroke:#44525c;" x="494.517572" xlink:href="#m348a28b5e0" y="176.767814"/>
     <use style="fill:#44525c;stroke:#44525c;" x="423.480306" xlink:href="#m348a28b5e0" y="198.610224"/>
     <use style="fill:#44525c;stroke:#44525c;" x="364.197664" xlink:href="#m348a28b5e0" y="243.431577"/>
     <use style="fill:#44525c;stroke:#44525c;" x="323.820002" xlink:href="#m348a28b5e0" y="305.825723"/>
     <use style="fill:#44525c;stroke:#44525c;" x="307.217468" xlink:href="#m348a28b5e0" y="378.267012"/>
     <use style="fill:#44525c;stroke:#44525c;" x="316.392566" xlink:href="#m348a28b5e0" y="452.017965"/>
     <use style="fill:#44525c;stroke:#44525c;" x="350.238661" xlink:href="#m348a28b5e0" y="518.183113"/>
     <use style="fill:#44525c;stroke:#44525c;" x="404.673376" xlink:href="#m348a28b5e0" y="568.78198"/>
     <use style="fill:#44525c;stroke:#44525c;" x="473.131126" xlink:href="#m348a28b5e0" y="597.711571"/>
     <use style="fill:#44525c;stroke:#44525c;" x="547.354869" xlink:href="#m348a28b5e0" y="601.48258"/>
     <use style="fill:#44525c;stroke:#44525c;" x="618.392135" xlink:href="#m348a28b5e0" y="579.64017"/>
     <use style="fill:#44525c;stroke:#44525c;" x="677.674777" xlink:href="#m348a28b5e0" y="534.818817"/>
     <use style="fill:#44525c;stroke:#44525c;" x="718.052438" xlink:href="#m348a28b5e0" y="472.424671"/>
     <use style="fill:#44525c;stroke:#44525c;" x="734.654973" xlink:href="#m348a28b5e0" y="399.983381"/>
     <use style="fill:#44525c;stroke:#44525c;" x="725.479875" xlink:href="#m348a28b5e0" y="326.232429"/>
     <use style="fill:#44525c;stroke:#44525c;" x="691.63378" xlink:href="#m348a28b5e0" y="260.067281"/>
     <use style="fill:#44525c;stroke:#44525c;" x="621.525678" xlink:href="#m348a28b5e0" y="180.786353"/>
     <use style="fill:#44525c;stroke:#44525c;" x="544.203313" xlink:href="#m348a28b5e0" y="158.947106"/>
     <use style="fill:#44525c;stroke:#44525c;" x="464.074592" xlink:href="#m348a28b5e0" y="164.870734"/>
     <use style="fill:#44525c;stroke:#44525c;" x="390.804232" xlink:href="#m348a28b5e0" y="197.842762"/>
     <use style="fill:#44525c;stroke:#44525c;" x="333.229695" xlink:href="#m348a28b5e0" y="253.886255"/>
     <use style="fill:#44525c;stroke:#44525c;" x="298.295348" xlink:href="#m348a28b5e0" y="326.241579"/>
     <use style="fill:#44525c;stroke:#44525c;" x="290.21476" xlink:href="#m348a28b5e0" y="406.18159"/>
     <use style="fill:#44525c;stroke:#44525c;" x="309.962604" xlink:href="#m348a28b5e0" y="484.064346"/>
     <use style="fill:#44525c;stroke:#44525c;" x="355.156976" xlink:href="#m348a28b5e0" y="550.496042"/>
     <use style="fill:#44525c;stroke:#44525c;" x="420.346763" xlink:href="#m348a28b5e0" y="597.464041"/>
     <use style="fill:#44525c;stroke:#44525c;" x="497.669128" xlink:href="#m348a28b5e0" y="619.303288"/>
     <use style="fill:#44525c;stroke:#44525c;" x="577.797849" xlink:href="#m348a28b5e0" y="613.379659"/>
     <use style="fill:#44525c;stroke:#44525c;" x="651.068209" xlink:href="#m348a28b5e0" y="580.407631"/>
     <use style="fill:#44525c;stroke:#44525c;" x="708.642746" xlink:href="#m348a28b5e0" y="524.364139"/>
     <use style="fill:#44525c;stroke:#44525c;" x="743.577093" xlink:href="#m348a28b5e0" y="452.008814"/>
     <use style="fill:#44525c;stroke:#44525c;" x="751.657681" xlink:href="#m348a28b5e0" y="372.068804"/>
     <use style="fill:#44525c;stroke:#44525c;" x="731.909837" xlink:href="#m348a28b5e0" y="294.186048"/>
     <use style="fill:#44525c;stroke:#44525c;" x="686.715465" xlink:href="#m348a28b5e0" y="227.754352"/>
     <use style="fill:#44525c;stroke:#44525c;" x="600.227746" xlink:href="#m348a28b5e0" y="153.998311"/>
     <use style="fill:#44525c;stroke:#44525c;" x="515.027755" xlink:href="#m348a28b5e0" y="141.058909"/>
     <use style="fill:#44525c;stroke:#44525c;" x="430.540407" xlink:href="#m348a28b5e0" y="158.03995"/>
     <use style="fill:#44525c;stroke:#44525c;" x="356.956136" xlink:href="#m348a28b5e0" y="202.89327"/>
     <use style="fill:#44525c;stroke:#44525c;" x="303.15027" xlink:href="#m348a28b5e0" y="270.208927"/>
     <use style="fill:#44525c;stroke:#44525c;" x="275.612595" xlink:href="#m348a28b5e0" y="351.867639"/>
     <use style="fill:#44525c;stroke:#44525c;" x="277.664584" xlink:href="#m348a28b5e0" y="438.020162"/>
     <use style="fill:#44525c;stroke:#44525c;" x="309.058746" xlink:href="#m348a28b5e0" y="518.275229"/>
     <use style="fill:#44525c;stroke:#44525c;" x="366.008422" xlink:href="#m348a28b5e0" y="582.952897"/>
     <use style="fill:#44525c;stroke:#44525c;" x="441.644695" xlink:href="#m348a28b5e0" y="624.252083"/>
     <use style="fill:#44525c;stroke:#44525c;" x="526.844686" xlink:href="#m348a28b5e0" y="637.191485"/>
     <use style="fill:#44525c;stroke:#44525c;" x="611.332034" xlink:href="#m348a28b5e0" y="620.210444"/>
     <use style="fill:#44525c;stroke:#44525c;" x="684.916305" xlink:href="#m348a28b5e0" y="575.357124"/>
     <use style="fill:#44525c;stroke:#44525c;" x="738.722171" xlink:href="#m348a28b5e0" y="508.041467"/>
     <use style="fill:#44525c;stroke:#44525c;" x="766.259846" xlink:href="#m348a28b5e0" y="426.382754"/>
     <use style="fill:#44525c;stroke:#44525c;" x="764.207857" xlink:href="#m348a28b5e0" y="340.230231"/>
     <use style="fill:#44525c;stroke:#44525c;" x="732.813695" xlink:href="#m348a28b5e0" y="259.975165"/>
     <use style="fill:#44525c;stroke:#44525c;" x="675.864019" xlink:href="#m348a28b5e0" y="195.297497"/>
     <use style="fill:#44525c;stroke:#44525c;" x="573.642738" xlink:href="#m348a28b5e0" y="130.044466"/>
     <use style="fill:#44525c;stroke:#44525c;" x="481.853325" xlink:href="#m348a28b5e0" y="127.642288"/>
     <use style="fill:#44525c;stroke:#44525c;" x="394.777882" xlink:href="#m348a28b5e0" y="156.778766"/>
     <use style="fill:#44525c;stroke:#44525c;" x="322.91901" xlink:href="#m348a28b5e0" y="213.939652"/>
     <use style="fill:#44525c;stroke:#44525c;" x="274.943899" xlink:href="#m348a28b5e0" y="292.230514"/>
     <use style="fill:#44525c;stroke:#44525c;" x="256.63912" xlink:href="#m348a28b5e0" y="382.208303"/>
     <use style="fill:#44525c;stroke:#44525c;" x="270.212479" xlink:href="#m348a28b5e0" y="473.02037"/>
     <use style="fill:#44525c;stroke:#44525c;" x="314.026816" xlink:href="#m348a28b5e0" y="553.713449"/>
     <use style="fill:#44525c;stroke:#44525c;" x="382.797472" xlink:href="#m348a28b5e0" y="614.554756"/>
     <use style="fill:#44525c;stroke:#44525c;" x="468.229703" xlink:href="#m348a28b5e0" y="648.205927"/>
     <use style="fill:#44525c;stroke:#44525c;" x="560.019116" xlink:href="#m348a28b5e0" y="650.608105"/>
     <use style="fill:#44525c;stroke:#44525c;" x="647.094559" xlink:href="#m348a28b5e0" y="621.471628"/>
     <use style="fill:#44525c;stroke:#44525c;" x="718.953431" xlink:href="#m348a28b5e0" y="564.310741"/>
     <use style="fill:#44525c;stroke:#44525c;" x="766.928542" xlink:href="#m348a28b5e0" y="486.01988"/>
     <use style="fill:#44525c;stroke:#44525c;" x="785.233321" xlink:href="#m348a28b5e0" y="396.042091"/>
     <use style="fill:#44525c;stroke:#44525c;" x="771.659962" xlink:href="#m348a28b5e0" y="305.230024"/>
     <use style="fill:#44525c;stroke:#44525c;" x="727.845625" xlink:href="#m348a28b5e0" y="224.536944"/>
     <use style="fill:#44525c;stroke:#44525c;" x="659.074969" xlink:href="#m348a28b5e0" y="163.695638"/>
     <use style="fill:#44525c;stroke:#44525c;" x="542.246203" xlink:href="#m348a28b5e0" y="109.800021"/>
     <use style="fill:#44525c;stroke:#44525c;" x="445.426219" xlink:href="#m348a28b5e0" y="119.356964"/>
     <use style="fill:#44525c;stroke:#44525c;" x="357.713852" xlink:href="#m348a28b5e0" y="161.451902"/>
     <use style="fill:#44525c;stroke:#44525c;" x="289.68853" xlink:href="#m348a28b5e0" y="231.007619"/>
     <use style="fill:#44525c;stroke:#44525c;" x="249.555047" xlink:href="#m348a28b5e0" y="319.634651"/>
     <use style="fill:#44525c;stroke:#44525c;" x="242.154197" xlink:href="#m348a28b5e0" y="416.643267"/>
     <use style="fill:#44525c;stroke:#44525c;" x="268.378541" xlink:href="#m348a28b5e0" y="510.332795"/>
     <use style="fill:#44525c;stroke:#44525c;" x="325.065075" xlink:href="#m348a28b5e0" y="589.40289"/>
     <use style="fill:#44525c;stroke:#44525c;" x="405.376552" xlink:href="#m348a28b5e0" y="644.31654"/>
     <use style="fill:#44525c;stroke:#44525c;" x="499.626238" xlink:href="#m348a28b5e0" y="668.450373"/>
     <use style="fill:#44525c;stroke:#44525c;" x="596.446221" xlink:href="#m348a28b5e0" y="658.89343"/>
     <use style="fill:#44525c;stroke:#44525c;" x="684.158589" xlink:href="#m348a28b5e0" y="616.798492"/>
     <use style="fill:#44525c;stroke:#44525c;" x="752.183911" xlink:href="#m348a28b5e0" y="547.242775"/>
     <use style="fill:#44525c;stroke:#44525c;" x="792.317394" xlink:href="#m348a28b5e0" y="458.615743"/>
     <use style="fill:#44525c;stroke:#44525c;" x="799.718244" xlink:href="#m348a28b5e0" y="361.607126"/>
     <use style="fill:#44525c;stroke:#44525c;" x="773.4939" xlink:href="#m348a28b5e0" y="267.917599"/>
     <use style="fill:#44525c;stroke:#44525c;" x="716.807366" xlink:href="#m348a28b5e0" y="188.847503"/>
     <use style="fill:#44525c;stroke:#44525c;" x="636.495889" xlink:href="#m348a28b5e0" y="133.933853"/>
     <use style="fill:#44525c;stroke:#44525c;" x="506.640506" xlink:href="#m348a28b5e0" y="94.056753"/>
     <use style="fill:#44525c;stroke:#44525c;" x="406.583291" xlink:href="#m348a28b5e0" y="116.741007"/>
     <use style="fill:#44525c;stroke:#44525c;" x="320.318719" xlink:href="#m348a28b5e0" y="172.278761"/>
     <use style="fill:#44525c;stroke:#44525c;" x="258.251574" xlink:href="#m348a28b5e0" y="253.971423"/>
     <use style="fill:#44525c;stroke:#44525c;" x="227.868132" xlink:href="#m348a28b5e0" y="351.965628"/>
     <use style="fill:#44525c;stroke:#44525c;" x="232.832958" xlink:href="#m348a28b5e0" y="454.441824"/>
     <use style="fill:#44525c;stroke:#44525c;" x="272.547317" xlink:href="#m348a28b5e0" y="549.03988"/>
     <use style="fill:#44525c;stroke:#44525c;" x="342.221034" xlink:href="#m348a28b5e0" y="624.349835"/>
     <use style="fill:#44525c;stroke:#44525c;" x="433.450446" xlink:href="#m348a28b5e0" y="671.288246"/>
     <use style="fill:#44525c;stroke:#44525c;" x="535.231935" xlink:href="#m348a28b5e0" y="684.19364"/>
     <use style="fill:#44525c;stroke:#44525c;" x="635.28915" xlink:href="#m348a28b5e0" y="661.509387"/>
     <use style="fill:#44525c;stroke:#44525c;" x="721.553722" xlink:href="#m348a28b5e0" y="605.971633"/>
     <use style="fill:#44525c;stroke:#44525c;" x="783.620867" xlink:href="#m348a28b5e0" y="524.27897"/>
     <use style="fill:#44525c;stroke:#44525c;" x="814.004309" xlink:href="#m348a28b5e0" y="426.284766"/>
     <use style="fill:#44525c;stroke:#44525c;" x="809.039483" xlink:href="#m348a28b5e0" y="323.80857"/>
     <use style="fill:#44525c;stroke:#44525c;" x="769.325124" xlink:href="#m348a28b5e0" y="229.210513"/>
     <use style="fill:#44525c;stroke:#44525c;" x="699.651407" xlink:href="#m348a28b5e0" y="153.900559"/>
     <use style="fill:#44525c;stroke:#44525c;" x="608.421995" xlink:href="#m348a28b5e0" y="106.962148"/>
     <use style="fill:#44525c;stroke:#44525c;" x="467.541226" xlink:href="#m348a28b5e0" y="83.506445"/>
     <use style="fill:#44525c;stroke:#44525c;" x="366.233568" xlink:href="#m348a28b5e0" y="120.199673"/>
     <use style="fill:#44525c;stroke:#44525c;" x="283.585333" xlink:href="#m348a28b5e0" y="189.329291"/>
     <use style="fill:#44525c;stroke:#44525c;" x="229.56512" xlink:href="#m348a28b5e0" y="282.557246"/>
     <use style="fill:#44525c;stroke:#44525c;" x="210.688559" xlink:href="#m348a28b5e0" y="388.638863"/>
     <use style="fill:#44525c;stroke:#44525c;" x="229.232448" xlink:href="#m348a28b5e0" y="494.779138"/>
     <use style="fill:#44525c;stroke:#44525c;" x="282.960107" xlink:href="#m348a28b5e0" y="588.175998"/>
     <use style="fill:#44525c;stroke:#44525c;" x="365.391225" xlink:href="#m348a28b5e0" y="657.564392"/>
     <use style="fill:#44525c;stroke:#44525c;" x="466.583336" xlink:href="#m348a28b5e0" y="694.575018"/>
     <use style="fill:#44525c;stroke:#44525c;" x="574.331215" xlink:href="#m348a28b5e0" y="694.743949"/>
     <use style="fill:#44525c;stroke:#44525c;" x="675.638873" xlink:href="#m348a28b5e0" y="658.050721"/>
     <use style="fill:#44525c;stroke:#44525c;" x="758.287108" xlink:href="#m348a28b5e0" y="588.921103"/>
     <use style="fill:#44525c;stroke:#44525c;" x="812.307321" xlink:href="#m348a28b5e0" y="495.693147"/>
     <use style="fill:#44525c;stroke:#44525c;" x="831.183882" xlink:href="#m348a28b5e0" y="389.611531"/>
     <use style="fill:#44525c;stroke:#44525c;" x="812.639993" xlink:href="#m348a28b5e0" y="283.471255"/>
     <use style="fill:#44525c;stroke:#44525c;" x="758.912334" xlink:href="#m348a28b5e0" y="190.074396"/>
     <use style="fill:#44525c;stroke:#44525c;" x="676.481216" xlink:href="#m348a28b5e0" y="120.686002"/>
     <use style="fill:#44525c;stroke:#44525c;" x="575.289105" xlink:href="#m348a28b5e0" y="83.675376"/>
     <use style="fill:#44525c;stroke:#44525c;" x="425.761476" xlink:href="#m348a28b5e0" y="78.726311"/>
     <use style="fill:#44525c;stroke:#44525c;" x="325.338543" xlink:href="#m348a28b5e0" y="129.99732"/>
     <use style="fill:#44525c;stroke:#44525c;" x="248.507588" xlink:href="#m348a28b5e0" y="212.523"/>
     <use style="fill:#44525c;stroke:#44525c;" x="204.535539" xlink:href="#m348a28b5e0" y="316.349498"/>
     <use style="fill:#44525c;stroke:#44525c;" x="198.726059" xlink:href="#m348a28b5e0" y="428.953823"/>
     <use style="fill:#44525c;stroke:#44525c;" x="231.77993" xlink:href="#m348a28b5e0" y="536.754238"/>
     <use style="fill:#44525c;stroke:#44525c;" x="299.710257" xlink:href="#m348a28b5e0" y="626.748391"/>
     <use style="fill:#44525c;stroke:#44525c;" x="394.323749" xlink:href="#m348a28b5e0" y="688.081703"/>
     <use style="fill:#44525c;stroke:#44525c;" x="504.208553" xlink:href="#m348a28b5e0" y="713.356421"/>
     <use style="fill:#44525c;stroke:#44525c;" x="616.110965" xlink:href="#m348a28b5e0" y="699.524083"/>
     <use style="fill:#44525c;stroke:#44525c;" x="716.533898" xlink:href="#m348a28b5e0" y="648.253074"/>
     <use style="fill:#44525c;stroke:#44525c;" x="793.364853" xlink:href="#m348a28b5e0" y="565.727394"/>
     <use style="fill:#44525c;stroke:#44525c;" x="837.336902" xlink:href="#m348a28b5e0" y="461.900896"/>
     <use style="fill:#44525c;stroke:#44525c;" x="843.146382" xlink:href="#m348a28b5e0" y="349.296571"/>
     <use style="fill:#44525c;stroke:#44525c;" x="810.092511" xlink:href="#m348a28b5e0" y="241.496156"/>
     <use style="fill:#44525c;stroke:#44525c;" x="742.162184" xlink:href="#m348a28b5e0" y="151.502003"/>
     <use style="fill:#44525c;stroke:#44525c;" x="647.548692" xlink:href="#m348a28b5e0" y="90.168691"/>
     <use style="fill:#44525c;stroke:#44525c;" x="537.663888" xlink:href="#m348a28b5e0" y="64.893972"/>
     <use style="fill:#44525c;stroke:#44525c;" x="382.19444" xlink:href="#m348a28b5e0" y="80.166618"/>
     <use style="fill:#44525c;stroke:#44525c;" x="284.891527" xlink:href="#m348a28b5e0" y="146.251571"/>
     <use style="fill:#44525c;stroke:#44525c;" x="216.059127" xlink:href="#m348a28b5e0" y="241.630673"/>
     <use style="fill:#44525c;stroke:#44525c;" x="183.999351" xlink:href="#m348a28b5e0" y="354.799798"/>
     <use style="fill:#44525c;stroke:#44525c;" x="192.579149" xlink:href="#m348a28b5e0" y="472.109077"/>
     <use style="fill:#44525c;stroke:#44525c;" x="240.763659" xlink:href="#m348a28b5e0" y="579.409265"/>
     <use style="fill:#44525c;stroke:#44525c;" x="322.741117" xlink:href="#m348a28b5e0" y="663.758394"/>
     <use style="fill:#44525c;stroke:#44525c;" x="428.623835" xlink:href="#m348a28b5e0" y="714.98269"/>
     <use style="fill:#44525c;stroke:#44525c;" x="545.640776" xlink:href="#m348a28b5e0" y="726.903802"/>
     <use style="fill:#44525c;stroke:#44525c;" x="659.678001" xlink:href="#m348a28b5e0" y="698.083776"/>
     <use style="fill:#44525c;stroke:#44525c;" x="756.980913" xlink:href="#m348a28b5e0" y="631.998823"/>
     <use style="fill:#44525c;stroke:#44525c;" x="825.813314" xlink:href="#m348a28b5e0" y="536.61972"/>
     <use style="fill:#44525c;stroke:#44525c;" x="857.87309" xlink:href="#m348a28b5e0" y="423.450596"/>
     <use style="fill:#44525c;stroke:#44525c;" x="849.293292" xlink:href="#m348a28b5e0" y="306.141316"/>
     <use style="fill:#44525c;stroke:#44525c;" x="801.108782" xlink:href="#m348a28b5e0" y="198.841129"/>
     <use style="fill:#44525c;stroke:#44525c;" x="719.131323" xlink:href="#m348a28b5e0" y="114.492"/>
     <use style="fill:#44525c;stroke:#44525c;" x="613.248606" xlink:href="#m348a28b5e0" y="63.267704"/>
     <use style="fill:#44525c;stroke:#44525c;" x="496.231665" xlink:href="#m348a28b5e0" y="51.346592"/>
     <use style="fill:#44525c;stroke:#44525c;" x="337.794509" xlink:href="#m348a28b5e0" y="88.140951"/>
     <use style="fill:#44525c;stroke:#44525c;" x="245.896632" xlink:href="#m348a28b5e0" y="168.930661"/>
     <use style="fill:#44525c;stroke:#44525c;" x="187.172572" xlink:href="#m348a28b5e0" y="276.279096"/>
     <use style="fill:#44525c;stroke:#44525c;" x="168.705349" xlink:href="#m348a28b5e0" y="397.238439"/>
     <use style="fill:#44525c;stroke:#44525c;" x="192.722371" xlink:href="#m348a28b5e0" y="517.219214"/>
     <use style="fill:#44525c;stroke:#44525c;" x="256.326804" xlink:href="#m348a28b5e0" y="621.749936"/>
     <use style="fill:#44525c;stroke:#44525c;" x="351.847047" xlink:href="#m348a28b5e0" y="698.2227"/>
     <use style="fill:#44525c;stroke:#44525c;" x="467.761953" xlink:href="#m348a28b5e0" y="737.413722"/>
     <use style="fill:#44525c;stroke:#44525c;" x="590.090459" xlink:href="#m348a28b5e0" y="734.596043"/>
     <use style="fill:#44525c;stroke:#44525c;" x="704.077932" xlink:href="#m348a28b5e0" y="690.109443"/>
     <use style="fill:#44525c;stroke:#44525c;" x="795.975809" xlink:href="#m348a28b5e0" y="609.319733"/>
     <use style="fill:#44525c;stroke:#44525c;" x="854.699869" xlink:href="#m348a28b5e0" y="501.971297"/>
     <use style="fill:#44525c;stroke:#44525c;" x="873.167091" xlink:href="#m348a28b5e0" y="381.011955"/>
     <use style="fill:#44525c;stroke:#44525c;" x="849.15007" xlink:href="#m348a28b5e0" y="261.03118"/>
     <use style="fill:#44525c;stroke:#44525c;" x="785.545637" xlink:href="#m348a28b5e0" y="156.500458"/>
     <use style="fill:#44525c;stroke:#44525c;" x="690.025394" xlink:href="#m348a28b5e0" y="80.027694"/>
     <use style="fill:#44525c;stroke:#44525c;" x="574.110488" xlink:href="#m348a28b5e0" y="40.836671"/>
     <use style="fill:#44525c;stroke:#44525c;" x="451.781982" xlink:href="#m348a28b5e0" y="43.654351"/>
    </g>
   </g>
   <g id="PathCollection_2">
    <defs>
     <path d="M 0 2.236068 
C 0.593012 2.236068 1.161816 2.000462 1.581139 1.581139 
C 2.000462 1.161816 2.236068 0.593012 2.236068 0 
C 2.236068 -0.593012 2.000462 -1.161816 1.581139 -1.581139 
C 1.161816 -2.000462 0.593012 -2.236068 0 -2.236068 
C -0.593012 -2.236068 -1.161816 -2.000462 -1.581139 -1.581139 
C -2.000462 -1.161816 -2.236068 -0.593012 -2.236068 0 
C -2.236068 0.593012 -2.000462 1.161816 -1.581139 1.581139 
C -1.161816 2.000462 -0.593012 2.236068 0 2.236068 
z
" id="m79ead3c20a" style="stroke:#5aa0df;"/>
    </defs>
    <g clip-path="url(#p0343b5738f)">
     <use style="fill:#5aa0df;stroke:#5aa0df;" x="569.566929" xlink:href="#m79ead3c20a" y="389.125197"/>
     <use style="fill:#5aa0df;stroke:#5aa0df;" x="566.634138" xlink:href="#m79ead3c20a" y="372.492517"/>
     <use style="fill:#5aa0df;stroke:#5aa0df;" x="558.1895" xlink:href="#m79ead3c20a" y="357.865981"/>
     <use style="fill:#5aa0df;stroke:#5aa0df;" x="545.251575" xlink:href="#m79ead3c20a" y="347.009771"/>
     <use style="fill:#5aa0df;stroke:#5aa0df;" x="529.380854" xlink:href="#m79ead3c20a" y="341.233301"/>
     <use style="fill:#5aa0df;stroke:#5aa0df;" x="512.491587" xlink:href="#m79ead3c20a" y="341.233301"/>
     <use style="fill:#5aa0df;stroke:#5aa0df;" x="496.620866" xlink:href="#m79ead3c20a" y="347.009771"/>
     <use style="fill:#5aa0df;stroke:#5aa0df;" x="483.682941" xlink:href="#m79ead3c20a" y="357.865981"/>
     <use style="fill:#5aa0df;stroke:#5aa0df;" x="475.238303" xlink:href="#m79ead3c20a" y="372.492517"/>
     <use style="fill:#5aa0df;stroke:#5aa0df;" x="472.305512" xlink:href="#m79ead3c20a" y="389.125197"/>
     <use style="fill:#5aa0df;stroke:#5aa0df;" x="475.238303" xlink:href="#m79ead3c20a" y="405.757877"/>
     <use style="fill:#5aa0df;stroke:#5aa0df;" x="483.682941" xlink:href="#m79ead3c20a" y="420.384413"/>
     <use style="fill:#5aa0df;stroke:#5aa0df;" x="496.620866" xlink:href="#m79ead3c20a" y="431.240623"/>
     <use style="fill:#5aa0df;stroke:#5aa0df;" x="512.491587" xlink:href="#m79ead3c20a" y="437.017092"/>
     <use style="fill:#5aa0df;stroke:#5aa0df;" x="529.380854" xlink:href="#m79ead3c20a" y="437.017092"/>
     <use style="fill:#5aa0df;stroke:#5aa0df;" x="545.251575" xlink:href="#m79ead3c20a" y="431.240623"/>
     <use style="fill:#5aa0df;stroke:#5aa0df;" x="558.1895" xlink:href="#m79ead3c20a" y="420.384413"/>
     <use style="fill:#5aa0df;stroke:#5aa0df;" x="566.634138" xlink:href="#m79ead3c20a" y="405.757877"/>
    </g>
   </g>
   <g id="PathCollection_3">
    <g clip-path="url(#p0343b5738f)">
     <use style="fill:#5aa0df;stroke:#5aa0df;" x="293.557156" xlink:href="#m79ead3c20a" y="102.819026"/>
     <use style="fill:#5aa0df;stroke:#5aa0df;" x="209.347302" xlink:href="#m79ead3c20a" y="197.853616"/>
     <use style="fill:#5aa0df;stroke:#5aa0df;" x="162.719693" xlink:href="#m79ead3c20a" y="315.958387"/>
     <use style="fill:#5aa0df;stroke:#5aa0df;" x="159.298252" xlink:href="#m79ead3c20a" y="442.888155"/>
     <use style="fill:#5aa0df;stroke:#5aa0df;" x="199.495696" xlink:href="#m79ead3c20a" y="563.333312"/>
     <use style="fill:#5aa0df;stroke:#5aa0df;" x="278.463633" xlink:href="#m79ead3c20a" y="662.766408"/>
     <use style="fill:#5aa0df;stroke:#5aa0df;" x="386.67733" xlink:href="#m79ead3c20a" y="729.194332"/>
     <use style="fill:#5aa0df;stroke:#5aa0df;" x="511.084626" xlink:href="#m79ead3c20a" y="754.60492"/>
     <use style="fill:#5aa0df;stroke:#5aa0df;" x="636.680174" xlink:href="#m79ead3c20a" y="735.933217"/>
     <use style="fill:#5aa0df;stroke:#5aa0df;" x="748.315285" xlink:href="#m79ead3c20a" y="675.431368"/>
     <use style="fill:#5aa0df;stroke:#5aa0df;" x="832.525139" xlink:href="#m79ead3c20a" y="580.396778"/>
     <use style="fill:#5aa0df;stroke:#5aa0df;" x="879.152748" xlink:href="#m79ead3c20a" y="462.292007"/>
     <use style="fill:#5aa0df;stroke:#5aa0df;" x="882.574189" xlink:href="#m79ead3c20a" y="335.362239"/>
     <use style="fill:#5aa0df;stroke:#5aa0df;" x="842.376744" xlink:href="#m79ead3c20a" y="214.917081"/>
     <use style="fill:#5aa0df;stroke:#5aa0df;" x="763.408808" xlink:href="#m79ead3c20a" y="115.483986"/>
     <use style="fill:#5aa0df;stroke:#5aa0df;" x="655.195111" xlink:href="#m79ead3c20a" y="49.056061"/>
     <use style="fill:#5aa0df;stroke:#5aa0df;" x="530.787815" xlink:href="#m79ead3c20a" y="23.645474"/>
     <use style="fill:#5aa0df;stroke:#5aa0df;" x="405.192266" xlink:href="#m79ead3c20a" y="42.317176"/>
    </g>
   </g>
  </g>
 </g>
 <defs>
  <clipPath id="p0343b5738f">
   <rect height="756.850394" width="510.23622" x="10.7" y="10.7"/>
  </clipPath>
 </defs>
</svg>
