<?xml version="1.0" encoding="utf-8" standalone="no"?>
<!DOCTYPE svg PUBLIC "-//W3C//DTD SVG 1.1//EN"
  "http://www.w3.org/Graphics/SVG/1.1/DTD/svg11.dtd">
<!-- Created with matplotlib (https://matplotlib.org/) -->
<svg height="834.943307pt" version="1.1" viewBox="0 0 588.329134 834.943307" width="588.329134pt" xmlns="http://www.w3.org/2000/svg" xmlns:xlink="http://www.w3.org/1999/xlink">
 <defs>
  <style type="text/css">
*{stroke-linecap:butt;stroke-linejoin:round;}
  </style>
 </defs>
 <g id="figure_1">
  <g id="patch_1">
   <path d="M 0 834.943307 
L 588.329134 834.943307 
L 588.329134 0 
L 0 0 
z
" style="fill:none;"/>
  </g>
  <g id="axes_1">
   <g id="patch_2">
    <path d="M 10.7 824.243307 
L 577.629134 824.243307 
L 577.629134 10.7 
L 10.7 10.7 
z
" style="fill:none;"/>
   </g>
   <g id="matplotlib.axis_1"/>
   <g id="matplotlib.axis_2"/>
   <g id="line2d_1">
    <path clip-path="url(#p8baa85101c)" d="M 382.678951 400.739228 
L 398.099239 376.720588 
M 382.678951 400.739228 
L 404.550158 434.147529 
M 362.454058 358.723757 
L 398.099239 376.720588 
M 362.454058 358.723757 
L 363.799099 330.212857 
M 323.931052 332.44974 
L 363.799099 330.212857 
M 323.931052 332.44974 
L 310.840442 307.086062 
M 277.432141 328.957269 
L 310.840442 307.086062 
M 277.432141 328.957269 
L 253.413501 313.536982 
M 235.416671 349.182163 
L 253.413501 313.536982 
M 235.416671 349.182163 
L 206.905771 347.837121 
M 209.142654 387.705169 
L 206.905771 347.837121 
M 209.142654 387.705169 
L 183.778976 400.795778 
M 205.650183 434.204079 
L 183.778976 400.795778 
M 205.650183 434.204079 
L 190.229895 458.22272 
M 225.875076 476.21955 
L 190.229895 458.22272 
M 225.875076 476.21955 
L 224.530035 504.73045 
M 264.398082 502.493567 
L 224.530035 504.73045 
M 264.398082 502.493567 
L 277.488691 527.857245 
M 310.896993 505.986038 
L 277.488691 527.857245 
M 310.896993 505.986038 
L 334.915633 521.406325 
M 352.912463 485.761144 
L 334.915633 521.406325 
M 352.912463 485.761144 
L 381.423363 487.106186 
M 379.18648 447.238138 
L 381.423363 487.106186 
M 379.18648 447.238138 
L 404.550158 434.147529 
M 398.099239 376.720588 
L 405.969744 347.298355 
M 398.099239 376.720588 
L 426.077333 412.602383 
M 363.799099 330.212857 
L 405.969744 347.298355 
M 363.799099 330.212857 
L 355.904048 300.7972 
M 310.840442 307.086062 
L 355.904048 300.7972 
M 310.840442 307.086062 
L 289.295297 285.558887 
M 253.413501 313.536982 
L 289.295297 285.558887 
M 253.413501 313.536982 
L 223.991268 305.666477 
M 206.905771 347.837121 
L 223.991268 305.666477 
M 206.905771 347.837121 
L 177.490114 355.732173 
M 183.778976 400.795778 
L 177.490114 355.732173 
M 183.778976 400.795778 
L 162.251801 422.340924 
M 190.229895 458.22272 
L 162.251801 422.340924 
M 190.229895 458.22272 
L 182.35939 487.644952 
M 224.530035 504.73045 
L 182.35939 487.644952 
M 224.530035 504.73045 
L 232.425086 534.146107 
M 277.488691 527.857245 
L 232.425086 534.146107 
M 277.488691 527.857245 
L 299.033837 549.38442 
M 334.915633 521.406325 
L 299.033837 549.38442 
M 334.915633 521.406325 
L 364.337866 529.27683 
M 381.423363 487.106186 
L 364.337866 529.27683 
M 381.423363 487.106186 
L 410.83902 479.211134 
M 404.550158 434.147529 
L 410.83902 479.211134 
M 404.550158 434.147529 
L 426.077333 412.602383 
M 405.969744 347.298355 
L 405.144742 314.63577 
M 405.969744 347.298355 
L 441.694152 383.903244 
M 355.904048 300.7972 
L 405.144742 314.63577 
M 355.904048 300.7972 
L 338.858269 272.923069 
M 289.295297 285.558887 
L 338.858269 272.923069 
M 289.295297 285.558887 
L 260.596158 269.942068 
M 223.991268 305.666477 
L 260.596158 269.942068 
M 223.991268 305.666477 
L 191.328683 306.491478 
M 177.490114 355.732173 
L 191.328683 306.491478 
M 177.490114 355.732173 
L 149.615983 372.777952 
M 162.251801 422.340924 
L 149.615983 372.777952 
M 162.251801 422.340924 
L 146.634981 451.040063 
M 182.35939 487.644952 
L 146.634981 451.040063 
M 182.35939 487.644952 
L 183.184392 520.307537 
M 232.425086 534.146107 
L 183.184392 520.307537 
M 232.425086 534.146107 
L 249.470865 562.020238 
M 299.033837 549.38442 
L 249.470865 562.020238 
M 299.033837 549.38442 
L 327.732976 565.001239 
M 364.337866 529.27683 
L 327.732976 565.001239 
M 364.337866 529.27683 
L 397.00045 528.451829 
M 410.83902 479.211134 
L 397.00045 528.451829 
M 410.83902 479.211134 
L 438.713151 462.165356 
M 426.077333 412.602383 
L 438.713151 462.165356 
M 426.077333 412.602383 
L 441.694152 383.903244 
M 405.144742 314.63577 
L 395.013463 281.066158 
M 405.144742 314.63577 
L 449.705035 349.765467 
M 338.858269 272.923069 
L 395.013463 281.066158 
M 338.858269 272.923069 
L 313.29952 248.916577 
M 260.596158 269.942068 
L 313.29952 248.916577 
M 260.596158 269.942068 
L 226.45838 261.931186 
M 191.328683 306.491478 
L 226.45838 261.931186 
M 191.328683 306.491478 
L 157.759071 316.622757 
M 149.615983 372.777952 
L 157.759071 316.622757 
M 149.615983 372.777952 
L 125.60949 398.3367 
M 146.634981 451.040063 
L 125.60949 398.3367 
M 146.634981 451.040063 
L 138.624099 485.17784 
M 183.184392 520.307537 
L 138.624099 485.17784 
M 183.184392 520.307537 
L 193.315671 553.877149 
M 249.470865 562.020238 
L 193.315671 553.877149 
M 249.470865 562.020238 
L 275.029613 586.02673 
M 327.732976 565.001239 
L 275.029613 586.02673 
M 327.732976 565.001239 
L 361.870754 573.012121 
M 397.00045 528.451829 
L 361.870754 573.012121 
M 397.00045 528.451829 
L 430.570063 518.32055 
M 438.713151 462.165356 
L 430.570063 518.32055 
M 438.713151 462.165356 
L 462.719643 436.606607 
M 441.694152 383.903244 
L 462.719643 436.606607 
M 441.694152 383.903244 
L 449.705035 349.765467 
M 395.013463 281.066158 
L 375.516502 248.977186 
M 395.013463 281.066158 
L 448.864637 312.227138 
M 313.29952 248.916577 
L 375.516502 248.977186 
M 313.29952 248.916577 
L 280.370175 230.875196 
M 226.45838 261.931186 
L 280.370175 230.875196 
M 226.45838 261.931186 
L 188.920051 262.771583 
M 157.759071 316.622757 
L 188.920051 262.771583 
M 157.759071 316.622757 
L 125.670099 336.119719 
M 125.60949 398.3367 
L 125.670099 336.119719 
M 125.60949 398.3367 
L 107.56811 431.266046 
M 138.624099 485.17784 
L 107.56811 431.266046 
M 138.624099 485.17784 
L 139.464496 522.716169 
M 193.315671 553.877149 
L 139.464496 522.716169 
M 193.315671 553.877149 
L 212.812632 585.966121 
M 275.029613 586.02673 
L 212.812632 585.966121 
M 275.029613 586.02673 
L 307.958959 604.068111 
M 361.870754 573.012121 
L 307.958959 604.068111 
M 361.870754 573.012121 
L 399.409083 572.171724 
M 430.570063 518.32055 
L 399.409083 572.171724 
M 430.570063 518.32055 
L 462.659035 498.823589 
M 462.719643 436.606607 
L 462.659035 498.823589 
M 462.719643 436.606607 
L 480.761024 403.677261 
M 449.705035 349.765467 
L 480.761024 403.677261 
M 449.705035 349.765467 
L 448.864637 312.227138 
M 375.516502 248.977186 
L 347.138842 220.694649 
M 375.516502 248.977186 
L 438.43014 273.544916 
M 280.370175 230.875196 
L 347.138842 220.694649 
M 280.370175 230.875196 
L 241.653129 220.570634 
M 188.920051 262.771583 
L 241.653129 220.570634 
M 188.920051 262.771583 
L 150.237829 273.206081 
M 125.670099 336.119719 
L 150.237829 273.206081 
M 125.670099 336.119719 
L 97.387563 364.497378 
M 107.56811 431.266046 
L 97.387563 364.497378 
M 107.56811 431.266046 
L 97.263547 469.983092 
M 139.464496 522.716169 
L 97.263547 469.983092 
M 139.464496 522.716169 
L 149.898994 561.398391 
M 212.812632 585.966121 
L 149.898994 561.398391 
M 212.812632 585.966121 
L 241.190292 614.248658 
M 307.958959 604.068111 
L 241.190292 614.248658 
M 307.958959 604.068111 
L 346.676005 614.372673 
M 399.409083 572.171724 
L 346.676005 614.372673 
M 399.409083 572.171724 
L 438.091305 561.737226 
M 462.659035 498.823589 
L 438.091305 561.737226 
M 462.659035 498.823589 
L 490.941571 470.445929 
M 480.761024 403.677261 
L 490.941571 470.445929 
M 480.761024 403.677261 
L 491.065586 364.960215 
M 448.864637 312.227138 
L 491.065586 364.960215 
M 448.864637 312.227138 
L 438.43014 273.544916 
M 347.138842 220.694649 
L 310.880007 198.370425 
M 347.138842 220.694649 
L 418.191182 236.082145 
M 241.653129 220.570634 
L 310.880007 198.370425 
M 241.653129 220.570634 
L 199.089954 219.366707 
M 150.237829 273.206081 
L 199.089954 219.366707 
M 150.237829 273.206081 
L 112.775059 293.445038 
M 97.387563 364.497378 
L 112.775059 293.445038 
M 97.387563 364.497378 
L 75.063338 400.756213 
M 97.263547 469.983092 
L 75.063338 400.756213 
M 97.263547 469.983092 
L 96.05962 512.546267 
M 149.898994 561.398391 
L 96.05962 512.546267 
M 149.898994 561.398391 
L 170.137952 598.861162 
M 241.190292 614.248658 
L 170.137952 598.861162 
M 241.190292 614.248658 
L 277.449127 636.572882 
M 346.676005 614.372673 
L 277.449127 636.572882 
M 346.676005 614.372673 
L 389.23918 615.576601 
M 438.091305 561.737226 
L 389.23918 615.576601 
M 438.091305 561.737226 
L 475.554075 541.498269 
M 490.941571 470.445929 
L 475.554075 541.498269 
M 490.941571 470.445929 
L 513.265795 434.187094 
M 491.065586 364.960215 
L 513.265795 434.187094 
M 491.065586 364.960215 
L 492.269514 322.39704 
M 438.43014 273.544916 
L 492.269514 322.39704 
M 438.43014 273.544916 
L 418.191182 236.082145 
M 310.880007 198.370425 
L 268.202536 183.879231 
M 310.880007 198.370425 
L 388.477003 202.193662 
M 199.089954 219.366707 
L 268.202536 183.879231 
M 199.089954 219.366707 
L 154.884581 228.155688 
M 112.775059 293.445038 
L 154.884581 228.155688 
M 112.775059 293.445038 
L 78.886575 323.159217 
M 75.063338 400.756213 
L 78.886575 323.159217 
M 75.063338 400.756213 
L 60.572145 443.433685 
M 96.05962 512.546267 
L 60.572145 443.433685 
M 96.05962 512.546267 
L 104.848601 556.751639 
M 170.137952 598.861162 
L 104.848601 556.751639 
M 170.137952 598.861162 
L 199.85213 632.749645 
M 277.449127 636.572882 
L 199.85213 632.749645 
M 277.449127 636.572882 
L 320.126598 651.064076 
M 389.23918 615.576601 
L 320.126598 651.064076 
M 389.23918 615.576601 
L 433.444553 606.787619 
M 475.554075 541.498269 
L 433.444553 606.787619 
M 475.554075 541.498269 
L 509.442559 511.78409 
M 513.265795 434.187094 
L 509.442559 511.78409 
M 513.265795 434.187094 
L 527.756989 391.509622 
M 492.269514 322.39704 
L 527.756989 391.509622 
M 492.269514 322.39704 
L 483.480533 278.191668 
M 418.191182 236.082145 
L 483.480533 278.191668 
M 418.191182 236.082145 
L 388.477003 202.193662 
M 268.202536 183.879231 
L 220.960911 178.728336 
M 268.202536 183.879231 
L 350.139993 174.11205 
M 154.884581 228.155688 
L 220.960911 178.728336 
M 154.884581 228.155688 
L 111.396699 247.31572 
M 78.886575 323.159217 
L 111.396699 247.31572 
M 78.886575 323.159217 
L 50.804964 361.496227 
M 60.572145 443.433685 
L 50.804964 361.496227 
M 60.572145 443.433685 
L 55.421249 490.67531 
M 104.848601 556.751639 
L 55.421249 490.67531 
M 104.848601 556.751639 
L 124.008633 600.239522 
M 199.85213 632.749645 
L 124.008633 600.239522 
M 199.85213 632.749645 
L 238.189141 660.831257 
M 320.126598 651.064076 
L 238.189141 660.831257 
M 320.126598 651.064076 
L 367.368223 656.214972 
M 433.444553 606.787619 
L 367.368223 656.214972 
M 433.444553 606.787619 
L 476.932435 587.627587 
M 509.442559 511.78409 
L 476.932435 587.627587 
M 509.442559 511.78409 
L 537.52417 473.44708 
M 527.756989 391.509622 
L 537.52417 473.44708 
M 527.756989 391.509622 
L 532.907885 344.267997 
M 483.480533 278.191668 
L 532.907885 344.267997 
M 483.480533 278.191668 
L 464.320501 234.703786 
M 388.477003 202.193662 
L 464.320501 234.703786 
M 388.477003 202.193662 
L 350.139993 174.11205 
M 220.960911 178.728336 
L 171.314021 183.983904 
M 220.960911 178.728336 
L 304.516737 153.840058 
M 111.396699 247.31572 
L 171.314021 183.983904 
M 111.396699 247.31572 
L 71.028999 276.690617 
M 50.804964 361.496227 
L 71.028999 276.690617 
M 50.804964 361.496227 
L 30.532972 407.119483 
M 55.421249 490.67531 
L 30.532972 407.119483 
M 55.421249 490.67531 
L 60.676817 540.322199 
M 124.008633 600.239522 
L 60.676817 540.322199 
M 124.008633 600.239522 
L 153.383531 640.607222 
M 238.189141 660.831257 
L 153.383531 640.607222 
M 238.189141 660.831257 
L 283.812397 681.103249 
M 367.368223 656.214972 
L 283.812397 681.103249 
M 367.368223 656.214972 
L 417.015113 650.959403 
M 476.932435 587.627587 
L 417.015113 650.959403 
M 476.932435 587.627587 
L 517.300135 558.25269 
M 537.52417 473.44708 
L 517.300135 558.25269 
M 537.52417 473.44708 
L 557.796162 427.823824 
M 532.907885 344.267997 
L 557.796162 427.823824 
M 532.907885 344.267997 
L 527.652316 294.621108 
M 464.320501 234.703786 
L 527.652316 294.621108 
M 464.320501 234.703786 
L 434.945603 194.336085 
M 350.139993 174.11205 
L 434.945603 194.336085 
M 350.139993 174.11205 
L 304.516737 153.840058 
L 304.516737 153.840058 
" style="fill:none;stroke:#eb7a59;stroke-linecap:square;"/>
   </g>
   <g id="line2d_2">
    <path clip-path="url(#p8baa85101c)" d="M 361.350782 417.471654 
L 382.678951 400.739228 
M 361.350782 417.471654 
L 379.18648 447.238138 
M 352.349535 383.878546 
L 382.678951 400.739228 
M 352.349535 383.878546 
L 362.454058 358.723757 
M 327.757675 359.286685 
L 362.454058 358.723757 
M 327.757675 359.286685 
L 323.931052 332.44974 
M 294.164567 350.285438 
L 323.931052 332.44974 
M 294.164567 350.285438 
L 277.432141 328.957269 
M 260.571459 359.286685 
L 277.432141 328.957269 
M 260.571459 359.286685 
L 235.416671 349.182163 
M 235.979599 383.878546 
L 235.416671 349.182163 
M 235.979599 383.878546 
L 209.142654 387.705169 
M 226.978352 417.471654 
L 209.142654 387.705169 
M 226.978352 417.471654 
L 205.650183 434.204079 
M 235.979599 451.064761 
L 205.650183 434.204079 
M 235.979599 451.064761 
L 225.875076 476.21955 
M 260.571459 475.656622 
L 225.875076 476.21955 
M 260.571459 475.656622 
L 264.398082 502.493567 
M 294.164567 484.657869 
L 264.398082 502.493567 
M 294.164567 484.657869 
L 310.896993 505.986038 
M 327.757675 475.656622 
L 310.896993 505.986038 
M 327.757675 475.656622 
L 352.912463 485.761144 
M 352.349535 451.064761 
L 352.912463 485.761144 
M 352.349535 451.064761 
L 379.18648 447.238138 
" style="fill:none;stroke:#00bac9;stroke-linecap:square;"/>
   </g>
   <g id="line2d_3">
    <path clip-path="url(#p8baa85101c)" d="M 171.314021 183.983904 
L 121.624662 200.216636 
M 171.314021 183.983904 
L 253.368129 143.053344 
M 71.028999 276.690617 
L 121.624662 200.216636 
M 71.028999 276.690617 
L 36.113129 315.593249 
M 30.532972 407.119483 
L 36.113129 315.593249 
M 30.532972 407.119483 
L 19.746257 458.268092 
M 60.676817 540.322199 
L 19.746257 458.268092 
M 60.676817 540.322199 
L 76.90955 590.011558 
M 153.383531 640.607222 
L 76.90955 590.011558 
M 153.383531 640.607222 
L 192.286162 675.523092 
M 283.812397 681.103249 
L 192.286162 675.523092 
M 283.812397 681.103249 
L 334.961005 691.889963 
M 417.015113 650.959403 
L 334.961005 691.889963 
M 417.015113 650.959403 
L 466.704472 634.726671 
M 517.300135 558.25269 
L 466.704472 634.726671 
M 517.300135 558.25269 
L 552.216005 519.350059 
M 557.796162 427.823824 
L 552.216005 519.350059 
M 557.796162 427.823824 
L 568.582877 376.675216 
M 527.652316 294.621108 
L 568.582877 376.675216 
M 527.652316 294.621108 
L 511.419584 244.931749 
M 434.945603 194.336085 
L 511.419584 244.931749 
M 434.945603 194.336085 
L 396.042972 159.420215 
M 304.516737 153.840058 
L 396.042972 159.420215 
M 304.516737 153.840058 
L 253.368129 143.053344 
" style="fill:none;stroke:#00bac9;stroke-linecap:square;"/>
   </g>
   <g id="line2d_4">
    <path clip-path="url(#p8baa85101c)" d="M 10.7 700.93622 
L 577.629134 700.93622 
" style="fill:none;stroke:#000000;stroke-linecap:square;"/>
   </g>
   <g id="line2d_5">
    <path clip-path="url(#p8baa85101c)" d="M 10.7 134.007087 
L 577.629134 134.007087 
" style="fill:none;stroke:#000000;stroke-linecap:square;"/>
   </g>
   <g id="patch_3">
    <path d="M 10.7 824.243307 
L 10.7 10.7 
" style="fill:none;stroke:#000000;stroke-linecap:square;stroke-linejoin:miter;stroke-width:0.8;"/>
   </g>
   <g id="patch_4">
    <path d="M 577.629134 824.243307 
L 577.629134 10.7 
" style="fill:none;stroke:#000000;stroke-linecap:square;stroke-linejoin:miter;stroke-width:0.8;"/>
   </g>
   <g id="patch_5">
    <path d="M 10.7 824.243307 
L 577.629134 824.243307 
" style="fill:none;stroke:#000000;stroke-linecap:square;stroke-linejoin:miter;stroke-width:0.8;"/>
   </g>
   <g id="patch_6">
    <path d="M 10.7 10.7 
L 577.629134 10.7 
" style="fill:none;stroke:#000000;stroke-linecap:square;stroke-linejoin:miter;stroke-width:0.8;"/>
   </g>
   <g id="PathCollection_1">
    <defs>
     <path d="M 0 2.236068 
C 0.593012 2.236068 1.161816 2.000462 1.581139 1.581139 
C 2.000462 1.161816 2.236068 0.593012 2.236068 0 
C 2.236068 -0.593012 2.000462 -1.161816 1.581139 -1.581139 
C 1.161816 -2.000462 0.593012 -2.236068 0 -2.236068 
C -0.593012 -2.236068 -1.161816 -2.000462 -1.581139 -1.581139 
C -2.000462 -1.161816 -2.236068 -0.593012 -2.236068 0 
C -2.236068 0.593012 -2.000462 1.161816 -1.581139 1.581139 
C -1.161816 2.000462 -0.593012 2.236068 0 2.236068 
z
" id="m3e13ab8fbb" style="stroke:#44525c;"/>
    </defs>
    <g clip-path="url(#p8baa85101c)">
     <use style="fill:#44525c;stroke:#44525c;" x="382.678951" xlink:href="#m3e13ab8fbb" y="400.739228"/>
     <use style="fill:#44525c;stroke:#44525c;" x="362.454058" xlink:href="#m3e13ab8fbb" y="358.723757"/>
     <use style="fill:#44525c;stroke:#44525c;" x="323.931052" xlink:href="#m3e13ab8fbb" y="332.44974"/>
     <use style="fill:#44525c;stroke:#44525c;" x="277.432141" xlink:href="#m3e13ab8fbb" y="328.957269"/>
     <use style="fill:#44525c;stroke:#44525c;" x="235.416671" xlink:href="#m3e13ab8fbb" y="349.182163"/>
     <use style="fill:#44525c;stroke:#44525c;" x="209.142654" xlink:href="#m3e13ab8fbb" y="387.705169"/>
     <use style="fill:#44525c;stroke:#44525c;" x="205.650183" xlink:href="#m3e13ab8fbb" y="434.204079"/>
     <use style="fill:#44525c;stroke:#44525c;" x="225.875076" xlink:href="#m3e13ab8fbb" y="476.21955"/>
     <use style="fill:#44525c;stroke:#44525c;" x="264.398082" xlink:href="#m3e13ab8fbb" y="502.493567"/>
     <use style="fill:#44525c;stroke:#44525c;" x="310.896993" xlink:href="#m3e13ab8fbb" y="505.986038"/>
     <use style="fill:#44525c;stroke:#44525c;" x="352.912463" xlink:href="#m3e13ab8fbb" y="485.761144"/>
     <use style="fill:#44525c;stroke:#44525c;" x="379.18648" xlink:href="#m3e13ab8fbb" y="447.238138"/>
     <use style="fill:#44525c;stroke:#44525c;" x="398.099239" xlink:href="#m3e13ab8fbb" y="376.720588"/>
     <use style="fill:#44525c;stroke:#44525c;" x="363.799099" xlink:href="#m3e13ab8fbb" y="330.212857"/>
     <use style="fill:#44525c;stroke:#44525c;" x="310.840442" xlink:href="#m3e13ab8fbb" y="307.086062"/>
     <use style="fill:#44525c;stroke:#44525c;" x="253.413501" xlink:href="#m3e13ab8fbb" y="313.536982"/>
     <use style="fill:#44525c;stroke:#44525c;" x="206.905771" xlink:href="#m3e13ab8fbb" y="347.837121"/>
     <use style="fill:#44525c;stroke:#44525c;" x="183.778976" xlink:href="#m3e13ab8fbb" y="400.795778"/>
     <use style="fill:#44525c;stroke:#44525c;" x="190.229895" xlink:href="#m3e13ab8fbb" y="458.22272"/>
     <use style="fill:#44525c;stroke:#44525c;" x="224.530035" xlink:href="#m3e13ab8fbb" y="504.73045"/>
     <use style="fill:#44525c;stroke:#44525c;" x="277.488691" xlink:href="#m3e13ab8fbb" y="527.857245"/>
     <use style="fill:#44525c;stroke:#44525c;" x="334.915633" xlink:href="#m3e13ab8fbb" y="521.406325"/>
     <use style="fill:#44525c;stroke:#44525c;" x="381.423363" xlink:href="#m3e13ab8fbb" y="487.106186"/>
     <use style="fill:#44525c;stroke:#44525c;" x="404.550158" xlink:href="#m3e13ab8fbb" y="434.147529"/>
     <use style="fill:#44525c;stroke:#44525c;" x="405.969744" xlink:href="#m3e13ab8fbb" y="347.298355"/>
     <use style="fill:#44525c;stroke:#44525c;" x="355.904048" xlink:href="#m3e13ab8fbb" y="300.7972"/>
     <use style="fill:#44525c;stroke:#44525c;" x="289.295297" xlink:href="#m3e13ab8fbb" y="285.558887"/>
     <use style="fill:#44525c;stroke:#44525c;" x="223.991268" xlink:href="#m3e13ab8fbb" y="305.666477"/>
     <use style="fill:#44525c;stroke:#44525c;" x="177.490114" xlink:href="#m3e13ab8fbb" y="355.732173"/>
     <use style="fill:#44525c;stroke:#44525c;" x="162.251801" xlink:href="#m3e13ab8fbb" y="422.340924"/>
     <use style="fill:#44525c;stroke:#44525c;" x="182.35939" xlink:href="#m3e13ab8fbb" y="487.644952"/>
     <use style="fill:#44525c;stroke:#44525c;" x="232.425086" xlink:href="#m3e13ab8fbb" y="534.146107"/>
     <use style="fill:#44525c;stroke:#44525c;" x="299.033837" xlink:href="#m3e13ab8fbb" y="549.38442"/>
     <use style="fill:#44525c;stroke:#44525c;" x="364.337866" xlink:href="#m3e13ab8fbb" y="529.27683"/>
     <use style="fill:#44525c;stroke:#44525c;" x="410.83902" xlink:href="#m3e13ab8fbb" y="479.211134"/>
     <use style="fill:#44525c;stroke:#44525c;" x="426.077333" xlink:href="#m3e13ab8fbb" y="412.602383"/>
     <use style="fill:#44525c;stroke:#44525c;" x="405.144742" xlink:href="#m3e13ab8fbb" y="314.63577"/>
     <use style="fill:#44525c;stroke:#44525c;" x="338.858269" xlink:href="#m3e13ab8fbb" y="272.923069"/>
     <use style="fill:#44525c;stroke:#44525c;" x="260.596158" xlink:href="#m3e13ab8fbb" y="269.942068"/>
     <use style="fill:#44525c;stroke:#44525c;" x="191.328683" xlink:href="#m3e13ab8fbb" y="306.491478"/>
     <use style="fill:#44525c;stroke:#44525c;" x="149.615983" xlink:href="#m3e13ab8fbb" y="372.777952"/>
     <use style="fill:#44525c;stroke:#44525c;" x="146.634981" xlink:href="#m3e13ab8fbb" y="451.040063"/>
     <use style="fill:#44525c;stroke:#44525c;" x="183.184392" xlink:href="#m3e13ab8fbb" y="520.307537"/>
     <use style="fill:#44525c;stroke:#44525c;" x="249.470865" xlink:href="#m3e13ab8fbb" y="562.020238"/>
     <use style="fill:#44525c;stroke:#44525c;" x="327.732976" xlink:href="#m3e13ab8fbb" y="565.001239"/>
     <use style="fill:#44525c;stroke:#44525c;" x="397.00045" xlink:href="#m3e13ab8fbb" y="528.451829"/>
     <use style="fill:#44525c;stroke:#44525c;" x="438.713151" xlink:href="#m3e13ab8fbb" y="462.165356"/>
     <use style="fill:#44525c;stroke:#44525c;" x="441.694152" xlink:href="#m3e13ab8fbb" y="383.903244"/>
     <use style="fill:#44525c;stroke:#44525c;" x="395.013463" xlink:href="#m3e13ab8fbb" y="281.066158"/>
     <use style="fill:#44525c;stroke:#44525c;" x="313.29952" xlink:href="#m3e13ab8fbb" y="248.916577"/>
     <use style="fill:#44525c;stroke:#44525c;" x="226.45838" xlink:href="#m3e13ab8fbb" y="261.931186"/>
     <use style="fill:#44525c;stroke:#44525c;" x="157.759071" xlink:href="#m3e13ab8fbb" y="316.622757"/>
     <use style="fill:#44525c;stroke:#44525c;" x="125.60949" xlink:href="#m3e13ab8fbb" y="398.3367"/>
     <use style="fill:#44525c;stroke:#44525c;" x="138.624099" xlink:href="#m3e13ab8fbb" y="485.17784"/>
     <use style="fill:#44525c;stroke:#44525c;" x="193.315671" xlink:href="#m3e13ab8fbb" y="553.877149"/>
     <use style="fill:#44525c;stroke:#44525c;" x="275.029613" xlink:href="#m3e13ab8fbb" y="586.02673"/>
     <use style="fill:#44525c;stroke:#44525c;" x="361.870754" xlink:href="#m3e13ab8fbb" y="573.012121"/>
     <use style="fill:#44525c;stroke:#44525c;" x="430.570063" xlink:href="#m3e13ab8fbb" y="518.32055"/>
     <use style="fill:#44525c;stroke:#44525c;" x="462.719643" xlink:href="#m3e13ab8fbb" y="436.606607"/>
     <use style="fill:#44525c;stroke:#44525c;" x="449.705035" xlink:href="#m3e13ab8fbb" y="349.765467"/>
     <use style="fill:#44525c;stroke:#44525c;" x="375.516502" xlink:href="#m3e13ab8fbb" y="248.977186"/>
     <use style="fill:#44525c;stroke:#44525c;" x="280.370175" xlink:href="#m3e13ab8fbb" y="230.875196"/>
     <use style="fill:#44525c;stroke:#44525c;" x="188.920051" xlink:href="#m3e13ab8fbb" y="262.771583"/>
     <use style="fill:#44525c;stroke:#44525c;" x="125.670099" xlink:href="#m3e13ab8fbb" y="336.119719"/>
     <use style="fill:#44525c;stroke:#44525c;" x="107.56811" xlink:href="#m3e13ab8fbb" y="431.266046"/>
     <use style="fill:#44525c;stroke:#44525c;" x="139.464496" xlink:href="#m3e13ab8fbb" y="522.716169"/>
     <use style="fill:#44525c;stroke:#44525c;" x="212.812632" xlink:href="#m3e13ab8fbb" y="585.966121"/>
     <use style="fill:#44525c;stroke:#44525c;" x="307.958959" xlink:href="#m3e13ab8fbb" y="604.068111"/>
     <use style="fill:#44525c;stroke:#44525c;" x="399.409083" xlink:href="#m3e13ab8fbb" y="572.171724"/>
     <use style="fill:#44525c;stroke:#44525c;" x="462.659035" xlink:href="#m3e13ab8fbb" y="498.823589"/>
     <use style="fill:#44525c;stroke:#44525c;" x="480.761024" xlink:href="#m3e13ab8fbb" y="403.677261"/>
     <use style="fill:#44525c;stroke:#44525c;" x="448.864637" xlink:href="#m3e13ab8fbb" y="312.227138"/>
     <use style="fill:#44525c;stroke:#44525c;" x="347.138842" xlink:href="#m3e13ab8fbb" y="220.694649"/>
     <use style="fill:#44525c;stroke:#44525c;" x="241.653129" xlink:href="#m3e13ab8fbb" y="220.570634"/>
     <use style="fill:#44525c;stroke:#44525c;" x="150.237829" xlink:href="#m3e13ab8fbb" y="273.206081"/>
     <use style="fill:#44525c;stroke:#44525c;" x="97.387563" xlink:href="#m3e13ab8fbb" y="364.497378"/>
     <use style="fill:#44525c;stroke:#44525c;" x="97.263547" xlink:href="#m3e13ab8fbb" y="469.983092"/>
     <use style="fill:#44525c;stroke:#44525c;" x="149.898994" xlink:href="#m3e13ab8fbb" y="561.398391"/>
     <use style="fill:#44525c;stroke:#44525c;" x="241.190292" xlink:href="#m3e13ab8fbb" y="614.248658"/>
     <use style="fill:#44525c;stroke:#44525c;" x="346.676005" xlink:href="#m3e13ab8fbb" y="614.372673"/>
     <use style="fill:#44525c;stroke:#44525c;" x="438.091305" xlink:href="#m3e13ab8fbb" y="561.737226"/>
     <use style="fill:#44525c;stroke:#44525c;" x="490.941571" xlink:href="#m3e13ab8fbb" y="470.445929"/>
     <use style="fill:#44525c;stroke:#44525c;" x="491.065586" xlink:href="#m3e13ab8fbb" y="364.960215"/>
     <use style="fill:#44525c;stroke:#44525c;" x="438.43014" xlink:href="#m3e13ab8fbb" y="273.544916"/>
     <use style="fill:#44525c;stroke:#44525c;" x="310.880007" xlink:href="#m3e13ab8fbb" y="198.370425"/>
     <use style="fill:#44525c;stroke:#44525c;" x="199.089954" xlink:href="#m3e13ab8fbb" y="219.366707"/>
     <use style="fill:#44525c;stroke:#44525c;" x="112.775059" xlink:href="#m3e13ab8fbb" y="293.445038"/>
     <use style="fill:#44525c;stroke:#44525c;" x="75.063338" xlink:href="#m3e13ab8fbb" y="400.756213"/>
     <use style="fill:#44525c;stroke:#44525c;" x="96.05962" xlink:href="#m3e13ab8fbb" y="512.546267"/>
     <use style="fill:#44525c;stroke:#44525c;" x="170.137952" xlink:href="#m3e13ab8fbb" y="598.861162"/>
     <use style="fill:#44525c;stroke:#44525c;" x="277.449127" xlink:href="#m3e13ab8fbb" y="636.572882"/>
     <use style="fill:#44525c;stroke:#44525c;" x="389.23918" xlink:href="#m3e13ab8fbb" y="615.576601"/>
     <use style="fill:#44525c;stroke:#44525c;" x="475.554075" xlink:href="#m3e13ab8fbb" y="541.498269"/>
     <use style="fill:#44525c;stroke:#44525c;" x="513.265795" xlink:href="#m3e13ab8fbb" y="434.187094"/>
     <use style="fill:#44525c;stroke:#44525c;" x="492.269514" xlink:href="#m3e13ab8fbb" y="322.39704"/>
     <use style="fill:#44525c;stroke:#44525c;" x="418.191182" xlink:href="#m3e13ab8fbb" y="236.082145"/>
     <use style="fill:#44525c;stroke:#44525c;" x="268.202536" xlink:href="#m3e13ab8fbb" y="183.879231"/>
     <use style="fill:#44525c;stroke:#44525c;" x="154.884581" xlink:href="#m3e13ab8fbb" y="228.155688"/>
     <use style="fill:#44525c;stroke:#44525c;" x="78.886575" xlink:href="#m3e13ab8fbb" y="323.159217"/>
     <use style="fill:#44525c;stroke:#44525c;" x="60.572145" xlink:href="#m3e13ab8fbb" y="443.433685"/>
     <use style="fill:#44525c;stroke:#44525c;" x="104.848601" xlink:href="#m3e13ab8fbb" y="556.751639"/>
     <use style="fill:#44525c;stroke:#44525c;" x="199.85213" xlink:href="#m3e13ab8fbb" y="632.749645"/>
     <use style="fill:#44525c;stroke:#44525c;" x="320.126598" xlink:href="#m3e13ab8fbb" y="651.064076"/>
     <use style="fill:#44525c;stroke:#44525c;" x="433.444553" xlink:href="#m3e13ab8fbb" y="606.787619"/>
     <use style="fill:#44525c;stroke:#44525c;" x="509.442559" xlink:href="#m3e13ab8fbb" y="511.78409"/>
     <use style="fill:#44525c;stroke:#44525c;" x="527.756989" xlink:href="#m3e13ab8fbb" y="391.509622"/>
     <use style="fill:#44525c;stroke:#44525c;" x="483.480533" xlink:href="#m3e13ab8fbb" y="278.191668"/>
     <use style="fill:#44525c;stroke:#44525c;" x="388.477003" xlink:href="#m3e13ab8fbb" y="202.193662"/>
     <use style="fill:#44525c;stroke:#44525c;" x="220.960911" xlink:href="#m3e13ab8fbb" y="178.728336"/>
     <use style="fill:#44525c;stroke:#44525c;" x="111.396699" xlink:href="#m3e13ab8fbb" y="247.31572"/>
     <use style="fill:#44525c;stroke:#44525c;" x="50.804964" xlink:href="#m3e13ab8fbb" y="361.496227"/>
     <use style="fill:#44525c;stroke:#44525c;" x="55.421249" xlink:href="#m3e13ab8fbb" y="490.67531"/>
     <use style="fill:#44525c;stroke:#44525c;" x="124.008633" xlink:href="#m3e13ab8fbb" y="600.239522"/>
     <use style="fill:#44525c;stroke:#44525c;" x="238.189141" xlink:href="#m3e13ab8fbb" y="660.831257"/>
     <use style="fill:#44525c;stroke:#44525c;" x="367.368223" xlink:href="#m3e13ab8fbb" y="656.214972"/>
     <use style="fill:#44525c;stroke:#44525c;" x="476.932435" xlink:href="#m3e13ab8fbb" y="587.627587"/>
     <use style="fill:#44525c;stroke:#44525c;" x="537.52417" xlink:href="#m3e13ab8fbb" y="473.44708"/>
     <use style="fill:#44525c;stroke:#44525c;" x="532.907885" xlink:href="#m3e13ab8fbb" y="344.267997"/>
     <use style="fill:#44525c;stroke:#44525c;" x="464.320501" xlink:href="#m3e13ab8fbb" y="234.703786"/>
     <use style="fill:#44525c;stroke:#44525c;" x="350.139993" xlink:href="#m3e13ab8fbb" y="174.11205"/>
     <use style="fill:#44525c;stroke:#44525c;" x="171.314021" xlink:href="#m3e13ab8fbb" y="183.983904"/>
     <use style="fill:#44525c;stroke:#44525c;" x="71.028999" xlink:href="#m3e13ab8fbb" y="276.690617"/>
     <use style="fill:#44525c;stroke:#44525c;" x="30.532972" xlink:href="#m3e13ab8fbb" y="407.119483"/>
     <use style="fill:#44525c;stroke:#44525c;" x="60.676817" xlink:href="#m3e13ab8fbb" y="540.322199"/>
     <use style="fill:#44525c;stroke:#44525c;" x="153.383531" xlink:href="#m3e13ab8fbb" y="640.607222"/>
     <use style="fill:#44525c;stroke:#44525c;" x="283.812397" xlink:href="#m3e13ab8fbb" y="681.103249"/>
     <use style="fill:#44525c;stroke:#44525c;" x="417.015113" xlink:href="#m3e13ab8fbb" y="650.959403"/>
     <use style="fill:#44525c;stroke:#44525c;" x="517.300135" xlink:href="#m3e13ab8fbb" y="558.25269"/>
     <use style="fill:#44525c;stroke:#44525c;" x="557.796162" xlink:href="#m3e13ab8fbb" y="427.823824"/>
     <use style="fill:#44525c;stroke:#44525c;" x="527.652316" xlink:href="#m3e13ab8fbb" y="294.621108"/>
     <use style="fill:#44525c;stroke:#44525c;" x="434.945603" xlink:href="#m3e13ab8fbb" y="194.336085"/>
     <use style="fill:#44525c;stroke:#44525c;" x="304.516737" xlink:href="#m3e13ab8fbb" y="153.840058"/>
    </g>
   </g>
   <g id="PathCollection_2">
    <defs>
     <path d="M 0 2.236068 
C 0.593012 2.236068 1.161816 2.000462 1.581139 1.581139 
C 2.000462 1.161816 2.236068 0.593012 2.236068 0 
C 2.236068 -0.593012 2.000462 -1.161816 1.581139 -1.581139 
C 1.161816 -2.000462 0.593012 -2.236068 0 -2.236068 
C -0.593012 -2.236068 -1.161816 -2.000462 -1.581139 -1.581139 
C -2.000462 -1.161816 -2.236068 -0.593012 -2.236068 0 
C -2.236068 0.593012 -2.000462 1.161816 -1.581139 1.581139 
C -1.161816 2.000462 -0.593012 2.236068 0 2.236068 
z
" id="m87f73af409" style="stroke:#5aa0df;"/>
    </defs>
    <g clip-path="url(#p8baa85101c)">
     <use style="fill:#5aa0df;stroke:#5aa0df;" x="361.350782" xlink:href="#m87f73af409" y="417.471654"/>
     <use style="fill:#5aa0df;stroke:#5aa0df;" x="352.349535" xlink:href="#m87f73af409" y="383.878546"/>
     <use style="fill:#5aa0df;stroke:#5aa0df;" x="327.757675" xlink:href="#m87f73af409" y="359.286685"/>
     <use style="fill:#5aa0df;stroke:#5aa0df;" x="294.164567" xlink:href="#m87f73af409" y="350.285438"/>
     <use style="fill:#5aa0df;stroke:#5aa0df;" x="260.571459" xlink:href="#m87f73af409" y="359.286685"/>
     <use style="fill:#5aa0df;stroke:#5aa0df;" x="235.979599" xlink:href="#m87f73af409" y="383.878546"/>
     <use style="fill:#5aa0df;stroke:#5aa0df;" x="226.978352" xlink:href="#m87f73af409" y="417.471654"/>
     <use style="fill:#5aa0df;stroke:#5aa0df;" x="235.979599" xlink:href="#m87f73af409" y="451.064761"/>
     <use style="fill:#5aa0df;stroke:#5aa0df;" x="260.571459" xlink:href="#m87f73af409" y="475.656622"/>
     <use style="fill:#5aa0df;stroke:#5aa0df;" x="294.164567" xlink:href="#m87f73af409" y="484.657869"/>
     <use style="fill:#5aa0df;stroke:#5aa0df;" x="327.757675" xlink:href="#m87f73af409" y="475.656622"/>
     <use style="fill:#5aa0df;stroke:#5aa0df;" x="352.349535" xlink:href="#m87f73af409" y="451.064761"/>
    </g>
   </g>
   <g id="PathCollection_3">
    <g clip-path="url(#p8baa85101c)">
     <use style="fill:#5aa0df;stroke:#5aa0df;" x="121.624662" xlink:href="#m87f73af409" y="200.216636"/>
     <use style="fill:#5aa0df;stroke:#5aa0df;" x="36.113129" xlink:href="#m87f73af409" y="315.593249"/>
     <use style="fill:#5aa0df;stroke:#5aa0df;" x="19.746257" xlink:href="#m87f73af409" y="458.268092"/>
     <use style="fill:#5aa0df;stroke:#5aa0df;" x="76.90955" xlink:href="#m87f73af409" y="590.011558"/>
     <use style="fill:#5aa0df;stroke:#5aa0df;" x="192.286162" xlink:href="#m87f73af409" y="675.523092"/>
     <use style="fill:#5aa0df;stroke:#5aa0df;" x="334.961005" xlink:href="#m87f73af409" y="691.889963"/>
     <use style="fill:#5aa0df;stroke:#5aa0df;" x="466.704472" xlink:href="#m87f73af409" y="634.726671"/>
     <use style="fill:#5aa0df;stroke:#5aa0df;" x="552.216005" xlink:href="#m87f73af409" y="519.350059"/>
     <use style="fill:#5aa0df;stroke:#5aa0df;" x="568.582877" xlink:href="#m87f73af409" y="376.675216"/>
     <use style="fill:#5aa0df;stroke:#5aa0df;" x="511.419584" xlink:href="#m87f73af409" y="244.931749"/>
     <use style="fill:#5aa0df;stroke:#5aa0df;" x="396.042972" xlink:href="#m87f73af409" y="159.420215"/>
     <use style="fill:#5aa0df;stroke:#5aa0df;" x="253.368129" xlink:href="#m87f73af409" y="143.053344"/>
    </g>
   </g>
  </g>
 </g>
 <defs>
  <clipPath id="p8baa85101c">
   <rect height="813.543307" width="566.929134" x="10.7" y="10.7"/>
  </clipPath>
 </defs>
</svg>
