<?xml version="1.0" encoding="utf-8" standalone="no"?>
<!DOCTYPE svg PUBLIC "-//W3C//DTD SVG 1.1//EN"
  "http://www.w3.org/Graphics/SVG/1.1/DTD/svg11.dtd">
<!-- Created with matplotlib (https://matplotlib.org/) -->
<svg height="778.250394pt" version="1.1" viewBox="0 0 531.63622 778.250394" width="531.63622pt" xmlns="http://www.w3.org/2000/svg" xmlns:xlink="http://www.w3.org/1999/xlink">
 <defs>
  <style type="text/css">
*{stroke-linecap:butt;stroke-linejoin:round;}
  </style>
 </defs>
 <g id="figure_1">
  <g id="patch_1">
   <path d="M 0 778.250394 
L 531.63622 778.250394 
L 531.63622 0 
L 0 0 
z
" style="fill:none;"/>
  </g>
  <g id="axes_1">
   <g id="patch_2">
    <path d="M 10.7 767.550394 
L 520.93622 767.550394 
L 520.93622 10.7 
L 10.7 10.7 
z
" style="fill:none;"/>
   </g>
   <g id="matplotlib.axis_1"/>
   <g id="matplotlib.axis_2"/>
   <g id="line2d_1">
    <path clip-path="url(#p791e17a8d1)" d="M 389.125197 767.550394 
L 389.125197 10.7 
" style="fill:none;stroke:#000000;stroke-linecap:square;"/>
   </g>
   <g id="line2d_2">
    <path clip-path="url(#p791e17a8d1)" d="M 97.984423 380.199282 
L 114.00625 367.773215 
M 97.984423 380.199282 
L 115.837168 397.742854 
M 91.934074 355.96998 
L 114.00625 367.773215 
M 91.934074 355.96998 
L 103.806073 339.533389 
M 79.302615 334.426718 
L 103.806073 339.533389 
M 79.302615 334.426718 
L 86.062994 315.311193 
M 61.113386 317.314801 
L 86.062994 315.311193 
M 61.113386 317.314801 
L 62.214456 297.068968 
M 38.839962 306.020532 
L 62.214456 297.068968 
M 38.839962 306.020532 
L 34.192521 286.284594 
M 14.286807 301.458915 
L 34.192521 286.284594 
M 14.286807 301.458915 
L 4.267364 283.831757 
M -1 290.997751 
L 4.267364 283.831757 
M 7.113193 476.791478 
L -1 482.976245 
M 7.113193 476.791478 
L 17.132636 494.418637 
M 31.956931 474.250899 
L 17.132636 494.418637 
M 31.956931 474.250899 
L 46.53666 488.341234 
M 55.078557 464.813945 
L 46.53666 488.341234 
M 55.078557 464.813945 
L 73.037413 474.22593 
M 74.604898 449.245132 
L 73.037413 474.22593 
M 74.604898 449.245132 
L 94.487958 453.216275 
M 88.954046 428.805763 
L 94.487958 453.216275 
M 88.954046 428.805763 
L 109.150501 427.01434 
M 96.96351 405.151709 
L 109.150501 427.01434 
M 96.96351 405.151709 
L 115.837168 397.742854 
M 114.00625 367.773215 
L 127.640318 352.216532 
M 114.00625 367.773215 
L 133.301786 386.657488 
M 103.806073 339.533389 
L 127.640318 352.216532 
M 103.806073 339.533389 
L 112.50504 320.765695 
M 86.062994 315.311193 
L 112.50504 320.765695 
M 86.062994 315.311193 
L 89.12213 294.852946 
M 62.214456 297.068968 
L 89.12213 294.852946 
M 62.214456 297.068968 
L 59.385918 276.577568 
M 34.192521 286.284594 
L 59.385918 276.577568 
M 34.192521 286.284594 
L 25.705463 267.420124 
M 4.267364 283.831757 
L 25.705463 267.420124 
M 4.267364 283.831757 
L -1 277.683276 
M 17.132636 494.418637 
L -1 508.299819 
M 17.132636 494.418637 
L 30.590644 510.127882 
M 46.53666 488.341234 
L 30.590644 510.127882 
M 46.53666 488.341234 
L 63.875331 499.622582 
M 73.037413 474.22593 
L 63.875331 499.622582 
M 73.037413 474.22593 
L 92.852068 480.165436 
M 94.487958 453.216275 
L 92.852068 480.165436 
M 94.487958 453.216275 
L 115.173329 453.332757 
M 109.150501 427.01434 
L 115.173329 453.332757 
M 109.150501 427.01434 
L 129.030789 421.298361 
M 115.837168 397.742854 
L 129.030789 421.298361 
M 115.837168 397.742854 
L 133.301786 386.657488 
M 127.640318 352.216532 
L 138.486142 333.944654 
M 127.640318 352.216532 
L 148.856052 372.181369 
M 112.50504 320.765695 
L 138.486142 333.944654 
M 112.50504 320.765695 
L 117.763745 300.17834 
M 89.12213 294.852946 
L 117.763745 300.17834 
M 89.12213 294.852946 
L 88.367682 273.617971 
M 59.385918 276.577568 
L 88.367682 273.617971 
M 59.385918 276.577568 
L 52.679452 256.415301 
M 25.705463 267.420124 
L 52.679452 256.415301 
M 25.705463 267.420124 
L 13.590292 249.964007 
M -1 261.593814 
L 13.590292 249.964007 
M -1 515.592938 
L 7.809708 528.286387 
M 30.590644 510.127882 
L 7.809708 528.286387 
M 30.590644 510.127882 
L 47.133021 523.463665 
M 63.875331 499.622582 
L 47.133021 523.463665 
M 63.875331 499.622582 
L 83.504748 507.757643 
M 92.852068 480.165436 
L 83.504748 507.757643 
M 92.852068 480.165436 
L 113.978271 482.440727 
M 115.173329 453.332757 
L 113.978271 482.440727 
M 115.173329 453.332757 
L 136.08479 449.563945 
M 129.030789 421.298361 
L 136.08479 449.563945 
M 129.030789 421.298361 
L 148.033391 411.790771 
M 133.301786 386.657488 
L 148.033391 411.790771 
M 133.301786 386.657488 
L 148.856052 372.181369 
M 138.486142 333.944654 
L 146.202606 313.412314 
M 138.486142 333.944654 
L 162.044573 354.654711 
M 117.763745 300.17834 
L 146.202606 313.412314 
M 117.763745 300.17834 
L 119.38301 278.303721 
M 88.367682 273.617971 
L 119.38301 278.303721 
M 88.367682 273.617971 
L 83.758565 252.173229 
M 52.679452 256.415301 
L 83.758565 252.173229 
M 52.679452 256.415301 
L 42.215354 237.137764 
M 13.590292 249.964007 
L 42.215354 237.137764 
M 13.590292 249.964007 
L -1 235.300869 
M 7.809708 528.286387 
L -1 532.233818 
M 7.809708 528.286387 
L 23.281045 543.834968 
M 47.133021 523.463665 
L 23.281045 543.834968 
M 47.133021 523.463665 
L 66.358205 534.023651 
M 83.504748 507.757643 
L 66.358205 534.023651 
M 83.504748 507.757643 
L 104.926266 512.473514 
M 113.978271 482.440727 
L 104.926266 512.473514 
M 113.978271 482.440727 
L 135.860682 480.930433 
M 136.08479 449.563945 
L 135.860682 480.930433 
M 136.08479 449.563945 
L 156.655305 441.949837 
M 148.033391 411.790771 
L 156.655305 441.949837 
M 148.033391 411.790771 
L 165.625512 398.689704 
M 148.856052 372.181369 
L 165.625512 398.689704 
M 148.856052 372.181369 
L 162.044573 354.654711 
M 146.202606 313.412314 
L 150.511368 291.106561 
M 146.202606 313.412314 
L 172.463063 334.46642 
M 119.38301 278.303721 
L 150.511368 291.106561 
M 119.38301 278.303721 
L 117.232983 255.687596 
M 83.758565 252.173229 
L 117.232983 255.687596 
M 83.758565 252.173229 
L 75.323932 231.078952 
M 42.215354 237.137764 
L 75.323932 231.078952 
M 42.215354 237.137764 
L 28.179431 219.274271 
M -1 233.971652 
L 28.179431 219.274271 
M 23.281045 543.834968 
L -1 556.065082 
M 23.281045 543.834968 
L 41.781146 557.020503 
M 66.358205 534.023651 
L 41.781146 557.020503 
M 66.358205 534.023651 
L 87.823711 541.462992 
M 104.926266 512.473514 
L 87.823711 541.462992 
M 104.926266 512.473514 
L 127.618172 513.563969 
M 135.860682 480.930433 
L 127.618172 513.563969 
M 135.860682 480.930433 
L 157.940626 475.583676 
M 156.655305 441.949837 
L 157.940626 475.583676 
M 156.655305 441.949837 
L 176.334519 430.599023 
M 165.625512 398.689704 
L 176.334519 430.599023 
M 165.625512 398.689704 
L 181.309676 382.254406 
M 162.044573 354.654711 
L 181.309676 382.254406 
M 162.044573 354.654711 
L 172.463063 334.46642 
M 150.511368 291.106561 
L 151.199407 267.53943 
M 150.511368 291.106561 
L 179.762859 312.047767 
M 117.232983 255.687596 
L 151.199407 267.53943 
M 117.232983 255.687596 
L 111.253523 232.881248 
M 75.323932 231.078952 
L 111.253523 232.881248 
M 75.323932 231.078952 
L 63.161394 210.881033 
M 28.179431 219.274271 
L 63.161394 210.881033 
M 28.179431 219.274271 
L 10.819152 203.321085 
M -1 210.105216 
L 10.819152 203.321085 
M -1 564.287117 
L 10.580848 574.929309 
M 41.781146 557.020503 
L 10.580848 574.929309 
M 41.781146 557.020503 
L 62.932743 567.436509 
M 87.823711 541.462992 
L 62.932743 567.436509 
M 87.823711 541.462992 
L 111.053047 545.497987 
M 127.618172 513.563969 
L 111.053047 545.497987 
M 127.618172 513.563969 
L 151.043349 510.89106 
M 157.940626 475.583676 
L 151.043349 510.89106 
M 157.940626 475.583676 
L 179.663867 466.419395 
M 176.334519 430.599023 
L 179.663867 466.419395 
M 176.334519 430.599023 
L 194.595933 415.685817 
M 181.309676 382.254406 
L 194.595933 415.685817 
M 181.309676 382.254406 
L 194.629847 362.800455 
M 172.463063 334.46642 
L 194.629847 362.800455 
M 172.463063 334.46642 
L 179.762859 312.047767 
M 151.199407 267.53943 
L 148.120852 243.240322 
M 151.199407 267.53943 
L 183.654865 287.865613 
M 111.253523 232.881248 
L 148.120852 243.240322 
M 111.253523 232.881248 
L 101.453825 210.433763 
M 63.161394 210.881033 
L 101.453825 210.433763 
M 63.161394 210.881033 
L 47.43446 192.103707 
M 10.819152 203.321085 
L 47.43446 192.103707 
M 10.819152 203.321085 
L -1 195.442113 
M 10.580848 574.929309 
L -1 578.47719 
M 10.580848 574.929309 
L 30.960911 588.515219 
M 62.932743 567.436509 
L 30.960911 588.515219 
M 62.932743 567.436509 
L 86.314859 574.730363 
M 111.053047 545.497987 
L 86.314859 574.730363 
M 111.053047 545.497987 
L 135.542948 545.908888 
M 151.043349 510.89106 
L 135.542948 545.908888 
M 151.043349 510.89106 
L 174.656998 504.385717 
M 179.663867 466.419395 
L 174.656998 504.385717 
M 179.663867 466.419395 
L 200.488235 453.524836 
M 194.595933 415.685817 
L 200.488235 453.524836 
M 194.595933 415.685817 
L 210.943951 397.446672 
M 194.629847 362.800455 
L 210.943951 397.446672 
M 194.629847 362.800455 
L 205.17709 340.694355 
M 179.762859 312.047767 
L 205.17709 340.694355 
M 179.762859 312.047767 
L 183.654865 287.865613 
M 148.120852 243.240322 
L 141.19794 218.748321 
M 148.120852 243.240322 
L 183.912562 262.415303 
M 101.453825 210.433763 
L 141.19794 218.748321 
M 101.453825 210.433763 
L 87.911143 188.884262 
M 47.43446 192.103707 
L 87.911143 188.884262 
M 47.43446 192.103707 
L 28.369161 175.242543 
M -1 186.464152 
L 28.369161 175.242543 
M 30.960911 588.515219 
L -1 600.727105 
M 30.960911 588.515219 
L 54.004271 599.32208 
M 86.314859 574.730363 
L 54.004271 599.32208 
M 86.314859 574.730363 
L 111.469448 578.607407 
M 135.542948 545.908888 
L 111.469448 578.607407 
M 135.542948 545.908888 
L 160.770887 542.542019 
M 174.656998 504.385717 
L 160.770887 542.542019 
M 174.656998 504.385717 
L 197.914474 494.047696 
M 200.488235 453.524836 
L 197.914474 494.047696 
M 200.488235 453.524836 
L 219.89105 437.053188 
M 210.943951 397.446672 
L 219.89105 437.053188 
M 210.943951 397.446672 
L 224.920228 376.175836 
M 205.17709 340.694355 
L 224.920228 376.175836 
M 205.17709 340.694355 
L 212.594551 316.347562 
M 183.654865 287.865613 
L 212.594551 316.347562 
M 183.654865 287.865613 
L 183.912562 262.415303 
M 141.19794 218.748321 
L 130.421171 194.604377 
M 141.19794 218.748321 
L 180.374466 236.213183 
M 87.911143 188.884262 
L 130.421171 194.604377 
M 87.911143 188.884262 
L 70.768775 168.754482 
M 28.369161 175.242543 
L 70.768775 168.754482 
M 28.369161 175.242543 
L 6.249961 160.757716 
M -1 164.148238 
L 6.249961 160.757716 
M -1 606.916775 
L 15.150039 617.492677 
M 54.004271 599.32208 
L 15.150039 617.492677 
M 54.004271 599.32208 
L 79.308336 606.988471 
M 111.469448 578.607407 
L 79.308336 606.988471 
M 111.469448 578.607407 
L 137.90839 578.83428 
M 160.770887 542.542019 
L 137.90839 578.83428 
M 160.770887 542.542019 
L 186.202784 535.310982 
M 197.914474 494.047696 
L 186.202784 535.310982 
M 197.914474 494.047696 
L 220.278978 479.944581 
M 219.89105 437.053188 
L 220.278978 479.944581 
M 219.89105 437.053188 
L 237.376343 417.220534 
M 224.920228 376.175836 
L 237.376343 417.220534 
M 224.920228 376.175836 
L 236.109724 352.220372 
M 212.594551 316.347562 
L 236.109724 352.220372 
M 212.594551 316.347562 
L 216.581749 290.210018 
M 183.912562 262.415303 
L 216.581749 290.210018 
M 183.912562 262.415303 
L 180.374466 236.213183 
M 130.421171 194.604377 
L 115.848618 171.343529 
M 130.421171 194.604377 
L 172.945548 209.788996 
M 70.768775 168.754482 
L 115.848618 171.343529 
M 70.768775 168.754482 
L 50.233172 150.541425 
M 6.249961 160.757716 
L 50.233172 150.541425 
M 6.249961 160.757716 
L -1 157.345181 
M 15.150039 617.492677 
L -1 621.243961 
M 15.150039 617.492677 
L 39.985016 629.182428 
M 79.308336 606.988471 
L 39.985016 629.182428 
M 79.308336 606.988471 
L 106.430705 611.207894 
M 137.90839 578.83428 
L 106.430705 611.207894 
M 137.90839 578.83428 
L 165.120866 575.241514 
M 186.202784 535.310982 
L 165.120866 575.241514 
M 186.202784 535.310982 
L 211.300759 524.19712 
M 220.278978 479.944581 
L 211.300759 524.19712 
M 220.278978 479.944581 
L 241.229172 462.209988 
M 237.376343 417.220534 
L 241.229172 462.209988 
M 237.376343 417.220534 
L 252.481499 394.301967 
M 236.109724 352.220372 
L 252.481499 394.301967 
M 236.109724 352.220372 
L 244.14611 325.974555 
M 216.581749 290.210018 
L 244.14611 325.974555 
M 216.581749 290.210018 
L 216.898315 262.763226 
M 180.374466 236.213183 
L 216.898315 262.763226 
M 180.374466 236.213183 
L 172.945548 209.788996 
M 115.848618 171.343529 
L 97.604389 149.487338 
M 115.848618 171.343529 
L 161.597939 183.678151 
M 50.233172 150.541425 
L 97.604389 149.487338 
M 50.233172 150.541425 
L 26.570363 134.710546 
M -1 143.476706 
L 26.570363 134.710546 
M 39.985016 629.182428 
L -1 642.213856 
M 39.985016 629.182428 
L 67.149383 637.705439 
M 106.430705 611.207894 
L 67.149383 637.705439 
M 106.430705 611.207894 
L 134.895933 611.732572 
M 165.120866 575.241514 
L 134.895933 611.732572 
M 165.120866 575.241514 
L 192.580883 567.72537 
M 211.300759 524.19712 
L 192.580883 567.72537 
M 211.300759 524.19712 
L 235.530908 509.249043 
M 241.229172 462.209988 
L 235.530908 509.249043 
M 241.229172 462.209988 
L 260.266471 441.041001 
M 252.481499 394.301967 
L 260.266471 441.041001 
M 252.481499 394.301967 
L 264.783641 368.627044 
M 244.14611 325.974555 
L 264.783641 368.627044 
M 244.14611 325.974555 
L 248.716487 297.873726 
M 216.898315 262.763226 
L 248.716487 297.873726 
M 216.898315 262.763226 
L 213.366636 234.513058 
M 172.945548 209.788996 
L 213.366636 234.513058 
M 172.945548 209.788996 
L 161.597939 183.678151 
M 97.604389 149.487338 
L 75.876285 129.536501 
M 97.604389 149.487338 
L 146.370787 158.413947 
M 26.570363 134.710546 
L 75.876285 129.536501 
M 26.570363 134.710546 
L 0.101601 121.689363 
M -1 122.142382 
L 0.101601 121.689363 
M -1 645.591438 
L 21.298399 656.561031 
M 67.149383 637.705439 
L 21.298399 656.561031 
M 67.149383 637.705439 
L 96.214466 642.742083 
M 134.895933 611.732572 
L 96.214466 642.742083 
M 134.895933 611.732572 
L 164.202657 608.376599 
M 192.580883 567.72537 
L 164.202657 608.376599 
M 192.580883 567.72537 
L 219.75498 556.248684 
M 235.530908 509.249043 
L 219.75498 556.248684 
M 235.530908 509.249043 
L 258.370918 490.581413 
M 260.266471 441.041001 
L 258.370918 490.581413 
M 260.266471 441.041001 
L 276.922022 416.69476 
M 264.783641 368.627044 
L 276.922022 416.69476 
M 264.783641 368.627044 
L 273.905411 340.574588 
M 248.716487 297.873726 
L 273.905411 340.574588 
M 248.716487 297.873726 
L 249.565448 268.387696 
M 213.366636 234.513058 
L 249.565448 268.387696 
M 213.366636 234.513058 
L 205.874029 205.982248 
M 161.597939 183.678151 
L 205.874029 205.982248 
M 161.597939 183.678151 
L 146.370787 158.413947 
M 75.876285 129.536501 
L 50.912696 111.963703 
M 75.876285 129.536501 
L 127.36922 134.519923 
M 0.101601 121.689363 
L 50.912696 111.963703 
M 0.101601 121.689363 
L -1 121.314788 
M 21.298399 656.561031 
L -1 660.829127 
M 21.298399 656.561031 
L 50.201616 666.388936 
M 96.214466 642.742083 
L 50.201616 666.388936 
M 96.214466 642.742083 
L 126.715745 644.028926 
M 164.202657 608.376599 
L 126.715745 644.028926 
M 164.202657 608.376599 
L 193.830974 601.01811 
M 219.75498 556.248684 
L 193.830974 601.01811 
M 219.75498 556.248684 
L 246.110009 540.841007 
M 258.370918 490.581413 
L 246.110009 540.841007 
M 258.370918 490.581413 
L 279.317535 468.372782 
M 276.922022 416.69476 
L 279.317535 468.372782 
M 276.922022 416.69476 
L 290.763264 389.484393 
M 273.905411 340.574588 
L 290.763264 389.484393 
M 273.905411 340.574588 
L 279.519925 310.566907 
M 249.565448 268.387696 
L 279.519925 310.566907 
M 249.565448 268.387696 
L 246.498395 238.01375 
M 205.874029 205.982248 
L 246.498395 238.01375 
M 205.874029 205.982248 
L 194.373895 177.702734 
M 146.370787 158.413947 
L 194.373895 177.702734 
M 146.370787 158.413947 
L 127.36922 134.519923 
M 50.912696 111.963703 
L 23.018681 97.207046 
M 50.912696 111.963703 
L 104.762535 112.502337 
M -1 103.999359 
L 23.018681 97.207046 
M 50.201616 666.388936 
L -1 680.868389 
M 50.201616 666.388936 
L 81.123162 672.689183 
M 126.715745 644.028926 
L 81.123162 672.689183 
M 126.715745 644.028926 
L 158.159737 641.362367 
M 193.830974 601.01811 
L 158.159737 641.362367 
M 193.830974 601.01811 
L 223.249995 589.600766 
M 246.110009 540.841007 
L 223.249995 589.600766 
M 246.110009 540.841007 
L 271.120729 521.597842 
M 279.317535 468.372782 
L 271.120729 521.597842 
M 279.317535 468.372782 
L 297.893712 442.862775 
M 290.763264 389.484393 
L 297.893712 442.862775 
M 290.763264 389.484393 
L 301.399993 359.774207 
M 279.519925 310.566907 
L 301.399993 359.774207 
M 279.519925 310.566907 
L 281.355456 279.063476 
M 246.498395 238.01375 
L 281.355456 279.063476 
M 246.498395 238.01375 
L 239.384047 207.269299 
M 194.373895 177.702734 
L 239.384047 207.269299 
M 194.373895 177.702734 
L 178.886001 150.207991 
M 127.36922 134.519923 
L 178.886001 150.207991 
M 127.36922 134.519923 
L 104.762535 112.502337 
M 23.018681 97.207046 
L -1 88.106977 
M 23.018681 97.207046 
L 78.781529 92.843067 
M -1 681.27775 
L 28.848581 692.58662 
M 81.123162 672.689183 
L 28.848581 692.58662 
M 81.123162 672.689183 
L 113.608395 675.181234 
M 158.159737 641.362367 
L 113.608395 675.181234 
M 158.159737 641.362367 
L 190.03119 634.601323 
M 223.249995 589.600766 
L 190.03119 634.601323 
M 223.249995 589.600766 
L 251.925627 574.134382 
M 271.120729 521.597842 
L 251.925627 574.134382 
M 271.120729 521.597842 
L 294.27741 498.679093 
M 297.893712 442.862775 
L 294.27741 498.679093 
M 297.893712 442.862775 
L 313.655432 414.348405 
M 301.399993 359.774207 
L 313.655432 414.348405 
M 301.399993 359.774207 
L 308.489814 327.974282 
M 281.355456 279.063476 
L 308.489814 327.974282 
M 281.355456 279.063476 
L 279.199028 246.554235 
M 239.384047 207.269299 
L 279.199028 246.554235 
M 239.384047 207.269299 
L 228.156039 176.684454 
M 178.886001 150.207991 
L 228.156039 176.684454 
M 178.886001 150.207991 
L 159.496077 124.025356 
M 104.762535 112.502337 
L 159.496077 124.025356 
M 104.762535 112.502337 
L 78.781529 92.843067 
M -1 84.572761 
L 49.715058 75.992458 
M 28.848581 692.58662 
L -1 697.636597 
M 28.848581 692.58662 
L 61.485011 700.56566 
M 113.608395 675.181234 
L 61.485011 700.56566 
M 113.608395 675.181234 
L 147.170784 673.642326 
M 190.03119 634.601323 
L 147.170784 673.642326 
M 190.03119 634.601323 
L 221.8005 623.669139 
M 251.925627 574.134382 
L 221.8005 623.669139 
M 251.925627 574.134382 
L 279.32809 554.694578 
M 294.27741 498.679093 
L 279.32809 554.694578 
M 294.27741 498.679093 
L 315.093071 472.306567 
M 313.655432 414.348405 
L 315.093071 472.306567 
M 313.655432 414.348405 
L 326.197915 383.179703 
M 308.489814 327.974282 
L 326.197915 383.179703 
M 308.489814 327.974282 
L 311.742996 294.534502 
M 279.199028 246.554235 
L 311.742996 294.534502 
M 279.199028 246.554235 
L 272.899342 213.552485 
M 228.156039 176.684454 
L 272.899342 213.552485 
M 228.156039 176.684454 
L 212.813883 146.794316 
M 159.496077 124.025356 
L 212.813883 146.794316 
M 159.496077 124.025356 
L 136.354358 99.668347 
M 78.781529 92.843067 
L 136.354358 99.668347 
M 78.781529 92.843067 
L 49.715058 75.992458 
M -1 67.358284 
L 17.905925 62.363246 
M -1 713.961578 
L 3.494075 715.887148 
M 61.485011 700.56566 
L 3.494075 715.887148 
M 61.485011 700.56566 
L 95.845446 704.681123 
M 147.170784 673.642326 
L 95.845446 704.681123 
M 147.170784 673.642326 
L 181.29884 667.910665 
M 221.8005 623.669139 
L 181.29884 667.910665 
M 221.8005 623.669139 
L 252.931327 608.55464 
M 279.32809 554.694578 
L 252.931327 608.55464 
M 279.32809 554.694578 
L 304.939685 531.421756 
M 315.093071 472.306567 
L 304.939685 531.421756 
M 315.093071 472.306567 
L 333.110478 442.760852 
M 326.197915 383.179703 
L 333.110478 442.760852 
M 326.197915 383.179703 
L 335.161498 349.754703 
M 311.742996 294.534502 
L 335.161498 349.754703 
M 311.742996 294.534502 
L 310.926574 259.938124 
M 272.899342 213.552485 
L 310.926574 259.938124 
M 272.899342 213.552485 
L 262.369087 180.587503 
M 212.813883 146.794316 
L 262.369087 180.587503 
M 212.813883 146.794316 
L 193.422851 118.131369 
M 136.354358 99.668347 
L 193.422851 118.131369 
M 136.354358 99.668347 
L 109.673516 77.62956 
M 49.715058 75.992458 
L 109.673516 77.62956 
M 49.715058 75.992458 
L 17.905925 62.363246 
M 3.494075 715.887148 
L -1 716.177203 
M 3.494075 715.887148 
L 37.653975 725.926107 
M 95.845446 704.681123 
L 37.653975 725.926107 
M 95.845446 704.681123 
L 131.449926 704.689491 
M 181.29884 667.910665 
L 131.449926 704.689491 
M 181.29884 667.910665 
L 215.463441 657.887731 
M 252.931327 608.55464 
L 215.463441 657.887731 
M 252.931327 608.55464 
L 282.888243 589.312422 
M 304.939685 531.421756 
L 282.888243 589.312422 
M 304.939685 531.421756 
L 328.261974 504.519149 
M 333.110478 442.760852 
L 328.261974 504.519149 
M 333.110478 442.760852 
L 347.908707 410.377339 
M 335.161498 349.754703 
L 347.908707 410.377339 
M 335.161498 349.754703 
L 340.236787 314.513813 
M 310.926574 259.938124 
L 340.236787 314.513813 
M 310.926574 259.938124 
L 305.867784 224.694851 
M 262.369087 180.587503 
L 305.867784 224.694851 
M 262.369087 180.587503 
L 247.586041 148.197065 
M 193.422851 118.131369 
L 247.586041 148.197065 
M 193.422851 118.131369 
L 170.113188 91.217821 
M 109.673516 77.62956 
L 170.113188 91.217821 
M 109.673516 77.62956 
L 79.725632 58.373298 
M 17.905925 62.363246 
L 79.725632 58.373298 
M 17.905925 62.363246 
L -1 56.807147 
M 37.653975 725.926107 
L -1 732.049671 
M 37.653975 725.926107 
L 73.729111 732.054921 
M 131.449926 704.689491 
L 73.729111 732.054921 
M 131.449926 704.689491 
L 167.790456 700.406497 
M 215.463441 657.887731 
L 167.790456 700.406497 
M 215.463441 657.887731 
L 249.125274 643.539936 
M 282.888243 589.312422 
L 249.125274 643.539936 
M 282.888243 589.312422 
L 311.144281 566.06219 
M 328.261974 504.519149 
L 311.144281 566.06219 
M 328.261974 504.519149 
L 348.823087 474.250057 
M 347.908707 410.377339 
L 348.823087 474.250057 
M 347.908707 410.377339 
L 359.109173 375.541621 
M 340.236787 314.513813 
L 359.109173 375.541621 
M 340.236787 314.513813 
L 341.169232 277.933645 
M 305.867784 224.694851 
L 341.169232 277.933645 
M 305.867784 224.694851 
L 296.456605 189.333749 
M 247.586041 148.197065 
L 296.456605 189.333749 
M 247.586041 148.197065 
L 228.593714 116.919745 
M 170.113188 91.217821 
L 228.593714 116.919745 
M 170.113188 91.217821 
L 143.078354 66.558246 
M 79.725632 58.373298 
L 143.078354 66.558246 
M 79.725632 58.373298 
L 46.838483 42.329177 
M -1 49.907751 
L 46.838483 42.329177 
M -1 744.500053 
L 10.008884 748.364589 
M 73.729111 732.054921 
L 10.008884 748.364589 
M 73.729111 732.054921 
L 111.246308 734.007569 
M 167.790456 700.406497 
L 111.246308 734.007569 
M 167.790456 700.406497 
L 204.338063 691.710235 
M 249.125274 643.539936 
L 204.338063 691.710235 
M 249.125274 643.539936 
L 281.742408 624.899272 
M 311.144281 566.06219 
L 281.742408 624.899272 
M 311.144281 566.06219 
L 337.188539 538.987292 
M 348.823087 474.250057 
L 337.188539 538.987292 
M 348.823087 474.250057 
L 366.184477 440.934372 
M 359.109173 375.541621 
L 366.184477 440.934372 
M 359.109173 375.541621 
L 366.38119 338.684183 
M 341.169232 277.933645 
L 366.38119 338.684183 
M 341.169232 277.933645 
L 337.762742 240.520422 
M 296.456605 189.333749 
L 337.762742 240.520422 
M 296.456605 189.333749 
L 282.647592 154.395747 
M 228.593714 116.919745 
L 282.647592 154.395747 
M 228.593714 116.919745 
L 205.50087 87.287452 
M 143.078354 66.558246 
L 205.50087 87.287452 
M 143.078354 66.558246 
L 112.572551 44.632261 
M 46.838483 42.329177 
L 112.572551 44.632261 
M 46.838483 42.329177 
L 11.391116 29.885805 
M -1 33.057404 
L 11.391116 29.885805 
L 11.391116 29.885805 
" style="fill:none;stroke:#eb7a59;stroke-linecap:square;"/>
   </g>
   <g id="line2d_3">
    <path clip-path="url(#p791e17a8d1)" d="M 80.030726 389.125197 
L 97.984423 380.199282 
M 80.030726 389.125197 
L 96.96351 405.151709 
M 77.222345 369.592475 
L 97.984423 380.199282 
M 77.222345 369.592475 
L 91.934074 355.96998 
M 69.02472 351.642176 
L 91.934074 355.96998 
M 69.02472 351.642176 
L 79.302615 334.426718 
M 56.101971 336.72853 
L 79.302615 334.426718 
M 56.101971 336.72853 
L 61.113386 317.314801 
M 39.501024 326.059747 
L 61.113386 317.314801 
M 39.501024 326.059747 
L 38.839962 306.020532 
M 20.566791 320.500155 
L 38.839962 306.020532 
M 20.566791 320.500155 
L 14.286807 301.458915 
M 0.833209 320.500155 
L 14.286807 301.458915 
M 0.833209 320.500155 
L -1 317.844423 
M 0.833209 457.750239 
L -1 459.20287 
M 0.833209 457.750239 
L 7.113193 476.791478 
M 20.566791 457.750239 
L 7.113193 476.791478 
M 20.566791 457.750239 
L 31.956931 474.250899 
M 39.501024 452.190647 
L 31.956931 474.250899 
M 39.501024 452.190647 
L 55.078557 464.813945 
M 56.101971 441.521863 
L 55.078557 464.813945 
M 56.101971 441.521863 
L 74.604898 449.245132 
M 69.02472 426.608217 
L 74.604898 449.245132 
M 69.02472 426.608217 
L 88.954046 428.805763 
M 77.222345 408.657919 
L 88.954046 428.805763 
M 77.222345 408.657919 
L 96.96351 405.151709 
L 96.96351 405.151709 
" style="fill:none;stroke:#00bac9;stroke-linecap:square;"/>
   </g>
   <g id="line2d_4">
    <path clip-path="url(#p791e17a8d1)" d="M 10.008884 748.364589 
L -1 749.016491 
M 10.008884 748.364589 
L 47.59125 756.865231 
M 111.246308 734.007569 
L 47.59125 756.865231 
M 111.246308 734.007569 
L 149.701229 731.575718 
M 204.338063 691.710235 
L 149.701229 731.575718 
M 204.338063 691.710235 
L 240.550165 678.54287 
M 281.742408 624.899272 
L 240.550165 678.54287 
M 281.742408 624.899272 
L 312.778012 602.06315 
M 337.188539 538.987292 
L 312.778012 602.06315 
M 337.188539 538.987292 
L 360.533269 508.33246 
M 366.184477 440.934372 
L 360.533269 508.33246 
M 366.184477 440.934372 
L 379.947128 404.944308 
M 366.38119 338.684183 
L 379.947128 404.944308 
M 366.38119 338.684183 
L 369.446795 300.274583 
M 337.762742 240.520422 
L 369.446795 300.274583 
M 337.762742 240.520422 
L 329.882902 202.803001 
M 282.647592 154.395747 
L 329.882902 202.803001 
M 282.647592 154.395747 
L 264.460733 120.426144 
M 205.50087 87.287452 
L 264.460733 120.426144 
M 205.50087 87.287452 
L 178.480377 59.817678 
M 112.572551 44.632261 
L 178.480377 59.817678 
M 112.572551 44.632261 
L 78.907443 25.887755 
M 11.391116 29.885805 
L 78.907443 25.887755 
M 11.391116 29.885805 
L -1 27.083095 
L -1 27.083095 
" style="fill:none;stroke:#00bac9;stroke-linecap:square;"/>
   </g>
   <g id="patch_3">
    <path d="M 10.7 767.550394 
L 10.7 10.7 
" style="fill:none;stroke:#000000;stroke-linecap:square;stroke-linejoin:miter;stroke-width:0.8;"/>
   </g>
   <g id="patch_4">
    <path d="M 520.93622 767.550394 
L 520.93622 10.7 
" style="fill:none;stroke:#000000;stroke-linecap:square;stroke-linejoin:miter;stroke-width:0.8;"/>
   </g>
   <g id="patch_5">
    <path d="M 10.7 767.550394 
L 520.93622 767.550394 
" style="fill:none;stroke:#000000;stroke-linecap:square;stroke-linejoin:miter;stroke-width:0.8;"/>
   </g>
   <g id="patch_6">
    <path d="M 10.7 10.7 
L 520.93622 10.7 
" style="fill:none;stroke:#000000;stroke-linecap:square;stroke-linejoin:miter;stroke-width:0.8;"/>
   </g>
   <g id="PathCollection_1">
    <defs>
     <path d="M 0 2.236068 
C 0.593012 2.236068 1.161816 2.000462 1.581139 1.581139 
C 2.000462 1.161816 2.236068 0.593012 2.236068 0 
C 2.236068 -0.593012 2.000462 -1.161816 1.581139 -1.581139 
C 1.161816 -2.000462 0.593012 -2.236068 0 -2.236068 
C -0.593012 -2.236068 -1.161816 -2.000462 -1.581139 -1.581139 
C -2.000462 -1.161816 -2.236068 -0.593012 -2.236068 0 
C -2.236068 0.593012 -2.000462 1.161816 -1.581139 1.581139 
C -1.161816 2.000462 -0.593012 2.236068 0 2.236068 
z
" id="mf98ceeb8d6" style="stroke:#44525c;"/>
    </defs>
    <g clip-path="url(#p791e17a8d1)">
     <use style="fill:#44525c;stroke:#44525c;" x="97.984424" xlink:href="#mf98ceeb8d6" y="380.199282"/>
     <use style="fill:#44525c;stroke:#44525c;" x="91.934077" xlink:href="#mf98ceeb8d6" y="355.969981"/>
     <use style="fill:#44525c;stroke:#44525c;" x="79.302618" xlink:href="#mf98ceeb8d6" y="334.426718"/>
     <use style="fill:#44525c;stroke:#44525c;" x="61.113385" xlink:href="#mf98ceeb8d6" y="317.314803"/>
     <use style="fill:#44525c;stroke:#44525c;" x="38.839961" xlink:href="#mf98ceeb8d6" y="306.020532"/>
     <use style="fill:#44525c;stroke:#44525c;" x="14.286807" xlink:href="#mf98ceeb8d6" y="301.458914"/>
     <use style="fill:#44525c;stroke:#44525c;" x="-1" xlink:href="#mf98ceeb8d6" y="303.022181"/>
     <use style="fill:#44525c;stroke:#44525c;" x="-1" xlink:href="#mf98ceeb8d6" y="475.284167"/>
     <use style="fill:#44525c;stroke:#44525c;" x="7.113193" xlink:href="#mf98ceeb8d6" y="476.791479"/>
     <use style="fill:#44525c;stroke:#44525c;" x="31.956931" xlink:href="#mf98ceeb8d6" y="474.250898"/>
     <use style="fill:#44525c;stroke:#44525c;" x="55.078558" xlink:href="#mf98ceeb8d6" y="464.813942"/>
     <use style="fill:#44525c;stroke:#44525c;" x="74.604901" xlink:href="#mf98ceeb8d6" y="449.245134"/>
     <use style="fill:#44525c;stroke:#44525c;" x="88.954049" xlink:href="#mf98ceeb8d6" y="428.805765"/>
     <use style="fill:#44525c;stroke:#44525c;" x="96.963512" xlink:href="#mf98ceeb8d6" y="405.151709"/>
     <use style="fill:#44525c;stroke:#44525c;" x="114.006249" xlink:href="#mf98ceeb8d6" y="367.773215"/>
     <use style="fill:#44525c;stroke:#44525c;" x="103.806076" xlink:href="#mf98ceeb8d6" y="339.533387"/>
     <use style="fill:#44525c;stroke:#44525c;" x="86.062994" xlink:href="#mf98ceeb8d6" y="315.311197"/>
     <use style="fill:#44525c;stroke:#44525c;" x="62.214457" xlink:href="#mf98ceeb8d6" y="297.068965"/>
     <use style="fill:#44525c;stroke:#44525c;" x="34.192522" xlink:href="#mf98ceeb8d6" y="286.284596"/>
     <use style="fill:#44525c;stroke:#44525c;" x="4.267364" xlink:href="#mf98ceeb8d6" y="283.831758"/>
     <use style="fill:#44525c;stroke:#44525c;" x="-1" xlink:href="#mf98ceeb8d6" y="284.920448"/>
     <use style="fill:#44525c;stroke:#44525c;" x="-1" xlink:href="#mf98ceeb8d6" y="492.932381"/>
     <use style="fill:#44525c;stroke:#44525c;" x="17.132636" xlink:href="#mf98ceeb8d6" y="494.418636"/>
     <use style="fill:#44525c;stroke:#44525c;" x="46.536661" xlink:href="#mf98ceeb8d6" y="488.341235"/>
     <use style="fill:#44525c;stroke:#44525c;" x="73.03741" xlink:href="#mf98ceeb8d6" y="474.225932"/>
     <use style="fill:#44525c;stroke:#44525c;" x="94.487959" xlink:href="#mf98ceeb8d6" y="453.216276"/>
     <use style="fill:#44525c;stroke:#44525c;" x="109.150503" xlink:href="#mf98ceeb8d6" y="427.01434"/>
     <use style="fill:#44525c;stroke:#44525c;" x="115.837166" xlink:href="#mf98ceeb8d6" y="397.742855"/>
     <use style="fill:#44525c;stroke:#44525c;" x="127.640312" xlink:href="#mf98ceeb8d6" y="352.216531"/>
     <use style="fill:#44525c;stroke:#44525c;" x="112.505043" xlink:href="#mf98ceeb8d6" y="320.765696"/>
     <use style="fill:#44525c;stroke:#44525c;" x="89.122128" xlink:href="#mf98ceeb8d6" y="294.852945"/>
     <use style="fill:#44525c;stroke:#44525c;" x="59.385917" xlink:href="#mf98ceeb8d6" y="276.577571"/>
     <use style="fill:#44525c;stroke:#44525c;" x="25.705463" xlink:href="#mf98ceeb8d6" y="267.420119"/>
     <use style="fill:#44525c;stroke:#44525c;" x="-1" xlink:href="#mf98ceeb8d6" y="267.957649"/>
     <use style="fill:#44525c;stroke:#44525c;" x="-1" xlink:href="#mf98ceeb8d6" y="510.763742"/>
     <use style="fill:#44525c;stroke:#44525c;" x="30.590644" xlink:href="#mf98ceeb8d6" y="510.127882"/>
     <use style="fill:#44525c;stroke:#44525c;" x="63.875332" xlink:href="#mf98ceeb8d6" y="499.622584"/>
     <use style="fill:#44525c;stroke:#44525c;" x="92.852066" xlink:href="#mf98ceeb8d6" y="480.165436"/>
     <use style="fill:#44525c;stroke:#44525c;" x="115.17333" xlink:href="#mf98ceeb8d6" y="453.332756"/>
     <use style="fill:#44525c;stroke:#44525c;" x="129.030783" xlink:href="#mf98ceeb8d6" y="421.298361"/>
     <use style="fill:#44525c;stroke:#44525c;" x="133.301785" xlink:href="#mf98ceeb8d6" y="386.657488"/>
     <use style="fill:#44525c;stroke:#44525c;" x="138.486148" xlink:href="#mf98ceeb8d6" y="333.944654"/>
     <use style="fill:#44525c;stroke:#44525c;" x="117.763748" xlink:href="#mf98ceeb8d6" y="300.178341"/>
     <use style="fill:#44525c;stroke:#44525c;" x="88.367683" xlink:href="#mf98ceeb8d6" y="273.617973"/>
     <use style="fill:#44525c;stroke:#44525c;" x="52.679452" xlink:href="#mf98ceeb8d6" y="256.4153"/>
     <use style="fill:#44525c;stroke:#44525c;" x="13.590292" xlink:href="#mf98ceeb8d6" y="249.964009"/>
     <use style="fill:#44525c;stroke:#44525c;" x="-1" xlink:href="#mf98ceeb8d6" y="251.753404"/>
     <use style="fill:#44525c;stroke:#44525c;" x="-1" xlink:href="#mf98ceeb8d6" y="526.832427"/>
     <use style="fill:#44525c;stroke:#44525c;" x="7.809708" xlink:href="#mf98ceeb8d6" y="528.286385"/>
     <use style="fill:#44525c;stroke:#44525c;" x="47.133022" xlink:href="#mf98ceeb8d6" y="523.46366"/>
     <use style="fill:#44525c;stroke:#44525c;" x="83.504746" xlink:href="#mf98ceeb8d6" y="507.757644"/>
     <use style="fill:#44525c;stroke:#44525c;" x="113.97827" xlink:href="#mf98ceeb8d6" y="482.440727"/>
     <use style="fill:#44525c;stroke:#44525c;" x="136.084795" xlink:href="#mf98ceeb8d6" y="449.563944"/>
     <use style="fill:#44525c;stroke:#44525c;" x="148.033386" xlink:href="#mf98ceeb8d6" y="411.790772"/>
     <use style="fill:#44525c;stroke:#44525c;" x="148.85605" xlink:href="#mf98ceeb8d6" y="372.181369"/>
     <use style="fill:#44525c;stroke:#44525c;" x="146.202611" xlink:href="#mf98ceeb8d6" y="313.412311"/>
     <use style="fill:#44525c;stroke:#44525c;" x="119.383008" xlink:href="#mf98ceeb8d6" y="278.303721"/>
     <use style="fill:#44525c;stroke:#44525c;" x="83.758562" xlink:href="#mf98ceeb8d6" y="252.173223"/>
     <use style="fill:#44525c;stroke:#44525c;" x="42.215353" xlink:href="#mf98ceeb8d6" y="237.137768"/>
     <use style="fill:#44525c;stroke:#44525c;" x="-1" xlink:href="#mf98ceeb8d6" y="234.469814"/>
     <use style="fill:#44525c;stroke:#44525c;" x="-1" xlink:href="#mf98ceeb8d6" y="542.335951"/>
     <use style="fill:#44525c;stroke:#44525c;" x="23.281045" xlink:href="#mf98ceeb8d6" y="543.834972"/>
     <use style="fill:#44525c;stroke:#44525c;" x="66.358204" xlink:href="#mf98ceeb8d6" y="534.023646"/>
     <use style="fill:#44525c;stroke:#44525c;" x="104.926268" xlink:href="#mf98ceeb8d6" y="512.47352"/>
     <use style="fill:#44525c;stroke:#44525c;" x="135.860675" xlink:href="#mf98ceeb8d6" y="480.930431"/>
     <use style="fill:#44525c;stroke:#44525c;" x="156.655302" xlink:href="#mf98ceeb8d6" y="441.949836"/>
     <use style="fill:#44525c;stroke:#44525c;" x="165.625515" xlink:href="#mf98ceeb8d6" y="398.689704"/>
     <use style="fill:#44525c;stroke:#44525c;" x="162.044577" xlink:href="#mf98ceeb8d6" y="354.65471"/>
     <use style="fill:#44525c;stroke:#44525c;" x="150.511366" xlink:href="#mf98ceeb8d6" y="291.106564"/>
     <use style="fill:#44525c;stroke:#44525c;" x="117.232983" xlink:href="#mf98ceeb8d6" y="255.687591"/>
     <use style="fill:#44525c;stroke:#44525c;" x="75.323933" xlink:href="#mf98ceeb8d6" y="231.078946"/>
     <use style="fill:#44525c;stroke:#44525c;" x="28.179432" xlink:href="#mf98ceeb8d6" y="219.274266"/>
     <use style="fill:#44525c;stroke:#44525c;" x="-1" xlink:href="#mf98ceeb8d6" y="220.449379"/>
     <use style="fill:#44525c;stroke:#44525c;" x="-1" xlink:href="#mf98ceeb8d6" y="558.743379"/>
     <use style="fill:#44525c;stroke:#44525c;" x="41.781144" xlink:href="#mf98ceeb8d6" y="557.020499"/>
     <use style="fill:#44525c;stroke:#44525c;" x="87.823713" xlink:href="#mf98ceeb8d6" y="541.462991"/>
     <use style="fill:#44525c;stroke:#44525c;" x="127.618172" xlink:href="#mf98ceeb8d6" y="513.563975"/>
     <use style="fill:#44525c;stroke:#44525c;" x="157.940627" xlink:href="#mf98ceeb8d6" y="475.583679"/>
     <use style="fill:#44525c;stroke:#44525c;" x="176.334522" xlink:href="#mf98ceeb8d6" y="430.599025"/>
     <use style="fill:#44525c;stroke:#44525c;" x="181.309674" xlink:href="#mf98ceeb8d6" y="382.254406"/>
     <use style="fill:#44525c;stroke:#44525c;" x="172.463058" xlink:href="#mf98ceeb8d6" y="334.46642"/>
     <use style="fill:#44525c;stroke:#44525c;" x="151.199403" xlink:href="#mf98ceeb8d6" y="267.539431"/>
     <use style="fill:#44525c;stroke:#44525c;" x="111.253524" xlink:href="#mf98ceeb8d6" y="232.881242"/>
     <use style="fill:#44525c;stroke:#44525c;" x="63.161393" xlink:href="#mf98ceeb8d6" y="210.881039"/>
     <use style="fill:#44525c;stroke:#44525c;" x="10.819152" xlink:href="#mf98ceeb8d6" y="203.321085"/>
     <use style="fill:#44525c;stroke:#44525c;" x="-1" xlink:href="#mf98ceeb8d6" y="205.012687"/>
     <use style="fill:#44525c;stroke:#44525c;" x="-1" xlink:href="#mf98ceeb8d6" y="573.25665"/>
     <use style="fill:#44525c;stroke:#44525c;" x="10.580848" xlink:href="#mf98ceeb8d6" y="574.929309"/>
     <use style="fill:#44525c;stroke:#44525c;" x="62.932742" xlink:href="#mf98ceeb8d6" y="567.436506"/>
     <use style="fill:#44525c;stroke:#44525c;" x="111.053045" xlink:href="#mf98ceeb8d6" y="545.497993"/>
     <use style="fill:#44525c;stroke:#44525c;" x="151.043354" xlink:href="#mf98ceeb8d6" y="510.891059"/>
     <use style="fill:#44525c;stroke:#44525c;" x="179.66386" xlink:href="#mf98ceeb8d6" y="466.419395"/>
     <use style="fill:#44525c;stroke:#44525c;" x="194.59594" xlink:href="#mf98ceeb8d6" y="415.685818"/>
     <use style="fill:#44525c;stroke:#44525c;" x="194.629853" xlink:href="#mf98ceeb8d6" y="362.800455"/>
     <use style="fill:#44525c;stroke:#44525c;" x="179.762856" xlink:href="#mf98ceeb8d6" y="312.047765"/>
     <use style="fill:#44525c;stroke:#44525c;" x="148.120853" xlink:href="#mf98ceeb8d6" y="243.240317"/>
     <use style="fill:#44525c;stroke:#44525c;" x="101.453822" xlink:href="#mf98ceeb8d6" y="210.433759"/>
     <use style="fill:#44525c;stroke:#44525c;" x="47.43446" xlink:href="#mf98ceeb8d6" y="192.103703"/>
     <use style="fill:#44525c;stroke:#44525c;" x="-1" xlink:href="#mf98ceeb8d6" y="190.090931"/>
     <use style="fill:#44525c;stroke:#44525c;" x="-1" xlink:href="#mf98ceeb8d6" y="587.187038"/>
     <use style="fill:#44525c;stroke:#44525c;" x="30.96091" xlink:href="#mf98ceeb8d6" y="588.515225"/>
     <use style="fill:#44525c;stroke:#44525c;" x="86.314856" xlink:href="#mf98ceeb8d6" y="574.730357"/>
     <use style="fill:#44525c;stroke:#44525c;" x="135.542953" xlink:href="#mf98ceeb8d6" y="545.908885"/>
     <use style="fill:#44525c;stroke:#44525c;" x="174.656998" xlink:href="#mf98ceeb8d6" y="504.385715"/>
     <use style="fill:#44525c;stroke:#44525c;" x="200.488237" xlink:href="#mf98ceeb8d6" y="453.524834"/>
     <use style="fill:#44525c;stroke:#44525c;" x="210.943956" xlink:href="#mf98ceeb8d6" y="397.446672"/>
     <use style="fill:#44525c;stroke:#44525c;" x="205.177093" xlink:href="#mf98ceeb8d6" y="340.694356"/>
     <use style="fill:#44525c;stroke:#44525c;" x="183.654866" xlink:href="#mf98ceeb8d6" y="287.865611"/>
     <use style="fill:#44525c;stroke:#44525c;" x="141.197938" xlink:href="#mf98ceeb8d6" y="218.74832"/>
     <use style="fill:#44525c;stroke:#44525c;" x="87.911145" xlink:href="#mf98ceeb8d6" y="188.884255"/>
     <use style="fill:#44525c;stroke:#44525c;" x="28.369161" xlink:href="#mf98ceeb8d6" y="175.242542"/>
     <use style="fill:#44525c;stroke:#44525c;" x="-1" xlink:href="#mf98ceeb8d6" y="177.017873"/>
     <use style="fill:#44525c;stroke:#44525c;" x="-1" xlink:href="#mf98ceeb8d6" y="602.647023"/>
     <use style="fill:#44525c;stroke:#44525c;" x="54.004272" xlink:href="#mf98ceeb8d6" y="599.322079"/>
     <use style="fill:#44525c;stroke:#44525c;" x="111.469445" xlink:href="#mf98ceeb8d6" y="578.607404"/>
     <use style="fill:#44525c;stroke:#44525c;" x="160.77089" xlink:href="#mf98ceeb8d6" y="542.542024"/>
     <use style="fill:#44525c;stroke:#44525c;" x="197.914479" xlink:href="#mf98ceeb8d6" y="494.047699"/>
     <use style="fill:#44525c;stroke:#44525c;" x="219.891055" xlink:href="#mf98ceeb8d6" y="437.053188"/>
     <use style="fill:#44525c;stroke:#44525c;" x="224.920233" xlink:href="#mf98ceeb8d6" y="376.175836"/>
     <use style="fill:#44525c;stroke:#44525c;" x="212.594554" xlink:href="#mf98ceeb8d6" y="316.347565"/>
     <use style="fill:#44525c;stroke:#44525c;" x="183.912561" xlink:href="#mf98ceeb8d6" y="262.415298"/>
     <use style="fill:#44525c;stroke:#44525c;" x="130.421172" xlink:href="#mf98ceeb8d6" y="194.604377"/>
     <use style="fill:#44525c;stroke:#44525c;" x="70.768776" xlink:href="#mf98ceeb8d6" y="168.754485"/>
     <use style="fill:#44525c;stroke:#44525c;" x="6.249961" xlink:href="#mf98ceeb8d6" y="160.757714"/>
     <use style="fill:#44525c;stroke:#44525c;" x="-1" xlink:href="#mf98ceeb8d6" y="161.944701"/>
     <use style="fill:#44525c;stroke:#44525c;" x="-1" xlink:href="#mf98ceeb8d6" y="615.490966"/>
     <use style="fill:#44525c;stroke:#44525c;" x="15.150039" xlink:href="#mf98ceeb8d6" y="617.492679"/>
     <use style="fill:#44525c;stroke:#44525c;" x="79.308335" xlink:href="#mf98ceeb8d6" y="606.988476"/>
     <use style="fill:#44525c;stroke:#44525c;" x="137.908393" xlink:href="#mf98ceeb8d6" y="578.834281"/>
     <use style="fill:#44525c;stroke:#44525c;" x="186.20278" xlink:href="#mf98ceeb8d6" y="535.310985"/>
     <use style="fill:#44525c;stroke:#44525c;" x="220.278983" xlink:href="#mf98ceeb8d6" y="479.944581"/>
     <use style="fill:#44525c;stroke:#44525c;" x="237.376348" xlink:href="#mf98ceeb8d6" y="417.220535"/>
     <use style="fill:#44525c;stroke:#44525c;" x="236.10973" xlink:href="#mf98ceeb8d6" y="352.220373"/>
     <use style="fill:#44525c;stroke:#44525c;" x="216.581748" xlink:href="#mf98ceeb8d6" y="290.210019"/>
     <use style="fill:#44525c;stroke:#44525c;" x="180.374471" xlink:href="#mf98ceeb8d6" y="236.213189"/>
     <use style="fill:#44525c;stroke:#44525c;" x="115.848615" xlink:href="#mf98ceeb8d6" y="171.343531"/>
     <use style="fill:#44525c;stroke:#44525c;" x="50.233172" xlink:href="#mf98ceeb8d6" y="150.541429"/>
     <use style="fill:#44525c;stroke:#44525c;" x="-1" xlink:href="#mf98ceeb8d6" y="149.444468"/>
     <use style="fill:#44525c;stroke:#44525c;" x="-1" xlink:href="#mf98ceeb8d6" y="628.304905"/>
     <use style="fill:#44525c;stroke:#44525c;" x="39.985015" xlink:href="#mf98ceeb8d6" y="629.182441"/>
     <use style="fill:#44525c;stroke:#44525c;" x="106.430704" xlink:href="#mf98ceeb8d6" y="611.2079"/>
     <use style="fill:#44525c;stroke:#44525c;" x="165.120871" xlink:href="#mf98ceeb8d6" y="575.241516"/>
     <use style="fill:#44525c;stroke:#44525c;" x="211.300755" xlink:href="#mf98ceeb8d6" y="524.197127"/>
     <use style="fill:#44525c;stroke:#44525c;" x="241.229172" xlink:href="#mf98ceeb8d6" y="462.209988"/>
     <use style="fill:#44525c;stroke:#44525c;" x="252.481508" xlink:href="#mf98ceeb8d6" y="394.301967"/>
     <use style="fill:#44525c;stroke:#44525c;" x="244.146118" xlink:href="#mf98ceeb8d6" y="325.974558"/>
     <use style="fill:#44525c;stroke:#44525c;" x="216.898321" xlink:href="#mf98ceeb8d6" y="262.76323"/>
     <use style="fill:#44525c;stroke:#44525c;" x="172.945548" xlink:href="#mf98ceeb8d6" y="209.789002"/>
     <use style="fill:#44525c;stroke:#44525c;" x="97.60439" xlink:href="#mf98ceeb8d6" y="149.487347"/>
     <use style="fill:#44525c;stroke:#44525c;" x="26.570363" xlink:href="#mf98ceeb8d6" y="134.710547"/>
     <use style="fill:#44525c;stroke:#44525c;" x="-1" xlink:href="#mf98ceeb8d6" y="136.93479"/>
     <use style="fill:#44525c;stroke:#44525c;" x="-1" xlink:href="#mf98ceeb8d6" y="643.203402"/>
     <use style="fill:#44525c;stroke:#44525c;" x="67.149384" xlink:href="#mf98ceeb8d6" y="637.705442"/>
     <use style="fill:#44525c;stroke:#44525c;" x="134.895938" xlink:href="#mf98ceeb8d6" y="611.732575"/>
     <use style="fill:#44525c;stroke:#44525c;" x="192.580879" xlink:href="#mf98ceeb8d6" y="567.72537"/>
     <use style="fill:#44525c;stroke:#44525c;" x="235.530907" xlink:href="#mf98ceeb8d6" y="509.249044"/>
     <use style="fill:#44525c;stroke:#44525c;" x="260.266473" xlink:href="#mf98ceeb8d6" y="441.041001"/>
     <use style="fill:#44525c;stroke:#44525c;" x="264.783654" xlink:href="#mf98ceeb8d6" y="368.627044"/>
     <use style="fill:#44525c;stroke:#44525c;" x="248.716474" xlink:href="#mf98ceeb8d6" y="297.873726"/>
     <use style="fill:#44525c;stroke:#44525c;" x="213.366639" xlink:href="#mf98ceeb8d6" y="234.513052"/>
     <use style="fill:#44525c;stroke:#44525c;" x="161.597933" xlink:href="#mf98ceeb8d6" y="183.678158"/>
     <use style="fill:#44525c;stroke:#44525c;" x="75.876283" xlink:href="#mf98ceeb8d6" y="129.536511"/>
     <use style="fill:#44525c;stroke:#44525c;" x="0.101601" xlink:href="#mf98ceeb8d6" y="121.689369"/>
     <use style="fill:#44525c;stroke:#44525c;" x="-1" xlink:href="#mf98ceeb8d6" y="121.892569"/>
     <use style="fill:#44525c;stroke:#44525c;" x="-1" xlink:href="#mf98ceeb8d6" y="654.251827"/>
     <use style="fill:#44525c;stroke:#44525c;" x="21.298399" xlink:href="#mf98ceeb8d6" y="656.561025"/>
     <use style="fill:#44525c;stroke:#44525c;" x="96.214467" xlink:href="#mf98ceeb8d6" y="642.742095"/>
     <use style="fill:#44525c;stroke:#44525c;" x="164.202658" xlink:href="#mf98ceeb8d6" y="608.376595"/>
     <use style="fill:#44525c;stroke:#44525c;" x="219.754983" xlink:href="#mf98ceeb8d6" y="556.248685"/>
     <use style="fill:#44525c;stroke:#44525c;" x="258.370926" xlink:href="#mf98ceeb8d6" y="490.581409"/>
     <use style="fill:#44525c;stroke:#44525c;" x="276.922033" xlink:href="#mf98ceeb8d6" y="416.694759"/>
     <use style="fill:#44525c;stroke:#44525c;" x="273.905416" xlink:href="#mf98ceeb8d6" y="340.574588"/>
     <use style="fill:#44525c;stroke:#44525c;" x="249.565454" xlink:href="#mf98ceeb8d6" y="268.387695"/>
     <use style="fill:#44525c;stroke:#44525c;" x="205.874025" xlink:href="#mf98ceeb8d6" y="205.982242"/>
     <use style="fill:#44525c;stroke:#44525c;" x="146.370785" xlink:href="#mf98ceeb8d6" y="158.413955"/>
     <use style="fill:#44525c;stroke:#44525c;" x="50.912695" xlink:href="#mf98ceeb8d6" y="111.963711"/>
     <use style="fill:#44525c;stroke:#44525c;" x="-1" xlink:href="#mf98ceeb8d6" y="111.897129"/>
     <use style="fill:#44525c;stroke:#44525c;" x="-1" xlink:href="#mf98ceeb8d6" y="666.323252"/>
     <use style="fill:#44525c;stroke:#44525c;" x="50.201614" xlink:href="#mf98ceeb8d6" y="666.388922"/>
     <use style="fill:#44525c;stroke:#44525c;" x="126.715747" xlink:href="#mf98ceeb8d6" y="644.028933"/>
     <use style="fill:#44525c;stroke:#44525c;" x="193.830979" xlink:href="#mf98ceeb8d6" y="601.018107"/>
     <use style="fill:#44525c;stroke:#44525c;" x="246.110005" xlink:href="#mf98ceeb8d6" y="540.841009"/>
     <use style="fill:#44525c;stroke:#44525c;" x="279.317534" xlink:href="#mf98ceeb8d6" y="468.37278"/>
     <use style="fill:#44525c;stroke:#44525c;" x="290.763266" xlink:href="#mf98ceeb8d6" y="389.484393"/>
     <use style="fill:#44525c;stroke:#44525c;" x="279.519932" xlink:href="#mf98ceeb8d6" y="310.566909"/>
     <use style="fill:#44525c;stroke:#44525c;" x="246.498393" xlink:href="#mf98ceeb8d6" y="238.013755"/>
     <use style="fill:#44525c;stroke:#44525c;" x="194.373889" xlink:href="#mf98ceeb8d6" y="177.702733"/>
     <use style="fill:#44525c;stroke:#44525c;" x="127.369222" xlink:href="#mf98ceeb8d6" y="134.519935"/>
     <use style="fill:#44525c;stroke:#44525c;" x="23.018681" xlink:href="#mf98ceeb8d6" y="97.207051"/>
     <use style="fill:#44525c;stroke:#44525c;" x="-1" xlink:href="#mf98ceeb8d6" y="99.632132"/>
     <use style="fill:#44525c;stroke:#44525c;" x="-1" xlink:href="#mf98ceeb8d6" y="680.980877"/>
     <use style="fill:#44525c;stroke:#44525c;" x="81.123161" xlink:href="#mf98ceeb8d6" y="672.689192"/>
     <use style="fill:#44525c;stroke:#44525c;" x="158.159732" xlink:href="#mf98ceeb8d6" y="641.36237"/>
     <use style="fill:#44525c;stroke:#44525c;" x="223.249995" xlink:href="#mf98ceeb8d6" y="589.60076"/>
     <use style="fill:#44525c;stroke:#44525c;" x="271.120717" xlink:href="#mf98ceeb8d6" y="521.597836"/>
     <use style="fill:#44525c;stroke:#44525c;" x="297.893701" xlink:href="#mf98ceeb8d6" y="442.862774"/>
     <use style="fill:#44525c;stroke:#44525c;" x="301.399999" xlink:href="#mf98ceeb8d6" y="359.774207"/>
     <use style="fill:#44525c;stroke:#44525c;" x="281.355465" xlink:href="#mf98ceeb8d6" y="279.063478"/>
     <use style="fill:#44525c;stroke:#44525c;" x="239.384042" xlink:href="#mf98ceeb8d6" y="207.269297"/>
     <use style="fill:#44525c;stroke:#44525c;" x="178.886005" xlink:href="#mf98ceeb8d6" y="150.208001"/>
     <use style="fill:#44525c;stroke:#44525c;" x="104.762534" xlink:href="#mf98ceeb8d6" y="112.50235"/>
     <use style="fill:#44525c;stroke:#44525c;" x="-1" xlink:href="#mf98ceeb8d6" y="87.206149"/>
     <use style="fill:#44525c;stroke:#44525c;" x="-1" xlink:href="#mf98ceeb8d6" y="690.101499"/>
     <use style="fill:#44525c;stroke:#44525c;" x="28.848581" xlink:href="#mf98ceeb8d6" y="692.586611"/>
     <use style="fill:#44525c;stroke:#44525c;" x="113.608394" xlink:href="#mf98ceeb8d6" y="675.181229"/>
     <use style="fill:#44525c;stroke:#44525c;" x="190.031194" xlink:href="#mf98ceeb8d6" y="634.601317"/>
     <use style="fill:#44525c;stroke:#44525c;" x="251.925623" xlink:href="#mf98ceeb8d6" y="574.134381"/>
     <use style="fill:#44525c;stroke:#44525c;" x="294.277404" xlink:href="#mf98ceeb8d6" y="498.679096"/>
     <use style="fill:#44525c;stroke:#44525c;" x="313.655432" xlink:href="#mf98ceeb8d6" y="414.348405"/>
     <use style="fill:#44525c;stroke:#44525c;" x="308.489803" xlink:href="#mf98ceeb8d6" y="327.974285"/>
     <use style="fill:#44525c;stroke:#44525c;" x="279.19902" xlink:href="#mf98ceeb8d6" y="246.554233"/>
     <use style="fill:#44525c;stroke:#44525c;" x="228.156037" xlink:href="#mf98ceeb8d6" y="176.684457"/>
     <use style="fill:#44525c;stroke:#44525c;" x="159.496082" xlink:href="#mf98ceeb8d6" y="124.02537"/>
     <use style="fill:#44525c;stroke:#44525c;" x="78.781531" xlink:href="#mf98ceeb8d6" y="92.843067"/>
     <use style="fill:#44525c;stroke:#44525c;" x="-1" xlink:href="#mf98ceeb8d6" y="82.669017"/>
     <use style="fill:#44525c;stroke:#44525c;" x="-1" xlink:href="#mf98ceeb8d6" y="701.743179"/>
     <use style="fill:#44525c;stroke:#44525c;" x="61.485011" xlink:href="#mf98ceeb8d6" y="700.565648"/>
     <use style="fill:#44525c;stroke:#44525c;" x="147.170781" xlink:href="#mf98ceeb8d6" y="673.642332"/>
     <use style="fill:#44525c;stroke:#44525c;" x="221.800497" xlink:href="#mf98ceeb8d6" y="623.669137"/>
     <use style="fill:#44525c;stroke:#44525c;" x="279.328104" xlink:href="#mf98ceeb8d6" y="554.694582"/>
     <use style="fill:#44525c;stroke:#44525c;" x="315.093062" xlink:href="#mf98ceeb8d6" y="472.306569"/>
     <use style="fill:#44525c;stroke:#44525c;" x="326.197904" xlink:href="#mf98ceeb8d6" y="383.179703"/>
     <use style="fill:#44525c;stroke:#44525c;" x="311.742989" xlink:href="#mf98ceeb8d6" y="294.5345"/>
     <use style="fill:#44525c;stroke:#44525c;" x="272.899345" xlink:href="#mf98ceeb8d6" y="213.552482"/>
     <use style="fill:#44525c;stroke:#44525c;" x="212.813889" xlink:href="#mf98ceeb8d6" y="146.794318"/>
     <use style="fill:#44525c;stroke:#44525c;" x="136.354357" xlink:href="#mf98ceeb8d6" y="99.66835"/>
     <use style="fill:#44525c;stroke:#44525c;" x="49.715056" xlink:href="#mf98ceeb8d6" y="75.992462"/>
     <use style="fill:#44525c;stroke:#44525c;" x="-1" xlink:href="#mf98ceeb8d6" y="75.00268"/>
     <use style="fill:#44525c;stroke:#44525c;" x="-1" xlink:href="#mf98ceeb8d6" y="715.139515"/>
     <use style="fill:#44525c;stroke:#44525c;" x="3.494074" xlink:href="#mf98ceeb8d6" y="715.887142"/>
     <use style="fill:#44525c;stroke:#44525c;" x="95.845449" xlink:href="#mf98ceeb8d6" y="704.681115"/>
     <use style="fill:#44525c;stroke:#44525c;" x="181.298834" xlink:href="#mf98ceeb8d6" y="667.910653"/>
     <use style="fill:#44525c;stroke:#44525c;" x="252.931315" xlink:href="#mf98ceeb8d6" y="608.554636"/>
     <use style="fill:#44525c;stroke:#44525c;" x="304.939684" xlink:href="#mf98ceeb8d6" y="531.42176"/>
     <use style="fill:#44525c;stroke:#44525c;" x="333.110478" xlink:href="#mf98ceeb8d6" y="442.760852"/>
     <use style="fill:#44525c;stroke:#44525c;" x="335.161494" xlink:href="#mf98ceeb8d6" y="349.754704"/>
     <use style="fill:#44525c;stroke:#44525c;" x="310.926584" xlink:href="#mf98ceeb8d6" y="259.93813"/>
     <use style="fill:#44525c;stroke:#44525c;" x="262.369095" xlink:href="#mf98ceeb8d6" y="180.587509"/>
     <use style="fill:#44525c;stroke:#44525c;" x="193.422858" xlink:href="#mf98ceeb8d6" y="118.131356"/>
     <use style="fill:#44525c;stroke:#44525c;" x="109.673516" xlink:href="#mf98ceeb8d6" y="77.629571"/>
     <use style="fill:#44525c;stroke:#44525c;" x="17.905926" xlink:href="#mf98ceeb8d6" y="62.363251"/>
     <use style="fill:#44525c;stroke:#44525c;" x="-1" xlink:href="#mf98ceeb8d6" y="64.017743"/>
     <use style="fill:#44525c;stroke:#44525c;" x="-1" xlink:href="#mf98ceeb8d6" y="723.489986"/>
     <use style="fill:#44525c;stroke:#44525c;" x="37.653975" xlink:href="#mf98ceeb8d6" y="725.926116"/>
     <use style="fill:#44525c;stroke:#44525c;" x="131.449924" xlink:href="#mf98ceeb8d6" y="704.689495"/>
     <use style="fill:#44525c;stroke:#44525c;" x="215.463435" xlink:href="#mf98ceeb8d6" y="657.887737"/>
     <use style="fill:#44525c;stroke:#44525c;" x="282.888253" xlink:href="#mf98ceeb8d6" y="589.312423"/>
     <use style="fill:#44525c;stroke:#44525c;" x="328.261977" xlink:href="#mf98ceeb8d6" y="504.519151"/>
     <use style="fill:#44525c;stroke:#44525c;" x="347.908716" xlink:href="#mf98ceeb8d6" y="410.37734"/>
     <use style="fill:#44525c;stroke:#44525c;" x="340.236777" xlink:href="#mf98ceeb8d6" y="314.513809"/>
     <use style="fill:#44525c;stroke:#44525c;" x="305.867791" xlink:href="#mf98ceeb8d6" y="224.694846"/>
     <use style="fill:#44525c;stroke:#44525c;" x="247.58605" xlink:href="#mf98ceeb8d6" y="148.197076"/>
     <use style="fill:#44525c;stroke:#44525c;" x="170.113189" xlink:href="#mf98ceeb8d6" y="91.217826"/>
     <use style="fill:#44525c;stroke:#44525c;" x="79.725634" xlink:href="#mf98ceeb8d6" y="58.3733"/>
     <use style="fill:#44525c;stroke:#44525c;" x="-1" xlink:href="#mf98ceeb8d6" y="53.285645"/>
     <use style="fill:#44525c;stroke:#44525c;" x="-1" xlink:href="#mf98ceeb8d6" y="734.968418"/>
     <use style="fill:#44525c;stroke:#44525c;" x="73.729111" xlink:href="#mf98ceeb8d6" y="732.054914"/>
     <use style="fill:#44525c;stroke:#44525c;" x="167.790462" xlink:href="#mf98ceeb8d6" y="700.406503"/>
     <use style="fill:#44525c;stroke:#44525c;" x="249.125271" xlink:href="#mf98ceeb8d6" y="643.539928"/>
     <use style="fill:#44525c;stroke:#44525c;" x="311.144283" xlink:href="#mf98ceeb8d6" y="566.062187"/>
     <use style="fill:#44525c;stroke:#44525c;" x="348.82309" xlink:href="#mf98ceeb8d6" y="474.25006"/>
     <use style="fill:#44525c;stroke:#44525c;" x="359.109175" xlink:href="#mf98ceeb8d6" y="375.541621"/>
     <use style="fill:#44525c;stroke:#44525c;" x="341.169237" xlink:href="#mf98ceeb8d6" y="277.933642"/>
     <use style="fill:#44525c;stroke:#44525c;" x="296.456611" xlink:href="#mf98ceeb8d6" y="189.333751"/>
     <use style="fill:#44525c;stroke:#44525c;" x="228.593719" xlink:href="#mf98ceeb8d6" y="116.919751"/>
     <use style="fill:#44525c;stroke:#44525c;" x="143.07836" xlink:href="#mf98ceeb8d6" y="66.55825"/>
     <use style="fill:#44525c;stroke:#44525c;" x="46.838484" xlink:href="#mf98ceeb8d6" y="42.329179"/>
     <use style="fill:#44525c;stroke:#44525c;" x="-1" xlink:href="#mf98ceeb8d6" y="44.194284"/>
     <use style="fill:#44525c;stroke:#44525c;" x="-1" xlink:href="#mf98ceeb8d6" y="746.76012"/>
     <use style="fill:#44525c;stroke:#44525c;" x="10.008884" xlink:href="#mf98ceeb8d6" y="748.364583"/>
     <use style="fill:#44525c;stroke:#44525c;" x="111.246306" xlink:href="#mf98ceeb8d6" y="734.007555"/>
     <use style="fill:#44525c;stroke:#44525c;" x="204.338061" xlink:href="#mf98ceeb8d6" y="691.710246"/>
     <use style="fill:#44525c;stroke:#44525c;" x="281.74242" xlink:href="#mf98ceeb8d6" y="624.89926"/>
     <use style="fill:#44525c;stroke:#44525c;" x="337.188531" xlink:href="#mf98ceeb8d6" y="538.987296"/>
     <use style="fill:#44525c;stroke:#44525c;" x="366.184489" xlink:href="#mf98ceeb8d6" y="440.934371"/>
     <use style="fill:#44525c;stroke:#44525c;" x="366.381184" xlink:href="#mf98ceeb8d6" y="338.684184"/>
     <use style="fill:#44525c;stroke:#44525c;" x="337.762745" xlink:href="#mf98ceeb8d6" y="240.520416"/>
     <use style="fill:#44525c;stroke:#44525c;" x="282.647602" xlink:href="#mf98ceeb8d6" y="154.395754"/>
     <use style="fill:#44525c;stroke:#44525c;" x="205.500871" xlink:href="#mf98ceeb8d6" y="87.287456"/>
     <use style="fill:#44525c;stroke:#44525c;" x="112.572552" xlink:href="#mf98ceeb8d6" y="44.632253"/>
     <use style="fill:#44525c;stroke:#44525c;" x="11.391116" xlink:href="#mf98ceeb8d6" y="29.885811"/>
     <use style="fill:#44525c;stroke:#44525c;" x="-1" xlink:href="#mf98ceeb8d6" y="31.643062"/>
    </g>
   </g>
   <g id="PathCollection_2">
    <defs>
     <path d="M 0 2.236068 
C 0.593012 2.236068 1.161816 2.000462 1.581139 1.581139 
C 2.000462 1.161816 2.236068 0.593012 2.236068 0 
C 2.236068 -0.593012 2.000462 -1.161816 1.581139 -1.581139 
C 1.161816 -2.000462 0.593012 -2.236068 0 -2.236068 
C -0.593012 -2.236068 -1.161816 -2.000462 -1.581139 -1.581139 
C -2.000462 -1.161816 -2.236068 -0.593012 -2.236068 0 
C -2.236068 0.593012 -2.000462 1.161816 -1.581139 1.581139 
C -1.161816 2.000462 -0.593012 2.236068 0 2.236068 
z
" id="m5ca6c0ea64" style="stroke:#5aa0df;"/>
    </defs>
    <g clip-path="url(#p791e17a8d1)">
     <use style="fill:#5aa0df;stroke:#5aa0df;" x="80.030725" xlink:href="#m5ca6c0ea64" y="389.125197"/>
     <use style="fill:#5aa0df;stroke:#5aa0df;" x="77.222345" xlink:href="#m5ca6c0ea64" y="369.592474"/>
     <use style="fill:#5aa0df;stroke:#5aa0df;" x="69.024717" xlink:href="#m5ca6c0ea64" y="351.642175"/>
     <use style="fill:#5aa0df;stroke:#5aa0df;" x="56.101971" xlink:href="#m5ca6c0ea64" y="336.728532"/>
     <use style="fill:#5aa0df;stroke:#5aa0df;" x="39.501025" xlink:href="#m5ca6c0ea64" y="326.059747"/>
     <use style="fill:#5aa0df;stroke:#5aa0df;" x="20.566791" xlink:href="#m5ca6c0ea64" y="320.500155"/>
     <use style="fill:#5aa0df;stroke:#5aa0df;" x="0.833209" xlink:href="#m5ca6c0ea64" y="320.500155"/>
     <use style="fill:#5aa0df;stroke:#5aa0df;" x="-1" xlink:href="#m5ca6c0ea64" y="321.038434"/>
     <use style="fill:#5aa0df;stroke:#5aa0df;" x="-1" xlink:href="#m5ca6c0ea64" y="457.21196"/>
     <use style="fill:#5aa0df;stroke:#5aa0df;" x="0.833209" xlink:href="#m5ca6c0ea64" y="457.750238"/>
     <use style="fill:#5aa0df;stroke:#5aa0df;" x="20.566791" xlink:href="#m5ca6c0ea64" y="457.750238"/>
     <use style="fill:#5aa0df;stroke:#5aa0df;" x="39.501025" xlink:href="#m5ca6c0ea64" y="452.190647"/>
     <use style="fill:#5aa0df;stroke:#5aa0df;" x="56.101971" xlink:href="#m5ca6c0ea64" y="441.521862"/>
     <use style="fill:#5aa0df;stroke:#5aa0df;" x="69.024717" xlink:href="#m5ca6c0ea64" y="426.608219"/>
     <use style="fill:#5aa0df;stroke:#5aa0df;" x="77.222345" xlink:href="#m5ca6c0ea64" y="408.65792"/>
    </g>
   </g>
   <g id="PathCollection_3">
    <g clip-path="url(#p791e17a8d1)">
     <use style="fill:#5aa0df;stroke:#5aa0df;" x="-1" xlink:href="#m5ca6c0ea64" y="754.783506"/>
     <use style="fill:#5aa0df;stroke:#5aa0df;" x="47.59125" xlink:href="#m5ca6c0ea64" y="756.865227"/>
     <use style="fill:#5aa0df;stroke:#5aa0df;" x="149.701232" xlink:href="#m5ca6c0ea64" y="731.575722"/>
     <use style="fill:#5aa0df;stroke:#5aa0df;" x="240.550177" xlink:href="#m5ca6c0ea64" y="678.542872"/>
     <use style="fill:#5aa0df;stroke:#5aa0df;" x="312.778013" xlink:href="#m5ca6c0ea64" y="602.063147"/>
     <use style="fill:#5aa0df;stroke:#5aa0df;" x="360.533262" xlink:href="#m5ca6c0ea64" y="508.332466"/>
     <use style="fill:#5aa0df;stroke:#5aa0df;" x="379.947136" xlink:href="#m5ca6c0ea64" y="404.944308"/>
     <use style="fill:#5aa0df;stroke:#5aa0df;" x="369.446785" xlink:href="#m5ca6c0ea64" y="300.274586"/>
     <use style="fill:#5aa0df;stroke:#5aa0df;" x="329.882893" xlink:href="#m5ca6c0ea64" y="202.803006"/>
     <use style="fill:#5aa0df;stroke:#5aa0df;" x="264.460742" xlink:href="#m5ca6c0ea64" y="120.426158"/>
     <use style="fill:#5aa0df;stroke:#5aa0df;" x="178.48037" xlink:href="#m5ca6c0ea64" y="59.817689"/>
     <use style="fill:#5aa0df;stroke:#5aa0df;" x="78.907445" xlink:href="#m5ca6c0ea64" y="25.88775"/>
     <use style="fill:#5aa0df;stroke:#5aa0df;" x="-1" xlink:href="#m5ca6c0ea64" y="22.464397"/>
    </g>
   </g>
  </g>
 </g>
 <defs>
  <clipPath id="p791e17a8d1">
   <rect height="756.850394" width="510.23622" x="10.7" y="10.7"/>
  </clipPath>
 </defs>
</svg>
