<?xml version="1.0" encoding="UTF-8" standalone="no"?>
<!-- Created with matplotlib (https://matplotlib.org/) -->

<svg
   xmlns:dc="http://purl.org/dc/elements/1.1/"
   xmlns:cc="http://creativecommons.org/ns#"
   xmlns:rdf="http://www.w3.org/1999/02/22-rdf-syntax-ns#"
   xmlns:svg="http://www.w3.org/2000/svg"
   xmlns="http://www.w3.org/2000/svg"
   xmlns:sodipodi="http://sodipodi.sourceforge.net/DTD/sodipodi-0.dtd"
   xmlns:inkscape="http://www.inkscape.org/namespaces/inkscape"
   height="841.889764pt"
   version="1.1"
   viewBox="0 0 1190.551181 841.889764"
   width="1190.551181pt"
   id="svg2"
   inkscape:version="0.91 r13725"
   sodipodi:docname="f1.svg">
  <sodipodi:namedview
     pagecolor="#ffffff"
     bordercolor="#666666"
     borderopacity="1"
     objecttolerance="10"
     gridtolerance="10"
     guidetolerance="10"
     inkscape:pageopacity="0"
     inkscape:pageshadow="2"
     inkscape:window-width="1920"
     inkscape:window-height="1019"
     id="namedview1205"
     showgrid="false"
     inkscape:zoom="1.0728517"
     inkscape:cx="964.02211"
     inkscape:cy="454.55942"
     inkscape:window-x="0"
     inkscape:window-y="0"
     inkscape:window-maximized="1"
     inkscape:current-layer="svg2" />
  <metadata
     id="metadata1207">
    <rdf:RDF>
      <cc:Work
         rdf:about="">
        <dc:format>image/svg+xml</dc:format>
        <dc:type
           rdf:resource="http://purl.org/dc/dcmitype/StillImage" />
        <dc:title />
      </cc:Work>
    </rdf:RDF>
  </metadata>
  <defs
     id="defs4">
    <style
       id="style6"
       type="text/css">
*{stroke-linecap:butt;stroke-linejoin:round;}
  </style>
    <defs
       id="defs25">
      <path
         d="m 0,1.118034 c 0.296506,0 0.580908,-0.117803 0.790569,-0.327465 C 1.000231,0.580908 1.118034,0.296506 1.118034,0 c 0,-0.296506 -0.117803,-0.580908 -0.327465,-0.790569 C 0.580908,-1.000231 0.296506,-1.118034 0,-1.118034 c -0.296506,0 -0.580908,0.117803 -0.790569,0.327465 C -1.000231,-0.580908 -1.118034,-0.296506 -1.118034,0 c 0,0.296506 0.117803,0.580908 0.327465,0.790569 C -0.580908,1.000231 -0.296506,1.118034 0,1.118034 Z"
         id="m9f73ea8b63"
         style="stroke:#000000;stroke-linecap:butt;stroke-linejoin:round"
         inkscape:connector-curvature="0" />
    </defs>
    <defs
       id="defs17">
      <path
         d="M 0,7.071068 C 1.875269,7.071068 3.673985,6.326016 5,5 6.326016,3.673985 7.071068,1.875269 7.071068,0 7.071068,-1.875269 6.326016,-3.673985 5,-5 3.673985,-6.326016 1.875269,-7.071068 0,-7.071068 c -1.875269,0 -3.673985,0.745052 -5,2.071068 -1.326016,1.326015 -2.071068,3.124731 -2.071068,5 0,1.875269 0.745052,3.673985 2.071068,5 1.326015,1.326016 3.124731,2.071068 5,2.071068 z"
         id="mc01263b19f"
         style="stroke:#c7cbce;stroke-linecap:butt;stroke-linejoin:round"
         inkscape:connector-curvature="0" />
    </defs>
  </defs>
  <defs
     id="defs1197" />
  <path
     inkscape:connector-curvature="0"
     id="path9808"
     d="M -56.69269,387.47693 62.6155,140.65809 l 332.5716,3.72838 76.05898,263.22372 z"
     style="fill:#f7f7f7;fill-rule:evenodd;stroke:#000000;stroke-width:0.80000001px;stroke-linecap:butt;stroke-linejoin:miter;stroke-opacity:1;fill-opacity:1"
     sodipodi:nodetypes="ccccc" />
  <path
     style="fill:#ac9d93;fill-rule:evenodd;stroke:#000000;stroke-width:0.80000001px;stroke-linecap:butt;stroke-linejoin:miter;stroke-opacity:1"
     d="m 585.27273,104.76247 -62.21819,132.87272 647.49086,11.6 -37.9636,-137.09089 z"
     id="path14563"
     inkscape:connector-curvature="0"
     sodipodi:nodetypes="ccccc" />
  <path
     mask="none"
     clip-path="none"
     d="m 58.85534,201.2693 c 0,0 318.12636,6.48552 318.12636,6.48552 0,0 -11.47446,-52.91194 -11.47446,-52.91194 0,0 -287.83659,-4.04358 -287.83659,-4.04358 0,0 -18.81531,50.47 -18.81531,50.47"
     style="fill:#ffffff;stroke-linecap:butt;stroke-linejoin:round"
     id="path14"
     inkscape:connector-curvature="0" />
  <path
     mask="none"
     clip-path="none"
     d="m 64.10357,193.62859 c 0,0 12.25983,-3.01822 12.25983,-3.01822 0,0 23.88302,-10.14392 23.88302,-10.14392 0,0 10.93963,0.19359 10.93963,0.19359 0,0 22.90522,-9.81185 22.90522,-9.81185 0,0 10.81115,0.17764 10.81115,0.17764 0,0 21.97669,-9.49552 21.97669,-9.49552 0,0 10.68528,0.16259 10.68528,0.16259 0,0 16.57609,-9.25741 16.57609,-9.25741 0,0 18.73176,9.79467 18.73176,9.79467 0,0 10.80688,0.16444 10.80688,0.16444 0,0 19.84145,10.25168 19.84145,10.25168 0,0 11.10618,0.18249 11.10618,0.18249 0,0 21.03771,10.7419 21.03771,10.7419 0,0 11.42219,0.20213 11.42219,0.20213 0,0 22.32947,11.26869 22.32947,11.26869 0,0 11.75633,0.22353 11.75633,0.22353 0,0 18.54756,11.73016 18.54756,11.73016 0,0 20.31728,-10.99121 20.31728,-10.99121 0,0 11.30883,-2.5663 11.30883,-2.5663"
     style="fill:none;stroke:#ac67bb;stroke-width:1.5;stroke-linecap:square;stroke-linejoin:round"
     id="path743"
     inkscape:connector-curvature="0" />
  <path
     mask="none"
     clip-path="none"
     d="m 64.11289,187.16649 c 0,0 17.00451,3.53427 17.00451,3.53427 0,0 11.1146,0.21133 11.1146,0.21133 0,0 12.78288,11.29824 12.78288,11.29824 0,0 23.95427,-10.59975 23.95427,-10.59975 0,0 11.24762,0.21386 11.24762,0.21386 0,0 22.9451,-10.24463 22.9451,-10.24463 0,0 11.11151,0.19663 11.11151,0.19663 0,0 21.98804,-9.9067 21.98804,-9.9067 0,0 10.97828,0.18039 10.97828,0.18039 0,0 21.07971,-9.58492 21.07971,-9.58492 0,0 10.84786,0.16507 10.84786,0.16507 0,0 15.63114,-9.34266 15.63114,-9.34266 0,0 20.21547,9.88812 20.21547,9.88812 0,0 10.97224,0.16696 10.97224,0.16696 0,0 21.40675,10.3531 21.40675,10.3531 0,0 11.28023,0.18535 11.28023,0.18535 0,0 22.6914,10.85216 22.6914,10.85216 0,0 11.60564,0.20537 11.60564,0.20537 0,0 19.72425,3.04616 19.72425,3.04616"
     style="fill:none;stroke:#5c9dde;stroke-width:1.5;stroke-linecap:square;stroke-linejoin:round"
     id="path746"
     inkscape:connector-curvature="0" />
  <path
     mask="none"
     clip-path="none"
     d="m 68.01142,183.0172 c 0,0 11.99717,-2.90888 11.99717,-2.90888 0,0 23.3523,-9.76508 23.3523,-9.76508 0,0 10.72901,0.17629 10.72901,0.17629 0,0 22.41414,-9.45143 22.41414,-9.45143 0,0 10.60536,0.16138 10.60536,0.16138 0,0 17.0374,-9.21535 17.0374,-9.21535 0,0 18.00562,9.74858 18.00562,9.74858 0,0 10.72559,0.16321 10.72559,0.16321 0,0 19.07573,10.20167 19.07573,10.20167 0,0 11.02067,0.18108 11.02067,0.18108 0,0 20.22915,10.68757 20.22915,10.68757 0,0 11.33211,0.20054 11.33211,0.20054 0,0 21.47443,11.20955 21.47443,11.20955 0,0 11.66131,0.22172 11.66131,0.22172 0,0 17.68489,11.66657 17.68489,11.66657 0,0 20.86484,-10.93361 20.86484,-10.93361 0,0 11.80428,0.22444 11.80428,0.22444 0,0 19.92851,-10.55857 19.92851,-10.55857 0,0 11.0841,-2.47243 11.0841,-2.47243"
     style="fill:none;stroke:#d27384;stroke-width:1.5;stroke-linecap:square;stroke-linejoin:round"
     id="path749"
     inkscape:connector-curvature="0" />
  <path
     mask="none"
     clip-path="none"
     d="m 67.97302,176.81213 c 0,0 16.6968,3.37868 16.6968,3.37868 0,0 10.89728,0.19284 10.89728,0.19284 0,0 17.38819,10.92246 17.38819,10.92246 0,0 11.20302,0.213 11.20302,0.213 0,0 13.56841,11.35811 13.56841,11.35811 0,0 23.46184,-10.65404 23.46184,-10.65404 0,0 11.33762,0.21557 11.33762,0.21557 0,0 22.46385,-10.2957 22.46385,-10.2957 0,0 11.19897,0.19818 11.19897,0.19818 0,0 21.51768,-9.9548 21.51768,-9.9548 0,0 11.0633,0.18179 11.0633,0.18179 0,0 20.61991,-9.63022 20.61991,-9.63022 0,0 10.93055,0.16632 10.93055,0.16632 0,0 15.14724,-9.38585 15.14724,-9.38585 0,0 20.97337,9.93548 20.97337,9.93548 0,0 11.05636,0.16824 11.05636,0.16824 0,0 22.20671,10.40453 22.20671,10.40453 0,0 11.36881,0.18681 11.36881,0.18681 0,0 19.30873,2.90667 19.30873,2.90667"
     style="fill:none;stroke:#18b3cf;stroke-width:1.5;stroke-linecap:square;stroke-linejoin:round"
     id="path752"
     inkscape:connector-curvature="0" />
  <path
     mask="none"
     clip-path="none"
     d="m 71.76571,172.82279 c 0,0 11.74549,-2.80571 11.74549,-2.80571 0,0 22.84439,-9.40773 22.84439,-9.40773 0,0 10.52634,0.16018 10.52634,0.16018 0,0 17.49142,-9.17366 17.49142,-9.17366 0,0 17.28973,9.7029 17.28973,9.7029 0,0 10.64522,0.16199 10.64522,0.16199 0,0 18.32106,10.15212 18.32106,10.15212 0,0 10.93613,0.17969 10.93613,0.17969 0,0 19.43251,10.63376 19.43251,10.63376 0,0 11.24309,0.19896 11.24309,0.19896 0,0 20.63229,11.151 20.63229,11.151 0,0 11.56742,0.21993 11.56742,0.21993 0,0 16.83566,11.60363 16.83566,11.60363 0,0 21.40278,-10.87659 21.40278,-10.87659 0,0 11.70868,0.22262 11.70868,0.22262 0,0 20.45332,-10.50497 20.45332,-10.50497 0,0 11.55936,0.20456 11.55936,0.20456 0,0 19.55422,-10.15173 19.55422,-10.15173 0,0 10.86813,-2.38397 10.86813,-2.38397"
     style="fill:none;stroke:#ec883b;stroke-width:1.5;stroke-linecap:square;stroke-linejoin:round"
     id="path755"
     inkscape:connector-curvature="0" />
  <path
     mask="none"
     clip-path="none"
     d="m 71.68326,166.8598 c 0,0 16.39994,3.2324 16.39994,3.2324 0,0 10.68829,0.17563 10.68829,0.17563 0,0 17.11208,10.47534 17.11208,10.47534 0,0 10.98222,0.19434 10.98222,0.19434 0,0 18.18098,10.97876 18.18098,10.97876 0,0 11.29249,0.21471 11.29249,0.21471 0,0 14.36624,11.41856 14.36624,11.41856 0,0 22.96063,-10.70885 22.96063,-10.70885 0,0 11.42872,0.2173 11.42872,0.2173 0,0 21.9742,-10.34727 21.9742,-10.34727 0,0 11.28747,0.19975 11.28747,0.19975 0,0 21.03925,-10.00334 21.03925,-10.00334 0,0 11.14932,0.1832 11.14932,0.1832 0,0 20.15239,-9.67594 20.15239,-9.67594 0,0 11.01418,0.1676 11.01418,0.1676 0,0 14.65556,-9.42944 14.65556,-9.42944 0,0 21.74222,9.98328 21.74222,9.98328 0,0 11.14145,0.16954 11.14145,0.16954 0,0 18.91033,2.77575 18.91033,2.77575"
     style="fill:none;stroke:#3fb494;stroke-width:1.5;stroke-linecap:square;stroke-linejoin:round"
     id="path758"
     inkscape:connector-curvature="0" />
  <path
     mask="none"
     clip-path="none"
     d="m 75.37532,163.02124 c 0,0 11.50411,-2.70825 11.50411,-2.70825 0,0 17.9383,-9.13232 17.9383,-9.13232 0,0 16.58391,9.65763 16.58391,9.65763 0,0 10.56574,0.16077 10.56574,0.16077 0,0 17.57725,10.10304 17.57725,10.10304 0,0 10.85256,0.17832 10.85256,0.17832 0,0 18.64759,10.58045 18.64759,10.58045 0,0 11.15511,0.1974 11.15511,0.1974 0,0 19.80281,11.09302 19.80281,11.09302 0,0 11.47468,0.21818 11.47468,0.21818 0,0 15.99962,11.54131 15.99962,11.54131 0,0 21.93128,-10.82012 21.93128,-10.82012 0,0 11.61423,0.22083 11.61423,0.22083 0,0 20.96909,-10.4519 20.96909,-10.4519 0,0 11.46765,0.20293 11.46765,0.20293 0,0 20.05768,-10.10179 20.05768,-10.10179 0,0 11.32439,0.18608 11.32439,0.18608 0,0 19.19365,-9.76866 19.19365,-9.76866 0,0 10.66039,-2.3005 10.66039,-2.3005"
     style="fill:none;stroke:#e2a40a;stroke-width:1.5;stroke-linecap:square;stroke-linejoin:round"
     id="path761"
     inkscape:connector-curvature="0" />
  <path
     mask="none"
     clip-path="none"
     d="m 75.2522,157.28651 c 0,0 16.11336,3.09475 16.11336,3.09475 0,0 10.48715,0.15957 10.48715,0.15957 0,0 16.8441,10.0544 16.8441,10.0544 0,0 10.76995,0.17697 10.76995,0.17697 0,0 17.87418,10.52764 17.87418,10.52764 0,0 11.06816,0.19587 11.06816,0.19587 0,0 18.98578,11.03561 18.98578,11.03561 0,0 11.38303,0.21643 11.38303,0.21643 0,0 15.17657,11.47963 15.17657,11.47963 0,0 22.4505,-10.76421 22.4505,-10.76421 0,0 11.52091,0.21905 11.52091,0.21905 0,0 21.47601,-10.39933 21.47601,-10.39933 0,0 11.37703,0.20133 11.37703,0.20133 0,0 20.55263,-10.05234 20.55263,-10.05234 0,0 11.23634,0.18463 11.23634,0.18463 0,0 19.67702,-9.72208 19.67702,-9.72208 0,0 11.09878,0.16888 11.09878,0.16888 0,0 14.15594,-9.47341 14.15594,-9.47341 0,0 18.52801,2.65275 18.52801,2.65275"
     style="fill:none;stroke:#9aab47;stroke-width:1.5;stroke-linecap:square;stroke-linejoin:round"
     id="path764"
     inkscape:connector-curvature="0" />
  <path
     mask="none"
     clip-path="none"
     d="m 59.88831,198.49846 c 0,0 12.67842,3.05037 12.67842,3.05037 0,0 24.4381,-10.546 24.4381,-10.546 0,0 11.15869,0.21217 11.15869,0.21217 0,0 23.4181,-10.19403 23.4181,-10.19403 0,0 11.02507,0.1951 11.02507,0.1951 0,0 22.45052,-9.85907 22.45052,-9.85907 0,0 10.89423,0.17901 10.89423,0.17901 0,0 21.53192,-9.54001 21.53192,-9.54001 0,0 10.76612,0.16382 10.76612,0.16382 0,0 16.10738,-9.29985 16.10738,-9.29985 0,0 19.46832,9.84119 19.46832,9.84119 0,0 10.88908,0.16569 10.88908,0.16569 0,0 20.61839,10.30215 20.61839,10.30215 0,0 11.1927,0.18391 11.1927,0.18391 0,0 21.85839,10.79677 21.85839,10.79677 0,0 11.51336,0.20374 11.51336,0.20374 0,0 23.19761,11.32841 23.19761,11.32841 0,0 11.85255,0.22536 11.85255,0.22536 0,0 18.80594,8.88045 18.80594,8.88045"
     style="fill:none;stroke:#8d5ccd;stroke-width:1.5;stroke-linecap:square;stroke-linejoin:round"
     id="path767"
     inkscape:connector-curvature="0" />
  <path
     mask="none"
     clip-path="none"
     d="m 66.91518,201.43361 c 0,0 18.07445,-50.53149 18.07445,-50.53149"
     style="fill:none;stroke:#000000;stroke-linecap:butt;stroke-linejoin:round;stroke-dasharray:1, 1.65;stroke-dashoffset:0"
     id="path772"
     inkscape:connector-curvature="0" />
  <path
     mask="none"
     clip-path="none"
     d="m 83.08365,201.76323 c 0,0 16.58406,-50.65491 16.58406,-50.65491"
     style="fill:none;stroke:#000000;stroke-linecap:butt;stroke-linejoin:round;stroke-dasharray:1, 1.65;stroke-dashoffset:0"
     id="path775"
     inkscape:connector-curvature="0" />
  <path
     mask="none"
     clip-path="none"
     d="m 99.31751,202.09418 c 0,0 15.08205,-50.7789 15.08205,-50.7789"
     style="fill:none;stroke:#000000;stroke-linecap:butt;stroke-linejoin:round;stroke-dasharray:1, 1.65;stroke-dashoffset:0"
     id="path778"
     inkscape:connector-curvature="0" />
  <path
     mask="none"
     clip-path="none"
     d="m 115.61715,202.42648 c 0,0 13.56832,-50.90349 13.56832,-50.90349"
     style="fill:none;stroke:#000000;stroke-linecap:butt;stroke-linejoin:round;stroke-dasharray:1, 1.65;stroke-dashoffset:0"
     id="path781"
     inkscape:connector-curvature="0" />
  <path
     mask="none"
     clip-path="none"
     d="m 131.98297,202.76012 c 0,0 12.04274,-51.02865 12.04274,-51.02865"
     style="fill:none;stroke:#000000;stroke-linecap:butt;stroke-linejoin:round;stroke-dasharray:1, 1.65;stroke-dashoffset:0"
     id="path784"
     inkscape:connector-curvature="0" />
  <path
     mask="none"
     clip-path="none"
     d="m 148.41539,203.09512 c 0,0 10.50523,-51.1544 10.50523,-51.1544"
     style="fill:none;stroke:#000000;stroke-linecap:butt;stroke-linejoin:round;stroke-dasharray:1, 1.65;stroke-dashoffset:0"
     id="path787"
     inkscape:connector-curvature="0" />
  <path
     mask="none"
     clip-path="none"
     d="m 164.9148,203.43149 c 0,0 8.95567,-51.28076 8.95567,-51.28076"
     style="fill:none;stroke:#000000;stroke-linecap:butt;stroke-linejoin:round;stroke-dasharray:1, 1.65;stroke-dashoffset:0"
     id="path790"
     inkscape:connector-curvature="0" />
  <path
     mask="none"
     clip-path="none"
     d="m 181.48162,203.76923 c 0,0 7.39396,-51.4077 7.39396,-51.4077"
     style="fill:none;stroke:#000000;stroke-linecap:butt;stroke-linejoin:round;stroke-dasharray:1, 1.65;stroke-dashoffset:0"
     id="path793"
     inkscape:connector-curvature="0" />
  <path
     mask="none"
     clip-path="none"
     d="m 198.11626,204.10836 c 0,0 5.81999,-51.53526 5.81999,-51.53526"
     style="fill:none;stroke:#000000;stroke-linecap:butt;stroke-linejoin:round;stroke-dasharray:1, 1.65;stroke-dashoffset:0"
     id="path796"
     inkscape:connector-curvature="0" />
  <path
     mask="none"
     clip-path="none"
     d="m 214.81913,204.44887 c 0,0 4.23368,-51.66341 4.23368,-51.66341"
     style="fill:none;stroke:#000000;stroke-linecap:butt;stroke-linejoin:round;stroke-dasharray:1, 1.65;stroke-dashoffset:0"
     id="path799"
     inkscape:connector-curvature="0" />
  <path
     mask="none"
     clip-path="none"
     d="m 231.59067,204.79079 c 0,0 2.63487,-51.79218 2.63487,-51.79218"
     style="fill:none;stroke:#000000;stroke-linecap:butt;stroke-linejoin:round;stroke-dasharray:1, 1.65;stroke-dashoffset:0"
     id="path802"
     inkscape:connector-curvature="0" />
  <path
     mask="none"
     clip-path="none"
     d="m 248.43129,205.13411 c 0,0 1.02348,-51.92156 1.02348,-51.92156"
     style="fill:none;stroke:#000000;stroke-linecap:butt;stroke-linejoin:round;stroke-dasharray:1, 1.65;stroke-dashoffset:0"
     id="path805"
     inkscape:connector-curvature="0" />
  <path
     mask="none"
     clip-path="none"
     d="m 265.34142,205.47885 c 0,0 -0.60059,-52.05155 -0.60059,-52.05155"
     style="fill:none;stroke:#000000;stroke-linecap:butt;stroke-linejoin:round;stroke-dasharray:1, 1.65;stroke-dashoffset:0"
     id="path808"
     inkscape:connector-curvature="0" />
  <path
     mask="none"
     clip-path="none"
     d="m 282.32148,205.82502 c 0,0 -2.23747,-52.18218 -2.23747,-52.18218"
     style="fill:none;stroke:#000000;stroke-linecap:butt;stroke-linejoin:round;stroke-dasharray:1, 1.65;stroke-dashoffset:0"
     id="path811"
     inkscape:connector-curvature="0" />
  <path
     mask="none"
     clip-path="none"
     d="m 299.37193,206.17262 c 0,0 -3.88728,-52.31343 -3.88728,-52.31343"
     style="fill:none;stroke:#000000;stroke-linecap:butt;stroke-linejoin:round;stroke-dasharray:1, 1.65;stroke-dashoffset:0"
     id="path814"
     inkscape:connector-curvature="0" />
  <path
     mask="none"
     clip-path="none"
     d="m 316.4932,206.52166 c 0,0 -5.55014,-52.44531 -5.55014,-52.44531"
     style="fill:none;stroke:#000000;stroke-linecap:butt;stroke-linejoin:round;stroke-dasharray:1, 1.65;stroke-dashoffset:0"
     id="path817"
     inkscape:connector-curvature="0" />
  <path
     mask="none"
     clip-path="none"
     d="m 333.68571,206.87216 c 0,0 -7.22613,-52.57783 -7.22613,-52.57783"
     style="fill:none;stroke:#000000;stroke-linecap:butt;stroke-linejoin:round;stroke-dasharray:1, 1.65;stroke-dashoffset:0"
     id="path820"
     inkscape:connector-curvature="0" />
  <path
     mask="none"
     clip-path="none"
     d="m 350.94994,207.22412 c 0,0 -8.91541,-52.71099 -8.91541,-52.71099"
     style="fill:none;stroke:#000000;stroke-linecap:butt;stroke-linejoin:round;stroke-dasharray:1, 1.65;stroke-dashoffset:0"
     id="path823"
     inkscape:connector-curvature="0" />
  <path
     mask="none"
     clip-path="none"
     d="m 368.28632,207.57755 c 0,0 -10.61806,-52.8448 -10.61806,-52.8448"
     style="fill:none;stroke:#000000;stroke-linecap:butt;stroke-linejoin:round;stroke-dasharray:1, 1.65;stroke-dashoffset:0"
     id="path826"
     inkscape:connector-curvature="0" />
  <path
     mask="none"
     clip-path="none"
     d="m 60.91069,195.75606 c 0,0 314.81339,6.19955 314.81339,6.19955"
     style="fill:none;stroke:#000000;stroke-linecap:butt;stroke-linejoin:round;stroke-dasharray:1, 1.65;stroke-dashoffset:0"
     id="path829"
     inkscape:connector-curvature="0" />
  <path
     mask="none"
     clip-path="none"
     d="m 64.89734,185.06229 c 0,0 308.39033,5.65833 308.39033,5.65833"
     style="fill:none;stroke:#000000;stroke-linecap:butt;stroke-linejoin:round;stroke-dasharray:1, 1.65;stroke-dashoffset:0"
     id="path832"
     inkscape:connector-curvature="0" />
  <path
     mask="none"
     clip-path="none"
     d="m 68.72677,174.79026 c 0,0 302.2242,5.15518 302.2242,5.15518"
     style="fill:none;stroke:#000000;stroke-linecap:butt;stroke-linejoin:round;stroke-dasharray:1, 1.65;stroke-dashoffset:0"
     id="path835"
     inkscape:connector-curvature="0" />
  <path
     mask="none"
     clip-path="none"
     d="m 72.40809,164.91552 c 0,0 296.29989,4.68687 296.29989,4.68687"
     style="fill:none;stroke:#000000;stroke-linecap:butt;stroke-linejoin:round;stroke-dasharray:1, 1.65;stroke-dashoffset:0"
     id="path838"
     inkscape:connector-curvature="0" />
  <path
     mask="none"
     clip-path="none"
     d="m 75.94974,155.41544 c 0,0 290.60344,4.25056 290.60344,4.25056"
     style="fill:none;stroke:#000000;stroke-linecap:butt;stroke-linejoin:round;stroke-dasharray:1, 1.65;stroke-dashoffset:0"
     id="path841"
     inkscape:connector-curvature="0" />
  <path
     mask="none"
     clip-path="none"
     d="m 58.85534,201.2693 c 0,0 18.81531,-50.47 18.81531,-50.47"
     style="fill:none;stroke:#000000;stroke-width:2;stroke-linecap:square;stroke-linejoin:round"
     id="path844"
     inkscape:connector-curvature="0" />
  <path
     mask="none"
     clip-path="none"
     d="m 58.85534,201.2693 c 0,0 318.12636,6.48552 318.12636,6.48552"
     style="fill:none;stroke:#000000;stroke-width:2;stroke-linecap:square;stroke-linejoin:round"
     id="path847"
     inkscape:connector-curvature="0" />
  <path
     mask="none"
     clip-path="none"
     d="m 376.9817,207.75482 c 0,0 -11.47446,-52.91194 -11.47446,-52.91194"
     style="fill:none;stroke:#000000;stroke-width:2;stroke-linecap:square;stroke-linejoin:round"
     id="path850"
     inkscape:connector-curvature="0" />
  <path
     mask="none"
     clip-path="none"
     d="m 77.67065,150.7993 c 0,0 287.83659,4.04358 287.83659,4.04358"
     style="fill:none;stroke:#000000;stroke-width:2;stroke-linecap:square;stroke-linejoin:round"
     id="path853"
     inkscape:connector-curvature="0" />
  <path
     mask="none"
     clip-path="none"
     d="m 5.83158,343.4997 c 0,0 403.95247,15.51604 403.95247,15.51604 0,0 -18.2541,-84.17481 -18.2541,-84.17481 0,0 -356.32985,-10.11904 -356.32985,-10.11904 0,0 -29.36852,78.77781 -29.36852,78.77781"
     id="path857"
     inkscape:connector-curvature="0"
     style="stroke-linecap:butt;stroke-linejoin:round" />
  <path
     mask="none"
     clip-path="none"
     d="m 35.2001,264.72189 c 0,0 356.32985,10.11904 356.32985,10.11904 0,0 -2.15555,-9.93986 -2.15555,-9.93986 0,0 -350.68343,-9.54305 -350.68343,-9.54305 0,0 -3.49087,9.36387 -3.49087,9.36387"
     id="path860"
     inkscape:connector-curvature="0"
     style="stroke-linecap:butt;stroke-linejoin:round" />
  <path
     mask="none"
     clip-path="none"
     d="m 38.69097,255.35802 c 0,0 350.68343,9.54305 350.68343,9.54305 0,0 -11.82308,-9.87525 -11.82308,-9.87525 0,0 -326.50962,-8.51043 -326.50962,-8.51043 0,0 -12.35073,8.84263 -12.35073,8.84263"
     style="fill:#ffffff;stroke:#000000;stroke-linecap:butt;stroke-linejoin:miter"
     id="path863"
     inkscape:connector-curvature="0" />
  <path
     mask="none"
     clip-path="none"
     d="m 5.83158,343.4997 c 0,0 403.95247,15.51604 403.95247,15.51604 0,0 2.89133,13.33275 2.89133,13.33275 0,0 -411.46405,-16.45547 -411.46405,-16.45547 0,0 4.62025,-12.39332 4.62025,-12.39332"
     id="path866"
     inkscape:connector-curvature="0"
     style="stroke-linecap:butt;stroke-linejoin:round" />
  <path
     mask="none"
     clip-path="none"
     d="m 1.21133,355.89302 c 0,0 411.46405,16.45547 411.46405,16.45547 0,0 -8.92599,13.35767 -8.92599,13.35767 0,0 -396.53602,-16.50983 -396.53602,-16.50983 0,0 -6.00204,-13.30331 -6.00204,-13.30331"
     style="fill:#ffffff;stroke:#000000;stroke-linecap:butt;stroke-linejoin:miter"
     id="path869"
     inkscape:connector-curvature="0" />
  <path
     mask="none"
     clip-path="none"
     d="m 412.67538,372.34849 c 0,0 -23.30098,-107.44742 -23.30098,-107.44742 0,0 9.9209,0.26997 9.9209,0.26997 0,0 25.11057,107.64658 25.11057,107.64658 0,0 -11.73049,-0.46913 -11.73049,-0.46913"
     id="path872"
     inkscape:connector-curvature="0"
     style="stroke-linecap:butt;stroke-linejoin:round" />
  <path
     mask="none"
     clip-path="none"
     d="m 421.28942,359.45767 c 0,0 -19.67161,-84.33027 -19.67161,-84.33027 0,0 12.68655,10.59648 12.68655,10.59648 0,0 15.3032,61.28577 15.3032,61.28577 0,0 -8.31814,12.44802 -8.31814,12.44802"
     style="fill:#ffffff;stroke:#000000;stroke-linecap:butt;stroke-linejoin:miter"
     id="path875"
     inkscape:connector-curvature="0" />
  <path
     mask="none"
     clip-path="none"
     d="m 1.21133,355.89302 c 0,0 37.47964,-100.535 37.47964,-100.535 0,0 -9.08246,-0.24716 -9.08246,-0.24716 0,0 -38.97217,100.35924 -38.97217,100.35924 0,0 10.57499,0.42292 10.57499,0.42292"
     id="path878"
     inkscape:connector-curvature="0"
     style="stroke-linecap:butt;stroke-linejoin:round" />
  <path
     mask="none"
     clip-path="none"
     d="m -4.56023,343.10055 c 0,0 30.53822,-78.64055 30.53822,-78.64055 0,0 -13.09139,9.3729 -13.09139,9.3729 0,0 -23.00095,56.95714 -23.00095,56.95714 0,0 5.55412,12.31051 5.55412,12.31051"
     style="fill:#ffffff;stroke:#000000;stroke-linecap:butt;stroke-linejoin:miter"
     id="path881"
     inkscape:connector-curvature="0" />
  <path
     mask="none"
     clip-path="none"
     d="m 15.96085,343.88877 c 0,0 28.22567,-78.91169 28.22567,-78.91169"
     style="fill:none;stroke:#000000;stroke-width:6;stroke-linecap:square;stroke-linejoin:round"
     id="path886"
     inkscape:connector-curvature="0" />
  <path
     mask="none"
     clip-path="none"
     d="m 36.29699,344.66989 c 0,0 25.92321,-79.18069 25.92321,-79.18069"
     style="fill:none;stroke:#000000;stroke-width:6;stroke-linecap:square;stroke-linejoin:round"
     id="path889"
     inkscape:connector-curvature="0" />
  <path
     mask="none"
     clip-path="none"
     d="m 56.7373,345.45502 c 0,0 23.59819,-79.45138 23.59819,-79.45138"
     style="fill:none;stroke:#000000;stroke-width:6;stroke-linecap:square;stroke-linejoin:round"
     id="path892"
     inkscape:connector-curvature="0" />
  <path
     mask="none"
     clip-path="none"
     d="m 77.28256,346.24417 c 0,0 21.25036,-79.72376 21.25036,-79.72376"
     style="fill:none;stroke:#000000;stroke-width:6;stroke-linecap:square;stroke-linejoin:round"
     id="path895"
     inkscape:connector-curvature="0" />
  <path
     mask="none"
     clip-path="none"
     d="m 97.9336,347.03739 c 0,0 18.87946,-79.99786 18.87946,-79.99786"
     style="fill:none;stroke:#000000;stroke-width:6;stroke-linecap:square;stroke-linejoin:round"
     id="path898"
     inkscape:connector-curvature="0" />
  <path
     mask="none"
     clip-path="none"
     d="m 118.69123,347.8347 c 0,0 16.48525,-80.27369 16.48525,-80.27369"
     style="fill:none;stroke:#000000;stroke-width:6;stroke-linecap:square;stroke-linejoin:round"
     id="path901"
     inkscape:connector-curvature="0" />
  <path
     mask="none"
     clip-path="none"
     d="m 139.55627,348.63614 c 0,0 14.06747,-80.55126 14.06747,-80.55126"
     style="fill:none;stroke:#000000;stroke-width:6;stroke-linecap:square;stroke-linejoin:round"
     id="path904"
     inkscape:connector-curvature="0" />
  <path
     mask="none"
     clip-path="none"
     d="m 160.52956,349.44174 c 0,0 11.62586,-80.8306 11.62586,-80.8306"
     style="fill:none;stroke:#000000;stroke-width:6;stroke-linecap:square;stroke-linejoin:round"
     id="path907"
     inkscape:connector-curvature="0" />
  <path
     mask="none"
     clip-path="none"
     d="m 181.61196,350.25152 c 0,0 9.16014,-81.11171 9.16014,-81.11171"
     style="fill:none;stroke:#000000;stroke-width:6;stroke-linecap:square;stroke-linejoin:round"
     id="path910"
     inkscape:connector-curvature="0" />
  <path
     mask="none"
     clip-path="none"
     d="m 202.80431,351.06553 c 0,0 6.67006,-81.39461 6.67006,-81.39461"
     style="fill:none;stroke:#000000;stroke-width:6;stroke-linecap:square;stroke-linejoin:round"
     id="path913"
     inkscape:connector-curvature="0" />
  <path
     mask="none"
     clip-path="none"
     d="m 224.10747,351.8838 c 0,0 4.15535,-81.67933 4.15535,-81.67933"
     style="fill:none;stroke:#000000;stroke-width:6;stroke-linecap:square;stroke-linejoin:round"
     id="path916"
     inkscape:connector-curvature="0" />
  <path
     mask="none"
     clip-path="none"
     d="m 245.52231,352.70635 c 0,0 1.61573,-81.96586 1.61573,-81.96586"
     style="fill:none;stroke:#000000;stroke-width:6;stroke-linecap:square;stroke-linejoin:round"
     id="path919"
     inkscape:connector-curvature="0" />
  <path
     mask="none"
     clip-path="none"
     d="m 267.04972,353.53323 c 0,0 -0.94908,-82.25424 -0.94908,-82.25424"
     style="fill:none;stroke:#000000;stroke-width:6;stroke-linecap:square;stroke-linejoin:round"
     id="path922"
     inkscape:connector-curvature="0" />
  <path
     mask="none"
     clip-path="none"
     d="m 288.69059,354.36447 c 0,0 -3.53936,-82.54448 -3.53936,-82.54448"
     style="fill:none;stroke:#000000;stroke-width:6;stroke-linecap:square;stroke-linejoin:round"
     id="path925"
     inkscape:connector-curvature="0" />
  <path
     mask="none"
     clip-path="none"
     d="m 310.44581,355.2001 c 0,0 -6.15539,-82.8366 -6.15539,-82.8366"
     style="fill:none;stroke:#000000;stroke-width:6;stroke-linecap:square;stroke-linejoin:round"
     id="path928"
     inkscape:connector-curvature="0" />
  <path
     mask="none"
     clip-path="none"
     d="m 332.3163,356.04016 c 0,0 -8.79747,-83.13061 -8.79747,-83.13061"
     style="fill:none;stroke:#000000;stroke-width:6;stroke-linecap:square;stroke-linejoin:round"
     id="path931"
     inkscape:connector-curvature="0" />
  <path
     mask="none"
     clip-path="none"
     d="m 354.30297,356.88468 c 0,0 -11.46588,-83.42653 -11.46588,-83.42653"
     style="fill:none;stroke:#000000;stroke-width:6;stroke-linecap:square;stroke-linejoin:round"
     id="path934"
     inkscape:connector-curvature="0" />
  <path
     mask="none"
     clip-path="none"
     d="m 376.40675,357.7337 c 0,0 -14.16093,-83.72438 -14.16093,-83.72438"
     style="fill:none;stroke:#000000;stroke-width:6;stroke-linecap:square;stroke-linejoin:round"
     id="path937"
     inkscape:connector-curvature="0" />
  <path
     mask="none"
     clip-path="none"
     d="m 398.62859,358.58725 c 0,0 -16.88292,-84.02417 -16.88292,-84.02417"
     style="fill:none;stroke:#000000;stroke-width:6;stroke-linecap:square;stroke-linejoin:round"
     id="path940"
     inkscape:connector-curvature="0" />
  <path
     mask="none"
     clip-path="none"
     d="m 9.11065,334.70396 c 0,0 398.62463,14.86429 398.62463,14.86429"
     style="fill:none;stroke:#000000;stroke-width:6;stroke-linecap:square;stroke-linejoin:round"
     id="path943"
     inkscape:connector-curvature="0" />
  <path
     mask="none"
     clip-path="none"
     d="m 15.42049,317.77851 c 0,0 388.37994,13.64507 388.37994,13.64507"
     style="fill:none;stroke:#000000;stroke-width:6;stroke-linecap:square;stroke-linejoin:round"
     id="path946"
     inkscape:connector-curvature="0" />
  <path
     mask="none"
     clip-path="none"
     d="m 21.41964,301.68646 c 0,0 378.6489,12.52833 378.6489,12.52833"
     style="fill:none;stroke:#000000;stroke-width:6;stroke-linecap:square;stroke-linejoin:round"
     id="path949"
     inkscape:connector-curvature="0" />
  <path
     mask="none"
     clip-path="none"
     d="m 27.13049,286.36772 c 0,0 369.39381,11.50358 369.39381,11.50358"
     style="fill:none;stroke:#000000;stroke-width:6;stroke-linecap:square;stroke-linejoin:round"
     id="path952"
     inkscape:connector-curvature="0" />
  <path
     mask="none"
     clip-path="none"
     d="m 32.57334,271.76786 c 0,0 360.58057,10.56159 360.58057,10.56159"
     style="fill:none;stroke:#000000;stroke-width:6;stroke-linecap:square;stroke-linejoin:round"
     id="path955"
     inkscape:connector-curvature="0" />
  <path
     mask="none"
     clip-path="none"
     d="m 5.83158,343.4997 c 0,0 29.36852,-78.77781 29.36852,-78.77781"
     style="fill:none;stroke:#000000;stroke-width:2;stroke-linecap:square;stroke-linejoin:round"
     id="path958"
     inkscape:connector-curvature="0" />
  <path
     mask="none"
     clip-path="none"
     d="m 5.83158,343.4997 c 0,0 403.95247,15.51604 403.95247,15.51604"
     style="fill:none;stroke:#000000;stroke-width:2;stroke-linecap:square;stroke-linejoin:round"
     id="path961"
     inkscape:connector-curvature="0" />
  <path
     mask="none"
     clip-path="none"
     d="m 409.78405,359.01574 c 0,0 -18.2541,-84.17481 -18.2541,-84.17481"
     style="fill:none;stroke:#000000;stroke-width:2;stroke-linecap:square;stroke-linejoin:round"
     id="path964"
     inkscape:connector-curvature="0" />
  <path
     mask="none"
     clip-path="none"
     d="m 35.2001,264.72189 c 0,0 356.32985,10.11904 356.32985,10.11904"
     style="fill:none;stroke:#000000;stroke-width:2;stroke-linecap:square;stroke-linejoin:round"
     id="path967"
     inkscape:connector-curvature="0" />
  <path
     mask="none"
     clip-path="none"
     d="m 16.77717,264.19871 c 0,0 394.95293,11.21586 394.95293,11.21586"
     style="fill:none;stroke:#ffffff;stroke-width:0.80000001;stroke-linecap:square;stroke-linejoin:round"
     id="path970"
     inkscape:connector-curvature="0" />
  <path
     mask="none"
     clip-path="none"
     d="m -14.92492,342.70243 c 0,0 447.75143,17.19838 447.75143,17.19838"
     style="fill:none;stroke:#ffffff;stroke-width:0.80000001;stroke-linecap:square;stroke-linejoin:round"
     id="path973"
     inkscape:connector-curvature="0" />
  <path
     mask="none"
     clip-path="none"
     d="m 415.67984,386.20289 c 0,0 -28.39195,-130.92329 -28.39195,-130.92329"
     style="fill:none;stroke:#ffffff;stroke-width:0.80000001;stroke-linecap:square;stroke-linejoin:round"
     id="path976"
     inkscape:connector-curvature="0" />
  <path
     mask="none"
     clip-path="none"
     d="m -3.58063,368.74693 c 0,0 45.65528,-122.46527 45.65528,-122.46527"
     style="fill:none;stroke:#ffffff;stroke-width:0.80000001;stroke-linecap:square;stroke-linejoin:round"
     id="path979"
     inkscape:connector-curvature="0" />
  <path
     mask="none"
     clip-path="none"
     d="m 22.19776,333.59795 c 0,0 14.97782,0.55551 14.97782,0.55551 0.68823,0.0255 1.16268,-0.35694 1.4228,-1.14599 0,0 3.82544,-11.60417 3.82544,-11.60417 0.25058,-0.76013 0.0385,-1.15145 -0.63585,-1.17527 0,0 -14.67557,-0.5184 -14.67557,-0.5184 -0.67172,-0.0237 -1.14199,0.34268 -1.41135,1.10054 0,0 -4.11191,11.569 -4.11191,11.569 -0.27959,0.78663 -0.0769,1.19335 0.60862,1.21878 0,0 0,0 0,0"
     style="fill:#ffffff;stroke:#000000;stroke-linecap:butt;stroke-linejoin:miter"
     id="path982"
     inkscape:connector-curvature="0" />
  <path
     mask="none"
     clip-path="none"
     d="m 28.17276,316.71315 c 0,0 14.61031,0.51053 14.61031,0.51053 0.67131,0.0235 1.13079,-0.34031 1.37795,-1.09003 0,0 3.63645,-11.03089 3.63645,-11.03089 0.23832,-0.72292 0.0282,-1.09472 -0.62986,-1.11661 0,0 -14.32255,-0.47648 -14.32255,-0.47648 -0.6556,-0.0218 -1.11124,0.32709 -1.36744,1.04792 0,0 -3.90918,10.99862 -3.90918,10.99862 -0.26568,0.7475 -0.0644,1.13357 0.60432,1.15694 0,0 0,0 0,0"
     style="fill:#ffffff;stroke:#000000;stroke-linecap:butt;stroke-linejoin:miter"
     id="path985"
     inkscape:connector-curvature="0" />
  <path
     mask="none"
     clip-path="none"
     d="m 33.85378,300.65913 c 0,0 14.26038,0.46926 14.26038,0.46926 0.6552,0.0216 1.1006,-0.32489 1.33574,-1.03814 0,0 3.46113,-10.49907 3.46113,-10.49907 0.22693,-0.68837 0.0189,-1.04205 -0.6237,-1.06217 0,0 -13.9861,-0.43796 -13.9861,-0.43796 -0.64023,-0.02 -1.08209,0.31259 -1.32607,0.99904 0,0 -3.72109,10.4694 -3.72109,10.4694 -0.25278,0.71122 -0.0531,1.07816 0.59971,1.09964 0,0 0,0 0,0"
     style="fill:#ffffff;stroke:#000000;stroke-linecap:butt;stroke-linejoin:miter"
     id="path988"
     inkscape:connector-curvature="0" />
  <path
     mask="none"
     clip-path="none"
     d="m 39.26198,285.37605 c 0,0 13.92682,0.43132 13.92682,0.43132 0.63984,0.0198 1.07197,-0.31053 1.29594,-0.98992 0,0 3.29819,-10.0048 3.29819,-10.0048 0.21634,-0.65624 0.0104,-0.99308 -0.6174,-1.01157 0,0 -13.66509,-0.4025 -13.66509,-0.4025 -0.62556,-0.0184 -1.05443,0.29907 -1.28704,0.95354 0,0 -3.54625,9.97749 -3.54625,9.97749 -0.24081,0.67751 -0.0427,1.02669 0.59483,1.04644 0,0 0,0 0,0"
     style="fill:#ffffff;stroke:#000000;stroke-linecap:butt;stroke-linejoin:miter"
     id="path991"
     inkscape:connector-curvature="0" />
  <path
     mask="none"
     clip-path="none"
     d="m 42.2445,334.34146 c 0,0 15.05335,0.55831 15.05335,0.55831 0.69171,0.0257 1.15632,-0.35818 1.39334,-1.1501 0,0 3.48544,-11.64577 3.48544,-11.64577 0.2283,-0.76282 0.003,-1.15554 -0.67426,-1.17948 0,0 -14.74803,-0.52096 -14.74803,-0.52096 -0.67504,-0.0238 -1.13593,0.34384 -1.3832,1.10438 0,0 -3.77482,11.61037 -3.77482,11.61037 -0.25668,0.78948 -0.0408,1.19769 0.64818,1.22325 0,0 0,0 0,0"
     style="fill:#ffffff;stroke:#000000;stroke-linecap:butt;stroke-linejoin:miter"
     id="path994"
     inkscape:connector-curvature="0" />
  <path
     mask="none"
     clip-path="none"
     d="m 47.7273,317.39645 c 0,0 14.68212,0.51305 14.68212,0.51305 0.67461,0.0236 1.12474,-0.34147 1.34991,-1.09381 0,0 3.31284,-11.06906 3.31284,-11.06906 0.2171,-0.72539 -0.005,-1.09847 -0.66643,-1.12046 0,0 -14.39151,-0.47878 -14.39151,-0.47878 -0.65876,-0.0219 -1.10547,0.32816 -1.34063,1.05144 0,0 -3.58827,11.03658 -3.58827,11.03658 -0.24388,0.75012 -0.0301,1.13756 0.64197,1.16104 0,0 0,0 0,0"
     style="fill:#ffffff;stroke:#000000;stroke-linecap:butt;stroke-linejoin:miter"
     id="path997"
     inkscape:connector-curvature="0" />
  <path
     mask="none"
     clip-path="none"
     d="m 52.93969,301.28718 c 0,0 14.32874,0.47151 14.32874,0.47151 0.65834,0.0217 1.09483,-0.32594 1.30903,-1.04161 0,0 3.15274,-10.53414 3.15274,-10.53414 0.2067,-0.69064 -0.013,-1.0455 -0.65855,-1.06572 0,0 -14.05182,-0.44002 -14.05182,-0.44002 -0.64324,-0.0201 -1.07659,0.31358 -1.3005,1.00229 0,0 -3.41521,10.50429 -3.41521,10.50429 -0.23202,0.71362 -0.0203,1.08182 0.63557,1.1034 0,0 0,0 0,0"
     style="fill:#ffffff;stroke:#000000;stroke-linecap:butt;stroke-linejoin:miter"
     id="path1000"
     inkscape:connector-curvature="0" />
  <path
     mask="none"
     clip-path="none"
     d="m 57.90118,285.95331 c 0,0 13.99197,0.43333 13.99197,0.43333 0.64284,0.0199 1.06647,-0.3115 1.27047,-0.99311 0,0 3.00398,-10.03709 3.00398,-10.03709 0.19703,-0.65833 -0.02,-0.99625 -0.65067,-1.01483 0,0 -13.72779,-0.40434 -13.72779,-0.40434 -0.62842,-0.0185 -1.04916,0.29998 -1.26262,0.95653 0,0 -3.25437,10.00961 -3.25437,10.00961 -0.221,0.67973 -0.0115,1.03006 0.62903,1.0499 0,0 0,0 0,0"
     style="fill:#ffffff;stroke:#000000;stroke-linecap:butt;stroke-linejoin:miter"
     id="path1003"
     inkscape:connector-curvature="0" />
  <path
     mask="none"
     clip-path="none"
     d="m 62.39237,335.08872 c 0,0 15.12946,0.56114 15.12946,0.56114 0.69521,0.0258 1.14988,-0.35943 1.36355,-1.15424 0,0 3.14199,-11.68765 3.14199,-11.68765 0.2058,-0.76553 -0.032,-1.15966 -0.71303,-1.18371 0,0 -14.82104,-0.52354 -14.82104,-0.52354 -0.67838,-0.024 -1.1298,0.34501 -1.35476,1.10823 0,0 -3.43431,11.65202 -3.43431,11.65202 -0.23354,0.79235 -0.004,1.20207 0.68814,1.22775 0,0 0,0 0,0"
     style="fill:#ffffff;stroke:#000000;stroke-linecap:butt;stroke-linejoin:miter"
     id="path1006"
     inkscape:connector-curvature="0" />
  <path
     mask="none"
     clip-path="none"
     d="m 67.37799,318.08312 c 0,0 14.75446,0.51557 14.75446,0.51557 0.67794,0.0237 1.11861,-0.34262 1.32158,-1.09761 0,0 2.98602,-11.10746 2.98602,-11.10746 0.19568,-0.72787 -0.0389,-1.10225 -0.70334,-1.12435 0,0 -14.46099,-0.48109 -14.46099,-0.48109 -0.66193,-0.022 -1.09962,0.32923 -1.31353,1.05499 0,0 -3.26418,11.07479 -3.26418,11.07479 -0.22186,0.75274 0.005,1.14156 0.67998,1.16516 0,0 0,0 0,0"
     style="fill:#ffffff;stroke:#000000;stroke-linecap:butt;stroke-linejoin:miter"
     id="path1009"
     inkscape:connector-curvature="0" />
  <path
     mask="none"
     clip-path="none"
     d="m 72.11712,301.91825 c 0,0 14.39759,0.47377 14.39759,0.47377 0.66152,0.0218 1.089,-0.327 1.28205,-1.0451 0,0 2.84138,-10.56943 2.84138,-10.56943 0.18628,-0.69293 -0.0451,-1.04897 -0.69374,-1.06928 0,0 -14.118,-0.44209 -14.118,-0.44209 -0.64626,-0.0202 -1.07101,0.31456 -1.27467,1.00554 0,0 -3.10638,10.53941 -3.10638,10.53941 -0.21104,0.71603 0.0127,1.08549 0.67177,1.10718 0,0 0,0 0,0"
     style="fill:#ffffff;stroke:#000000;stroke-linecap:butt;stroke-linejoin:miter"
     id="path1012"
     inkscape:connector-curvature="0" />
  <path
     mask="none"
     clip-path="none"
     d="m 76.6276,286.53327 c 0,0 14.05758,0.43537 14.05758,0.43537 0.64586,0.02 1.0609,-0.31248 1.24474,-0.99633 0,0 2.70701,-10.06957 2.70701,-10.06957 0.17754,-0.66043 -0.0507,-0.99945 -0.68425,-1.01811 0,0 -13.7909,-0.40621 -13.7909,-0.40621 -0.63132,-0.0186 -1.04385,0.3009 -1.23797,0.95955 0,0 -2.95976,10.04193 -2.95976,10.04193 -0.201,0.68194 0.0201,1.03344 0.66355,1.05337 0,0 0,0 0,0"
     style="fill:#ffffff;stroke:#000000;stroke-linecap:butt;stroke-linejoin:miter"
     id="path1015"
     inkscape:connector-curvature="0" />
  <path
     mask="none"
     clip-path="none"
     d="m 82.64215,335.83976 c 0,0 15.20614,0.56398 15.20614,0.56398 0.69874,0.0259 1.14336,-0.36069 1.33344,-1.1584 0,0 2.79506,-11.7298 2.79506,-11.7298 0.18306,-0.76825 -0.0678,-1.1638 -0.75219,-1.18797 0,0 -14.89459,-0.52614 -14.89459,-0.52614 -0.68174,-0.0241 -1.1236,0.34618 -1.32601,1.11212 0,0 -3.09035,11.69393 -3.09035,11.69393 -0.21015,0.79524 0.0325,1.20647 0.7285,1.23228 0,0 0,0 0,0"
     style="fill:#ffffff;stroke:#000000;stroke-linecap:butt;stroke-linejoin:miter"
     id="path1018"
     inkscape:connector-curvature="0" />
  <path
     mask="none"
     clip-path="none"
     d="m 87.12553,318.77316 c 0,0 14.82735,0.51812 14.82735,0.51812 0.68129,0.0238 1.11241,-0.34377 1.29295,-1.10142 0,0 2.65597,-11.14612 2.65597,-11.14612 0.17403,-0.73037 -0.073,-1.10604 -0.74061,-1.12825 0,0 -14.53096,-0.48342 -14.53096,-0.48342 -0.66513,-0.0221 -1.09372,0.33031 -1.28617,1.05856 0,0 -2.93688,11.11323 -2.93688,11.11323 -0.19962,0.75538 0.0397,1.14559 0.71835,1.1693 0,0 0,0 0,0"
     style="fill:#ffffff;stroke:#000000;stroke-linecap:butt;stroke-linejoin:miter"
     id="path1021"
     inkscape:connector-curvature="0" />
  <path
     mask="none"
     clip-path="none"
     d="m 91.38673,302.55235 c 0,0 14.46695,0.47605 14.46695,0.47605 0.66471,0.0219 1.08309,-0.32807 1.25479,-1.04861 0,0 2.52701,-10.60494 2.52701,-10.60494 0.16566,-0.69522 -0.0775,-1.05246 -0.72924,-1.07287 0,0 -14.18466,-0.44418 -14.18466,-0.44418 -0.64931,-0.0203 -1.06537,0.31556 -1.24858,1.00883 0,0 -2.79457,10.57473 -2.79457,10.57473 -0.18987,0.71846 0.0461,1.0892 0.7083,1.11099 0,0 0,0 0,0"
     style="fill:#ffffff;stroke:#000000;stroke-linecap:butt;stroke-linejoin:miter"
     id="path1024"
     inkscape:connector-curvature="0" />
  <path
     mask="none"
     clip-path="none"
     d="m 95.44186,287.11595 c 0,0 14.12366,0.43742 14.12366,0.43742 0.6489,0.0201 1.05526,-0.31347 1.21875,-0.99956 0,0 2.40723,-10.10225 2.40723,-10.10225 0.15788,-0.66255 -0.0816,-1.00266 -0.71811,-1.02141 0,0 -13.85447,-0.40808 -13.85447,-0.40808 -0.63422,-0.0187 -1.03846,0.30182 -1.21308,0.96257 0,0 -2.66236,10.07445 -2.66236,10.07445 -0.18081,0.68418 0.0519,1.03684 0.69838,1.05686 0,0 0,0 0,0"
     style="fill:#ffffff;stroke:#000000;stroke-linecap:butt;stroke-linejoin:miter"
     id="path1027"
     inkscape:connector-curvature="0" />
  <path
     mask="none"
     clip-path="none"
     d="m 102.99459,336.59461 c 0,0 15.28342,0.56685 15.28342,0.56685 0.70229,0.026 1.13675,-0.36196 1.30301,-1.16259 0,0 2.44458,-11.77223 2.44458,-11.77223 0.1601,-0.771 -0.10393,-1.16797 -0.79173,-1.19226 0,0 -14.96869,-0.52876 -14.96869,-0.52876 -0.68513,-0.0242 -1.11731,0.34736 -1.29696,1.11602 0,0 -2.74287,11.73613 -2.74287,11.73613 -0.18654,0.79814 0.0697,1.2109 0.76924,1.23684 0,0 0,0 0,0"
     style="fill:#ffffff;stroke:#000000;stroke-linecap:butt;stroke-linejoin:miter"
     id="path1030"
     inkscape:connector-curvature="0" />
  <path
     mask="none"
     clip-path="none"
     d="m 106.97065,319.46662 c 0,0 14.90077,0.52069 14.90077,0.52069 0.68467,0.0239 1.10613,-0.34494 1.26402,-1.10527 0,0 2.32264,-11.18502 2.32264,-11.18502 0.15219,-0.73289 -0.10733,-1.10987 -0.77822,-1.13219 0,0 -14.60144,-0.48576 -14.60144,-0.48576 -0.66836,-0.0222 -1.08774,0.3314 -1.25852,1.06215 0,0 -2.60634,11.15192 -2.60634,11.15192 -0.17717,0.75805 0.0751,1.14965 0.75709,1.17348 0,0 0,0 0,0"
     style="fill:#ffffff;stroke:#000000;stroke-linecap:butt;stroke-linejoin:miter"
     id="path1033"
     inkscape:connector-curvature="0" />
  <path
     mask="none"
     clip-path="none"
     d="m 110.7492,303.1895 c 0,0 14.5368,0.47836 14.5368,0.47836 0.66792,0.022 1.07711,-0.32915 1.22725,-1.05215 0,0 2.2096,-10.64067 2.2096,-10.64067 0.14485,-0.69754 -0.11028,-1.05598 -0.76508,-1.07648 0,0 -14.25178,-0.44628 -14.25178,-0.44628 -0.65238,-0.0204 -1.05967,0.31656 -1.22223,1.01213 0,0 -2.47975,10.61027 -2.47975,10.61027 -0.16849,0.72091 0.0798,1.09292 0.74519,1.11482 0,0 0,0 0,0"
     style="fill:#ffffff;stroke:#000000;stroke-linecap:butt;stroke-linejoin:miter"
     id="path1036"
     inkscape:connector-curvature="0" />
  <path
     mask="none"
     clip-path="none"
     d="m 114.34458,287.70138 c 0,0 14.1902,0.43947 14.1902,0.43947 0.65196,0.0202 1.04957,-0.31446 1.19251,-1.00281 0,0 2.10462,-10.13512 2.10462,-10.13512 0.13803,-0.66468 -0.11284,-1.0059 -0.75229,-1.02473 0,0 -13.91847,-0.40997 -13.91847,-0.40997 -0.63715,-0.0188 -1.03302,0.30275 -1.18794,0.96562 0,0 -2.36216,10.10715 -2.36216,10.10715 -0.16043,0.68643 0.084,1.04027 0.73353,1.06039 0,0 0,0 0,0"
     style="fill:#ffffff;stroke:#000000;stroke-linecap:butt;stroke-linejoin:miter"
     id="path1039"
     inkscape:connector-curvature="0" />
  <path
     mask="none"
     clip-path="none"
     d="m 123.45049,337.3533 c 0,0 15.36128,0.56973 15.36128,0.56973 0.70587,0.0262 1.13007,-0.36323 1.27226,-1.16681 0,0 2.09053,-11.81493 2.09053,-11.81493 0.13691,-0.77376 -0.14042,-1.17217 -0.83165,-1.19658 0,0 -15.04334,-0.53139 -15.04334,-0.53139 -0.68854,-0.0243 -1.11096,0.34854 -1.26761,1.11995 0,0 -2.39187,11.7786 -2.39187,11.7786 -0.16267,0.80107 0.10734,1.21535 0.8104,1.24143 0,0 0,0 0,0"
     style="fill:#ffffff;stroke:#000000;stroke-linecap:butt;stroke-linejoin:miter"
     id="path1042"
     inkscape:connector-curvature="0" />
  <path
     mask="none"
     clip-path="none"
     d="m 126.91408,320.16352 c 0,0 14.97474,0.52327 14.97474,0.52327 0.68807,0.024 1.09977,-0.34612 1.23478,-1.10914 0,0 1.986,-11.22417 1.986,-11.22417 0.13013,-0.73542 -0.14204,-1.11371 -0.81619,-1.13614 0,0 -14.67244,-0.48812 -14.67244,-0.48812 -0.6716,-0.0223 -1.08169,0.33249 -1.23059,1.06575 0,0 -2.27252,11.19086 -2.27252,11.19086 -0.15448,0.76073 0.11081,1.15373 0.79622,1.17769 0,0 0,0 0,0"
     style="fill:#ffffff;stroke:#000000;stroke-linecap:butt;stroke-linejoin:miter"
     id="path1045"
     inkscape:connector-curvature="0" />
  <path
     mask="none"
     clip-path="none"
     d="m 130.20519,303.82973 c 0,0 14.60717,0.48067 14.60717,0.48067 0.67115,0.0221 1.07106,-0.33022 1.19942,-1.0557 0,0 1.88912,-10.67662 1.88912,-10.67662 0.12384,-0.69986 -0.14334,-1.05951 -0.80124,-1.08011 0,0 -14.31939,-0.4484 -14.31939,-0.4484 -0.65547,-0.0205 -1.0539,0.31758 -1.19562,1.01546 0,0 -2.16188,10.64603 -2.16188,10.64603 -0.1469,0.72337 0.1138,1.09667 0.78242,1.11867 0,0 0,0 0,0"
     style="fill:#ffffff;stroke:#000000;stroke-linecap:butt;stroke-linejoin:miter"
     id="path1048"
     inkscape:connector-curvature="0" />
  <path
     mask="none"
     clip-path="none"
     d="m 133.33639,288.28956 c 0,0 14.25721,0.44155 14.25721,0.44155 0.65504,0.0203 1.0438,-0.31546 1.166,-1.00609 0,0 1.79916,-10.16818 1.79916,-10.16818 0.11799,-0.66683 -0.14436,-1.00916 -0.78678,-1.02808 0,0 -13.98291,-0.41186 -13.98291,-0.41186 -0.6401,-0.0188 -1.02752,0.30368 -1.16256,0.96868 0,0 -2.05913,10.14005 -2.05913,10.14005 -0.13985,0.68869 0.11638,1.04372 0.76901,1.06393 0,0 0,0 0,0"
     style="fill:#ffffff;stroke:#000000;stroke-linecap:butt;stroke-linejoin:miter"
     id="path1051"
     inkscape:connector-curvature="0" />
  <path
     mask="none"
     clip-path="none"
     d="m 144.01064,338.11585 c 0,0 15.43974,0.57264 15.43974,0.57264 0.70948,0.0263 1.12331,-0.36452 1.24117,-1.17105 0,0 1.73287,-11.85792 1.73287,-11.85792 0.11348,-0.77654 -0.17727,-1.17639 -0.87196,-1.20093 0,0 -15.11855,-0.53405 -15.11855,-0.53405 -0.69199,-0.0244 -1.10453,0.34974 -1.23795,1.12391 0,0 -2.03728,11.82135 -2.03728,11.82135 -0.13856,0.80401 0.14531,1.21984 0.85196,1.24605 0,0 0,0 0,0"
     style="fill:#ffffff;stroke:#000000;stroke-linecap:butt;stroke-linejoin:miter"
     id="path1054"
     inkscape:connector-curvature="0" />
  <path
     mask="none"
     clip-path="none"
     d="m 146.95654,320.86387 c 0,0 15.04926,0.52587 15.04926,0.52587 0.6915,0.0242 1.09334,-0.34729 1.20525,-1.11303 0,0 1.64601,-11.26356 1.64601,-11.26356 0.10784,-0.73797 -0.17709,-1.11759 -0.85454,-1.14013 0,0 -14.74395,-0.4905 -14.74395,-0.4905 -0.67487,-0.0224 -1.07556,0.33359 -1.20237,1.06939 0,0 -1.93538,11.23004 -1.93538,11.23004 -0.13156,0.76343 0.1469,1.15785 0.83572,1.18192 0,0 0,0 0,0"
     style="fill:#ffffff;stroke:#000000;stroke-linecap:butt;stroke-linejoin:miter"
     id="path1057"
     inkscape:connector-curvature="0" />
  <path
     mask="none"
     clip-path="none"
     d="m 149.75538,304.47306 c 0,0 14.67804,0.48301 14.67804,0.48301 0.67441,0.0222 1.06494,-0.33132 1.17133,-1.05928 0,0 1.56552,-10.71279 1.56552,-10.71279 0.10262,-0.70221 -0.17671,-1.06307 -0.83775,-1.08377 0,0 -14.38746,-0.45053 -14.38746,-0.45053 -0.65859,-0.0206 -1.04808,0.31859 -1.16875,1.0188 0,0 -1.84093,10.68201 -1.84093,10.68201 -0.12509,0.72585 0.14814,1.10044 0.82,1.12255 0,0 0,0 0,0"
     style="fill:#ffffff;stroke:#000000;stroke-linecap:butt;stroke-linejoin:miter"
     id="path1060"
     inkscape:connector-curvature="0" />
  <path
     mask="none"
     clip-path="none"
     d="m 152.41791,288.88052 c 0,0 14.3247,0.44364 14.3247,0.44364 0.65814,0.0204 1.03797,-0.31646 1.13923,-1.00938 0,0 1.49081,-10.20145 1.49081,-10.20145 0.0978,-0.66898 -0.17618,-1.01243 -0.82158,-1.03144 0,0 -14.04781,-0.41377 -14.04781,-0.41377 -0.64306,-0.0189 -1.02195,0.30462 -1.13692,0.97176 0,0 -1.75324,10.17315 -1.75324,10.17315 -0.11908,0.69097 0.1491,1.04718 0.80481,1.06749 0,0 0,0 0,0"
     style="fill:#ffffff;stroke:#000000;stroke-linecap:butt;stroke-linejoin:miter"
     id="path1063"
     inkscape:connector-curvature="0" />
  <path
     mask="none"
     clip-path="none"
     d="m 164.67584,338.8823 c 0,0 15.5188,0.57558 15.5188,0.57558 0.71311,0.0264 1.11645,-0.36582 1.20974,-1.17533 0,0 1.37156,-11.9012 1.37156,-11.9012 0.0898,-0.77933 -0.21449,-1.18064 -0.91267,-1.2053 0,0 -15.19433,-0.53673 -15.19433,-0.53673 -0.69545,-0.0246 -1.09801,0.35095 -1.20797,1.1279 0,0 -1.67908,11.86437 -1.67908,11.86437 -0.1142,0.80698 0.18368,1.22437 0.89395,1.25071 0,0 0,0 0,0"
     style="fill:#ffffff;stroke:#000000;stroke-linecap:butt;stroke-linejoin:miter"
     id="path1066"
     inkscape:connector-curvature="0" />
  <path
     mask="none"
     clip-path="none"
     d="m 167.09877,321.56771 c 0,0 15.12434,0.5285 15.12434,0.5285 0.69495,0.0243 1.08683,-0.34849 1.1754,-1.11696 0,0 1.30264,-11.30321 1.30264,-11.30321 0.0853,-0.74053 -0.21248,-1.12148 -0.89324,-1.14413 0,0 -14.81599,-0.4929 -14.81599,-0.4929 -0.67817,-0.0226 -1.06937,0.3347 -1.17386,1.07305 0,0 -1.59489,11.26947 -1.59489,11.26947 -0.10843,0.76615 0.18335,1.16199 0.8756,1.18618 0,0 0,0 0,0"
     style="fill:#ffffff;stroke:#000000;stroke-linecap:butt;stroke-linejoin:miter"
     id="path1069"
     inkscape:connector-curvature="0" />
  <path
     mask="none"
     clip-path="none"
     d="m 169.40046,305.11951 c 0,0 14.74944,0.48536 14.74944,0.48536 0.67769,0.0223 1.05874,-0.33241 1.14292,-1.06288 0,0 1.2388,-10.74919 1.2388,-10.74919 0.0812,-0.70455 -0.21041,-1.06664 -0.87459,-1.08744 0,0 -14.45604,-0.45268 -14.45604,-0.45268 -0.66172,-0.0207 -1.04217,0.31961 -1.1416,1.02216 0,0 -1.51687,10.71822 -1.51687,10.71822 -0.10308,0.72834 0.18281,1.10424 0.85794,1.12645 0,0 0,0 0,0"
     style="fill:#ffffff;stroke:#000000;stroke-linecap:butt;stroke-linejoin:miter"
     id="path1072"
     inkscape:connector-curvature="0" />
  <path
     mask="none"
     clip-path="none"
     d="m 171.58978,289.47428 c 0,0 14.39267,0.44574 14.39267,0.44574 0.66127,0.0205 1.03208,-0.31747 1.1122,-1.01268 0,0 1.17952,-10.23493 1.17952,-10.23493 0.0774,-0.67115 -0.20828,-1.01572 -0.85668,-1.03482 0,0 -14.11316,-0.41569 -14.11316,-0.41569 -0.64605,-0.019 -1.01632,0.30556 -1.11105,0.97486 0,0 -1.44444,10.20645 -1.44444,10.20645 -0.0981,0.69325 0.18212,1.05066 0.84094,1.07107 0,0 0,0 0,0"
     style="fill:#ffffff;stroke:#000000;stroke-linecap:butt;stroke-linejoin:miter"
     id="path1075"
     inkscape:connector-curvature="0" />
  <path
     mask="none"
     clip-path="none"
     d="m 185.44689,339.65268 c 0,0 15.59847,0.57853 15.59847,0.57853 0.71678,0.0266 1.10951,-0.36712 1.17798,-1.17964 0,0 1.00655,-11.94475 1.00655,-11.94475 0.0659,-0.78215 -0.25209,-1.18492 -0.95377,-1.20971 0,0 -15.27069,-0.53942 -15.27069,-0.53942 -0.69894,-0.0247 -1.09141,0.35215 -1.17767,1.13191 0,0 -1.31721,11.90768 -1.31721,11.90768 -0.0896,0.80997 0.22243,1.22892 0.93634,1.2554 0,0 0,0 0,0"
     style="fill:#ffffff;stroke:#000000;stroke-linecap:butt;stroke-linejoin:miter"
     id="path1078"
     inkscape:connector-curvature="0" />
  <path
     mask="none"
     clip-path="none"
     d="m 187.34152,322.27506 c 0,0 15.19999,0.53114 15.19999,0.53114 0.69843,0.0244 1.08024,-0.34968 1.14523,-1.1209 0,0 0.95585,-11.34311 0.95585,-11.34311 0.0626,-0.74311 -0.24822,-1.12541 -0.93231,-1.14817 0,0 -14.88857,-0.49531 -14.88857,-0.49531 -0.68148,-0.0227 -1.06309,0.33582 -1.14505,1.07673 0,0 -1.251,11.30916 -1.251,11.30916 -0.0851,0.76888 0.22015,1.16615 0.91586,1.19046 0,0 0,0 0,0"
     style="fill:#ffffff;stroke:#000000;stroke-linecap:butt;stroke-linejoin:miter"
     id="path1081"
     inkscape:connector-curvature="0" />
  <path
     mask="none"
     clip-path="none"
     d="m 189.14112,305.76911 c 0,0 14.82135,0.48772 14.82135,0.48772 0.681,0.0224 1.05248,-0.3335 1.11425,-1.06649 0,0 0.90888,-10.78582 0.90888,-10.78582 0.0596,-0.70693 -0.24441,-1.07024 -0.91178,-1.09114 0,0 -14.5251,-0.45484 -14.5251,-0.45484 -0.66487,-0.0208 -1.0362,0.32063 -1.11417,1.02554 0,0 -1.18967,10.75466 -1.18967,10.75466 -0.0808,0.73084 0.21783,1.10805 0.89624,1.13037 0,0 0,0 0,0"
     style="fill:#ffffff;stroke:#000000;stroke-linecap:butt;stroke-linejoin:miter"
     id="path1084"
     inkscape:connector-curvature="0" />
  <path
     mask="none"
     clip-path="none"
     d="m 190.85266,290.07085 c 0,0 14.46112,0.44787 14.46112,0.44787 0.66442,0.0206 1.02611,-0.31849 1.08489,-1.01602 0,0 0.8653,-10.2686 0.8653,-10.2686 0.0567,-0.67332 -0.2407,-1.01903 -0.89213,-1.03821 0,0 -14.17896,-0.41764 -14.17896,-0.41764 -0.64906,-0.0191 -1.01063,0.30651 -1.0849,0.97798 0,0 -1.13274,10.23995 -1.13274,10.23995 -0.0769,0.69556 0.21546,1.05417 0.87742,1.07467 0,0 0,0 0,0"
     style="fill:#ffffff;stroke:#000000;stroke-linecap:butt;stroke-linejoin:miter"
     id="path1087"
     inkscape:connector-curvature="0" />
  <path
     mask="none"
     clip-path="none"
     d="m 206.32461,340.42701 c 0,0 15.67875,0.58151 15.67875,0.58151 0.72048,0.0267 1.10249,-0.36843 1.14588,-1.18397 0,0 0.63779,-11.9886 0.63779,-11.9886 0.0418,-0.78498 -0.29005,-1.18923 -0.99527,-1.21414 0,0 -15.34762,-0.54214 -15.34762,-0.54214 -0.70245,-0.0248 -1.08474,0.35337 -1.14705,1.13594 0,0 -0.95165,11.95129 -0.95165,11.95129 -0.0647,0.81297 0.26158,1.23349 0.97917,1.26011 0,0 0,0 0,0"
     style="fill:#ffffff;stroke:#000000;stroke-linecap:butt;stroke-linejoin:miter"
     id="path1090"
     inkscape:connector-curvature="0" />
  <path
     mask="none"
     clip-path="none"
     d="m 207.68555,322.98595 c 0,0 15.2762,0.53381 15.2762,0.53381 0.70193,0.0245 1.07357,-0.35089 1.11475,-1.12487 0,0 0.60559,-11.38328 0.60559,-11.38328 0.0397,-0.74571 -0.2843,-1.12935 -0.97175,-1.15222 0,0 -14.96167,-0.49775 -14.96167,-0.49775 -0.68483,-0.0228 -1.05675,0.33694 -1.11595,1.08044 0,0 -0.9037,11.3491 -0.9037,11.3491 -0.0614,0.77163 0.25733,1.17034 0.95653,1.19477 0,0 0,0 0,0"
     style="fill:#ffffff;stroke:#000000;stroke-linecap:butt;stroke-linejoin:miter"
     id="path1093"
     inkscape:connector-curvature="0" />
  <path
     mask="none"
     clip-path="none"
     d="m 208.97806,306.42188 c 0,0 14.89379,0.4901 14.89379,0.4901 0.68433,0.0225 1.04614,-0.33461 1.08527,-1.07014 0,0 0.57577,-10.82266 0.57577,-10.82266 0.0377,-0.70932 -0.27875,-1.07388 -0.94931,-1.09487 0,0 -14.59466,-0.45702 -14.59466,-0.45702 -0.66806,-0.0209 -1.03016,0.32167 -1.08648,1.02895 0,0 -0.85928,10.79131 -0.85928,10.79131 -0.0584,0.73337 0.25317,1.1119 0.9349,1.13433 0,0 0,0 0,0"
     style="fill:#ffffff;stroke:#000000;stroke-linecap:butt;stroke-linejoin:miter"
     id="path1096"
     inkscape:connector-curvature="0" />
  <path
     mask="none"
     clip-path="none"
     d="m 210.20717,290.67027 c 0,0 14.53007,0.45 14.53007,0.45 0.66759,0.0207 1.02007,-0.31951 1.0573,-1.01937 0,0 0.5481,-10.30248 0.5481,-10.30248 0.0359,-0.67551 -0.27341,-1.02236 -0.92788,-1.04163 0,0 -14.24523,-0.41959 -14.24523,-0.41959 -0.65209,-0.0192 -1.00488,0.30746 -1.05852,0.98111 0,0 -0.81806,10.27365 -0.81806,10.27365 -0.0556,0.69789 0.24911,1.05771 0.91422,1.07831 0,0 0,0 0,0"
     style="fill:#ffffff;stroke:#000000;stroke-linecap:butt;stroke-linejoin:miter"
     id="path1099"
     inkscape:connector-curvature="0" />
  <path
     mask="none"
     clip-path="none"
     d="m 227.30982,341.20533 c 0,0 15.75966,0.5845 15.75966,0.5845 0.7242,0.0269 1.09538,-0.36974 1.11343,-1.18832 0,0 0.26526,-12.03275 0.26526,-12.03275 0.0174,-0.78783 -0.32841,-1.19356 -1.0372,-1.2186 0,0 -15.42512,-0.54488 -15.42512,-0.54488 -0.706,-0.0249 -1.07798,0.3546 -1.11611,1.14001 0,0 -0.58234,11.99518 -0.58234,11.99518 -0.0396,0.81599 0.30114,1.2381 1.02242,1.26486 0,0 0,0 0,0"
     style="fill:#ffffff;stroke:#000000;stroke-linecap:butt;stroke-linejoin:miter"
     id="path1102"
     inkscape:connector-curvature="0" />
  <path
     mask="none"
     clip-path="none"
     d="m 228.13161,323.70041 c 0,0 15.35299,0.53649 15.35299,0.53649 0.70547,0.0247 1.06683,-0.3521 1.08395,-1.12887 0,0 0.25184,-11.42369 0.25184,-11.42369 0.0165,-0.74833 -0.32074,-1.13333 -1.01158,-1.15631 0,0 -15.03532,-0.5002 -15.03532,-0.5002 -0.68819,-0.0229 -1.05032,0.33806 -1.08654,1.08416 0,0 -0.55292,11.3893 -0.55292,11.3893 -0.0376,0.7744 0.29488,1.17456 0.99758,1.19912 0,0 0,0 0,0"
     style="fill:#ffffff;stroke:#000000;stroke-linecap:butt;stroke-linejoin:miter"
     id="path1105"
     inkscape:connector-curvature="0" />
  <path
     mask="none"
     clip-path="none"
     d="m 228.91199,307.07784 c 0,0 14.96677,0.4925 14.96677,0.4925 0.68768,0.0226 1.03972,-0.33573 1.05599,-1.0738 0,0 0.2394,-10.85976 0.2394,-10.85976 0.0157,-0.71171 -0.31341,-1.07751 -0.98719,-1.09861 0,0 -14.66472,-0.45921 -14.66472,-0.45921 -0.67126,-0.021 -1.02405,0.3227 -1.0585,1.03237 0,0 -0.52568,10.8282 -0.52568,10.8282 -0.0357,0.73591 0.28886,1.11576 0.97393,1.13831 0,0 0,0 0,0"
     style="fill:#ffffff;stroke:#000000;stroke-linecap:butt;stroke-linejoin:miter"
     id="path1108"
     inkscape:connector-curvature="0" />
  <path
     mask="none"
     clip-path="none"
     d="m 229.65399,291.27254 c 0,0 14.59951,0.45215 14.59951,0.45215 0.67078,0.0208 1.01396,-0.32053 1.02944,-1.02274 0,0 0.22787,-10.33656 0.22787,-10.33656 0.0149,-0.67772 -0.30641,-1.02571 -0.96396,-1.04508 0,0 -14.31195,-0.42155 -14.31195,-0.42155 -0.65515,-0.0193 -0.99906,0.30842 -1.03187,0.98427 0,0 -0.50041,10.30756 -0.50041,10.30756 -0.034,0.70021 0.28309,1.06125 0.95137,1.08195 0,0 0,0 0,0"
     style="fill:#ffffff;stroke:#000000;stroke-linecap:butt;stroke-linejoin:miter"
     id="path1111"
     inkscape:connector-curvature="0" />
  <path
     mask="none"
     clip-path="none"
     d="m 248.40336,341.98766 c 0,0 15.84119,0.58753 15.84119,0.58753 0.72795,0.027 1.08818,-0.37107 1.08062,-1.19272 0,0 -0.11109,-12.07718 -0.11109,-12.07718 -0.007,-0.7907 -0.36714,-1.19793 -1.07953,-1.22309 0,0 -15.50321,-0.54764 -15.50321,-0.54764 -0.70958,-0.0251 -1.07116,0.35584 -1.08486,1.14409 0,0 -0.20923,12.03937 -0.20923,12.03937 -0.0142,0.81904 0.3411,1.24275 1.06611,1.26964 0,0 0,0 0,0"
     style="fill:#ffffff;stroke:#000000;stroke-linecap:butt;stroke-linejoin:miter"
     id="path1114"
     inkscape:connector-curvature="0" />
  <path
     mask="none"
     clip-path="none"
     d="m 248.68049,324.41846 c 0,0 15.43035,0.53919 15.43035,0.53919 0.70903,0.0248 1.05999,-0.35331 1.05282,-1.13289 0,0 -0.10546,-11.46438 -0.10546,-11.46438 -0.007,-0.75095 -0.35753,-1.13732 -1.05178,-1.16042 0,0 -15.1095,-0.50266 -15.1095,-0.50266 -0.69159,-0.023 -1.04383,0.33919 -1.05685,1.08791 0,0 -0.19863,11.42976 -0.19863,11.42976 -0.0135,0.77719 0.3328,1.17881 1.03905,1.20349 0,0 0,0 0,0"
     style="fill:#ffffff;stroke:#000000;stroke-linecap:butt;stroke-linejoin:miter"
     id="path1117"
     inkscape:connector-curvature="0" />
  <path
     mask="none"
     clip-path="none"
     d="m 248.94361,307.73701 c 0,0 15.04028,0.49493 15.04028,0.49493 0.69107,0.0227 1.03324,-0.33686 1.02642,-1.0775 0,0 -0.10024,-10.89707 -0.10024,-10.89707 -0.007,-0.71413 -0.3484,-1.08119 -1.02543,-1.10239 0,0 -14.73528,-0.46142 -14.73528,-0.46142 -0.6745,-0.0211 -1.01788,0.32375 -1.03025,1.03583 0,0 -0.18883,10.86531 -0.18883,10.86531 -0.0128,0.73846 0.32491,1.11966 1.01333,1.14231 0,0 0,0 0,0"
     style="fill:#ffffff;stroke:#000000;stroke-linecap:butt;stroke-linejoin:miter"
     id="path1120"
     inkscape:connector-curvature="0" />
  <path
     mask="none"
     clip-path="none"
     d="m 249.19377,291.87769 c 0,0 14.66944,0.45432 14.66944,0.45432 0.674,0.0209 1.00779,-0.32157 1.00131,-1.02613 0,0 -0.0954,-10.37085 -0.0954,-10.37085 -0.006,-0.67995 -0.33973,-1.02909 -1.00037,-1.04854 0,0 -14.37915,-0.42354 -14.37915,-0.42354 -0.65822,-0.0194 -0.99318,0.30939 -1.00496,0.98745 0,0 -0.17973,10.34167 -0.17973,10.34167 -0.0122,0.70256 0.31738,1.06483 0.98886,1.08562 0,0 0,0 0,0"
     style="fill:#ffffff;stroke:#000000;stroke-linecap:butt;stroke-linejoin:miter"
     id="path1123"
     inkscape:connector-curvature="0" />
  <path
     mask="none"
     clip-path="none"
     d="m 269.60606,342.77405 c 0,0 15.92337,0.59058 15.92337,0.59058 0.73172,0.0271 1.08089,-0.37241 1.04746,-1.19714 0,0 -0.49133,-12.12192 -0.49133,-12.12192 -0.0322,-0.79359 -0.40626,-1.20233 -1.12227,-1.22762 0,0 -15.58191,-0.55041 -15.58191,-0.55041 -0.71317,-0.0252 -1.06423,0.35707 -1.05325,1.1482 0,0 0.1677,12.08385 0.1677,12.08385 0.0114,0.82211 0.38146,1.24743 1.11023,1.27446 0,0 0,0 0,0"
     style="fill:#ffffff;stroke:#000000;stroke-linecap:butt;stroke-linejoin:miter"
     id="path1126"
     inkscape:connector-curvature="0" />
  <path
     mask="none"
     clip-path="none"
     d="m 269.33294,325.14013 c 0,0 15.50831,0.54191 15.50831,0.54191 0.71261,0.0249 1.05308,-0.35454 1.02137,-1.13693 0,0 -0.46634,-11.50533 -0.46634,-11.50533 -0.0305,-0.7536 -0.39468,-1.14135 -1.09237,-1.16456 0,0 -15.18424,-0.50515 -15.18424,-0.50515 -0.69501,-0.0231 -1.03726,0.34034 -1.02683,1.09169 0,0 0.15919,11.47048 0.15919,11.47048 0.0108,0.78 0.3711,1.18308 1.08091,1.20789 0,0 0,0 0,0"
     style="fill:#ffffff;stroke:#000000;stroke-linecap:butt;stroke-linejoin:miter"
     id="path1129"
     inkscape:connector-curvature="0" />
  <path
     mask="none"
     clip-path="none"
     d="m 269.07366,308.39942 c 0,0 15.11433,0.49736 15.11433,0.49736 0.69448,0.0229 1.02667,-0.33798 0.99655,-1.08121 0,0 -0.44321,-10.93462 -0.44321,-10.93462 -0.029,-0.71655 -0.38373,-1.08488 -1.06403,-1.10618 0,0 -14.80636,-0.46365 -14.80636,-0.46365 -0.67774,-0.0212 -1.01162,0.32481 -1.0017,1.0393 0,0 0.15131,10.90267 0.15131,10.90267 0.0103,0.74103 0.3613,1.12357 1.05311,1.14633 0,0 0,0 0,0"
     style="fill:#ffffff;stroke:#000000;stroke-linecap:butt;stroke-linejoin:miter"
     id="path1132"
     inkscape:connector-curvature="0" />
  <path
     mask="none"
     clip-path="none"
     d="m 268.82718,292.48574 c 0,0 14.73989,0.4565 14.73989,0.4565 0.67723,0.021 1.00154,-0.3226 0.97289,-1.02954 0,0 -0.42175,-10.40535 -0.42175,-10.40535 -0.0276,-0.68218 -0.37337,-1.03248 -1.03712,-1.05203 0,0 -14.44683,-0.42552 -14.44683,-0.42552 -0.66131,-0.0195 -0.98722,0.31036 -0.97778,0.99063 0,0 0.14401,10.376 0.14401,10.376 0.01,0.70492 0.35199,1.06842 1.02669,1.08931 0,0 0,0 0,0"
     style="fill:#ffffff;stroke:#000000;stroke-linecap:butt;stroke-linejoin:miter"
     id="path1135"
     inkscape:connector-curvature="0" />
  <path
     mask="none"
     clip-path="none"
     d="m 290.91878,343.56451 c 0,0 16.00618,0.59365 16.00618,0.59365 0.73553,0.0273 1.07351,-0.37375 1.01394,-1.20159 0,0 -0.87547,-12.16695 -0.87547,-12.16695 -0.0573,-0.7965 -0.44579,-1.20675 -1.16544,-1.23217 0,0 -15.6612,-0.55322 -15.6612,-0.55322 -0.7168,-0.0253 -1.05723,0.35833 -1.02132,1.15235 0,0 0.54852,12.12863 0.54852,12.12863 0.0373,0.8252 0.42224,1.25213 1.15479,1.2793 0,0 0,0 0,0"
     style="fill:#ffffff;stroke:#000000;stroke-linecap:butt;stroke-linejoin:miter"
     id="path1138"
     inkscape:connector-curvature="0" />
  <path
     mask="none"
     clip-path="none"
     d="m 290.08977,325.86544 c 0,0 15.58685,0.54466 15.58685,0.54466 0.71623,0.025 1.04609,-0.35577 0.98958,-1.141 0,0 -0.83082,-11.54655 -0.83082,-11.54655 -0.0544,-0.75626 -0.43221,-1.1454 -1.13336,-1.16872 0,0 -15.25954,-0.50766 -15.25954,-0.50766 -0.69845,-0.0232 -1.0306,0.34149 -0.9965,1.09549 0,0 0.5206,11.51147 0.5206,11.51147 0.0354,0.78282 0.40979,1.18738 1.12319,1.21231 0,0 0,0 0,0"
     style="fill:#ffffff;stroke:#000000;stroke-linecap:butt;stroke-linejoin:miter"
     id="path1141"
     inkscape:connector-curvature="0" />
  <path
     mask="none"
     clip-path="none"
     d="m 289.30285,309.0651 c 0,0 15.18894,0.49981 15.18894,0.49981 0.6979,0.023 1.02002,-0.33911 0.96636,-1.08495 0,0 -0.78952,-10.97241 -0.78952,-10.97241 -0.0517,-0.719 -0.4194,-1.08859 -1.10299,-1.10999 0,0 -14.87795,-0.46589 -14.87795,-0.46589 -0.68102,-0.0213 -1.0053,0.32586 -0.97287,1.04278 0,0 0.49477,10.94026 0.49477,10.94026 0.0336,0.74362 0.39804,1.12751 1.09326,1.15039 0,0 0,0 0,0"
     style="fill:#ffffff;stroke:#000000;stroke-linecap:butt;stroke-linejoin:miter"
     id="path1144"
     inkscape:connector-curvature="0" />
  <path
     mask="none"
     clip-path="none"
     d="m 288.5549,293.09672 c 0,0 14.81083,0.45869 14.81083,0.45869 0.6805,0.0211 0.99523,-0.32365 0.94419,-1.03298 0,0 -0.75121,-10.44006 -0.75121,-10.44006 -0.0493,-0.68442 -0.40731,-1.03589 -1.07419,-1.05553 0,0 -14.51499,-0.42753 -14.51499,-0.42753 -0.66443,-0.0196 -0.9812,0.31133 -0.95033,0.99385 0,0 0.47081,10.41052 0.47081,10.41052 0.032,0.7073 0.38694,1.07204 1.06489,1.09304 0,0 0,0 0,0"
     style="fill:#ffffff;stroke:#000000;stroke-linecap:butt;stroke-linejoin:miter"
     id="path1147"
     inkscape:connector-curvature="0" />
  <path
     mask="none"
     clip-path="none"
     d="m 312.34237,344.35909 c 0,0 16.08964,0.59675 16.08964,0.59675 0.73937,0.0274 1.06604,-0.37511 0.98006,-1.20608 0,0 -1.26357,-12.21229 -1.26357,-12.21229 -0.0827,-0.79943 -0.48571,-1.2112 -1.20904,-1.23675 0,0 -15.74111,-0.55604 -15.74111,-0.55604 -0.72045,-0.0254 -1.05013,0.35958 -0.98904,1.15652 0,0 0.93325,12.17371 0.93325,12.17371 0.0635,0.8283 0.46344,1.25687 1.19981,1.28418 0,0 0,0 0,0"
     style="fill:#ffffff;stroke:#000000;stroke-linecap:butt;stroke-linejoin:miter"
     id="path1150"
     inkscape:connector-curvature="0" />
  <path
     mask="none"
     clip-path="none"
     d="m 310.95175,326.59443 c 0,0 15.666,0.54743 15.666,0.54743 0.71987,0.0251 1.039,-0.35702 0.95746,-1.14511 0,0 -1.19898,-11.58803 -1.19898,-11.58803 -0.0785,-0.75894 -0.47009,-1.14947 -1.17474,-1.17292 0,0 -15.33539,-0.51018 -15.33539,-0.51018 -0.70192,-0.0233 -1.02388,0.34265 -0.96587,1.09931 0,0 0.88564,11.55273 0.88564,11.55273 0.0602,0.78566 0.44886,1.19172 1.16588,1.21677 0,0 0,0 0,0"
     style="fill:#ffffff;stroke:#000000;stroke-linecap:butt;stroke-linejoin:miter"
     id="path1153"
     inkscape:connector-curvature="0" />
  <path
     mask="none"
     clip-path="none"
     d="m 309.63192,309.73406 c 0,0 15.26409,0.50229 15.26409,0.50229 0.70137,0.0231 1.01331,-0.34026 0.93587,-1.08871 0,0 -1.13923,-11.01044 -1.13923,-11.01044 -0.0746,-0.72146 -0.4554,-1.09233 -1.14231,-1.11384 0,0 -14.95006,-0.46815 -14.95006,-0.46815 -0.68431,-0.0214 -0.9989,0.32693 -0.94375,1.0463 0,0 0.84159,10.97808 0.84159,10.97808 0.0572,0.74622 0.43514,1.13148 1.1338,1.15447 0,0 0,0 0,0"
     style="fill:#ffffff;stroke:#000000;stroke-linecap:butt;stroke-linejoin:miter"
     id="path1156"
     inkscape:connector-curvature="0" />
  <path
     mask="none"
     clip-path="none"
     d="m 308.3776,293.71063 c 0,0 14.8823,0.46091 14.8823,0.46091 0.68379,0.0212 0.98884,-0.3247 0.9152,-1.03644 0,0 -1.08382,-10.47498 -1.08382,-10.47498 -0.071,-0.68668 -0.44158,-1.03932 -1.11162,-1.05906 0,0 -14.58362,-0.42955 -14.58362,-0.42955 -0.66757,-0.0197 -0.97511,0.31232 -0.92262,0.99708 0,0 0.80075,10.44526 0.80075,10.44526 0.0544,0.70969 0.42222,1.07568 1.10343,1.09678 0,0 0,0 0,0"
     style="fill:#ffffff;stroke:#000000;stroke-linecap:butt;stroke-linejoin:miter"
     id="path1159"
     inkscape:connector-curvature="0" />
  <path
     mask="none"
     clip-path="none"
     d="m 333.87771,345.15781 c 0,0 16.17375,0.59987 16.17375,0.59987 0.74324,0.0276 1.05847,-0.37647 0.94581,-1.21059 0,0 -1.65569,-12.25793 -1.65569,-12.25793 -0.10837,-0.80238 -0.52603,-1.21569 -1.25305,-1.24137 0,0 -15.82163,-0.55889 -15.82163,-0.55889 -0.72413,-0.0256 -1.04296,0.36085 -0.95642,1.16072 0,0 1.32195,12.2191 1.32195,12.2191 0.0899,0.83143 0.50506,1.26164 1.24528,1.28909 0,0 0,0 0,0"
     style="fill:#ffffff;stroke:#000000;stroke-linecap:butt;stroke-linejoin:miter"
     id="path1162"
     inkscape:connector-curvature="0" />
  <path
     mask="none"
     clip-path="none"
     d="m 331.9197,327.32713 c 0,0 15.74575,0.55021 15.74575,0.55021 0.72354,0.0253 1.03184,-0.35827 0.925,-1.14924 0,0 -1.57084,-11.62978 -1.57084,-11.62978 -0.10288,-0.76165 -0.50835,-1.15358 -1.21651,-1.17714 0,0 -15.41182,-0.51272 -15.41182,-0.51272 -0.70541,-0.0235 -1.01706,0.34381 -0.93491,1.10315 0,0 1.25435,11.59426 1.25435,11.59426 0.0853,0.78852 0.48832,1.19607 1.20898,1.22126 0,0 0,0 0,0"
     style="fill:#ffffff;stroke:#000000;stroke-linecap:butt;stroke-linejoin:miter"
     id="path1165"
     inkscape:connector-curvature="0" />
  <path
     mask="none"
     clip-path="none"
     d="m 330.06162,310.40633 c 0,0 15.33981,0.50478 15.33981,0.50478 0.70484,0.0232 1.0065,-0.34141 0.90505,-1.09249 0,0 -1.49236,-11.04871 -1.49236,-11.04871 -0.0978,-0.72394 -0.49176,-1.0961 -1.182,-1.11771 0,0 -15.02271,-0.47042 -15.02271,-0.47042 -0.68763,-0.0215 -0.99242,0.328 -0.91433,1.04983 0,0 1.19181,11.01614 1.19181,11.01614 0.081,0.74885 0.47261,1.13548 1.17473,1.15858 0,0 0,0 0,0"
     style="fill:#ffffff;stroke:#000000;stroke-linecap:butt;stroke-linejoin:miter"
     id="path1168"
     inkscape:connector-curvature="0" />
  <path
     mask="none"
     clip-path="none"
     d="m 328.29598,294.32751 c 0,0 14.95428,0.46314 14.95428,0.46314 0.6871,0.0213 0.98238,-0.32577 0.88592,-1.03992 0,0 -1.41961,-10.51012 -1.41961,-10.51012 -0.0931,-0.68896 -0.47616,-1.04278 -1.14938,-1.06261 0,0 -14.65275,-0.43159 -14.65275,-0.43159 -0.67073,-0.0198 -0.96895,0.31331 -0.89462,1.00033 0,0 1.13382,10.48023 1.13382,10.48023 0.077,0.71209 0.45784,1.07934 1.14234,1.10054 0,0 0,0 0,0"
     style="fill:#ffffff;stroke:#000000;stroke-linecap:butt;stroke-linejoin:miter"
     id="path1171"
     inkscape:connector-curvature="0" />
  <path
     mask="none"
     clip-path="none"
     d="m 355.52566,345.96071 c 0,0 16.25852,0.60301 16.25852,0.60301 0.74714,0.0277 1.05082,-0.37784 0.91119,-1.21513 0,0 -2.05185,-12.30389 -2.05185,-12.30389 -0.1343,-0.80535 -0.56676,-1.2202 -1.29753,-1.24601 0,0 -15.90274,-0.56175 -15.90274,-0.56175 -0.72784,-0.0257 -1.0357,0.36212 -0.92346,1.16494 0,0 1.71466,12.26479 1.71466,12.26479 0.11668,0.83458 0.54712,1.26644 1.29121,1.29404 0,0 0,0 0,0"
     style="fill:#ffffff;stroke:#000000;stroke-linecap:butt;stroke-linejoin:miter"
     id="path1174"
     inkscape:connector-curvature="0" />
  <path
     mask="none"
     clip-path="none"
     d="m 352.99443,328.06355 c 0,0 15.82609,0.55302 15.82609,0.55302 0.72724,0.0254 1.02459,-0.35953 0.8922,-1.15339 0,0 -1.94644,-11.67182 -1.94644,-11.67182 -0.12747,-0.76436 -0.54699,-1.15771 -1.2587,-1.18138 0,0 -15.4888,-0.51529 -15.4888,-0.51529 -0.70893,-0.0236 -1.01018,0.34498 -0.90364,1.10703 0,0 1.62677,11.63606 1.62677,11.63606 0.11064,0.7914 0.52818,1.20046 1.25252,1.22577 0,0 0,0 0,0"
     style="fill:#ffffff;stroke:#000000;stroke-linecap:butt;stroke-linejoin:miter"
     id="path1177"
     inkscape:connector-curvature="0" />
  <path
     mask="none"
     clip-path="none"
     d="m 350.59268,311.08194 c 0,0 15.41608,0.50729 15.41608,0.50729 0.70836,0.0233 0.99963,-0.34256 0.87393,-1.09631 0,0 -1.84895,-11.08722 -1.84895,-11.08722 -0.12114,-0.72643 -0.52846,-1.09988 -1.22208,-1.1216 0,0 -15.09586,-0.47271 -15.09586,-0.47271 -0.69098,-0.0216 -0.98589,0.32908 -0.88463,1.05338 0,0 1.54546,11.05446 1.54546,11.05446 0.10506,0.75148 0.51044,1.13949 1.21605,1.16271 0,0 0,0 0,0"
     style="fill:#ffffff;stroke:#000000;stroke-linecap:butt;stroke-linejoin:miter"
     id="path1180"
     inkscape:connector-curvature="0" />
  <path
     mask="none"
     clip-path="none"
     d="m 348.31073,294.94737 c 0,0 15.02678,0.46538 15.02678,0.46538 0.69043,0.0214 0.97584,-0.32682 0.85634,-1.04341 0,0 -1.75861,-10.54548 -1.75861,-10.54548 -0.11527,-0.69124 -0.51107,-1.04625 -1.18749,-1.06617 0,0 -14.72236,-0.43364 -14.72236,-0.43364 -0.67392,-0.0199 -0.96273,0.3143 -0.86636,1.00359 0,0 1.47009,10.5154 1.47009,10.5154 0.0999,0.71451 0.49379,1.08303 1.18161,1.10433 0,0 0,0 0,0"
     style="fill:#ffffff;stroke:#000000;stroke-linecap:butt;stroke-linejoin:miter"
     id="path1183"
     inkscape:connector-curvature="0" />
  <path
     mask="none"
     clip-path="none"
     d="m 377.28713,346.76782 c 0,0 16.34395,0.60618 16.34395,0.60618 0.75108,0.0279 1.04308,-0.37923 0.8762,-1.2197 0,0 -2.45211,-12.35017 -2.45211,-12.35017 -0.1605,-0.80833 -0.60791,-1.22474 -1.34244,-1.25069 0,0 -15.9845,-0.56463 -15.9845,-0.56463 -0.73158,-0.0258 -1.02835,0.3634 -0.89015,1.16919 0,0 2.11144,12.3108 2.11144,12.3108 0.14369,0.83775 0.58961,1.27128 1.33761,1.29902 0,0 0,0 0,0"
     style="fill:#ffffff;stroke:#000000;stroke-linecap:butt;stroke-linejoin:miter"
     id="path1186"
     inkscape:connector-curvature="0" />
  <path
     mask="none"
     clip-path="none"
     d="m 374.17675,328.80374 c 0,0 15.90707,0.55584 15.90707,0.55584 0.73096,0.0256 1.01725,-0.36079 0.85905,-1.15757 0,0 -2.32583,-11.71413 -2.32583,-11.71413 -0.15231,-0.76709 -0.58601,-1.16186 -1.30129,-1.18565 0,0 -15.56637,-0.51787 -15.56637,-0.51787 -0.71249,-0.0237 -1.00321,0.34616 -0.87205,1.11093 0,0 2.00293,11.67812 2.00293,11.67812 0.13623,0.7943 0.56845,1.20489 1.29649,1.23033 0,0 0,0 0,0"
     style="fill:#ffffff;stroke:#000000;stroke-linecap:butt;stroke-linejoin:miter"
     id="path1189"
     inkscape:connector-curvature="0" />
  <path
     mask="none"
     clip-path="none"
     d="m 371.22588,311.76091 c 0,0 15.49294,0.50982 15.49294,0.50982 0.71189,0.0234 0.99266,-0.34373 0.84247,-1.10014 0,0 -2.20905,-11.12599 -2.20905,-11.12599 -0.14473,-0.72893 -0.56552,-1.10368 -1.26253,-1.12551 0,0 -15.16956,-0.47502 -15.16956,-0.47502 -0.69435,-0.0217 -0.97927,0.33016 -0.85461,1.05696 0,0 1.90257,11.09301 1.90257,11.09301 0.12934,0.75414 0.54865,1.14353 1.25777,1.16687 0,0 0,0 0,0"
     style="fill:#ffffff;stroke:#000000;stroke-linecap:butt;stroke-linejoin:miter"
     id="path1192"
     inkscape:connector-curvature="0" />
  <path
     mask="none"
     clip-path="none"
     d="m 368.42256,295.57024 c 0,0 15.09981,0.46764 15.09981,0.46764 0.69379,0.0215 0.96923,-0.3279 0.82647,-1.04693 0,0 -2.10086,-10.58105 -2.10086,-10.58105 -0.13771,-0.69355 -0.54631,-1.04975 -1.22596,-1.06977 0,0 -14.79247,-0.43571 -14.79247,-0.43571 -0.67713,-0.0199 -0.95644,0.3153 -0.83783,1.00689 0,0 1.80958,10.55079 1.80958,10.55079 0.12297,0.71695 0.5301,1.08673 1.22126,1.10814 0,0 0,0 0,0"
     style="fill:#ffffff;stroke:#000000;stroke-linecap:butt;stroke-linejoin:miter"
     id="path1195"
     inkscape:connector-curvature="0" />
  <g
     id="g14523"
     transform="matrix(1.7894243,0,0,1.7894243,-669.38959,-140.13907)"
     style="stroke-linecap:butt;stroke-linejoin:round">
    <path
       inkscape:connector-curvature="0"
       id="path14-6"
       style="fill:#ffffff;stroke-linecap:butt;stroke-linejoin:round"
       d="m 688.93188,199.5614 c 0,0 318.12632,6.48552 318.12632,6.48552 0,0 -11.47442,-52.91194 -11.47442,-52.91194 0,0 -287.83659,-4.04358 -287.83659,-4.04358 0,0 -18.81531,50.47 -18.81531,50.47"
       clip-path="none"
       mask="none" />
    <path
       inkscape:connector-curvature="0"
       id="path743-7"
       style="fill:none;stroke:#ac67bb;stroke-width:1.5;stroke-linecap:square;stroke-linejoin:round"
       d="m 694.18011,191.92069 c 0,0 12.25983,-3.01822 12.25983,-3.01822 0,0 23.88302,-10.14392 23.88302,-10.14392 0,0 10.93963,0.19359 10.93963,0.19359 0,0 22.90522,-9.81185 22.90522,-9.81185 0,0 10.81115,0.17764 10.81115,0.17764 0,0 21.97669,-9.49552 21.97669,-9.49552 0,0 10.68528,0.16259 10.68528,0.16259 0,0 16.57609,-9.25741 16.57609,-9.25741 0,0 18.73176,9.79467 18.73176,9.79467 0,0 10.80688,0.16444 10.80688,0.16444 0,0 19.84145,10.25168 19.84145,10.25168 0,0 11.10618,0.18249 11.10618,0.18249 0,0 21.03771,10.7419 21.03771,10.7419 0,0 11.42219,0.20213 11.42219,0.20213 0,0 22.32947,11.26869 22.32947,11.26869 0,0 11.75633,0.22353 11.75633,0.22353 0,0 18.54756,11.73016 18.54756,11.73016 0,0 20.31728,-10.99121 20.31728,-10.99121 0,0 11.30887,-2.5663 11.30887,-2.5663"
       clip-path="none"
       mask="none" />
    <path
       inkscape:connector-curvature="0"
       id="path746-5"
       style="fill:none;stroke:#5c9dde;stroke-width:1.5;stroke-linecap:square;stroke-linejoin:round"
       d="m 694.18943,185.45859 c 0,0 17.00451,3.53427 17.00451,3.53427 0,0 11.1146,0.21133 11.1146,0.21133 0,0 12.78288,11.29824 12.78288,11.29824 0,0 23.95427,-10.59975 23.95427,-10.59975 0,0 11.24762,0.21386 11.24762,0.21386 0,0 22.9451,-10.24463 22.9451,-10.24463 0,0 11.11151,0.19663 11.11151,0.19663 0,0 21.98804,-9.9067 21.98804,-9.9067 0,0 10.97828,0.18039 10.97828,0.18039 0,0 21.07971,-9.58492 21.07971,-9.58492 0,0 10.84786,0.16507 10.84786,0.16507 0,0 15.63114,-9.34266 15.63114,-9.34266 0,0 20.21547,9.88812 20.21547,9.88812 0,0 10.97224,0.16696 10.97224,0.16696 0,0 21.40675,10.3531 21.40675,10.3531 0,0 11.28023,0.18535 11.28023,0.18535 0,0 22.6914,10.85216 22.6914,10.85216 0,0 11.60564,0.20537 11.60564,0.20537 0,0 19.72422,3.04616 19.72422,3.04616"
       clip-path="none"
       mask="none" />
    <path
       inkscape:connector-curvature="0"
       id="path749-3"
       style="fill:none;stroke:#d27384;stroke-width:1.5;stroke-linecap:square;stroke-linejoin:round"
       d="m 698.08796,181.3093 c 0,0 11.99717,-2.90888 11.99717,-2.90888 0,0 23.3523,-9.76508 23.3523,-9.76508 0,0 10.72901,0.17629 10.72901,0.17629 0,0 22.41414,-9.45143 22.41414,-9.45143 0,0 10.60536,0.16138 10.60536,0.16138 0,0 17.0374,-9.21535 17.0374,-9.21535 0,0 18.00562,9.74858 18.00562,9.74858 0,0 10.72559,0.16321 10.72559,0.16321 0,0 19.07573,10.20167 19.07573,10.20167 0,0 11.02067,0.18108 11.02067,0.18108 0,0 20.22915,10.68757 20.22915,10.68757 0,0 11.33211,0.20054 11.33211,0.20054 0,0 21.47443,11.20955 21.47443,11.20955 0,0 11.66131,0.22172 11.66131,0.22172 0,0 17.68489,11.66657 17.68489,11.66657 0,0 20.86484,-10.93361 20.86484,-10.93361 0,0 11.80428,0.22444 11.80428,0.22444 0,0 19.92851,-10.55857 19.92851,-10.55857 0,0 11.0841,-2.47243 11.0841,-2.47243"
       clip-path="none"
       mask="none" />
    <path
       inkscape:connector-curvature="0"
       id="path752-5"
       style="fill:none;stroke:#18b3cf;stroke-width:1.5;stroke-linecap:square;stroke-linejoin:round"
       d="m 698.04956,175.10423 c 0,0 16.6968,3.37868 16.6968,3.37868 0,0 10.89728,0.19284 10.89728,0.19284 0,0 17.38819,10.92246 17.38819,10.92246 0,0 11.20302,0.213 11.20302,0.213 0,0 13.56841,11.35811 13.56841,11.35811 0,0 23.46184,-10.65404 23.46184,-10.65404 0,0 11.33762,0.21557 11.33762,0.21557 0,0 22.46385,-10.2957 22.46385,-10.2957 0,0 11.19897,0.19818 11.19897,0.19818 0,0 21.51768,-9.9548 21.51768,-9.9548 0,0 11.0633,0.18179 11.0633,0.18179 0,0 20.61991,-9.63022 20.61991,-9.63022 0,0 10.93055,0.16632 10.93055,0.16632 0,0 15.14724,-9.38585 15.14724,-9.38585 0,0 20.97337,9.93548 20.97337,9.93548 0,0 11.05636,0.16824 11.05636,0.16824 0,0 22.20671,10.40453 22.20671,10.40453 0,0 11.36881,0.18681 11.36881,0.18681 0,0 19.30873,2.90667 19.30873,2.90667"
       clip-path="none"
       mask="none" />
    <path
       inkscape:connector-curvature="0"
       id="path755-6"
       style="fill:none;stroke:#ec883b;stroke-width:1.5;stroke-linecap:square;stroke-linejoin:round"
       d="m 701.84225,171.11489 c 0,0 11.74549,-2.80571 11.74549,-2.80571 0,0 22.84439,-9.40773 22.84439,-9.40773 0,0 10.52634,0.16018 10.52634,0.16018 0,0 17.49142,-9.17366 17.49142,-9.17366 0,0 17.28973,9.7029 17.28973,9.7029 0,0 10.64522,0.16199 10.64522,0.16199 0,0 18.32106,10.15212 18.32106,10.15212 0,0 10.93613,0.17969 10.93613,0.17969 0,0 19.43251,10.63376 19.43251,10.63376 0,0 11.24309,0.19896 11.24309,0.19896 0,0 20.63229,11.151 20.63229,11.151 0,0 11.56742,0.21993 11.56742,0.21993 0,0 16.83566,11.60363 16.83566,11.60363 0,0 21.40278,-10.87659 21.40278,-10.87659 0,0 11.70868,0.22262 11.70868,0.22262 0,0 20.45332,-10.50497 20.45332,-10.50497 0,0 11.55936,0.20456 11.55936,0.20456 0,0 19.55422,-10.15173 19.55422,-10.15173 0,0 10.86813,-2.38397 10.86813,-2.38397"
       clip-path="none"
       mask="none" />
    <path
       inkscape:connector-curvature="0"
       id="path758-2"
       style="fill:none;stroke:#3fb494;stroke-width:1.5;stroke-linecap:square;stroke-linejoin:round"
       d="m 701.7598,165.1519 c 0,0 16.39994,3.2324 16.39994,3.2324 0,0 10.68829,0.17563 10.68829,0.17563 0,0 17.11208,10.47534 17.11208,10.47534 0,0 10.98222,0.19434 10.98222,0.19434 0,0 18.18098,10.97876 18.18098,10.97876 0,0 11.29249,0.21471 11.29249,0.21471 0,0 14.36624,11.41856 14.36624,11.41856 0,0 22.96063,-10.70885 22.96063,-10.70885 0,0 11.42872,0.2173 11.42872,0.2173 0,0 21.9742,-10.34727 21.9742,-10.34727 0,0 11.28747,0.19975 11.28747,0.19975 0,0 21.03925,-10.00334 21.03925,-10.00334 0,0 11.14932,0.1832 11.14932,0.1832 0,0 20.15239,-9.67594 20.15239,-9.67594 0,0 11.01418,0.1676 11.01418,0.1676 0,0 14.65556,-9.42944 14.65556,-9.42944 0,0 21.74222,9.98328 21.74222,9.98328 0,0 11.14145,0.16954 11.14145,0.16954 0,0 18.91033,2.77575 18.91033,2.77575"
       clip-path="none"
       mask="none" />
    <path
       inkscape:connector-curvature="0"
       id="path761-9"
       style="fill:none;stroke:#e2a40a;stroke-width:1.5;stroke-linecap:square;stroke-linejoin:round"
       d="m 705.45186,161.31334 c 0,0 11.50411,-2.70825 11.50411,-2.70825 0,0 17.9383,-9.13232 17.9383,-9.13232 0,0 16.58391,9.65763 16.58391,9.65763 0,0 10.56574,0.16077 10.56574,0.16077 0,0 17.57725,10.10304 17.57725,10.10304 0,0 10.85256,0.17832 10.85256,0.17832 0,0 18.64759,10.58045 18.64759,10.58045 0,0 11.15511,0.1974 11.15511,0.1974 0,0 19.80281,11.09302 19.80281,11.09302 0,0 11.47468,0.21818 11.47468,0.21818 0,0 15.99962,11.54131 15.99962,11.54131 0,0 21.93128,-10.82012 21.93128,-10.82012 0,0 11.61423,0.22083 11.61423,0.22083 0,0 20.96909,-10.4519 20.96909,-10.4519 0,0 11.46765,0.20293 11.46765,0.20293 0,0 20.05768,-10.10179 20.05768,-10.10179 0,0 11.32439,0.18608 11.32439,0.18608 0,0 19.19365,-9.76866 19.19365,-9.76866 0,0 10.66039,-2.3005 10.66039,-2.3005"
       clip-path="none"
       mask="none" />
    <path
       inkscape:connector-curvature="0"
       id="path764-1"
       style="fill:none;stroke:#9aab47;stroke-width:1.5;stroke-linecap:square;stroke-linejoin:round"
       d="m 705.32874,155.57861 c 0,0 16.11336,3.09475 16.11336,3.09475 0,0 10.48715,0.15957 10.48715,0.15957 0,0 16.8441,10.0544 16.8441,10.0544 0,0 10.76995,0.17697 10.76995,0.17697 0,0 17.87418,10.52764 17.87418,10.52764 0,0 11.06816,0.19587 11.06816,0.19587 0,0 18.98578,11.03561 18.98578,11.03561 0,0 11.38303,0.21643 11.38303,0.21643 0,0 15.17657,11.47963 15.17657,11.47963 0,0 22.4505,-10.76421 22.4505,-10.76421 0,0 11.52091,0.21905 11.52091,0.21905 0,0 21.47601,-10.39933 21.47601,-10.39933 0,0 11.37703,0.20133 11.37703,0.20133 0,0 20.55263,-10.05234 20.55263,-10.05234 0,0 11.23634,0.18463 11.23634,0.18463 0,0 19.67702,-9.72208 19.67702,-9.72208 0,0 11.09878,0.16888 11.09878,0.16888 0,0 14.15594,-9.47341 14.15594,-9.47341 0,0 18.52801,2.65275 18.52801,2.65275"
       clip-path="none"
       mask="none" />
    <path
       inkscape:connector-curvature="0"
       id="path767-2"
       style="fill:none;stroke:#8d5ccd;stroke-width:1.5;stroke-linecap:square;stroke-linejoin:round"
       d="m 689.96485,196.79056 c 0,0 12.67842,3.05037 12.67842,3.05037 0,0 24.4381,-10.546 24.4381,-10.546 0,0 11.15869,0.21217 11.15869,0.21217 0,0 23.4181,-10.19403 23.4181,-10.19403 0,0 11.02507,0.1951 11.02507,0.1951 0,0 22.45052,-9.85907 22.45052,-9.85907 0,0 10.89423,0.17901 10.89423,0.17901 0,0 21.53192,-9.54001 21.53192,-9.54001 0,0 10.76612,0.16382 10.76612,0.16382 0,0 16.10738,-9.29985 16.10738,-9.29985 0,0 19.46832,9.84119 19.46832,9.84119 0,0 10.88908,0.16569 10.88908,0.16569 0,0 20.61839,10.30215 20.61839,10.30215 0,0 11.1927,0.18391 11.1927,0.18391 0,0 21.85839,10.79677 21.85839,10.79677 0,0 11.51336,0.20374 11.51336,0.20374 0,0 23.19761,11.32841 23.19761,11.32841 0,0 11.85255,0.22536 11.85255,0.22536 0,0 18.8059,8.88045 18.8059,8.88045"
       clip-path="none"
       mask="none" />
    <path
       inkscape:connector-curvature="0"
       id="path772-7"
       style="fill:none;stroke:#000000;stroke-linecap:butt;stroke-linejoin:round;stroke-dasharray:1, 1.65;stroke-dashoffset:0"
       d="m 696.99172,199.72571 c 0,0 18.07445,-50.53149 18.07445,-50.53149"
       clip-path="none"
       mask="none" />
    <path
       inkscape:connector-curvature="0"
       id="path775-0"
       style="fill:none;stroke:#000000;stroke-linecap:butt;stroke-linejoin:round;stroke-dasharray:1, 1.65;stroke-dashoffset:0"
       d="m 713.16019,200.05533 c 0,0 16.58406,-50.65491 16.58406,-50.65491"
       clip-path="none"
       mask="none" />
    <path
       inkscape:connector-curvature="0"
       id="path778-9"
       style="fill:none;stroke:#000000;stroke-linecap:butt;stroke-linejoin:round;stroke-dasharray:1, 1.65;stroke-dashoffset:0"
       d="m 729.39405,200.38628 c 0,0 15.08205,-50.7789 15.08205,-50.7789"
       clip-path="none"
       mask="none" />
    <path
       inkscape:connector-curvature="0"
       id="path781-3"
       style="fill:none;stroke:#000000;stroke-linecap:butt;stroke-linejoin:round;stroke-dasharray:1, 1.65;stroke-dashoffset:0"
       d="m 745.69369,200.71858 c 0,0 13.56832,-50.90349 13.56832,-50.90349"
       clip-path="none"
       mask="none" />
    <path
       inkscape:connector-curvature="0"
       id="path784-6"
       style="fill:none;stroke:#000000;stroke-linecap:butt;stroke-linejoin:round;stroke-dasharray:1, 1.65;stroke-dashoffset:0"
       d="m 762.05951,201.05222 c 0,0 12.04274,-51.02865 12.04274,-51.02865"
       clip-path="none"
       mask="none" />
    <path
       inkscape:connector-curvature="0"
       id="path787-0"
       style="fill:none;stroke:#000000;stroke-linecap:butt;stroke-linejoin:round;stroke-dasharray:1, 1.65;stroke-dashoffset:0"
       d="m 778.49193,201.38722 c 0,0 10.50523,-51.1544 10.50523,-51.1544"
       clip-path="none"
       mask="none" />
    <path
       inkscape:connector-curvature="0"
       id="path790-6"
       style="fill:none;stroke:#000000;stroke-linecap:butt;stroke-linejoin:round;stroke-dasharray:1, 1.65;stroke-dashoffset:0"
       d="m 794.99134,201.72359 c 0,0 8.95567,-51.28076 8.95567,-51.28076"
       clip-path="none"
       mask="none" />
    <path
       inkscape:connector-curvature="0"
       id="path793-2"
       style="fill:none;stroke:#000000;stroke-linecap:butt;stroke-linejoin:round;stroke-dasharray:1, 1.65;stroke-dashoffset:0"
       d="m 811.55816,202.06133 c 0,0 7.39396,-51.4077 7.39396,-51.4077"
       clip-path="none"
       mask="none" />
    <path
       inkscape:connector-curvature="0"
       id="path796-6"
       style="fill:none;stroke:#000000;stroke-linecap:butt;stroke-linejoin:round;stroke-dasharray:1, 1.65;stroke-dashoffset:0"
       d="m 828.1928,202.40046 c 0,0 5.81999,-51.53526 5.81999,-51.53526"
       clip-path="none"
       mask="none" />
    <path
       inkscape:connector-curvature="0"
       id="path799-1"
       style="fill:none;stroke:#000000;stroke-linecap:butt;stroke-linejoin:round;stroke-dasharray:1, 1.65;stroke-dashoffset:0"
       d="m 844.89567,202.74097 c 0,0 4.23368,-51.66341 4.23368,-51.66341"
       clip-path="none"
       mask="none" />
    <path
       inkscape:connector-curvature="0"
       id="path802-8"
       style="fill:none;stroke:#000000;stroke-linecap:butt;stroke-linejoin:round;stroke-dasharray:1, 1.65;stroke-dashoffset:0"
       d="m 861.66721,203.08289 c 0,0 2.63487,-51.79218 2.63487,-51.79218"
       clip-path="none"
       mask="none" />
    <path
       inkscape:connector-curvature="0"
       id="path805-7"
       style="fill:none;stroke:#000000;stroke-linecap:butt;stroke-linejoin:round;stroke-dasharray:1, 1.65;stroke-dashoffset:0"
       d="m 878.50783,203.42621 c 0,0 1.02348,-51.92156 1.02348,-51.92156"
       clip-path="none"
       mask="none" />
    <path
       inkscape:connector-curvature="0"
       id="path808-9"
       style="fill:none;stroke:#000000;stroke-linecap:butt;stroke-linejoin:round;stroke-dasharray:1, 1.65;stroke-dashoffset:0"
       d="m 895.41796,203.77095 c 0,0 -0.60059,-52.05155 -0.60059,-52.05155"
       clip-path="none"
       mask="none" />
    <path
       inkscape:connector-curvature="0"
       id="path811-2"
       style="fill:none;stroke:#000000;stroke-linecap:butt;stroke-linejoin:round;stroke-dasharray:1, 1.65;stroke-dashoffset:0"
       d="m 912.39802,204.11712 c 0,0 -2.23747,-52.18218 -2.23747,-52.18218"
       clip-path="none"
       mask="none" />
    <path
       inkscape:connector-curvature="0"
       id="path814-0"
       style="fill:none;stroke:#000000;stroke-linecap:butt;stroke-linejoin:round;stroke-dasharray:1, 1.65;stroke-dashoffset:0"
       d="m 929.44847,204.46472 c 0,0 -3.88728,-52.31343 -3.88728,-52.31343"
       clip-path="none"
       mask="none" />
    <path
       inkscape:connector-curvature="0"
       id="path817-2"
       style="fill:none;stroke:#000000;stroke-linecap:butt;stroke-linejoin:round;stroke-dasharray:1, 1.65;stroke-dashoffset:0"
       d="m 946.56974,204.81376 c 0,0 -5.55014,-52.44531 -5.55014,-52.44531"
       clip-path="none"
       mask="none" />
    <path
       inkscape:connector-curvature="0"
       id="path820-3"
       style="fill:none;stroke:#000000;stroke-linecap:butt;stroke-linejoin:round;stroke-dasharray:1, 1.65;stroke-dashoffset:0"
       d="m 963.76225,205.16426 c 0,0 -7.22613,-52.57783 -7.22613,-52.57783"
       clip-path="none"
       mask="none" />
    <path
       inkscape:connector-curvature="0"
       id="path823-7"
       style="fill:none;stroke:#000000;stroke-linecap:butt;stroke-linejoin:round;stroke-dasharray:1, 1.65;stroke-dashoffset:0"
       d="m 981.02648,205.51622 c 0,0 -8.91541,-52.71099 -8.91541,-52.71099"
       clip-path="none"
       mask="none" />
    <path
       inkscape:connector-curvature="0"
       id="path826-5"
       style="fill:none;stroke:#000000;stroke-linecap:butt;stroke-linejoin:round;stroke-dasharray:1, 1.65;stroke-dashoffset:0"
       d="m 998.36286,205.86965 c 0,0 -10.61806,-52.8448 -10.61806,-52.8448"
       clip-path="none"
       mask="none" />
    <path
       inkscape:connector-curvature="0"
       id="path829-9"
       style="fill:none;stroke:#000000;stroke-linecap:butt;stroke-linejoin:round;stroke-dasharray:1, 1.65;stroke-dashoffset:0"
       d="m 690.98723,194.04816 c 0,0 314.81337,6.19955 314.81337,6.19955"
       clip-path="none"
       mask="none" />
    <path
       inkscape:connector-curvature="0"
       id="path832-2"
       style="fill:none;stroke:#000000;stroke-linecap:butt;stroke-linejoin:round;stroke-dasharray:1, 1.65;stroke-dashoffset:0"
       d="m 694.97388,183.35439 c 0,0 308.39032,5.65833 308.39032,5.65833"
       clip-path="none"
       mask="none" />
    <path
       inkscape:connector-curvature="0"
       id="path835-2"
       style="fill:none;stroke:#000000;stroke-linecap:butt;stroke-linejoin:round;stroke-dasharray:1, 1.65;stroke-dashoffset:0"
       d="m 698.80331,173.08236 c 0,0 302.22419,5.15518 302.22419,5.15518"
       clip-path="none"
       mask="none" />
    <path
       inkscape:connector-curvature="0"
       id="path838-8"
       style="fill:none;stroke:#000000;stroke-linecap:butt;stroke-linejoin:round;stroke-dasharray:1, 1.65;stroke-dashoffset:0"
       d="m 702.48463,163.20762 c 0,0 296.29989,4.68687 296.29989,4.68687"
       clip-path="none"
       mask="none" />
    <path
       inkscape:connector-curvature="0"
       id="path841-9"
       style="fill:none;stroke:#000000;stroke-linecap:butt;stroke-linejoin:round;stroke-dasharray:1, 1.65;stroke-dashoffset:0"
       d="m 706.02628,153.70754 c 0,0 290.60344,4.25056 290.60344,4.25056"
       clip-path="none"
       mask="none" />
    <path
       inkscape:connector-curvature="0"
       id="path844-7"
       style="fill:none;stroke:#000000;stroke-width:2;stroke-linecap:square;stroke-linejoin:round"
       d="m 688.93188,199.5614 c 0,0 18.81531,-50.47 18.81531,-50.47"
       clip-path="none"
       mask="none" />
    <path
       inkscape:connector-curvature="0"
       id="path847-3"
       style="fill:none;stroke:#000000;stroke-width:2;stroke-linecap:square;stroke-linejoin:round"
       d="m 688.93188,199.5614 c 0,0 318.12632,6.48552 318.12632,6.48552"
       clip-path="none"
       mask="none" />
    <path
       inkscape:connector-curvature="0"
       id="path850-6"
       style="fill:none;stroke:#000000;stroke-width:2;stroke-linecap:square;stroke-linejoin:round"
       d="m 1007.0582,206.04692 c 0,0 -11.47442,-52.91194 -11.47442,-52.91194"
       clip-path="none"
       mask="none" />
    <path
       inkscape:connector-curvature="0"
       id="path853-1"
       style="fill:none;stroke:#000000;stroke-width:2;stroke-linecap:square;stroke-linejoin:round"
       d="m 707.74719,149.0914 c 0,0 287.83659,4.04358 287.83659,4.04358"
       clip-path="none"
       mask="none" />
  </g>
  <path
     style="fill:#d2d2d2;fill-rule:evenodd;stroke:#000000;stroke-width:0.80000001px;stroke-linecap:butt;stroke-linejoin:miter;stroke-opacity:1;fill-opacity:0.45922747"
     d="m 549.19055,201.7267 27.21719,32.80975 23.4888,-12.30366 -36.53814,-32.80976 z"
     id="path14565"
     inkscape:connector-curvature="0" />
  <path
     style="fill:#d2d2d2;fill-opacity:0.4592275;fill-rule:evenodd;stroke:#000000;stroke-width:0.80000001px;stroke-linecap:butt;stroke-linejoin:miter;stroke-opacity:1"
     d="m 576.78057,132.3788 14.91353,14.54069 37.28381,-26.47151 -16.40488,-13.04933 z"
     id="path14567"
     inkscape:connector-curvature="0"
     sodipodi:nodetypes="ccccc" />
  <path
     style="fill:#d2d2d2;fill-rule:evenodd;stroke:#000000;stroke-width:0.80000001px;stroke-linecap:butt;stroke-linejoin:miter;stroke-opacity:1;fill-opacity:0.45922747"
     d="m 732.99974,211.04765 -4.47405,23.11596 214.75479,4.47405 -0.74568,-27.59001 z"
     id="path14569"
     inkscape:connector-curvature="0" />
  <path
     style="fill:#d2d2d2;fill-rule:evenodd;stroke:#000000;stroke-width:0.80000001px;stroke-linecap:butt;stroke-linejoin:miter;stroke-opacity:1;fill-opacity:0.45922747"
     d="m 748.65894,112.61838 -10.43946,26.09867 194.62148,1.49136 -1.49136,-21.62462 z"
     id="path14571"
     inkscape:connector-curvature="0" />
  <path
     style="fill:#d2d2d2;fill-rule:evenodd;stroke:#000000;stroke-width:0.80000001px;stroke-linecap:butt;stroke-linejoin:miter;stroke-opacity:1;fill-opacity:0.45922747"
     d="m 1100.9454,117.9443 34.2728,22.67272 -12.6546,18.98182 -45.3454,-32.69091 z"
     id="path14573"
     inkscape:connector-curvature="0" />
  <path
     style="fill:#d2d2d2;fill-rule:evenodd;stroke:#000000;stroke-width:0.80000001px;stroke-linecap:butt;stroke-linejoin:miter;stroke-opacity:1;fill-opacity:0.45922747"
     d="m 1089.3454,227.08974 16.3455,18.45456 48.5091,-32.69092 -18.9818,-18.45454 z"
     id="path14577"
     inkscape:connector-curvature="0" />
  <path
     style="fill:#917c6f;fill-rule:evenodd;stroke:#75656c;stroke-width:3.2;stroke-linecap:butt;stroke-linejoin:miter;stroke-opacity:1;stroke-miterlimit:4;stroke-dasharray:none"
     d="m 522.43793,237.64479 647.49087,11.6"
     id="path14563-3"
     inkscape:connector-curvature="0"
     sodipodi:nodetypes="cc" />
  <ellipse
     style="fill:#0000f7;fill-opacity:1;stroke:none;stroke-width:3.20000005;stroke-linecap:round;stroke-linejoin:round;stroke-miterlimit:4;stroke-dasharray:none;stroke-dashoffset:0;stroke-opacity:1"
     id="path14898"
     cx="785.56995"
     cy="436.24188"
     rx="26.471506"
     ry="8.9481144" />
  <ellipse
     style="fill:#0000f7;fill-opacity:1;stroke:none;stroke-width:3.20000005;stroke-linecap:round;stroke-linejoin:round;stroke-miterlimit:4;stroke-dasharray:none;stroke-dashoffset:0;stroke-opacity:1"
     id="path14898-8"
     cx="788.17981"
     cy="496.64166"
     rx="26.471506"
     ry="8.9481144" />
</svg>
